G75*
%MOIN*%
%OFA0B0*%
%FSLAX25Y25*%
%IPPOS*%
%LPD*%
%AMOC8*
5,1,8,0,0,1.08239X$1,22.5*
%
%ADD10C,0.00200*%
%ADD11C,0.00000*%
%ADD12C,0.01328*%
%ADD13R,0.02369X0.02369*%
%ADD14R,0.05124X0.05124*%
%ADD15R,0.01975X0.02762*%
%ADD16R,0.02369X0.02369*%
%ADD17R,0.04337X0.04337*%
%ADD18R,0.02762X0.03550*%
%ADD19R,0.03550X0.02762*%
%ADD20C,0.04400*%
%ADD21R,0.12211X0.05912*%
%ADD22R,0.03550X0.03550*%
%ADD23R,0.07498X0.06699*%
%ADD24R,0.01975X0.06699*%
%ADD25R,0.08400X0.08400*%
%ADD26C,0.08400*%
%ADD27C,0.12998*%
%ADD28R,0.07800X0.07800*%
%ADD29C,0.07800*%
%ADD30C,0.06400*%
%ADD31R,0.05715X0.01975*%
%ADD32R,0.05912X0.06699*%
%ADD33R,0.07880X0.07880*%
%ADD34C,0.03943*%
%ADD35C,0.00039*%
%ADD36R,0.03943X0.03550*%
%ADD37R,0.04337X0.04731*%
%ADD38R,0.05124X0.02565*%
%ADD39R,0.03550X0.03943*%
%ADD40R,0.02762X0.01975*%
%ADD41C,0.06306*%
D10*
X0219030Y0083400D02*
X0219764Y0084134D01*
X0219030Y0084868D01*
X0221232Y0084868D01*
X0220865Y0085610D02*
X0220131Y0085610D01*
X0219764Y0085977D01*
X0219764Y0086711D01*
X0220131Y0087078D01*
X0220498Y0087078D01*
X0220498Y0085610D01*
X0220865Y0085610D02*
X0221232Y0085977D01*
X0221232Y0086711D01*
X0220865Y0087820D02*
X0221232Y0088187D01*
X0221232Y0089288D01*
X0221232Y0090030D02*
X0219030Y0090030D01*
X0219764Y0090397D02*
X0219764Y0091131D01*
X0220131Y0091498D01*
X0221232Y0091498D01*
X0220865Y0092240D02*
X0220498Y0092606D01*
X0220498Y0093707D01*
X0220131Y0093707D02*
X0221232Y0093707D01*
X0221232Y0092606D01*
X0220865Y0092240D01*
X0219764Y0092606D02*
X0219764Y0093340D01*
X0220131Y0093707D01*
X0220131Y0094449D02*
X0219764Y0094816D01*
X0219764Y0095917D01*
X0219030Y0095917D02*
X0221232Y0095917D01*
X0221232Y0094816D01*
X0220865Y0094449D01*
X0220131Y0094449D01*
X0219764Y0096659D02*
X0220865Y0096659D01*
X0221232Y0097026D01*
X0221232Y0098127D01*
X0219764Y0098127D01*
X0219764Y0098869D02*
X0219764Y0099236D01*
X0221232Y0099236D01*
X0221232Y0098869D02*
X0221232Y0099603D01*
X0221232Y0100342D02*
X0219764Y0100342D01*
X0219764Y0101443D01*
X0220131Y0101810D01*
X0221232Y0101810D01*
X0220865Y0102552D02*
X0221232Y0102919D01*
X0221232Y0103653D01*
X0220865Y0104020D01*
X0220131Y0104020D01*
X0219764Y0103653D01*
X0219764Y0102919D01*
X0220131Y0102552D01*
X0220865Y0102552D01*
X0222630Y0102921D02*
X0224832Y0102921D01*
X0224832Y0102179D02*
X0224832Y0101078D01*
X0224465Y0100711D01*
X0223731Y0100711D01*
X0223364Y0101078D01*
X0223364Y0102179D01*
X0223731Y0102921D02*
X0223364Y0103288D01*
X0223364Y0104022D01*
X0223731Y0104389D01*
X0224832Y0104389D01*
X0226230Y0102547D02*
X0226597Y0101813D01*
X0227331Y0101079D01*
X0227331Y0102180D01*
X0227698Y0102547D01*
X0228065Y0102547D01*
X0228432Y0102180D01*
X0228432Y0101446D01*
X0228065Y0101079D01*
X0227331Y0101079D01*
X0228432Y0100337D02*
X0228432Y0098869D01*
X0228432Y0099603D02*
X0226230Y0099603D01*
X0226964Y0098869D01*
X0226597Y0098127D02*
X0228065Y0096659D01*
X0228432Y0097026D01*
X0228432Y0097760D01*
X0228065Y0098127D01*
X0226597Y0098127D01*
X0226230Y0097760D01*
X0226230Y0097026D01*
X0226597Y0096659D01*
X0228065Y0096659D01*
X0228432Y0095917D02*
X0228432Y0094449D01*
X0226964Y0095917D01*
X0226597Y0095917D01*
X0226230Y0095550D01*
X0226230Y0094816D01*
X0226597Y0094449D01*
X0226230Y0093707D02*
X0228432Y0092240D01*
X0228065Y0091498D02*
X0228432Y0091131D01*
X0228432Y0090397D01*
X0228065Y0090030D01*
X0226597Y0091498D01*
X0228065Y0091498D01*
X0226597Y0091498D02*
X0226230Y0091131D01*
X0226230Y0090397D01*
X0226597Y0090030D01*
X0228065Y0090030D01*
X0228432Y0089288D02*
X0228432Y0087820D01*
X0226964Y0089288D01*
X0226597Y0089288D01*
X0226230Y0088921D01*
X0226230Y0088187D01*
X0226597Y0087820D01*
X0226230Y0087078D02*
X0228432Y0085610D01*
X0228065Y0084868D02*
X0228432Y0084501D01*
X0228432Y0083767D01*
X0228065Y0083400D01*
X0227331Y0084134D02*
X0227331Y0084501D01*
X0227698Y0084868D01*
X0228065Y0084868D01*
X0227331Y0084501D02*
X0226964Y0084868D01*
X0226597Y0084868D01*
X0226230Y0084501D01*
X0226230Y0083767D01*
X0226597Y0083400D01*
X0224832Y0083767D02*
X0224465Y0083400D01*
X0224832Y0083767D02*
X0224832Y0084134D01*
X0224465Y0084501D01*
X0222630Y0084501D01*
X0222630Y0084134D02*
X0222630Y0084868D01*
X0223731Y0085610D02*
X0223364Y0085977D01*
X0223364Y0086711D01*
X0223731Y0087078D01*
X0224465Y0087078D01*
X0224832Y0086711D01*
X0224832Y0085977D01*
X0224465Y0085610D01*
X0223731Y0085610D01*
X0223731Y0087820D02*
X0223364Y0088187D01*
X0223364Y0088921D01*
X0223731Y0089288D01*
X0224098Y0089288D01*
X0224098Y0087820D01*
X0224465Y0087820D02*
X0223731Y0087820D01*
X0224465Y0087820D02*
X0224832Y0088187D01*
X0224832Y0088921D01*
X0224465Y0092240D02*
X0222997Y0092240D01*
X0222630Y0092606D01*
X0222630Y0093340D01*
X0222997Y0093707D01*
X0222630Y0094449D02*
X0224832Y0094449D01*
X0224465Y0093707D02*
X0224832Y0093340D01*
X0224832Y0092606D01*
X0224465Y0092240D01*
X0223731Y0094449D02*
X0223364Y0094816D01*
X0223364Y0095550D01*
X0223731Y0095917D01*
X0224832Y0095917D01*
X0224465Y0096659D02*
X0224832Y0097026D01*
X0224832Y0098127D01*
X0223364Y0098127D01*
X0223364Y0098869D02*
X0224832Y0098869D01*
X0224098Y0098869D02*
X0223364Y0099603D01*
X0223364Y0099970D01*
X0223364Y0096659D02*
X0224465Y0096659D01*
X0219030Y0099236D02*
X0218663Y0099236D01*
X0219397Y0106972D02*
X0219030Y0107339D01*
X0219030Y0108073D01*
X0219397Y0108440D01*
X0220865Y0106972D01*
X0221232Y0107339D01*
X0221232Y0108073D01*
X0220865Y0108440D01*
X0219397Y0108440D01*
X0219397Y0106972D02*
X0220865Y0106972D01*
X0220865Y0109182D02*
X0220865Y0109549D01*
X0221232Y0109549D01*
X0221232Y0109182D01*
X0220865Y0109182D01*
X0221232Y0110287D02*
X0221232Y0111755D01*
X0221232Y0111021D02*
X0219030Y0111021D01*
X0219764Y0110287D01*
X0219764Y0090397D02*
X0220131Y0090030D01*
X0219764Y0089288D02*
X0219764Y0088187D01*
X0220131Y0087820D01*
X0220865Y0087820D01*
X0221232Y0083400D02*
X0219030Y0083400D01*
D11*
X0095922Y0046000D02*
X0080922Y0061000D01*
X0080922Y0196000D01*
X0095922Y0211000D01*
X0230922Y0211000D01*
X0245922Y0196000D01*
X0245922Y0061000D01*
X0230922Y0046000D01*
X0095922Y0046000D01*
X0096099Y0067476D02*
X0096101Y0067634D01*
X0096107Y0067792D01*
X0096117Y0067950D01*
X0096131Y0068108D01*
X0096149Y0068265D01*
X0096170Y0068422D01*
X0096196Y0068578D01*
X0096226Y0068734D01*
X0096259Y0068889D01*
X0096297Y0069042D01*
X0096338Y0069195D01*
X0096383Y0069347D01*
X0096432Y0069498D01*
X0096485Y0069647D01*
X0096541Y0069795D01*
X0096601Y0069941D01*
X0096665Y0070086D01*
X0096733Y0070229D01*
X0096804Y0070371D01*
X0096878Y0070511D01*
X0096956Y0070648D01*
X0097038Y0070784D01*
X0097122Y0070918D01*
X0097211Y0071049D01*
X0097302Y0071178D01*
X0097397Y0071305D01*
X0097494Y0071430D01*
X0097595Y0071552D01*
X0097699Y0071671D01*
X0097806Y0071788D01*
X0097916Y0071902D01*
X0098029Y0072013D01*
X0098144Y0072122D01*
X0098262Y0072227D01*
X0098383Y0072329D01*
X0098506Y0072429D01*
X0098632Y0072525D01*
X0098760Y0072618D01*
X0098890Y0072708D01*
X0099023Y0072794D01*
X0099158Y0072878D01*
X0099294Y0072957D01*
X0099433Y0073034D01*
X0099574Y0073106D01*
X0099716Y0073176D01*
X0099860Y0073241D01*
X0100006Y0073303D01*
X0100153Y0073361D01*
X0100302Y0073416D01*
X0100452Y0073467D01*
X0100603Y0073514D01*
X0100755Y0073557D01*
X0100908Y0073596D01*
X0101063Y0073632D01*
X0101218Y0073663D01*
X0101374Y0073691D01*
X0101530Y0073715D01*
X0101687Y0073735D01*
X0101845Y0073751D01*
X0102002Y0073763D01*
X0102161Y0073771D01*
X0102319Y0073775D01*
X0102477Y0073775D01*
X0102635Y0073771D01*
X0102794Y0073763D01*
X0102951Y0073751D01*
X0103109Y0073735D01*
X0103266Y0073715D01*
X0103422Y0073691D01*
X0103578Y0073663D01*
X0103733Y0073632D01*
X0103888Y0073596D01*
X0104041Y0073557D01*
X0104193Y0073514D01*
X0104344Y0073467D01*
X0104494Y0073416D01*
X0104643Y0073361D01*
X0104790Y0073303D01*
X0104936Y0073241D01*
X0105080Y0073176D01*
X0105222Y0073106D01*
X0105363Y0073034D01*
X0105502Y0072957D01*
X0105638Y0072878D01*
X0105773Y0072794D01*
X0105906Y0072708D01*
X0106036Y0072618D01*
X0106164Y0072525D01*
X0106290Y0072429D01*
X0106413Y0072329D01*
X0106534Y0072227D01*
X0106652Y0072122D01*
X0106767Y0072013D01*
X0106880Y0071902D01*
X0106990Y0071788D01*
X0107097Y0071671D01*
X0107201Y0071552D01*
X0107302Y0071430D01*
X0107399Y0071305D01*
X0107494Y0071178D01*
X0107585Y0071049D01*
X0107674Y0070918D01*
X0107758Y0070784D01*
X0107840Y0070648D01*
X0107918Y0070511D01*
X0107992Y0070371D01*
X0108063Y0070229D01*
X0108131Y0070086D01*
X0108195Y0069941D01*
X0108255Y0069795D01*
X0108311Y0069647D01*
X0108364Y0069498D01*
X0108413Y0069347D01*
X0108458Y0069195D01*
X0108499Y0069042D01*
X0108537Y0068889D01*
X0108570Y0068734D01*
X0108600Y0068578D01*
X0108626Y0068422D01*
X0108647Y0068265D01*
X0108665Y0068108D01*
X0108679Y0067950D01*
X0108689Y0067792D01*
X0108695Y0067634D01*
X0108697Y0067476D01*
X0108695Y0067318D01*
X0108689Y0067160D01*
X0108679Y0067002D01*
X0108665Y0066844D01*
X0108647Y0066687D01*
X0108626Y0066530D01*
X0108600Y0066374D01*
X0108570Y0066218D01*
X0108537Y0066063D01*
X0108499Y0065910D01*
X0108458Y0065757D01*
X0108413Y0065605D01*
X0108364Y0065454D01*
X0108311Y0065305D01*
X0108255Y0065157D01*
X0108195Y0065011D01*
X0108131Y0064866D01*
X0108063Y0064723D01*
X0107992Y0064581D01*
X0107918Y0064441D01*
X0107840Y0064304D01*
X0107758Y0064168D01*
X0107674Y0064034D01*
X0107585Y0063903D01*
X0107494Y0063774D01*
X0107399Y0063647D01*
X0107302Y0063522D01*
X0107201Y0063400D01*
X0107097Y0063281D01*
X0106990Y0063164D01*
X0106880Y0063050D01*
X0106767Y0062939D01*
X0106652Y0062830D01*
X0106534Y0062725D01*
X0106413Y0062623D01*
X0106290Y0062523D01*
X0106164Y0062427D01*
X0106036Y0062334D01*
X0105906Y0062244D01*
X0105773Y0062158D01*
X0105638Y0062074D01*
X0105502Y0061995D01*
X0105363Y0061918D01*
X0105222Y0061846D01*
X0105080Y0061776D01*
X0104936Y0061711D01*
X0104790Y0061649D01*
X0104643Y0061591D01*
X0104494Y0061536D01*
X0104344Y0061485D01*
X0104193Y0061438D01*
X0104041Y0061395D01*
X0103888Y0061356D01*
X0103733Y0061320D01*
X0103578Y0061289D01*
X0103422Y0061261D01*
X0103266Y0061237D01*
X0103109Y0061217D01*
X0102951Y0061201D01*
X0102794Y0061189D01*
X0102635Y0061181D01*
X0102477Y0061177D01*
X0102319Y0061177D01*
X0102161Y0061181D01*
X0102002Y0061189D01*
X0101845Y0061201D01*
X0101687Y0061217D01*
X0101530Y0061237D01*
X0101374Y0061261D01*
X0101218Y0061289D01*
X0101063Y0061320D01*
X0100908Y0061356D01*
X0100755Y0061395D01*
X0100603Y0061438D01*
X0100452Y0061485D01*
X0100302Y0061536D01*
X0100153Y0061591D01*
X0100006Y0061649D01*
X0099860Y0061711D01*
X0099716Y0061776D01*
X0099574Y0061846D01*
X0099433Y0061918D01*
X0099294Y0061995D01*
X0099158Y0062074D01*
X0099023Y0062158D01*
X0098890Y0062244D01*
X0098760Y0062334D01*
X0098632Y0062427D01*
X0098506Y0062523D01*
X0098383Y0062623D01*
X0098262Y0062725D01*
X0098144Y0062830D01*
X0098029Y0062939D01*
X0097916Y0063050D01*
X0097806Y0063164D01*
X0097699Y0063281D01*
X0097595Y0063400D01*
X0097494Y0063522D01*
X0097397Y0063647D01*
X0097302Y0063774D01*
X0097211Y0063903D01*
X0097122Y0064034D01*
X0097038Y0064168D01*
X0096956Y0064304D01*
X0096878Y0064441D01*
X0096804Y0064581D01*
X0096733Y0064723D01*
X0096665Y0064866D01*
X0096601Y0065011D01*
X0096541Y0065157D01*
X0096485Y0065305D01*
X0096432Y0065454D01*
X0096383Y0065605D01*
X0096338Y0065757D01*
X0096297Y0065910D01*
X0096259Y0066063D01*
X0096226Y0066218D01*
X0096196Y0066374D01*
X0096170Y0066530D01*
X0096149Y0066687D01*
X0096131Y0066844D01*
X0096117Y0067002D01*
X0096107Y0067160D01*
X0096101Y0067318D01*
X0096099Y0067476D01*
X0218146Y0067476D02*
X0218148Y0067634D01*
X0218154Y0067792D01*
X0218164Y0067950D01*
X0218178Y0068108D01*
X0218196Y0068265D01*
X0218217Y0068422D01*
X0218243Y0068578D01*
X0218273Y0068734D01*
X0218306Y0068889D01*
X0218344Y0069042D01*
X0218385Y0069195D01*
X0218430Y0069347D01*
X0218479Y0069498D01*
X0218532Y0069647D01*
X0218588Y0069795D01*
X0218648Y0069941D01*
X0218712Y0070086D01*
X0218780Y0070229D01*
X0218851Y0070371D01*
X0218925Y0070511D01*
X0219003Y0070648D01*
X0219085Y0070784D01*
X0219169Y0070918D01*
X0219258Y0071049D01*
X0219349Y0071178D01*
X0219444Y0071305D01*
X0219541Y0071430D01*
X0219642Y0071552D01*
X0219746Y0071671D01*
X0219853Y0071788D01*
X0219963Y0071902D01*
X0220076Y0072013D01*
X0220191Y0072122D01*
X0220309Y0072227D01*
X0220430Y0072329D01*
X0220553Y0072429D01*
X0220679Y0072525D01*
X0220807Y0072618D01*
X0220937Y0072708D01*
X0221070Y0072794D01*
X0221205Y0072878D01*
X0221341Y0072957D01*
X0221480Y0073034D01*
X0221621Y0073106D01*
X0221763Y0073176D01*
X0221907Y0073241D01*
X0222053Y0073303D01*
X0222200Y0073361D01*
X0222349Y0073416D01*
X0222499Y0073467D01*
X0222650Y0073514D01*
X0222802Y0073557D01*
X0222955Y0073596D01*
X0223110Y0073632D01*
X0223265Y0073663D01*
X0223421Y0073691D01*
X0223577Y0073715D01*
X0223734Y0073735D01*
X0223892Y0073751D01*
X0224049Y0073763D01*
X0224208Y0073771D01*
X0224366Y0073775D01*
X0224524Y0073775D01*
X0224682Y0073771D01*
X0224841Y0073763D01*
X0224998Y0073751D01*
X0225156Y0073735D01*
X0225313Y0073715D01*
X0225469Y0073691D01*
X0225625Y0073663D01*
X0225780Y0073632D01*
X0225935Y0073596D01*
X0226088Y0073557D01*
X0226240Y0073514D01*
X0226391Y0073467D01*
X0226541Y0073416D01*
X0226690Y0073361D01*
X0226837Y0073303D01*
X0226983Y0073241D01*
X0227127Y0073176D01*
X0227269Y0073106D01*
X0227410Y0073034D01*
X0227549Y0072957D01*
X0227685Y0072878D01*
X0227820Y0072794D01*
X0227953Y0072708D01*
X0228083Y0072618D01*
X0228211Y0072525D01*
X0228337Y0072429D01*
X0228460Y0072329D01*
X0228581Y0072227D01*
X0228699Y0072122D01*
X0228814Y0072013D01*
X0228927Y0071902D01*
X0229037Y0071788D01*
X0229144Y0071671D01*
X0229248Y0071552D01*
X0229349Y0071430D01*
X0229446Y0071305D01*
X0229541Y0071178D01*
X0229632Y0071049D01*
X0229721Y0070918D01*
X0229805Y0070784D01*
X0229887Y0070648D01*
X0229965Y0070511D01*
X0230039Y0070371D01*
X0230110Y0070229D01*
X0230178Y0070086D01*
X0230242Y0069941D01*
X0230302Y0069795D01*
X0230358Y0069647D01*
X0230411Y0069498D01*
X0230460Y0069347D01*
X0230505Y0069195D01*
X0230546Y0069042D01*
X0230584Y0068889D01*
X0230617Y0068734D01*
X0230647Y0068578D01*
X0230673Y0068422D01*
X0230694Y0068265D01*
X0230712Y0068108D01*
X0230726Y0067950D01*
X0230736Y0067792D01*
X0230742Y0067634D01*
X0230744Y0067476D01*
X0230742Y0067318D01*
X0230736Y0067160D01*
X0230726Y0067002D01*
X0230712Y0066844D01*
X0230694Y0066687D01*
X0230673Y0066530D01*
X0230647Y0066374D01*
X0230617Y0066218D01*
X0230584Y0066063D01*
X0230546Y0065910D01*
X0230505Y0065757D01*
X0230460Y0065605D01*
X0230411Y0065454D01*
X0230358Y0065305D01*
X0230302Y0065157D01*
X0230242Y0065011D01*
X0230178Y0064866D01*
X0230110Y0064723D01*
X0230039Y0064581D01*
X0229965Y0064441D01*
X0229887Y0064304D01*
X0229805Y0064168D01*
X0229721Y0064034D01*
X0229632Y0063903D01*
X0229541Y0063774D01*
X0229446Y0063647D01*
X0229349Y0063522D01*
X0229248Y0063400D01*
X0229144Y0063281D01*
X0229037Y0063164D01*
X0228927Y0063050D01*
X0228814Y0062939D01*
X0228699Y0062830D01*
X0228581Y0062725D01*
X0228460Y0062623D01*
X0228337Y0062523D01*
X0228211Y0062427D01*
X0228083Y0062334D01*
X0227953Y0062244D01*
X0227820Y0062158D01*
X0227685Y0062074D01*
X0227549Y0061995D01*
X0227410Y0061918D01*
X0227269Y0061846D01*
X0227127Y0061776D01*
X0226983Y0061711D01*
X0226837Y0061649D01*
X0226690Y0061591D01*
X0226541Y0061536D01*
X0226391Y0061485D01*
X0226240Y0061438D01*
X0226088Y0061395D01*
X0225935Y0061356D01*
X0225780Y0061320D01*
X0225625Y0061289D01*
X0225469Y0061261D01*
X0225313Y0061237D01*
X0225156Y0061217D01*
X0224998Y0061201D01*
X0224841Y0061189D01*
X0224682Y0061181D01*
X0224524Y0061177D01*
X0224366Y0061177D01*
X0224208Y0061181D01*
X0224049Y0061189D01*
X0223892Y0061201D01*
X0223734Y0061217D01*
X0223577Y0061237D01*
X0223421Y0061261D01*
X0223265Y0061289D01*
X0223110Y0061320D01*
X0222955Y0061356D01*
X0222802Y0061395D01*
X0222650Y0061438D01*
X0222499Y0061485D01*
X0222349Y0061536D01*
X0222200Y0061591D01*
X0222053Y0061649D01*
X0221907Y0061711D01*
X0221763Y0061776D01*
X0221621Y0061846D01*
X0221480Y0061918D01*
X0221341Y0061995D01*
X0221205Y0062074D01*
X0221070Y0062158D01*
X0220937Y0062244D01*
X0220807Y0062334D01*
X0220679Y0062427D01*
X0220553Y0062523D01*
X0220430Y0062623D01*
X0220309Y0062725D01*
X0220191Y0062830D01*
X0220076Y0062939D01*
X0219963Y0063050D01*
X0219853Y0063164D01*
X0219746Y0063281D01*
X0219642Y0063400D01*
X0219541Y0063522D01*
X0219444Y0063647D01*
X0219349Y0063774D01*
X0219258Y0063903D01*
X0219169Y0064034D01*
X0219085Y0064168D01*
X0219003Y0064304D01*
X0218925Y0064441D01*
X0218851Y0064581D01*
X0218780Y0064723D01*
X0218712Y0064866D01*
X0218648Y0065011D01*
X0218588Y0065157D01*
X0218532Y0065305D01*
X0218479Y0065454D01*
X0218430Y0065605D01*
X0218385Y0065757D01*
X0218344Y0065910D01*
X0218306Y0066063D01*
X0218273Y0066218D01*
X0218243Y0066374D01*
X0218217Y0066530D01*
X0218196Y0066687D01*
X0218178Y0066844D01*
X0218164Y0067002D01*
X0218154Y0067160D01*
X0218148Y0067318D01*
X0218146Y0067476D01*
X0218146Y0189524D02*
X0218148Y0189682D01*
X0218154Y0189840D01*
X0218164Y0189998D01*
X0218178Y0190156D01*
X0218196Y0190313D01*
X0218217Y0190470D01*
X0218243Y0190626D01*
X0218273Y0190782D01*
X0218306Y0190937D01*
X0218344Y0191090D01*
X0218385Y0191243D01*
X0218430Y0191395D01*
X0218479Y0191546D01*
X0218532Y0191695D01*
X0218588Y0191843D01*
X0218648Y0191989D01*
X0218712Y0192134D01*
X0218780Y0192277D01*
X0218851Y0192419D01*
X0218925Y0192559D01*
X0219003Y0192696D01*
X0219085Y0192832D01*
X0219169Y0192966D01*
X0219258Y0193097D01*
X0219349Y0193226D01*
X0219444Y0193353D01*
X0219541Y0193478D01*
X0219642Y0193600D01*
X0219746Y0193719D01*
X0219853Y0193836D01*
X0219963Y0193950D01*
X0220076Y0194061D01*
X0220191Y0194170D01*
X0220309Y0194275D01*
X0220430Y0194377D01*
X0220553Y0194477D01*
X0220679Y0194573D01*
X0220807Y0194666D01*
X0220937Y0194756D01*
X0221070Y0194842D01*
X0221205Y0194926D01*
X0221341Y0195005D01*
X0221480Y0195082D01*
X0221621Y0195154D01*
X0221763Y0195224D01*
X0221907Y0195289D01*
X0222053Y0195351D01*
X0222200Y0195409D01*
X0222349Y0195464D01*
X0222499Y0195515D01*
X0222650Y0195562D01*
X0222802Y0195605D01*
X0222955Y0195644D01*
X0223110Y0195680D01*
X0223265Y0195711D01*
X0223421Y0195739D01*
X0223577Y0195763D01*
X0223734Y0195783D01*
X0223892Y0195799D01*
X0224049Y0195811D01*
X0224208Y0195819D01*
X0224366Y0195823D01*
X0224524Y0195823D01*
X0224682Y0195819D01*
X0224841Y0195811D01*
X0224998Y0195799D01*
X0225156Y0195783D01*
X0225313Y0195763D01*
X0225469Y0195739D01*
X0225625Y0195711D01*
X0225780Y0195680D01*
X0225935Y0195644D01*
X0226088Y0195605D01*
X0226240Y0195562D01*
X0226391Y0195515D01*
X0226541Y0195464D01*
X0226690Y0195409D01*
X0226837Y0195351D01*
X0226983Y0195289D01*
X0227127Y0195224D01*
X0227269Y0195154D01*
X0227410Y0195082D01*
X0227549Y0195005D01*
X0227685Y0194926D01*
X0227820Y0194842D01*
X0227953Y0194756D01*
X0228083Y0194666D01*
X0228211Y0194573D01*
X0228337Y0194477D01*
X0228460Y0194377D01*
X0228581Y0194275D01*
X0228699Y0194170D01*
X0228814Y0194061D01*
X0228927Y0193950D01*
X0229037Y0193836D01*
X0229144Y0193719D01*
X0229248Y0193600D01*
X0229349Y0193478D01*
X0229446Y0193353D01*
X0229541Y0193226D01*
X0229632Y0193097D01*
X0229721Y0192966D01*
X0229805Y0192832D01*
X0229887Y0192696D01*
X0229965Y0192559D01*
X0230039Y0192419D01*
X0230110Y0192277D01*
X0230178Y0192134D01*
X0230242Y0191989D01*
X0230302Y0191843D01*
X0230358Y0191695D01*
X0230411Y0191546D01*
X0230460Y0191395D01*
X0230505Y0191243D01*
X0230546Y0191090D01*
X0230584Y0190937D01*
X0230617Y0190782D01*
X0230647Y0190626D01*
X0230673Y0190470D01*
X0230694Y0190313D01*
X0230712Y0190156D01*
X0230726Y0189998D01*
X0230736Y0189840D01*
X0230742Y0189682D01*
X0230744Y0189524D01*
X0230742Y0189366D01*
X0230736Y0189208D01*
X0230726Y0189050D01*
X0230712Y0188892D01*
X0230694Y0188735D01*
X0230673Y0188578D01*
X0230647Y0188422D01*
X0230617Y0188266D01*
X0230584Y0188111D01*
X0230546Y0187958D01*
X0230505Y0187805D01*
X0230460Y0187653D01*
X0230411Y0187502D01*
X0230358Y0187353D01*
X0230302Y0187205D01*
X0230242Y0187059D01*
X0230178Y0186914D01*
X0230110Y0186771D01*
X0230039Y0186629D01*
X0229965Y0186489D01*
X0229887Y0186352D01*
X0229805Y0186216D01*
X0229721Y0186082D01*
X0229632Y0185951D01*
X0229541Y0185822D01*
X0229446Y0185695D01*
X0229349Y0185570D01*
X0229248Y0185448D01*
X0229144Y0185329D01*
X0229037Y0185212D01*
X0228927Y0185098D01*
X0228814Y0184987D01*
X0228699Y0184878D01*
X0228581Y0184773D01*
X0228460Y0184671D01*
X0228337Y0184571D01*
X0228211Y0184475D01*
X0228083Y0184382D01*
X0227953Y0184292D01*
X0227820Y0184206D01*
X0227685Y0184122D01*
X0227549Y0184043D01*
X0227410Y0183966D01*
X0227269Y0183894D01*
X0227127Y0183824D01*
X0226983Y0183759D01*
X0226837Y0183697D01*
X0226690Y0183639D01*
X0226541Y0183584D01*
X0226391Y0183533D01*
X0226240Y0183486D01*
X0226088Y0183443D01*
X0225935Y0183404D01*
X0225780Y0183368D01*
X0225625Y0183337D01*
X0225469Y0183309D01*
X0225313Y0183285D01*
X0225156Y0183265D01*
X0224998Y0183249D01*
X0224841Y0183237D01*
X0224682Y0183229D01*
X0224524Y0183225D01*
X0224366Y0183225D01*
X0224208Y0183229D01*
X0224049Y0183237D01*
X0223892Y0183249D01*
X0223734Y0183265D01*
X0223577Y0183285D01*
X0223421Y0183309D01*
X0223265Y0183337D01*
X0223110Y0183368D01*
X0222955Y0183404D01*
X0222802Y0183443D01*
X0222650Y0183486D01*
X0222499Y0183533D01*
X0222349Y0183584D01*
X0222200Y0183639D01*
X0222053Y0183697D01*
X0221907Y0183759D01*
X0221763Y0183824D01*
X0221621Y0183894D01*
X0221480Y0183966D01*
X0221341Y0184043D01*
X0221205Y0184122D01*
X0221070Y0184206D01*
X0220937Y0184292D01*
X0220807Y0184382D01*
X0220679Y0184475D01*
X0220553Y0184571D01*
X0220430Y0184671D01*
X0220309Y0184773D01*
X0220191Y0184878D01*
X0220076Y0184987D01*
X0219963Y0185098D01*
X0219853Y0185212D01*
X0219746Y0185329D01*
X0219642Y0185448D01*
X0219541Y0185570D01*
X0219444Y0185695D01*
X0219349Y0185822D01*
X0219258Y0185951D01*
X0219169Y0186082D01*
X0219085Y0186216D01*
X0219003Y0186352D01*
X0218925Y0186489D01*
X0218851Y0186629D01*
X0218780Y0186771D01*
X0218712Y0186914D01*
X0218648Y0187059D01*
X0218588Y0187205D01*
X0218532Y0187353D01*
X0218479Y0187502D01*
X0218430Y0187653D01*
X0218385Y0187805D01*
X0218344Y0187958D01*
X0218306Y0188111D01*
X0218273Y0188266D01*
X0218243Y0188422D01*
X0218217Y0188578D01*
X0218196Y0188735D01*
X0218178Y0188892D01*
X0218164Y0189050D01*
X0218154Y0189208D01*
X0218148Y0189366D01*
X0218146Y0189524D01*
X0096099Y0189524D02*
X0096101Y0189682D01*
X0096107Y0189840D01*
X0096117Y0189998D01*
X0096131Y0190156D01*
X0096149Y0190313D01*
X0096170Y0190470D01*
X0096196Y0190626D01*
X0096226Y0190782D01*
X0096259Y0190937D01*
X0096297Y0191090D01*
X0096338Y0191243D01*
X0096383Y0191395D01*
X0096432Y0191546D01*
X0096485Y0191695D01*
X0096541Y0191843D01*
X0096601Y0191989D01*
X0096665Y0192134D01*
X0096733Y0192277D01*
X0096804Y0192419D01*
X0096878Y0192559D01*
X0096956Y0192696D01*
X0097038Y0192832D01*
X0097122Y0192966D01*
X0097211Y0193097D01*
X0097302Y0193226D01*
X0097397Y0193353D01*
X0097494Y0193478D01*
X0097595Y0193600D01*
X0097699Y0193719D01*
X0097806Y0193836D01*
X0097916Y0193950D01*
X0098029Y0194061D01*
X0098144Y0194170D01*
X0098262Y0194275D01*
X0098383Y0194377D01*
X0098506Y0194477D01*
X0098632Y0194573D01*
X0098760Y0194666D01*
X0098890Y0194756D01*
X0099023Y0194842D01*
X0099158Y0194926D01*
X0099294Y0195005D01*
X0099433Y0195082D01*
X0099574Y0195154D01*
X0099716Y0195224D01*
X0099860Y0195289D01*
X0100006Y0195351D01*
X0100153Y0195409D01*
X0100302Y0195464D01*
X0100452Y0195515D01*
X0100603Y0195562D01*
X0100755Y0195605D01*
X0100908Y0195644D01*
X0101063Y0195680D01*
X0101218Y0195711D01*
X0101374Y0195739D01*
X0101530Y0195763D01*
X0101687Y0195783D01*
X0101845Y0195799D01*
X0102002Y0195811D01*
X0102161Y0195819D01*
X0102319Y0195823D01*
X0102477Y0195823D01*
X0102635Y0195819D01*
X0102794Y0195811D01*
X0102951Y0195799D01*
X0103109Y0195783D01*
X0103266Y0195763D01*
X0103422Y0195739D01*
X0103578Y0195711D01*
X0103733Y0195680D01*
X0103888Y0195644D01*
X0104041Y0195605D01*
X0104193Y0195562D01*
X0104344Y0195515D01*
X0104494Y0195464D01*
X0104643Y0195409D01*
X0104790Y0195351D01*
X0104936Y0195289D01*
X0105080Y0195224D01*
X0105222Y0195154D01*
X0105363Y0195082D01*
X0105502Y0195005D01*
X0105638Y0194926D01*
X0105773Y0194842D01*
X0105906Y0194756D01*
X0106036Y0194666D01*
X0106164Y0194573D01*
X0106290Y0194477D01*
X0106413Y0194377D01*
X0106534Y0194275D01*
X0106652Y0194170D01*
X0106767Y0194061D01*
X0106880Y0193950D01*
X0106990Y0193836D01*
X0107097Y0193719D01*
X0107201Y0193600D01*
X0107302Y0193478D01*
X0107399Y0193353D01*
X0107494Y0193226D01*
X0107585Y0193097D01*
X0107674Y0192966D01*
X0107758Y0192832D01*
X0107840Y0192696D01*
X0107918Y0192559D01*
X0107992Y0192419D01*
X0108063Y0192277D01*
X0108131Y0192134D01*
X0108195Y0191989D01*
X0108255Y0191843D01*
X0108311Y0191695D01*
X0108364Y0191546D01*
X0108413Y0191395D01*
X0108458Y0191243D01*
X0108499Y0191090D01*
X0108537Y0190937D01*
X0108570Y0190782D01*
X0108600Y0190626D01*
X0108626Y0190470D01*
X0108647Y0190313D01*
X0108665Y0190156D01*
X0108679Y0189998D01*
X0108689Y0189840D01*
X0108695Y0189682D01*
X0108697Y0189524D01*
X0108695Y0189366D01*
X0108689Y0189208D01*
X0108679Y0189050D01*
X0108665Y0188892D01*
X0108647Y0188735D01*
X0108626Y0188578D01*
X0108600Y0188422D01*
X0108570Y0188266D01*
X0108537Y0188111D01*
X0108499Y0187958D01*
X0108458Y0187805D01*
X0108413Y0187653D01*
X0108364Y0187502D01*
X0108311Y0187353D01*
X0108255Y0187205D01*
X0108195Y0187059D01*
X0108131Y0186914D01*
X0108063Y0186771D01*
X0107992Y0186629D01*
X0107918Y0186489D01*
X0107840Y0186352D01*
X0107758Y0186216D01*
X0107674Y0186082D01*
X0107585Y0185951D01*
X0107494Y0185822D01*
X0107399Y0185695D01*
X0107302Y0185570D01*
X0107201Y0185448D01*
X0107097Y0185329D01*
X0106990Y0185212D01*
X0106880Y0185098D01*
X0106767Y0184987D01*
X0106652Y0184878D01*
X0106534Y0184773D01*
X0106413Y0184671D01*
X0106290Y0184571D01*
X0106164Y0184475D01*
X0106036Y0184382D01*
X0105906Y0184292D01*
X0105773Y0184206D01*
X0105638Y0184122D01*
X0105502Y0184043D01*
X0105363Y0183966D01*
X0105222Y0183894D01*
X0105080Y0183824D01*
X0104936Y0183759D01*
X0104790Y0183697D01*
X0104643Y0183639D01*
X0104494Y0183584D01*
X0104344Y0183533D01*
X0104193Y0183486D01*
X0104041Y0183443D01*
X0103888Y0183404D01*
X0103733Y0183368D01*
X0103578Y0183337D01*
X0103422Y0183309D01*
X0103266Y0183285D01*
X0103109Y0183265D01*
X0102951Y0183249D01*
X0102794Y0183237D01*
X0102635Y0183229D01*
X0102477Y0183225D01*
X0102319Y0183225D01*
X0102161Y0183229D01*
X0102002Y0183237D01*
X0101845Y0183249D01*
X0101687Y0183265D01*
X0101530Y0183285D01*
X0101374Y0183309D01*
X0101218Y0183337D01*
X0101063Y0183368D01*
X0100908Y0183404D01*
X0100755Y0183443D01*
X0100603Y0183486D01*
X0100452Y0183533D01*
X0100302Y0183584D01*
X0100153Y0183639D01*
X0100006Y0183697D01*
X0099860Y0183759D01*
X0099716Y0183824D01*
X0099574Y0183894D01*
X0099433Y0183966D01*
X0099294Y0184043D01*
X0099158Y0184122D01*
X0099023Y0184206D01*
X0098890Y0184292D01*
X0098760Y0184382D01*
X0098632Y0184475D01*
X0098506Y0184571D01*
X0098383Y0184671D01*
X0098262Y0184773D01*
X0098144Y0184878D01*
X0098029Y0184987D01*
X0097916Y0185098D01*
X0097806Y0185212D01*
X0097699Y0185329D01*
X0097595Y0185448D01*
X0097494Y0185570D01*
X0097397Y0185695D01*
X0097302Y0185822D01*
X0097211Y0185951D01*
X0097122Y0186082D01*
X0097038Y0186216D01*
X0096956Y0186352D01*
X0096878Y0186489D01*
X0096804Y0186629D01*
X0096733Y0186771D01*
X0096665Y0186914D01*
X0096601Y0187059D01*
X0096541Y0187205D01*
X0096485Y0187353D01*
X0096432Y0187502D01*
X0096383Y0187653D01*
X0096338Y0187805D01*
X0096297Y0187958D01*
X0096259Y0188111D01*
X0096226Y0188266D01*
X0096196Y0188422D01*
X0096170Y0188578D01*
X0096149Y0188735D01*
X0096131Y0188892D01*
X0096117Y0189050D01*
X0096107Y0189208D01*
X0096101Y0189366D01*
X0096099Y0189524D01*
D12*
X0148393Y0181982D02*
X0150102Y0180273D01*
X0148393Y0181982D02*
X0148628Y0182217D01*
X0150337Y0180508D01*
X0150102Y0180273D01*
X0149245Y0181600D02*
X0148775Y0181600D01*
X0149785Y0183374D02*
X0151494Y0181665D01*
X0149785Y0183374D02*
X0150020Y0183609D01*
X0151729Y0181900D01*
X0151494Y0181665D01*
X0150637Y0182992D02*
X0150167Y0182992D01*
X0151177Y0184766D02*
X0152886Y0183057D01*
X0151177Y0184766D02*
X0151412Y0185001D01*
X0153121Y0183292D01*
X0152886Y0183057D01*
X0152029Y0184384D02*
X0151559Y0184384D01*
X0152569Y0186158D02*
X0154278Y0184449D01*
X0152569Y0186158D02*
X0152804Y0186393D01*
X0154513Y0184684D01*
X0154278Y0184449D01*
X0153421Y0185776D02*
X0152951Y0185776D01*
X0153961Y0187550D02*
X0155670Y0185841D01*
X0153961Y0187550D02*
X0154196Y0187785D01*
X0155905Y0186076D01*
X0155670Y0185841D01*
X0154813Y0187168D02*
X0154343Y0187168D01*
X0155353Y0188942D02*
X0157062Y0187233D01*
X0155353Y0188942D02*
X0155588Y0189177D01*
X0157297Y0187468D01*
X0157062Y0187233D01*
X0156205Y0188560D02*
X0155735Y0188560D01*
X0156745Y0190334D02*
X0158454Y0188625D01*
X0156745Y0190334D02*
X0156980Y0190569D01*
X0158689Y0188860D01*
X0158454Y0188625D01*
X0157597Y0189952D02*
X0157127Y0189952D01*
X0158137Y0191726D02*
X0159846Y0190017D01*
X0158137Y0191726D02*
X0158372Y0191961D01*
X0160081Y0190252D01*
X0159846Y0190017D01*
X0158989Y0191344D02*
X0158519Y0191344D01*
X0159528Y0193118D02*
X0161237Y0191409D01*
X0159528Y0193118D02*
X0159763Y0193353D01*
X0161472Y0191644D01*
X0161237Y0191409D01*
X0160380Y0192736D02*
X0159910Y0192736D01*
X0160920Y0194510D02*
X0162629Y0192801D01*
X0160920Y0194510D02*
X0161155Y0194745D01*
X0162864Y0193036D01*
X0162629Y0192801D01*
X0161772Y0194128D02*
X0161302Y0194128D01*
X0162312Y0195902D02*
X0164021Y0194193D01*
X0162312Y0195902D02*
X0162547Y0196137D01*
X0164256Y0194428D01*
X0164021Y0194193D01*
X0163164Y0195520D02*
X0162694Y0195520D01*
X0163704Y0197294D02*
X0165413Y0195585D01*
X0163704Y0197294D02*
X0163939Y0197529D01*
X0165648Y0195820D01*
X0165413Y0195585D01*
X0164556Y0196912D02*
X0164086Y0196912D01*
X0172430Y0195585D02*
X0174139Y0197294D01*
X0172430Y0195585D02*
X0172195Y0195820D01*
X0173904Y0197529D01*
X0174139Y0197294D01*
X0173757Y0196912D02*
X0173287Y0196912D01*
X0175531Y0195902D02*
X0173822Y0194193D01*
X0173587Y0194428D01*
X0175296Y0196137D01*
X0175531Y0195902D01*
X0175149Y0195520D02*
X0174679Y0195520D01*
X0176923Y0194510D02*
X0175214Y0192801D01*
X0174979Y0193036D01*
X0176688Y0194745D01*
X0176923Y0194510D01*
X0176541Y0194128D02*
X0176071Y0194128D01*
X0178315Y0193118D02*
X0176606Y0191409D01*
X0176371Y0191644D01*
X0178080Y0193353D01*
X0178315Y0193118D01*
X0177933Y0192736D02*
X0177463Y0192736D01*
X0179707Y0191726D02*
X0177998Y0190017D01*
X0177763Y0190252D01*
X0179472Y0191961D01*
X0179707Y0191726D01*
X0179325Y0191344D02*
X0178855Y0191344D01*
X0181099Y0190334D02*
X0179390Y0188625D01*
X0179155Y0188860D01*
X0180864Y0190569D01*
X0181099Y0190334D01*
X0180717Y0189952D02*
X0180247Y0189952D01*
X0182491Y0188942D02*
X0180782Y0187233D01*
X0180547Y0187468D01*
X0182256Y0189177D01*
X0182491Y0188942D01*
X0182109Y0188560D02*
X0181639Y0188560D01*
X0183883Y0187550D02*
X0182174Y0185841D01*
X0181939Y0186076D01*
X0183648Y0187785D01*
X0183883Y0187550D01*
X0183501Y0187168D02*
X0183031Y0187168D01*
X0185275Y0186158D02*
X0183566Y0184449D01*
X0183331Y0184684D01*
X0185040Y0186393D01*
X0185275Y0186158D01*
X0184893Y0185776D02*
X0184423Y0185776D01*
X0186667Y0184766D02*
X0184958Y0183057D01*
X0184723Y0183292D01*
X0186432Y0185001D01*
X0186667Y0184766D01*
X0186285Y0184384D02*
X0185815Y0184384D01*
X0188059Y0183374D02*
X0186350Y0181665D01*
X0186115Y0181900D01*
X0187824Y0183609D01*
X0188059Y0183374D01*
X0187677Y0182992D02*
X0187207Y0182992D01*
X0189451Y0181982D02*
X0187742Y0180273D01*
X0187507Y0180508D01*
X0189216Y0182217D01*
X0189451Y0181982D01*
X0189069Y0181600D02*
X0188599Y0181600D01*
X0187507Y0173492D02*
X0189216Y0171783D01*
X0187507Y0173492D02*
X0187742Y0173727D01*
X0189451Y0172018D01*
X0189216Y0171783D01*
X0188359Y0173110D02*
X0187889Y0173110D01*
X0186115Y0172100D02*
X0187824Y0170391D01*
X0186115Y0172100D02*
X0186350Y0172335D01*
X0188059Y0170626D01*
X0187824Y0170391D01*
X0186967Y0171718D02*
X0186497Y0171718D01*
X0184723Y0170708D02*
X0186432Y0168999D01*
X0184723Y0170708D02*
X0184958Y0170943D01*
X0186667Y0169234D01*
X0186432Y0168999D01*
X0185575Y0170326D02*
X0185105Y0170326D01*
X0183331Y0169316D02*
X0185040Y0167607D01*
X0183331Y0169316D02*
X0183566Y0169551D01*
X0185275Y0167842D01*
X0185040Y0167607D01*
X0184183Y0168934D02*
X0183713Y0168934D01*
X0181939Y0167924D02*
X0183648Y0166215D01*
X0181939Y0167924D02*
X0182174Y0168159D01*
X0183883Y0166450D01*
X0183648Y0166215D01*
X0182791Y0167542D02*
X0182321Y0167542D01*
X0180547Y0166532D02*
X0182256Y0164823D01*
X0180547Y0166532D02*
X0180782Y0166767D01*
X0182491Y0165058D01*
X0182256Y0164823D01*
X0181399Y0166150D02*
X0180929Y0166150D01*
X0179155Y0165140D02*
X0180864Y0163431D01*
X0179155Y0165140D02*
X0179390Y0165375D01*
X0181099Y0163666D01*
X0180864Y0163431D01*
X0180007Y0164758D02*
X0179537Y0164758D01*
X0177763Y0163748D02*
X0179472Y0162039D01*
X0177763Y0163748D02*
X0177998Y0163983D01*
X0179707Y0162274D01*
X0179472Y0162039D01*
X0178615Y0163366D02*
X0178145Y0163366D01*
X0176371Y0162356D02*
X0178080Y0160647D01*
X0176371Y0162356D02*
X0176606Y0162591D01*
X0178315Y0160882D01*
X0178080Y0160647D01*
X0177223Y0161974D02*
X0176753Y0161974D01*
X0174979Y0160964D02*
X0176688Y0159255D01*
X0174979Y0160964D02*
X0175214Y0161199D01*
X0176923Y0159490D01*
X0176688Y0159255D01*
X0175831Y0160582D02*
X0175361Y0160582D01*
X0173587Y0159572D02*
X0175296Y0157863D01*
X0173587Y0159572D02*
X0173822Y0159807D01*
X0175531Y0158098D01*
X0175296Y0157863D01*
X0174439Y0159190D02*
X0173969Y0159190D01*
X0172195Y0158180D02*
X0173904Y0156471D01*
X0172195Y0158180D02*
X0172430Y0158415D01*
X0174139Y0156706D01*
X0173904Y0156471D01*
X0173047Y0157798D02*
X0172577Y0157798D01*
X0165648Y0158180D02*
X0163939Y0156471D01*
X0163704Y0156706D01*
X0165413Y0158415D01*
X0165648Y0158180D01*
X0165266Y0157798D02*
X0164796Y0157798D01*
X0164256Y0159572D02*
X0162547Y0157863D01*
X0162312Y0158098D01*
X0164021Y0159807D01*
X0164256Y0159572D01*
X0163874Y0159190D02*
X0163404Y0159190D01*
X0162864Y0160964D02*
X0161155Y0159255D01*
X0160920Y0159490D01*
X0162629Y0161199D01*
X0162864Y0160964D01*
X0162482Y0160582D02*
X0162012Y0160582D01*
X0161472Y0162356D02*
X0159763Y0160647D01*
X0159528Y0160882D01*
X0161237Y0162591D01*
X0161472Y0162356D01*
X0161090Y0161974D02*
X0160620Y0161974D01*
X0160081Y0163748D02*
X0158372Y0162039D01*
X0158137Y0162274D01*
X0159846Y0163983D01*
X0160081Y0163748D01*
X0159699Y0163366D02*
X0159229Y0163366D01*
X0158689Y0165140D02*
X0156980Y0163431D01*
X0156745Y0163666D01*
X0158454Y0165375D01*
X0158689Y0165140D01*
X0158307Y0164758D02*
X0157837Y0164758D01*
X0157297Y0166532D02*
X0155588Y0164823D01*
X0155353Y0165058D01*
X0157062Y0166767D01*
X0157297Y0166532D01*
X0156915Y0166150D02*
X0156445Y0166150D01*
X0155905Y0167924D02*
X0154196Y0166215D01*
X0153961Y0166450D01*
X0155670Y0168159D01*
X0155905Y0167924D01*
X0155523Y0167542D02*
X0155053Y0167542D01*
X0154513Y0169316D02*
X0152804Y0167607D01*
X0152569Y0167842D01*
X0154278Y0169551D01*
X0154513Y0169316D01*
X0154131Y0168934D02*
X0153661Y0168934D01*
X0153121Y0170708D02*
X0151412Y0168999D01*
X0151177Y0169234D01*
X0152886Y0170943D01*
X0153121Y0170708D01*
X0152739Y0170326D02*
X0152269Y0170326D01*
X0151729Y0172100D02*
X0150020Y0170391D01*
X0149785Y0170626D01*
X0151494Y0172335D01*
X0151729Y0172100D01*
X0151347Y0171718D02*
X0150877Y0171718D01*
X0150337Y0173492D02*
X0148628Y0171783D01*
X0148393Y0172018D01*
X0150102Y0173727D01*
X0150337Y0173492D01*
X0149955Y0173110D02*
X0149485Y0173110D01*
D13*
X0123922Y0191031D03*
X0123922Y0194969D03*
X0184453Y0196500D03*
X0188390Y0196500D03*
X0188390Y0192000D03*
X0184453Y0192000D03*
X0196953Y0176000D03*
X0200890Y0176000D03*
X0200890Y0171500D03*
X0196953Y0171500D03*
X0151890Y0119500D03*
X0147953Y0119500D03*
X0159922Y0112969D03*
X0165922Y0112969D03*
X0165922Y0109031D03*
X0159922Y0109031D03*
X0181453Y0117000D03*
X0185390Y0117000D03*
X0210953Y0117000D03*
X0214890Y0117000D03*
X0098422Y0092969D03*
X0098422Y0089031D03*
D14*
X0100556Y0160000D03*
X0092288Y0160000D03*
D15*
X0094650Y0170000D03*
X0098193Y0170000D03*
X0119650Y0161500D03*
X0123193Y0161500D03*
X0131650Y0161500D03*
X0135193Y0161500D03*
X0196650Y0162600D03*
X0200193Y0162600D03*
X0200193Y0166000D03*
X0196650Y0166000D03*
X0218650Y0170000D03*
X0222193Y0170000D03*
X0199193Y0186000D03*
X0195650Y0186000D03*
X0185193Y0121000D03*
X0181650Y0121000D03*
X0211150Y0121000D03*
X0214693Y0121000D03*
X0152693Y0099750D03*
X0149150Y0099750D03*
D16*
G36*
X0146314Y0159782D02*
X0147988Y0158108D01*
X0146314Y0156434D01*
X0144640Y0158108D01*
X0146314Y0159782D01*
G37*
G36*
X0143530Y0162566D02*
X0145204Y0160892D01*
X0143530Y0159218D01*
X0141856Y0160892D01*
X0143530Y0162566D01*
G37*
D17*
X0103796Y0151650D03*
X0103796Y0145350D03*
X0088048Y0145350D03*
X0088048Y0151650D03*
D18*
X0093522Y0165500D03*
X0099821Y0165500D03*
D19*
X0133422Y0190244D03*
X0133422Y0195756D03*
X0226422Y0155756D03*
X0226422Y0150244D03*
D20*
X0236422Y0150000D03*
X0241422Y0150000D03*
X0241422Y0155000D03*
X0241422Y0160000D03*
X0241422Y0165000D03*
X0236422Y0165000D03*
X0236422Y0160000D03*
X0236422Y0155000D03*
X0236422Y0170000D03*
X0241422Y0170000D03*
D21*
X0137871Y0093500D03*
X0118973Y0093500D03*
D22*
X0105922Y0093953D03*
X0105922Y0088047D03*
D23*
X0179472Y0073198D03*
X0179472Y0062002D03*
X0204972Y0061882D03*
X0204972Y0073078D03*
D24*
X0204673Y0086592D03*
X0207232Y0086592D03*
X0202113Y0086592D03*
X0199554Y0086592D03*
X0196995Y0086592D03*
X0194436Y0086592D03*
X0191877Y0086592D03*
X0189318Y0086592D03*
X0189318Y0109820D03*
X0191877Y0109820D03*
X0194436Y0109820D03*
X0196995Y0109820D03*
X0199554Y0109820D03*
X0202113Y0109820D03*
X0204673Y0109820D03*
X0207232Y0109820D03*
D25*
X0133022Y0058950D03*
D26*
X0152707Y0058950D03*
D27*
X0102398Y0067476D03*
X0224445Y0067476D03*
X0224445Y0189524D03*
X0102398Y0189524D03*
D28*
X0174422Y0051000D03*
D29*
X0184422Y0051000D03*
X0194422Y0051000D03*
X0204422Y0051000D03*
D30*
X0145922Y0051000D03*
X0140922Y0051000D03*
D31*
X0228422Y0120276D03*
X0228422Y0122835D03*
X0228422Y0125394D03*
X0228422Y0127953D03*
X0228422Y0130512D03*
D32*
X0228422Y0137992D03*
X0228422Y0112795D03*
D33*
X0238953Y0120669D03*
X0238953Y0130118D03*
D34*
X0237556Y0138386D02*
X0237556Y0138386D01*
X0240312Y0138386D01*
X0240312Y0138386D01*
X0237556Y0138386D01*
X0237556Y0112402D02*
X0237556Y0112402D01*
X0240312Y0112402D01*
X0240312Y0112402D01*
X0237556Y0112402D01*
D35*
X0236572Y0112402D02*
X0236574Y0112340D01*
X0236580Y0112279D01*
X0236589Y0112218D01*
X0236603Y0112157D01*
X0236620Y0112098D01*
X0236641Y0112040D01*
X0236666Y0111983D01*
X0236694Y0111928D01*
X0236725Y0111875D01*
X0236760Y0111824D01*
X0236798Y0111775D01*
X0236839Y0111728D01*
X0236882Y0111685D01*
X0236929Y0111644D01*
X0236978Y0111606D01*
X0237029Y0111571D01*
X0237082Y0111540D01*
X0237137Y0111512D01*
X0237194Y0111487D01*
X0237252Y0111466D01*
X0237311Y0111449D01*
X0237372Y0111435D01*
X0237433Y0111426D01*
X0237494Y0111420D01*
X0237556Y0111418D01*
X0237556Y0111417D02*
X0240312Y0111417D01*
X0241296Y0112402D02*
X0241294Y0112464D01*
X0241288Y0112525D01*
X0241279Y0112586D01*
X0241265Y0112647D01*
X0241248Y0112706D01*
X0241227Y0112764D01*
X0241202Y0112821D01*
X0241174Y0112876D01*
X0241143Y0112929D01*
X0241108Y0112980D01*
X0241070Y0113029D01*
X0241029Y0113076D01*
X0240986Y0113119D01*
X0240939Y0113160D01*
X0240890Y0113198D01*
X0240839Y0113233D01*
X0240786Y0113264D01*
X0240731Y0113292D01*
X0240674Y0113317D01*
X0240616Y0113338D01*
X0240557Y0113355D01*
X0240496Y0113369D01*
X0240435Y0113378D01*
X0240374Y0113384D01*
X0240312Y0113386D01*
X0237556Y0113386D01*
X0237494Y0113384D01*
X0237433Y0113378D01*
X0237372Y0113369D01*
X0237311Y0113355D01*
X0237252Y0113338D01*
X0237194Y0113317D01*
X0237137Y0113292D01*
X0237082Y0113264D01*
X0237029Y0113233D01*
X0236978Y0113198D01*
X0236929Y0113160D01*
X0236882Y0113119D01*
X0236839Y0113076D01*
X0236798Y0113029D01*
X0236760Y0112980D01*
X0236725Y0112929D01*
X0236694Y0112876D01*
X0236666Y0112821D01*
X0236641Y0112764D01*
X0236620Y0112706D01*
X0236603Y0112647D01*
X0236589Y0112586D01*
X0236580Y0112525D01*
X0236574Y0112464D01*
X0236572Y0112402D01*
X0240312Y0111418D02*
X0240374Y0111420D01*
X0240435Y0111426D01*
X0240496Y0111435D01*
X0240557Y0111449D01*
X0240616Y0111466D01*
X0240674Y0111487D01*
X0240731Y0111512D01*
X0240786Y0111540D01*
X0240839Y0111571D01*
X0240890Y0111606D01*
X0240939Y0111644D01*
X0240986Y0111685D01*
X0241029Y0111728D01*
X0241070Y0111775D01*
X0241108Y0111824D01*
X0241143Y0111875D01*
X0241174Y0111928D01*
X0241202Y0111983D01*
X0241227Y0112040D01*
X0241248Y0112098D01*
X0241265Y0112157D01*
X0241279Y0112218D01*
X0241288Y0112279D01*
X0241294Y0112340D01*
X0241296Y0112402D01*
X0240312Y0137402D02*
X0237556Y0137402D01*
X0237494Y0137404D01*
X0237433Y0137410D01*
X0237372Y0137419D01*
X0237311Y0137433D01*
X0237252Y0137450D01*
X0237194Y0137471D01*
X0237137Y0137496D01*
X0237082Y0137524D01*
X0237029Y0137555D01*
X0236978Y0137590D01*
X0236929Y0137628D01*
X0236882Y0137669D01*
X0236839Y0137712D01*
X0236798Y0137759D01*
X0236760Y0137808D01*
X0236725Y0137859D01*
X0236694Y0137912D01*
X0236666Y0137967D01*
X0236641Y0138024D01*
X0236620Y0138082D01*
X0236603Y0138141D01*
X0236589Y0138202D01*
X0236580Y0138263D01*
X0236574Y0138324D01*
X0236572Y0138386D01*
X0236574Y0138448D01*
X0236580Y0138509D01*
X0236589Y0138570D01*
X0236603Y0138631D01*
X0236620Y0138690D01*
X0236641Y0138748D01*
X0236666Y0138805D01*
X0236694Y0138860D01*
X0236725Y0138913D01*
X0236760Y0138964D01*
X0236798Y0139013D01*
X0236839Y0139060D01*
X0236882Y0139103D01*
X0236929Y0139144D01*
X0236978Y0139182D01*
X0237029Y0139217D01*
X0237082Y0139248D01*
X0237137Y0139276D01*
X0237194Y0139301D01*
X0237252Y0139322D01*
X0237311Y0139339D01*
X0237372Y0139353D01*
X0237433Y0139362D01*
X0237494Y0139368D01*
X0237556Y0139370D01*
X0240312Y0139370D01*
X0240374Y0139368D01*
X0240435Y0139362D01*
X0240496Y0139353D01*
X0240557Y0139339D01*
X0240616Y0139322D01*
X0240674Y0139301D01*
X0240731Y0139276D01*
X0240786Y0139248D01*
X0240839Y0139217D01*
X0240890Y0139182D01*
X0240939Y0139144D01*
X0240986Y0139103D01*
X0241029Y0139060D01*
X0241070Y0139013D01*
X0241108Y0138964D01*
X0241143Y0138913D01*
X0241174Y0138860D01*
X0241202Y0138805D01*
X0241227Y0138748D01*
X0241248Y0138690D01*
X0241265Y0138631D01*
X0241279Y0138570D01*
X0241288Y0138509D01*
X0241294Y0138448D01*
X0241296Y0138386D01*
X0241294Y0138324D01*
X0241288Y0138263D01*
X0241279Y0138202D01*
X0241265Y0138141D01*
X0241248Y0138082D01*
X0241227Y0138024D01*
X0241202Y0137967D01*
X0241174Y0137912D01*
X0241143Y0137859D01*
X0241108Y0137808D01*
X0241070Y0137759D01*
X0241029Y0137712D01*
X0240986Y0137669D01*
X0240939Y0137628D01*
X0240890Y0137590D01*
X0240839Y0137555D01*
X0240786Y0137524D01*
X0240731Y0137496D01*
X0240674Y0137471D01*
X0240616Y0137450D01*
X0240557Y0137433D01*
X0240496Y0137419D01*
X0240435Y0137410D01*
X0240374Y0137404D01*
X0240312Y0137402D01*
D36*
X0117252Y0113500D03*
X0108985Y0117240D03*
X0108985Y0109760D03*
D37*
X0100922Y0110154D03*
X0100922Y0116846D03*
D38*
X0140303Y0114240D03*
X0150540Y0114240D03*
X0150540Y0110500D03*
X0150540Y0106760D03*
X0140303Y0106760D03*
D39*
X0137162Y0166063D03*
X0129682Y0166063D03*
X0125162Y0166063D03*
X0117682Y0166063D03*
X0121422Y0174331D03*
X0133422Y0174331D03*
D40*
X0129422Y0179228D03*
X0129422Y0182772D03*
X0123922Y0182772D03*
X0123922Y0179228D03*
D41*
X0128422Y0207000D03*
X0118422Y0207000D03*
X0138422Y0207000D03*
X0148422Y0207000D03*
X0158422Y0207000D03*
X0168422Y0207000D03*
X0178422Y0207000D03*
X0188422Y0207000D03*
X0198422Y0207000D03*
X0208422Y0207000D03*
X0208422Y0147000D03*
X0198422Y0147000D03*
X0188422Y0147000D03*
X0178422Y0147000D03*
X0168422Y0147000D03*
X0158422Y0147000D03*
X0148422Y0147000D03*
X0138422Y0147000D03*
X0128422Y0147000D03*
X0118422Y0147000D03*
X0118422Y0137000D03*
X0128422Y0137000D03*
X0138422Y0137000D03*
X0148422Y0137000D03*
X0148422Y0127000D03*
X0138422Y0127000D03*
X0128422Y0127000D03*
X0118422Y0127000D03*
M02*
