G75*
%MOIN*%
%OFA0B0*%
%FSLAX25Y25*%
%IPPOS*%
%LPD*%
%AMOC8*
5,1,8,0,0,1.08239X$1,22.5*
%
%ADD10C,0.00000*%
%ADD11R,0.01969X0.01969*%
%ADD12R,0.02165X0.04724*%
%ADD13R,0.02362X0.01575*%
%ADD14R,0.04331X0.02362*%
%ADD15R,0.02756X0.02756*%
%ADD16C,0.04000*%
%ADD17R,0.08000X0.08000*%
%ADD18C,0.08000*%
%ADD19R,0.01200X0.03900*%
%ADD20R,0.07400X0.07400*%
%ADD21C,0.07400*%
%ADD22C,0.06000*%
%ADD23R,0.02000X0.01000*%
%ADD24C,0.00039*%
%ADD25C,0.03543*%
%ADD26R,0.01575X0.02362*%
%ADD27R,0.03937X0.07087*%
%ADD28C,0.05906*%
%ADD29C,0.00800*%
%ADD30C,0.01000*%
%ADD31C,0.02400*%
%ADD32C,0.01600*%
%ADD33R,0.03562X0.03562*%
%ADD34C,0.03200*%
%ADD35C,0.02400*%
D10*
X0080922Y0060000D02*
X0095922Y0045000D01*
X0230922Y0045000D01*
X0245922Y0060000D01*
X0245922Y0195000D01*
X0230922Y0210000D01*
X0095922Y0210000D01*
X0080922Y0195000D01*
X0080922Y0060000D01*
X0096099Y0066476D02*
X0096101Y0066634D01*
X0096107Y0066792D01*
X0096117Y0066950D01*
X0096131Y0067108D01*
X0096149Y0067265D01*
X0096170Y0067422D01*
X0096196Y0067578D01*
X0096226Y0067734D01*
X0096259Y0067889D01*
X0096297Y0068042D01*
X0096338Y0068195D01*
X0096383Y0068347D01*
X0096432Y0068498D01*
X0096485Y0068647D01*
X0096541Y0068795D01*
X0096601Y0068941D01*
X0096665Y0069086D01*
X0096733Y0069229D01*
X0096804Y0069371D01*
X0096878Y0069511D01*
X0096956Y0069648D01*
X0097038Y0069784D01*
X0097122Y0069918D01*
X0097211Y0070049D01*
X0097302Y0070178D01*
X0097397Y0070305D01*
X0097494Y0070430D01*
X0097595Y0070552D01*
X0097699Y0070671D01*
X0097806Y0070788D01*
X0097916Y0070902D01*
X0098029Y0071013D01*
X0098144Y0071122D01*
X0098262Y0071227D01*
X0098383Y0071329D01*
X0098506Y0071429D01*
X0098632Y0071525D01*
X0098760Y0071618D01*
X0098890Y0071708D01*
X0099023Y0071794D01*
X0099158Y0071878D01*
X0099294Y0071957D01*
X0099433Y0072034D01*
X0099574Y0072106D01*
X0099716Y0072176D01*
X0099860Y0072241D01*
X0100006Y0072303D01*
X0100153Y0072361D01*
X0100302Y0072416D01*
X0100452Y0072467D01*
X0100603Y0072514D01*
X0100755Y0072557D01*
X0100908Y0072596D01*
X0101063Y0072632D01*
X0101218Y0072663D01*
X0101374Y0072691D01*
X0101530Y0072715D01*
X0101687Y0072735D01*
X0101845Y0072751D01*
X0102002Y0072763D01*
X0102161Y0072771D01*
X0102319Y0072775D01*
X0102477Y0072775D01*
X0102635Y0072771D01*
X0102794Y0072763D01*
X0102951Y0072751D01*
X0103109Y0072735D01*
X0103266Y0072715D01*
X0103422Y0072691D01*
X0103578Y0072663D01*
X0103733Y0072632D01*
X0103888Y0072596D01*
X0104041Y0072557D01*
X0104193Y0072514D01*
X0104344Y0072467D01*
X0104494Y0072416D01*
X0104643Y0072361D01*
X0104790Y0072303D01*
X0104936Y0072241D01*
X0105080Y0072176D01*
X0105222Y0072106D01*
X0105363Y0072034D01*
X0105502Y0071957D01*
X0105638Y0071878D01*
X0105773Y0071794D01*
X0105906Y0071708D01*
X0106036Y0071618D01*
X0106164Y0071525D01*
X0106290Y0071429D01*
X0106413Y0071329D01*
X0106534Y0071227D01*
X0106652Y0071122D01*
X0106767Y0071013D01*
X0106880Y0070902D01*
X0106990Y0070788D01*
X0107097Y0070671D01*
X0107201Y0070552D01*
X0107302Y0070430D01*
X0107399Y0070305D01*
X0107494Y0070178D01*
X0107585Y0070049D01*
X0107674Y0069918D01*
X0107758Y0069784D01*
X0107840Y0069648D01*
X0107918Y0069511D01*
X0107992Y0069371D01*
X0108063Y0069229D01*
X0108131Y0069086D01*
X0108195Y0068941D01*
X0108255Y0068795D01*
X0108311Y0068647D01*
X0108364Y0068498D01*
X0108413Y0068347D01*
X0108458Y0068195D01*
X0108499Y0068042D01*
X0108537Y0067889D01*
X0108570Y0067734D01*
X0108600Y0067578D01*
X0108626Y0067422D01*
X0108647Y0067265D01*
X0108665Y0067108D01*
X0108679Y0066950D01*
X0108689Y0066792D01*
X0108695Y0066634D01*
X0108697Y0066476D01*
X0108695Y0066318D01*
X0108689Y0066160D01*
X0108679Y0066002D01*
X0108665Y0065844D01*
X0108647Y0065687D01*
X0108626Y0065530D01*
X0108600Y0065374D01*
X0108570Y0065218D01*
X0108537Y0065063D01*
X0108499Y0064910D01*
X0108458Y0064757D01*
X0108413Y0064605D01*
X0108364Y0064454D01*
X0108311Y0064305D01*
X0108255Y0064157D01*
X0108195Y0064011D01*
X0108131Y0063866D01*
X0108063Y0063723D01*
X0107992Y0063581D01*
X0107918Y0063441D01*
X0107840Y0063304D01*
X0107758Y0063168D01*
X0107674Y0063034D01*
X0107585Y0062903D01*
X0107494Y0062774D01*
X0107399Y0062647D01*
X0107302Y0062522D01*
X0107201Y0062400D01*
X0107097Y0062281D01*
X0106990Y0062164D01*
X0106880Y0062050D01*
X0106767Y0061939D01*
X0106652Y0061830D01*
X0106534Y0061725D01*
X0106413Y0061623D01*
X0106290Y0061523D01*
X0106164Y0061427D01*
X0106036Y0061334D01*
X0105906Y0061244D01*
X0105773Y0061158D01*
X0105638Y0061074D01*
X0105502Y0060995D01*
X0105363Y0060918D01*
X0105222Y0060846D01*
X0105080Y0060776D01*
X0104936Y0060711D01*
X0104790Y0060649D01*
X0104643Y0060591D01*
X0104494Y0060536D01*
X0104344Y0060485D01*
X0104193Y0060438D01*
X0104041Y0060395D01*
X0103888Y0060356D01*
X0103733Y0060320D01*
X0103578Y0060289D01*
X0103422Y0060261D01*
X0103266Y0060237D01*
X0103109Y0060217D01*
X0102951Y0060201D01*
X0102794Y0060189D01*
X0102635Y0060181D01*
X0102477Y0060177D01*
X0102319Y0060177D01*
X0102161Y0060181D01*
X0102002Y0060189D01*
X0101845Y0060201D01*
X0101687Y0060217D01*
X0101530Y0060237D01*
X0101374Y0060261D01*
X0101218Y0060289D01*
X0101063Y0060320D01*
X0100908Y0060356D01*
X0100755Y0060395D01*
X0100603Y0060438D01*
X0100452Y0060485D01*
X0100302Y0060536D01*
X0100153Y0060591D01*
X0100006Y0060649D01*
X0099860Y0060711D01*
X0099716Y0060776D01*
X0099574Y0060846D01*
X0099433Y0060918D01*
X0099294Y0060995D01*
X0099158Y0061074D01*
X0099023Y0061158D01*
X0098890Y0061244D01*
X0098760Y0061334D01*
X0098632Y0061427D01*
X0098506Y0061523D01*
X0098383Y0061623D01*
X0098262Y0061725D01*
X0098144Y0061830D01*
X0098029Y0061939D01*
X0097916Y0062050D01*
X0097806Y0062164D01*
X0097699Y0062281D01*
X0097595Y0062400D01*
X0097494Y0062522D01*
X0097397Y0062647D01*
X0097302Y0062774D01*
X0097211Y0062903D01*
X0097122Y0063034D01*
X0097038Y0063168D01*
X0096956Y0063304D01*
X0096878Y0063441D01*
X0096804Y0063581D01*
X0096733Y0063723D01*
X0096665Y0063866D01*
X0096601Y0064011D01*
X0096541Y0064157D01*
X0096485Y0064305D01*
X0096432Y0064454D01*
X0096383Y0064605D01*
X0096338Y0064757D01*
X0096297Y0064910D01*
X0096259Y0065063D01*
X0096226Y0065218D01*
X0096196Y0065374D01*
X0096170Y0065530D01*
X0096149Y0065687D01*
X0096131Y0065844D01*
X0096117Y0066002D01*
X0096107Y0066160D01*
X0096101Y0066318D01*
X0096099Y0066476D01*
X0218146Y0066476D02*
X0218148Y0066634D01*
X0218154Y0066792D01*
X0218164Y0066950D01*
X0218178Y0067108D01*
X0218196Y0067265D01*
X0218217Y0067422D01*
X0218243Y0067578D01*
X0218273Y0067734D01*
X0218306Y0067889D01*
X0218344Y0068042D01*
X0218385Y0068195D01*
X0218430Y0068347D01*
X0218479Y0068498D01*
X0218532Y0068647D01*
X0218588Y0068795D01*
X0218648Y0068941D01*
X0218712Y0069086D01*
X0218780Y0069229D01*
X0218851Y0069371D01*
X0218925Y0069511D01*
X0219003Y0069648D01*
X0219085Y0069784D01*
X0219169Y0069918D01*
X0219258Y0070049D01*
X0219349Y0070178D01*
X0219444Y0070305D01*
X0219541Y0070430D01*
X0219642Y0070552D01*
X0219746Y0070671D01*
X0219853Y0070788D01*
X0219963Y0070902D01*
X0220076Y0071013D01*
X0220191Y0071122D01*
X0220309Y0071227D01*
X0220430Y0071329D01*
X0220553Y0071429D01*
X0220679Y0071525D01*
X0220807Y0071618D01*
X0220937Y0071708D01*
X0221070Y0071794D01*
X0221205Y0071878D01*
X0221341Y0071957D01*
X0221480Y0072034D01*
X0221621Y0072106D01*
X0221763Y0072176D01*
X0221907Y0072241D01*
X0222053Y0072303D01*
X0222200Y0072361D01*
X0222349Y0072416D01*
X0222499Y0072467D01*
X0222650Y0072514D01*
X0222802Y0072557D01*
X0222955Y0072596D01*
X0223110Y0072632D01*
X0223265Y0072663D01*
X0223421Y0072691D01*
X0223577Y0072715D01*
X0223734Y0072735D01*
X0223892Y0072751D01*
X0224049Y0072763D01*
X0224208Y0072771D01*
X0224366Y0072775D01*
X0224524Y0072775D01*
X0224682Y0072771D01*
X0224841Y0072763D01*
X0224998Y0072751D01*
X0225156Y0072735D01*
X0225313Y0072715D01*
X0225469Y0072691D01*
X0225625Y0072663D01*
X0225780Y0072632D01*
X0225935Y0072596D01*
X0226088Y0072557D01*
X0226240Y0072514D01*
X0226391Y0072467D01*
X0226541Y0072416D01*
X0226690Y0072361D01*
X0226837Y0072303D01*
X0226983Y0072241D01*
X0227127Y0072176D01*
X0227269Y0072106D01*
X0227410Y0072034D01*
X0227549Y0071957D01*
X0227685Y0071878D01*
X0227820Y0071794D01*
X0227953Y0071708D01*
X0228083Y0071618D01*
X0228211Y0071525D01*
X0228337Y0071429D01*
X0228460Y0071329D01*
X0228581Y0071227D01*
X0228699Y0071122D01*
X0228814Y0071013D01*
X0228927Y0070902D01*
X0229037Y0070788D01*
X0229144Y0070671D01*
X0229248Y0070552D01*
X0229349Y0070430D01*
X0229446Y0070305D01*
X0229541Y0070178D01*
X0229632Y0070049D01*
X0229721Y0069918D01*
X0229805Y0069784D01*
X0229887Y0069648D01*
X0229965Y0069511D01*
X0230039Y0069371D01*
X0230110Y0069229D01*
X0230178Y0069086D01*
X0230242Y0068941D01*
X0230302Y0068795D01*
X0230358Y0068647D01*
X0230411Y0068498D01*
X0230460Y0068347D01*
X0230505Y0068195D01*
X0230546Y0068042D01*
X0230584Y0067889D01*
X0230617Y0067734D01*
X0230647Y0067578D01*
X0230673Y0067422D01*
X0230694Y0067265D01*
X0230712Y0067108D01*
X0230726Y0066950D01*
X0230736Y0066792D01*
X0230742Y0066634D01*
X0230744Y0066476D01*
X0230742Y0066318D01*
X0230736Y0066160D01*
X0230726Y0066002D01*
X0230712Y0065844D01*
X0230694Y0065687D01*
X0230673Y0065530D01*
X0230647Y0065374D01*
X0230617Y0065218D01*
X0230584Y0065063D01*
X0230546Y0064910D01*
X0230505Y0064757D01*
X0230460Y0064605D01*
X0230411Y0064454D01*
X0230358Y0064305D01*
X0230302Y0064157D01*
X0230242Y0064011D01*
X0230178Y0063866D01*
X0230110Y0063723D01*
X0230039Y0063581D01*
X0229965Y0063441D01*
X0229887Y0063304D01*
X0229805Y0063168D01*
X0229721Y0063034D01*
X0229632Y0062903D01*
X0229541Y0062774D01*
X0229446Y0062647D01*
X0229349Y0062522D01*
X0229248Y0062400D01*
X0229144Y0062281D01*
X0229037Y0062164D01*
X0228927Y0062050D01*
X0228814Y0061939D01*
X0228699Y0061830D01*
X0228581Y0061725D01*
X0228460Y0061623D01*
X0228337Y0061523D01*
X0228211Y0061427D01*
X0228083Y0061334D01*
X0227953Y0061244D01*
X0227820Y0061158D01*
X0227685Y0061074D01*
X0227549Y0060995D01*
X0227410Y0060918D01*
X0227269Y0060846D01*
X0227127Y0060776D01*
X0226983Y0060711D01*
X0226837Y0060649D01*
X0226690Y0060591D01*
X0226541Y0060536D01*
X0226391Y0060485D01*
X0226240Y0060438D01*
X0226088Y0060395D01*
X0225935Y0060356D01*
X0225780Y0060320D01*
X0225625Y0060289D01*
X0225469Y0060261D01*
X0225313Y0060237D01*
X0225156Y0060217D01*
X0224998Y0060201D01*
X0224841Y0060189D01*
X0224682Y0060181D01*
X0224524Y0060177D01*
X0224366Y0060177D01*
X0224208Y0060181D01*
X0224049Y0060189D01*
X0223892Y0060201D01*
X0223734Y0060217D01*
X0223577Y0060237D01*
X0223421Y0060261D01*
X0223265Y0060289D01*
X0223110Y0060320D01*
X0222955Y0060356D01*
X0222802Y0060395D01*
X0222650Y0060438D01*
X0222499Y0060485D01*
X0222349Y0060536D01*
X0222200Y0060591D01*
X0222053Y0060649D01*
X0221907Y0060711D01*
X0221763Y0060776D01*
X0221621Y0060846D01*
X0221480Y0060918D01*
X0221341Y0060995D01*
X0221205Y0061074D01*
X0221070Y0061158D01*
X0220937Y0061244D01*
X0220807Y0061334D01*
X0220679Y0061427D01*
X0220553Y0061523D01*
X0220430Y0061623D01*
X0220309Y0061725D01*
X0220191Y0061830D01*
X0220076Y0061939D01*
X0219963Y0062050D01*
X0219853Y0062164D01*
X0219746Y0062281D01*
X0219642Y0062400D01*
X0219541Y0062522D01*
X0219444Y0062647D01*
X0219349Y0062774D01*
X0219258Y0062903D01*
X0219169Y0063034D01*
X0219085Y0063168D01*
X0219003Y0063304D01*
X0218925Y0063441D01*
X0218851Y0063581D01*
X0218780Y0063723D01*
X0218712Y0063866D01*
X0218648Y0064011D01*
X0218588Y0064157D01*
X0218532Y0064305D01*
X0218479Y0064454D01*
X0218430Y0064605D01*
X0218385Y0064757D01*
X0218344Y0064910D01*
X0218306Y0065063D01*
X0218273Y0065218D01*
X0218243Y0065374D01*
X0218217Y0065530D01*
X0218196Y0065687D01*
X0218178Y0065844D01*
X0218164Y0066002D01*
X0218154Y0066160D01*
X0218148Y0066318D01*
X0218146Y0066476D01*
X0218146Y0188524D02*
X0218148Y0188682D01*
X0218154Y0188840D01*
X0218164Y0188998D01*
X0218178Y0189156D01*
X0218196Y0189313D01*
X0218217Y0189470D01*
X0218243Y0189626D01*
X0218273Y0189782D01*
X0218306Y0189937D01*
X0218344Y0190090D01*
X0218385Y0190243D01*
X0218430Y0190395D01*
X0218479Y0190546D01*
X0218532Y0190695D01*
X0218588Y0190843D01*
X0218648Y0190989D01*
X0218712Y0191134D01*
X0218780Y0191277D01*
X0218851Y0191419D01*
X0218925Y0191559D01*
X0219003Y0191696D01*
X0219085Y0191832D01*
X0219169Y0191966D01*
X0219258Y0192097D01*
X0219349Y0192226D01*
X0219444Y0192353D01*
X0219541Y0192478D01*
X0219642Y0192600D01*
X0219746Y0192719D01*
X0219853Y0192836D01*
X0219963Y0192950D01*
X0220076Y0193061D01*
X0220191Y0193170D01*
X0220309Y0193275D01*
X0220430Y0193377D01*
X0220553Y0193477D01*
X0220679Y0193573D01*
X0220807Y0193666D01*
X0220937Y0193756D01*
X0221070Y0193842D01*
X0221205Y0193926D01*
X0221341Y0194005D01*
X0221480Y0194082D01*
X0221621Y0194154D01*
X0221763Y0194224D01*
X0221907Y0194289D01*
X0222053Y0194351D01*
X0222200Y0194409D01*
X0222349Y0194464D01*
X0222499Y0194515D01*
X0222650Y0194562D01*
X0222802Y0194605D01*
X0222955Y0194644D01*
X0223110Y0194680D01*
X0223265Y0194711D01*
X0223421Y0194739D01*
X0223577Y0194763D01*
X0223734Y0194783D01*
X0223892Y0194799D01*
X0224049Y0194811D01*
X0224208Y0194819D01*
X0224366Y0194823D01*
X0224524Y0194823D01*
X0224682Y0194819D01*
X0224841Y0194811D01*
X0224998Y0194799D01*
X0225156Y0194783D01*
X0225313Y0194763D01*
X0225469Y0194739D01*
X0225625Y0194711D01*
X0225780Y0194680D01*
X0225935Y0194644D01*
X0226088Y0194605D01*
X0226240Y0194562D01*
X0226391Y0194515D01*
X0226541Y0194464D01*
X0226690Y0194409D01*
X0226837Y0194351D01*
X0226983Y0194289D01*
X0227127Y0194224D01*
X0227269Y0194154D01*
X0227410Y0194082D01*
X0227549Y0194005D01*
X0227685Y0193926D01*
X0227820Y0193842D01*
X0227953Y0193756D01*
X0228083Y0193666D01*
X0228211Y0193573D01*
X0228337Y0193477D01*
X0228460Y0193377D01*
X0228581Y0193275D01*
X0228699Y0193170D01*
X0228814Y0193061D01*
X0228927Y0192950D01*
X0229037Y0192836D01*
X0229144Y0192719D01*
X0229248Y0192600D01*
X0229349Y0192478D01*
X0229446Y0192353D01*
X0229541Y0192226D01*
X0229632Y0192097D01*
X0229721Y0191966D01*
X0229805Y0191832D01*
X0229887Y0191696D01*
X0229965Y0191559D01*
X0230039Y0191419D01*
X0230110Y0191277D01*
X0230178Y0191134D01*
X0230242Y0190989D01*
X0230302Y0190843D01*
X0230358Y0190695D01*
X0230411Y0190546D01*
X0230460Y0190395D01*
X0230505Y0190243D01*
X0230546Y0190090D01*
X0230584Y0189937D01*
X0230617Y0189782D01*
X0230647Y0189626D01*
X0230673Y0189470D01*
X0230694Y0189313D01*
X0230712Y0189156D01*
X0230726Y0188998D01*
X0230736Y0188840D01*
X0230742Y0188682D01*
X0230744Y0188524D01*
X0230742Y0188366D01*
X0230736Y0188208D01*
X0230726Y0188050D01*
X0230712Y0187892D01*
X0230694Y0187735D01*
X0230673Y0187578D01*
X0230647Y0187422D01*
X0230617Y0187266D01*
X0230584Y0187111D01*
X0230546Y0186958D01*
X0230505Y0186805D01*
X0230460Y0186653D01*
X0230411Y0186502D01*
X0230358Y0186353D01*
X0230302Y0186205D01*
X0230242Y0186059D01*
X0230178Y0185914D01*
X0230110Y0185771D01*
X0230039Y0185629D01*
X0229965Y0185489D01*
X0229887Y0185352D01*
X0229805Y0185216D01*
X0229721Y0185082D01*
X0229632Y0184951D01*
X0229541Y0184822D01*
X0229446Y0184695D01*
X0229349Y0184570D01*
X0229248Y0184448D01*
X0229144Y0184329D01*
X0229037Y0184212D01*
X0228927Y0184098D01*
X0228814Y0183987D01*
X0228699Y0183878D01*
X0228581Y0183773D01*
X0228460Y0183671D01*
X0228337Y0183571D01*
X0228211Y0183475D01*
X0228083Y0183382D01*
X0227953Y0183292D01*
X0227820Y0183206D01*
X0227685Y0183122D01*
X0227549Y0183043D01*
X0227410Y0182966D01*
X0227269Y0182894D01*
X0227127Y0182824D01*
X0226983Y0182759D01*
X0226837Y0182697D01*
X0226690Y0182639D01*
X0226541Y0182584D01*
X0226391Y0182533D01*
X0226240Y0182486D01*
X0226088Y0182443D01*
X0225935Y0182404D01*
X0225780Y0182368D01*
X0225625Y0182337D01*
X0225469Y0182309D01*
X0225313Y0182285D01*
X0225156Y0182265D01*
X0224998Y0182249D01*
X0224841Y0182237D01*
X0224682Y0182229D01*
X0224524Y0182225D01*
X0224366Y0182225D01*
X0224208Y0182229D01*
X0224049Y0182237D01*
X0223892Y0182249D01*
X0223734Y0182265D01*
X0223577Y0182285D01*
X0223421Y0182309D01*
X0223265Y0182337D01*
X0223110Y0182368D01*
X0222955Y0182404D01*
X0222802Y0182443D01*
X0222650Y0182486D01*
X0222499Y0182533D01*
X0222349Y0182584D01*
X0222200Y0182639D01*
X0222053Y0182697D01*
X0221907Y0182759D01*
X0221763Y0182824D01*
X0221621Y0182894D01*
X0221480Y0182966D01*
X0221341Y0183043D01*
X0221205Y0183122D01*
X0221070Y0183206D01*
X0220937Y0183292D01*
X0220807Y0183382D01*
X0220679Y0183475D01*
X0220553Y0183571D01*
X0220430Y0183671D01*
X0220309Y0183773D01*
X0220191Y0183878D01*
X0220076Y0183987D01*
X0219963Y0184098D01*
X0219853Y0184212D01*
X0219746Y0184329D01*
X0219642Y0184448D01*
X0219541Y0184570D01*
X0219444Y0184695D01*
X0219349Y0184822D01*
X0219258Y0184951D01*
X0219169Y0185082D01*
X0219085Y0185216D01*
X0219003Y0185352D01*
X0218925Y0185489D01*
X0218851Y0185629D01*
X0218780Y0185771D01*
X0218712Y0185914D01*
X0218648Y0186059D01*
X0218588Y0186205D01*
X0218532Y0186353D01*
X0218479Y0186502D01*
X0218430Y0186653D01*
X0218385Y0186805D01*
X0218344Y0186958D01*
X0218306Y0187111D01*
X0218273Y0187266D01*
X0218243Y0187422D01*
X0218217Y0187578D01*
X0218196Y0187735D01*
X0218178Y0187892D01*
X0218164Y0188050D01*
X0218154Y0188208D01*
X0218148Y0188366D01*
X0218146Y0188524D01*
X0096099Y0188524D02*
X0096101Y0188682D01*
X0096107Y0188840D01*
X0096117Y0188998D01*
X0096131Y0189156D01*
X0096149Y0189313D01*
X0096170Y0189470D01*
X0096196Y0189626D01*
X0096226Y0189782D01*
X0096259Y0189937D01*
X0096297Y0190090D01*
X0096338Y0190243D01*
X0096383Y0190395D01*
X0096432Y0190546D01*
X0096485Y0190695D01*
X0096541Y0190843D01*
X0096601Y0190989D01*
X0096665Y0191134D01*
X0096733Y0191277D01*
X0096804Y0191419D01*
X0096878Y0191559D01*
X0096956Y0191696D01*
X0097038Y0191832D01*
X0097122Y0191966D01*
X0097211Y0192097D01*
X0097302Y0192226D01*
X0097397Y0192353D01*
X0097494Y0192478D01*
X0097595Y0192600D01*
X0097699Y0192719D01*
X0097806Y0192836D01*
X0097916Y0192950D01*
X0098029Y0193061D01*
X0098144Y0193170D01*
X0098262Y0193275D01*
X0098383Y0193377D01*
X0098506Y0193477D01*
X0098632Y0193573D01*
X0098760Y0193666D01*
X0098890Y0193756D01*
X0099023Y0193842D01*
X0099158Y0193926D01*
X0099294Y0194005D01*
X0099433Y0194082D01*
X0099574Y0194154D01*
X0099716Y0194224D01*
X0099860Y0194289D01*
X0100006Y0194351D01*
X0100153Y0194409D01*
X0100302Y0194464D01*
X0100452Y0194515D01*
X0100603Y0194562D01*
X0100755Y0194605D01*
X0100908Y0194644D01*
X0101063Y0194680D01*
X0101218Y0194711D01*
X0101374Y0194739D01*
X0101530Y0194763D01*
X0101687Y0194783D01*
X0101845Y0194799D01*
X0102002Y0194811D01*
X0102161Y0194819D01*
X0102319Y0194823D01*
X0102477Y0194823D01*
X0102635Y0194819D01*
X0102794Y0194811D01*
X0102951Y0194799D01*
X0103109Y0194783D01*
X0103266Y0194763D01*
X0103422Y0194739D01*
X0103578Y0194711D01*
X0103733Y0194680D01*
X0103888Y0194644D01*
X0104041Y0194605D01*
X0104193Y0194562D01*
X0104344Y0194515D01*
X0104494Y0194464D01*
X0104643Y0194409D01*
X0104790Y0194351D01*
X0104936Y0194289D01*
X0105080Y0194224D01*
X0105222Y0194154D01*
X0105363Y0194082D01*
X0105502Y0194005D01*
X0105638Y0193926D01*
X0105773Y0193842D01*
X0105906Y0193756D01*
X0106036Y0193666D01*
X0106164Y0193573D01*
X0106290Y0193477D01*
X0106413Y0193377D01*
X0106534Y0193275D01*
X0106652Y0193170D01*
X0106767Y0193061D01*
X0106880Y0192950D01*
X0106990Y0192836D01*
X0107097Y0192719D01*
X0107201Y0192600D01*
X0107302Y0192478D01*
X0107399Y0192353D01*
X0107494Y0192226D01*
X0107585Y0192097D01*
X0107674Y0191966D01*
X0107758Y0191832D01*
X0107840Y0191696D01*
X0107918Y0191559D01*
X0107992Y0191419D01*
X0108063Y0191277D01*
X0108131Y0191134D01*
X0108195Y0190989D01*
X0108255Y0190843D01*
X0108311Y0190695D01*
X0108364Y0190546D01*
X0108413Y0190395D01*
X0108458Y0190243D01*
X0108499Y0190090D01*
X0108537Y0189937D01*
X0108570Y0189782D01*
X0108600Y0189626D01*
X0108626Y0189470D01*
X0108647Y0189313D01*
X0108665Y0189156D01*
X0108679Y0188998D01*
X0108689Y0188840D01*
X0108695Y0188682D01*
X0108697Y0188524D01*
X0108695Y0188366D01*
X0108689Y0188208D01*
X0108679Y0188050D01*
X0108665Y0187892D01*
X0108647Y0187735D01*
X0108626Y0187578D01*
X0108600Y0187422D01*
X0108570Y0187266D01*
X0108537Y0187111D01*
X0108499Y0186958D01*
X0108458Y0186805D01*
X0108413Y0186653D01*
X0108364Y0186502D01*
X0108311Y0186353D01*
X0108255Y0186205D01*
X0108195Y0186059D01*
X0108131Y0185914D01*
X0108063Y0185771D01*
X0107992Y0185629D01*
X0107918Y0185489D01*
X0107840Y0185352D01*
X0107758Y0185216D01*
X0107674Y0185082D01*
X0107585Y0184951D01*
X0107494Y0184822D01*
X0107399Y0184695D01*
X0107302Y0184570D01*
X0107201Y0184448D01*
X0107097Y0184329D01*
X0106990Y0184212D01*
X0106880Y0184098D01*
X0106767Y0183987D01*
X0106652Y0183878D01*
X0106534Y0183773D01*
X0106413Y0183671D01*
X0106290Y0183571D01*
X0106164Y0183475D01*
X0106036Y0183382D01*
X0105906Y0183292D01*
X0105773Y0183206D01*
X0105638Y0183122D01*
X0105502Y0183043D01*
X0105363Y0182966D01*
X0105222Y0182894D01*
X0105080Y0182824D01*
X0104936Y0182759D01*
X0104790Y0182697D01*
X0104643Y0182639D01*
X0104494Y0182584D01*
X0104344Y0182533D01*
X0104193Y0182486D01*
X0104041Y0182443D01*
X0103888Y0182404D01*
X0103733Y0182368D01*
X0103578Y0182337D01*
X0103422Y0182309D01*
X0103266Y0182285D01*
X0103109Y0182265D01*
X0102951Y0182249D01*
X0102794Y0182237D01*
X0102635Y0182229D01*
X0102477Y0182225D01*
X0102319Y0182225D01*
X0102161Y0182229D01*
X0102002Y0182237D01*
X0101845Y0182249D01*
X0101687Y0182265D01*
X0101530Y0182285D01*
X0101374Y0182309D01*
X0101218Y0182337D01*
X0101063Y0182368D01*
X0100908Y0182404D01*
X0100755Y0182443D01*
X0100603Y0182486D01*
X0100452Y0182533D01*
X0100302Y0182584D01*
X0100153Y0182639D01*
X0100006Y0182697D01*
X0099860Y0182759D01*
X0099716Y0182824D01*
X0099574Y0182894D01*
X0099433Y0182966D01*
X0099294Y0183043D01*
X0099158Y0183122D01*
X0099023Y0183206D01*
X0098890Y0183292D01*
X0098760Y0183382D01*
X0098632Y0183475D01*
X0098506Y0183571D01*
X0098383Y0183671D01*
X0098262Y0183773D01*
X0098144Y0183878D01*
X0098029Y0183987D01*
X0097916Y0184098D01*
X0097806Y0184212D01*
X0097699Y0184329D01*
X0097595Y0184448D01*
X0097494Y0184570D01*
X0097397Y0184695D01*
X0097302Y0184822D01*
X0097211Y0184951D01*
X0097122Y0185082D01*
X0097038Y0185216D01*
X0096956Y0185352D01*
X0096878Y0185489D01*
X0096804Y0185629D01*
X0096733Y0185771D01*
X0096665Y0185914D01*
X0096601Y0186059D01*
X0096541Y0186205D01*
X0096485Y0186353D01*
X0096432Y0186502D01*
X0096383Y0186653D01*
X0096338Y0186805D01*
X0096297Y0186958D01*
X0096259Y0187111D01*
X0096226Y0187266D01*
X0096196Y0187422D01*
X0096170Y0187578D01*
X0096149Y0187735D01*
X0096131Y0187892D01*
X0096117Y0188050D01*
X0096107Y0188208D01*
X0096101Y0188366D01*
X0096099Y0188524D01*
D11*
X0149453Y0193000D03*
X0153390Y0193000D03*
X0153390Y0198000D03*
X0149453Y0198000D03*
X0147390Y0118500D03*
X0143453Y0118500D03*
X0139390Y0103000D03*
X0135453Y0103000D03*
X0126890Y0103000D03*
X0122953Y0103000D03*
D12*
X0127432Y0108381D03*
X0131172Y0108381D03*
X0134912Y0108381D03*
X0134912Y0118619D03*
X0127432Y0118619D03*
D13*
X0107422Y0162978D03*
X0107422Y0166522D03*
D14*
X0140422Y0192744D03*
X0140422Y0198256D03*
D15*
X0093422Y0166142D03*
X0095981Y0158858D03*
X0090863Y0158858D03*
D16*
X0236422Y0159000D03*
X0241422Y0159000D03*
X0241422Y0164000D03*
X0236422Y0164000D03*
X0236422Y0169000D03*
X0241422Y0169000D03*
X0241422Y0154000D03*
X0241422Y0149000D03*
X0236422Y0149000D03*
X0236422Y0154000D03*
D17*
X0133022Y0057950D03*
D18*
X0152707Y0057950D03*
D19*
X0155745Y0116013D03*
X0158304Y0116013D03*
X0160863Y0116013D03*
X0163422Y0116013D03*
X0165981Y0116013D03*
X0168540Y0116013D03*
X0171099Y0116013D03*
X0171099Y0138987D03*
X0168540Y0138987D03*
X0165981Y0138987D03*
X0163422Y0138987D03*
X0160863Y0138987D03*
X0158304Y0138987D03*
X0155745Y0138987D03*
D20*
X0174422Y0050000D03*
D21*
X0184422Y0050000D03*
X0194422Y0050000D03*
X0204422Y0050000D03*
D22*
X0145922Y0050000D03*
X0140922Y0050000D03*
D23*
X0143422Y0048000D03*
X0143422Y0052000D03*
D24*
X0237556Y0110417D02*
X0240312Y0110417D01*
X0241296Y0111402D02*
X0241294Y0111464D01*
X0241288Y0111525D01*
X0241279Y0111586D01*
X0241265Y0111647D01*
X0241248Y0111706D01*
X0241227Y0111764D01*
X0241202Y0111821D01*
X0241174Y0111876D01*
X0241143Y0111929D01*
X0241108Y0111980D01*
X0241070Y0112029D01*
X0241029Y0112076D01*
X0240986Y0112119D01*
X0240939Y0112160D01*
X0240890Y0112198D01*
X0240839Y0112233D01*
X0240786Y0112264D01*
X0240731Y0112292D01*
X0240674Y0112317D01*
X0240616Y0112338D01*
X0240557Y0112355D01*
X0240496Y0112369D01*
X0240435Y0112378D01*
X0240374Y0112384D01*
X0240312Y0112386D01*
X0237556Y0112386D01*
X0236572Y0111402D02*
X0236574Y0111340D01*
X0236580Y0111279D01*
X0236589Y0111218D01*
X0236603Y0111157D01*
X0236620Y0111098D01*
X0236641Y0111040D01*
X0236666Y0110983D01*
X0236694Y0110928D01*
X0236725Y0110875D01*
X0236760Y0110824D01*
X0236798Y0110775D01*
X0236839Y0110728D01*
X0236882Y0110685D01*
X0236929Y0110644D01*
X0236978Y0110606D01*
X0237029Y0110571D01*
X0237082Y0110540D01*
X0237137Y0110512D01*
X0237194Y0110487D01*
X0237252Y0110466D01*
X0237311Y0110449D01*
X0237372Y0110435D01*
X0237433Y0110426D01*
X0237494Y0110420D01*
X0237556Y0110418D01*
X0236572Y0111402D02*
X0236574Y0111464D01*
X0236580Y0111525D01*
X0236589Y0111586D01*
X0236603Y0111647D01*
X0236620Y0111706D01*
X0236641Y0111764D01*
X0236666Y0111821D01*
X0236694Y0111876D01*
X0236725Y0111929D01*
X0236760Y0111980D01*
X0236798Y0112029D01*
X0236839Y0112076D01*
X0236882Y0112119D01*
X0236929Y0112160D01*
X0236978Y0112198D01*
X0237029Y0112233D01*
X0237082Y0112264D01*
X0237137Y0112292D01*
X0237194Y0112317D01*
X0237252Y0112338D01*
X0237311Y0112355D01*
X0237372Y0112369D01*
X0237433Y0112378D01*
X0237494Y0112384D01*
X0237556Y0112386D01*
X0240312Y0110418D02*
X0240374Y0110420D01*
X0240435Y0110426D01*
X0240496Y0110435D01*
X0240557Y0110449D01*
X0240616Y0110466D01*
X0240674Y0110487D01*
X0240731Y0110512D01*
X0240786Y0110540D01*
X0240839Y0110571D01*
X0240890Y0110606D01*
X0240939Y0110644D01*
X0240986Y0110685D01*
X0241029Y0110728D01*
X0241070Y0110775D01*
X0241108Y0110824D01*
X0241143Y0110875D01*
X0241174Y0110928D01*
X0241202Y0110983D01*
X0241227Y0111040D01*
X0241248Y0111098D01*
X0241265Y0111157D01*
X0241279Y0111218D01*
X0241288Y0111279D01*
X0241294Y0111340D01*
X0241296Y0111402D01*
X0240312Y0136402D02*
X0237556Y0136402D01*
X0237494Y0136404D01*
X0237433Y0136410D01*
X0237372Y0136419D01*
X0237311Y0136433D01*
X0237252Y0136450D01*
X0237194Y0136471D01*
X0237137Y0136496D01*
X0237082Y0136524D01*
X0237029Y0136555D01*
X0236978Y0136590D01*
X0236929Y0136628D01*
X0236882Y0136669D01*
X0236839Y0136712D01*
X0236798Y0136759D01*
X0236760Y0136808D01*
X0236725Y0136859D01*
X0236694Y0136912D01*
X0236666Y0136967D01*
X0236641Y0137024D01*
X0236620Y0137082D01*
X0236603Y0137141D01*
X0236589Y0137202D01*
X0236580Y0137263D01*
X0236574Y0137324D01*
X0236572Y0137386D01*
X0236574Y0137448D01*
X0236580Y0137509D01*
X0236589Y0137570D01*
X0236603Y0137631D01*
X0236620Y0137690D01*
X0236641Y0137748D01*
X0236666Y0137805D01*
X0236694Y0137860D01*
X0236725Y0137913D01*
X0236760Y0137964D01*
X0236798Y0138013D01*
X0236839Y0138060D01*
X0236882Y0138103D01*
X0236929Y0138144D01*
X0236978Y0138182D01*
X0237029Y0138217D01*
X0237082Y0138248D01*
X0237137Y0138276D01*
X0237194Y0138301D01*
X0237252Y0138322D01*
X0237311Y0138339D01*
X0237372Y0138353D01*
X0237433Y0138362D01*
X0237494Y0138368D01*
X0237556Y0138370D01*
X0240312Y0138370D01*
X0240374Y0138368D01*
X0240435Y0138362D01*
X0240496Y0138353D01*
X0240557Y0138339D01*
X0240616Y0138322D01*
X0240674Y0138301D01*
X0240731Y0138276D01*
X0240786Y0138248D01*
X0240839Y0138217D01*
X0240890Y0138182D01*
X0240939Y0138144D01*
X0240986Y0138103D01*
X0241029Y0138060D01*
X0241070Y0138013D01*
X0241108Y0137964D01*
X0241143Y0137913D01*
X0241174Y0137860D01*
X0241202Y0137805D01*
X0241227Y0137748D01*
X0241248Y0137690D01*
X0241265Y0137631D01*
X0241279Y0137570D01*
X0241288Y0137509D01*
X0241294Y0137448D01*
X0241296Y0137386D01*
X0241294Y0137324D01*
X0241288Y0137263D01*
X0241279Y0137202D01*
X0241265Y0137141D01*
X0241248Y0137082D01*
X0241227Y0137024D01*
X0241202Y0136967D01*
X0241174Y0136912D01*
X0241143Y0136859D01*
X0241108Y0136808D01*
X0241070Y0136759D01*
X0241029Y0136712D01*
X0240986Y0136669D01*
X0240939Y0136628D01*
X0240890Y0136590D01*
X0240839Y0136555D01*
X0240786Y0136524D01*
X0240731Y0136496D01*
X0240674Y0136471D01*
X0240616Y0136450D01*
X0240557Y0136433D01*
X0240496Y0136419D01*
X0240435Y0136410D01*
X0240374Y0136404D01*
X0240312Y0136402D01*
D25*
X0237556Y0137386D02*
X0237556Y0137386D01*
X0240312Y0137386D01*
X0240312Y0137386D01*
X0237556Y0137386D01*
X0237556Y0111402D02*
X0237556Y0111402D01*
X0240312Y0111402D01*
X0240312Y0111402D01*
X0237556Y0111402D01*
D26*
X0095193Y0154500D03*
X0091650Y0154500D03*
D27*
X0156410Y0106500D03*
X0167434Y0106500D03*
D28*
X0148422Y0126000D03*
X0138422Y0126000D03*
X0128422Y0126000D03*
X0118422Y0126000D03*
X0118422Y0136000D03*
X0128422Y0136000D03*
X0138422Y0136000D03*
X0148422Y0136000D03*
X0148422Y0146000D03*
X0158422Y0146000D03*
X0168422Y0146000D03*
X0178422Y0146000D03*
X0188422Y0146000D03*
X0198422Y0146000D03*
X0208422Y0146000D03*
X0138422Y0146000D03*
X0128422Y0146000D03*
X0118422Y0146000D03*
X0118422Y0206000D03*
X0128422Y0206000D03*
X0138422Y0206000D03*
X0148422Y0206000D03*
X0158422Y0206000D03*
X0168422Y0206000D03*
X0178422Y0206000D03*
X0188422Y0206000D03*
X0198422Y0206000D03*
X0208422Y0206000D03*
D29*
X0186563Y0189100D02*
X0186322Y0188517D01*
X0186322Y0187483D01*
X0186718Y0186527D01*
X0187449Y0185796D01*
X0188405Y0185400D01*
X0188835Y0185400D01*
X0193507Y0180728D01*
X0193449Y0180704D01*
X0192718Y0179973D01*
X0192322Y0179017D01*
X0192322Y0178587D01*
X0192135Y0178400D01*
X0179699Y0178400D01*
X0179395Y0178704D01*
X0178439Y0179100D01*
X0177405Y0179100D01*
X0176449Y0178704D01*
X0175718Y0177973D01*
X0175322Y0177017D01*
X0175322Y0175983D01*
X0175549Y0175433D01*
X0162195Y0175404D01*
X0161895Y0175704D01*
X0160939Y0176100D01*
X0160863Y0176100D01*
X0161022Y0176483D01*
X0161022Y0177517D01*
X0160626Y0178473D01*
X0159895Y0179204D01*
X0159123Y0179524D01*
X0159626Y0180027D01*
X0159987Y0180900D01*
X0160939Y0180900D01*
X0161895Y0181296D01*
X0162626Y0182027D01*
X0163022Y0182983D01*
X0163022Y0184017D01*
X0162906Y0184297D01*
X0165901Y0187292D01*
X0166218Y0186527D01*
X0166514Y0186231D01*
X0166449Y0186204D01*
X0165718Y0185473D01*
X0165322Y0184517D01*
X0165322Y0183483D01*
X0165718Y0182527D01*
X0166449Y0181796D01*
X0167405Y0181400D01*
X0168439Y0181400D01*
X0169395Y0181796D01*
X0169699Y0182100D01*
X0179209Y0182100D01*
X0186209Y0189100D01*
X0186563Y0189100D01*
X0186411Y0188732D02*
X0185841Y0188732D01*
X0186322Y0187934D02*
X0185042Y0187934D01*
X0184244Y0187135D02*
X0186466Y0187135D01*
X0186908Y0186337D02*
X0183445Y0186337D01*
X0182647Y0185538D02*
X0188071Y0185538D01*
X0189495Y0184739D02*
X0181848Y0184739D01*
X0181050Y0183941D02*
X0190294Y0183941D01*
X0191092Y0183142D02*
X0180251Y0183142D01*
X0179453Y0182344D02*
X0191891Y0182344D01*
X0192689Y0181545D02*
X0168790Y0181545D01*
X0167053Y0181545D02*
X0162144Y0181545D01*
X0162757Y0182344D02*
X0165901Y0182344D01*
X0165463Y0183142D02*
X0163022Y0183142D01*
X0163022Y0183941D02*
X0165322Y0183941D01*
X0165414Y0184739D02*
X0163348Y0184739D01*
X0164147Y0185538D02*
X0165783Y0185538D01*
X0166408Y0186337D02*
X0164945Y0186337D01*
X0165744Y0187135D02*
X0165966Y0187135D01*
X0157661Y0191926D02*
X0155774Y0191926D01*
X0155774Y0191831D02*
X0155774Y0192908D01*
X0153482Y0192908D01*
X0153482Y0190616D01*
X0154559Y0190616D01*
X0154915Y0190711D01*
X0155234Y0190895D01*
X0155495Y0191156D01*
X0155679Y0191475D01*
X0155774Y0191831D01*
X0155466Y0191128D02*
X0156862Y0191128D01*
X0156064Y0190329D02*
X0143349Y0190329D01*
X0143341Y0190337D02*
X0143697Y0190693D01*
X0144405Y0190400D01*
X0145439Y0190400D01*
X0146395Y0190796D01*
X0146443Y0190844D01*
X0147661Y0190844D01*
X0147889Y0190616D01*
X0151017Y0190616D01*
X0151422Y0191020D01*
X0151546Y0190895D01*
X0151866Y0190711D01*
X0152222Y0190616D01*
X0153298Y0190616D01*
X0153298Y0192908D01*
X0153482Y0192908D01*
X0153482Y0193092D01*
X0153298Y0193092D01*
X0153298Y0195384D01*
X0152222Y0195384D01*
X0151866Y0195289D01*
X0151546Y0195105D01*
X0151422Y0194980D01*
X0151017Y0195384D01*
X0147889Y0195384D01*
X0147405Y0194900D01*
X0146699Y0194900D01*
X0146395Y0195204D01*
X0145680Y0195500D01*
X0146395Y0195796D01*
X0146699Y0196100D01*
X0147405Y0196100D01*
X0147889Y0195616D01*
X0151017Y0195616D01*
X0151422Y0196020D01*
X0151546Y0195895D01*
X0151866Y0195711D01*
X0152222Y0195616D01*
X0153298Y0195616D01*
X0153298Y0197908D01*
X0153482Y0197908D01*
X0153482Y0195616D01*
X0154559Y0195616D01*
X0154915Y0195711D01*
X0155234Y0195895D01*
X0155495Y0196156D01*
X0155679Y0196475D01*
X0155774Y0196831D01*
X0155774Y0197908D01*
X0153482Y0197908D01*
X0153482Y0198092D01*
X0153298Y0198092D01*
X0153298Y0200384D01*
X0152222Y0200384D01*
X0151866Y0200289D01*
X0151546Y0200105D01*
X0151422Y0199980D01*
X0151017Y0200384D01*
X0147889Y0200384D01*
X0147661Y0200156D01*
X0146443Y0200156D01*
X0146395Y0200204D01*
X0145439Y0200600D01*
X0144405Y0200600D01*
X0143697Y0200307D01*
X0143306Y0200698D01*
X0144209Y0201600D01*
X0146709Y0201600D01*
X0146990Y0201882D01*
X0147556Y0201647D01*
X0149288Y0201647D01*
X0150887Y0202310D01*
X0152112Y0203534D01*
X0152774Y0205134D01*
X0152774Y0206866D01*
X0152112Y0208466D01*
X0151977Y0208600D01*
X0154866Y0208600D01*
X0154732Y0208466D01*
X0154069Y0206866D01*
X0154069Y0205134D01*
X0154732Y0203534D01*
X0155956Y0202310D01*
X0157556Y0201647D01*
X0159288Y0201647D01*
X0160887Y0202310D01*
X0162112Y0203534D01*
X0162774Y0205134D01*
X0162774Y0206866D01*
X0162112Y0208466D01*
X0161977Y0208600D01*
X0164866Y0208600D01*
X0164732Y0208466D01*
X0164069Y0206866D01*
X0164069Y0205134D01*
X0164732Y0203534D01*
X0165956Y0202310D01*
X0166522Y0202076D01*
X0166522Y0200787D01*
X0153635Y0187900D01*
X0152522Y0186787D01*
X0152522Y0179600D01*
X0151905Y0179600D01*
X0150949Y0179204D01*
X0150218Y0178473D01*
X0149822Y0177517D01*
X0149822Y0176787D01*
X0149822Y0176787D01*
X0149822Y0180287D01*
X0148709Y0181400D01*
X0147522Y0182587D01*
X0147522Y0182687D01*
X0147054Y0183155D01*
X0147395Y0183296D01*
X0148126Y0184027D01*
X0148522Y0184983D01*
X0148522Y0186017D01*
X0148126Y0186973D01*
X0147395Y0187704D01*
X0146439Y0188100D01*
X0145857Y0188100D01*
X0143341Y0190337D01*
X0144247Y0189531D02*
X0155265Y0189531D01*
X0154467Y0188732D02*
X0145146Y0188732D01*
X0146841Y0187934D02*
X0153668Y0187934D01*
X0152870Y0187135D02*
X0147964Y0187135D01*
X0148389Y0186337D02*
X0152522Y0186337D01*
X0152522Y0185538D02*
X0148522Y0185538D01*
X0148421Y0184739D02*
X0152522Y0184739D01*
X0152522Y0183941D02*
X0148040Y0183941D01*
X0147066Y0183142D02*
X0152522Y0183142D01*
X0152522Y0182344D02*
X0147765Y0182344D01*
X0148563Y0181545D02*
X0152522Y0181545D01*
X0152522Y0180747D02*
X0149362Y0180747D01*
X0149822Y0179948D02*
X0152522Y0179948D01*
X0150895Y0179150D02*
X0149822Y0179150D01*
X0149822Y0178351D02*
X0150167Y0178351D01*
X0149837Y0177553D02*
X0149822Y0177553D01*
X0159547Y0179948D02*
X0192707Y0179948D01*
X0192377Y0179150D02*
X0159949Y0179150D01*
X0160676Y0178351D02*
X0176096Y0178351D01*
X0175544Y0177553D02*
X0161007Y0177553D01*
X0161022Y0176754D02*
X0175322Y0176754D01*
X0175333Y0175956D02*
X0161287Y0175956D01*
X0159924Y0180747D02*
X0193488Y0180747D01*
X0205036Y0171698D02*
X0168990Y0171619D01*
X0171822Y0168787D01*
X0171822Y0163713D01*
X0170709Y0162600D01*
X0170322Y0162213D01*
X0170322Y0158787D01*
X0174009Y0155100D01*
X0174439Y0155100D01*
X0175149Y0154806D01*
X0175218Y0154973D01*
X0175949Y0155704D01*
X0176905Y0156100D01*
X0177939Y0156100D01*
X0178895Y0155704D01*
X0179199Y0155400D01*
X0181709Y0155400D01*
X0182822Y0154287D01*
X0186990Y0150118D01*
X0187556Y0150353D01*
X0189288Y0150353D01*
X0190887Y0149690D01*
X0191522Y0149056D01*
X0191522Y0149213D01*
X0174835Y0165900D01*
X0174405Y0165900D01*
X0173449Y0166296D01*
X0172718Y0167027D01*
X0172322Y0167983D01*
X0172322Y0169017D01*
X0172718Y0169973D01*
X0173449Y0170704D01*
X0174405Y0171100D01*
X0175439Y0171100D01*
X0176395Y0170704D01*
X0177126Y0169973D01*
X0177522Y0169017D01*
X0177522Y0168587D01*
X0185401Y0160708D01*
X0185718Y0161473D01*
X0186449Y0162204D01*
X0187405Y0162600D01*
X0187835Y0162600D01*
X0192135Y0166900D01*
X0200945Y0166900D01*
X0201249Y0167204D01*
X0202205Y0167600D01*
X0203239Y0167600D01*
X0204195Y0167204D01*
X0204926Y0166473D01*
X0205042Y0166193D01*
X0206822Y0167686D01*
X0206822Y0169913D01*
X0205036Y0171698D01*
X0205570Y0171165D02*
X0169444Y0171165D01*
X0170242Y0170366D02*
X0173111Y0170366D01*
X0172550Y0169568D02*
X0171041Y0169568D01*
X0171822Y0168769D02*
X0172322Y0168769D01*
X0172327Y0167971D02*
X0171822Y0167971D01*
X0171822Y0167172D02*
X0172657Y0167172D01*
X0173371Y0166374D02*
X0171822Y0166374D01*
X0171822Y0165575D02*
X0175160Y0165575D01*
X0175958Y0164777D02*
X0171822Y0164777D01*
X0171822Y0163978D02*
X0176757Y0163978D01*
X0177555Y0163180D02*
X0171288Y0163180D01*
X0170490Y0162381D02*
X0178354Y0162381D01*
X0179152Y0161583D02*
X0170322Y0161583D01*
X0170322Y0160784D02*
X0179951Y0160784D01*
X0180749Y0159986D02*
X0170322Y0159986D01*
X0170322Y0159187D02*
X0181548Y0159187D01*
X0182346Y0158389D02*
X0170720Y0158389D01*
X0171519Y0157590D02*
X0183145Y0157590D01*
X0183943Y0156792D02*
X0172317Y0156792D01*
X0173116Y0155993D02*
X0176646Y0155993D01*
X0175439Y0155195D02*
X0173914Y0155195D01*
X0178197Y0155993D02*
X0184742Y0155993D01*
X0185540Y0155195D02*
X0181914Y0155195D01*
X0182713Y0154396D02*
X0186339Y0154396D01*
X0187137Y0153598D02*
X0183511Y0153598D01*
X0184310Y0152799D02*
X0187936Y0152799D01*
X0188734Y0152001D02*
X0185108Y0152001D01*
X0185907Y0151202D02*
X0189533Y0151202D01*
X0190331Y0150403D02*
X0186705Y0150403D01*
X0190972Y0149605D02*
X0191130Y0149605D01*
X0195322Y0142944D02*
X0195956Y0142310D01*
X0197556Y0141647D01*
X0199288Y0141647D01*
X0200887Y0142310D01*
X0201522Y0142944D01*
X0201522Y0141277D01*
X0201218Y0140973D01*
X0200822Y0140017D01*
X0200822Y0138983D01*
X0201218Y0138027D01*
X0201949Y0137296D01*
X0202905Y0136900D01*
X0203939Y0136900D01*
X0204895Y0137296D01*
X0205626Y0138027D01*
X0206022Y0138983D01*
X0206022Y0140017D01*
X0205626Y0140973D01*
X0205322Y0141277D01*
X0205322Y0142944D01*
X0205956Y0142310D01*
X0207556Y0141647D01*
X0209288Y0141647D01*
X0210887Y0142310D01*
X0212112Y0143534D01*
X0212774Y0145134D01*
X0212774Y0146866D01*
X0212112Y0148466D01*
X0210887Y0149690D01*
X0210322Y0149924D01*
X0210322Y0155100D01*
X0217609Y0155100D01*
X0218722Y0156213D01*
X0221822Y0159313D01*
X0221822Y0173084D01*
X0221834Y0173856D01*
X0221822Y0173869D01*
X0221822Y0173887D01*
X0221277Y0174432D01*
X0218822Y0176969D01*
X0218822Y0176987D01*
X0218310Y0177499D01*
X0218526Y0177500D01*
X0219309Y0177500D01*
X0219313Y0177504D01*
X0236639Y0177596D01*
X0241835Y0172400D01*
X0240745Y0172400D01*
X0239496Y0171882D01*
X0238922Y0171308D01*
X0238348Y0171882D01*
X0237098Y0172400D01*
X0235745Y0172400D01*
X0234496Y0171882D01*
X0233539Y0170926D01*
X0233022Y0169676D01*
X0233022Y0168324D01*
X0233539Y0167074D01*
X0234113Y0166500D01*
X0233781Y0166167D01*
X0233409Y0165610D01*
X0233152Y0164992D01*
X0233022Y0164335D01*
X0233022Y0164200D01*
X0236222Y0164200D01*
X0236222Y0163800D01*
X0236622Y0163800D01*
X0236622Y0159200D01*
X0236222Y0159200D01*
X0236222Y0162400D01*
X0236222Y0163800D01*
X0233022Y0163800D01*
X0233022Y0163665D01*
X0233152Y0163008D01*
X0233409Y0162389D01*
X0233781Y0161833D01*
X0234113Y0161500D01*
X0233781Y0161167D01*
X0233409Y0160610D01*
X0233152Y0159992D01*
X0233022Y0159335D01*
X0233022Y0159200D01*
X0236222Y0159200D01*
X0236222Y0158800D01*
X0233022Y0158800D01*
X0233022Y0158665D01*
X0233152Y0158008D01*
X0233409Y0157389D01*
X0233781Y0156833D01*
X0234113Y0156500D01*
X0233539Y0155926D01*
X0233022Y0154676D01*
X0233022Y0153324D01*
X0233539Y0152074D01*
X0234113Y0151500D01*
X0233781Y0151167D01*
X0233409Y0150610D01*
X0233152Y0149992D01*
X0233022Y0149335D01*
X0233022Y0149200D01*
X0236222Y0149200D01*
X0236222Y0148800D01*
X0233022Y0148800D01*
X0233022Y0148665D01*
X0233152Y0148008D01*
X0233409Y0147389D01*
X0233736Y0146900D01*
X0230822Y0146900D01*
X0230822Y0170223D01*
X0231126Y0170527D01*
X0231522Y0171483D01*
X0231522Y0172517D01*
X0231126Y0173473D01*
X0230395Y0174204D01*
X0229439Y0174600D01*
X0228405Y0174600D01*
X0227449Y0174204D01*
X0226718Y0173473D01*
X0226322Y0172517D01*
X0226322Y0171483D01*
X0226718Y0170527D01*
X0227022Y0170223D01*
X0227022Y0145787D01*
X0217635Y0136400D01*
X0197999Y0136400D01*
X0198626Y0137027D01*
X0199022Y0137983D01*
X0199022Y0139017D01*
X0198626Y0139973D01*
X0197895Y0140704D01*
X0196939Y0141100D01*
X0196509Y0141100D01*
X0195322Y0142287D01*
X0195322Y0142944D01*
X0195322Y0142418D02*
X0195848Y0142418D01*
X0195989Y0141620D02*
X0201522Y0141620D01*
X0201522Y0142418D02*
X0200996Y0142418D01*
X0201155Y0140821D02*
X0197612Y0140821D01*
X0198576Y0140023D02*
X0200824Y0140023D01*
X0200822Y0139224D02*
X0198936Y0139224D01*
X0199022Y0138426D02*
X0201052Y0138426D01*
X0201617Y0137627D02*
X0198874Y0137627D01*
X0198427Y0136829D02*
X0218064Y0136829D01*
X0218862Y0137627D02*
X0205226Y0137627D01*
X0205791Y0138426D02*
X0219661Y0138426D01*
X0220459Y0139224D02*
X0206022Y0139224D01*
X0206019Y0140023D02*
X0221258Y0140023D01*
X0222056Y0140821D02*
X0205689Y0140821D01*
X0205322Y0141620D02*
X0222855Y0141620D01*
X0223653Y0142418D02*
X0210996Y0142418D01*
X0211794Y0143217D02*
X0224452Y0143217D01*
X0225250Y0144015D02*
X0212311Y0144015D01*
X0212642Y0144814D02*
X0226049Y0144814D01*
X0226847Y0145612D02*
X0212774Y0145612D01*
X0212774Y0146411D02*
X0227022Y0146411D01*
X0227022Y0147209D02*
X0212632Y0147209D01*
X0212301Y0148008D02*
X0227022Y0148008D01*
X0227022Y0148806D02*
X0211771Y0148806D01*
X0210972Y0149605D02*
X0227022Y0149605D01*
X0227022Y0150403D02*
X0210322Y0150403D01*
X0210322Y0151202D02*
X0227022Y0151202D01*
X0227022Y0152001D02*
X0210322Y0152001D01*
X0210322Y0152799D02*
X0227022Y0152799D01*
X0227022Y0153598D02*
X0210322Y0153598D01*
X0210322Y0154396D02*
X0227022Y0154396D01*
X0227022Y0155195D02*
X0217703Y0155195D01*
X0218502Y0155993D02*
X0227022Y0155993D01*
X0227022Y0156792D02*
X0219300Y0156792D01*
X0220099Y0157590D02*
X0227022Y0157590D01*
X0227022Y0158389D02*
X0220897Y0158389D01*
X0221696Y0159187D02*
X0227022Y0159187D01*
X0227022Y0159986D02*
X0221822Y0159986D01*
X0221822Y0160784D02*
X0227022Y0160784D01*
X0227022Y0161583D02*
X0221822Y0161583D01*
X0221822Y0162381D02*
X0227022Y0162381D01*
X0227022Y0163180D02*
X0221822Y0163180D01*
X0221822Y0163978D02*
X0227022Y0163978D01*
X0227022Y0164777D02*
X0221822Y0164777D01*
X0221822Y0165575D02*
X0227022Y0165575D01*
X0227022Y0166374D02*
X0221822Y0166374D01*
X0221822Y0167172D02*
X0227022Y0167172D01*
X0227022Y0167971D02*
X0221822Y0167971D01*
X0221822Y0168769D02*
X0227022Y0168769D01*
X0227022Y0169568D02*
X0221822Y0169568D01*
X0221822Y0170366D02*
X0226879Y0170366D01*
X0226453Y0171165D02*
X0221822Y0171165D01*
X0221822Y0171963D02*
X0226322Y0171963D01*
X0226423Y0172762D02*
X0221822Y0172762D01*
X0221830Y0173560D02*
X0226805Y0173560D01*
X0227822Y0174359D02*
X0221350Y0174359D01*
X0220575Y0175157D02*
X0239077Y0175157D01*
X0238279Y0175956D02*
X0219802Y0175956D01*
X0219029Y0176754D02*
X0237480Y0176754D01*
X0236682Y0177553D02*
X0228519Y0177553D01*
X0230021Y0174359D02*
X0239876Y0174359D01*
X0240674Y0173560D02*
X0231038Y0173560D01*
X0231420Y0172762D02*
X0241473Y0172762D01*
X0239691Y0171963D02*
X0238152Y0171963D01*
X0234691Y0171963D02*
X0231522Y0171963D01*
X0231390Y0171165D02*
X0233778Y0171165D01*
X0233308Y0170366D02*
X0230965Y0170366D01*
X0230822Y0169568D02*
X0233022Y0169568D01*
X0233022Y0168769D02*
X0230822Y0168769D01*
X0230822Y0167971D02*
X0233168Y0167971D01*
X0233499Y0167172D02*
X0230822Y0167172D01*
X0230822Y0166374D02*
X0233987Y0166374D01*
X0233394Y0165575D02*
X0230822Y0165575D01*
X0230822Y0164777D02*
X0233110Y0164777D01*
X0233118Y0163180D02*
X0230822Y0163180D01*
X0230822Y0163978D02*
X0236222Y0163978D01*
X0236222Y0163180D02*
X0236622Y0163180D01*
X0236622Y0162381D02*
X0236222Y0162381D01*
X0236222Y0161583D02*
X0236622Y0161583D01*
X0236622Y0160784D02*
X0236222Y0160784D01*
X0236222Y0159986D02*
X0236622Y0159986D01*
X0236222Y0159187D02*
X0230822Y0159187D01*
X0230822Y0158389D02*
X0233077Y0158389D01*
X0233326Y0157590D02*
X0230822Y0157590D01*
X0230822Y0156792D02*
X0233822Y0156792D01*
X0233606Y0155993D02*
X0230822Y0155993D01*
X0230822Y0155195D02*
X0233236Y0155195D01*
X0233022Y0154396D02*
X0230822Y0154396D01*
X0230822Y0153598D02*
X0233022Y0153598D01*
X0233239Y0152799D02*
X0230822Y0152799D01*
X0230822Y0152001D02*
X0233613Y0152001D01*
X0233815Y0151202D02*
X0230822Y0151202D01*
X0230822Y0150403D02*
X0233323Y0150403D01*
X0233075Y0149605D02*
X0230822Y0149605D01*
X0230822Y0148806D02*
X0236222Y0148806D01*
X0233529Y0147209D02*
X0230822Y0147209D01*
X0230822Y0148008D02*
X0233153Y0148008D01*
X0233151Y0159986D02*
X0230822Y0159986D01*
X0230822Y0160784D02*
X0233525Y0160784D01*
X0234031Y0161583D02*
X0230822Y0161583D01*
X0230822Y0162381D02*
X0233414Y0162381D01*
X0206822Y0167971D02*
X0178138Y0167971D01*
X0177522Y0168769D02*
X0206822Y0168769D01*
X0206822Y0169568D02*
X0177294Y0169568D01*
X0176732Y0170366D02*
X0206368Y0170366D01*
X0206209Y0167172D02*
X0204226Y0167172D01*
X0204967Y0166374D02*
X0205257Y0166374D01*
X0201217Y0167172D02*
X0178936Y0167172D01*
X0179735Y0166374D02*
X0191608Y0166374D01*
X0190810Y0165575D02*
X0180534Y0165575D01*
X0181332Y0164777D02*
X0190011Y0164777D01*
X0189213Y0163978D02*
X0182131Y0163978D01*
X0182929Y0163180D02*
X0188414Y0163180D01*
X0186876Y0162381D02*
X0183728Y0162381D01*
X0184526Y0161583D02*
X0185827Y0161583D01*
X0185432Y0160784D02*
X0185325Y0160784D01*
X0205322Y0142418D02*
X0205848Y0142418D01*
X0179910Y0126600D02*
X0176510Y0123200D01*
X0175222Y0121911D01*
X0175222Y0113911D01*
X0170802Y0109492D01*
X0170802Y0110623D01*
X0169982Y0111443D01*
X0164885Y0111443D01*
X0164065Y0110623D01*
X0164065Y0102377D01*
X0164885Y0101557D01*
X0167241Y0101557D01*
X0141640Y0075264D01*
X0141122Y0074746D01*
X0141122Y0074732D01*
X0141112Y0074722D01*
X0141122Y0073988D01*
X0141122Y0071000D01*
X0136164Y0071000D01*
X0123422Y0083743D01*
X0123422Y0087597D01*
X0122965Y0088699D01*
X0122121Y0089543D01*
X0121018Y0090000D01*
X0119825Y0090000D01*
X0118722Y0089543D01*
X0117878Y0088699D01*
X0117422Y0087597D01*
X0117422Y0081903D01*
X0117878Y0080801D01*
X0132378Y0066301D01*
X0133222Y0065457D01*
X0134325Y0065000D01*
X0141122Y0065000D01*
X0141122Y0053180D01*
X0141022Y0053080D01*
X0141022Y0050920D01*
X0141122Y0050820D01*
X0141122Y0050325D01*
X0140597Y0050325D01*
X0140597Y0054400D01*
X0140575Y0054400D01*
X0139891Y0054292D01*
X0139233Y0054078D01*
X0138616Y0053763D01*
X0138422Y0053622D01*
X0138422Y0062530D01*
X0137602Y0063350D01*
X0128442Y0063350D01*
X0127622Y0062530D01*
X0127622Y0053370D01*
X0128442Y0052550D01*
X0137336Y0052550D01*
X0137159Y0052306D01*
X0136844Y0051689D01*
X0136630Y0051030D01*
X0136522Y0050346D01*
X0136522Y0050325D01*
X0140597Y0050325D01*
X0140597Y0049675D01*
X0136522Y0049675D01*
X0136522Y0049654D01*
X0136630Y0048970D01*
X0136844Y0048311D01*
X0137159Y0047694D01*
X0137566Y0047134D01*
X0138055Y0046644D01*
X0138391Y0046400D01*
X0096502Y0046400D01*
X0082322Y0060580D01*
X0082322Y0194420D01*
X0096502Y0208600D01*
X0114866Y0208600D01*
X0114732Y0208466D01*
X0114069Y0206866D01*
X0114069Y0205134D01*
X0114732Y0203534D01*
X0115956Y0202310D01*
X0117556Y0201647D01*
X0119288Y0201647D01*
X0120887Y0202310D01*
X0122112Y0203534D01*
X0122774Y0205134D01*
X0122774Y0206866D01*
X0122112Y0208466D01*
X0121977Y0208600D01*
X0124866Y0208600D01*
X0124732Y0208466D01*
X0124069Y0206866D01*
X0124069Y0205134D01*
X0124732Y0203534D01*
X0125956Y0202310D01*
X0126522Y0202076D01*
X0126522Y0199213D01*
X0126635Y0199100D01*
X0125905Y0199100D01*
X0124949Y0198704D01*
X0124218Y0197973D01*
X0123822Y0197017D01*
X0123822Y0195983D01*
X0124218Y0195027D01*
X0124522Y0194723D01*
X0124522Y0187287D01*
X0119335Y0182100D01*
X0118905Y0182100D01*
X0117949Y0181704D01*
X0117218Y0180973D01*
X0116822Y0180017D01*
X0116822Y0178983D01*
X0117218Y0178027D01*
X0117949Y0177296D01*
X0118905Y0176900D01*
X0119939Y0176900D01*
X0120895Y0177296D01*
X0121626Y0178027D01*
X0122022Y0178983D01*
X0122022Y0179413D01*
X0127522Y0184913D01*
X0127522Y0168213D01*
X0128635Y0167100D01*
X0130740Y0164995D01*
X0130718Y0164973D01*
X0130322Y0164017D01*
X0130322Y0162983D01*
X0130718Y0162027D01*
X0131449Y0161296D01*
X0132405Y0160900D01*
X0133439Y0160900D01*
X0133773Y0161038D01*
X0133022Y0160287D01*
X0133022Y0148713D01*
X0134135Y0147600D01*
X0134303Y0147431D01*
X0134069Y0146866D01*
X0134069Y0145134D01*
X0134732Y0143534D01*
X0135366Y0142900D01*
X0134699Y0142900D01*
X0134395Y0143204D01*
X0133439Y0143600D01*
X0132405Y0143600D01*
X0131909Y0143395D01*
X0132145Y0143719D01*
X0132456Y0144329D01*
X0132667Y0144981D01*
X0132765Y0145600D01*
X0128822Y0145600D01*
X0128822Y0146400D01*
X0132765Y0146400D01*
X0132667Y0147019D01*
X0132456Y0147671D01*
X0132145Y0148281D01*
X0131742Y0148836D01*
X0131257Y0149320D01*
X0130703Y0149723D01*
X0130093Y0150034D01*
X0129441Y0150246D01*
X0128822Y0150344D01*
X0128822Y0146400D01*
X0128022Y0146400D01*
X0128022Y0150344D01*
X0127402Y0150246D01*
X0126751Y0150034D01*
X0126140Y0149723D01*
X0125586Y0149320D01*
X0125102Y0148836D01*
X0124699Y0148281D01*
X0124388Y0147671D01*
X0124176Y0147019D01*
X0124078Y0146400D01*
X0128022Y0146400D01*
X0128022Y0145600D01*
X0128822Y0145600D01*
X0128822Y0141656D01*
X0129441Y0141754D01*
X0130093Y0141966D01*
X0130619Y0142234D01*
X0130322Y0141517D01*
X0130322Y0140483D01*
X0130619Y0139766D01*
X0130093Y0140034D01*
X0129441Y0140246D01*
X0128822Y0140344D01*
X0128822Y0136400D01*
X0132765Y0136400D01*
X0132667Y0137019D01*
X0132456Y0137671D01*
X0132145Y0138281D01*
X0131909Y0138605D01*
X0132405Y0138400D01*
X0133439Y0138400D01*
X0134395Y0138796D01*
X0134699Y0139100D01*
X0135366Y0139100D01*
X0134732Y0138466D01*
X0134069Y0136866D01*
X0134069Y0135134D01*
X0134732Y0133534D01*
X0135866Y0132400D01*
X0130872Y0132400D01*
X0131257Y0132680D01*
X0131742Y0133164D01*
X0132145Y0133719D01*
X0132456Y0134329D01*
X0132667Y0134981D01*
X0132765Y0135600D01*
X0128822Y0135600D01*
X0128822Y0136400D01*
X0128022Y0136400D01*
X0128022Y0140344D01*
X0127402Y0140246D01*
X0126751Y0140034D01*
X0126140Y0139723D01*
X0125586Y0139320D01*
X0125102Y0138836D01*
X0124699Y0138281D01*
X0124388Y0137671D01*
X0124176Y0137019D01*
X0124078Y0136400D01*
X0128022Y0136400D01*
X0128022Y0135600D01*
X0124078Y0135600D01*
X0124176Y0134981D01*
X0124388Y0134329D01*
X0124699Y0133719D01*
X0125102Y0133164D01*
X0125586Y0132680D01*
X0125971Y0132400D01*
X0120977Y0132400D01*
X0122112Y0133534D01*
X0122774Y0135134D01*
X0122774Y0136866D01*
X0122112Y0138466D01*
X0120887Y0139690D01*
X0119288Y0140353D01*
X0117556Y0140353D01*
X0115956Y0139690D01*
X0114732Y0138466D01*
X0114069Y0136866D01*
X0114069Y0135134D01*
X0114732Y0133534D01*
X0115866Y0132400D01*
X0114209Y0132400D01*
X0107022Y0139587D01*
X0107022Y0140017D01*
X0106626Y0140973D01*
X0106322Y0141277D01*
X0106322Y0157423D01*
X0106949Y0156796D01*
X0107905Y0156400D01*
X0108939Y0156400D01*
X0109895Y0156796D01*
X0110626Y0157527D01*
X0111022Y0158483D01*
X0111022Y0159517D01*
X0110626Y0160473D01*
X0109895Y0161204D01*
X0109683Y0161292D01*
X0110003Y0161611D01*
X0110003Y0164346D01*
X0109598Y0164750D01*
X0110003Y0165154D01*
X0110003Y0167889D01*
X0109183Y0168709D01*
X0106900Y0168709D01*
X0106822Y0168787D01*
X0105709Y0169900D01*
X0094493Y0169900D01*
X0093513Y0168920D01*
X0091464Y0168920D01*
X0090644Y0168100D01*
X0090644Y0164184D01*
X0091464Y0163364D01*
X0095380Y0163364D01*
X0096200Y0164184D01*
X0096200Y0166100D01*
X0101345Y0166100D01*
X0101218Y0165973D01*
X0100822Y0165017D01*
X0100822Y0163983D01*
X0101218Y0163027D01*
X0101949Y0162296D01*
X0102522Y0162059D01*
X0102522Y0141277D01*
X0102218Y0140973D01*
X0101822Y0140017D01*
X0101822Y0138983D01*
X0102218Y0138027D01*
X0102949Y0137296D01*
X0103905Y0136900D01*
X0104335Y0136900D01*
X0111522Y0129713D01*
X0112635Y0128600D01*
X0114866Y0128600D01*
X0114732Y0128466D01*
X0114069Y0126866D01*
X0114069Y0125134D01*
X0114732Y0123534D01*
X0115956Y0122310D01*
X0117556Y0121647D01*
X0119288Y0121647D01*
X0120887Y0122310D01*
X0122112Y0123534D01*
X0122774Y0125134D01*
X0122774Y0126866D01*
X0122112Y0128466D01*
X0121977Y0128600D01*
X0124930Y0128600D01*
X0124699Y0128281D01*
X0124388Y0127671D01*
X0124176Y0127019D01*
X0124078Y0126400D01*
X0128022Y0126400D01*
X0128022Y0125600D01*
X0124078Y0125600D01*
X0124176Y0124981D01*
X0124388Y0124329D01*
X0124699Y0123719D01*
X0125102Y0123164D01*
X0125586Y0122680D01*
X0125998Y0122381D01*
X0125769Y0122381D01*
X0124949Y0121561D01*
X0124949Y0115700D01*
X0124899Y0115700D01*
X0124895Y0115704D01*
X0123939Y0116100D01*
X0122905Y0116100D01*
X0121949Y0115704D01*
X0121218Y0114973D01*
X0120822Y0114017D01*
X0120822Y0112983D01*
X0121218Y0112027D01*
X0121949Y0111296D01*
X0122905Y0110900D01*
X0123939Y0110900D01*
X0124895Y0111296D01*
X0124899Y0111300D01*
X0124949Y0111300D01*
X0124949Y0110281D01*
X0118516Y0110281D01*
X0112667Y0104432D01*
X0112395Y0104704D01*
X0111439Y0105100D01*
X0110405Y0105100D01*
X0109449Y0104704D01*
X0108718Y0103973D01*
X0108322Y0103017D01*
X0108322Y0101983D01*
X0108718Y0101027D01*
X0109449Y0100296D01*
X0110405Y0099900D01*
X0110410Y0099900D01*
X0113222Y0097089D01*
X0114510Y0095800D01*
X0144833Y0095800D01*
X0146833Y0097800D01*
X0148122Y0099089D01*
X0148122Y0103911D01*
X0142522Y0109511D01*
X0142522Y0109517D01*
X0142126Y0110473D01*
X0141395Y0111204D01*
X0141163Y0111300D01*
X0150010Y0111300D01*
X0153041Y0108269D01*
X0153041Y0102377D01*
X0153862Y0101557D01*
X0158958Y0101557D01*
X0159778Y0102377D01*
X0159778Y0110623D01*
X0158958Y0111443D01*
X0156090Y0111443D01*
X0154870Y0112663D01*
X0156924Y0112663D01*
X0157072Y0112810D01*
X0157163Y0112758D01*
X0157519Y0112663D01*
X0158304Y0112663D01*
X0159088Y0112663D01*
X0159444Y0112758D01*
X0159535Y0112810D01*
X0159683Y0112663D01*
X0162043Y0112663D01*
X0162142Y0112762D01*
X0162242Y0112663D01*
X0164602Y0112663D01*
X0164701Y0112762D01*
X0164801Y0112663D01*
X0167161Y0112663D01*
X0167260Y0112762D01*
X0167360Y0112663D01*
X0169720Y0112663D01*
X0169819Y0112762D01*
X0169919Y0112663D01*
X0172279Y0112663D01*
X0173099Y0113483D01*
X0173099Y0118542D01*
X0172279Y0119363D01*
X0169919Y0119363D01*
X0169819Y0119263D01*
X0169720Y0119363D01*
X0168265Y0119363D01*
X0168522Y0119983D01*
X0168522Y0121017D01*
X0168126Y0121973D01*
X0167395Y0122704D01*
X0166439Y0123100D01*
X0165405Y0123100D01*
X0164449Y0122704D01*
X0164145Y0122400D01*
X0164135Y0122400D01*
X0163296Y0121562D01*
X0163126Y0121973D01*
X0162395Y0122704D01*
X0161439Y0123100D01*
X0160405Y0123100D01*
X0159449Y0122704D01*
X0158718Y0121973D01*
X0158322Y0121017D01*
X0158322Y0119983D01*
X0158579Y0119363D01*
X0158304Y0119363D01*
X0158304Y0116013D01*
X0158304Y0116013D01*
X0158304Y0119363D01*
X0157519Y0119363D01*
X0157163Y0119267D01*
X0157072Y0119215D01*
X0156924Y0119363D01*
X0154565Y0119363D01*
X0153745Y0118542D01*
X0153745Y0113788D01*
X0153122Y0114411D01*
X0151833Y0115700D01*
X0137395Y0115700D01*
X0137395Y0116419D01*
X0141586Y0116419D01*
X0141889Y0116116D01*
X0145017Y0116116D01*
X0145422Y0116520D01*
X0145546Y0116395D01*
X0145866Y0116211D01*
X0146222Y0116116D01*
X0147298Y0116116D01*
X0147298Y0118408D01*
X0147482Y0118408D01*
X0147482Y0116116D01*
X0148559Y0116116D01*
X0148915Y0116211D01*
X0149234Y0116395D01*
X0149495Y0116656D01*
X0149679Y0116975D01*
X0149774Y0117331D01*
X0149774Y0118408D01*
X0147482Y0118408D01*
X0147482Y0118592D01*
X0147298Y0118592D01*
X0147298Y0120884D01*
X0146417Y0120884D01*
X0147290Y0121757D01*
X0147556Y0121647D01*
X0149288Y0121647D01*
X0150887Y0122310D01*
X0152112Y0123534D01*
X0152774Y0125134D01*
X0152774Y0126100D01*
X0173709Y0126100D01*
X0175047Y0127438D01*
X0175218Y0127027D01*
X0175949Y0126296D01*
X0176905Y0125900D01*
X0177939Y0125900D01*
X0178895Y0126296D01*
X0179199Y0126600D01*
X0179910Y0126600D01*
X0179759Y0126448D02*
X0179047Y0126448D01*
X0178960Y0125650D02*
X0152774Y0125650D01*
X0152657Y0124851D02*
X0178162Y0124851D01*
X0177363Y0124053D02*
X0152326Y0124053D01*
X0151832Y0123254D02*
X0176565Y0123254D01*
X0175766Y0122456D02*
X0167643Y0122456D01*
X0168257Y0121657D02*
X0175222Y0121657D01*
X0175222Y0120859D02*
X0168522Y0120859D01*
X0168522Y0120060D02*
X0175222Y0120060D01*
X0175222Y0119262D02*
X0172380Y0119262D01*
X0173099Y0118463D02*
X0175222Y0118463D01*
X0175222Y0117665D02*
X0173099Y0117665D01*
X0173099Y0116866D02*
X0175222Y0116866D01*
X0175222Y0116068D02*
X0173099Y0116068D01*
X0173099Y0115269D02*
X0175222Y0115269D01*
X0175222Y0114470D02*
X0173099Y0114470D01*
X0173099Y0113672D02*
X0174982Y0113672D01*
X0174184Y0112873D02*
X0172490Y0112873D01*
X0173385Y0112075D02*
X0155458Y0112075D01*
X0158304Y0112663D02*
X0158304Y0116012D01*
X0158304Y0112663D01*
X0158304Y0112873D02*
X0158304Y0112873D01*
X0158304Y0113672D02*
X0158304Y0113672D01*
X0158304Y0114470D02*
X0158304Y0114470D01*
X0158304Y0115269D02*
X0158304Y0115269D01*
X0158304Y0116012D02*
X0158304Y0116012D01*
X0158304Y0116068D02*
X0158304Y0116068D01*
X0158304Y0116866D02*
X0158304Y0116866D01*
X0158304Y0117665D02*
X0158304Y0117665D01*
X0158304Y0118463D02*
X0158304Y0118463D01*
X0158304Y0119262D02*
X0158304Y0119262D01*
X0158322Y0120060D02*
X0149659Y0120060D01*
X0149679Y0120025D02*
X0149495Y0120344D01*
X0149234Y0120605D01*
X0148915Y0120789D01*
X0148559Y0120884D01*
X0147482Y0120884D01*
X0147482Y0118592D01*
X0149774Y0118592D01*
X0149774Y0119669D01*
X0149679Y0120025D01*
X0149774Y0119262D02*
X0154464Y0119262D01*
X0153745Y0118463D02*
X0147482Y0118463D01*
X0147482Y0117665D02*
X0147298Y0117665D01*
X0147298Y0116866D02*
X0147482Y0116866D01*
X0149616Y0116866D02*
X0153745Y0116866D01*
X0153745Y0116068D02*
X0137395Y0116068D01*
X0132429Y0116068D02*
X0129914Y0116068D01*
X0129914Y0115700D02*
X0129914Y0121561D01*
X0129652Y0121823D01*
X0130093Y0121966D01*
X0130703Y0122277D01*
X0131257Y0122680D01*
X0131742Y0123164D01*
X0132145Y0123719D01*
X0132456Y0124329D01*
X0132667Y0124981D01*
X0132765Y0125600D01*
X0128822Y0125600D01*
X0128822Y0126400D01*
X0132765Y0126400D01*
X0132667Y0127019D01*
X0132456Y0127671D01*
X0132145Y0128281D01*
X0131913Y0128600D01*
X0134866Y0128600D01*
X0134732Y0128466D01*
X0134069Y0126866D01*
X0134069Y0125134D01*
X0134732Y0123534D01*
X0135885Y0122381D01*
X0133249Y0122381D01*
X0132429Y0121561D01*
X0132429Y0115700D01*
X0129914Y0115700D01*
X0129914Y0116866D02*
X0132429Y0116866D01*
X0132429Y0117665D02*
X0129914Y0117665D01*
X0129914Y0118463D02*
X0132429Y0118463D01*
X0132429Y0119262D02*
X0129914Y0119262D01*
X0129914Y0120060D02*
X0132429Y0120060D01*
X0132429Y0120859D02*
X0129914Y0120859D01*
X0129818Y0121657D02*
X0132526Y0121657D01*
X0131807Y0123254D02*
X0135012Y0123254D01*
X0134517Y0124053D02*
X0132315Y0124053D01*
X0132625Y0124851D02*
X0134186Y0124851D01*
X0134069Y0125650D02*
X0128822Y0125650D01*
X0128022Y0125650D02*
X0122774Y0125650D01*
X0122774Y0126448D02*
X0124086Y0126448D01*
X0124250Y0127247D02*
X0122617Y0127247D01*
X0122286Y0128045D02*
X0124579Y0128045D01*
X0124218Y0124851D02*
X0122657Y0124851D01*
X0122326Y0124053D02*
X0124529Y0124053D01*
X0125036Y0123254D02*
X0121832Y0123254D01*
X0121033Y0122456D02*
X0125895Y0122456D01*
X0125045Y0121657D02*
X0119311Y0121657D01*
X0117532Y0121657D02*
X0082322Y0121657D01*
X0082322Y0120859D02*
X0124949Y0120859D01*
X0124949Y0120060D02*
X0082322Y0120060D01*
X0082322Y0119262D02*
X0124949Y0119262D01*
X0124949Y0118463D02*
X0082322Y0118463D01*
X0082322Y0117665D02*
X0124949Y0117665D01*
X0124949Y0116866D02*
X0082322Y0116866D01*
X0082322Y0116068D02*
X0122826Y0116068D01*
X0124017Y0116068D02*
X0124949Y0116068D01*
X0121514Y0115269D02*
X0082322Y0115269D01*
X0082322Y0114470D02*
X0121010Y0114470D01*
X0120822Y0113672D02*
X0082322Y0113672D01*
X0082322Y0112873D02*
X0120867Y0112873D01*
X0121198Y0112075D02*
X0082322Y0112075D01*
X0082322Y0111276D02*
X0121996Y0111276D01*
X0124848Y0111276D02*
X0124949Y0111276D01*
X0124949Y0110478D02*
X0082322Y0110478D01*
X0082322Y0109679D02*
X0117914Y0109679D01*
X0117116Y0108881D02*
X0082322Y0108881D01*
X0082322Y0108082D02*
X0116317Y0108082D01*
X0115519Y0107284D02*
X0082322Y0107284D01*
X0082322Y0106485D02*
X0114720Y0106485D01*
X0113922Y0105687D02*
X0082322Y0105687D01*
X0082322Y0104888D02*
X0109894Y0104888D01*
X0108835Y0104090D02*
X0082322Y0104090D01*
X0082322Y0103291D02*
X0108435Y0103291D01*
X0108322Y0102493D02*
X0082322Y0102493D01*
X0082322Y0101694D02*
X0108441Y0101694D01*
X0108849Y0100896D02*
X0082322Y0100896D01*
X0082322Y0100097D02*
X0109928Y0100097D01*
X0111012Y0099299D02*
X0082322Y0099299D01*
X0082322Y0098500D02*
X0111810Y0098500D01*
X0112609Y0097702D02*
X0082322Y0097702D01*
X0082322Y0096903D02*
X0113407Y0096903D01*
X0114206Y0096105D02*
X0082322Y0096105D01*
X0082322Y0095306D02*
X0161155Y0095306D01*
X0160377Y0094508D02*
X0082322Y0094508D01*
X0082322Y0093709D02*
X0159600Y0093709D01*
X0158822Y0092911D02*
X0082322Y0092911D01*
X0082322Y0092112D02*
X0158045Y0092112D01*
X0157267Y0091314D02*
X0082322Y0091314D01*
X0082322Y0090515D02*
X0156490Y0090515D01*
X0155712Y0089717D02*
X0121703Y0089717D01*
X0122746Y0088918D02*
X0154935Y0088918D01*
X0154157Y0088120D02*
X0123205Y0088120D01*
X0123422Y0087321D02*
X0153380Y0087321D01*
X0152602Y0086523D02*
X0123422Y0086523D01*
X0123422Y0085724D02*
X0151825Y0085724D01*
X0151048Y0084926D02*
X0123422Y0084926D01*
X0123422Y0084127D02*
X0150270Y0084127D01*
X0149493Y0083329D02*
X0123836Y0083329D01*
X0124634Y0082530D02*
X0148715Y0082530D01*
X0147938Y0081732D02*
X0125433Y0081732D01*
X0126231Y0080933D02*
X0147160Y0080933D01*
X0146383Y0080134D02*
X0127030Y0080134D01*
X0127828Y0079336D02*
X0145605Y0079336D01*
X0144828Y0078537D02*
X0128627Y0078537D01*
X0129425Y0077739D02*
X0144050Y0077739D01*
X0143273Y0076940D02*
X0130224Y0076940D01*
X0131022Y0076142D02*
X0142495Y0076142D01*
X0141718Y0075343D02*
X0131821Y0075343D01*
X0132619Y0074545D02*
X0141114Y0074545D01*
X0141122Y0073746D02*
X0133418Y0073746D01*
X0134216Y0072948D02*
X0141122Y0072948D01*
X0141122Y0072149D02*
X0135015Y0072149D01*
X0135813Y0071351D02*
X0141122Y0071351D01*
X0142922Y0071351D02*
X0217422Y0071351D01*
X0217422Y0072149D02*
X0142922Y0072149D01*
X0142922Y0072948D02*
X0217422Y0072948D01*
X0217422Y0073746D02*
X0142922Y0073746D01*
X0142922Y0074000D02*
X0169753Y0101557D01*
X0169982Y0101557D01*
X0170802Y0102377D01*
X0170802Y0102634D01*
X0179922Y0112000D01*
X0179922Y0120389D01*
X0182033Y0122500D01*
X0215310Y0122500D01*
X0217422Y0120389D01*
X0217422Y0069639D01*
X0216746Y0068008D01*
X0216746Y0064945D01*
X0217422Y0063314D01*
X0217422Y0046400D01*
X0208034Y0046400D01*
X0208745Y0047111D01*
X0209522Y0048986D01*
X0209522Y0051014D01*
X0208745Y0052889D01*
X0207311Y0054324D01*
X0205436Y0055100D01*
X0203407Y0055100D01*
X0201533Y0054324D01*
X0200098Y0052889D01*
X0199422Y0051256D01*
X0198745Y0052889D01*
X0197311Y0054324D01*
X0195436Y0055100D01*
X0193407Y0055100D01*
X0191533Y0054324D01*
X0190098Y0052889D01*
X0189422Y0051256D01*
X0188745Y0052889D01*
X0187311Y0054324D01*
X0185436Y0055100D01*
X0183407Y0055100D01*
X0181533Y0054324D01*
X0180098Y0052889D01*
X0179522Y0051497D01*
X0179522Y0054280D01*
X0178702Y0055100D01*
X0170142Y0055100D01*
X0169322Y0054280D01*
X0169322Y0046400D01*
X0148452Y0046400D01*
X0148788Y0046644D01*
X0149278Y0047134D01*
X0149685Y0047694D01*
X0149999Y0048311D01*
X0150213Y0048970D01*
X0150322Y0049654D01*
X0150322Y0049675D01*
X0146247Y0049675D01*
X0146247Y0050325D01*
X0150322Y0050325D01*
X0150322Y0050346D01*
X0150213Y0051030D01*
X0149999Y0051689D01*
X0149685Y0052306D01*
X0149278Y0052866D01*
X0148788Y0053356D01*
X0148228Y0053763D01*
X0147611Y0054078D01*
X0146952Y0054292D01*
X0146268Y0054400D01*
X0146247Y0054400D01*
X0146247Y0050325D01*
X0145597Y0050325D01*
X0145597Y0050695D01*
X0145822Y0050920D01*
X0145822Y0053080D01*
X0145597Y0053305D01*
X0145597Y0054400D01*
X0145575Y0054400D01*
X0144891Y0054292D01*
X0144233Y0054078D01*
X0143884Y0053900D01*
X0143004Y0053900D01*
X0142922Y0053934D01*
X0142922Y0074000D01*
X0143452Y0074545D02*
X0217422Y0074545D01*
X0217422Y0075343D02*
X0144230Y0075343D01*
X0145007Y0076142D02*
X0217422Y0076142D01*
X0217422Y0076940D02*
X0145785Y0076940D01*
X0146562Y0077739D02*
X0217422Y0077739D01*
X0217422Y0078537D02*
X0147340Y0078537D01*
X0148117Y0079336D02*
X0217422Y0079336D01*
X0217422Y0080134D02*
X0148895Y0080134D01*
X0149672Y0080933D02*
X0217422Y0080933D01*
X0217422Y0081732D02*
X0215739Y0081732D01*
X0215895Y0081796D02*
X0216626Y0082527D01*
X0217022Y0083483D01*
X0217022Y0084517D01*
X0216626Y0085473D01*
X0215895Y0086204D01*
X0214939Y0086600D01*
X0213905Y0086600D01*
X0212949Y0086204D01*
X0212945Y0086200D01*
X0184899Y0086200D01*
X0184895Y0086204D01*
X0183939Y0086600D01*
X0182905Y0086600D01*
X0181949Y0086204D01*
X0181218Y0085473D01*
X0180822Y0084517D01*
X0180822Y0083483D01*
X0181218Y0082527D01*
X0181949Y0081796D01*
X0182905Y0081400D01*
X0183939Y0081400D01*
X0184895Y0081796D01*
X0184899Y0081800D01*
X0212945Y0081800D01*
X0212949Y0081796D01*
X0213905Y0081400D01*
X0214939Y0081400D01*
X0215895Y0081796D01*
X0216627Y0082530D02*
X0217422Y0082530D01*
X0217422Y0083329D02*
X0216958Y0083329D01*
X0217022Y0084127D02*
X0217422Y0084127D01*
X0217422Y0084926D02*
X0216853Y0084926D01*
X0216375Y0085724D02*
X0217422Y0085724D01*
X0217422Y0086523D02*
X0215126Y0086523D01*
X0213718Y0086523D02*
X0184126Y0086523D01*
X0182718Y0086523D02*
X0155115Y0086523D01*
X0155892Y0087321D02*
X0217422Y0087321D01*
X0217422Y0088120D02*
X0156670Y0088120D01*
X0157447Y0088918D02*
X0217422Y0088918D01*
X0217422Y0089717D02*
X0158225Y0089717D01*
X0159002Y0090515D02*
X0217422Y0090515D01*
X0217422Y0091314D02*
X0159780Y0091314D01*
X0160557Y0092112D02*
X0217422Y0092112D01*
X0217422Y0092911D02*
X0161335Y0092911D01*
X0162112Y0093709D02*
X0217422Y0093709D01*
X0217422Y0094508D02*
X0162890Y0094508D01*
X0163667Y0095306D02*
X0217422Y0095306D01*
X0217422Y0096105D02*
X0164445Y0096105D01*
X0165222Y0096903D02*
X0217422Y0096903D01*
X0217422Y0097702D02*
X0166000Y0097702D01*
X0166777Y0098500D02*
X0217422Y0098500D01*
X0217422Y0099299D02*
X0167555Y0099299D01*
X0168332Y0100097D02*
X0217422Y0100097D01*
X0217422Y0100896D02*
X0169110Y0100896D01*
X0170120Y0101694D02*
X0217422Y0101694D01*
X0217422Y0102493D02*
X0170802Y0102493D01*
X0171442Y0103291D02*
X0217422Y0103291D01*
X0217422Y0104090D02*
X0172220Y0104090D01*
X0172997Y0104888D02*
X0217422Y0104888D01*
X0217422Y0105687D02*
X0173775Y0105687D01*
X0174552Y0106485D02*
X0217422Y0106485D01*
X0217422Y0107284D02*
X0175330Y0107284D01*
X0176107Y0108082D02*
X0217422Y0108082D01*
X0217422Y0108881D02*
X0176885Y0108881D01*
X0177662Y0109679D02*
X0217422Y0109679D01*
X0217422Y0110478D02*
X0178440Y0110478D01*
X0179217Y0111276D02*
X0217422Y0111276D01*
X0217422Y0112075D02*
X0179922Y0112075D01*
X0179922Y0112873D02*
X0217422Y0112873D01*
X0217422Y0113672D02*
X0179922Y0113672D01*
X0179922Y0114470D02*
X0217422Y0114470D01*
X0217422Y0115269D02*
X0179922Y0115269D01*
X0179922Y0116068D02*
X0217422Y0116068D01*
X0217422Y0116866D02*
X0179922Y0116866D01*
X0179922Y0117665D02*
X0217422Y0117665D01*
X0217422Y0118463D02*
X0179922Y0118463D01*
X0179922Y0119262D02*
X0217422Y0119262D01*
X0217422Y0120060D02*
X0179922Y0120060D01*
X0180392Y0120859D02*
X0216952Y0120859D01*
X0216153Y0121657D02*
X0181190Y0121657D01*
X0181989Y0122456D02*
X0215355Y0122456D01*
X0175797Y0126448D02*
X0174057Y0126448D01*
X0174855Y0127247D02*
X0175127Y0127247D01*
X0164200Y0122456D02*
X0162643Y0122456D01*
X0163257Y0121657D02*
X0163392Y0121657D01*
X0159200Y0122456D02*
X0151033Y0122456D01*
X0149311Y0121657D02*
X0158587Y0121657D01*
X0158322Y0120859D02*
X0148655Y0120859D01*
X0147482Y0120859D02*
X0147298Y0120859D01*
X0147298Y0120060D02*
X0147482Y0120060D01*
X0147482Y0119262D02*
X0147298Y0119262D01*
X0147190Y0121657D02*
X0147532Y0121657D01*
X0149774Y0117665D02*
X0153745Y0117665D01*
X0157026Y0119262D02*
X0157154Y0119262D01*
X0153745Y0115269D02*
X0152264Y0115269D01*
X0153063Y0114470D02*
X0153745Y0114470D01*
X0150034Y0111276D02*
X0141220Y0111276D01*
X0142121Y0110478D02*
X0150833Y0110478D01*
X0151631Y0109679D02*
X0142455Y0109679D01*
X0143152Y0108881D02*
X0152430Y0108881D01*
X0153041Y0108082D02*
X0143951Y0108082D01*
X0144749Y0107284D02*
X0153041Y0107284D01*
X0153041Y0106485D02*
X0145548Y0106485D01*
X0146346Y0105687D02*
X0153041Y0105687D01*
X0153041Y0104888D02*
X0147145Y0104888D01*
X0147943Y0104090D02*
X0153041Y0104090D01*
X0153041Y0103291D02*
X0148122Y0103291D01*
X0148122Y0102493D02*
X0153041Y0102493D01*
X0153724Y0101694D02*
X0148122Y0101694D01*
X0148122Y0100896D02*
X0166597Y0100896D01*
X0165820Y0100097D02*
X0148122Y0100097D01*
X0148122Y0099299D02*
X0165042Y0099299D01*
X0164265Y0098500D02*
X0147533Y0098500D01*
X0146735Y0097702D02*
X0163487Y0097702D01*
X0162710Y0096903D02*
X0145936Y0096903D01*
X0145138Y0096105D02*
X0161932Y0096105D01*
X0164748Y0101694D02*
X0159096Y0101694D01*
X0159778Y0102493D02*
X0164065Y0102493D01*
X0164065Y0103291D02*
X0159778Y0103291D01*
X0159778Y0104090D02*
X0164065Y0104090D01*
X0164065Y0104888D02*
X0159778Y0104888D01*
X0159778Y0105687D02*
X0164065Y0105687D01*
X0164065Y0106485D02*
X0159778Y0106485D01*
X0159778Y0107284D02*
X0164065Y0107284D01*
X0164065Y0108082D02*
X0159778Y0108082D01*
X0159778Y0108881D02*
X0164065Y0108881D01*
X0164065Y0109679D02*
X0159778Y0109679D01*
X0159778Y0110478D02*
X0164065Y0110478D01*
X0164718Y0111276D02*
X0159125Y0111276D01*
X0170149Y0111276D02*
X0172587Y0111276D01*
X0171788Y0110478D02*
X0170802Y0110478D01*
X0170802Y0109679D02*
X0170990Y0109679D01*
X0143722Y0102089D02*
X0143722Y0100911D01*
X0143010Y0100200D01*
X0116333Y0100200D01*
X0115071Y0101462D01*
X0120090Y0106481D01*
X0124949Y0106481D01*
X0124949Y0105439D01*
X0124990Y0105398D01*
X0124990Y0105048D01*
X0124922Y0104980D01*
X0124797Y0105105D01*
X0124478Y0105289D01*
X0124122Y0105384D01*
X0123045Y0105384D01*
X0123045Y0103092D01*
X0122861Y0103092D01*
X0122861Y0102908D01*
X0120569Y0102908D01*
X0120569Y0101831D01*
X0120664Y0101475D01*
X0120849Y0101156D01*
X0121109Y0100895D01*
X0121429Y0100711D01*
X0121785Y0100616D01*
X0122861Y0100616D01*
X0122861Y0102908D01*
X0123045Y0102908D01*
X0123045Y0100616D01*
X0124122Y0100616D01*
X0124478Y0100711D01*
X0124797Y0100895D01*
X0124922Y0101020D01*
X0125326Y0100616D01*
X0128454Y0100616D01*
X0129274Y0101436D01*
X0129274Y0104564D01*
X0129157Y0104682D01*
X0129321Y0104846D01*
X0129549Y0104715D01*
X0129905Y0104619D01*
X0131030Y0104619D01*
X0131030Y0108240D01*
X0131313Y0108240D01*
X0131313Y0104619D01*
X0132439Y0104619D01*
X0132795Y0104715D01*
X0133022Y0104846D01*
X0133187Y0104682D01*
X0133069Y0104564D01*
X0133069Y0101436D01*
X0133889Y0100616D01*
X0137017Y0100616D01*
X0137422Y0101020D01*
X0137546Y0100895D01*
X0137866Y0100711D01*
X0138222Y0100616D01*
X0139298Y0100616D01*
X0139298Y0102908D01*
X0139482Y0102908D01*
X0139482Y0100616D01*
X0140559Y0100616D01*
X0140915Y0100711D01*
X0141234Y0100895D01*
X0141495Y0101156D01*
X0141679Y0101475D01*
X0141774Y0101831D01*
X0141774Y0102908D01*
X0139482Y0102908D01*
X0139482Y0103092D01*
X0139298Y0103092D01*
X0139298Y0105384D01*
X0138222Y0105384D01*
X0137866Y0105289D01*
X0137546Y0105105D01*
X0137422Y0104980D01*
X0137353Y0105048D01*
X0137353Y0105398D01*
X0137395Y0105439D01*
X0137395Y0107100D01*
X0138145Y0107100D01*
X0138449Y0106796D01*
X0139405Y0106400D01*
X0139410Y0106400D01*
X0140426Y0105384D01*
X0139482Y0105384D01*
X0139482Y0103092D01*
X0141774Y0103092D01*
X0141774Y0104036D01*
X0143722Y0102089D01*
X0143722Y0101694D02*
X0141738Y0101694D01*
X0141774Y0102493D02*
X0143318Y0102493D01*
X0142519Y0103291D02*
X0141774Y0103291D01*
X0139482Y0103291D02*
X0139298Y0103291D01*
X0139298Y0102493D02*
X0139482Y0102493D01*
X0139482Y0101694D02*
X0139298Y0101694D01*
X0139298Y0100896D02*
X0139482Y0100896D01*
X0141234Y0100896D02*
X0143706Y0100896D01*
X0139482Y0104090D02*
X0139298Y0104090D01*
X0139298Y0104888D02*
X0139482Y0104888D01*
X0140124Y0105687D02*
X0137395Y0105687D01*
X0137395Y0106485D02*
X0139198Y0106485D01*
X0137546Y0100896D02*
X0137297Y0100896D01*
X0133609Y0100896D02*
X0128734Y0100896D01*
X0129274Y0101694D02*
X0133069Y0101694D01*
X0133069Y0102493D02*
X0129274Y0102493D01*
X0129274Y0103291D02*
X0133069Y0103291D01*
X0133069Y0104090D02*
X0129274Y0104090D01*
X0131030Y0104888D02*
X0131313Y0104888D01*
X0131313Y0105687D02*
X0131030Y0105687D01*
X0131030Y0106485D02*
X0131313Y0106485D01*
X0131313Y0107284D02*
X0131030Y0107284D01*
X0131030Y0108082D02*
X0131313Y0108082D01*
X0124949Y0105687D02*
X0119296Y0105687D01*
X0118497Y0104888D02*
X0120893Y0104888D01*
X0120849Y0104844D02*
X0120664Y0104525D01*
X0120569Y0104169D01*
X0120569Y0103092D01*
X0122861Y0103092D01*
X0122861Y0105384D01*
X0121785Y0105384D01*
X0121429Y0105289D01*
X0121109Y0105105D01*
X0120849Y0104844D01*
X0120569Y0104090D02*
X0117699Y0104090D01*
X0116900Y0103291D02*
X0120569Y0103291D01*
X0120569Y0102493D02*
X0116102Y0102493D01*
X0115303Y0101694D02*
X0120606Y0101694D01*
X0121109Y0100896D02*
X0115637Y0100896D01*
X0113123Y0104888D02*
X0111950Y0104888D01*
X0122861Y0104888D02*
X0123045Y0104888D01*
X0123045Y0104090D02*
X0122861Y0104090D01*
X0122861Y0103291D02*
X0123045Y0103291D01*
X0123045Y0102493D02*
X0122861Y0102493D01*
X0122861Y0101694D02*
X0123045Y0101694D01*
X0123045Y0100896D02*
X0122861Y0100896D01*
X0124797Y0100896D02*
X0125046Y0100896D01*
X0119141Y0089717D02*
X0082322Y0089717D01*
X0082322Y0088918D02*
X0118097Y0088918D01*
X0117638Y0088120D02*
X0082322Y0088120D01*
X0082322Y0087321D02*
X0117422Y0087321D01*
X0117422Y0086523D02*
X0082322Y0086523D01*
X0082322Y0085724D02*
X0117422Y0085724D01*
X0117422Y0084926D02*
X0082322Y0084926D01*
X0082322Y0084127D02*
X0117422Y0084127D01*
X0117422Y0083329D02*
X0082322Y0083329D01*
X0082322Y0082530D02*
X0117422Y0082530D01*
X0117493Y0081732D02*
X0082322Y0081732D01*
X0082322Y0080933D02*
X0117824Y0080933D01*
X0118545Y0080134D02*
X0082322Y0080134D01*
X0082322Y0079336D02*
X0119343Y0079336D01*
X0120142Y0078537D02*
X0082322Y0078537D01*
X0082322Y0077739D02*
X0120940Y0077739D01*
X0121739Y0076940D02*
X0082322Y0076940D01*
X0082322Y0076142D02*
X0122537Y0076142D01*
X0123336Y0075343D02*
X0082322Y0075343D01*
X0082322Y0074545D02*
X0124134Y0074545D01*
X0124933Y0073746D02*
X0104966Y0073746D01*
X0103930Y0074176D02*
X0100867Y0074176D01*
X0098037Y0073003D01*
X0095871Y0070838D01*
X0094699Y0068008D01*
X0094699Y0064945D01*
X0095871Y0062115D01*
X0098037Y0059949D01*
X0100867Y0058777D01*
X0103930Y0058777D01*
X0106759Y0059949D01*
X0108925Y0062115D01*
X0110097Y0064945D01*
X0110097Y0068008D01*
X0108925Y0070838D01*
X0106759Y0073003D01*
X0103930Y0074176D01*
X0106815Y0072948D02*
X0125731Y0072948D01*
X0126530Y0072149D02*
X0107613Y0072149D01*
X0108412Y0071351D02*
X0127328Y0071351D01*
X0128127Y0070552D02*
X0109043Y0070552D01*
X0109374Y0069754D02*
X0128925Y0069754D01*
X0129724Y0068955D02*
X0109705Y0068955D01*
X0110036Y0068157D02*
X0130522Y0068157D01*
X0131321Y0067358D02*
X0110097Y0067358D01*
X0110097Y0066560D02*
X0132119Y0066560D01*
X0132918Y0065761D02*
X0110097Y0065761D01*
X0110097Y0064963D02*
X0141122Y0064963D01*
X0141122Y0064164D02*
X0109774Y0064164D01*
X0109443Y0063366D02*
X0141122Y0063366D01*
X0141122Y0062567D02*
X0138384Y0062567D01*
X0138422Y0061769D02*
X0141122Y0061769D01*
X0141122Y0060970D02*
X0138422Y0060970D01*
X0138422Y0060172D02*
X0141122Y0060172D01*
X0141122Y0059373D02*
X0138422Y0059373D01*
X0138422Y0058575D02*
X0141122Y0058575D01*
X0141122Y0057776D02*
X0138422Y0057776D01*
X0138422Y0056978D02*
X0141122Y0056978D01*
X0141122Y0056179D02*
X0138422Y0056179D01*
X0138422Y0055381D02*
X0141122Y0055381D01*
X0141122Y0054582D02*
X0138422Y0054582D01*
X0138422Y0053784D02*
X0138656Y0053784D01*
X0140597Y0053784D02*
X0141122Y0053784D01*
X0141022Y0052985D02*
X0140597Y0052985D01*
X0140597Y0052187D02*
X0141022Y0052187D01*
X0141022Y0051388D02*
X0140597Y0051388D01*
X0140597Y0050590D02*
X0141122Y0050590D01*
X0140597Y0049791D02*
X0093111Y0049791D01*
X0093909Y0048993D02*
X0136626Y0048993D01*
X0136904Y0048194D02*
X0094708Y0048194D01*
X0095506Y0047396D02*
X0137375Y0047396D01*
X0138120Y0046597D02*
X0096305Y0046597D01*
X0092312Y0050590D02*
X0136560Y0050590D01*
X0136746Y0051388D02*
X0091514Y0051388D01*
X0090715Y0052187D02*
X0137098Y0052187D01*
X0142922Y0054582D02*
X0148479Y0054582D01*
X0148588Y0054432D02*
X0149189Y0053831D01*
X0149877Y0053332D01*
X0150634Y0052946D01*
X0151442Y0052683D01*
X0152282Y0052550D01*
X0152307Y0052550D01*
X0152307Y0057550D01*
X0153107Y0057550D01*
X0153107Y0058350D01*
X0158107Y0058350D01*
X0158107Y0058375D01*
X0157974Y0059215D01*
X0157711Y0060023D01*
X0157325Y0060780D01*
X0156826Y0061468D01*
X0156225Y0062069D01*
X0155537Y0062568D01*
X0154780Y0062954D01*
X0153971Y0063217D01*
X0153132Y0063350D01*
X0153107Y0063350D01*
X0153107Y0058350D01*
X0152307Y0058350D01*
X0152307Y0063350D01*
X0152282Y0063350D01*
X0151442Y0063217D01*
X0150634Y0062954D01*
X0149877Y0062568D01*
X0149189Y0062069D01*
X0148588Y0061468D01*
X0148088Y0060780D01*
X0147702Y0060023D01*
X0147440Y0059215D01*
X0147307Y0058375D01*
X0147307Y0058350D01*
X0152307Y0058350D01*
X0152307Y0057550D01*
X0147307Y0057550D01*
X0147307Y0057525D01*
X0147440Y0056685D01*
X0147702Y0055877D01*
X0148088Y0055120D01*
X0148588Y0054432D01*
X0148188Y0053784D02*
X0149254Y0053784D01*
X0149159Y0052985D02*
X0150556Y0052985D01*
X0149746Y0052187D02*
X0169322Y0052187D01*
X0169322Y0052985D02*
X0154857Y0052985D01*
X0154780Y0052946D02*
X0155537Y0053332D01*
X0156225Y0053831D01*
X0156826Y0054432D01*
X0157325Y0055120D01*
X0157711Y0055877D01*
X0157974Y0056685D01*
X0158107Y0057525D01*
X0158107Y0057550D01*
X0153107Y0057550D01*
X0153107Y0052550D01*
X0153132Y0052550D01*
X0153971Y0052683D01*
X0154780Y0052946D01*
X0156159Y0053784D02*
X0169322Y0053784D01*
X0169624Y0054582D02*
X0156935Y0054582D01*
X0157458Y0055381D02*
X0217422Y0055381D01*
X0217422Y0056179D02*
X0157809Y0056179D01*
X0158020Y0056978D02*
X0217422Y0056978D01*
X0217422Y0057776D02*
X0153107Y0057776D01*
X0153107Y0056978D02*
X0152307Y0056978D01*
X0152307Y0057776D02*
X0142922Y0057776D01*
X0142922Y0056978D02*
X0147393Y0056978D01*
X0147604Y0056179D02*
X0142922Y0056179D01*
X0142922Y0055381D02*
X0147955Y0055381D01*
X0146247Y0053784D02*
X0145597Y0053784D01*
X0145822Y0052985D02*
X0146247Y0052985D01*
X0146247Y0052187D02*
X0145822Y0052187D01*
X0145822Y0051388D02*
X0146247Y0051388D01*
X0146247Y0050590D02*
X0145597Y0050590D01*
X0146247Y0049791D02*
X0169322Y0049791D01*
X0169322Y0048993D02*
X0150217Y0048993D01*
X0149940Y0048194D02*
X0169322Y0048194D01*
X0169322Y0047396D02*
X0149468Y0047396D01*
X0148724Y0046597D02*
X0169322Y0046597D01*
X0169322Y0050590D02*
X0150283Y0050590D01*
X0150097Y0051388D02*
X0169322Y0051388D01*
X0179522Y0052187D02*
X0179807Y0052187D01*
X0179522Y0052985D02*
X0180194Y0052985D01*
X0179522Y0053784D02*
X0180993Y0053784D01*
X0182157Y0054582D02*
X0179219Y0054582D01*
X0186686Y0054582D02*
X0192157Y0054582D01*
X0190993Y0053784D02*
X0187851Y0053784D01*
X0188649Y0052985D02*
X0190194Y0052985D01*
X0189807Y0052187D02*
X0189036Y0052187D01*
X0189367Y0051388D02*
X0189477Y0051388D01*
X0196686Y0054582D02*
X0202157Y0054582D01*
X0200993Y0053784D02*
X0197851Y0053784D01*
X0198649Y0052985D02*
X0200194Y0052985D01*
X0199807Y0052187D02*
X0199036Y0052187D01*
X0199367Y0051388D02*
X0199477Y0051388D01*
X0206686Y0054582D02*
X0217422Y0054582D01*
X0217422Y0053784D02*
X0207851Y0053784D01*
X0208649Y0052985D02*
X0217422Y0052985D01*
X0217422Y0052187D02*
X0209036Y0052187D01*
X0209367Y0051388D02*
X0217422Y0051388D01*
X0217422Y0050590D02*
X0209522Y0050590D01*
X0209522Y0049791D02*
X0217422Y0049791D01*
X0217422Y0048993D02*
X0209522Y0048993D01*
X0209194Y0048194D02*
X0217422Y0048194D01*
X0217422Y0047396D02*
X0208863Y0047396D01*
X0208231Y0046597D02*
X0217422Y0046597D01*
X0217422Y0058575D02*
X0158075Y0058575D01*
X0157922Y0059373D02*
X0217422Y0059373D01*
X0217422Y0060172D02*
X0157635Y0060172D01*
X0157187Y0060970D02*
X0217422Y0060970D01*
X0217422Y0061769D02*
X0156525Y0061769D01*
X0155539Y0062567D02*
X0217422Y0062567D01*
X0217400Y0063366D02*
X0142922Y0063366D01*
X0142922Y0064164D02*
X0217070Y0064164D01*
X0216746Y0064963D02*
X0142922Y0064963D01*
X0142922Y0065761D02*
X0216746Y0065761D01*
X0216746Y0066560D02*
X0142922Y0066560D01*
X0142922Y0067358D02*
X0216746Y0067358D01*
X0216808Y0068157D02*
X0142922Y0068157D01*
X0142922Y0068955D02*
X0217139Y0068955D01*
X0217422Y0069754D02*
X0142922Y0069754D01*
X0142922Y0070552D02*
X0217422Y0070552D01*
X0213104Y0081732D02*
X0184739Y0081732D01*
X0182104Y0081732D02*
X0150450Y0081732D01*
X0151227Y0082530D02*
X0181216Y0082530D01*
X0180886Y0083329D02*
X0152005Y0083329D01*
X0152782Y0084127D02*
X0180822Y0084127D01*
X0180991Y0084926D02*
X0153560Y0084926D01*
X0154337Y0085724D02*
X0181469Y0085724D01*
X0153107Y0062567D02*
X0152307Y0062567D01*
X0152307Y0061769D02*
X0153107Y0061769D01*
X0153107Y0060970D02*
X0152307Y0060970D01*
X0152307Y0060172D02*
X0153107Y0060172D01*
X0153107Y0059373D02*
X0152307Y0059373D01*
X0152307Y0058575D02*
X0153107Y0058575D01*
X0153107Y0056179D02*
X0152307Y0056179D01*
X0152307Y0055381D02*
X0153107Y0055381D01*
X0153107Y0054582D02*
X0152307Y0054582D01*
X0152307Y0053784D02*
X0153107Y0053784D01*
X0153107Y0052985D02*
X0152307Y0052985D01*
X0147338Y0058575D02*
X0142922Y0058575D01*
X0142922Y0059373D02*
X0147491Y0059373D01*
X0147778Y0060172D02*
X0142922Y0060172D01*
X0142922Y0060970D02*
X0148226Y0060970D01*
X0148889Y0061769D02*
X0142922Y0061769D01*
X0142922Y0062567D02*
X0149875Y0062567D01*
X0127659Y0062567D02*
X0109112Y0062567D01*
X0108579Y0061769D02*
X0127622Y0061769D01*
X0127622Y0060970D02*
X0107780Y0060970D01*
X0106982Y0060172D02*
X0127622Y0060172D01*
X0127622Y0059373D02*
X0105369Y0059373D01*
X0099428Y0059373D02*
X0083528Y0059373D01*
X0082730Y0060172D02*
X0097814Y0060172D01*
X0097016Y0060970D02*
X0082322Y0060970D01*
X0082322Y0061769D02*
X0096217Y0061769D01*
X0095684Y0062567D02*
X0082322Y0062567D01*
X0082322Y0063366D02*
X0095353Y0063366D01*
X0095022Y0064164D02*
X0082322Y0064164D01*
X0082322Y0064963D02*
X0094699Y0064963D01*
X0094699Y0065761D02*
X0082322Y0065761D01*
X0082322Y0066560D02*
X0094699Y0066560D01*
X0094699Y0067358D02*
X0082322Y0067358D01*
X0082322Y0068157D02*
X0094761Y0068157D01*
X0095091Y0068955D02*
X0082322Y0068955D01*
X0082322Y0069754D02*
X0095422Y0069754D01*
X0095753Y0070552D02*
X0082322Y0070552D01*
X0082322Y0071351D02*
X0096384Y0071351D01*
X0097183Y0072149D02*
X0082322Y0072149D01*
X0082322Y0072948D02*
X0097981Y0072948D01*
X0099831Y0073746D02*
X0082322Y0073746D01*
X0084327Y0058575D02*
X0127622Y0058575D01*
X0127622Y0057776D02*
X0085125Y0057776D01*
X0085924Y0056978D02*
X0127622Y0056978D01*
X0127622Y0056179D02*
X0086722Y0056179D01*
X0087521Y0055381D02*
X0127622Y0055381D01*
X0127622Y0054582D02*
X0088319Y0054582D01*
X0089118Y0053784D02*
X0127622Y0053784D01*
X0128007Y0052985D02*
X0089917Y0052985D01*
X0082322Y0122456D02*
X0115810Y0122456D01*
X0115012Y0123254D02*
X0082322Y0123254D01*
X0082322Y0124053D02*
X0114517Y0124053D01*
X0114186Y0124851D02*
X0082322Y0124851D01*
X0082322Y0125650D02*
X0114069Y0125650D01*
X0114069Y0126448D02*
X0082322Y0126448D01*
X0082322Y0127247D02*
X0114227Y0127247D01*
X0114557Y0128045D02*
X0082322Y0128045D01*
X0082322Y0128844D02*
X0112391Y0128844D01*
X0111593Y0129642D02*
X0082322Y0129642D01*
X0082322Y0130441D02*
X0110794Y0130441D01*
X0109996Y0131239D02*
X0082322Y0131239D01*
X0082322Y0132038D02*
X0109197Y0132038D01*
X0108398Y0132836D02*
X0082322Y0132836D01*
X0082322Y0133635D02*
X0107600Y0133635D01*
X0106801Y0134433D02*
X0082322Y0134433D01*
X0082322Y0135232D02*
X0106003Y0135232D01*
X0105204Y0136030D02*
X0082322Y0136030D01*
X0082322Y0136829D02*
X0104406Y0136829D01*
X0102617Y0137627D02*
X0082322Y0137627D01*
X0082322Y0138426D02*
X0102052Y0138426D01*
X0101822Y0139224D02*
X0082322Y0139224D01*
X0082322Y0140023D02*
X0101824Y0140023D01*
X0102155Y0140821D02*
X0082322Y0140821D01*
X0082322Y0141620D02*
X0102522Y0141620D01*
X0102522Y0142418D02*
X0082322Y0142418D01*
X0082322Y0143217D02*
X0102522Y0143217D01*
X0102522Y0144015D02*
X0082322Y0144015D01*
X0082322Y0144814D02*
X0102522Y0144814D01*
X0102522Y0145612D02*
X0082322Y0145612D01*
X0082322Y0146411D02*
X0102522Y0146411D01*
X0102522Y0147209D02*
X0082322Y0147209D01*
X0082322Y0148008D02*
X0102522Y0148008D01*
X0102522Y0148806D02*
X0082322Y0148806D01*
X0082322Y0149605D02*
X0102522Y0149605D01*
X0102522Y0150403D02*
X0098947Y0150403D01*
X0098939Y0150400D02*
X0099895Y0150796D01*
X0100626Y0151527D01*
X0101022Y0152483D01*
X0101022Y0153517D01*
X0100626Y0154473D01*
X0099895Y0155204D01*
X0099713Y0155279D01*
X0098822Y0158201D01*
X0098822Y0158704D01*
X0098759Y0158767D01*
X0098759Y0160816D01*
X0097939Y0161636D01*
X0094023Y0161636D01*
X0093405Y0161019D01*
X0093361Y0161096D01*
X0093100Y0161356D01*
X0092781Y0161541D01*
X0092425Y0161636D01*
X0091152Y0161636D01*
X0091152Y0159147D01*
X0090574Y0159147D01*
X0090574Y0158569D01*
X0088085Y0158569D01*
X0088085Y0157296D01*
X0088180Y0156940D01*
X0088364Y0156621D01*
X0088625Y0156360D01*
X0088944Y0156176D01*
X0089300Y0156080D01*
X0089520Y0156080D01*
X0089463Y0155865D01*
X0089463Y0154500D01*
X0089463Y0153135D01*
X0089558Y0152779D01*
X0089742Y0152459D01*
X0090003Y0152199D01*
X0090322Y0152014D01*
X0090678Y0151919D01*
X0091650Y0151919D01*
X0091650Y0154500D01*
X0091650Y0154500D01*
X0089463Y0154500D01*
X0091650Y0154500D01*
X0091650Y0154500D01*
X0091650Y0151919D01*
X0092622Y0151919D01*
X0092978Y0152014D01*
X0093297Y0152199D01*
X0093422Y0152323D01*
X0093826Y0151919D01*
X0096055Y0151919D01*
X0096218Y0151527D01*
X0096949Y0150796D01*
X0097905Y0150400D01*
X0098939Y0150400D01*
X0097896Y0150403D02*
X0082322Y0150403D01*
X0082322Y0151202D02*
X0096543Y0151202D01*
X0093744Y0152001D02*
X0092926Y0152001D01*
X0091650Y0152001D02*
X0091650Y0152001D01*
X0091650Y0152799D02*
X0091650Y0152799D01*
X0091650Y0153598D02*
X0091650Y0153598D01*
X0091650Y0154396D02*
X0091650Y0154396D01*
X0089463Y0154396D02*
X0082322Y0154396D01*
X0082322Y0153598D02*
X0089463Y0153598D01*
X0089553Y0152799D02*
X0082322Y0152799D01*
X0082322Y0152001D02*
X0090374Y0152001D01*
X0089463Y0155195D02*
X0082322Y0155195D01*
X0082322Y0155993D02*
X0089497Y0155993D01*
X0088266Y0156792D02*
X0082322Y0156792D01*
X0082322Y0157590D02*
X0088085Y0157590D01*
X0088085Y0158389D02*
X0082322Y0158389D01*
X0082322Y0159187D02*
X0088085Y0159187D01*
X0088085Y0159147D02*
X0090574Y0159147D01*
X0090574Y0161636D01*
X0089300Y0161636D01*
X0088944Y0161541D01*
X0088625Y0161356D01*
X0088364Y0161096D01*
X0088180Y0160777D01*
X0088085Y0160421D01*
X0088085Y0159147D01*
X0088085Y0159986D02*
X0082322Y0159986D01*
X0082322Y0160784D02*
X0088184Y0160784D01*
X0089101Y0161583D02*
X0082322Y0161583D01*
X0082322Y0162381D02*
X0101864Y0162381D01*
X0102522Y0161583D02*
X0097992Y0161583D01*
X0098759Y0160784D02*
X0102522Y0160784D01*
X0102522Y0159986D02*
X0098759Y0159986D01*
X0098759Y0159187D02*
X0102522Y0159187D01*
X0102522Y0158389D02*
X0098822Y0158389D01*
X0099008Y0157590D02*
X0102522Y0157590D01*
X0102522Y0156792D02*
X0099252Y0156792D01*
X0099495Y0155993D02*
X0102522Y0155993D01*
X0102522Y0155195D02*
X0099904Y0155195D01*
X0100658Y0154396D02*
X0102522Y0154396D01*
X0102522Y0153598D02*
X0100988Y0153598D01*
X0101022Y0152799D02*
X0102522Y0152799D01*
X0102522Y0152001D02*
X0100822Y0152001D01*
X0100301Y0151202D02*
X0102522Y0151202D01*
X0106322Y0151202D02*
X0133022Y0151202D01*
X0133022Y0150403D02*
X0106322Y0150403D01*
X0106322Y0149605D02*
X0115871Y0149605D01*
X0115956Y0149690D02*
X0114732Y0148466D01*
X0114069Y0146866D01*
X0114069Y0145134D01*
X0114732Y0143534D01*
X0115956Y0142310D01*
X0117556Y0141647D01*
X0119288Y0141647D01*
X0120887Y0142310D01*
X0122112Y0143534D01*
X0122774Y0145134D01*
X0122774Y0146866D01*
X0122112Y0148466D01*
X0120887Y0149690D01*
X0119288Y0150353D01*
X0117556Y0150353D01*
X0115956Y0149690D01*
X0115072Y0148806D02*
X0106322Y0148806D01*
X0106322Y0148008D02*
X0114542Y0148008D01*
X0114211Y0147209D02*
X0106322Y0147209D01*
X0106322Y0146411D02*
X0114069Y0146411D01*
X0114069Y0145612D02*
X0106322Y0145612D01*
X0106322Y0144814D02*
X0114202Y0144814D01*
X0114532Y0144015D02*
X0106322Y0144015D01*
X0106322Y0143217D02*
X0115049Y0143217D01*
X0115848Y0142418D02*
X0106322Y0142418D01*
X0106322Y0141620D02*
X0130364Y0141620D01*
X0130322Y0140821D02*
X0106689Y0140821D01*
X0107019Y0140023D02*
X0116759Y0140023D01*
X0115490Y0139224D02*
X0107384Y0139224D01*
X0108183Y0138426D02*
X0114715Y0138426D01*
X0114384Y0137627D02*
X0108981Y0137627D01*
X0109780Y0136829D02*
X0114069Y0136829D01*
X0114069Y0136030D02*
X0110578Y0136030D01*
X0111377Y0135232D02*
X0114069Y0135232D01*
X0114359Y0134433D02*
X0112175Y0134433D01*
X0112974Y0133635D02*
X0114690Y0133635D01*
X0115430Y0132836D02*
X0113772Y0132836D01*
X0121414Y0132836D02*
X0125430Y0132836D01*
X0124760Y0133635D02*
X0122153Y0133635D01*
X0122484Y0134433D02*
X0124354Y0134433D01*
X0124136Y0135232D02*
X0122774Y0135232D01*
X0122774Y0136030D02*
X0128022Y0136030D01*
X0128022Y0136829D02*
X0128822Y0136829D01*
X0128822Y0137627D02*
X0128022Y0137627D01*
X0128022Y0138426D02*
X0128822Y0138426D01*
X0128822Y0139224D02*
X0128022Y0139224D01*
X0128022Y0140023D02*
X0128822Y0140023D01*
X0130114Y0140023D02*
X0130512Y0140023D01*
X0132040Y0138426D02*
X0132342Y0138426D01*
X0132470Y0137627D02*
X0134384Y0137627D01*
X0134069Y0136829D02*
X0132697Y0136829D01*
X0134069Y0136030D02*
X0128822Y0136030D01*
X0132707Y0135232D02*
X0134069Y0135232D01*
X0134359Y0134433D02*
X0132489Y0134433D01*
X0132084Y0133635D02*
X0134690Y0133635D01*
X0135430Y0132836D02*
X0131414Y0132836D01*
X0133501Y0138426D02*
X0134715Y0138426D01*
X0135049Y0143217D02*
X0134364Y0143217D01*
X0134532Y0144015D02*
X0132296Y0144015D01*
X0132613Y0144814D02*
X0134202Y0144814D01*
X0134069Y0145612D02*
X0128822Y0145612D01*
X0128822Y0144814D02*
X0128022Y0144814D01*
X0128022Y0145600D02*
X0128022Y0141656D01*
X0127402Y0141754D01*
X0126751Y0141966D01*
X0126140Y0142277D01*
X0125586Y0142680D01*
X0125102Y0143164D01*
X0124699Y0143719D01*
X0124388Y0144329D01*
X0124176Y0144981D01*
X0124078Y0145600D01*
X0128022Y0145600D01*
X0128022Y0145612D02*
X0122774Y0145612D01*
X0122774Y0146411D02*
X0124080Y0146411D01*
X0124238Y0147209D02*
X0122632Y0147209D01*
X0122301Y0148008D02*
X0124560Y0148008D01*
X0125080Y0148806D02*
X0121771Y0148806D01*
X0120972Y0149605D02*
X0125978Y0149605D01*
X0128022Y0149605D02*
X0128822Y0149605D01*
X0128822Y0148806D02*
X0128022Y0148806D01*
X0128022Y0148008D02*
X0128822Y0148008D01*
X0128822Y0147209D02*
X0128022Y0147209D01*
X0128022Y0146411D02*
X0128822Y0146411D01*
X0128822Y0144015D02*
X0128022Y0144015D01*
X0128022Y0143217D02*
X0128822Y0143217D01*
X0128822Y0142418D02*
X0128022Y0142418D01*
X0125946Y0142418D02*
X0120996Y0142418D01*
X0121794Y0143217D02*
X0125063Y0143217D01*
X0124548Y0144015D02*
X0122311Y0144015D01*
X0122642Y0144814D02*
X0124230Y0144814D01*
X0126729Y0140023D02*
X0120084Y0140023D01*
X0121353Y0139224D02*
X0125490Y0139224D01*
X0124804Y0138426D02*
X0122128Y0138426D01*
X0122459Y0137627D02*
X0124374Y0137627D01*
X0124146Y0136829D02*
X0122774Y0136829D01*
X0132265Y0128045D02*
X0134557Y0128045D01*
X0134227Y0127247D02*
X0132593Y0127247D01*
X0132758Y0126448D02*
X0134069Y0126448D01*
X0135810Y0122456D02*
X0130949Y0122456D01*
X0164999Y0132900D02*
X0165626Y0133527D01*
X0166022Y0134483D01*
X0166022Y0135517D01*
X0165972Y0135637D01*
X0165981Y0135637D01*
X0166765Y0135637D01*
X0167121Y0135733D01*
X0167212Y0135785D01*
X0167360Y0135637D01*
X0169720Y0135637D01*
X0169819Y0135737D01*
X0169919Y0135637D01*
X0172279Y0135637D01*
X0172557Y0135915D01*
X0172718Y0135527D01*
X0173449Y0134796D01*
X0173507Y0134772D01*
X0173022Y0134287D01*
X0171635Y0132900D01*
X0164999Y0132900D01*
X0165670Y0133635D02*
X0172370Y0133635D01*
X0173022Y0134287D02*
X0173022Y0134287D01*
X0173168Y0134433D02*
X0166001Y0134433D01*
X0166022Y0135232D02*
X0173013Y0135232D01*
X0165981Y0135637D02*
X0165981Y0138987D01*
X0165981Y0138987D01*
X0165981Y0135637D01*
X0165981Y0136030D02*
X0165981Y0136030D01*
X0165981Y0136829D02*
X0165981Y0136829D01*
X0165981Y0137627D02*
X0165981Y0137627D01*
X0165981Y0138426D02*
X0165981Y0138426D01*
X0145366Y0142900D02*
X0141477Y0142900D01*
X0142112Y0143534D01*
X0142774Y0145134D01*
X0142774Y0146866D01*
X0142112Y0148466D01*
X0140887Y0149690D01*
X0139288Y0150353D01*
X0137556Y0150353D01*
X0136990Y0150118D01*
X0136822Y0150287D01*
X0136822Y0158713D01*
X0137822Y0159713D01*
X0137822Y0161913D01*
X0138635Y0161100D01*
X0149449Y0150286D01*
X0149288Y0150353D01*
X0147556Y0150353D01*
X0145956Y0149690D01*
X0144732Y0148466D01*
X0144069Y0146866D01*
X0144069Y0145134D01*
X0144732Y0143534D01*
X0145366Y0142900D01*
X0145049Y0143217D02*
X0141794Y0143217D01*
X0142311Y0144015D02*
X0144532Y0144015D01*
X0144202Y0144814D02*
X0142642Y0144814D01*
X0142774Y0145612D02*
X0144069Y0145612D01*
X0144069Y0146411D02*
X0142774Y0146411D01*
X0142632Y0147209D02*
X0144211Y0147209D01*
X0144542Y0148008D02*
X0142301Y0148008D01*
X0141771Y0148806D02*
X0145072Y0148806D01*
X0145871Y0149605D02*
X0140972Y0149605D01*
X0136822Y0150403D02*
X0149331Y0150403D01*
X0148533Y0151202D02*
X0136822Y0151202D01*
X0136822Y0152001D02*
X0147734Y0152001D01*
X0146936Y0152799D02*
X0136822Y0152799D01*
X0136822Y0153598D02*
X0146137Y0153598D01*
X0145339Y0154396D02*
X0136822Y0154396D01*
X0136822Y0155195D02*
X0144540Y0155195D01*
X0143742Y0155993D02*
X0136822Y0155993D01*
X0136822Y0156792D02*
X0142943Y0156792D01*
X0142145Y0157590D02*
X0136822Y0157590D01*
X0136822Y0158389D02*
X0141346Y0158389D01*
X0140548Y0159187D02*
X0137296Y0159187D01*
X0137822Y0159986D02*
X0139749Y0159986D01*
X0138951Y0160784D02*
X0137822Y0160784D01*
X0137822Y0161583D02*
X0138152Y0161583D01*
X0133519Y0160784D02*
X0110315Y0160784D01*
X0109974Y0161583D02*
X0131162Y0161583D01*
X0130571Y0162381D02*
X0110003Y0162381D01*
X0110003Y0163180D02*
X0130322Y0163180D01*
X0130322Y0163978D02*
X0110003Y0163978D01*
X0109625Y0164777D02*
X0130636Y0164777D01*
X0130160Y0165575D02*
X0110003Y0165575D01*
X0110003Y0166374D02*
X0129361Y0166374D01*
X0128562Y0167172D02*
X0110003Y0167172D01*
X0109921Y0167971D02*
X0127764Y0167971D01*
X0127522Y0168769D02*
X0106839Y0168769D01*
X0106822Y0168787D02*
X0106822Y0168787D01*
X0106041Y0169568D02*
X0127522Y0169568D01*
X0127522Y0170366D02*
X0082322Y0170366D01*
X0082322Y0169568D02*
X0094161Y0169568D01*
X0091313Y0168769D02*
X0082322Y0168769D01*
X0082322Y0167971D02*
X0090644Y0167971D01*
X0090644Y0167172D02*
X0082322Y0167172D01*
X0082322Y0166374D02*
X0090644Y0166374D01*
X0090644Y0165575D02*
X0082322Y0165575D01*
X0082322Y0164777D02*
X0090644Y0164777D01*
X0090849Y0163978D02*
X0082322Y0163978D01*
X0082322Y0163180D02*
X0101154Y0163180D01*
X0100824Y0163978D02*
X0095994Y0163978D01*
X0096200Y0164777D02*
X0100822Y0164777D01*
X0101053Y0165575D02*
X0096200Y0165575D01*
X0093969Y0161583D02*
X0092625Y0161583D01*
X0091152Y0161583D02*
X0090574Y0161583D01*
X0090574Y0160784D02*
X0091152Y0160784D01*
X0091152Y0159986D02*
X0090574Y0159986D01*
X0090574Y0159187D02*
X0091152Y0159187D01*
X0106322Y0156792D02*
X0106959Y0156792D01*
X0106322Y0155993D02*
X0133022Y0155993D01*
X0133022Y0155195D02*
X0106322Y0155195D01*
X0106322Y0154396D02*
X0133022Y0154396D01*
X0133022Y0153598D02*
X0106322Y0153598D01*
X0106322Y0152799D02*
X0133022Y0152799D01*
X0133022Y0152001D02*
X0106322Y0152001D01*
X0109884Y0156792D02*
X0133022Y0156792D01*
X0133022Y0157590D02*
X0110652Y0157590D01*
X0110983Y0158389D02*
X0133022Y0158389D01*
X0133022Y0159187D02*
X0111022Y0159187D01*
X0110828Y0159986D02*
X0133022Y0159986D01*
X0133022Y0149605D02*
X0130865Y0149605D01*
X0131763Y0148806D02*
X0133022Y0148806D01*
X0133727Y0148008D02*
X0132284Y0148008D01*
X0132606Y0147209D02*
X0134211Y0147209D01*
X0134069Y0146411D02*
X0132764Y0146411D01*
X0127522Y0171165D02*
X0082322Y0171165D01*
X0082322Y0171963D02*
X0127522Y0171963D01*
X0127522Y0172762D02*
X0082322Y0172762D01*
X0082322Y0173560D02*
X0127522Y0173560D01*
X0127522Y0174359D02*
X0082322Y0174359D01*
X0082322Y0175157D02*
X0127522Y0175157D01*
X0127522Y0175956D02*
X0082322Y0175956D01*
X0082322Y0176754D02*
X0127522Y0176754D01*
X0127522Y0177553D02*
X0121152Y0177553D01*
X0121760Y0178351D02*
X0127522Y0178351D01*
X0127522Y0179150D02*
X0122022Y0179150D01*
X0122557Y0179948D02*
X0127522Y0179948D01*
X0127522Y0180747D02*
X0123356Y0180747D01*
X0124154Y0181545D02*
X0127522Y0181545D01*
X0127522Y0182344D02*
X0124953Y0182344D01*
X0125751Y0183142D02*
X0127522Y0183142D01*
X0127522Y0183941D02*
X0126550Y0183941D01*
X0127348Y0184739D02*
X0127522Y0184739D01*
X0124370Y0187135D02*
X0110097Y0187135D01*
X0110097Y0186992D02*
X0108925Y0184162D01*
X0106759Y0181997D01*
X0103930Y0180824D01*
X0100867Y0180824D01*
X0098037Y0181997D01*
X0095871Y0184162D01*
X0094699Y0186992D01*
X0094699Y0190055D01*
X0095871Y0192885D01*
X0098037Y0195051D01*
X0100867Y0196223D01*
X0103930Y0196223D01*
X0106759Y0195051D01*
X0108925Y0192885D01*
X0110097Y0190055D01*
X0110097Y0186992D01*
X0109826Y0186337D02*
X0123571Y0186337D01*
X0122773Y0185538D02*
X0109495Y0185538D01*
X0109164Y0184739D02*
X0121974Y0184739D01*
X0121176Y0183941D02*
X0108704Y0183941D01*
X0107905Y0183142D02*
X0120377Y0183142D01*
X0119579Y0182344D02*
X0107107Y0182344D01*
X0105670Y0181545D02*
X0117790Y0181545D01*
X0117124Y0180747D02*
X0082322Y0180747D01*
X0082322Y0181545D02*
X0099126Y0181545D01*
X0097689Y0182344D02*
X0082322Y0182344D01*
X0082322Y0183142D02*
X0096891Y0183142D01*
X0096092Y0183941D02*
X0082322Y0183941D01*
X0082322Y0184739D02*
X0095632Y0184739D01*
X0095301Y0185538D02*
X0082322Y0185538D01*
X0082322Y0186337D02*
X0094970Y0186337D01*
X0094699Y0187135D02*
X0082322Y0187135D01*
X0082322Y0187934D02*
X0094699Y0187934D01*
X0094699Y0188732D02*
X0082322Y0188732D01*
X0082322Y0189531D02*
X0094699Y0189531D01*
X0094812Y0190329D02*
X0082322Y0190329D01*
X0082322Y0191128D02*
X0095143Y0191128D01*
X0095474Y0191926D02*
X0082322Y0191926D01*
X0082322Y0192725D02*
X0095805Y0192725D01*
X0096509Y0193523D02*
X0082322Y0193523D01*
X0082322Y0194322D02*
X0097308Y0194322D01*
X0098205Y0195120D02*
X0083022Y0195120D01*
X0083820Y0195919D02*
X0100132Y0195919D01*
X0104664Y0195919D02*
X0123848Y0195919D01*
X0123822Y0196717D02*
X0084619Y0196717D01*
X0085417Y0197516D02*
X0124028Y0197516D01*
X0124559Y0198314D02*
X0086216Y0198314D01*
X0087014Y0199113D02*
X0126622Y0199113D01*
X0126522Y0199911D02*
X0087813Y0199911D01*
X0088611Y0200710D02*
X0126522Y0200710D01*
X0126522Y0201508D02*
X0089410Y0201508D01*
X0090208Y0202307D02*
X0115964Y0202307D01*
X0115161Y0203105D02*
X0091007Y0203105D01*
X0091805Y0203904D02*
X0114579Y0203904D01*
X0114248Y0204702D02*
X0092604Y0204702D01*
X0093402Y0205501D02*
X0114069Y0205501D01*
X0114069Y0206299D02*
X0094201Y0206299D01*
X0094999Y0207098D02*
X0114165Y0207098D01*
X0114496Y0207896D02*
X0095798Y0207896D01*
X0106592Y0195120D02*
X0124179Y0195120D01*
X0124522Y0194322D02*
X0107488Y0194322D01*
X0108287Y0193523D02*
X0124522Y0193523D01*
X0124522Y0192725D02*
X0108992Y0192725D01*
X0109322Y0191926D02*
X0124522Y0191926D01*
X0124522Y0191128D02*
X0109653Y0191128D01*
X0109984Y0190329D02*
X0124522Y0190329D01*
X0124522Y0189531D02*
X0110097Y0189531D01*
X0110097Y0188732D02*
X0124522Y0188732D01*
X0124522Y0187934D02*
X0110097Y0187934D01*
X0116822Y0179948D02*
X0082322Y0179948D01*
X0082322Y0179150D02*
X0116822Y0179150D01*
X0117083Y0178351D02*
X0082322Y0178351D01*
X0082322Y0177553D02*
X0117692Y0177553D01*
X0146479Y0195120D02*
X0147625Y0195120D01*
X0147586Y0195919D02*
X0146517Y0195919D01*
X0151320Y0195919D02*
X0151523Y0195919D01*
X0151573Y0195120D02*
X0151281Y0195120D01*
X0153298Y0195120D02*
X0153482Y0195120D01*
X0153482Y0195384D02*
X0153482Y0193092D01*
X0155774Y0193092D01*
X0155774Y0194169D01*
X0155679Y0194525D01*
X0155495Y0194844D01*
X0155234Y0195105D01*
X0154915Y0195289D01*
X0154559Y0195384D01*
X0153482Y0195384D01*
X0153482Y0195919D02*
X0153298Y0195919D01*
X0153298Y0196717D02*
X0153482Y0196717D01*
X0153482Y0197516D02*
X0153298Y0197516D01*
X0153482Y0198092D02*
X0155774Y0198092D01*
X0155774Y0199169D01*
X0155679Y0199525D01*
X0155495Y0199844D01*
X0155234Y0200105D01*
X0154915Y0200289D01*
X0154559Y0200384D01*
X0153482Y0200384D01*
X0153482Y0198092D01*
X0153482Y0198314D02*
X0153298Y0198314D01*
X0153298Y0199113D02*
X0153482Y0199113D01*
X0153482Y0199911D02*
X0153298Y0199911D01*
X0155427Y0199911D02*
X0165646Y0199911D01*
X0164847Y0199113D02*
X0155774Y0199113D01*
X0155774Y0198314D02*
X0164049Y0198314D01*
X0163250Y0197516D02*
X0155774Y0197516D01*
X0155744Y0196717D02*
X0162452Y0196717D01*
X0161653Y0195919D02*
X0155257Y0195919D01*
X0155207Y0195120D02*
X0160855Y0195120D01*
X0160056Y0194322D02*
X0155733Y0194322D01*
X0155774Y0193523D02*
X0159258Y0193523D01*
X0158459Y0192725D02*
X0155774Y0192725D01*
X0153482Y0192725D02*
X0153298Y0192725D01*
X0153298Y0193523D02*
X0153482Y0193523D01*
X0153482Y0194322D02*
X0153298Y0194322D01*
X0153298Y0191926D02*
X0153482Y0191926D01*
X0153482Y0191128D02*
X0153298Y0191128D01*
X0143318Y0200710D02*
X0166444Y0200710D01*
X0166522Y0201508D02*
X0144117Y0201508D01*
X0150880Y0202307D02*
X0155964Y0202307D01*
X0155161Y0203105D02*
X0151683Y0203105D01*
X0152265Y0203904D02*
X0154579Y0203904D01*
X0154248Y0204702D02*
X0152596Y0204702D01*
X0152774Y0205501D02*
X0154069Y0205501D01*
X0154069Y0206299D02*
X0152774Y0206299D01*
X0152678Y0207098D02*
X0154165Y0207098D01*
X0154496Y0207896D02*
X0152348Y0207896D01*
X0162348Y0207896D02*
X0164496Y0207896D01*
X0164165Y0207098D02*
X0162678Y0207098D01*
X0162774Y0206299D02*
X0164069Y0206299D01*
X0164069Y0205501D02*
X0162774Y0205501D01*
X0162596Y0204702D02*
X0164248Y0204702D01*
X0164579Y0203904D02*
X0162265Y0203904D01*
X0161683Y0203105D02*
X0165161Y0203105D01*
X0165964Y0202307D02*
X0160880Y0202307D01*
X0125964Y0202307D02*
X0120880Y0202307D01*
X0121683Y0203105D02*
X0125161Y0203105D01*
X0124579Y0203904D02*
X0122265Y0203904D01*
X0122596Y0204702D02*
X0124248Y0204702D01*
X0124069Y0205501D02*
X0122774Y0205501D01*
X0122774Y0206299D02*
X0124069Y0206299D01*
X0124165Y0207098D02*
X0122678Y0207098D01*
X0122348Y0207896D02*
X0124496Y0207896D01*
D30*
X0128422Y0206000D02*
X0128422Y0200000D01*
X0132422Y0196000D01*
X0132422Y0189000D01*
X0133922Y0187500D01*
X0139922Y0187500D01*
X0140222Y0187300D01*
X0145622Y0181900D01*
X0145522Y0181900D01*
X0147922Y0179500D01*
X0147922Y0176000D01*
X0156922Y0167000D01*
X0165422Y0167000D01*
X0166922Y0171000D02*
X0158422Y0171000D01*
X0152422Y0177000D01*
X0154422Y0178700D02*
X0156122Y0177000D01*
X0158422Y0177000D01*
X0160422Y0173500D02*
X0205822Y0173600D01*
X0208722Y0170700D01*
X0208722Y0166800D01*
X0205622Y0164200D01*
X0203422Y0162000D01*
X0203422Y0139500D01*
X0196422Y0138500D02*
X0193422Y0141500D01*
X0193422Y0150000D01*
X0174922Y0168500D01*
X0169922Y0168000D02*
X0166922Y0171000D01*
X0169922Y0168000D02*
X0169922Y0164500D01*
X0168422Y0163000D01*
X0168422Y0158000D01*
X0173922Y0152500D01*
X0177422Y0153500D02*
X0180922Y0153500D01*
X0188422Y0146000D01*
X0188422Y0141000D01*
X0180922Y0133500D01*
X0174922Y0133500D01*
X0172422Y0131000D01*
X0153922Y0131000D01*
X0152922Y0132000D01*
X0152922Y0138500D01*
X0150422Y0141000D01*
X0132922Y0141000D01*
X0138422Y0146000D02*
X0134922Y0149500D01*
X0134922Y0159500D01*
X0135922Y0160500D01*
X0135922Y0179500D01*
X0133422Y0182000D01*
X0137922Y0185000D02*
X0142422Y0180500D01*
X0142422Y0173500D01*
X0145422Y0175500D02*
X0162422Y0158000D01*
X0162922Y0158000D01*
X0173422Y0147500D01*
X0173422Y0141500D01*
X0174922Y0140000D01*
X0174922Y0137000D01*
X0169422Y0134000D02*
X0167922Y0134000D01*
X0165922Y0135500D01*
X0165922Y0138928D01*
X0165981Y0138987D01*
X0163422Y0138987D02*
X0163422Y0148500D01*
X0161922Y0150500D01*
X0156922Y0150500D01*
X0152922Y0154500D01*
X0152922Y0159500D01*
X0156922Y0154000D02*
X0162922Y0154000D01*
X0164422Y0152500D01*
X0152922Y0149500D02*
X0139422Y0163000D01*
X0139422Y0177000D01*
X0129422Y0169000D02*
X0129422Y0195000D01*
X0126422Y0196500D02*
X0126422Y0186500D01*
X0119422Y0179500D01*
X0129422Y0169000D02*
X0132922Y0165500D01*
X0132922Y0163500D01*
X0143422Y0154000D02*
X0140922Y0151500D01*
X0137922Y0151500D01*
X0152922Y0149500D02*
X0152922Y0142000D01*
X0155745Y0139177D01*
X0155745Y0138987D01*
X0158304Y0138987D02*
X0158304Y0135882D01*
X0155922Y0133500D01*
X0160863Y0137059D02*
X0163422Y0135000D01*
X0160863Y0137059D02*
X0160863Y0138987D01*
X0150422Y0130500D02*
X0152922Y0128000D01*
X0172922Y0128000D01*
X0175922Y0131000D01*
X0184422Y0131000D01*
X0187922Y0134500D01*
X0218422Y0134500D01*
X0228922Y0145000D01*
X0239922Y0145000D01*
X0241422Y0146500D01*
X0241422Y0149000D01*
X0228922Y0145000D02*
X0228922Y0172000D01*
X0225922Y0172000D02*
X0225922Y0165000D01*
X0216322Y0169000D02*
X0216322Y0170200D01*
X0210522Y0176100D01*
X0204322Y0176100D01*
X0199022Y0181400D01*
X0195522Y0181400D01*
X0188922Y0188000D01*
X0185422Y0191000D02*
X0192922Y0191000D01*
X0193422Y0191000D01*
X0208422Y0206000D01*
X0198422Y0206000D02*
X0188922Y0196500D01*
X0176922Y0196500D01*
X0168422Y0188000D01*
X0167922Y0184000D02*
X0178422Y0184000D01*
X0185422Y0191000D01*
X0180422Y0194500D02*
X0191422Y0194500D01*
X0192922Y0196000D01*
X0193422Y0196000D01*
X0198422Y0191000D02*
X0204122Y0185300D01*
X0212722Y0185200D01*
X0218522Y0179400D01*
X0237422Y0179500D01*
X0244522Y0172400D01*
X0244522Y0167000D01*
X0241422Y0164000D01*
X0225922Y0172000D02*
X0223422Y0174500D01*
X0219922Y0173100D02*
X0216922Y0176200D01*
X0214522Y0178600D01*
X0206822Y0178600D01*
X0194922Y0178500D02*
X0192922Y0176500D01*
X0177922Y0176500D01*
X0173922Y0177500D02*
X0173922Y0180500D01*
X0178422Y0180500D01*
X0179922Y0182000D01*
X0173922Y0180500D02*
X0168422Y0180500D01*
X0160422Y0183500D02*
X0160422Y0184500D01*
X0174922Y0199000D01*
X0181422Y0199000D01*
X0188422Y0206000D01*
X0178422Y0206000D02*
X0157422Y0185000D01*
X0157422Y0181500D01*
X0154422Y0178700D02*
X0154422Y0186000D01*
X0168422Y0200000D01*
X0168422Y0206000D01*
X0148422Y0206000D02*
X0145922Y0203500D01*
X0143422Y0203500D01*
X0141422Y0201500D01*
X0135922Y0201500D01*
X0135922Y0189500D01*
X0141422Y0189500D01*
X0145922Y0185500D01*
X0144922Y0193000D02*
X0149453Y0193000D01*
X0148697Y0192744D01*
X0140422Y0192744D01*
X0140422Y0198256D02*
X0148697Y0198256D01*
X0149453Y0198000D01*
X0144922Y0198000D01*
X0153390Y0193000D02*
X0156422Y0193000D01*
X0156922Y0193500D01*
X0179722Y0193700D02*
X0180422Y0194500D01*
X0219922Y0173100D02*
X0219922Y0160100D01*
X0216822Y0157000D01*
X0208422Y0157000D01*
X0208422Y0160000D01*
X0206922Y0161500D01*
X0208422Y0157000D02*
X0208422Y0146000D01*
X0198422Y0146000D02*
X0198422Y0164500D01*
X0198922Y0165000D01*
X0192922Y0165000D01*
X0187922Y0160000D01*
X0198922Y0165000D02*
X0202722Y0165000D01*
X0201822Y0168000D02*
X0192422Y0168000D01*
X0201822Y0168000D02*
X0204722Y0170900D01*
X0197922Y0131500D02*
X0190422Y0131500D01*
X0177422Y0128500D02*
X0218422Y0128500D01*
X0222422Y0132500D01*
X0165922Y0120500D02*
X0164922Y0120500D01*
X0163422Y0119000D01*
X0163422Y0116013D01*
X0160922Y0116072D02*
X0160922Y0120500D01*
X0158304Y0123118D02*
X0158922Y0124000D01*
X0165222Y0124000D01*
X0158304Y0123118D02*
X0158304Y0116013D01*
X0160863Y0116013D02*
X0160876Y0116014D01*
X0160889Y0116019D01*
X0160900Y0116026D01*
X0160909Y0116035D01*
X0160916Y0116046D01*
X0160921Y0116059D01*
X0160922Y0116072D01*
X0162922Y0107500D02*
X0162922Y0104500D01*
X0160922Y0102500D01*
X0142422Y0101500D02*
X0140890Y0101500D01*
X0139390Y0103000D01*
X0135453Y0103000D02*
X0135453Y0107840D01*
X0134912Y0108381D01*
X0135530Y0109000D01*
X0139922Y0109000D01*
X0127432Y0108381D02*
X0119303Y0108381D01*
X0112172Y0101250D01*
X0126890Y0103000D02*
X0126890Y0107840D01*
X0127432Y0108381D01*
X0143335Y0118619D02*
X0143453Y0118500D01*
X0150422Y0130500D02*
X0113422Y0130500D01*
X0104422Y0139500D01*
X0104422Y0163500D01*
X0103422Y0164500D01*
X0106400Y0166522D02*
X0107422Y0166522D01*
X0106400Y0166522D02*
X0104922Y0168000D01*
X0095280Y0168000D01*
X0093422Y0166142D01*
X0095981Y0158858D02*
X0096922Y0157917D01*
X0098422Y0153000D01*
X0095981Y0155287D02*
X0095981Y0158858D01*
X0095981Y0155287D02*
X0095193Y0154500D01*
X0107422Y0160000D02*
X0107422Y0162978D01*
X0107422Y0160000D02*
X0108422Y0159000D01*
D31*
X0108422Y0159000D03*
X0103422Y0164500D03*
X0098422Y0153000D03*
X0104422Y0139500D03*
X0132922Y0141000D03*
X0137922Y0151500D03*
X0143422Y0154000D03*
X0152922Y0159500D03*
X0156922Y0154000D03*
X0164422Y0152500D03*
X0173922Y0152500D03*
X0177422Y0153500D03*
X0187922Y0160000D03*
X0192422Y0168000D03*
X0202722Y0165000D03*
X0206922Y0161500D03*
X0204722Y0170900D03*
X0216322Y0169000D03*
X0223422Y0174500D03*
X0228922Y0172000D03*
X0225922Y0165000D03*
X0206822Y0178600D03*
X0194922Y0178500D03*
X0188922Y0188000D03*
X0192922Y0191000D03*
X0193422Y0196000D03*
X0198422Y0191000D03*
X0179722Y0193700D03*
X0168422Y0188000D03*
X0167922Y0184000D03*
X0168422Y0180500D03*
X0173922Y0177500D03*
X0177922Y0176500D03*
X0179922Y0182000D03*
X0160422Y0183500D03*
X0157422Y0181500D03*
X0158422Y0177000D03*
X0160422Y0173500D03*
X0152422Y0177000D03*
X0145422Y0175500D03*
X0142422Y0173500D03*
X0139422Y0177000D03*
X0133422Y0182000D03*
X0137922Y0185000D03*
X0145922Y0185500D03*
X0144922Y0193000D03*
X0144922Y0198000D03*
X0156922Y0193500D03*
X0129422Y0195000D03*
X0126422Y0196500D03*
X0119422Y0179500D03*
X0132922Y0163500D03*
X0165422Y0167000D03*
X0174922Y0168500D03*
X0203422Y0139500D03*
X0196422Y0138500D03*
X0197922Y0131500D03*
X0190422Y0131500D03*
X0177422Y0128500D03*
X0169422Y0134000D03*
X0163422Y0135000D03*
X0155922Y0133500D03*
X0174922Y0137000D03*
X0165222Y0124000D03*
X0165922Y0120500D03*
X0160922Y0120500D03*
X0162922Y0107500D03*
X0160922Y0102500D03*
X0142422Y0101500D03*
X0139922Y0109000D03*
X0123422Y0113500D03*
X0110922Y0102500D03*
X0120422Y0087000D03*
X0179422Y0061500D03*
X0204922Y0061500D03*
X0214422Y0084000D03*
X0183422Y0084000D03*
X0221922Y0119000D03*
X0222422Y0132500D03*
D32*
X0215922Y0125000D02*
X0181422Y0125000D01*
X0177422Y0121000D01*
X0177422Y0113000D01*
X0170922Y0106500D01*
X0167434Y0106500D01*
X0156410Y0106500D02*
X0156410Y0108012D01*
X0150922Y0113500D01*
X0123422Y0113500D01*
X0134912Y0118619D02*
X0143335Y0118619D01*
X0143453Y0118500D02*
X0143453Y0121031D01*
X0148422Y0126000D01*
X0139922Y0109000D02*
X0145922Y0103000D01*
X0145922Y0100000D01*
X0143922Y0098000D01*
X0115422Y0098000D01*
X0112172Y0101250D01*
X0110922Y0102500D01*
X0183422Y0084000D02*
X0214422Y0084000D01*
X0179422Y0061500D02*
X0179422Y0061052D01*
X0179472Y0061002D01*
X0221922Y0119000D02*
X0215922Y0125000D01*
D33*
X0203472Y0102600D03*
X0198472Y0102600D03*
X0193472Y0102600D03*
X0193472Y0092600D03*
X0198472Y0092600D03*
X0203472Y0092600D03*
D34*
X0152707Y0057950D02*
X0142657Y0068000D01*
X0134922Y0068000D01*
X0120422Y0082500D01*
X0120422Y0087000D01*
D35*
X0152707Y0057950D02*
X0155758Y0061002D01*
X0179472Y0061002D01*
X0179422Y0061500D02*
X0204922Y0061500D01*
M02*
