G75*
%MOIN*%
%OFA0B0*%
%FSLAX25Y25*%
%IPPOS*%
%LPD*%
%AMOC8*
5,1,8,0,0,1.08239X$1,22.5*
%
%ADD10C,0.00500*%
%ADD11C,0.00300*%
%ADD12C,0.00800*%
%ADD13C,0.01600*%
%ADD14R,0.00787X0.00787*%
%ADD15C,0.00787*%
%ADD16C,0.00400*%
%ADD17C,0.02200*%
%ADD18R,0.00025X0.00325*%
%ADD19R,0.00025X0.00650*%
%ADD20R,0.00025X0.00875*%
%ADD21R,0.00025X0.01000*%
%ADD22R,0.00025X0.01150*%
%ADD23R,0.00025X0.01275*%
%ADD24R,0.00025X0.01400*%
%ADD25R,0.00025X0.01475*%
%ADD26R,0.00025X0.01600*%
%ADD27R,0.00025X0.01675*%
%ADD28R,0.00025X0.01750*%
%ADD29R,0.00025X0.01825*%
%ADD30R,0.00025X0.01875*%
%ADD31R,0.00025X0.01975*%
%ADD32R,0.00025X0.02050*%
%ADD33R,0.00025X0.02125*%
%ADD34R,0.00025X0.02200*%
%ADD35R,0.00025X0.02250*%
%ADD36R,0.00025X0.02300*%
%ADD37R,0.00025X0.02375*%
%ADD38R,0.00025X0.02450*%
%ADD39R,0.00025X0.02475*%
%ADD40R,0.00025X0.02550*%
%ADD41R,0.00025X0.02600*%
%ADD42R,0.00025X0.02675*%
%ADD43R,0.00025X0.02700*%
%ADD44R,0.00025X0.02775*%
%ADD45R,0.00025X0.02825*%
%ADD46R,0.00025X0.02875*%
%ADD47R,0.00025X0.02925*%
%ADD48R,0.00025X0.02975*%
%ADD49R,0.00025X0.03025*%
%ADD50R,0.00025X0.03075*%
%ADD51R,0.00025X0.03125*%
%ADD52R,0.00025X0.03150*%
%ADD53R,0.00025X0.03225*%
%ADD54R,0.00025X0.03250*%
%ADD55R,0.00025X0.03300*%
%ADD56R,0.00025X0.03350*%
%ADD57R,0.00025X0.03400*%
%ADD58R,0.00025X0.03425*%
%ADD59R,0.00025X0.03500*%
%ADD60R,0.00025X0.03525*%
%ADD61R,0.00025X0.03550*%
%ADD62R,0.00025X0.03600*%
%ADD63R,0.00025X0.03650*%
%ADD64R,0.00025X0.03675*%
%ADD65R,0.00025X0.03725*%
%ADD66R,0.00025X0.03775*%
%ADD67R,0.00025X0.03825*%
%ADD68R,0.00025X0.03850*%
%ADD69R,0.00025X0.03875*%
%ADD70R,0.00025X0.03950*%
%ADD71R,0.00025X0.03975*%
%ADD72R,0.00025X0.04000*%
%ADD73R,0.00025X0.04050*%
%ADD74R,0.00025X0.04100*%
%ADD75R,0.00025X0.04125*%
%ADD76R,0.00025X0.04150*%
%ADD77R,0.00025X0.04225*%
%ADD78R,0.00025X0.04250*%
%ADD79R,0.00025X0.04275*%
%ADD80R,0.00025X0.04325*%
%ADD81R,0.00025X0.04350*%
%ADD82R,0.00025X0.04400*%
%ADD83R,0.00025X0.04425*%
%ADD84R,0.00025X0.04475*%
%ADD85R,0.00025X0.04500*%
%ADD86R,0.00025X0.04525*%
%ADD87R,0.00025X0.04600*%
%ADD88R,0.00025X0.04625*%
%ADD89R,0.00025X0.04650*%
%ADD90R,0.00025X0.04675*%
%ADD91R,0.00025X0.04725*%
%ADD92R,0.00025X0.04775*%
%ADD93R,0.00025X0.04800*%
%ADD94R,0.00025X0.04825*%
%ADD95R,0.00025X0.04875*%
%ADD96R,0.00025X0.04900*%
%ADD97R,0.00025X0.04950*%
%ADD98R,0.00025X0.04975*%
%ADD99R,0.00025X0.05050*%
%ADD100R,0.00025X0.05075*%
%ADD101R,0.00025X0.05100*%
%ADD102R,0.00025X0.05150*%
%ADD103R,0.00025X0.03625*%
%ADD104R,0.00025X0.01025*%
%ADD105R,0.00025X0.00700*%
%ADD106R,0.00025X0.03375*%
%ADD107R,0.00025X0.00575*%
%ADD108R,0.00025X0.03275*%
%ADD109R,0.00025X0.00450*%
%ADD110R,0.00025X0.00350*%
%ADD111R,0.00025X0.03175*%
%ADD112R,0.00025X0.00250*%
%ADD113R,0.00025X0.00150*%
%ADD114R,0.00025X0.00050*%
%ADD115R,0.00025X0.03050*%
%ADD116R,0.00025X0.03000*%
%ADD117R,0.00025X0.02950*%
%ADD118R,0.00025X0.03100*%
%ADD119R,0.00025X0.03325*%
%ADD120R,0.00025X0.04025*%
%ADD121R,0.00025X0.03900*%
%ADD122R,0.00025X0.03800*%
%ADD123R,0.00025X0.03750*%
%ADD124R,0.00025X0.03700*%
%ADD125R,0.00025X0.02750*%
%ADD126R,0.00025X0.02625*%
%ADD127R,0.00025X0.02500*%
%ADD128R,0.00025X0.02425*%
%ADD129R,0.00025X0.02325*%
%ADD130R,0.00025X0.02225*%
%ADD131R,0.00025X0.02150*%
%ADD132R,0.00025X0.00025*%
%ADD133R,0.00025X0.00550*%
%ADD134R,0.00025X0.00750*%
%ADD135R,0.00025X0.00975*%
%ADD136R,0.00025X0.00950*%
%ADD137R,0.00025X0.00900*%
%ADD138R,0.00025X0.01100*%
%ADD139R,0.00025X0.01050*%
%ADD140R,0.00025X0.01325*%
%ADD141R,0.00025X0.01450*%
%ADD142R,0.00025X0.01250*%
%ADD143R,0.00025X0.01525*%
%ADD144R,0.00025X0.01375*%
%ADD145R,0.00025X0.01350*%
%ADD146R,0.00025X0.01700*%
%ADD147R,0.00025X0.01625*%
%ADD148R,0.00025X0.01425*%
%ADD149R,0.00025X0.01800*%
%ADD150R,0.00025X0.01725*%
%ADD151R,0.00025X0.01575*%
%ADD152R,0.00025X0.01550*%
%ADD153R,0.00025X0.01900*%
%ADD154R,0.00025X0.01650*%
%ADD155R,0.00025X0.02000*%
%ADD156R,0.00025X0.02075*%
%ADD157R,0.00025X0.01775*%
%ADD158R,0.00025X0.01850*%
%ADD159R,0.00025X0.02275*%
%ADD160R,0.00025X0.01925*%
%ADD161R,0.00025X0.02025*%
%ADD162R,0.00025X0.01950*%
%ADD163R,0.00025X0.02525*%
%ADD164R,0.00025X0.02100*%
%ADD165R,0.00025X0.02575*%
%ADD166R,0.00025X0.02650*%
%ADD167R,0.00025X0.02725*%
%ADD168R,0.00025X0.02175*%
%ADD169R,0.00025X0.02800*%
%ADD170R,0.00025X0.02850*%
%ADD171R,0.00025X0.02900*%
%ADD172R,0.00025X0.07550*%
%ADD173R,0.00025X0.07575*%
%ADD174R,0.00025X0.07600*%
%ADD175R,0.00025X0.07625*%
%ADD176R,0.00025X0.07675*%
%ADD177R,0.00025X0.07700*%
%ADD178R,0.00025X0.03200*%
%ADD179R,0.00025X0.07725*%
%ADD180R,0.00025X0.07775*%
%ADD181R,0.00025X0.00850*%
%ADD182R,0.00025X0.07800*%
%ADD183R,0.00025X0.00825*%
%ADD184R,0.00025X0.07825*%
%ADD185R,0.00025X0.00775*%
%ADD186R,0.00025X0.04075*%
%ADD187R,0.00025X0.03925*%
%ADD188R,0.00025X0.00725*%
%ADD189R,0.00025X0.00675*%
%ADD190R,0.00025X0.01225*%
%ADD191R,0.00025X0.01200*%
%ADD192R,0.00025X0.00075*%
%ADD193R,0.00025X0.01175*%
%ADD194R,0.00025X0.01075*%
%ADD195R,0.00025X0.01125*%
%ADD196R,0.00025X0.01500*%
%ADD197R,0.00025X0.00625*%
%ADD198R,0.00025X0.00600*%
%ADD199R,0.00025X0.00525*%
%ADD200R,0.00025X0.00925*%
%ADD201R,0.00025X0.00225*%
%ADD202R,0.00025X0.00800*%
%ADD203R,0.00025X0.01300*%
%ADD204R,0.00025X0.03475*%
%ADD205R,0.00025X0.03450*%
%ADD206R,0.00025X0.00300*%
%ADD207R,0.00025X0.00125*%
%ADD208R,0.00025X0.00400*%
%ADD209R,0.00025X0.05350*%
%ADD210R,0.00025X0.05375*%
%ADD211R,0.00025X0.02400*%
%ADD212R,0.00025X0.02350*%
%ADD213R,0.00025X0.07000*%
%ADD214R,0.00025X0.05500*%
%ADD215R,0.00025X0.07025*%
%ADD216R,0.00025X0.03575*%
%ADD217R,0.00025X0.05525*%
%ADD218R,0.00025X0.07075*%
%ADD219R,0.00025X0.05575*%
%ADD220R,0.00025X0.05600*%
%ADD221R,0.00025X0.07125*%
%ADD222R,0.00025X0.05625*%
%ADD223R,0.00025X0.07150*%
%ADD224R,0.00025X0.05650*%
%ADD225R,0.00025X0.07175*%
%ADD226R,0.00025X0.05675*%
%ADD227R,0.00025X0.07200*%
%ADD228R,0.00025X0.05725*%
%ADD229R,0.00025X0.07225*%
%ADD230R,0.00025X0.04200*%
%ADD231R,0.00025X0.07250*%
%ADD232R,0.00025X0.08325*%
%ADD233R,0.00025X0.05025*%
%ADD234R,0.00025X0.04750*%
%ADD235R,0.00025X0.00175*%
%ADD236R,0.00025X0.00375*%
%ADD237R,0.00025X0.00475*%
%ADD238R,0.00025X0.00100*%
%ADD239R,0.00025X0.05225*%
%ADD240R,0.00025X0.05250*%
%ADD241R,0.00025X0.05300*%
%ADD242R,0.00025X0.05325*%
%ADD243R,0.00025X0.05400*%
%ADD244R,0.00025X0.05425*%
%ADD245R,0.00025X0.08550*%
%ADD246R,0.00025X0.08525*%
%ADD247R,0.00025X0.08500*%
%ADD248R,0.00025X0.08475*%
%ADD249R,0.00025X0.08450*%
%ADD250R,0.00025X0.08400*%
%ADD251R,0.00025X0.08375*%
%ADD252R,0.00025X0.08300*%
%ADD253R,0.00025X0.08250*%
%ADD254R,0.00025X0.08225*%
%ADD255R,0.00025X0.08175*%
%ADD256R,0.00025X0.08150*%
%ADD257R,0.00025X0.08100*%
%ADD258R,0.00025X0.08075*%
%ADD259R,0.00025X0.08050*%
%ADD260R,0.00025X0.08000*%
%ADD261R,0.00025X0.07950*%
%ADD262R,0.00025X0.07900*%
%ADD263R,0.00025X0.07850*%
%ADD264R,0.00025X0.07500*%
%ADD265R,0.00025X0.07425*%
%ADD266R,0.00025X0.07350*%
%ADD267R,0.00025X0.07325*%
%ADD268R,0.00025X0.05200*%
%ADD269R,0.00025X0.00500*%
%ADD270R,0.00025X0.00275*%
D10*
X0144436Y0088755D02*
X0149315Y0084173D01*
X0150393Y0085321D01*
X0145514Y0089903D01*
X0144436Y0088755D01*
X0144543Y0088869D02*
X0146615Y0088869D01*
X0146084Y0089368D02*
X0145011Y0089368D01*
X0145479Y0089866D02*
X0145553Y0089866D01*
X0145514Y0089903D02*
X0150393Y0085321D01*
X0163329Y0099097D01*
X0158450Y0103679D01*
X0145514Y0089903D01*
X0144845Y0088370D02*
X0147146Y0088370D01*
X0147677Y0087872D02*
X0145376Y0087872D01*
X0145907Y0087373D02*
X0148208Y0087373D01*
X0148739Y0086875D02*
X0146438Y0086875D01*
X0146969Y0086376D02*
X0149269Y0086376D01*
X0149800Y0085878D02*
X0147500Y0085878D01*
X0148031Y0085379D02*
X0150331Y0085379D01*
X0149979Y0084881D02*
X0148562Y0084881D01*
X0149092Y0084382D02*
X0149511Y0084382D01*
X0153478Y0093496D02*
X0155687Y0094122D01*
X0153965Y0095739D01*
X0153478Y0093496D01*
X0153556Y0093854D02*
X0154743Y0093854D01*
X0155441Y0094353D02*
X0153664Y0094353D01*
X0153772Y0094851D02*
X0154910Y0094851D01*
X0154380Y0095350D02*
X0153881Y0095350D01*
X0155083Y0102701D02*
X0148784Y0102701D01*
X0148784Y0115299D01*
X0144060Y0115299D01*
X0144060Y0102701D01*
X0137760Y0102701D01*
X0137760Y0115299D01*
X0144060Y0115299D01*
X0144060Y0112150D01*
X0148784Y0112150D01*
X0148784Y0115299D01*
X0155083Y0115299D01*
X0155083Y0102701D01*
X0148784Y0102701D02*
X0144060Y0102701D01*
X0144060Y0112299D02*
X0148784Y0112299D01*
X0148784Y0112798D02*
X0144060Y0112798D01*
X0144060Y0113296D02*
X0148784Y0113296D01*
X0148784Y0113795D02*
X0144060Y0113795D01*
X0144060Y0114293D02*
X0148784Y0114293D01*
X0148784Y0114792D02*
X0144060Y0114792D01*
X0144060Y0115290D02*
X0148784Y0115290D01*
X0148784Y0115299D02*
X0144060Y0115299D01*
X0143500Y0120579D02*
X0143500Y0150421D01*
X0153343Y0150421D01*
X0153343Y0120579D01*
X0143500Y0120579D01*
X0143343Y0120579D02*
X0133500Y0120579D01*
X0133500Y0150421D01*
X0143343Y0150421D01*
X0143343Y0120579D01*
X0135955Y0114281D02*
X0136080Y0114118D01*
X0136159Y0113928D01*
X0136186Y0113724D01*
X0136159Y0113521D01*
X0136080Y0113331D01*
X0135955Y0113168D01*
X0135792Y0113042D01*
X0135602Y0112964D01*
X0135398Y0112937D01*
X0135194Y0112964D01*
X0135004Y0113042D01*
X0134841Y0113168D01*
X0134716Y0113331D01*
X0134638Y0113521D01*
X0134611Y0113724D01*
X0134638Y0113928D01*
X0134716Y0114118D01*
X0134841Y0114281D01*
X0135004Y0114406D01*
X0135194Y0114485D01*
X0135398Y0114512D01*
X0135602Y0114485D01*
X0135792Y0114406D01*
X0135955Y0114281D01*
X0135939Y0114293D02*
X0134857Y0114293D01*
X0134620Y0113795D02*
X0136176Y0113795D01*
X0136053Y0113296D02*
X0134743Y0113296D01*
X0133343Y0120579D02*
X0123500Y0120579D01*
X0123500Y0150421D01*
X0133343Y0150421D01*
X0133343Y0120579D01*
X0123343Y0120579D02*
X0113500Y0120579D01*
X0113500Y0150421D01*
X0123343Y0150421D01*
X0123343Y0120579D01*
X0150922Y0138000D02*
X0150922Y0140500D01*
X0153422Y0143000D01*
X0155922Y0140500D01*
X0153422Y0138000D01*
X0150922Y0138000D01*
X0150922Y0138222D02*
X0153643Y0138222D01*
X0154142Y0138720D02*
X0150922Y0138720D01*
X0150922Y0139219D02*
X0154640Y0139219D01*
X0155139Y0139717D02*
X0150922Y0139717D01*
X0150922Y0140216D02*
X0155637Y0140216D01*
X0155708Y0140714D02*
X0151136Y0140714D01*
X0151634Y0141213D02*
X0155209Y0141213D01*
X0154711Y0141711D02*
X0152133Y0141711D01*
X0152631Y0142210D02*
X0154212Y0142210D01*
X0153714Y0142708D02*
X0153130Y0142708D01*
X0153500Y0140579D02*
X0153500Y0150421D01*
X0213343Y0150421D01*
X0213343Y0140579D01*
X0153500Y0140579D01*
X0157069Y0139155D02*
X0157520Y0139605D01*
X0159321Y0137803D01*
X0159772Y0138254D01*
X0159772Y0139155D01*
X0159321Y0139605D01*
X0157520Y0139605D01*
X0157069Y0139155D02*
X0157069Y0138254D01*
X0157520Y0137803D01*
X0159321Y0137803D01*
X0159772Y0136659D02*
X0159772Y0134857D01*
X0159772Y0135758D02*
X0157069Y0135758D01*
X0157970Y0134857D01*
X0157520Y0133712D02*
X0157069Y0133262D01*
X0157069Y0131910D01*
X0159772Y0131910D01*
X0159772Y0133262D01*
X0159321Y0133712D01*
X0157520Y0133712D01*
X0163422Y0130161D02*
X0163422Y0127500D01*
X0161422Y0127500D02*
X0161424Y0127589D01*
X0161430Y0127678D01*
X0161440Y0127767D01*
X0161454Y0127855D01*
X0161471Y0127942D01*
X0161493Y0128028D01*
X0161519Y0128114D01*
X0161548Y0128198D01*
X0161581Y0128281D01*
X0161617Y0128362D01*
X0161658Y0128442D01*
X0161701Y0128519D01*
X0161748Y0128595D01*
X0161799Y0128668D01*
X0161852Y0128739D01*
X0161909Y0128808D01*
X0161969Y0128874D01*
X0162032Y0128938D01*
X0162097Y0128998D01*
X0162165Y0129056D01*
X0162236Y0129110D01*
X0162309Y0129161D01*
X0162384Y0129209D01*
X0162461Y0129254D01*
X0162540Y0129295D01*
X0162621Y0129332D01*
X0162703Y0129366D01*
X0162787Y0129397D01*
X0162872Y0129423D01*
X0162958Y0129446D01*
X0163045Y0129464D01*
X0163133Y0129479D01*
X0163222Y0129490D01*
X0163311Y0129497D01*
X0163400Y0129500D01*
X0163489Y0129499D01*
X0163578Y0129494D01*
X0163666Y0129485D01*
X0163755Y0129472D01*
X0163842Y0129455D01*
X0163929Y0129435D01*
X0164015Y0129410D01*
X0164099Y0129382D01*
X0164182Y0129350D01*
X0164264Y0129314D01*
X0164344Y0129275D01*
X0164422Y0129232D01*
X0164498Y0129186D01*
X0164572Y0129136D01*
X0164644Y0129083D01*
X0164713Y0129027D01*
X0164780Y0128968D01*
X0164844Y0128906D01*
X0164905Y0128842D01*
X0164964Y0128774D01*
X0165019Y0128704D01*
X0165071Y0128632D01*
X0165120Y0128557D01*
X0165165Y0128481D01*
X0165207Y0128402D01*
X0165245Y0128322D01*
X0165280Y0128240D01*
X0165311Y0128156D01*
X0165339Y0128071D01*
X0165362Y0127985D01*
X0165382Y0127898D01*
X0165398Y0127811D01*
X0165410Y0127722D01*
X0165418Y0127634D01*
X0165422Y0127545D01*
X0165422Y0127455D01*
X0165418Y0127366D01*
X0165410Y0127278D01*
X0165398Y0127189D01*
X0165382Y0127102D01*
X0165362Y0127015D01*
X0165339Y0126929D01*
X0165311Y0126844D01*
X0165280Y0126760D01*
X0165245Y0126678D01*
X0165207Y0126598D01*
X0165165Y0126519D01*
X0165120Y0126443D01*
X0165071Y0126368D01*
X0165019Y0126296D01*
X0164964Y0126226D01*
X0164905Y0126158D01*
X0164844Y0126094D01*
X0164780Y0126032D01*
X0164713Y0125973D01*
X0164644Y0125917D01*
X0164572Y0125864D01*
X0164498Y0125814D01*
X0164422Y0125768D01*
X0164344Y0125725D01*
X0164264Y0125686D01*
X0164182Y0125650D01*
X0164099Y0125618D01*
X0164015Y0125590D01*
X0163929Y0125565D01*
X0163842Y0125545D01*
X0163755Y0125528D01*
X0163666Y0125515D01*
X0163578Y0125506D01*
X0163489Y0125501D01*
X0163400Y0125500D01*
X0163311Y0125503D01*
X0163222Y0125510D01*
X0163133Y0125521D01*
X0163045Y0125536D01*
X0162958Y0125554D01*
X0162872Y0125577D01*
X0162787Y0125603D01*
X0162703Y0125634D01*
X0162621Y0125668D01*
X0162540Y0125705D01*
X0162461Y0125746D01*
X0162384Y0125791D01*
X0162309Y0125839D01*
X0162236Y0125890D01*
X0162165Y0125944D01*
X0162097Y0126002D01*
X0162032Y0126062D01*
X0161969Y0126126D01*
X0161909Y0126192D01*
X0161852Y0126261D01*
X0161799Y0126332D01*
X0161748Y0126405D01*
X0161701Y0126481D01*
X0161658Y0126558D01*
X0161617Y0126638D01*
X0161581Y0126719D01*
X0161548Y0126802D01*
X0161519Y0126886D01*
X0161493Y0126972D01*
X0161471Y0127058D01*
X0161454Y0127145D01*
X0161440Y0127233D01*
X0161430Y0127322D01*
X0161424Y0127411D01*
X0161422Y0127500D01*
X0160760Y0127500D02*
X0163422Y0127500D01*
X0163422Y0124839D01*
X0163422Y0127500D02*
X0166083Y0127500D01*
X0167069Y0127450D02*
X0169772Y0127450D01*
X0169772Y0127000D02*
X0169772Y0127900D01*
X0169321Y0125855D02*
X0169772Y0125404D01*
X0169772Y0124503D01*
X0169321Y0124053D01*
X0168421Y0124503D02*
X0168421Y0125404D01*
X0168871Y0125855D01*
X0169321Y0125855D01*
X0168421Y0124503D02*
X0167970Y0124053D01*
X0167520Y0124053D01*
X0167069Y0124503D01*
X0167069Y0125404D01*
X0167520Y0125855D01*
X0167069Y0127000D02*
X0167069Y0127900D01*
X0159772Y0127369D02*
X0159772Y0126468D01*
X0159321Y0126017D01*
X0158421Y0126468D02*
X0158421Y0127369D01*
X0158871Y0127819D01*
X0159321Y0127819D01*
X0159772Y0127369D01*
X0158421Y0126468D02*
X0157970Y0126017D01*
X0157520Y0126017D01*
X0157069Y0126468D01*
X0157069Y0127369D01*
X0157520Y0127819D01*
X0157520Y0124872D02*
X0157069Y0124422D01*
X0157069Y0123521D01*
X0157520Y0123071D01*
X0157970Y0123071D01*
X0158421Y0123521D01*
X0158421Y0124422D01*
X0158871Y0124872D01*
X0159321Y0124872D01*
X0159772Y0124422D01*
X0159772Y0123521D01*
X0159321Y0123071D01*
X0167069Y0122458D02*
X0167520Y0122908D01*
X0169321Y0122908D01*
X0169772Y0122458D01*
X0169772Y0121557D01*
X0169321Y0121107D01*
X0167520Y0121107D01*
X0167069Y0121557D01*
X0167069Y0122458D01*
X0167069Y0119962D02*
X0169772Y0119962D01*
X0169772Y0118160D02*
X0167069Y0118160D01*
X0167970Y0119061D01*
X0167069Y0119962D01*
X0177069Y0119962D02*
X0179772Y0119962D01*
X0179772Y0121107D02*
X0179772Y0122007D01*
X0179772Y0121557D02*
X0177069Y0121557D01*
X0177069Y0121107D02*
X0177069Y0122007D01*
X0177520Y0123071D02*
X0177970Y0123071D01*
X0178421Y0123521D01*
X0178421Y0124422D01*
X0178871Y0124872D01*
X0179321Y0124872D01*
X0179772Y0124422D01*
X0179772Y0123521D01*
X0179321Y0123071D01*
X0177520Y0123071D02*
X0177069Y0123521D01*
X0177069Y0124422D01*
X0177520Y0124872D01*
X0177520Y0126017D02*
X0179321Y0126017D01*
X0179772Y0126468D01*
X0179772Y0127369D01*
X0179321Y0127819D01*
X0177520Y0127819D01*
X0177069Y0127369D01*
X0177069Y0126468D01*
X0177520Y0126017D01*
X0177069Y0131910D02*
X0177069Y0133262D01*
X0177520Y0133712D01*
X0179321Y0133712D01*
X0179772Y0133262D01*
X0179772Y0131910D01*
X0177069Y0131910D01*
X0177970Y0134857D02*
X0177069Y0135758D01*
X0179772Y0135758D01*
X0179772Y0134857D02*
X0179772Y0136659D01*
X0179772Y0137803D02*
X0177970Y0139605D01*
X0177520Y0139605D01*
X0177069Y0139155D01*
X0177069Y0138254D01*
X0177520Y0137803D01*
X0179772Y0137803D02*
X0179772Y0139605D01*
X0187069Y0139155D02*
X0187520Y0139605D01*
X0187970Y0139605D01*
X0188421Y0139155D01*
X0188871Y0139605D01*
X0189321Y0139605D01*
X0189772Y0139155D01*
X0189772Y0138254D01*
X0189321Y0137803D01*
X0189772Y0136659D02*
X0189772Y0134857D01*
X0189772Y0135758D02*
X0187069Y0135758D01*
X0187970Y0134857D01*
X0187520Y0133712D02*
X0187069Y0133262D01*
X0187069Y0131910D01*
X0189772Y0131910D01*
X0189772Y0133262D01*
X0189321Y0133712D01*
X0187520Y0133712D01*
X0187520Y0137803D02*
X0187069Y0138254D01*
X0187069Y0139155D01*
X0188421Y0139155D02*
X0188421Y0138704D01*
X0197069Y0138254D02*
X0197069Y0139155D01*
X0197520Y0139605D01*
X0199321Y0137803D01*
X0199772Y0138254D01*
X0199772Y0139155D01*
X0199321Y0139605D01*
X0197520Y0139605D01*
X0197069Y0138254D02*
X0197520Y0137803D01*
X0199321Y0137803D01*
X0199772Y0136659D02*
X0199772Y0134857D01*
X0197970Y0136659D01*
X0197520Y0136659D01*
X0197069Y0136208D01*
X0197069Y0135307D01*
X0197520Y0134857D01*
X0197520Y0133712D02*
X0197069Y0133262D01*
X0197069Y0131910D01*
X0199772Y0131910D01*
X0199772Y0133262D01*
X0199321Y0133712D01*
X0197520Y0133712D01*
X0197970Y0127819D02*
X0197069Y0126918D01*
X0197970Y0126017D01*
X0199772Y0126017D01*
X0199321Y0124872D02*
X0197520Y0124872D01*
X0197069Y0124422D01*
X0197069Y0123071D01*
X0199772Y0123071D01*
X0199772Y0124422D01*
X0199321Y0124872D01*
X0198421Y0126017D02*
X0198421Y0127819D01*
X0197970Y0127819D02*
X0199772Y0127819D01*
X0199321Y0121926D02*
X0199772Y0121476D01*
X0199772Y0120575D01*
X0199321Y0120124D01*
X0198421Y0120575D02*
X0198421Y0121476D01*
X0198871Y0121926D01*
X0199321Y0121926D01*
X0198421Y0120575D02*
X0197970Y0120124D01*
X0197520Y0120124D01*
X0197069Y0120575D01*
X0197069Y0121476D01*
X0197520Y0121926D01*
X0189772Y0121476D02*
X0189772Y0120575D01*
X0189321Y0120124D01*
X0188421Y0120575D02*
X0188421Y0121476D01*
X0188871Y0121926D01*
X0189321Y0121926D01*
X0189772Y0121476D01*
X0188421Y0120575D02*
X0187970Y0120124D01*
X0187520Y0120124D01*
X0187069Y0120575D01*
X0187069Y0121476D01*
X0187520Y0121926D01*
X0187520Y0123071D02*
X0189321Y0123071D01*
X0189772Y0123521D01*
X0189772Y0124422D01*
X0189321Y0124872D01*
X0188871Y0126017D02*
X0187069Y0127819D01*
X0187069Y0126017D02*
X0189772Y0126017D01*
X0188421Y0126468D02*
X0189772Y0127819D01*
X0187520Y0124872D02*
X0187069Y0124422D01*
X0187069Y0123521D01*
X0187520Y0123071D01*
X0179772Y0118160D02*
X0177069Y0118160D01*
X0177970Y0119061D01*
X0177069Y0119962D01*
X0169772Y0131910D02*
X0167069Y0131910D01*
X0167069Y0133262D01*
X0167520Y0133712D01*
X0169321Y0133712D01*
X0169772Y0133262D01*
X0169772Y0131910D01*
X0169772Y0134857D02*
X0169772Y0136659D01*
X0169772Y0135758D02*
X0167069Y0135758D01*
X0167970Y0134857D01*
X0167970Y0137803D02*
X0167069Y0138704D01*
X0169772Y0138704D01*
X0169772Y0137803D02*
X0169772Y0139605D01*
X0145922Y0150500D02*
X0143422Y0153000D01*
X0140922Y0153000D01*
X0140922Y0150500D01*
X0143422Y0148000D01*
X0145922Y0150500D01*
X0145737Y0150684D02*
X0140922Y0150684D01*
X0140922Y0151183D02*
X0145239Y0151183D01*
X0144740Y0151681D02*
X0140922Y0151681D01*
X0140922Y0152180D02*
X0144242Y0152180D01*
X0143743Y0152678D02*
X0140922Y0152678D01*
X0141236Y0150186D02*
X0145608Y0150186D01*
X0145109Y0149687D02*
X0141734Y0149687D01*
X0142233Y0149189D02*
X0144611Y0149189D01*
X0144112Y0148690D02*
X0142731Y0148690D01*
X0143230Y0148192D02*
X0143614Y0148192D01*
X0135922Y0150500D02*
X0133422Y0153000D01*
X0130922Y0153000D01*
X0130922Y0150500D01*
X0133422Y0148000D01*
X0135922Y0150500D01*
X0135737Y0150684D02*
X0130922Y0150684D01*
X0130922Y0151183D02*
X0135239Y0151183D01*
X0134740Y0151681D02*
X0130922Y0151681D01*
X0130922Y0152180D02*
X0134242Y0152180D01*
X0133743Y0152678D02*
X0130922Y0152678D01*
X0131236Y0150186D02*
X0135608Y0150186D01*
X0135109Y0149687D02*
X0131734Y0149687D01*
X0132233Y0149189D02*
X0134611Y0149189D01*
X0134112Y0148690D02*
X0132731Y0148690D01*
X0133230Y0148192D02*
X0133614Y0148192D01*
X0125922Y0150500D02*
X0123422Y0153000D01*
X0120922Y0153000D01*
X0120922Y0150500D01*
X0123422Y0148000D01*
X0125922Y0150500D01*
X0125737Y0150684D02*
X0120922Y0150684D01*
X0120922Y0151183D02*
X0125239Y0151183D01*
X0124740Y0151681D02*
X0120922Y0151681D01*
X0120922Y0152180D02*
X0124242Y0152180D01*
X0123743Y0152678D02*
X0120922Y0152678D01*
X0121236Y0150186D02*
X0125608Y0150186D01*
X0125109Y0149687D02*
X0121734Y0149687D01*
X0122233Y0149189D02*
X0124611Y0149189D01*
X0124112Y0148690D02*
X0122731Y0148690D01*
X0123230Y0148192D02*
X0123614Y0148192D01*
X0115922Y0150500D02*
X0113422Y0153000D01*
X0110922Y0153000D01*
X0110922Y0150500D01*
X0113422Y0148000D01*
X0115922Y0150500D01*
X0115737Y0150684D02*
X0110922Y0150684D01*
X0110922Y0151183D02*
X0115239Y0151183D01*
X0114740Y0151681D02*
X0110922Y0151681D01*
X0110922Y0152180D02*
X0114242Y0152180D01*
X0113743Y0152678D02*
X0110922Y0152678D01*
X0111236Y0150186D02*
X0115608Y0150186D01*
X0115109Y0149687D02*
X0111734Y0149687D01*
X0112233Y0149189D02*
X0114611Y0149189D01*
X0114112Y0148690D02*
X0112731Y0148690D01*
X0113230Y0148192D02*
X0113614Y0148192D01*
X0117520Y0191910D02*
X0119321Y0193712D01*
X0118421Y0193712D02*
X0118421Y0191910D01*
X0119321Y0191910D02*
X0117520Y0193712D01*
X0117520Y0192811D02*
X0119321Y0192811D01*
X0119772Y0194857D02*
X0119772Y0196208D01*
X0119321Y0196659D01*
X0117520Y0196659D01*
X0117069Y0196208D01*
X0117069Y0194857D01*
X0119772Y0194857D01*
X0119321Y0197803D02*
X0119772Y0198254D01*
X0119772Y0199155D01*
X0119321Y0199605D01*
X0118871Y0199605D01*
X0118421Y0199155D01*
X0118421Y0198704D01*
X0118421Y0199155D02*
X0117970Y0199605D01*
X0117520Y0199605D01*
X0117069Y0199155D01*
X0117069Y0198254D01*
X0117520Y0197803D01*
X0115459Y0200037D02*
X0110922Y0200037D01*
X0110922Y0200500D02*
X0110922Y0198000D01*
X0113422Y0198000D01*
X0115922Y0200500D01*
X0113422Y0203000D01*
X0110922Y0200500D01*
X0110957Y0200536D02*
X0115886Y0200536D01*
X0115388Y0201034D02*
X0111456Y0201034D01*
X0111954Y0201533D02*
X0114889Y0201533D01*
X0114391Y0202031D02*
X0112453Y0202031D01*
X0112951Y0202530D02*
X0113892Y0202530D01*
X0113500Y0200579D02*
X0113500Y0210421D01*
X0213343Y0210421D01*
X0213343Y0200579D01*
X0113500Y0200579D01*
X0114960Y0199539D02*
X0110922Y0199539D01*
X0110922Y0199040D02*
X0114462Y0199040D01*
X0113963Y0198541D02*
X0110922Y0198541D01*
X0110922Y0198043D02*
X0113465Y0198043D01*
X0127069Y0198254D02*
X0127520Y0197803D01*
X0127069Y0198254D02*
X0127069Y0199155D01*
X0127520Y0199605D01*
X0127970Y0199605D01*
X0129772Y0197803D01*
X0129772Y0199605D01*
X0129321Y0196659D02*
X0127520Y0196659D01*
X0127069Y0196208D01*
X0127069Y0194857D01*
X0129772Y0194857D01*
X0129772Y0196208D01*
X0129321Y0196659D01*
X0129321Y0193712D02*
X0127520Y0191910D01*
X0128421Y0191910D02*
X0128421Y0193712D01*
X0127520Y0193712D02*
X0129321Y0191910D01*
X0129321Y0192811D02*
X0127520Y0192811D01*
X0137069Y0194857D02*
X0137069Y0196208D01*
X0137520Y0196659D01*
X0139321Y0196659D01*
X0139772Y0196208D01*
X0139772Y0194857D01*
X0137069Y0194857D01*
X0137520Y0193712D02*
X0139321Y0191910D01*
X0138421Y0191910D02*
X0138421Y0193712D01*
X0139321Y0193712D02*
X0137520Y0191910D01*
X0137520Y0192811D02*
X0139321Y0192811D01*
X0139772Y0197803D02*
X0139772Y0199605D01*
X0139772Y0198704D02*
X0137069Y0198704D01*
X0137970Y0197803D01*
X0147069Y0198254D02*
X0147520Y0197803D01*
X0149321Y0197803D01*
X0147520Y0199605D01*
X0149321Y0199605D01*
X0149772Y0199155D01*
X0149772Y0198254D01*
X0149321Y0197803D01*
X0149321Y0196659D02*
X0147520Y0196659D01*
X0147069Y0196208D01*
X0147069Y0194857D01*
X0149772Y0194857D01*
X0149772Y0196208D01*
X0149321Y0196659D01*
X0147069Y0198254D02*
X0147069Y0199155D01*
X0147520Y0199605D01*
X0147520Y0193712D02*
X0149321Y0191910D01*
X0148421Y0191910D02*
X0148421Y0193712D01*
X0149321Y0193712D02*
X0147520Y0191910D01*
X0147520Y0192811D02*
X0149321Y0192811D01*
X0157069Y0195758D02*
X0157970Y0196659D01*
X0159772Y0196659D01*
X0159321Y0197803D02*
X0159772Y0198254D01*
X0159772Y0199155D01*
X0159321Y0199605D01*
X0158421Y0199605D01*
X0157970Y0199155D01*
X0157970Y0198704D01*
X0158421Y0197803D01*
X0157069Y0197803D01*
X0157069Y0199605D01*
X0158421Y0196659D02*
X0158421Y0194857D01*
X0157970Y0194857D02*
X0157069Y0195758D01*
X0157970Y0194857D02*
X0159772Y0194857D01*
X0167069Y0195758D02*
X0167970Y0196659D01*
X0169772Y0196659D01*
X0168421Y0196659D02*
X0168421Y0194857D01*
X0167970Y0194857D02*
X0167069Y0195758D01*
X0167970Y0194857D02*
X0169772Y0194857D01*
X0168421Y0197803D02*
X0168421Y0199605D01*
X0169772Y0199155D02*
X0167069Y0199155D01*
X0168421Y0197803D01*
X0177069Y0198254D02*
X0177520Y0197803D01*
X0177069Y0198254D02*
X0177069Y0199155D01*
X0177520Y0199605D01*
X0177970Y0199605D01*
X0178421Y0199155D01*
X0178871Y0199605D01*
X0179321Y0199605D01*
X0179772Y0199155D01*
X0179772Y0198254D01*
X0179321Y0197803D01*
X0179772Y0196659D02*
X0177970Y0196659D01*
X0177069Y0195758D01*
X0177970Y0194857D01*
X0179772Y0194857D01*
X0178421Y0194857D02*
X0178421Y0196659D01*
X0178421Y0198704D02*
X0178421Y0199155D01*
X0186172Y0199001D02*
X0187973Y0199001D01*
X0187973Y0199452D02*
X0187973Y0197650D01*
X0189118Y0197650D02*
X0190920Y0197650D01*
X0190019Y0197650D02*
X0190019Y0200352D01*
X0189118Y0199452D01*
X0187973Y0199452D02*
X0187073Y0200352D01*
X0186172Y0199452D01*
X0186172Y0197650D01*
X0177863Y0191263D02*
X0177865Y0191310D01*
X0177871Y0191356D01*
X0177881Y0191402D01*
X0177894Y0191447D01*
X0177911Y0191490D01*
X0177932Y0191532D01*
X0177956Y0191572D01*
X0177984Y0191610D01*
X0178015Y0191646D01*
X0178048Y0191678D01*
X0178084Y0191708D01*
X0178122Y0191735D01*
X0178163Y0191758D01*
X0178205Y0191778D01*
X0178249Y0191795D01*
X0178294Y0191807D01*
X0178340Y0191816D01*
X0178387Y0191821D01*
X0178434Y0191822D01*
X0178480Y0191819D01*
X0178527Y0191812D01*
X0178572Y0191801D01*
X0178617Y0191787D01*
X0178660Y0191769D01*
X0178701Y0191747D01*
X0178741Y0191722D01*
X0178778Y0191694D01*
X0178813Y0191662D01*
X0178845Y0191628D01*
X0178874Y0191592D01*
X0178900Y0191553D01*
X0178923Y0191512D01*
X0178942Y0191469D01*
X0178957Y0191425D01*
X0178969Y0191379D01*
X0178977Y0191333D01*
X0178981Y0191286D01*
X0178981Y0191240D01*
X0178977Y0191193D01*
X0178969Y0191147D01*
X0178957Y0191101D01*
X0178942Y0191057D01*
X0178923Y0191014D01*
X0178900Y0190973D01*
X0178874Y0190934D01*
X0178845Y0190898D01*
X0178813Y0190864D01*
X0178778Y0190832D01*
X0178741Y0190804D01*
X0178702Y0190779D01*
X0178660Y0190757D01*
X0178617Y0190739D01*
X0178572Y0190725D01*
X0178527Y0190714D01*
X0178480Y0190707D01*
X0178434Y0190704D01*
X0178387Y0190705D01*
X0178340Y0190710D01*
X0178294Y0190719D01*
X0178249Y0190731D01*
X0178205Y0190748D01*
X0178163Y0190768D01*
X0178122Y0190791D01*
X0178084Y0190818D01*
X0178048Y0190848D01*
X0178015Y0190880D01*
X0177984Y0190916D01*
X0177956Y0190954D01*
X0177932Y0190994D01*
X0177911Y0191036D01*
X0177894Y0191079D01*
X0177881Y0191124D01*
X0177871Y0191170D01*
X0177865Y0191216D01*
X0177863Y0191263D01*
X0197069Y0195758D02*
X0197970Y0196659D01*
X0199772Y0196659D01*
X0199321Y0197803D02*
X0197520Y0199605D01*
X0199321Y0199605D01*
X0199772Y0199155D01*
X0199772Y0198254D01*
X0199321Y0197803D01*
X0197520Y0197803D01*
X0197069Y0198254D01*
X0197069Y0199155D01*
X0197520Y0199605D01*
X0198421Y0196659D02*
X0198421Y0194857D01*
X0197970Y0194857D02*
X0197069Y0195758D01*
X0197970Y0194857D02*
X0199772Y0194857D01*
X0207069Y0194857D02*
X0209772Y0194857D01*
X0209772Y0196659D01*
X0209772Y0197803D02*
X0207069Y0197803D01*
X0207069Y0199605D01*
X0208421Y0198704D02*
X0208421Y0197803D01*
X0207069Y0196659D02*
X0207069Y0194857D01*
X0207520Y0193712D02*
X0208421Y0193712D01*
X0208871Y0193262D01*
X0208871Y0191910D01*
X0209772Y0191910D02*
X0207069Y0191910D01*
X0207069Y0193262D01*
X0207520Y0193712D01*
X0208421Y0194857D02*
X0208421Y0195758D01*
X0209772Y0193712D02*
X0208871Y0192811D01*
X0208421Y0190765D02*
X0208421Y0188964D01*
X0207970Y0188964D02*
X0207069Y0189865D01*
X0207970Y0190765D01*
X0209772Y0190765D01*
X0209772Y0188964D02*
X0207970Y0188964D01*
X0235554Y0177768D02*
X0235554Y0177385D01*
X0235938Y0177001D01*
X0236705Y0177001D01*
X0237089Y0176617D01*
X0237089Y0176234D01*
X0236705Y0175850D01*
X0235938Y0175850D01*
X0235554Y0176234D01*
X0235554Y0177768D02*
X0235938Y0178152D01*
X0236705Y0178152D01*
X0237089Y0177768D01*
X0238133Y0178152D02*
X0238133Y0175850D01*
X0238900Y0176617D01*
X0239667Y0175850D01*
X0239667Y0178152D01*
X0240711Y0178152D02*
X0241862Y0178152D01*
X0242245Y0177768D01*
X0242245Y0176234D01*
X0241862Y0175850D01*
X0240711Y0175850D01*
X0240711Y0178152D01*
X0231145Y0173499D02*
X0231145Y0160901D01*
X0209098Y0160901D01*
X0209098Y0173499D01*
X0231145Y0173499D01*
X0228304Y0144394D02*
X0244662Y0144394D01*
X0244662Y0104394D01*
X0228304Y0104394D01*
X0224367Y0108331D01*
X0224367Y0140457D01*
X0228304Y0144394D01*
X0209772Y0139605D02*
X0209772Y0137803D01*
X0209772Y0138704D02*
X0207069Y0138704D01*
X0207970Y0137803D01*
X0207970Y0136659D02*
X0207520Y0136659D01*
X0207069Y0136208D01*
X0207069Y0135307D01*
X0207520Y0134857D01*
X0207520Y0133712D02*
X0207069Y0133262D01*
X0207069Y0131910D01*
X0209772Y0131910D01*
X0209772Y0133262D01*
X0209321Y0133712D01*
X0207520Y0133712D01*
X0209772Y0134857D02*
X0207970Y0136659D01*
X0209772Y0136659D02*
X0209772Y0134857D01*
X0209772Y0127819D02*
X0209772Y0126017D01*
X0207069Y0126017D01*
X0207520Y0124872D02*
X0207069Y0124422D01*
X0207069Y0123521D01*
X0207520Y0123071D01*
X0209321Y0123071D01*
X0209772Y0123521D01*
X0209772Y0124422D01*
X0209321Y0124872D01*
X0209321Y0121926D02*
X0209772Y0121476D01*
X0209772Y0120575D01*
X0209321Y0120124D01*
X0208421Y0120575D02*
X0208421Y0121476D01*
X0208871Y0121926D01*
X0209321Y0121926D01*
X0208421Y0120575D02*
X0207970Y0120124D01*
X0207520Y0120124D01*
X0207069Y0120575D01*
X0207069Y0121476D01*
X0207520Y0121926D01*
D11*
X0157807Y0078286D02*
X0157190Y0078903D01*
X0155338Y0078903D01*
X0155338Y0075200D01*
X0157190Y0075200D01*
X0157807Y0075817D01*
X0157807Y0078286D01*
X0154124Y0078903D02*
X0154124Y0075200D01*
X0151655Y0078903D01*
X0151655Y0075200D01*
X0150441Y0075817D02*
X0150441Y0077052D01*
X0149206Y0077052D01*
X0147972Y0078286D02*
X0147972Y0075817D01*
X0148589Y0075200D01*
X0149823Y0075200D01*
X0150441Y0075817D01*
X0150441Y0078286D02*
X0149823Y0078903D01*
X0148589Y0078903D01*
X0147972Y0078286D01*
X0135624Y0077052D02*
X0133155Y0077052D01*
X0131941Y0076434D02*
X0131941Y0078903D01*
X0131941Y0076434D02*
X0130706Y0075200D01*
X0129472Y0076434D01*
X0129472Y0078903D01*
X0134389Y0078286D02*
X0134389Y0075817D01*
X0168108Y0058855D02*
X0169076Y0059822D01*
X0169076Y0056920D01*
X0170043Y0056920D02*
X0168108Y0056920D01*
X0183088Y0057180D02*
X0185023Y0059115D01*
X0185023Y0059599D01*
X0184540Y0060082D01*
X0183572Y0060082D01*
X0183088Y0059599D01*
X0183088Y0057180D02*
X0185023Y0057180D01*
X0193018Y0057514D02*
X0193502Y0057030D01*
X0194470Y0057030D01*
X0194953Y0057514D01*
X0194953Y0057997D01*
X0194470Y0058481D01*
X0193986Y0058481D01*
X0194470Y0058481D02*
X0194953Y0058965D01*
X0194953Y0059449D01*
X0194470Y0059932D01*
X0193502Y0059932D01*
X0193018Y0059449D01*
X0210448Y0058571D02*
X0212383Y0058571D01*
X0211900Y0057120D02*
X0211900Y0060022D01*
X0210448Y0058571D01*
D12*
X0120817Y0048895D02*
X0120817Y0044958D01*
X0164912Y0044958D01*
X0164912Y0048895D01*
X0120817Y0048895D01*
X0120817Y0074485D01*
X0164912Y0074485D01*
X0164912Y0048895D01*
X0169422Y0047500D02*
X0171922Y0045000D01*
X0176922Y0045000D01*
X0179422Y0047500D01*
X0181922Y0045000D01*
X0186922Y0045000D01*
X0189422Y0047500D01*
X0191922Y0045000D01*
X0196922Y0045000D01*
X0199422Y0047500D01*
X0201922Y0045000D01*
X0206922Y0045000D01*
X0209422Y0047500D01*
X0209422Y0052500D01*
X0206922Y0055000D01*
X0201922Y0055000D01*
X0199422Y0052500D01*
X0196922Y0055000D01*
X0191922Y0055000D01*
X0189422Y0052500D01*
X0186922Y0055000D01*
X0181922Y0055000D01*
X0179422Y0052500D01*
X0176922Y0055000D01*
X0171922Y0055000D01*
X0169422Y0052500D01*
X0169422Y0047500D01*
X0186267Y0087364D02*
X0187054Y0087364D01*
X0186267Y0087364D02*
X0186267Y0107049D01*
X0187054Y0107049D01*
X0209495Y0107049D02*
X0210283Y0107049D01*
X0210283Y0099569D01*
X0210196Y0099567D01*
X0210109Y0099561D01*
X0210022Y0099552D01*
X0209936Y0099538D01*
X0209851Y0099521D01*
X0209766Y0099500D01*
X0209683Y0099475D01*
X0209600Y0099447D01*
X0209519Y0099415D01*
X0209440Y0099379D01*
X0209362Y0099340D01*
X0209286Y0099298D01*
X0209212Y0099252D01*
X0209140Y0099203D01*
X0209070Y0099151D01*
X0209003Y0099096D01*
X0208938Y0099038D01*
X0208875Y0098977D01*
X0208816Y0098913D01*
X0208759Y0098847D01*
X0208706Y0098778D01*
X0208655Y0098707D01*
X0208608Y0098634D01*
X0208563Y0098559D01*
X0208523Y0098482D01*
X0208485Y0098404D01*
X0208452Y0098323D01*
X0208421Y0098242D01*
X0208395Y0098159D01*
X0208372Y0098074D01*
X0208353Y0097989D01*
X0208338Y0097904D01*
X0208326Y0097817D01*
X0208318Y0097731D01*
X0208314Y0097644D01*
X0208314Y0097556D01*
X0208318Y0097469D01*
X0208326Y0097383D01*
X0208338Y0097296D01*
X0208353Y0097211D01*
X0208372Y0097126D01*
X0208395Y0097041D01*
X0208421Y0096958D01*
X0208452Y0096877D01*
X0208485Y0096796D01*
X0208523Y0096718D01*
X0208563Y0096641D01*
X0208608Y0096566D01*
X0208655Y0096493D01*
X0208706Y0096422D01*
X0208759Y0096353D01*
X0208816Y0096287D01*
X0208875Y0096223D01*
X0208938Y0096162D01*
X0209003Y0096104D01*
X0209070Y0096049D01*
X0209140Y0095997D01*
X0209212Y0095948D01*
X0209286Y0095902D01*
X0209362Y0095860D01*
X0209440Y0095821D01*
X0209519Y0095785D01*
X0209600Y0095753D01*
X0209683Y0095725D01*
X0209766Y0095700D01*
X0209851Y0095679D01*
X0209936Y0095662D01*
X0210022Y0095648D01*
X0210109Y0095639D01*
X0210196Y0095633D01*
X0210283Y0095631D01*
X0210283Y0087364D01*
X0209495Y0087364D01*
X0179814Y0156905D02*
X0177030Y0156905D01*
X0160326Y0173608D01*
X0160326Y0176392D01*
X0177030Y0193095D01*
X0179814Y0193095D01*
X0196517Y0176392D01*
X0196517Y0173608D01*
X0179814Y0156905D01*
X0152934Y0174606D02*
X0152934Y0177756D01*
X0150571Y0177756D01*
X0144272Y0177756D02*
X0141910Y0177756D01*
X0141910Y0174606D01*
X0140934Y0174606D02*
X0140934Y0177756D01*
X0138571Y0177756D01*
X0132272Y0177756D02*
X0129910Y0177756D01*
X0129910Y0174606D01*
X0128934Y0174606D02*
X0128934Y0177756D01*
X0126571Y0177756D01*
X0120272Y0177756D02*
X0117910Y0177756D01*
X0117910Y0174606D01*
X0116934Y0172256D02*
X0114571Y0172256D01*
X0116934Y0172256D02*
X0116934Y0169106D01*
X0108272Y0172256D02*
X0105910Y0172256D01*
X0105910Y0169106D01*
D13*
X0154302Y0182500D02*
X0154542Y0182500D01*
X0161507Y0160585D02*
X0161337Y0160415D01*
X0203422Y0166880D02*
X0203422Y0167120D01*
X0203422Y0171380D02*
X0203422Y0171620D01*
X0196922Y0191880D02*
X0196922Y0192120D01*
X0203302Y0194500D02*
X0203542Y0194500D01*
X0146922Y0118120D02*
X0146922Y0117880D01*
X0132042Y0110000D02*
X0131802Y0110000D01*
X0165802Y0110000D02*
X0166042Y0110000D01*
X0183422Y0115880D02*
X0183422Y0116120D01*
X0212922Y0116120D02*
X0212922Y0115880D01*
D14*
X0096815Y0138500D03*
D15*
X0233172Y0168000D02*
X0233172Y0170000D01*
D16*
X0135717Y0105795D02*
X0116819Y0105795D01*
X0110126Y0099102D01*
X0110126Y0096740D01*
X0110126Y0089260D02*
X0110126Y0086898D01*
X0116819Y0080205D01*
X0135717Y0080205D01*
X0135717Y0089260D01*
X0135717Y0096740D02*
X0135717Y0105795D01*
X0134537Y0089260D02*
X0134442Y0088977D01*
X0134340Y0088696D01*
X0134231Y0088419D01*
X0134116Y0088143D01*
X0133994Y0087871D01*
X0133865Y0087602D01*
X0133730Y0087336D01*
X0133588Y0087074D01*
X0133440Y0086815D01*
X0133286Y0086559D01*
X0133125Y0086308D01*
X0132958Y0086060D01*
X0132786Y0085817D01*
X0132607Y0085578D01*
X0132423Y0085343D01*
X0132233Y0085113D01*
X0132037Y0084888D01*
X0131836Y0084668D01*
X0131630Y0084452D01*
X0131418Y0084242D01*
X0131202Y0084037D01*
X0130980Y0083837D01*
X0130753Y0083643D01*
X0130522Y0083454D01*
X0130287Y0083271D01*
X0130047Y0083094D01*
X0129802Y0082923D01*
X0129554Y0082758D01*
X0129301Y0082599D01*
X0129045Y0082446D01*
X0128785Y0082299D01*
X0128522Y0082159D01*
X0128255Y0082025D01*
X0127985Y0081898D01*
X0127712Y0081778D01*
X0127437Y0081664D01*
X0127158Y0081557D01*
X0126877Y0081457D01*
X0126594Y0081364D01*
X0126308Y0081277D01*
X0126020Y0081198D01*
X0125731Y0081126D01*
X0125440Y0081061D01*
X0125147Y0081003D01*
X0124853Y0080952D01*
X0124558Y0080908D01*
X0124262Y0080872D01*
X0123965Y0080843D01*
X0123667Y0080821D01*
X0123369Y0080806D01*
X0123071Y0080799D01*
X0122773Y0080799D01*
X0122475Y0080806D01*
X0122177Y0080821D01*
X0121879Y0080843D01*
X0121582Y0080872D01*
X0121286Y0080908D01*
X0120991Y0080952D01*
X0120697Y0081003D01*
X0120404Y0081061D01*
X0120113Y0081126D01*
X0119824Y0081198D01*
X0119536Y0081277D01*
X0119250Y0081364D01*
X0118967Y0081457D01*
X0118686Y0081557D01*
X0118407Y0081664D01*
X0118132Y0081778D01*
X0117859Y0081898D01*
X0117589Y0082025D01*
X0117322Y0082159D01*
X0117059Y0082299D01*
X0116799Y0082446D01*
X0116543Y0082599D01*
X0116290Y0082758D01*
X0116042Y0082923D01*
X0115797Y0083094D01*
X0115557Y0083271D01*
X0115322Y0083454D01*
X0115091Y0083643D01*
X0114864Y0083837D01*
X0114642Y0084037D01*
X0114426Y0084242D01*
X0114214Y0084452D01*
X0114008Y0084668D01*
X0113807Y0084888D01*
X0113611Y0085113D01*
X0113421Y0085343D01*
X0113237Y0085578D01*
X0113058Y0085817D01*
X0112886Y0086060D01*
X0112719Y0086308D01*
X0112558Y0086559D01*
X0112404Y0086815D01*
X0112256Y0087074D01*
X0112114Y0087336D01*
X0111979Y0087602D01*
X0111850Y0087871D01*
X0111728Y0088143D01*
X0111613Y0088419D01*
X0111504Y0088696D01*
X0111402Y0088977D01*
X0111307Y0089260D01*
X0111307Y0096740D02*
X0111402Y0097023D01*
X0111504Y0097304D01*
X0111613Y0097581D01*
X0111728Y0097857D01*
X0111850Y0098129D01*
X0111979Y0098398D01*
X0112114Y0098664D01*
X0112256Y0098926D01*
X0112404Y0099185D01*
X0112558Y0099441D01*
X0112719Y0099692D01*
X0112886Y0099940D01*
X0113058Y0100183D01*
X0113237Y0100422D01*
X0113421Y0100657D01*
X0113611Y0100887D01*
X0113807Y0101112D01*
X0114008Y0101332D01*
X0114214Y0101548D01*
X0114426Y0101758D01*
X0114642Y0101963D01*
X0114864Y0102163D01*
X0115091Y0102357D01*
X0115322Y0102546D01*
X0115557Y0102729D01*
X0115797Y0102906D01*
X0116042Y0103077D01*
X0116290Y0103242D01*
X0116543Y0103401D01*
X0116799Y0103554D01*
X0117059Y0103701D01*
X0117322Y0103841D01*
X0117589Y0103975D01*
X0117859Y0104102D01*
X0118132Y0104222D01*
X0118407Y0104336D01*
X0118686Y0104443D01*
X0118967Y0104543D01*
X0119250Y0104636D01*
X0119536Y0104723D01*
X0119824Y0104802D01*
X0120113Y0104874D01*
X0120404Y0104939D01*
X0120697Y0104997D01*
X0120991Y0105048D01*
X0121286Y0105092D01*
X0121582Y0105128D01*
X0121879Y0105157D01*
X0122177Y0105179D01*
X0122475Y0105194D01*
X0122773Y0105201D01*
X0123071Y0105201D01*
X0123369Y0105194D01*
X0123667Y0105179D01*
X0123965Y0105157D01*
X0124262Y0105128D01*
X0124558Y0105092D01*
X0124853Y0105048D01*
X0125147Y0104997D01*
X0125440Y0104939D01*
X0125731Y0104874D01*
X0126020Y0104802D01*
X0126308Y0104723D01*
X0126594Y0104636D01*
X0126877Y0104543D01*
X0127158Y0104443D01*
X0127437Y0104336D01*
X0127712Y0104222D01*
X0127985Y0104102D01*
X0128255Y0103975D01*
X0128522Y0103841D01*
X0128785Y0103701D01*
X0129045Y0103554D01*
X0129301Y0103401D01*
X0129554Y0103242D01*
X0129802Y0103077D01*
X0130047Y0102906D01*
X0130287Y0102729D01*
X0130522Y0102546D01*
X0130753Y0102357D01*
X0130980Y0102163D01*
X0131202Y0101963D01*
X0131418Y0101758D01*
X0131630Y0101548D01*
X0131836Y0101332D01*
X0132037Y0101112D01*
X0132233Y0100887D01*
X0132423Y0100657D01*
X0132607Y0100422D01*
X0132786Y0100183D01*
X0132958Y0099940D01*
X0133125Y0099692D01*
X0133286Y0099441D01*
X0133440Y0099185D01*
X0133588Y0098926D01*
X0133730Y0098664D01*
X0133865Y0098398D01*
X0133994Y0098129D01*
X0134116Y0097857D01*
X0134231Y0097581D01*
X0134340Y0097304D01*
X0134442Y0097023D01*
X0134537Y0096740D01*
D17*
X0122422Y0109380D02*
X0122422Y0109620D01*
X0122422Y0115380D02*
X0122422Y0115620D01*
D18*
X0110922Y0110100D03*
X0093222Y0112425D03*
X0093222Y0122775D03*
D19*
X0094722Y0123262D03*
X0104622Y0119537D03*
X0104647Y0119512D03*
X0106147Y0113437D03*
X0110897Y0110112D03*
X0094672Y0109637D03*
X0093347Y0109587D03*
X0096697Y0130812D03*
X0096672Y0130837D03*
X0096622Y0130862D03*
D20*
X0091622Y0130400D03*
X0093922Y0123375D03*
X0093947Y0123375D03*
X0093972Y0123375D03*
X0093997Y0123400D03*
X0094022Y0123400D03*
X0094047Y0123400D03*
X0094072Y0123400D03*
X0094097Y0123400D03*
X0094122Y0123400D03*
X0094147Y0123400D03*
X0094172Y0123400D03*
X0094197Y0123400D03*
X0094297Y0123375D03*
X0094322Y0123375D03*
X0094347Y0123375D03*
X0094372Y0123375D03*
X0094447Y0123350D03*
X0092847Y0119575D03*
X0091547Y0119600D03*
X0094122Y0113150D03*
X0094147Y0113150D03*
X0094172Y0113150D03*
X0104197Y0116575D03*
X0106122Y0117225D03*
X0110872Y0110075D03*
X0102447Y0103950D03*
X0093597Y0101775D03*
D21*
X0102397Y0103887D03*
X0101572Y0109762D03*
X0096522Y0112762D03*
X0096472Y0112787D03*
X0096422Y0112812D03*
X0096372Y0112837D03*
X0096322Y0112862D03*
X0096272Y0112887D03*
X0096247Y0112887D03*
X0096197Y0112912D03*
X0096122Y0112937D03*
X0094347Y0113137D03*
X0094472Y0109687D03*
X0088972Y0109737D03*
X0101622Y0114837D03*
X0104272Y0116562D03*
X0110847Y0110062D03*
X0093322Y0126012D03*
D22*
X0097797Y0124937D03*
X0097797Y0127162D03*
X0097847Y0121762D03*
X0091647Y0119587D03*
X0101397Y0118312D03*
X0102497Y0115337D03*
X0102522Y0115337D03*
X0102572Y0115362D03*
X0102597Y0115362D03*
X0104272Y0115212D03*
X0104347Y0115187D03*
X0104422Y0115162D03*
X0104547Y0115112D03*
X0104597Y0115087D03*
X0104647Y0115062D03*
X0104672Y0115062D03*
X0104697Y0115037D03*
X0104747Y0115012D03*
X0104797Y0116412D03*
X0104422Y0116537D03*
X0104397Y0116537D03*
X0106097Y0113462D03*
X0106047Y0110912D03*
X0106047Y0108687D03*
X0110822Y0110062D03*
X0102297Y0103787D03*
X0094297Y0109712D03*
X0094272Y0109712D03*
X0094572Y0113062D03*
X0094597Y0113062D03*
X0096872Y0112512D03*
X0096897Y0112487D03*
X0088997Y0109662D03*
D23*
X0097797Y0115800D03*
X0092672Y0119600D03*
X0091747Y0119600D03*
X0091722Y0119600D03*
X0097772Y0124950D03*
X0106072Y0117250D03*
X0105072Y0114775D03*
X0105097Y0114750D03*
X0110797Y0110050D03*
X0106022Y0108700D03*
X0102122Y0103650D03*
X0093322Y0101500D03*
X0093297Y0101475D03*
X0093272Y0101475D03*
D24*
X0093022Y0101362D03*
X0092997Y0101362D03*
X0092947Y0101337D03*
X0101772Y0103512D03*
X0101797Y0103512D03*
X0101847Y0103537D03*
X0101872Y0103537D03*
X0093597Y0109512D03*
X0101647Y0111237D03*
X0101672Y0111237D03*
X0101697Y0111237D03*
X0097797Y0114287D03*
X0097772Y0115812D03*
X0095272Y0117262D03*
X0095097Y0117287D03*
X0095072Y0117287D03*
X0095047Y0117287D03*
X0095022Y0117287D03*
X0094997Y0117287D03*
X0094972Y0117287D03*
X0094947Y0117287D03*
X0094722Y0117312D03*
X0094697Y0117312D03*
X0094672Y0117312D03*
X0094572Y0117287D03*
X0094547Y0117287D03*
X0094522Y0117287D03*
X0094497Y0117287D03*
X0094472Y0117287D03*
X0094447Y0117287D03*
X0094422Y0117287D03*
X0094397Y0117287D03*
X0093422Y0116787D03*
X0092572Y0119612D03*
X0093347Y0122712D03*
X0093397Y0127487D03*
X0093422Y0127487D03*
X0093447Y0127487D03*
X0091697Y0130137D03*
X0106047Y0117262D03*
X0110772Y0110037D03*
D25*
X0110747Y0110025D03*
X0105947Y0110950D03*
X0104572Y0110600D03*
X0104547Y0110600D03*
X0104522Y0110600D03*
X0104472Y0110625D03*
X0104447Y0110625D03*
X0104422Y0110625D03*
X0104397Y0110625D03*
X0104372Y0110650D03*
X0104347Y0110650D03*
X0104322Y0110650D03*
X0104297Y0110650D03*
X0104272Y0110650D03*
X0104247Y0110675D03*
X0104222Y0110675D03*
X0104197Y0110675D03*
X0104172Y0110675D03*
X0104122Y0110700D03*
X0104097Y0110700D03*
X0104072Y0110700D03*
X0104047Y0110700D03*
X0103997Y0110725D03*
X0103972Y0110725D03*
X0103947Y0110725D03*
X0103922Y0110725D03*
X0103897Y0110750D03*
X0103872Y0110750D03*
X0103847Y0110750D03*
X0103822Y0110750D03*
X0103772Y0110775D03*
X0103747Y0110775D03*
X0103722Y0110775D03*
X0103697Y0110775D03*
X0103647Y0110800D03*
X0103622Y0110800D03*
X0103597Y0110800D03*
X0103572Y0110800D03*
X0103522Y0110825D03*
X0103497Y0110825D03*
X0103472Y0110825D03*
X0103447Y0110825D03*
X0103397Y0110850D03*
X0103372Y0110850D03*
X0103347Y0110850D03*
X0103272Y0110875D03*
X0103247Y0110875D03*
X0103222Y0110875D03*
X0103147Y0110900D03*
X0103122Y0110900D03*
X0103097Y0110900D03*
X0103022Y0110925D03*
X0102997Y0110925D03*
X0102922Y0110950D03*
X0102897Y0110950D03*
X0102872Y0110950D03*
X0102797Y0110975D03*
X0102772Y0110975D03*
X0102747Y0110975D03*
X0102672Y0111000D03*
X0102647Y0111000D03*
X0102622Y0111000D03*
X0102547Y0111025D03*
X0102522Y0111025D03*
X0102422Y0111050D03*
X0102397Y0111050D03*
X0102797Y0113250D03*
X0102822Y0113250D03*
X0102847Y0113250D03*
X0102872Y0113250D03*
X0102922Y0113225D03*
X0102947Y0113225D03*
X0102972Y0113225D03*
X0102997Y0113225D03*
X0103047Y0113200D03*
X0103072Y0113200D03*
X0103097Y0113200D03*
X0103147Y0113175D03*
X0103172Y0113175D03*
X0103197Y0113175D03*
X0103222Y0113175D03*
X0103272Y0113150D03*
X0103297Y0113150D03*
X0103322Y0113150D03*
X0103347Y0113150D03*
X0103397Y0113125D03*
X0103422Y0113125D03*
X0103447Y0113125D03*
X0103497Y0113100D03*
X0103522Y0113100D03*
X0103547Y0113100D03*
X0103572Y0113100D03*
X0103622Y0113075D03*
X0103647Y0113075D03*
X0103672Y0113075D03*
X0103697Y0113075D03*
X0103747Y0113050D03*
X0103772Y0113050D03*
X0103797Y0113050D03*
X0103847Y0113025D03*
X0103872Y0113025D03*
X0103897Y0113025D03*
X0103922Y0113025D03*
X0103972Y0113000D03*
X0103997Y0113000D03*
X0104022Y0113000D03*
X0104047Y0113000D03*
X0104097Y0112975D03*
X0104122Y0112975D03*
X0104147Y0112975D03*
X0104222Y0112950D03*
X0104247Y0112950D03*
X0104272Y0112950D03*
X0104322Y0112925D03*
X0104347Y0112925D03*
X0104372Y0112925D03*
X0104422Y0112900D03*
X0104447Y0112900D03*
X0104472Y0112900D03*
X0104522Y0112875D03*
X0104547Y0112875D03*
X0102747Y0113275D03*
X0102722Y0113275D03*
X0102697Y0113275D03*
X0102647Y0113300D03*
X0102622Y0113300D03*
X0102597Y0113300D03*
X0102572Y0113300D03*
X0102522Y0113325D03*
X0102497Y0113325D03*
X0102472Y0113325D03*
X0102447Y0113325D03*
X0100072Y0113825D03*
X0099847Y0113875D03*
X0097747Y0115825D03*
X0096872Y0114500D03*
X0096847Y0114500D03*
X0096747Y0114525D03*
X0096722Y0114525D03*
X0096622Y0114550D03*
X0096497Y0114575D03*
X0096372Y0114600D03*
X0096272Y0114625D03*
X0096247Y0114625D03*
X0096147Y0114650D03*
X0096122Y0114650D03*
X0096022Y0114675D03*
X0095922Y0114700D03*
X0095897Y0114700D03*
X0095797Y0114725D03*
X0095772Y0114725D03*
X0095672Y0114750D03*
X0095647Y0114750D03*
X0095572Y0114775D03*
X0095547Y0114775D03*
X0095447Y0114800D03*
X0095422Y0114800D03*
X0095322Y0114825D03*
X0095297Y0114825D03*
X0095197Y0114850D03*
X0095172Y0114850D03*
X0094472Y0115000D03*
X0094447Y0115000D03*
X0094397Y0115025D03*
X0093147Y0115275D03*
X0093022Y0115300D03*
X0093447Y0116775D03*
X0094172Y0117225D03*
X0095947Y0117125D03*
X0096047Y0117100D03*
X0096122Y0117075D03*
X0096197Y0117050D03*
X0096247Y0117025D03*
X0096272Y0117025D03*
X0096297Y0117000D03*
X0096322Y0117000D03*
X0096347Y0117000D03*
X0096372Y0116975D03*
X0096397Y0116975D03*
X0096497Y0118700D03*
X0096522Y0118700D03*
X0096547Y0118700D03*
X0096572Y0118700D03*
X0096597Y0118700D03*
X0096622Y0118700D03*
X0096647Y0118700D03*
X0096672Y0118700D03*
X0096697Y0118700D03*
X0096722Y0118700D03*
X0096747Y0118700D03*
X0096772Y0118700D03*
X0096422Y0118725D03*
X0096397Y0118725D03*
X0096372Y0118725D03*
X0096347Y0118725D03*
X0096297Y0118750D03*
X0096272Y0118750D03*
X0096247Y0118750D03*
X0096222Y0118750D03*
X0096197Y0118750D03*
X0096172Y0118775D03*
X0096147Y0118775D03*
X0096122Y0118775D03*
X0096097Y0118775D03*
X0096072Y0118775D03*
X0096047Y0118800D03*
X0096022Y0118800D03*
X0095997Y0118800D03*
X0095972Y0118800D03*
X0095947Y0118800D03*
X0095922Y0118825D03*
X0095897Y0118825D03*
X0095872Y0118825D03*
X0095847Y0118825D03*
X0095797Y0118850D03*
X0095772Y0118850D03*
X0095747Y0118850D03*
X0095722Y0118850D03*
X0095672Y0118875D03*
X0095647Y0118875D03*
X0095622Y0118875D03*
X0095597Y0118875D03*
X0095547Y0118900D03*
X0095522Y0118900D03*
X0095497Y0118900D03*
X0095472Y0118900D03*
X0095447Y0118925D03*
X0095422Y0118925D03*
X0095397Y0118925D03*
X0095372Y0118925D03*
X0095322Y0118950D03*
X0095297Y0118950D03*
X0095272Y0118950D03*
X0095247Y0118950D03*
X0095197Y0118975D03*
X0095172Y0118975D03*
X0095147Y0118975D03*
X0095122Y0118975D03*
X0095072Y0119000D03*
X0095047Y0119000D03*
X0095022Y0119000D03*
X0094997Y0119000D03*
X0094947Y0119025D03*
X0094922Y0119025D03*
X0094897Y0119025D03*
X0094822Y0119050D03*
X0094797Y0119050D03*
X0094772Y0119050D03*
X0094697Y0119075D03*
X0094672Y0119075D03*
X0094647Y0119075D03*
X0094597Y0119100D03*
X0094572Y0119100D03*
X0094547Y0119100D03*
X0094472Y0119125D03*
X0094447Y0119125D03*
X0094422Y0119125D03*
X0094347Y0119150D03*
X0094322Y0119150D03*
X0094297Y0119150D03*
X0094222Y0119175D03*
X0094197Y0119175D03*
X0094172Y0119175D03*
X0094097Y0119200D03*
X0094072Y0119200D03*
X0093972Y0119225D03*
X0093947Y0119225D03*
X0093847Y0119250D03*
X0093822Y0119250D03*
X0093747Y0119275D03*
X0093722Y0119275D03*
X0093622Y0119300D03*
X0093597Y0119300D03*
X0093497Y0119325D03*
X0093472Y0119325D03*
X0093372Y0119350D03*
X0093347Y0119350D03*
X0092522Y0119600D03*
X0092497Y0119600D03*
X0091897Y0119600D03*
X0091872Y0119600D03*
X0093922Y0121925D03*
X0093897Y0121950D03*
X0094422Y0121550D03*
X0094522Y0121500D03*
X0094572Y0121475D03*
X0094622Y0121450D03*
X0094672Y0121425D03*
X0094722Y0121400D03*
X0094747Y0121400D03*
X0094772Y0121375D03*
X0094797Y0121375D03*
X0094847Y0121350D03*
X0094872Y0121350D03*
X0094922Y0121325D03*
X0094947Y0121325D03*
X0094997Y0121300D03*
X0095072Y0121275D03*
X0095147Y0121250D03*
X0095222Y0121225D03*
X0095297Y0121200D03*
X0095322Y0121200D03*
X0095747Y0121100D03*
X0097797Y0121800D03*
X0096072Y0124425D03*
X0095872Y0124450D03*
X0095847Y0124450D03*
X0095722Y0124475D03*
X0095497Y0124525D03*
X0095297Y0124575D03*
X0095222Y0124600D03*
X0095147Y0124625D03*
X0095072Y0124650D03*
X0094997Y0124675D03*
X0094947Y0124700D03*
X0094922Y0124700D03*
X0094872Y0124725D03*
X0094847Y0124725D03*
X0094822Y0124750D03*
X0094797Y0124750D03*
X0094747Y0124775D03*
X0094697Y0124800D03*
X0094647Y0124825D03*
X0094597Y0124850D03*
X0094547Y0124875D03*
X0094497Y0124900D03*
X0094472Y0124925D03*
X0094422Y0124950D03*
X0094372Y0124975D03*
X0094847Y0127150D03*
X0094872Y0127150D03*
X0094897Y0127150D03*
X0094972Y0127125D03*
X0094997Y0127125D03*
X0095022Y0127125D03*
X0095097Y0127100D03*
X0095122Y0127100D03*
X0095147Y0127100D03*
X0095197Y0127075D03*
X0095222Y0127075D03*
X0095247Y0127075D03*
X0095272Y0127075D03*
X0095322Y0127050D03*
X0095347Y0127050D03*
X0095372Y0127050D03*
X0095397Y0127050D03*
X0095447Y0127025D03*
X0095472Y0127025D03*
X0095497Y0127025D03*
X0095522Y0127025D03*
X0095572Y0127000D03*
X0095597Y0127000D03*
X0095622Y0127000D03*
X0095647Y0127000D03*
X0095672Y0126975D03*
X0095697Y0126975D03*
X0095722Y0126975D03*
X0095747Y0126975D03*
X0095797Y0126950D03*
X0095822Y0126950D03*
X0095847Y0126950D03*
X0095872Y0126950D03*
X0095922Y0126925D03*
X0095947Y0126925D03*
X0095972Y0126925D03*
X0095997Y0126925D03*
X0096022Y0126900D03*
X0096047Y0126900D03*
X0096072Y0126900D03*
X0096097Y0126900D03*
X0096122Y0126900D03*
X0096147Y0126875D03*
X0096172Y0126875D03*
X0096197Y0126875D03*
X0096222Y0126875D03*
X0096272Y0126850D03*
X0096297Y0126850D03*
X0096322Y0126850D03*
X0097697Y0127200D03*
X0096222Y0129150D03*
X0096197Y0129150D03*
X0096122Y0129175D03*
X0096097Y0129175D03*
X0096072Y0129175D03*
X0096047Y0129200D03*
X0096022Y0129200D03*
X0095997Y0129200D03*
X0095972Y0129200D03*
X0095922Y0129225D03*
X0095897Y0129225D03*
X0095872Y0129225D03*
X0095847Y0129225D03*
X0095797Y0129250D03*
X0095772Y0129250D03*
X0095747Y0129250D03*
X0095722Y0129250D03*
X0095697Y0129275D03*
X0095672Y0129275D03*
X0095647Y0129275D03*
X0095622Y0129275D03*
X0095597Y0129275D03*
X0095572Y0129300D03*
X0095547Y0129300D03*
X0095522Y0129300D03*
X0095497Y0129300D03*
X0095447Y0129325D03*
X0095422Y0129325D03*
X0095397Y0129325D03*
X0095372Y0129325D03*
X0095322Y0129350D03*
X0095297Y0129350D03*
X0095272Y0129350D03*
X0095247Y0129350D03*
X0095197Y0129375D03*
X0095172Y0129375D03*
X0095147Y0129375D03*
X0095097Y0129400D03*
X0095072Y0129400D03*
X0095047Y0129400D03*
X0095022Y0129400D03*
X0094972Y0129425D03*
X0094947Y0129425D03*
X0094922Y0129425D03*
X0094897Y0129425D03*
X0094847Y0129450D03*
X0094822Y0129450D03*
X0094797Y0129450D03*
X0094722Y0129475D03*
X0094697Y0129475D03*
X0094672Y0129475D03*
X0094597Y0129500D03*
X0094572Y0129500D03*
X0094547Y0129500D03*
X0094472Y0129525D03*
X0094447Y0129525D03*
X0094372Y0129550D03*
X0094347Y0129550D03*
X0094322Y0129550D03*
X0094247Y0129575D03*
X0094222Y0129575D03*
X0094197Y0129575D03*
X0094122Y0129600D03*
X0094097Y0129600D03*
X0093997Y0129625D03*
X0093972Y0129625D03*
X0093872Y0129650D03*
X0093847Y0129650D03*
X0093772Y0129675D03*
X0093747Y0129675D03*
X0093722Y0129675D03*
X0093647Y0129700D03*
X0093622Y0129700D03*
X0093522Y0129725D03*
X0093497Y0129725D03*
X0093397Y0129750D03*
X0093372Y0129750D03*
X0093272Y0129775D03*
X0093147Y0129800D03*
X0093047Y0129825D03*
X0093022Y0129825D03*
X0092922Y0129850D03*
X0092797Y0129875D03*
X0092672Y0129900D03*
X0092447Y0129950D03*
X0092322Y0129975D03*
X0091847Y0130075D03*
X0094147Y0127300D03*
X0094172Y0127300D03*
X0094272Y0127275D03*
X0094297Y0127275D03*
X0094372Y0127250D03*
X0094397Y0127250D03*
X0094422Y0127250D03*
X0094497Y0127225D03*
X0094522Y0127225D03*
X0094547Y0127225D03*
X0094622Y0127200D03*
X0094647Y0127200D03*
X0094672Y0127200D03*
X0094747Y0127175D03*
X0094772Y0127175D03*
X0103422Y0118250D03*
X0103447Y0118250D03*
X0103672Y0118275D03*
X0103697Y0118275D03*
X0103722Y0118275D03*
X0103747Y0118275D03*
X0103772Y0118275D03*
X0103922Y0118300D03*
X0103947Y0118300D03*
X0103972Y0118300D03*
X0103997Y0118300D03*
X0104022Y0118300D03*
X0104047Y0118300D03*
X0104072Y0118300D03*
X0104222Y0118325D03*
X0104247Y0118325D03*
X0104272Y0118325D03*
X0104297Y0118325D03*
X0104322Y0118325D03*
X0104347Y0118325D03*
X0104372Y0118325D03*
X0104397Y0118325D03*
X0104422Y0118325D03*
X0104447Y0118325D03*
X0104472Y0118325D03*
X0104497Y0118325D03*
X0104522Y0118325D03*
X0104547Y0118325D03*
X0104572Y0118325D03*
X0104597Y0118325D03*
X0104622Y0118325D03*
X0104647Y0118325D03*
X0104672Y0118325D03*
X0104697Y0118325D03*
X0104722Y0118325D03*
X0095147Y0113275D03*
X0094147Y0111375D03*
X0094172Y0111350D03*
X0094222Y0111325D03*
X0094247Y0111300D03*
X0094272Y0111300D03*
X0094297Y0111275D03*
X0094322Y0111250D03*
X0094372Y0111225D03*
X0094397Y0111200D03*
X0094422Y0111200D03*
X0094447Y0111175D03*
X0094497Y0111150D03*
X0094522Y0111125D03*
X0094547Y0111125D03*
X0094572Y0111100D03*
X0094597Y0111100D03*
X0094647Y0111075D03*
X0094697Y0111050D03*
X0094747Y0111025D03*
X0094797Y0111000D03*
X0094822Y0111000D03*
X0094872Y0110975D03*
X0094947Y0110950D03*
X0095222Y0110850D03*
X0095297Y0110825D03*
X0093622Y0109500D03*
X0093372Y0108025D03*
X0093347Y0108025D03*
X0093472Y0108000D03*
X0093597Y0107975D03*
X0094472Y0107800D03*
X0094497Y0107800D03*
X0094572Y0107775D03*
X0094597Y0107775D03*
X0094697Y0107750D03*
X0094722Y0107750D03*
X0094797Y0107725D03*
X0094822Y0107725D03*
X0094847Y0107725D03*
X0094922Y0107700D03*
X0094947Y0107700D03*
X0094972Y0107700D03*
X0095047Y0107675D03*
X0095072Y0107675D03*
X0095172Y0107650D03*
X0095197Y0107650D03*
X0095297Y0107625D03*
X0095322Y0107625D03*
X0095422Y0107600D03*
X0095447Y0107600D03*
X0095522Y0107575D03*
X0095547Y0107575D03*
X0095647Y0107550D03*
X0095672Y0107550D03*
X0095772Y0107525D03*
X0095797Y0107525D03*
X0095897Y0107500D03*
X0095922Y0107500D03*
X0096022Y0107475D03*
X0096147Y0107450D03*
X0096272Y0107425D03*
X0096372Y0107400D03*
X0096397Y0107400D03*
X0096497Y0107375D03*
X0096622Y0107350D03*
X0096747Y0107325D03*
X0096872Y0107300D03*
X0097097Y0107250D03*
X0097222Y0107225D03*
X0097347Y0107200D03*
X0102622Y0108725D03*
X0102672Y0108700D03*
X0102722Y0108675D03*
X0102747Y0108650D03*
X0102797Y0108625D03*
X0102847Y0108600D03*
X0102897Y0108575D03*
X0102947Y0108550D03*
X0102997Y0108525D03*
X0103047Y0108500D03*
X0103072Y0108500D03*
X0103097Y0108475D03*
X0103122Y0108475D03*
X0103172Y0108450D03*
X0103197Y0108450D03*
X0103247Y0108425D03*
X0103322Y0108400D03*
X0103397Y0108375D03*
X0103472Y0108350D03*
X0103547Y0108325D03*
X0103747Y0108275D03*
X0103972Y0108225D03*
X0104097Y0108200D03*
X0104122Y0108200D03*
X0104322Y0108175D03*
X0101572Y0103475D03*
X0101547Y0103475D03*
X0101522Y0103475D03*
X0101497Y0103475D03*
X0101472Y0103475D03*
X0092722Y0101300D03*
X0092697Y0101300D03*
X0092672Y0101300D03*
X0092647Y0101300D03*
X0092622Y0101300D03*
D26*
X0091322Y0101462D03*
X0091297Y0101462D03*
X0091272Y0101487D03*
X0091247Y0101487D03*
X0091222Y0101487D03*
X0091197Y0101512D03*
X0091172Y0101512D03*
X0091122Y0101537D03*
X0098897Y0104762D03*
X0098922Y0104712D03*
X0098947Y0104687D03*
X0102272Y0109037D03*
X0102272Y0111012D03*
X0104872Y0110487D03*
X0105897Y0110962D03*
X0104872Y0112787D03*
X0104847Y0112787D03*
X0106022Y0113512D03*
X0110722Y0110012D03*
X0105072Y0108237D03*
X0096897Y0110762D03*
X0093397Y0112337D03*
X0094222Y0115112D03*
X0094197Y0115137D03*
X0092222Y0119612D03*
X0092197Y0119612D03*
X0092172Y0119612D03*
X0092147Y0119612D03*
X0093397Y0122687D03*
X0094022Y0125287D03*
X0094022Y0127262D03*
X0096622Y0126737D03*
X0097647Y0127212D03*
X0096622Y0129037D03*
X0096597Y0129037D03*
X0096397Y0124362D03*
X0101722Y0118087D03*
X0101747Y0118087D03*
X0101772Y0118087D03*
X0094347Y0107887D03*
X0090597Y0108287D03*
D27*
X0094272Y0107950D03*
X0096922Y0110800D03*
X0093422Y0112325D03*
X0093522Y0116775D03*
X0096897Y0116625D03*
X0097647Y0119100D03*
X0096647Y0120975D03*
X0096622Y0120975D03*
X0093422Y0122675D03*
X0096472Y0124325D03*
X0096722Y0126700D03*
X0097622Y0127225D03*
X0096722Y0129000D03*
X0097647Y0129500D03*
X0101872Y0118075D03*
X0101897Y0118075D03*
X0101922Y0118075D03*
X0105872Y0110975D03*
X0104972Y0110450D03*
X0110697Y0110000D03*
X0090897Y0101650D03*
X0090847Y0101675D03*
D28*
X0090672Y0101787D03*
X0090647Y0101812D03*
X0097622Y0107287D03*
X0097647Y0107287D03*
X0104997Y0112762D03*
X0105022Y0112762D03*
X0110672Y0109987D03*
X0102147Y0118037D03*
X0102122Y0118037D03*
X0102097Y0118037D03*
X0097622Y0119112D03*
X0096697Y0120962D03*
X0096947Y0116562D03*
X0094097Y0115212D03*
X0096522Y0124312D03*
X0096797Y0128987D03*
X0097622Y0129512D03*
D29*
X0096847Y0128975D03*
X0093572Y0125875D03*
X0096597Y0124275D03*
X0097572Y0124950D03*
X0097722Y0121800D03*
X0093472Y0122675D03*
X0102322Y0118000D03*
X0105947Y0117275D03*
X0110647Y0109975D03*
X0105822Y0108700D03*
X0101822Y0109625D03*
X0093472Y0112325D03*
D30*
X0097647Y0111375D03*
X0094197Y0108050D03*
X0097722Y0107200D03*
X0105797Y0108700D03*
X0105772Y0111000D03*
X0105947Y0113525D03*
X0110622Y0109975D03*
X0102422Y0118000D03*
X0102397Y0118000D03*
X0102372Y0118000D03*
X0097572Y0119125D03*
X0096797Y0120925D03*
X0096622Y0124250D03*
X0097547Y0124950D03*
X0097522Y0127250D03*
X0097572Y0129525D03*
X0090497Y0101975D03*
D31*
X0105747Y0108725D03*
X0110597Y0109975D03*
X0105922Y0113525D03*
X0105222Y0118275D03*
X0105197Y0118300D03*
X0105172Y0118325D03*
X0105147Y0118375D03*
X0105122Y0118400D03*
X0102697Y0117950D03*
X0102672Y0117950D03*
X0102647Y0117950D03*
X0094622Y0114725D03*
X0093522Y0112300D03*
X0093522Y0122650D03*
X0096697Y0124225D03*
X0097497Y0124975D03*
D32*
X0096722Y0124212D03*
X0093547Y0122637D03*
X0102772Y0117937D03*
X0102797Y0117937D03*
X0102822Y0117937D03*
X0104922Y0118562D03*
X0104947Y0118537D03*
X0105272Y0118162D03*
X0105897Y0113537D03*
X0110572Y0109962D03*
X0097597Y0111387D03*
X0093547Y0112287D03*
X0097772Y0107112D03*
X0090347Y0102137D03*
D33*
X0090297Y0102225D03*
X0098772Y0106850D03*
X0098797Y0106850D03*
X0098847Y0106825D03*
X0098872Y0106825D03*
X0098897Y0106825D03*
X0098922Y0106825D03*
X0098947Y0106800D03*
X0098972Y0106800D03*
X0098997Y0106800D03*
X0099022Y0106800D03*
X0099047Y0106800D03*
X0099072Y0106775D03*
X0099097Y0106775D03*
X0099122Y0106775D03*
X0099147Y0106775D03*
X0099197Y0106750D03*
X0099222Y0106750D03*
X0099247Y0106750D03*
X0099272Y0106750D03*
X0099297Y0106725D03*
X0099322Y0106725D03*
X0099347Y0106725D03*
X0099372Y0106725D03*
X0099397Y0106725D03*
X0099422Y0106700D03*
X0099447Y0106700D03*
X0099472Y0106700D03*
X0099497Y0106700D03*
X0099547Y0106675D03*
X0099572Y0106675D03*
X0099597Y0106675D03*
X0099622Y0106675D03*
X0099647Y0106650D03*
X0099672Y0106650D03*
X0099697Y0106650D03*
X0099722Y0106650D03*
X0099747Y0106650D03*
X0099772Y0106625D03*
X0099797Y0106625D03*
X0099822Y0106625D03*
X0099847Y0106625D03*
X0099897Y0106600D03*
X0099922Y0106600D03*
X0099947Y0106600D03*
X0099972Y0106600D03*
X0099997Y0106575D03*
X0100022Y0106575D03*
X0100047Y0106575D03*
X0100072Y0106575D03*
X0100097Y0106575D03*
X0100122Y0106550D03*
X0100147Y0106550D03*
X0100172Y0106550D03*
X0100197Y0106550D03*
X0100247Y0106525D03*
X0100272Y0106525D03*
X0100297Y0106525D03*
X0100322Y0106525D03*
X0100347Y0106500D03*
X0100372Y0106500D03*
X0100397Y0106500D03*
X0100422Y0106500D03*
X0100447Y0106500D03*
X0100472Y0106475D03*
X0100497Y0106475D03*
X0100522Y0106475D03*
X0100547Y0106475D03*
X0100597Y0106450D03*
X0100622Y0106450D03*
X0100647Y0106450D03*
X0100672Y0106450D03*
X0100722Y0106425D03*
X0100747Y0106425D03*
X0100772Y0106425D03*
X0100822Y0106400D03*
X0100847Y0106400D03*
X0100872Y0106400D03*
X0100897Y0106400D03*
X0100947Y0106375D03*
X0100972Y0106375D03*
X0100997Y0106375D03*
X0101022Y0106375D03*
X0101072Y0106350D03*
X0101097Y0106350D03*
X0101122Y0106350D03*
X0101172Y0106325D03*
X0101197Y0106325D03*
X0101222Y0106325D03*
X0101247Y0106325D03*
X0101297Y0106300D03*
X0101322Y0106300D03*
X0101347Y0106300D03*
X0101372Y0106300D03*
X0101422Y0106275D03*
X0101447Y0106275D03*
X0101472Y0106275D03*
X0101522Y0106250D03*
X0101547Y0106250D03*
X0101572Y0106250D03*
X0101597Y0106250D03*
X0101647Y0106225D03*
X0101672Y0106225D03*
X0101697Y0106225D03*
X0101722Y0106225D03*
X0101772Y0106200D03*
X0101797Y0106200D03*
X0101822Y0106200D03*
X0101872Y0106175D03*
X0101897Y0106175D03*
X0101922Y0106175D03*
X0101947Y0106175D03*
X0101997Y0106150D03*
X0102022Y0106150D03*
X0102047Y0106150D03*
X0102072Y0106150D03*
X0102122Y0106125D03*
X0102147Y0106125D03*
X0102172Y0106125D03*
X0102222Y0106100D03*
X0102247Y0106100D03*
X0102272Y0106100D03*
X0102297Y0106100D03*
X0102347Y0106075D03*
X0102372Y0106075D03*
X0102397Y0106075D03*
X0102422Y0106075D03*
X0102472Y0106050D03*
X0102497Y0106050D03*
X0102522Y0106050D03*
X0102572Y0106025D03*
X0102597Y0106025D03*
X0102622Y0106025D03*
X0102647Y0106025D03*
X0102697Y0106000D03*
X0102722Y0106000D03*
X0102747Y0106000D03*
X0102772Y0106000D03*
X0102822Y0105975D03*
X0102847Y0105975D03*
X0102872Y0105975D03*
X0102922Y0105950D03*
X0102947Y0105950D03*
X0102972Y0105950D03*
X0102997Y0105950D03*
X0103047Y0105925D03*
X0103072Y0105925D03*
X0103097Y0105925D03*
X0103122Y0105925D03*
X0103172Y0105900D03*
X0103197Y0105900D03*
X0103222Y0105900D03*
X0103272Y0105875D03*
X0103297Y0105875D03*
X0103322Y0105875D03*
X0103347Y0105875D03*
X0103397Y0105850D03*
X0103422Y0105850D03*
X0103447Y0105850D03*
X0103472Y0105850D03*
X0103522Y0105825D03*
X0103547Y0105825D03*
X0103572Y0105825D03*
X0103622Y0105800D03*
X0103647Y0105800D03*
X0103672Y0105800D03*
X0103697Y0105800D03*
X0103747Y0105775D03*
X0103772Y0105775D03*
X0103797Y0105775D03*
X0103822Y0105775D03*
X0103872Y0105750D03*
X0103897Y0105750D03*
X0103922Y0105750D03*
X0103972Y0105725D03*
X0103997Y0105725D03*
X0104022Y0105725D03*
X0104047Y0105725D03*
X0104097Y0105700D03*
X0104122Y0105700D03*
X0104147Y0105700D03*
X0104222Y0105675D03*
X0104247Y0105675D03*
X0104272Y0105675D03*
X0104322Y0105650D03*
X0104347Y0105650D03*
X0104372Y0105650D03*
X0104397Y0105650D03*
X0104447Y0105625D03*
X0104472Y0105625D03*
X0104497Y0105625D03*
X0104572Y0105600D03*
X0104597Y0105600D03*
X0104622Y0105600D03*
X0104697Y0105575D03*
X0104722Y0105575D03*
X0104747Y0105575D03*
X0104797Y0105550D03*
X0104822Y0105550D03*
X0104847Y0105550D03*
X0104922Y0105525D03*
X0104947Y0105525D03*
X0104972Y0105525D03*
X0105047Y0105500D03*
X0105072Y0105500D03*
X0105097Y0105500D03*
X0105147Y0105475D03*
X0105172Y0105475D03*
X0105197Y0105475D03*
X0105272Y0105450D03*
X0105297Y0105450D03*
X0105322Y0105450D03*
X0105397Y0105425D03*
X0105422Y0105425D03*
X0105447Y0105425D03*
X0105497Y0105400D03*
X0105522Y0105400D03*
X0105547Y0105400D03*
X0105622Y0105375D03*
X0105647Y0105375D03*
X0105672Y0105375D03*
X0105747Y0105350D03*
X0105772Y0105350D03*
X0105797Y0105350D03*
X0105847Y0105325D03*
X0105872Y0105325D03*
X0105897Y0105325D03*
X0105972Y0105300D03*
X0105997Y0105300D03*
X0106022Y0105300D03*
X0106097Y0105275D03*
X0106122Y0105275D03*
X0106147Y0105275D03*
X0106197Y0105250D03*
X0106222Y0105250D03*
X0106247Y0105250D03*
X0106322Y0105225D03*
X0106347Y0105225D03*
X0106372Y0105225D03*
X0106447Y0105200D03*
X0106472Y0105200D03*
X0106497Y0105200D03*
X0106547Y0105175D03*
X0106572Y0105175D03*
X0106597Y0105175D03*
X0106672Y0105150D03*
X0106697Y0105150D03*
X0106722Y0105150D03*
X0106797Y0105125D03*
X0106822Y0105125D03*
X0106847Y0105125D03*
X0106897Y0105100D03*
X0106922Y0105100D03*
X0106947Y0105100D03*
X0107022Y0105075D03*
X0107047Y0105075D03*
X0107072Y0105075D03*
X0110547Y0109950D03*
X0105597Y0111050D03*
X0105872Y0113550D03*
X0104822Y0118625D03*
X0096772Y0124200D03*
X0097347Y0127300D03*
X0093572Y0112275D03*
D34*
X0093622Y0112262D03*
X0097822Y0107012D03*
X0105622Y0108737D03*
X0105547Y0111062D03*
X0105522Y0111062D03*
X0105847Y0113562D03*
X0110522Y0109937D03*
X0105822Y0117312D03*
X0105297Y0118062D03*
X0097372Y0119187D03*
X0093622Y0122612D03*
X0097372Y0124987D03*
X0097297Y0127312D03*
X0097272Y0127312D03*
X0097372Y0129587D03*
D35*
X0097347Y0129587D03*
X0097322Y0124987D03*
X0096822Y0124162D03*
X0093647Y0122612D03*
X0097347Y0119187D03*
X0093647Y0112262D03*
X0105497Y0111062D03*
X0105572Y0108737D03*
X0110497Y0109912D03*
X0105822Y0113562D03*
D36*
X0110472Y0109912D03*
X0097497Y0111412D03*
D37*
X0097447Y0111425D03*
X0105772Y0113575D03*
X0110447Y0109900D03*
X0105747Y0117325D03*
X0097247Y0119200D03*
X0093722Y0122575D03*
X0088797Y0105225D03*
D38*
X0097922Y0106862D03*
X0110422Y0109887D03*
X0097522Y0121862D03*
X0093772Y0122562D03*
D39*
X0093797Y0122550D03*
X0105697Y0117325D03*
X0105722Y0113575D03*
X0110397Y0109875D03*
X0097397Y0111425D03*
X0093772Y0112225D03*
D40*
X0093797Y0112212D03*
X0090472Y0108162D03*
X0090172Y0102537D03*
X0107272Y0105237D03*
X0110372Y0109862D03*
X0097472Y0121887D03*
D41*
X0093847Y0112187D03*
X0097322Y0111437D03*
X0110347Y0109862D03*
D42*
X0110322Y0109850D03*
X0105622Y0113625D03*
X0105597Y0117350D03*
X0097422Y0121900D03*
X0093897Y0112175D03*
X0097272Y0111450D03*
X0098022Y0106725D03*
D43*
X0090447Y0108137D03*
X0101697Y0114112D03*
X0110297Y0109837D03*
X0107322Y0105287D03*
D44*
X0110272Y0109825D03*
D45*
X0110247Y0109825D03*
X0105522Y0113650D03*
X0101772Y0114150D03*
X0097172Y0111475D03*
X0107372Y0105350D03*
X0097347Y0121925D03*
D46*
X0097322Y0121925D03*
X0101822Y0114175D03*
X0105497Y0113650D03*
X0110222Y0109800D03*
X0107397Y0105375D03*
X0097147Y0111475D03*
X0090422Y0108100D03*
D47*
X0097097Y0111475D03*
X0098147Y0106575D03*
X0107422Y0105400D03*
X0108147Y0106800D03*
X0108172Y0106850D03*
X0108197Y0106900D03*
X0108222Y0106950D03*
X0108247Y0107000D03*
X0108272Y0107050D03*
X0108297Y0107100D03*
X0108322Y0107150D03*
X0108347Y0107200D03*
X0108372Y0107250D03*
X0108397Y0107300D03*
X0108422Y0107350D03*
X0108447Y0107400D03*
X0110197Y0109800D03*
X0097297Y0121950D03*
D48*
X0097272Y0121950D03*
X0101922Y0114200D03*
X0097047Y0111475D03*
X0098172Y0106550D03*
X0108072Y0106625D03*
X0108097Y0106675D03*
X0108472Y0107450D03*
X0108497Y0107500D03*
X0110172Y0109775D03*
D49*
X0110147Y0109775D03*
X0108547Y0107600D03*
X0101972Y0114200D03*
X0096997Y0111500D03*
X0096972Y0111500D03*
X0093697Y0108750D03*
X0090397Y0108050D03*
X0088847Y0105275D03*
X0098197Y0106525D03*
D50*
X0098222Y0106500D03*
X0098872Y0104075D03*
X0093797Y0108750D03*
X0093772Y0108750D03*
X0093747Y0108750D03*
X0093722Y0108750D03*
X0096947Y0111500D03*
X0097697Y0115125D03*
X0102047Y0114225D03*
X0105422Y0117450D03*
X0110122Y0109750D03*
X0108597Y0107725D03*
X0096922Y0129475D03*
D51*
X0097647Y0115175D03*
X0095047Y0114050D03*
X0095022Y0114050D03*
X0094997Y0114050D03*
X0102097Y0114225D03*
X0110097Y0109750D03*
X0108622Y0107775D03*
X0093947Y0108750D03*
X0093922Y0108750D03*
X0093897Y0108750D03*
X0093872Y0108750D03*
X0093847Y0108750D03*
D52*
X0098272Y0106437D03*
X0098822Y0104112D03*
X0107522Y0105487D03*
X0108647Y0107837D03*
X0110072Y0109737D03*
X0102172Y0114237D03*
X0102147Y0114237D03*
X0102122Y0114237D03*
X0105372Y0117462D03*
D53*
X0105322Y0117500D03*
X0102297Y0114250D03*
X0102272Y0114250D03*
X0097597Y0115225D03*
X0094747Y0114075D03*
X0094722Y0114075D03*
X0094697Y0114075D03*
X0094672Y0114075D03*
X0094647Y0114075D03*
X0093597Y0116075D03*
X0101872Y0110275D03*
X0108697Y0107950D03*
X0110047Y0109725D03*
X0107547Y0105500D03*
X0093622Y0126525D03*
D54*
X0097572Y0115237D03*
X0110022Y0109712D03*
D55*
X0109997Y0109712D03*
X0101922Y0110237D03*
X0097522Y0115287D03*
X0093672Y0116087D03*
X0093672Y0126487D03*
D56*
X0097472Y0115312D03*
X0109972Y0109687D03*
D57*
X0109947Y0109687D03*
X0102022Y0110162D03*
X0097422Y0115362D03*
X0093797Y0116112D03*
X0093772Y0116112D03*
X0093772Y0126412D03*
D58*
X0093797Y0126400D03*
X0093822Y0116125D03*
X0093847Y0116125D03*
X0097397Y0115375D03*
X0102047Y0110150D03*
X0107647Y0105600D03*
X0109922Y0109675D03*
D59*
X0109897Y0109662D03*
X0108772Y0108187D03*
X0107672Y0105612D03*
X0102147Y0110087D03*
X0097322Y0115412D03*
X0097297Y0115437D03*
X0093947Y0116137D03*
X0093922Y0116137D03*
X0093897Y0126337D03*
D60*
X0093922Y0126325D03*
X0093947Y0126300D03*
X0093972Y0116125D03*
X0097247Y0115450D03*
X0097272Y0115450D03*
X0102172Y0110075D03*
X0102197Y0110050D03*
X0109872Y0109650D03*
D61*
X0109847Y0109637D03*
X0107697Y0105637D03*
X0097222Y0115462D03*
X0097197Y0115487D03*
X0094047Y0116137D03*
X0094022Y0116137D03*
X0093997Y0116137D03*
D62*
X0097147Y0115512D03*
X0109822Y0109637D03*
X0107722Y0105662D03*
D63*
X0107747Y0105687D03*
X0109797Y0109612D03*
X0105172Y0113512D03*
X0097047Y0115562D03*
X0097022Y0115562D03*
D64*
X0096997Y0115575D03*
X0109772Y0109600D03*
D65*
X0109747Y0109600D03*
D66*
X0109722Y0109575D03*
X0105197Y0113450D03*
D67*
X0109697Y0109575D03*
D68*
X0109672Y0109562D03*
X0107847Y0105762D03*
D69*
X0109647Y0109550D03*
X0088922Y0105350D03*
D70*
X0105172Y0109437D03*
X0109622Y0109537D03*
D71*
X0109597Y0109525D03*
X0107897Y0105800D03*
X0096897Y0119950D03*
D72*
X0109572Y0109512D03*
D73*
X0109547Y0109487D03*
X0096947Y0119987D03*
D74*
X0096972Y0120012D03*
X0109522Y0109487D03*
D75*
X0109497Y0109475D03*
X0088947Y0105375D03*
D76*
X0109472Y0109462D03*
D77*
X0109447Y0109450D03*
D78*
X0109422Y0109437D03*
D79*
X0109397Y0109425D03*
D80*
X0109372Y0109400D03*
D81*
X0109347Y0109387D03*
D82*
X0109322Y0109387D03*
D83*
X0109297Y0109375D03*
X0088972Y0105450D03*
D84*
X0109272Y0109350D03*
D85*
X0109247Y0109337D03*
D86*
X0109222Y0109325D03*
D87*
X0109197Y0109312D03*
X0097247Y0128487D03*
D88*
X0109172Y0109300D03*
D89*
X0109147Y0109287D03*
D90*
X0109122Y0109275D03*
D91*
X0109097Y0109250D03*
D92*
X0109072Y0109250D03*
D93*
X0109047Y0109237D03*
D94*
X0109022Y0109225D03*
X0096922Y0125250D03*
D95*
X0108997Y0109200D03*
D96*
X0108972Y0109187D03*
D97*
X0108947Y0109162D03*
D98*
X0108922Y0109150D03*
D99*
X0108897Y0109137D03*
D100*
X0108872Y0109125D03*
D101*
X0108847Y0109112D03*
D102*
X0108822Y0109087D03*
D103*
X0108797Y0108300D03*
X0105147Y0113550D03*
X0097122Y0115525D03*
X0097097Y0115525D03*
X0097072Y0115550D03*
X0088897Y0105300D03*
D104*
X0093547Y0101700D03*
X0094447Y0109675D03*
X0093922Y0113025D03*
X0094372Y0113125D03*
X0096297Y0112875D03*
X0096347Y0112850D03*
X0096397Y0112825D03*
X0096447Y0112800D03*
X0096497Y0112775D03*
X0096547Y0112750D03*
X0096572Y0112725D03*
X0096597Y0112725D03*
X0097847Y0115775D03*
X0092797Y0119600D03*
X0091597Y0119600D03*
X0104297Y0116575D03*
X0104922Y0116325D03*
X0105297Y0116375D03*
X0108797Y0111150D03*
D105*
X0108772Y0111312D03*
X0105097Y0116187D03*
X0105072Y0116187D03*
X0105022Y0116162D03*
X0104997Y0116162D03*
X0104972Y0116162D03*
X0106147Y0117212D03*
X0094697Y0123262D03*
X0092897Y0119587D03*
X0096797Y0130737D03*
X0096772Y0130762D03*
X0102497Y0104037D03*
X0093647Y0101862D03*
D106*
X0101997Y0110175D03*
X0097447Y0115325D03*
X0093747Y0116100D03*
X0108747Y0108100D03*
X0107622Y0105575D03*
X0093747Y0126425D03*
D107*
X0097897Y0129425D03*
X0096472Y0130950D03*
X0096447Y0130950D03*
X0096422Y0130975D03*
X0096397Y0130975D03*
X0096347Y0131000D03*
X0096272Y0131025D03*
X0096197Y0131050D03*
X0094747Y0123275D03*
X0097897Y0119025D03*
X0093272Y0116800D03*
X0097897Y0115725D03*
X0101547Y0114825D03*
X0102897Y0117150D03*
X0102922Y0117150D03*
X0102997Y0117125D03*
X0104497Y0119650D03*
X0104472Y0119675D03*
X0104447Y0119700D03*
X0108747Y0111375D03*
X0094697Y0109625D03*
D108*
X0101897Y0110250D03*
X0097547Y0115275D03*
X0093647Y0116075D03*
X0093622Y0116075D03*
X0108722Y0108025D03*
X0107572Y0105525D03*
X0093647Y0126500D03*
D109*
X0094722Y0109612D03*
X0108722Y0111437D03*
D110*
X0108697Y0111487D03*
X0094747Y0109612D03*
D111*
X0094172Y0108725D03*
X0094147Y0108725D03*
X0094047Y0108750D03*
X0094022Y0108750D03*
X0093997Y0108750D03*
X0093972Y0108750D03*
X0094872Y0114050D03*
X0094897Y0114050D03*
X0094922Y0114050D03*
X0094947Y0114050D03*
X0094972Y0114050D03*
X0097622Y0115200D03*
X0102197Y0114250D03*
X0108672Y0107900D03*
X0107972Y0106325D03*
X0098797Y0104150D03*
D112*
X0093697Y0102087D03*
X0093297Y0109612D03*
X0108672Y0111537D03*
D113*
X0108647Y0111587D03*
D114*
X0108622Y0111637D03*
X0106172Y0110862D03*
X0106172Y0108687D03*
X0106172Y0113437D03*
X0101247Y0118837D03*
X0097922Y0115737D03*
X0097922Y0121762D03*
X0097922Y0124937D03*
X0097922Y0127112D03*
D115*
X0096897Y0129512D03*
X0097222Y0121962D03*
X0101997Y0114212D03*
X0102022Y0114212D03*
X0108572Y0107662D03*
X0108022Y0106487D03*
X0107472Y0105437D03*
D116*
X0107447Y0105412D03*
X0108047Y0106562D03*
X0108522Y0107562D03*
X0101947Y0114212D03*
X0105447Y0117437D03*
X0097247Y0121962D03*
X0097022Y0111487D03*
D117*
X0097072Y0111487D03*
X0101872Y0114187D03*
X0101897Y0114187D03*
X0105472Y0117412D03*
X0108122Y0106737D03*
D118*
X0107997Y0106412D03*
X0107497Y0105462D03*
X0098847Y0104087D03*
X0098247Y0106462D03*
X0093822Y0108762D03*
X0095072Y0114062D03*
X0095097Y0114062D03*
X0097672Y0115162D03*
X0102072Y0114237D03*
X0105397Y0117462D03*
D119*
X0097497Y0115300D03*
X0093722Y0116100D03*
X0093697Y0116100D03*
X0101947Y0110225D03*
X0101972Y0110200D03*
X0107947Y0106225D03*
X0107597Y0105550D03*
X0088872Y0105300D03*
X0093722Y0126450D03*
X0093697Y0126475D03*
D120*
X0096922Y0119975D03*
X0107922Y0105825D03*
D121*
X0107872Y0105787D03*
D122*
X0107822Y0105737D03*
D123*
X0107797Y0105712D03*
D124*
X0107772Y0105712D03*
D125*
X0107347Y0105312D03*
X0098047Y0106687D03*
X0097222Y0111462D03*
X0101722Y0114137D03*
X0105572Y0113637D03*
X0105572Y0117362D03*
X0097397Y0121912D03*
D126*
X0097447Y0121900D03*
X0105647Y0113600D03*
X0107297Y0105275D03*
D127*
X0107247Y0105212D03*
X0097497Y0121887D03*
D128*
X0093747Y0122575D03*
X0105722Y0117325D03*
X0105747Y0113575D03*
X0097422Y0111425D03*
X0093747Y0112225D03*
X0107222Y0105175D03*
X0090197Y0102450D03*
D129*
X0090222Y0102375D03*
X0105497Y0108750D03*
X0105522Y0108750D03*
X0107197Y0105150D03*
X0105797Y0113575D03*
X0105772Y0117300D03*
X0097297Y0119200D03*
X0097272Y0119200D03*
X0097572Y0121850D03*
X0096847Y0124175D03*
X0097247Y0125000D03*
X0097272Y0125000D03*
X0097272Y0129600D03*
X0097297Y0129600D03*
X0093672Y0112250D03*
D130*
X0097522Y0111400D03*
X0105597Y0108750D03*
X0107172Y0105100D03*
X0090247Y0102325D03*
X0097347Y0125000D03*
D131*
X0097397Y0124987D03*
X0093597Y0122612D03*
X0097422Y0119162D03*
X0104797Y0118637D03*
X0105847Y0117312D03*
X0105647Y0108737D03*
X0105022Y0105512D03*
X0104997Y0105512D03*
X0104897Y0105537D03*
X0104872Y0105537D03*
X0104772Y0105562D03*
X0104672Y0105587D03*
X0104647Y0105587D03*
X0104547Y0105612D03*
X0104522Y0105612D03*
X0104422Y0105637D03*
X0104297Y0105662D03*
X0104197Y0105687D03*
X0104172Y0105687D03*
X0104072Y0105712D03*
X0103947Y0105737D03*
X0103847Y0105762D03*
X0103722Y0105787D03*
X0103597Y0105812D03*
X0103497Y0105837D03*
X0103372Y0105862D03*
X0103247Y0105887D03*
X0103147Y0105912D03*
X0103022Y0105937D03*
X0102897Y0105962D03*
X0102797Y0105987D03*
X0102672Y0106012D03*
X0102547Y0106037D03*
X0102447Y0106062D03*
X0102322Y0106087D03*
X0102197Y0106112D03*
X0102097Y0106137D03*
X0101972Y0106162D03*
X0101847Y0106187D03*
X0101747Y0106212D03*
X0101622Y0106237D03*
X0101497Y0106262D03*
X0101397Y0106287D03*
X0101272Y0106312D03*
X0101147Y0106337D03*
X0101047Y0106362D03*
X0100922Y0106387D03*
X0100797Y0106412D03*
X0100697Y0106437D03*
X0100572Y0106462D03*
X0100222Y0106537D03*
X0099872Y0106612D03*
X0099522Y0106687D03*
X0099172Y0106762D03*
X0098822Y0106837D03*
X0098222Y0103762D03*
X0098197Y0103762D03*
X0098172Y0103762D03*
X0098147Y0103762D03*
X0098097Y0103787D03*
X0098072Y0103787D03*
X0098047Y0103787D03*
X0098022Y0103787D03*
X0097997Y0103812D03*
X0097972Y0103812D03*
X0097947Y0103812D03*
X0097922Y0103812D03*
X0097897Y0103812D03*
X0097872Y0103837D03*
X0097847Y0103837D03*
X0097822Y0103837D03*
X0097797Y0103837D03*
X0097747Y0103862D03*
X0097722Y0103862D03*
X0097697Y0103862D03*
X0097672Y0103862D03*
X0097647Y0103887D03*
X0097622Y0103887D03*
X0097597Y0103887D03*
X0097572Y0103887D03*
X0097547Y0103887D03*
X0097522Y0103912D03*
X0097497Y0103912D03*
X0097472Y0103912D03*
X0097447Y0103912D03*
X0097397Y0103937D03*
X0097372Y0103937D03*
X0097347Y0103937D03*
X0097322Y0103937D03*
X0097297Y0103962D03*
X0097272Y0103962D03*
X0097247Y0103962D03*
X0097222Y0103962D03*
X0097197Y0103962D03*
X0097172Y0103987D03*
X0097147Y0103987D03*
X0097122Y0103987D03*
X0097097Y0103987D03*
X0097047Y0104012D03*
X0097022Y0104012D03*
X0096997Y0104012D03*
X0096972Y0104012D03*
X0096922Y0104037D03*
X0096897Y0104037D03*
X0096872Y0104037D03*
X0096847Y0104037D03*
X0096822Y0104062D03*
X0096797Y0104062D03*
X0096772Y0104062D03*
X0096747Y0104062D03*
X0096697Y0104087D03*
X0096672Y0104087D03*
X0096647Y0104087D03*
X0096622Y0104087D03*
X0096572Y0104112D03*
X0096547Y0104112D03*
X0096522Y0104112D03*
X0096497Y0104112D03*
X0096472Y0104137D03*
X0096447Y0104137D03*
X0096422Y0104137D03*
X0096397Y0104137D03*
X0096347Y0104162D03*
X0096322Y0104162D03*
X0096297Y0104162D03*
X0096272Y0104162D03*
X0096222Y0104187D03*
X0096197Y0104187D03*
X0096172Y0104187D03*
X0096147Y0104187D03*
X0096122Y0104212D03*
X0096097Y0104212D03*
X0096072Y0104212D03*
X0096047Y0104212D03*
X0095997Y0104237D03*
X0095972Y0104237D03*
X0095947Y0104237D03*
X0095922Y0104237D03*
X0095872Y0104262D03*
X0095847Y0104262D03*
X0095822Y0104262D03*
X0095797Y0104262D03*
X0095772Y0104287D03*
X0095747Y0104287D03*
X0095722Y0104287D03*
X0095697Y0104287D03*
X0095647Y0104312D03*
X0095622Y0104312D03*
X0095597Y0104312D03*
X0095572Y0104312D03*
X0095522Y0104337D03*
X0095497Y0104337D03*
X0095472Y0104337D03*
X0095447Y0104337D03*
X0095422Y0104362D03*
X0095397Y0104362D03*
X0095372Y0104362D03*
X0095347Y0104362D03*
X0095297Y0104387D03*
X0095272Y0104387D03*
X0095247Y0104387D03*
X0095222Y0104387D03*
X0095172Y0104412D03*
X0095147Y0104412D03*
X0095122Y0104412D03*
X0095097Y0104412D03*
X0095072Y0104437D03*
X0095047Y0104437D03*
X0095022Y0104437D03*
X0094997Y0104437D03*
X0094947Y0104462D03*
X0094922Y0104462D03*
X0094897Y0104462D03*
X0094872Y0104462D03*
X0094822Y0104487D03*
X0094797Y0104487D03*
X0094772Y0104487D03*
X0094747Y0104487D03*
X0094722Y0104512D03*
X0094697Y0104512D03*
X0094672Y0104512D03*
X0094647Y0104512D03*
X0094597Y0104537D03*
X0094572Y0104537D03*
X0094547Y0104537D03*
X0094522Y0104537D03*
X0094472Y0104562D03*
X0094447Y0104562D03*
X0094422Y0104562D03*
X0094397Y0104562D03*
X0094372Y0104587D03*
X0094347Y0104587D03*
X0094322Y0104587D03*
X0094297Y0104587D03*
X0094247Y0104612D03*
X0094222Y0104612D03*
X0094197Y0104612D03*
X0094172Y0104612D03*
X0094122Y0104637D03*
X0094097Y0104637D03*
X0094072Y0104637D03*
X0094047Y0104637D03*
X0094022Y0104662D03*
X0093997Y0104662D03*
X0093972Y0104662D03*
X0093947Y0104662D03*
X0093897Y0104687D03*
X0093872Y0104687D03*
X0093847Y0104687D03*
X0093822Y0104687D03*
X0093772Y0104712D03*
X0093747Y0104712D03*
X0093722Y0104712D03*
X0093697Y0104712D03*
X0093672Y0104737D03*
X0093647Y0104737D03*
X0093622Y0104737D03*
X0093597Y0104737D03*
X0093547Y0104762D03*
X0093522Y0104762D03*
X0093497Y0104762D03*
X0093472Y0104762D03*
X0093422Y0104787D03*
X0093397Y0104787D03*
X0093372Y0104787D03*
X0093347Y0104787D03*
X0093322Y0104812D03*
X0093297Y0104812D03*
X0093272Y0104812D03*
X0093247Y0104812D03*
X0093197Y0104837D03*
X0093172Y0104837D03*
X0093147Y0104837D03*
X0093122Y0104837D03*
X0093072Y0104862D03*
X0093047Y0104862D03*
X0093022Y0104862D03*
X0092997Y0104862D03*
X0092972Y0104887D03*
X0092947Y0104887D03*
X0092922Y0104887D03*
X0092897Y0104887D03*
X0092847Y0104912D03*
X0092822Y0104912D03*
X0092797Y0104912D03*
X0092772Y0104912D03*
X0092722Y0104937D03*
X0092697Y0104937D03*
X0092672Y0104937D03*
X0092622Y0104962D03*
X0092597Y0104962D03*
X0092572Y0104962D03*
X0092547Y0104962D03*
X0092497Y0104987D03*
X0092472Y0104987D03*
X0092447Y0104987D03*
X0092422Y0104987D03*
X0092372Y0105012D03*
X0092347Y0105012D03*
X0092322Y0105012D03*
X0092272Y0105037D03*
X0092247Y0105037D03*
X0092222Y0105037D03*
X0092197Y0105037D03*
X0092147Y0105062D03*
X0092122Y0105062D03*
X0092097Y0105062D03*
X0092072Y0105062D03*
X0092022Y0105087D03*
X0091997Y0105087D03*
X0091972Y0105087D03*
X0091897Y0105112D03*
X0091872Y0105112D03*
X0091847Y0105112D03*
X0091797Y0105137D03*
X0091772Y0105137D03*
X0091747Y0105137D03*
X0091722Y0105137D03*
X0091672Y0105162D03*
X0091647Y0105162D03*
X0091622Y0105162D03*
X0091547Y0105187D03*
X0091522Y0105187D03*
X0091497Y0105187D03*
X0091447Y0105212D03*
X0091422Y0105212D03*
X0091397Y0105212D03*
X0091372Y0105212D03*
X0091322Y0105237D03*
X0091297Y0105237D03*
X0091272Y0105237D03*
X0091197Y0105262D03*
X0091172Y0105262D03*
X0091147Y0105262D03*
X0091097Y0105287D03*
X0091072Y0105287D03*
X0091047Y0105287D03*
X0091022Y0105287D03*
X0090972Y0105312D03*
X0090947Y0105312D03*
X0090922Y0105312D03*
X0090847Y0105337D03*
X0090822Y0105337D03*
X0090797Y0105337D03*
X0090747Y0105362D03*
X0090722Y0105362D03*
X0090697Y0105362D03*
X0090672Y0105362D03*
X0090622Y0105387D03*
X0090597Y0105387D03*
X0090572Y0105387D03*
X0090497Y0105412D03*
X0090472Y0105412D03*
X0090447Y0105412D03*
X0090397Y0105437D03*
X0098247Y0103737D03*
X0098272Y0103737D03*
X0105122Y0105487D03*
X0105222Y0105462D03*
X0105247Y0105462D03*
X0105347Y0105437D03*
X0105372Y0105437D03*
X0105472Y0105412D03*
X0105572Y0105387D03*
X0105597Y0105387D03*
X0105697Y0105362D03*
X0105722Y0105362D03*
X0105822Y0105337D03*
X0105922Y0105312D03*
X0105947Y0105312D03*
X0106047Y0105287D03*
X0106072Y0105287D03*
X0106172Y0105262D03*
X0106272Y0105237D03*
X0106297Y0105237D03*
X0106397Y0105212D03*
X0106422Y0105212D03*
X0106522Y0105187D03*
X0106622Y0105162D03*
X0106647Y0105162D03*
X0106747Y0105137D03*
X0106772Y0105137D03*
X0106872Y0105112D03*
X0106972Y0105087D03*
X0106997Y0105087D03*
X0107097Y0105062D03*
X0107122Y0105062D03*
X0107147Y0105062D03*
X0097422Y0129562D03*
D132*
X0097922Y0129400D03*
X0097922Y0119000D03*
X0106172Y0117200D03*
D133*
X0102872Y0117162D03*
X0102847Y0117162D03*
X0106147Y0110887D03*
X0106147Y0108687D03*
X0102522Y0104112D03*
X0093672Y0101937D03*
X0097897Y0124937D03*
X0097897Y0127137D03*
X0096372Y0130987D03*
X0096322Y0131012D03*
X0096297Y0131012D03*
X0096247Y0131037D03*
X0096222Y0131037D03*
X0096172Y0131062D03*
X0096147Y0131062D03*
X0096122Y0131062D03*
X0091572Y0130587D03*
D134*
X0096822Y0130712D03*
X0097872Y0127137D03*
X0097872Y0124937D03*
X0093247Y0122737D03*
X0101572Y0114837D03*
X0104147Y0116587D03*
X0105172Y0116212D03*
X0106122Y0110887D03*
X0106122Y0108687D03*
X0094647Y0109637D03*
X0093372Y0109587D03*
X0093247Y0112387D03*
D135*
X0095747Y0113050D03*
X0095772Y0113050D03*
X0095847Y0113025D03*
X0095872Y0113025D03*
X0095922Y0113000D03*
X0095947Y0113000D03*
X0095997Y0112975D03*
X0096022Y0112975D03*
X0096047Y0112950D03*
X0096072Y0112950D03*
X0096097Y0112950D03*
X0096147Y0112925D03*
X0096172Y0112925D03*
X0096222Y0112900D03*
X0094497Y0109675D03*
X0101372Y0118400D03*
X0104247Y0116575D03*
X0104947Y0116300D03*
X0106122Y0113475D03*
X0093272Y0122725D03*
D136*
X0092822Y0119587D03*
X0093322Y0116812D03*
X0094322Y0113162D03*
X0095247Y0113137D03*
X0095447Y0113112D03*
X0095472Y0113112D03*
X0095572Y0113087D03*
X0095597Y0113087D03*
X0095622Y0113087D03*
X0095647Y0113062D03*
X0095672Y0113062D03*
X0095697Y0113062D03*
X0095722Y0113062D03*
X0095797Y0113037D03*
X0095822Y0113037D03*
X0095897Y0113012D03*
X0095972Y0112987D03*
X0097847Y0111387D03*
X0094522Y0109687D03*
X0093422Y0109562D03*
X0093272Y0112387D03*
X0106097Y0108687D03*
X0102422Y0103912D03*
X0093572Y0101737D03*
X0097872Y0121787D03*
X0097847Y0124937D03*
D137*
X0097847Y0127137D03*
X0093897Y0123362D03*
X0101597Y0114837D03*
X0106097Y0110887D03*
X0094572Y0109662D03*
X0093972Y0113087D03*
X0093997Y0113112D03*
X0094022Y0113112D03*
X0094047Y0113112D03*
X0094072Y0113137D03*
X0094097Y0113137D03*
X0094197Y0113162D03*
X0094222Y0113162D03*
X0094247Y0113162D03*
X0094272Y0113162D03*
X0094297Y0113162D03*
D138*
X0094472Y0113087D03*
X0094497Y0113087D03*
X0096772Y0112612D03*
X0096797Y0112587D03*
X0096822Y0112562D03*
X0102697Y0115387D03*
X0102772Y0115412D03*
X0102797Y0115412D03*
X0102822Y0115412D03*
X0102847Y0115412D03*
X0102872Y0115412D03*
X0102897Y0115412D03*
X0102922Y0115412D03*
X0102947Y0115412D03*
X0102972Y0115412D03*
X0102997Y0115412D03*
X0103022Y0115412D03*
X0103097Y0115412D03*
X0103122Y0115412D03*
X0103147Y0115412D03*
X0103172Y0115412D03*
X0103197Y0115412D03*
X0103222Y0115412D03*
X0103247Y0115412D03*
X0103272Y0115412D03*
X0103297Y0115412D03*
X0103322Y0115412D03*
X0103347Y0115412D03*
X0103372Y0115412D03*
X0103397Y0115412D03*
X0103447Y0115387D03*
X0103472Y0115387D03*
X0103497Y0115387D03*
X0103522Y0115387D03*
X0103547Y0115387D03*
X0103572Y0115387D03*
X0103597Y0115387D03*
X0103647Y0115362D03*
X0103672Y0115362D03*
X0103697Y0115362D03*
X0103722Y0115362D03*
X0103797Y0115337D03*
X0103822Y0115337D03*
X0103897Y0115312D03*
X0103922Y0115312D03*
X0103947Y0115312D03*
X0104022Y0115287D03*
X0104047Y0115287D03*
X0104122Y0115262D03*
X0104372Y0116537D03*
X0104847Y0116387D03*
X0106097Y0117237D03*
X0093347Y0116787D03*
X0093497Y0101637D03*
D139*
X0090647Y0108362D03*
X0093447Y0109562D03*
X0094422Y0109687D03*
X0094422Y0113112D03*
X0094397Y0113112D03*
X0096622Y0112712D03*
X0096647Y0112687D03*
X0096672Y0112687D03*
X0096697Y0112662D03*
X0104322Y0116562D03*
X0104897Y0116337D03*
X0106072Y0110912D03*
X0106072Y0108687D03*
X0097822Y0124937D03*
X0097822Y0127162D03*
X0091647Y0130312D03*
D140*
X0097822Y0121775D03*
X0092647Y0119600D03*
X0092622Y0119600D03*
X0091772Y0119600D03*
X0101422Y0118225D03*
X0105122Y0114725D03*
X0106072Y0113475D03*
X0095172Y0113225D03*
X0090622Y0108325D03*
X0088747Y0105200D03*
X0093197Y0101425D03*
X0102022Y0103600D03*
X0102047Y0103600D03*
D141*
X0101647Y0103487D03*
X0101622Y0103487D03*
X0101597Y0103487D03*
X0097572Y0107162D03*
X0097547Y0107162D03*
X0097522Y0107162D03*
X0097497Y0107162D03*
X0097472Y0107162D03*
X0097447Y0107187D03*
X0097422Y0107187D03*
X0097397Y0107187D03*
X0097372Y0107187D03*
X0097322Y0107212D03*
X0097297Y0107212D03*
X0097272Y0107212D03*
X0097247Y0107212D03*
X0097197Y0107237D03*
X0097172Y0107237D03*
X0097147Y0107237D03*
X0097122Y0107237D03*
X0097072Y0107262D03*
X0097047Y0107262D03*
X0097022Y0107262D03*
X0096997Y0107262D03*
X0096972Y0107287D03*
X0096947Y0107287D03*
X0096922Y0107287D03*
X0096897Y0107287D03*
X0096847Y0107312D03*
X0096822Y0107312D03*
X0096797Y0107312D03*
X0096772Y0107312D03*
X0096722Y0107337D03*
X0096697Y0107337D03*
X0096672Y0107337D03*
X0096647Y0107337D03*
X0096597Y0107362D03*
X0096572Y0107362D03*
X0096547Y0107362D03*
X0096522Y0107362D03*
X0096472Y0107387D03*
X0096447Y0107387D03*
X0096422Y0107387D03*
X0096347Y0107412D03*
X0096322Y0107412D03*
X0096297Y0107412D03*
X0096247Y0107437D03*
X0096222Y0107437D03*
X0096197Y0107437D03*
X0096172Y0107437D03*
X0096122Y0107462D03*
X0096097Y0107462D03*
X0096072Y0107462D03*
X0096047Y0107462D03*
X0095997Y0107487D03*
X0095972Y0107487D03*
X0095947Y0107487D03*
X0095872Y0107512D03*
X0095847Y0107512D03*
X0095822Y0107512D03*
X0095747Y0107537D03*
X0095722Y0107537D03*
X0095697Y0107537D03*
X0095622Y0107562D03*
X0095597Y0107562D03*
X0095572Y0107562D03*
X0095497Y0107587D03*
X0095472Y0107587D03*
X0095397Y0107612D03*
X0095372Y0107612D03*
X0095347Y0107612D03*
X0095272Y0107637D03*
X0095247Y0107637D03*
X0095222Y0107637D03*
X0095147Y0107662D03*
X0095122Y0107662D03*
X0095097Y0107662D03*
X0095022Y0107687D03*
X0094997Y0107687D03*
X0094897Y0107712D03*
X0094872Y0107712D03*
X0094772Y0107737D03*
X0094747Y0107737D03*
X0094672Y0107762D03*
X0094647Y0107762D03*
X0094622Y0107762D03*
X0094547Y0107787D03*
X0094522Y0107787D03*
X0093672Y0107962D03*
X0093647Y0107962D03*
X0093622Y0107962D03*
X0093572Y0107987D03*
X0093547Y0107987D03*
X0093522Y0107987D03*
X0093497Y0107987D03*
X0093447Y0108012D03*
X0093422Y0108012D03*
X0093397Y0108012D03*
X0093322Y0108037D03*
X0093297Y0108037D03*
X0094347Y0111237D03*
X0098397Y0114162D03*
X0098522Y0114137D03*
X0098647Y0114112D03*
X0098772Y0114087D03*
X0098897Y0114062D03*
X0098997Y0114037D03*
X0099022Y0114037D03*
X0099122Y0114012D03*
X0099147Y0114012D03*
X0099172Y0114012D03*
X0099247Y0113987D03*
X0099272Y0113987D03*
X0099297Y0113987D03*
X0099372Y0113962D03*
X0099397Y0113962D03*
X0099422Y0113962D03*
X0099497Y0113937D03*
X0099522Y0113937D03*
X0099547Y0113937D03*
X0099597Y0113912D03*
X0099622Y0113912D03*
X0099647Y0113912D03*
X0099672Y0113912D03*
X0099722Y0113887D03*
X0099772Y0113887D03*
X0099797Y0113887D03*
X0099822Y0113887D03*
X0099872Y0113862D03*
X0099897Y0113862D03*
X0099922Y0113862D03*
X0099947Y0113862D03*
X0099972Y0113837D03*
X0099997Y0113837D03*
X0100022Y0113837D03*
X0100047Y0113837D03*
X0100097Y0113812D03*
X0100122Y0113812D03*
X0100147Y0113812D03*
X0100172Y0113812D03*
X0100197Y0113812D03*
X0100222Y0113787D03*
X0100247Y0113787D03*
X0100272Y0113787D03*
X0100297Y0113787D03*
X0100322Y0113787D03*
X0100347Y0113762D03*
X0100372Y0113762D03*
X0100397Y0113762D03*
X0100422Y0113762D03*
X0100472Y0113737D03*
X0100497Y0113737D03*
X0100522Y0113737D03*
X0100547Y0113737D03*
X0100572Y0113712D03*
X0100597Y0113712D03*
X0100622Y0113712D03*
X0100647Y0113712D03*
X0100672Y0113712D03*
X0100697Y0113687D03*
X0100722Y0113687D03*
X0100747Y0113687D03*
X0100772Y0113687D03*
X0100822Y0113662D03*
X0100847Y0113662D03*
X0100872Y0113662D03*
X0100897Y0113662D03*
X0100922Y0113637D03*
X0100947Y0113637D03*
X0100972Y0113637D03*
X0100997Y0113637D03*
X0101022Y0113637D03*
X0101047Y0113612D03*
X0101072Y0113612D03*
X0101097Y0113612D03*
X0101122Y0113612D03*
X0101147Y0113612D03*
X0101172Y0113587D03*
X0101197Y0113587D03*
X0101222Y0113587D03*
X0101247Y0113587D03*
X0101272Y0113562D03*
X0101297Y0113562D03*
X0101322Y0113562D03*
X0101347Y0113562D03*
X0101372Y0113562D03*
X0101397Y0113537D03*
X0101422Y0113537D03*
X0101447Y0113537D03*
X0101472Y0113537D03*
X0101497Y0113537D03*
X0101522Y0113512D03*
X0101547Y0113512D03*
X0101572Y0113512D03*
X0101597Y0113512D03*
X0101622Y0113487D03*
X0101647Y0113487D03*
X0101672Y0113487D03*
X0102422Y0113337D03*
X0102547Y0113312D03*
X0102672Y0113287D03*
X0102772Y0113262D03*
X0102897Y0113237D03*
X0103022Y0113212D03*
X0103122Y0113187D03*
X0103247Y0113162D03*
X0103372Y0113137D03*
X0103472Y0113112D03*
X0103597Y0113087D03*
X0103722Y0113062D03*
X0103822Y0113037D03*
X0103947Y0113012D03*
X0104072Y0112987D03*
X0104172Y0112962D03*
X0104197Y0112962D03*
X0104297Y0112937D03*
X0106047Y0113487D03*
X0104147Y0110687D03*
X0104022Y0110712D03*
X0103797Y0110762D03*
X0103672Y0110787D03*
X0103547Y0110812D03*
X0103422Y0110837D03*
X0103322Y0110862D03*
X0103297Y0110862D03*
X0103197Y0110887D03*
X0103172Y0110887D03*
X0103072Y0110912D03*
X0103047Y0110912D03*
X0102972Y0110937D03*
X0102947Y0110937D03*
X0102847Y0110962D03*
X0102822Y0110962D03*
X0102722Y0110987D03*
X0102697Y0110987D03*
X0102597Y0111012D03*
X0102572Y0111012D03*
X0102497Y0111037D03*
X0102472Y0111037D03*
X0102447Y0111037D03*
X0101572Y0111237D03*
X0101547Y0111237D03*
X0105972Y0108687D03*
X0096822Y0114512D03*
X0096797Y0114512D03*
X0096772Y0114512D03*
X0096697Y0114537D03*
X0096672Y0114537D03*
X0096647Y0114537D03*
X0096597Y0114562D03*
X0096572Y0114562D03*
X0096547Y0114562D03*
X0096522Y0114562D03*
X0096472Y0114587D03*
X0096447Y0114587D03*
X0096422Y0114587D03*
X0096397Y0114587D03*
X0096347Y0114612D03*
X0096322Y0114612D03*
X0096297Y0114612D03*
X0096222Y0114637D03*
X0096197Y0114637D03*
X0096172Y0114637D03*
X0096097Y0114662D03*
X0096072Y0114662D03*
X0096047Y0114662D03*
X0095997Y0114687D03*
X0095972Y0114687D03*
X0095947Y0114687D03*
X0095872Y0114712D03*
X0095847Y0114712D03*
X0095822Y0114712D03*
X0095747Y0114737D03*
X0095722Y0114737D03*
X0095697Y0114737D03*
X0095622Y0114762D03*
X0095597Y0114762D03*
X0095522Y0114787D03*
X0095497Y0114787D03*
X0095472Y0114787D03*
X0095397Y0114812D03*
X0095372Y0114812D03*
X0095347Y0114812D03*
X0095272Y0114837D03*
X0095247Y0114837D03*
X0095222Y0114837D03*
X0095147Y0114862D03*
X0095122Y0114862D03*
X0094422Y0115012D03*
X0093547Y0115187D03*
X0093522Y0115187D03*
X0093497Y0115187D03*
X0093472Y0115212D03*
X0093447Y0115212D03*
X0093422Y0115212D03*
X0093397Y0115212D03*
X0093372Y0115212D03*
X0093347Y0115237D03*
X0093322Y0115237D03*
X0093297Y0115237D03*
X0093272Y0115237D03*
X0093247Y0115262D03*
X0093222Y0115262D03*
X0093197Y0115262D03*
X0093172Y0115262D03*
X0093122Y0115287D03*
X0093097Y0115287D03*
X0093072Y0115287D03*
X0093047Y0115287D03*
X0092997Y0115312D03*
X0092972Y0115312D03*
X0094147Y0117212D03*
X0094197Y0117237D03*
X0094222Y0117237D03*
X0095447Y0117237D03*
X0095597Y0117212D03*
X0095622Y0117212D03*
X0095697Y0117187D03*
X0095722Y0117187D03*
X0095747Y0117187D03*
X0095797Y0117162D03*
X0095822Y0117162D03*
X0095847Y0117162D03*
X0095872Y0117137D03*
X0095897Y0117137D03*
X0095922Y0117137D03*
X0095972Y0117112D03*
X0095997Y0117112D03*
X0096022Y0117112D03*
X0096072Y0117087D03*
X0096097Y0117087D03*
X0096147Y0117062D03*
X0096172Y0117062D03*
X0096222Y0117037D03*
X0096447Y0118712D03*
X0096472Y0118712D03*
X0096322Y0118737D03*
X0095822Y0118837D03*
X0095697Y0118862D03*
X0095572Y0118887D03*
X0095347Y0118937D03*
X0095222Y0118962D03*
X0095097Y0118987D03*
X0094972Y0119012D03*
X0094872Y0119037D03*
X0094847Y0119037D03*
X0094747Y0119062D03*
X0094722Y0119062D03*
X0094622Y0119087D03*
X0094522Y0119112D03*
X0094497Y0119112D03*
X0094397Y0119137D03*
X0094372Y0119137D03*
X0094272Y0119162D03*
X0094247Y0119162D03*
X0094147Y0119187D03*
X0094122Y0119187D03*
X0094047Y0119212D03*
X0094022Y0119212D03*
X0093997Y0119212D03*
X0093922Y0119237D03*
X0093897Y0119237D03*
X0093872Y0119237D03*
X0093797Y0119262D03*
X0093772Y0119262D03*
X0093697Y0119287D03*
X0093672Y0119287D03*
X0093647Y0119287D03*
X0093572Y0119312D03*
X0093547Y0119312D03*
X0093522Y0119312D03*
X0093447Y0119337D03*
X0093422Y0119337D03*
X0093397Y0119337D03*
X0093322Y0119362D03*
X0093297Y0119362D03*
X0094472Y0121512D03*
X0094497Y0121512D03*
X0094547Y0121487D03*
X0094597Y0121462D03*
X0094647Y0121437D03*
X0094697Y0121412D03*
X0094447Y0121537D03*
X0094397Y0121562D03*
X0094372Y0121587D03*
X0094347Y0121587D03*
X0094322Y0121612D03*
X0094297Y0121612D03*
X0094272Y0121637D03*
X0094222Y0121662D03*
X0094197Y0121687D03*
X0094172Y0121712D03*
X0094147Y0121712D03*
X0094122Y0121737D03*
X0094097Y0121762D03*
X0094022Y0121812D03*
X0093997Y0121837D03*
X0093972Y0121862D03*
X0093947Y0121887D03*
X0097722Y0119087D03*
X0097722Y0124937D03*
X0095897Y0126937D03*
X0095772Y0126962D03*
X0095547Y0127012D03*
X0095422Y0127037D03*
X0095297Y0127062D03*
X0095172Y0127087D03*
X0095072Y0127112D03*
X0095047Y0127112D03*
X0094947Y0127137D03*
X0094922Y0127137D03*
X0094822Y0127162D03*
X0094797Y0127162D03*
X0094722Y0127187D03*
X0094697Y0127187D03*
X0094597Y0127212D03*
X0094572Y0127212D03*
X0094472Y0127237D03*
X0094447Y0127237D03*
X0094347Y0127262D03*
X0094322Y0127262D03*
X0094247Y0127287D03*
X0094222Y0127287D03*
X0094197Y0127287D03*
X0093322Y0127487D03*
X0093297Y0127487D03*
X0093797Y0129662D03*
X0093822Y0129662D03*
X0093897Y0129637D03*
X0093922Y0129637D03*
X0093947Y0129637D03*
X0094022Y0129612D03*
X0094047Y0129612D03*
X0094072Y0129612D03*
X0094147Y0129587D03*
X0094172Y0129587D03*
X0094272Y0129562D03*
X0094297Y0129562D03*
X0094397Y0129537D03*
X0094422Y0129537D03*
X0094497Y0129512D03*
X0094522Y0129512D03*
X0094622Y0129487D03*
X0094647Y0129487D03*
X0094747Y0129462D03*
X0094772Y0129462D03*
X0094872Y0129437D03*
X0094997Y0129412D03*
X0095122Y0129387D03*
X0095222Y0129362D03*
X0095347Y0129337D03*
X0095472Y0129312D03*
X0095822Y0129237D03*
X0095947Y0129212D03*
X0097722Y0129487D03*
X0093697Y0129687D03*
X0093672Y0129687D03*
X0093597Y0129712D03*
X0093572Y0129712D03*
X0093547Y0129712D03*
X0093472Y0129737D03*
X0093447Y0129737D03*
X0093422Y0129737D03*
X0093347Y0129762D03*
X0093322Y0129762D03*
X0093297Y0129762D03*
X0093247Y0129787D03*
X0093222Y0129787D03*
X0093197Y0129787D03*
X0093172Y0129787D03*
X0093122Y0129812D03*
X0093097Y0129812D03*
X0093072Y0129812D03*
X0092997Y0129837D03*
X0092972Y0129837D03*
X0092947Y0129837D03*
X0092897Y0129862D03*
X0092872Y0129862D03*
X0092847Y0129862D03*
X0092822Y0129862D03*
X0092772Y0129887D03*
X0092747Y0129887D03*
X0092722Y0129887D03*
X0092697Y0129887D03*
X0092647Y0129912D03*
X0092622Y0129912D03*
X0092597Y0129912D03*
X0092572Y0129912D03*
X0092547Y0129937D03*
X0092522Y0129937D03*
X0092497Y0129937D03*
X0092472Y0129937D03*
X0092422Y0129962D03*
X0092397Y0129962D03*
X0092372Y0129962D03*
X0092347Y0129962D03*
X0092297Y0129987D03*
X0092272Y0129987D03*
X0092247Y0129987D03*
X0092222Y0129987D03*
X0092197Y0130012D03*
X0092172Y0130012D03*
X0092147Y0130012D03*
X0092122Y0130012D03*
X0092097Y0130012D03*
X0092072Y0130037D03*
X0092047Y0130037D03*
X0092022Y0130037D03*
X0091997Y0130037D03*
X0091972Y0130037D03*
X0091947Y0130062D03*
X0091922Y0130062D03*
X0091897Y0130062D03*
X0091872Y0130062D03*
X0091822Y0130087D03*
X0091797Y0130087D03*
X0091772Y0130087D03*
X0091747Y0130087D03*
X0091722Y0130112D03*
X0092747Y0101312D03*
X0092772Y0101312D03*
X0092797Y0101312D03*
X0092822Y0101312D03*
D142*
X0093347Y0101512D03*
X0102147Y0103662D03*
X0102172Y0103687D03*
X0102222Y0103712D03*
X0093522Y0109537D03*
X0093322Y0112362D03*
X0101622Y0109737D03*
X0106022Y0110937D03*
X0105047Y0114812D03*
X0102347Y0115262D03*
X0093322Y0122712D03*
X0093372Y0125987D03*
X0097772Y0127187D03*
D143*
X0096522Y0126775D03*
X0096497Y0126775D03*
X0096472Y0126800D03*
X0096447Y0126800D03*
X0097697Y0124950D03*
X0096322Y0124400D03*
X0094272Y0125050D03*
X0094197Y0125100D03*
X0094172Y0125125D03*
X0094147Y0125150D03*
X0094122Y0125175D03*
X0094072Y0127275D03*
X0096397Y0129100D03*
X0096422Y0129100D03*
X0096447Y0129075D03*
X0096472Y0129075D03*
X0093372Y0122700D03*
X0096122Y0121050D03*
X0096147Y0121050D03*
X0096172Y0121050D03*
X0096197Y0121050D03*
X0096447Y0121025D03*
X0096472Y0121025D03*
X0096847Y0118725D03*
X0096547Y0116900D03*
X0096572Y0116875D03*
X0096597Y0116875D03*
X0096622Y0116850D03*
X0096922Y0114525D03*
X0094297Y0115075D03*
X0094097Y0117175D03*
X0092447Y0119600D03*
X0092422Y0119600D03*
X0092397Y0119600D03*
X0091972Y0119600D03*
X0091947Y0119600D03*
X0101497Y0118125D03*
X0101522Y0118125D03*
X0101547Y0118125D03*
X0106022Y0117275D03*
X0104722Y0112825D03*
X0104697Y0112825D03*
X0104697Y0110550D03*
X0104722Y0110550D03*
X0104747Y0110525D03*
X0104772Y0110525D03*
X0105947Y0108700D03*
X0104947Y0108200D03*
X0104922Y0108200D03*
X0104897Y0108200D03*
X0104872Y0108175D03*
X0104847Y0108175D03*
X0104822Y0108175D03*
X0104797Y0108175D03*
X0104772Y0108175D03*
X0102522Y0108800D03*
X0102447Y0108850D03*
X0102422Y0108875D03*
X0102397Y0108900D03*
X0102372Y0108925D03*
X0102322Y0111025D03*
X0097747Y0111375D03*
X0096772Y0110700D03*
X0096747Y0110700D03*
X0096697Y0110675D03*
X0096672Y0110675D03*
X0096647Y0110675D03*
X0096622Y0110675D03*
X0096597Y0110675D03*
X0096572Y0110675D03*
X0096547Y0110675D03*
X0096072Y0110675D03*
X0095872Y0110700D03*
X0095622Y0110750D03*
X0095497Y0110775D03*
X0093997Y0111525D03*
X0099172Y0104425D03*
X0099197Y0104400D03*
X0099222Y0104375D03*
X0099247Y0104350D03*
X0099472Y0104150D03*
X0099497Y0104125D03*
X0099522Y0104100D03*
X0099572Y0104075D03*
X0099597Y0104050D03*
X0099622Y0104025D03*
X0099672Y0104000D03*
X0099697Y0103975D03*
X0099722Y0103950D03*
X0099772Y0103925D03*
X0099797Y0103900D03*
X0099847Y0103875D03*
X0099897Y0103850D03*
X0099922Y0103825D03*
X0099947Y0103825D03*
X0099972Y0103800D03*
X0099997Y0103800D03*
X0100022Y0103775D03*
X0100072Y0103750D03*
X0100122Y0103725D03*
X0100172Y0103700D03*
X0100222Y0103675D03*
X0100297Y0103650D03*
X0100372Y0103625D03*
X0100447Y0103600D03*
X0100522Y0103575D03*
X0100597Y0103550D03*
X0100997Y0103475D03*
X0101022Y0103475D03*
X0101047Y0103475D03*
X0101072Y0103475D03*
X0101097Y0103475D03*
X0101122Y0103475D03*
X0101147Y0103475D03*
X0101172Y0103475D03*
X0101197Y0103475D03*
X0101222Y0103475D03*
X0101247Y0103475D03*
X0101272Y0103475D03*
X0101297Y0103475D03*
X0092272Y0101300D03*
X0092247Y0101300D03*
X0092222Y0101300D03*
X0092197Y0101300D03*
X0092172Y0101300D03*
X0092147Y0101300D03*
X0092122Y0101300D03*
X0092097Y0101300D03*
X0092072Y0101300D03*
X0091897Y0101325D03*
D144*
X0093047Y0101375D03*
X0093072Y0101375D03*
X0101897Y0103550D03*
X0101922Y0103550D03*
X0105997Y0108700D03*
X0101747Y0111225D03*
X0101722Y0111225D03*
X0093347Y0112350D03*
X0092597Y0119600D03*
X0091822Y0119600D03*
X0091797Y0119600D03*
X0097747Y0119075D03*
X0097747Y0124950D03*
X0093497Y0127475D03*
X0093472Y0127475D03*
X0097747Y0129475D03*
D145*
X0097747Y0127187D03*
X0093572Y0127487D03*
X0093547Y0127487D03*
X0093522Y0127487D03*
X0093397Y0125962D03*
X0101772Y0111237D03*
X0101797Y0111237D03*
X0101822Y0111237D03*
X0101647Y0109712D03*
X0105997Y0110937D03*
X0101997Y0103587D03*
X0101972Y0103587D03*
X0101947Y0103562D03*
X0093172Y0101412D03*
X0093147Y0101412D03*
X0093122Y0101387D03*
X0093097Y0101387D03*
X0093572Y0109512D03*
D146*
X0101772Y0109662D03*
X0104972Y0112762D03*
X0105997Y0113512D03*
X0101997Y0118062D03*
X0101972Y0118062D03*
X0101947Y0118062D03*
X0096672Y0120962D03*
X0093547Y0116787D03*
X0094122Y0115187D03*
X0094572Y0114862D03*
X0096497Y0124312D03*
X0093522Y0125912D03*
X0096747Y0128987D03*
X0096772Y0128987D03*
X0090747Y0101737D03*
X0090772Y0101712D03*
X0090797Y0101712D03*
X0090822Y0101687D03*
D147*
X0091047Y0101575D03*
X0091072Y0101550D03*
X0091097Y0101550D03*
X0091147Y0101525D03*
X0094322Y0107900D03*
X0093922Y0111650D03*
X0094547Y0114900D03*
X0094172Y0115150D03*
X0093497Y0116775D03*
X0096797Y0116725D03*
X0096822Y0116700D03*
X0096972Y0114550D03*
X0102347Y0113425D03*
X0102247Y0111000D03*
X0101747Y0109675D03*
X0102247Y0109075D03*
X0104897Y0110475D03*
X0104922Y0110475D03*
X0104922Y0112775D03*
X0104897Y0112775D03*
X0105997Y0117275D03*
X0101847Y0118075D03*
X0101822Y0118075D03*
X0101797Y0118075D03*
X0097672Y0119100D03*
X0096572Y0121000D03*
X0097772Y0121800D03*
X0096422Y0124350D03*
X0096647Y0126725D03*
X0096672Y0126725D03*
X0096672Y0129025D03*
X0096647Y0129025D03*
X0097672Y0129500D03*
X0093997Y0127250D03*
X0093497Y0125925D03*
X0093997Y0125325D03*
D148*
X0093422Y0125950D03*
X0093372Y0127475D03*
X0093347Y0127475D03*
X0097722Y0127200D03*
X0094047Y0121800D03*
X0094072Y0121775D03*
X0094247Y0121650D03*
X0092547Y0119600D03*
X0091847Y0119600D03*
X0094247Y0117250D03*
X0094272Y0117250D03*
X0094297Y0117275D03*
X0094322Y0117275D03*
X0094347Y0117275D03*
X0094372Y0117275D03*
X0094597Y0117300D03*
X0094622Y0117300D03*
X0094647Y0117300D03*
X0094747Y0117300D03*
X0094772Y0117300D03*
X0094797Y0117300D03*
X0094822Y0117300D03*
X0094847Y0117300D03*
X0094872Y0117300D03*
X0094897Y0117300D03*
X0094922Y0117300D03*
X0095122Y0117275D03*
X0095147Y0117275D03*
X0095172Y0117275D03*
X0095197Y0117275D03*
X0095222Y0117275D03*
X0095247Y0117275D03*
X0095297Y0117250D03*
X0095322Y0117250D03*
X0095347Y0117250D03*
X0095372Y0117250D03*
X0095397Y0117250D03*
X0095422Y0117250D03*
X0095472Y0117225D03*
X0095497Y0117225D03*
X0095522Y0117225D03*
X0095547Y0117225D03*
X0095572Y0117225D03*
X0095647Y0117200D03*
X0095672Y0117200D03*
X0095772Y0117175D03*
X0097722Y0114300D03*
X0097747Y0114300D03*
X0097772Y0114300D03*
X0097822Y0114275D03*
X0097847Y0114275D03*
X0097872Y0114275D03*
X0097897Y0114275D03*
X0097922Y0114250D03*
X0097947Y0114250D03*
X0097972Y0114250D03*
X0097997Y0114250D03*
X0098022Y0114250D03*
X0098047Y0114225D03*
X0098072Y0114225D03*
X0098097Y0114225D03*
X0098122Y0114225D03*
X0098147Y0114225D03*
X0098172Y0114200D03*
X0098197Y0114200D03*
X0098222Y0114200D03*
X0098247Y0114200D03*
X0098272Y0114200D03*
X0098297Y0114175D03*
X0098322Y0114175D03*
X0098347Y0114175D03*
X0098372Y0114175D03*
X0098422Y0114150D03*
X0098447Y0114150D03*
X0098472Y0114150D03*
X0098497Y0114150D03*
X0098547Y0114125D03*
X0098572Y0114125D03*
X0098597Y0114125D03*
X0098622Y0114125D03*
X0098672Y0114100D03*
X0098697Y0114100D03*
X0098722Y0114100D03*
X0098747Y0114100D03*
X0098797Y0114075D03*
X0098822Y0114075D03*
X0098847Y0114075D03*
X0098872Y0114075D03*
X0098922Y0114050D03*
X0098947Y0114050D03*
X0098972Y0114050D03*
X0099047Y0114025D03*
X0099072Y0114025D03*
X0099097Y0114025D03*
X0099197Y0114000D03*
X0099222Y0114000D03*
X0099322Y0113975D03*
X0099347Y0113975D03*
X0099447Y0113950D03*
X0099472Y0113950D03*
X0099572Y0113925D03*
X0099697Y0113900D03*
X0099747Y0113875D03*
X0100447Y0113750D03*
X0100797Y0113675D03*
X0101597Y0111225D03*
X0101622Y0111225D03*
X0101672Y0109700D03*
X0097772Y0111375D03*
X0105972Y0110950D03*
X0101822Y0103525D03*
X0101747Y0103500D03*
X0101722Y0103500D03*
X0101697Y0103500D03*
X0101672Y0103500D03*
X0092972Y0101350D03*
X0092922Y0101325D03*
X0092897Y0101325D03*
X0092872Y0101325D03*
X0092847Y0101325D03*
D149*
X0090597Y0101862D03*
X0090572Y0101887D03*
X0097672Y0111387D03*
X0094597Y0114812D03*
X0102247Y0118012D03*
X0102272Y0118012D03*
X0102297Y0118012D03*
X0097597Y0119112D03*
X0096747Y0120937D03*
X0096572Y0124287D03*
X0096797Y0126662D03*
X0097597Y0129512D03*
X0105972Y0113512D03*
X0105047Y0112762D03*
X0105047Y0110412D03*
D150*
X0104997Y0110450D03*
X0105847Y0110975D03*
X0105872Y0108700D03*
X0102222Y0109150D03*
X0102222Y0110950D03*
X0102322Y0113500D03*
X0097697Y0111375D03*
X0097672Y0107275D03*
X0094247Y0107975D03*
X0090697Y0101775D03*
X0090722Y0101750D03*
X0096922Y0116600D03*
X0102022Y0118050D03*
X0102047Y0118050D03*
X0102072Y0118050D03*
X0105972Y0117275D03*
X0097747Y0121800D03*
X0097622Y0124950D03*
X0096747Y0126700D03*
X0097597Y0127225D03*
X0093972Y0127200D03*
X0093972Y0125400D03*
D151*
X0094047Y0125250D03*
X0093472Y0125925D03*
X0096597Y0126750D03*
X0097672Y0124950D03*
X0096372Y0124375D03*
X0096522Y0121000D03*
X0096547Y0121000D03*
X0096872Y0118750D03*
X0096697Y0116800D03*
X0096747Y0116775D03*
X0096772Y0116750D03*
X0097722Y0115825D03*
X0094247Y0115100D03*
X0093472Y0116775D03*
X0094072Y0117150D03*
X0092372Y0119600D03*
X0092347Y0119600D03*
X0092322Y0119600D03*
X0092297Y0119600D03*
X0092272Y0119600D03*
X0092247Y0119600D03*
X0092122Y0119600D03*
X0092097Y0119600D03*
X0092072Y0119600D03*
X0092047Y0119600D03*
X0092022Y0119600D03*
X0101647Y0118100D03*
X0101672Y0118100D03*
X0101697Y0118100D03*
X0104797Y0112800D03*
X0104822Y0112800D03*
X0104847Y0110500D03*
X0105922Y0108700D03*
X0105047Y0108225D03*
X0105022Y0108225D03*
X0102297Y0109000D03*
X0101722Y0109675D03*
X0096872Y0110750D03*
X0096847Y0110725D03*
X0094372Y0107875D03*
X0089022Y0109450D03*
X0091347Y0101450D03*
X0091372Y0101450D03*
X0091397Y0101425D03*
X0091422Y0101425D03*
X0091447Y0101425D03*
X0091472Y0101425D03*
X0091497Y0101400D03*
X0091522Y0101400D03*
X0091547Y0101400D03*
X0091597Y0101375D03*
X0091622Y0101375D03*
X0091747Y0101350D03*
X0098972Y0104650D03*
X0098997Y0104625D03*
X0099022Y0104600D03*
X0099047Y0104575D03*
X0100697Y0103525D03*
X0096572Y0129050D03*
X0096547Y0129050D03*
D152*
X0096522Y0129062D03*
X0096497Y0129062D03*
X0097697Y0129487D03*
X0097672Y0127212D03*
X0096572Y0126762D03*
X0096547Y0126762D03*
X0096347Y0124387D03*
X0094097Y0125187D03*
X0094072Y0125212D03*
X0094047Y0127287D03*
X0096497Y0121012D03*
X0097697Y0119087D03*
X0096647Y0116837D03*
X0096672Y0116812D03*
X0096722Y0116787D03*
X0096947Y0114537D03*
X0095122Y0113312D03*
X0094522Y0114937D03*
X0094272Y0115087D03*
X0093947Y0111587D03*
X0093972Y0111562D03*
X0093672Y0109487D03*
X0094397Y0107862D03*
X0097597Y0107187D03*
X0099072Y0104537D03*
X0099097Y0104512D03*
X0099122Y0104487D03*
X0099147Y0104462D03*
X0099272Y0104337D03*
X0099297Y0104312D03*
X0099322Y0104287D03*
X0099347Y0104262D03*
X0099372Y0104237D03*
X0099397Y0104212D03*
X0099422Y0104187D03*
X0099447Y0104162D03*
X0099547Y0104087D03*
X0099647Y0104012D03*
X0099747Y0103937D03*
X0099822Y0103887D03*
X0099872Y0103862D03*
X0100047Y0103762D03*
X0100097Y0103737D03*
X0100147Y0103712D03*
X0100197Y0103687D03*
X0100247Y0103662D03*
X0100272Y0103662D03*
X0100322Y0103637D03*
X0100347Y0103637D03*
X0100397Y0103612D03*
X0100422Y0103612D03*
X0100472Y0103587D03*
X0100497Y0103587D03*
X0100547Y0103562D03*
X0100572Y0103562D03*
X0100622Y0103537D03*
X0100647Y0103537D03*
X0100672Y0103537D03*
X0100722Y0103512D03*
X0100747Y0103512D03*
X0100772Y0103512D03*
X0100797Y0103512D03*
X0100822Y0103512D03*
X0100847Y0103487D03*
X0100872Y0103487D03*
X0100897Y0103487D03*
X0100922Y0103487D03*
X0100947Y0103487D03*
X0100972Y0103487D03*
X0102347Y0108937D03*
X0102322Y0108962D03*
X0102297Y0111037D03*
X0102372Y0113387D03*
X0104747Y0112812D03*
X0104772Y0112812D03*
X0105922Y0110962D03*
X0104822Y0110512D03*
X0104797Y0110512D03*
X0104972Y0108212D03*
X0104997Y0108212D03*
X0096822Y0110712D03*
X0096797Y0110712D03*
X0096722Y0110687D03*
X0101572Y0118112D03*
X0101597Y0118112D03*
X0101622Y0118112D03*
X0091997Y0119612D03*
X0091572Y0101387D03*
X0091647Y0101362D03*
X0091672Y0101362D03*
X0091697Y0101362D03*
X0091722Y0101362D03*
X0091772Y0101337D03*
X0091797Y0101337D03*
X0091822Y0101337D03*
X0091847Y0101337D03*
X0091872Y0101337D03*
X0091922Y0101312D03*
X0091947Y0101312D03*
X0091972Y0101312D03*
X0091997Y0101312D03*
X0092022Y0101312D03*
X0092047Y0101312D03*
D153*
X0090472Y0101987D03*
X0090447Y0102012D03*
X0088772Y0105237D03*
X0093497Y0112312D03*
X0096972Y0116487D03*
X0102447Y0117987D03*
X0102472Y0117987D03*
X0102497Y0117987D03*
X0105922Y0117287D03*
X0097547Y0119137D03*
X0097697Y0121812D03*
X0093497Y0122662D03*
X0096847Y0126637D03*
X0097547Y0129537D03*
X0105097Y0110387D03*
D154*
X0104947Y0110462D03*
X0105897Y0108712D03*
X0105122Y0108287D03*
X0105097Y0108262D03*
X0104947Y0112762D03*
X0097722Y0111387D03*
X0094297Y0107937D03*
X0091022Y0101587D03*
X0090997Y0101587D03*
X0090972Y0101612D03*
X0090947Y0101612D03*
X0090922Y0101637D03*
X0090872Y0101662D03*
X0094147Y0115162D03*
X0096847Y0116687D03*
X0096872Y0116662D03*
X0096597Y0120987D03*
X0096447Y0124337D03*
X0097647Y0124962D03*
X0096697Y0126712D03*
X0096697Y0129012D03*
D155*
X0097447Y0127262D03*
X0096872Y0126612D03*
X0096847Y0120887D03*
X0102722Y0117937D03*
X0105022Y0118487D03*
X0105047Y0118462D03*
X0105072Y0118437D03*
X0105097Y0118412D03*
X0105247Y0118212D03*
X0105897Y0117287D03*
X0105697Y0111012D03*
X0105122Y0110362D03*
X0090372Y0102112D03*
D156*
X0105697Y0108725D03*
X0105647Y0111025D03*
X0105872Y0117300D03*
X0104897Y0118575D03*
X0097472Y0119150D03*
X0096747Y0124200D03*
X0097447Y0124975D03*
X0097397Y0127275D03*
X0097472Y0129550D03*
D157*
X0096822Y0128975D03*
X0097572Y0127225D03*
X0096772Y0126675D03*
X0097597Y0124950D03*
X0096547Y0124300D03*
X0093547Y0125900D03*
X0093447Y0122675D03*
X0096722Y0120950D03*
X0102172Y0118025D03*
X0102197Y0118025D03*
X0102222Y0118025D03*
X0094072Y0115250D03*
X0093447Y0112325D03*
X0094222Y0108000D03*
X0097697Y0107250D03*
X0101797Y0109650D03*
X0105022Y0110425D03*
X0105822Y0110975D03*
X0105847Y0108700D03*
X0090622Y0101825D03*
D158*
X0090547Y0101912D03*
X0090522Y0101937D03*
X0090572Y0108287D03*
X0105072Y0110412D03*
X0105797Y0110987D03*
X0105072Y0112762D03*
X0102347Y0118012D03*
X0096772Y0120937D03*
X0096822Y0126662D03*
X0097547Y0127237D03*
D159*
X0097297Y0125000D03*
X0097597Y0121850D03*
X0097322Y0119200D03*
X0093672Y0122600D03*
X0097322Y0129600D03*
X0105797Y0117300D03*
X0105547Y0108750D03*
X0097847Y0106975D03*
D160*
X0105772Y0108725D03*
X0105747Y0111000D03*
X0105097Y0112775D03*
X0102547Y0117975D03*
X0102522Y0117975D03*
X0096647Y0124250D03*
X0097522Y0124975D03*
X0097497Y0127250D03*
X0096872Y0128975D03*
D161*
X0097497Y0129550D03*
X0097422Y0127275D03*
X0097472Y0124975D03*
X0097672Y0121825D03*
X0097497Y0119150D03*
X0102747Y0117950D03*
X0104972Y0118525D03*
X0104997Y0118500D03*
X0105122Y0112775D03*
X0105672Y0111025D03*
X0105722Y0108725D03*
X0090547Y0108250D03*
D162*
X0097747Y0107162D03*
X0097622Y0111387D03*
X0105722Y0111012D03*
X0102622Y0117962D03*
X0102597Y0117962D03*
X0102572Y0117962D03*
X0097522Y0119137D03*
X0096822Y0120912D03*
X0096672Y0124237D03*
X0097472Y0127262D03*
X0097522Y0129537D03*
X0090397Y0102062D03*
X0090422Y0102037D03*
D163*
X0097947Y0106825D03*
X0097372Y0111425D03*
X0105697Y0113600D03*
X0105672Y0117325D03*
X0093822Y0122525D03*
D164*
X0093572Y0122637D03*
X0096872Y0120862D03*
X0097647Y0121837D03*
X0097447Y0119162D03*
X0097422Y0124987D03*
X0097372Y0127287D03*
X0097447Y0129562D03*
X0104847Y0118612D03*
X0104872Y0118587D03*
X0105622Y0111037D03*
X0105672Y0108737D03*
X0097797Y0107062D03*
X0097572Y0111387D03*
X0090322Y0102187D03*
D165*
X0097972Y0106800D03*
X0097347Y0111425D03*
X0093822Y0112200D03*
X0105672Y0113600D03*
X0105647Y0117325D03*
X0093847Y0122525D03*
D166*
X0105622Y0117337D03*
X0097297Y0111437D03*
X0093872Y0112187D03*
X0097997Y0106762D03*
D167*
X0097247Y0111450D03*
X0105597Y0113625D03*
X0088822Y0105250D03*
X0090147Y0102650D03*
D168*
X0090272Y0102275D03*
X0093097Y0104850D03*
X0093222Y0104825D03*
X0093447Y0104775D03*
X0093572Y0104750D03*
X0093797Y0104700D03*
X0093922Y0104675D03*
X0094147Y0104625D03*
X0094272Y0104600D03*
X0094497Y0104550D03*
X0094622Y0104525D03*
X0094847Y0104475D03*
X0094972Y0104450D03*
X0095197Y0104400D03*
X0095322Y0104375D03*
X0095547Y0104325D03*
X0095672Y0104300D03*
X0095897Y0104250D03*
X0096022Y0104225D03*
X0096247Y0104175D03*
X0096372Y0104150D03*
X0096597Y0104100D03*
X0096722Y0104075D03*
X0096947Y0104025D03*
X0097072Y0104000D03*
X0097422Y0103925D03*
X0097772Y0103850D03*
X0098122Y0103775D03*
X0092872Y0104900D03*
X0092747Y0104925D03*
X0092647Y0104950D03*
X0092522Y0104975D03*
X0092397Y0105000D03*
X0092297Y0105025D03*
X0092172Y0105050D03*
X0092047Y0105075D03*
X0091947Y0105100D03*
X0091922Y0105100D03*
X0091822Y0105125D03*
X0091697Y0105150D03*
X0091597Y0105175D03*
X0091572Y0105175D03*
X0091472Y0105200D03*
X0091347Y0105225D03*
X0091247Y0105250D03*
X0091222Y0105250D03*
X0091122Y0105275D03*
X0090997Y0105300D03*
X0090897Y0105325D03*
X0090872Y0105325D03*
X0090772Y0105350D03*
X0090647Y0105375D03*
X0090547Y0105400D03*
X0090522Y0105400D03*
X0090422Y0105425D03*
X0090522Y0108225D03*
X0097547Y0111400D03*
X0093597Y0112275D03*
X0097397Y0119175D03*
X0097622Y0121850D03*
X0096797Y0124175D03*
X0097322Y0127300D03*
X0097397Y0129575D03*
X0104747Y0118675D03*
X0104772Y0118650D03*
X0105572Y0111050D03*
D169*
X0105547Y0113637D03*
X0101747Y0114137D03*
X0097197Y0111462D03*
X0098072Y0106662D03*
X0105547Y0117387D03*
X0097372Y0121912D03*
D170*
X0105522Y0117387D03*
X0101797Y0114162D03*
X0098097Y0106637D03*
D171*
X0098122Y0106612D03*
X0097122Y0111462D03*
X0101847Y0114187D03*
X0105497Y0117412D03*
D172*
X0105472Y0111337D03*
X0089172Y0106437D03*
D173*
X0105447Y0111350D03*
D174*
X0105422Y0111337D03*
D175*
X0105397Y0111350D03*
X0089197Y0106400D03*
D176*
X0089222Y0106375D03*
X0105372Y0111350D03*
D177*
X0105347Y0111362D03*
D178*
X0101847Y0110287D03*
X0094847Y0114062D03*
X0094822Y0114062D03*
X0094797Y0114062D03*
X0094772Y0114062D03*
X0093572Y0116062D03*
X0102222Y0114237D03*
X0102247Y0114237D03*
X0105347Y0117487D03*
X0094122Y0108737D03*
X0094097Y0108737D03*
X0094072Y0108737D03*
X0098772Y0104162D03*
X0093597Y0126537D03*
X0096947Y0129412D03*
D179*
X0105322Y0111375D03*
X0089247Y0106350D03*
D180*
X0089272Y0106325D03*
X0105272Y0111375D03*
X0105297Y0111375D03*
D181*
X0101547Y0109762D03*
X0097872Y0115762D03*
X0105272Y0116287D03*
X0094547Y0123312D03*
X0094522Y0123312D03*
X0094497Y0123337D03*
X0094472Y0123337D03*
X0094422Y0123362D03*
X0094397Y0123362D03*
X0094272Y0123387D03*
X0094247Y0123387D03*
X0094222Y0123387D03*
X0093297Y0126012D03*
X0096872Y0130637D03*
X0093397Y0109587D03*
D182*
X0089297Y0106287D03*
X0105247Y0111387D03*
D183*
X0105247Y0116275D03*
X0104172Y0116575D03*
X0094622Y0123275D03*
X0094597Y0123300D03*
X0094572Y0123300D03*
X0094597Y0109650D03*
X0088947Y0109825D03*
X0093622Y0101800D03*
D184*
X0105222Y0111400D03*
D185*
X0105197Y0116225D03*
X0105222Y0116250D03*
X0097872Y0119025D03*
X0093297Y0116800D03*
X0091522Y0119600D03*
X0094672Y0123250D03*
X0097872Y0129425D03*
X0096847Y0130675D03*
X0094622Y0109650D03*
D186*
X0105197Y0109500D03*
D187*
X0105147Y0109425D03*
D188*
X0105147Y0116200D03*
X0105122Y0116200D03*
X0091497Y0119600D03*
X0088922Y0109875D03*
X0091597Y0130500D03*
D189*
X0096722Y0130800D03*
X0096747Y0130775D03*
X0097897Y0121750D03*
X0104672Y0119475D03*
X0104697Y0119450D03*
X0104722Y0119425D03*
X0104122Y0116575D03*
X0105047Y0116175D03*
X0097872Y0111375D03*
D190*
X0096922Y0112450D03*
X0094197Y0109700D03*
X0102372Y0115275D03*
X0104622Y0116475D03*
X0104997Y0114850D03*
X0105022Y0114825D03*
X0092697Y0119600D03*
X0091697Y0119600D03*
X0091672Y0130225D03*
X0102197Y0103700D03*
X0093397Y0101550D03*
X0093372Y0101525D03*
D191*
X0102247Y0103737D03*
X0094222Y0109712D03*
X0095197Y0113187D03*
X0102397Y0115287D03*
X0104572Y0116487D03*
X0104597Y0116487D03*
X0104647Y0116462D03*
X0104672Y0116462D03*
X0104722Y0116437D03*
X0104947Y0114887D03*
X0104972Y0114862D03*
X0097797Y0119062D03*
X0096997Y0123112D03*
X0093372Y0116787D03*
X0097797Y0129462D03*
D192*
X0104972Y0116625D03*
X0088772Y0110200D03*
D193*
X0093497Y0109550D03*
X0094247Y0109700D03*
X0094622Y0113050D03*
X0097822Y0111375D03*
X0097822Y0115775D03*
X0101672Y0114825D03*
X0102422Y0115300D03*
X0102447Y0115325D03*
X0102472Y0115325D03*
X0104722Y0115025D03*
X0104772Y0115000D03*
X0104797Y0114975D03*
X0104822Y0114975D03*
X0104847Y0114950D03*
X0104872Y0114925D03*
X0104897Y0114925D03*
X0104922Y0114900D03*
X0104772Y0116425D03*
X0104747Y0116425D03*
X0104697Y0116450D03*
X0104547Y0116500D03*
X0104522Y0116500D03*
X0104497Y0116525D03*
X0104472Y0116525D03*
X0104447Y0116525D03*
X0092722Y0119600D03*
X0091672Y0119600D03*
X0102272Y0103750D03*
X0093447Y0101600D03*
X0093422Y0101575D03*
D194*
X0093522Y0101675D03*
X0102347Y0103825D03*
X0102372Y0103850D03*
X0094397Y0109700D03*
X0094372Y0109700D03*
X0094447Y0113100D03*
X0095222Y0113150D03*
X0096722Y0112650D03*
X0096747Y0112625D03*
X0103047Y0115425D03*
X0103072Y0115425D03*
X0104347Y0116550D03*
X0104872Y0116375D03*
X0097822Y0119050D03*
X0092772Y0119600D03*
X0091622Y0119600D03*
X0097822Y0129450D03*
D195*
X0093347Y0126000D03*
X0093297Y0122725D03*
X0092747Y0119600D03*
X0101647Y0114825D03*
X0102547Y0115350D03*
X0102622Y0115375D03*
X0102647Y0115375D03*
X0102672Y0115375D03*
X0102722Y0115400D03*
X0102747Y0115400D03*
X0103422Y0115400D03*
X0103622Y0115375D03*
X0103747Y0115350D03*
X0103772Y0115350D03*
X0103847Y0115325D03*
X0103872Y0115325D03*
X0103972Y0115300D03*
X0103997Y0115300D03*
X0104072Y0115275D03*
X0104097Y0115275D03*
X0104147Y0115250D03*
X0104172Y0115250D03*
X0104197Y0115225D03*
X0104222Y0115225D03*
X0104247Y0115225D03*
X0104297Y0115200D03*
X0104322Y0115200D03*
X0104372Y0115175D03*
X0104397Y0115175D03*
X0104447Y0115150D03*
X0104472Y0115150D03*
X0104497Y0115125D03*
X0104522Y0115125D03*
X0104572Y0115100D03*
X0104622Y0115075D03*
X0104822Y0116400D03*
X0101597Y0109750D03*
X0096847Y0112550D03*
X0094547Y0113075D03*
X0094522Y0113075D03*
X0093297Y0112375D03*
X0093472Y0109550D03*
X0094322Y0109700D03*
X0094347Y0109700D03*
X0102322Y0103800D03*
X0093472Y0101625D03*
D196*
X0092597Y0101287D03*
X0092572Y0101287D03*
X0092547Y0101287D03*
X0092522Y0101287D03*
X0092497Y0101287D03*
X0092472Y0101287D03*
X0092447Y0101287D03*
X0092422Y0101287D03*
X0092397Y0101287D03*
X0092372Y0101287D03*
X0092347Y0101287D03*
X0092322Y0101287D03*
X0092297Y0101287D03*
X0101322Y0103462D03*
X0101347Y0103462D03*
X0101372Y0103462D03*
X0101397Y0103462D03*
X0101422Y0103462D03*
X0101447Y0103462D03*
X0103272Y0108412D03*
X0103297Y0108412D03*
X0103347Y0108387D03*
X0103372Y0108387D03*
X0103422Y0108362D03*
X0103447Y0108362D03*
X0103497Y0108337D03*
X0103522Y0108337D03*
X0103572Y0108312D03*
X0103597Y0108312D03*
X0103622Y0108312D03*
X0103647Y0108287D03*
X0103672Y0108287D03*
X0103697Y0108287D03*
X0103722Y0108287D03*
X0103772Y0108262D03*
X0103797Y0108262D03*
X0103822Y0108262D03*
X0103847Y0108262D03*
X0103872Y0108237D03*
X0103897Y0108237D03*
X0103922Y0108237D03*
X0103947Y0108237D03*
X0103997Y0108212D03*
X0104022Y0108212D03*
X0104047Y0108212D03*
X0104072Y0108212D03*
X0104147Y0108187D03*
X0104172Y0108187D03*
X0104197Y0108187D03*
X0104222Y0108187D03*
X0104247Y0108187D03*
X0104272Y0108187D03*
X0104297Y0108187D03*
X0104347Y0108162D03*
X0104372Y0108162D03*
X0104397Y0108162D03*
X0104422Y0108162D03*
X0104447Y0108162D03*
X0104472Y0108162D03*
X0104497Y0108162D03*
X0104522Y0108162D03*
X0104547Y0108162D03*
X0104572Y0108162D03*
X0104597Y0108162D03*
X0104622Y0108162D03*
X0104647Y0108162D03*
X0104672Y0108162D03*
X0104697Y0108162D03*
X0104722Y0108162D03*
X0104747Y0108162D03*
X0103222Y0108437D03*
X0103147Y0108462D03*
X0103022Y0108512D03*
X0102972Y0108537D03*
X0102922Y0108562D03*
X0102872Y0108587D03*
X0102822Y0108612D03*
X0102772Y0108637D03*
X0102697Y0108687D03*
X0102647Y0108712D03*
X0102597Y0108737D03*
X0102572Y0108762D03*
X0102547Y0108787D03*
X0102497Y0108812D03*
X0102472Y0108837D03*
X0101697Y0109687D03*
X0102347Y0111037D03*
X0102372Y0111037D03*
X0104497Y0110612D03*
X0104597Y0110587D03*
X0104622Y0110587D03*
X0104647Y0110562D03*
X0104672Y0110562D03*
X0104672Y0112837D03*
X0104647Y0112837D03*
X0104622Y0112862D03*
X0104597Y0112862D03*
X0104572Y0112862D03*
X0104497Y0112887D03*
X0104397Y0112912D03*
X0102397Y0113362D03*
X0096897Y0114512D03*
X0096522Y0116912D03*
X0096497Y0116912D03*
X0096472Y0116937D03*
X0096447Y0116937D03*
X0096422Y0116962D03*
X0096797Y0118712D03*
X0096822Y0118712D03*
X0096422Y0121037D03*
X0096397Y0121037D03*
X0096372Y0121037D03*
X0096347Y0121037D03*
X0096322Y0121037D03*
X0096297Y0121037D03*
X0096272Y0121037D03*
X0096247Y0121037D03*
X0096222Y0121037D03*
X0096097Y0121062D03*
X0096072Y0121062D03*
X0096047Y0121062D03*
X0096022Y0121062D03*
X0095997Y0121062D03*
X0095972Y0121062D03*
X0095947Y0121062D03*
X0095922Y0121062D03*
X0095897Y0121087D03*
X0095872Y0121087D03*
X0095847Y0121087D03*
X0095822Y0121087D03*
X0095797Y0121087D03*
X0095772Y0121087D03*
X0095722Y0121112D03*
X0095697Y0121112D03*
X0095672Y0121112D03*
X0095647Y0121112D03*
X0095622Y0121137D03*
X0095597Y0121137D03*
X0095572Y0121137D03*
X0095547Y0121137D03*
X0095522Y0121137D03*
X0095497Y0121162D03*
X0095472Y0121162D03*
X0095447Y0121162D03*
X0095422Y0121162D03*
X0095397Y0121187D03*
X0095372Y0121187D03*
X0095347Y0121187D03*
X0095272Y0121212D03*
X0095247Y0121212D03*
X0095197Y0121237D03*
X0095172Y0121237D03*
X0095122Y0121262D03*
X0095097Y0121262D03*
X0095047Y0121287D03*
X0095022Y0121287D03*
X0094972Y0121312D03*
X0094897Y0121337D03*
X0094822Y0121362D03*
X0093872Y0121987D03*
X0092472Y0119612D03*
X0091922Y0119612D03*
X0094122Y0117187D03*
X0094322Y0115062D03*
X0094347Y0115037D03*
X0094372Y0115037D03*
X0094497Y0114987D03*
X0093372Y0112337D03*
X0094022Y0111487D03*
X0094047Y0111462D03*
X0094072Y0111437D03*
X0094097Y0111412D03*
X0094122Y0111387D03*
X0094197Y0111337D03*
X0094472Y0111162D03*
X0094622Y0111087D03*
X0094672Y0111062D03*
X0094722Y0111037D03*
X0094772Y0111012D03*
X0094847Y0110987D03*
X0094897Y0110962D03*
X0094922Y0110962D03*
X0094972Y0110937D03*
X0094997Y0110937D03*
X0095022Y0110912D03*
X0095047Y0110912D03*
X0095072Y0110912D03*
X0095097Y0110887D03*
X0095122Y0110887D03*
X0095147Y0110862D03*
X0095172Y0110862D03*
X0095197Y0110862D03*
X0095247Y0110837D03*
X0095272Y0110837D03*
X0095322Y0110812D03*
X0095347Y0110812D03*
X0095372Y0110812D03*
X0095397Y0110812D03*
X0095422Y0110787D03*
X0095447Y0110787D03*
X0095472Y0110787D03*
X0095522Y0110762D03*
X0095547Y0110762D03*
X0095572Y0110762D03*
X0095597Y0110762D03*
X0095647Y0110737D03*
X0095672Y0110737D03*
X0095697Y0110737D03*
X0095722Y0110737D03*
X0095747Y0110712D03*
X0095772Y0110712D03*
X0095797Y0110712D03*
X0095822Y0110712D03*
X0095847Y0110712D03*
X0095897Y0110687D03*
X0095922Y0110687D03*
X0095947Y0110687D03*
X0095972Y0110687D03*
X0095997Y0110687D03*
X0096022Y0110687D03*
X0096047Y0110687D03*
X0096097Y0110662D03*
X0096122Y0110662D03*
X0096147Y0110662D03*
X0096172Y0110662D03*
X0096197Y0110662D03*
X0096222Y0110662D03*
X0096247Y0110662D03*
X0096272Y0110662D03*
X0096297Y0110662D03*
X0096322Y0110662D03*
X0096347Y0110662D03*
X0096372Y0110662D03*
X0096397Y0110662D03*
X0096422Y0110662D03*
X0096447Y0110662D03*
X0096472Y0110662D03*
X0096497Y0110662D03*
X0096522Y0110662D03*
X0093647Y0109487D03*
X0094422Y0107837D03*
X0094447Y0107812D03*
X0101447Y0118137D03*
X0101472Y0118137D03*
X0102847Y0118212D03*
X0102872Y0118212D03*
X0102897Y0118212D03*
X0102922Y0118212D03*
X0102947Y0118212D03*
X0102972Y0118212D03*
X0102997Y0118212D03*
X0103022Y0118212D03*
X0103047Y0118212D03*
X0103072Y0118212D03*
X0103097Y0118212D03*
X0103122Y0118212D03*
X0103147Y0118237D03*
X0103172Y0118237D03*
X0103197Y0118237D03*
X0103222Y0118237D03*
X0103247Y0118237D03*
X0103272Y0118237D03*
X0103297Y0118237D03*
X0103322Y0118237D03*
X0103347Y0118237D03*
X0103372Y0118237D03*
X0103397Y0118237D03*
X0103472Y0118262D03*
X0103497Y0118262D03*
X0103522Y0118262D03*
X0103547Y0118262D03*
X0103572Y0118262D03*
X0103597Y0118262D03*
X0103622Y0118262D03*
X0103647Y0118262D03*
X0103797Y0118287D03*
X0103822Y0118287D03*
X0103847Y0118287D03*
X0103872Y0118287D03*
X0103897Y0118287D03*
X0104097Y0118312D03*
X0104122Y0118312D03*
X0104147Y0118312D03*
X0104172Y0118312D03*
X0104197Y0118312D03*
X0096297Y0124412D03*
X0096272Y0124412D03*
X0096247Y0124412D03*
X0096222Y0124412D03*
X0096197Y0124412D03*
X0096172Y0124412D03*
X0096147Y0124412D03*
X0096122Y0124412D03*
X0096097Y0124412D03*
X0096047Y0124437D03*
X0096022Y0124437D03*
X0095997Y0124437D03*
X0095972Y0124437D03*
X0095947Y0124437D03*
X0095922Y0124437D03*
X0095897Y0124437D03*
X0095822Y0124462D03*
X0095797Y0124462D03*
X0095772Y0124462D03*
X0095747Y0124462D03*
X0095697Y0124487D03*
X0095672Y0124487D03*
X0095647Y0124487D03*
X0095622Y0124487D03*
X0095597Y0124512D03*
X0095572Y0124512D03*
X0095547Y0124512D03*
X0095522Y0124512D03*
X0095472Y0124537D03*
X0095447Y0124537D03*
X0095422Y0124537D03*
X0095397Y0124537D03*
X0095372Y0124562D03*
X0095347Y0124562D03*
X0095322Y0124562D03*
X0095272Y0124587D03*
X0095247Y0124587D03*
X0095197Y0124612D03*
X0095172Y0124612D03*
X0095122Y0124637D03*
X0095097Y0124637D03*
X0095047Y0124662D03*
X0095022Y0124662D03*
X0094972Y0124687D03*
X0094897Y0124712D03*
X0094772Y0124762D03*
X0094722Y0124787D03*
X0094672Y0124812D03*
X0094622Y0124837D03*
X0094572Y0124862D03*
X0094522Y0124887D03*
X0094447Y0124937D03*
X0094397Y0124962D03*
X0094347Y0124987D03*
X0094322Y0125012D03*
X0094297Y0125037D03*
X0094247Y0125062D03*
X0094222Y0125087D03*
X0093447Y0125937D03*
X0094097Y0127287D03*
X0094122Y0127287D03*
X0096247Y0126862D03*
X0096347Y0126837D03*
X0096372Y0126837D03*
X0096397Y0126812D03*
X0096422Y0126812D03*
X0096372Y0129112D03*
X0096347Y0129112D03*
X0096322Y0129112D03*
X0096297Y0129137D03*
X0096272Y0129137D03*
X0096247Y0129137D03*
X0096172Y0129162D03*
X0096147Y0129162D03*
D197*
X0096647Y0130850D03*
X0096597Y0130875D03*
X0096572Y0130900D03*
X0092922Y0119600D03*
X0091472Y0119600D03*
X0103122Y0117075D03*
X0103147Y0117075D03*
X0103197Y0117050D03*
X0103247Y0117025D03*
X0103272Y0117025D03*
X0103297Y0117000D03*
X0103322Y0117000D03*
X0103372Y0116975D03*
X0103422Y0116950D03*
X0103472Y0116925D03*
X0103522Y0116900D03*
X0103572Y0116875D03*
X0103622Y0116850D03*
X0103672Y0116825D03*
X0103722Y0116800D03*
X0103772Y0116775D03*
X0103822Y0116750D03*
X0103847Y0116725D03*
X0103872Y0116725D03*
X0103897Y0116700D03*
X0103922Y0116700D03*
X0103947Y0116675D03*
X0103972Y0116675D03*
X0103997Y0116650D03*
X0104022Y0116650D03*
X0104047Y0116625D03*
X0104072Y0116625D03*
X0104097Y0116600D03*
X0104597Y0119550D03*
X0104572Y0119575D03*
X0104547Y0119600D03*
D198*
X0104522Y0119637D03*
X0103347Y0116987D03*
X0103397Y0116962D03*
X0103447Y0116937D03*
X0103497Y0116912D03*
X0103547Y0116887D03*
X0103597Y0116862D03*
X0103647Y0116837D03*
X0103697Y0116812D03*
X0103747Y0116787D03*
X0103797Y0116762D03*
X0103222Y0117037D03*
X0103172Y0117062D03*
X0103097Y0117087D03*
X0103072Y0117087D03*
X0103047Y0117112D03*
X0103022Y0117112D03*
X0102972Y0117137D03*
X0102947Y0117137D03*
X0101322Y0118562D03*
X0101522Y0109787D03*
X0088897Y0109937D03*
X0093272Y0126037D03*
X0096522Y0130912D03*
X0096547Y0130912D03*
X0096497Y0130937D03*
D199*
X0104372Y0119775D03*
X0104397Y0119750D03*
X0104422Y0119725D03*
D200*
X0104222Y0116575D03*
X0097847Y0119025D03*
X0093872Y0123350D03*
X0091572Y0119600D03*
X0093947Y0113075D03*
X0095272Y0113150D03*
X0095297Y0113150D03*
X0095322Y0113125D03*
X0095347Y0113125D03*
X0095372Y0113125D03*
X0095397Y0113125D03*
X0095422Y0113125D03*
X0095497Y0113100D03*
X0095522Y0113100D03*
X0095547Y0113100D03*
X0094547Y0109675D03*
X0097847Y0129425D03*
D201*
X0092972Y0119600D03*
X0101272Y0118750D03*
X0097897Y0111375D03*
X0102547Y0104275D03*
D202*
X0102472Y0103987D03*
X0101347Y0118487D03*
X0094647Y0123262D03*
X0092872Y0119587D03*
D203*
X0093397Y0116787D03*
X0097772Y0119062D03*
X0102322Y0115212D03*
X0097797Y0111387D03*
X0093547Y0109537D03*
X0102072Y0103612D03*
X0102097Y0103637D03*
X0093247Y0101462D03*
X0093222Y0101437D03*
X0097772Y0129462D03*
D204*
X0093872Y0126350D03*
X0093872Y0116125D03*
X0093897Y0116125D03*
X0097347Y0115400D03*
X0102122Y0110100D03*
D205*
X0102097Y0110112D03*
X0102072Y0110137D03*
X0097372Y0115387D03*
X0093847Y0126362D03*
X0093822Y0126387D03*
D206*
X0091422Y0119587D03*
X0101522Y0114812D03*
D207*
X0101497Y0109800D03*
X0093247Y0126050D03*
D208*
X0101297Y0118662D03*
D209*
X0098347Y0105337D03*
X0098322Y0105337D03*
X0098297Y0105337D03*
X0098372Y0105312D03*
X0098397Y0105312D03*
X0098422Y0105312D03*
X0098447Y0105312D03*
X0098497Y0105287D03*
X0098522Y0105287D03*
X0098547Y0105287D03*
X0098572Y0105287D03*
X0098597Y0105262D03*
X0098622Y0105262D03*
X0098647Y0105262D03*
X0098672Y0105262D03*
X0098697Y0105262D03*
X0098722Y0105237D03*
X0098747Y0105237D03*
D210*
X0098472Y0105300D03*
X0090247Y0107075D03*
D211*
X0097897Y0106887D03*
X0093722Y0112237D03*
X0097222Y0119212D03*
X0097547Y0121862D03*
X0096872Y0124162D03*
D212*
X0093697Y0122587D03*
X0093697Y0112237D03*
X0097472Y0111412D03*
X0090497Y0108187D03*
X0097872Y0106937D03*
D213*
X0097222Y0127312D03*
D214*
X0097197Y0120762D03*
D215*
X0097197Y0127325D03*
D216*
X0097172Y0115500D03*
D217*
X0097172Y0120775D03*
D218*
X0097172Y0127325D03*
X0097147Y0127325D03*
D219*
X0097147Y0120800D03*
D220*
X0097122Y0120787D03*
D221*
X0097122Y0127325D03*
D222*
X0097097Y0120800D03*
D223*
X0097097Y0127337D03*
D224*
X0097072Y0120812D03*
D225*
X0097072Y0127350D03*
D226*
X0097047Y0120825D03*
D227*
X0097047Y0127337D03*
D228*
X0097022Y0120825D03*
D229*
X0097022Y0127350D03*
D230*
X0096997Y0120062D03*
D231*
X0096997Y0127362D03*
X0089047Y0106612D03*
D232*
X0089672Y0105950D03*
X0089697Y0105925D03*
X0096972Y0126825D03*
D233*
X0096947Y0125275D03*
D234*
X0096897Y0125262D03*
X0088997Y0105512D03*
D235*
X0088797Y0110150D03*
X0094822Y0123300D03*
X0091522Y0130775D03*
D236*
X0091547Y0130675D03*
X0094797Y0123275D03*
X0088847Y0110050D03*
X0090672Y0108400D03*
D237*
X0093322Y0109600D03*
X0092947Y0119600D03*
X0091447Y0119600D03*
X0094772Y0123275D03*
D238*
X0093247Y0116837D03*
D239*
X0090372Y0106975D03*
D240*
X0090347Y0106987D03*
D241*
X0090322Y0107012D03*
D242*
X0090297Y0107025D03*
X0090272Y0107050D03*
D243*
X0090222Y0107087D03*
X0090197Y0107087D03*
D244*
X0090172Y0107100D03*
X0090147Y0107125D03*
D245*
X0089997Y0105687D03*
X0090022Y0105662D03*
X0090047Y0105637D03*
X0090072Y0105612D03*
X0090097Y0105587D03*
X0090122Y0105587D03*
D246*
X0089972Y0105700D03*
X0089947Y0105725D03*
D247*
X0089922Y0105737D03*
X0089897Y0105762D03*
D248*
X0089872Y0105775D03*
D249*
X0089847Y0105787D03*
X0089822Y0105812D03*
D250*
X0089797Y0105837D03*
X0089772Y0105862D03*
D251*
X0089747Y0105875D03*
X0089722Y0105900D03*
D252*
X0089647Y0105962D03*
D253*
X0089622Y0105987D03*
X0089597Y0106012D03*
D254*
X0089572Y0106025D03*
D255*
X0089547Y0106050D03*
D256*
X0089522Y0106062D03*
D257*
X0089497Y0106087D03*
D258*
X0089472Y0106125D03*
D259*
X0089447Y0106137D03*
D260*
X0089422Y0106162D03*
D261*
X0089397Y0106187D03*
X0089372Y0106212D03*
D262*
X0089347Y0106237D03*
D263*
X0089322Y0106262D03*
D264*
X0089147Y0106462D03*
D265*
X0089122Y0106500D03*
D266*
X0089097Y0106537D03*
D267*
X0089072Y0106575D03*
D268*
X0089022Y0105637D03*
D269*
X0088872Y0109987D03*
D270*
X0088822Y0110100D03*
M02*
