G75*
%MOIN*%
%OFA0B0*%
%FSLAX25Y25*%
%IPPOS*%
%LPD*%
%AMOC8*
5,1,8,0,0,1.08239X$1,22.5*
%
%ADD10R,0.26000X0.21500*%
%ADD11R,0.03550X0.03550*%
%ADD12R,0.02762X0.01975*%
%ADD13R,0.04731X0.02762*%
%ADD14R,0.03156X0.03156*%
%ADD15C,0.04400*%
%ADD16R,0.08400X0.08400*%
%ADD17C,0.08400*%
%ADD18C,0.12998*%
%ADD19R,0.01600X0.04300*%
%ADD20R,0.07800X0.07800*%
%ADD21C,0.07800*%
%ADD22C,0.06400*%
%ADD23C,0.03943*%
%ADD24R,0.01975X0.02762*%
%ADD25R,0.04337X0.07487*%
%ADD26C,0.06306*%
D10*
X0198422Y0097250D03*
D11*
X0157374Y0189500D03*
X0151469Y0189500D03*
X0151969Y0195500D03*
X0157874Y0195500D03*
D12*
X0111922Y0167522D03*
X0111922Y0163978D03*
D13*
X0145422Y0189744D03*
X0145422Y0195256D03*
D14*
X0093422Y0166142D03*
X0095981Y0158858D03*
X0090863Y0158858D03*
D15*
X0236422Y0159000D03*
X0241422Y0159000D03*
X0241422Y0154000D03*
X0236422Y0154000D03*
X0236422Y0149000D03*
X0241422Y0149000D03*
X0241422Y0164000D03*
X0241422Y0169000D03*
X0236422Y0169000D03*
X0236422Y0164000D03*
D16*
X0133022Y0057950D03*
D17*
X0152707Y0057950D03*
D18*
X0102398Y0066476D03*
X0224445Y0066476D03*
X0224445Y0188524D03*
X0102398Y0188524D03*
D19*
X0155745Y0138987D03*
X0158304Y0138987D03*
X0160863Y0138987D03*
X0163422Y0138987D03*
X0165981Y0138987D03*
X0168540Y0138987D03*
X0171099Y0138987D03*
X0171099Y0116013D03*
X0168540Y0116013D03*
X0165981Y0116013D03*
X0163422Y0116013D03*
X0160863Y0116013D03*
X0158304Y0116013D03*
X0155745Y0116013D03*
D20*
X0174422Y0050000D03*
D21*
X0184422Y0050000D03*
X0194422Y0050000D03*
X0204422Y0050000D03*
D22*
X0145922Y0050000D03*
X0140922Y0050000D03*
D23*
X0237556Y0111402D02*
X0237556Y0111402D01*
X0240312Y0111402D01*
X0240312Y0111402D01*
X0237556Y0111402D01*
X0237556Y0137386D02*
X0237556Y0137386D01*
X0240312Y0137386D01*
X0240312Y0137386D01*
X0237556Y0137386D01*
D24*
X0095193Y0154500D03*
X0091650Y0154500D03*
D25*
X0156410Y0106500D03*
X0167434Y0106500D03*
D26*
X0148422Y0125500D03*
X0138422Y0125500D03*
X0128422Y0125500D03*
X0118422Y0125500D03*
X0118422Y0135500D03*
X0128422Y0135500D03*
X0138422Y0135500D03*
X0148422Y0135500D03*
X0148422Y0145500D03*
X0158422Y0145500D03*
X0168422Y0145500D03*
X0178422Y0145500D03*
X0188422Y0145500D03*
X0198422Y0145500D03*
X0208422Y0145500D03*
X0138422Y0145500D03*
X0128422Y0145500D03*
X0118422Y0145500D03*
X0118422Y0205500D03*
X0128422Y0205500D03*
X0138422Y0205500D03*
X0148422Y0205500D03*
X0158422Y0205500D03*
X0168422Y0205500D03*
X0178422Y0205500D03*
X0188422Y0205500D03*
X0198422Y0205500D03*
X0208422Y0205500D03*
M02*
