G75*
%MOIN*%
%OFA0B0*%
%FSLAX25Y25*%
%IPPOS*%
%LPD*%
%AMOC8*
5,1,8,0,0,1.08239X$1,22.5*
%
%ADD10C,0.00000*%
%ADD11C,0.01008*%
%ADD12R,0.01969X0.01969*%
%ADD13R,0.04724X0.04724*%
%ADD14R,0.01575X0.02362*%
%ADD15R,0.01969X0.01969*%
%ADD16R,0.02362X0.03150*%
%ADD17R,0.03150X0.02362*%
%ADD18R,0.11811X0.05512*%
%ADD19R,0.03150X0.03150*%
%ADD20R,0.07098X0.06299*%
%ADD21R,0.01575X0.06299*%
%ADD22R,0.05315X0.01575*%
%ADD23R,0.05512X0.06299*%
%ADD24R,0.07480X0.07480*%
%ADD25C,0.03543*%
%ADD26C,0.00039*%
%ADD27R,0.03543X0.03150*%
%ADD28R,0.03937X0.04331*%
%ADD29R,0.04724X0.02165*%
%ADD30R,0.03150X0.03543*%
%ADD31R,0.02362X0.01575*%
%ADD32R,0.04134X0.02559*%
D10*
X0080922Y0060000D02*
X0095922Y0045000D01*
X0230922Y0045000D01*
X0245922Y0060000D01*
X0245922Y0195000D01*
X0230922Y0210000D01*
X0095922Y0210000D01*
X0080922Y0195000D01*
X0080922Y0060000D01*
X0096099Y0066476D02*
X0096101Y0066634D01*
X0096107Y0066792D01*
X0096117Y0066950D01*
X0096131Y0067108D01*
X0096149Y0067265D01*
X0096170Y0067422D01*
X0096196Y0067578D01*
X0096226Y0067734D01*
X0096259Y0067889D01*
X0096297Y0068042D01*
X0096338Y0068195D01*
X0096383Y0068347D01*
X0096432Y0068498D01*
X0096485Y0068647D01*
X0096541Y0068795D01*
X0096601Y0068941D01*
X0096665Y0069086D01*
X0096733Y0069229D01*
X0096804Y0069371D01*
X0096878Y0069511D01*
X0096956Y0069648D01*
X0097038Y0069784D01*
X0097122Y0069918D01*
X0097211Y0070049D01*
X0097302Y0070178D01*
X0097397Y0070305D01*
X0097494Y0070430D01*
X0097595Y0070552D01*
X0097699Y0070671D01*
X0097806Y0070788D01*
X0097916Y0070902D01*
X0098029Y0071013D01*
X0098144Y0071122D01*
X0098262Y0071227D01*
X0098383Y0071329D01*
X0098506Y0071429D01*
X0098632Y0071525D01*
X0098760Y0071618D01*
X0098890Y0071708D01*
X0099023Y0071794D01*
X0099158Y0071878D01*
X0099294Y0071957D01*
X0099433Y0072034D01*
X0099574Y0072106D01*
X0099716Y0072176D01*
X0099860Y0072241D01*
X0100006Y0072303D01*
X0100153Y0072361D01*
X0100302Y0072416D01*
X0100452Y0072467D01*
X0100603Y0072514D01*
X0100755Y0072557D01*
X0100908Y0072596D01*
X0101063Y0072632D01*
X0101218Y0072663D01*
X0101374Y0072691D01*
X0101530Y0072715D01*
X0101687Y0072735D01*
X0101845Y0072751D01*
X0102002Y0072763D01*
X0102161Y0072771D01*
X0102319Y0072775D01*
X0102477Y0072775D01*
X0102635Y0072771D01*
X0102794Y0072763D01*
X0102951Y0072751D01*
X0103109Y0072735D01*
X0103266Y0072715D01*
X0103422Y0072691D01*
X0103578Y0072663D01*
X0103733Y0072632D01*
X0103888Y0072596D01*
X0104041Y0072557D01*
X0104193Y0072514D01*
X0104344Y0072467D01*
X0104494Y0072416D01*
X0104643Y0072361D01*
X0104790Y0072303D01*
X0104936Y0072241D01*
X0105080Y0072176D01*
X0105222Y0072106D01*
X0105363Y0072034D01*
X0105502Y0071957D01*
X0105638Y0071878D01*
X0105773Y0071794D01*
X0105906Y0071708D01*
X0106036Y0071618D01*
X0106164Y0071525D01*
X0106290Y0071429D01*
X0106413Y0071329D01*
X0106534Y0071227D01*
X0106652Y0071122D01*
X0106767Y0071013D01*
X0106880Y0070902D01*
X0106990Y0070788D01*
X0107097Y0070671D01*
X0107201Y0070552D01*
X0107302Y0070430D01*
X0107399Y0070305D01*
X0107494Y0070178D01*
X0107585Y0070049D01*
X0107674Y0069918D01*
X0107758Y0069784D01*
X0107840Y0069648D01*
X0107918Y0069511D01*
X0107992Y0069371D01*
X0108063Y0069229D01*
X0108131Y0069086D01*
X0108195Y0068941D01*
X0108255Y0068795D01*
X0108311Y0068647D01*
X0108364Y0068498D01*
X0108413Y0068347D01*
X0108458Y0068195D01*
X0108499Y0068042D01*
X0108537Y0067889D01*
X0108570Y0067734D01*
X0108600Y0067578D01*
X0108626Y0067422D01*
X0108647Y0067265D01*
X0108665Y0067108D01*
X0108679Y0066950D01*
X0108689Y0066792D01*
X0108695Y0066634D01*
X0108697Y0066476D01*
X0108695Y0066318D01*
X0108689Y0066160D01*
X0108679Y0066002D01*
X0108665Y0065844D01*
X0108647Y0065687D01*
X0108626Y0065530D01*
X0108600Y0065374D01*
X0108570Y0065218D01*
X0108537Y0065063D01*
X0108499Y0064910D01*
X0108458Y0064757D01*
X0108413Y0064605D01*
X0108364Y0064454D01*
X0108311Y0064305D01*
X0108255Y0064157D01*
X0108195Y0064011D01*
X0108131Y0063866D01*
X0108063Y0063723D01*
X0107992Y0063581D01*
X0107918Y0063441D01*
X0107840Y0063304D01*
X0107758Y0063168D01*
X0107674Y0063034D01*
X0107585Y0062903D01*
X0107494Y0062774D01*
X0107399Y0062647D01*
X0107302Y0062522D01*
X0107201Y0062400D01*
X0107097Y0062281D01*
X0106990Y0062164D01*
X0106880Y0062050D01*
X0106767Y0061939D01*
X0106652Y0061830D01*
X0106534Y0061725D01*
X0106413Y0061623D01*
X0106290Y0061523D01*
X0106164Y0061427D01*
X0106036Y0061334D01*
X0105906Y0061244D01*
X0105773Y0061158D01*
X0105638Y0061074D01*
X0105502Y0060995D01*
X0105363Y0060918D01*
X0105222Y0060846D01*
X0105080Y0060776D01*
X0104936Y0060711D01*
X0104790Y0060649D01*
X0104643Y0060591D01*
X0104494Y0060536D01*
X0104344Y0060485D01*
X0104193Y0060438D01*
X0104041Y0060395D01*
X0103888Y0060356D01*
X0103733Y0060320D01*
X0103578Y0060289D01*
X0103422Y0060261D01*
X0103266Y0060237D01*
X0103109Y0060217D01*
X0102951Y0060201D01*
X0102794Y0060189D01*
X0102635Y0060181D01*
X0102477Y0060177D01*
X0102319Y0060177D01*
X0102161Y0060181D01*
X0102002Y0060189D01*
X0101845Y0060201D01*
X0101687Y0060217D01*
X0101530Y0060237D01*
X0101374Y0060261D01*
X0101218Y0060289D01*
X0101063Y0060320D01*
X0100908Y0060356D01*
X0100755Y0060395D01*
X0100603Y0060438D01*
X0100452Y0060485D01*
X0100302Y0060536D01*
X0100153Y0060591D01*
X0100006Y0060649D01*
X0099860Y0060711D01*
X0099716Y0060776D01*
X0099574Y0060846D01*
X0099433Y0060918D01*
X0099294Y0060995D01*
X0099158Y0061074D01*
X0099023Y0061158D01*
X0098890Y0061244D01*
X0098760Y0061334D01*
X0098632Y0061427D01*
X0098506Y0061523D01*
X0098383Y0061623D01*
X0098262Y0061725D01*
X0098144Y0061830D01*
X0098029Y0061939D01*
X0097916Y0062050D01*
X0097806Y0062164D01*
X0097699Y0062281D01*
X0097595Y0062400D01*
X0097494Y0062522D01*
X0097397Y0062647D01*
X0097302Y0062774D01*
X0097211Y0062903D01*
X0097122Y0063034D01*
X0097038Y0063168D01*
X0096956Y0063304D01*
X0096878Y0063441D01*
X0096804Y0063581D01*
X0096733Y0063723D01*
X0096665Y0063866D01*
X0096601Y0064011D01*
X0096541Y0064157D01*
X0096485Y0064305D01*
X0096432Y0064454D01*
X0096383Y0064605D01*
X0096338Y0064757D01*
X0096297Y0064910D01*
X0096259Y0065063D01*
X0096226Y0065218D01*
X0096196Y0065374D01*
X0096170Y0065530D01*
X0096149Y0065687D01*
X0096131Y0065844D01*
X0096117Y0066002D01*
X0096107Y0066160D01*
X0096101Y0066318D01*
X0096099Y0066476D01*
X0218146Y0066476D02*
X0218148Y0066634D01*
X0218154Y0066792D01*
X0218164Y0066950D01*
X0218178Y0067108D01*
X0218196Y0067265D01*
X0218217Y0067422D01*
X0218243Y0067578D01*
X0218273Y0067734D01*
X0218306Y0067889D01*
X0218344Y0068042D01*
X0218385Y0068195D01*
X0218430Y0068347D01*
X0218479Y0068498D01*
X0218532Y0068647D01*
X0218588Y0068795D01*
X0218648Y0068941D01*
X0218712Y0069086D01*
X0218780Y0069229D01*
X0218851Y0069371D01*
X0218925Y0069511D01*
X0219003Y0069648D01*
X0219085Y0069784D01*
X0219169Y0069918D01*
X0219258Y0070049D01*
X0219349Y0070178D01*
X0219444Y0070305D01*
X0219541Y0070430D01*
X0219642Y0070552D01*
X0219746Y0070671D01*
X0219853Y0070788D01*
X0219963Y0070902D01*
X0220076Y0071013D01*
X0220191Y0071122D01*
X0220309Y0071227D01*
X0220430Y0071329D01*
X0220553Y0071429D01*
X0220679Y0071525D01*
X0220807Y0071618D01*
X0220937Y0071708D01*
X0221070Y0071794D01*
X0221205Y0071878D01*
X0221341Y0071957D01*
X0221480Y0072034D01*
X0221621Y0072106D01*
X0221763Y0072176D01*
X0221907Y0072241D01*
X0222053Y0072303D01*
X0222200Y0072361D01*
X0222349Y0072416D01*
X0222499Y0072467D01*
X0222650Y0072514D01*
X0222802Y0072557D01*
X0222955Y0072596D01*
X0223110Y0072632D01*
X0223265Y0072663D01*
X0223421Y0072691D01*
X0223577Y0072715D01*
X0223734Y0072735D01*
X0223892Y0072751D01*
X0224049Y0072763D01*
X0224208Y0072771D01*
X0224366Y0072775D01*
X0224524Y0072775D01*
X0224682Y0072771D01*
X0224841Y0072763D01*
X0224998Y0072751D01*
X0225156Y0072735D01*
X0225313Y0072715D01*
X0225469Y0072691D01*
X0225625Y0072663D01*
X0225780Y0072632D01*
X0225935Y0072596D01*
X0226088Y0072557D01*
X0226240Y0072514D01*
X0226391Y0072467D01*
X0226541Y0072416D01*
X0226690Y0072361D01*
X0226837Y0072303D01*
X0226983Y0072241D01*
X0227127Y0072176D01*
X0227269Y0072106D01*
X0227410Y0072034D01*
X0227549Y0071957D01*
X0227685Y0071878D01*
X0227820Y0071794D01*
X0227953Y0071708D01*
X0228083Y0071618D01*
X0228211Y0071525D01*
X0228337Y0071429D01*
X0228460Y0071329D01*
X0228581Y0071227D01*
X0228699Y0071122D01*
X0228814Y0071013D01*
X0228927Y0070902D01*
X0229037Y0070788D01*
X0229144Y0070671D01*
X0229248Y0070552D01*
X0229349Y0070430D01*
X0229446Y0070305D01*
X0229541Y0070178D01*
X0229632Y0070049D01*
X0229721Y0069918D01*
X0229805Y0069784D01*
X0229887Y0069648D01*
X0229965Y0069511D01*
X0230039Y0069371D01*
X0230110Y0069229D01*
X0230178Y0069086D01*
X0230242Y0068941D01*
X0230302Y0068795D01*
X0230358Y0068647D01*
X0230411Y0068498D01*
X0230460Y0068347D01*
X0230505Y0068195D01*
X0230546Y0068042D01*
X0230584Y0067889D01*
X0230617Y0067734D01*
X0230647Y0067578D01*
X0230673Y0067422D01*
X0230694Y0067265D01*
X0230712Y0067108D01*
X0230726Y0066950D01*
X0230736Y0066792D01*
X0230742Y0066634D01*
X0230744Y0066476D01*
X0230742Y0066318D01*
X0230736Y0066160D01*
X0230726Y0066002D01*
X0230712Y0065844D01*
X0230694Y0065687D01*
X0230673Y0065530D01*
X0230647Y0065374D01*
X0230617Y0065218D01*
X0230584Y0065063D01*
X0230546Y0064910D01*
X0230505Y0064757D01*
X0230460Y0064605D01*
X0230411Y0064454D01*
X0230358Y0064305D01*
X0230302Y0064157D01*
X0230242Y0064011D01*
X0230178Y0063866D01*
X0230110Y0063723D01*
X0230039Y0063581D01*
X0229965Y0063441D01*
X0229887Y0063304D01*
X0229805Y0063168D01*
X0229721Y0063034D01*
X0229632Y0062903D01*
X0229541Y0062774D01*
X0229446Y0062647D01*
X0229349Y0062522D01*
X0229248Y0062400D01*
X0229144Y0062281D01*
X0229037Y0062164D01*
X0228927Y0062050D01*
X0228814Y0061939D01*
X0228699Y0061830D01*
X0228581Y0061725D01*
X0228460Y0061623D01*
X0228337Y0061523D01*
X0228211Y0061427D01*
X0228083Y0061334D01*
X0227953Y0061244D01*
X0227820Y0061158D01*
X0227685Y0061074D01*
X0227549Y0060995D01*
X0227410Y0060918D01*
X0227269Y0060846D01*
X0227127Y0060776D01*
X0226983Y0060711D01*
X0226837Y0060649D01*
X0226690Y0060591D01*
X0226541Y0060536D01*
X0226391Y0060485D01*
X0226240Y0060438D01*
X0226088Y0060395D01*
X0225935Y0060356D01*
X0225780Y0060320D01*
X0225625Y0060289D01*
X0225469Y0060261D01*
X0225313Y0060237D01*
X0225156Y0060217D01*
X0224998Y0060201D01*
X0224841Y0060189D01*
X0224682Y0060181D01*
X0224524Y0060177D01*
X0224366Y0060177D01*
X0224208Y0060181D01*
X0224049Y0060189D01*
X0223892Y0060201D01*
X0223734Y0060217D01*
X0223577Y0060237D01*
X0223421Y0060261D01*
X0223265Y0060289D01*
X0223110Y0060320D01*
X0222955Y0060356D01*
X0222802Y0060395D01*
X0222650Y0060438D01*
X0222499Y0060485D01*
X0222349Y0060536D01*
X0222200Y0060591D01*
X0222053Y0060649D01*
X0221907Y0060711D01*
X0221763Y0060776D01*
X0221621Y0060846D01*
X0221480Y0060918D01*
X0221341Y0060995D01*
X0221205Y0061074D01*
X0221070Y0061158D01*
X0220937Y0061244D01*
X0220807Y0061334D01*
X0220679Y0061427D01*
X0220553Y0061523D01*
X0220430Y0061623D01*
X0220309Y0061725D01*
X0220191Y0061830D01*
X0220076Y0061939D01*
X0219963Y0062050D01*
X0219853Y0062164D01*
X0219746Y0062281D01*
X0219642Y0062400D01*
X0219541Y0062522D01*
X0219444Y0062647D01*
X0219349Y0062774D01*
X0219258Y0062903D01*
X0219169Y0063034D01*
X0219085Y0063168D01*
X0219003Y0063304D01*
X0218925Y0063441D01*
X0218851Y0063581D01*
X0218780Y0063723D01*
X0218712Y0063866D01*
X0218648Y0064011D01*
X0218588Y0064157D01*
X0218532Y0064305D01*
X0218479Y0064454D01*
X0218430Y0064605D01*
X0218385Y0064757D01*
X0218344Y0064910D01*
X0218306Y0065063D01*
X0218273Y0065218D01*
X0218243Y0065374D01*
X0218217Y0065530D01*
X0218196Y0065687D01*
X0218178Y0065844D01*
X0218164Y0066002D01*
X0218154Y0066160D01*
X0218148Y0066318D01*
X0218146Y0066476D01*
X0218146Y0188524D02*
X0218148Y0188682D01*
X0218154Y0188840D01*
X0218164Y0188998D01*
X0218178Y0189156D01*
X0218196Y0189313D01*
X0218217Y0189470D01*
X0218243Y0189626D01*
X0218273Y0189782D01*
X0218306Y0189937D01*
X0218344Y0190090D01*
X0218385Y0190243D01*
X0218430Y0190395D01*
X0218479Y0190546D01*
X0218532Y0190695D01*
X0218588Y0190843D01*
X0218648Y0190989D01*
X0218712Y0191134D01*
X0218780Y0191277D01*
X0218851Y0191419D01*
X0218925Y0191559D01*
X0219003Y0191696D01*
X0219085Y0191832D01*
X0219169Y0191966D01*
X0219258Y0192097D01*
X0219349Y0192226D01*
X0219444Y0192353D01*
X0219541Y0192478D01*
X0219642Y0192600D01*
X0219746Y0192719D01*
X0219853Y0192836D01*
X0219963Y0192950D01*
X0220076Y0193061D01*
X0220191Y0193170D01*
X0220309Y0193275D01*
X0220430Y0193377D01*
X0220553Y0193477D01*
X0220679Y0193573D01*
X0220807Y0193666D01*
X0220937Y0193756D01*
X0221070Y0193842D01*
X0221205Y0193926D01*
X0221341Y0194005D01*
X0221480Y0194082D01*
X0221621Y0194154D01*
X0221763Y0194224D01*
X0221907Y0194289D01*
X0222053Y0194351D01*
X0222200Y0194409D01*
X0222349Y0194464D01*
X0222499Y0194515D01*
X0222650Y0194562D01*
X0222802Y0194605D01*
X0222955Y0194644D01*
X0223110Y0194680D01*
X0223265Y0194711D01*
X0223421Y0194739D01*
X0223577Y0194763D01*
X0223734Y0194783D01*
X0223892Y0194799D01*
X0224049Y0194811D01*
X0224208Y0194819D01*
X0224366Y0194823D01*
X0224524Y0194823D01*
X0224682Y0194819D01*
X0224841Y0194811D01*
X0224998Y0194799D01*
X0225156Y0194783D01*
X0225313Y0194763D01*
X0225469Y0194739D01*
X0225625Y0194711D01*
X0225780Y0194680D01*
X0225935Y0194644D01*
X0226088Y0194605D01*
X0226240Y0194562D01*
X0226391Y0194515D01*
X0226541Y0194464D01*
X0226690Y0194409D01*
X0226837Y0194351D01*
X0226983Y0194289D01*
X0227127Y0194224D01*
X0227269Y0194154D01*
X0227410Y0194082D01*
X0227549Y0194005D01*
X0227685Y0193926D01*
X0227820Y0193842D01*
X0227953Y0193756D01*
X0228083Y0193666D01*
X0228211Y0193573D01*
X0228337Y0193477D01*
X0228460Y0193377D01*
X0228581Y0193275D01*
X0228699Y0193170D01*
X0228814Y0193061D01*
X0228927Y0192950D01*
X0229037Y0192836D01*
X0229144Y0192719D01*
X0229248Y0192600D01*
X0229349Y0192478D01*
X0229446Y0192353D01*
X0229541Y0192226D01*
X0229632Y0192097D01*
X0229721Y0191966D01*
X0229805Y0191832D01*
X0229887Y0191696D01*
X0229965Y0191559D01*
X0230039Y0191419D01*
X0230110Y0191277D01*
X0230178Y0191134D01*
X0230242Y0190989D01*
X0230302Y0190843D01*
X0230358Y0190695D01*
X0230411Y0190546D01*
X0230460Y0190395D01*
X0230505Y0190243D01*
X0230546Y0190090D01*
X0230584Y0189937D01*
X0230617Y0189782D01*
X0230647Y0189626D01*
X0230673Y0189470D01*
X0230694Y0189313D01*
X0230712Y0189156D01*
X0230726Y0188998D01*
X0230736Y0188840D01*
X0230742Y0188682D01*
X0230744Y0188524D01*
X0230742Y0188366D01*
X0230736Y0188208D01*
X0230726Y0188050D01*
X0230712Y0187892D01*
X0230694Y0187735D01*
X0230673Y0187578D01*
X0230647Y0187422D01*
X0230617Y0187266D01*
X0230584Y0187111D01*
X0230546Y0186958D01*
X0230505Y0186805D01*
X0230460Y0186653D01*
X0230411Y0186502D01*
X0230358Y0186353D01*
X0230302Y0186205D01*
X0230242Y0186059D01*
X0230178Y0185914D01*
X0230110Y0185771D01*
X0230039Y0185629D01*
X0229965Y0185489D01*
X0229887Y0185352D01*
X0229805Y0185216D01*
X0229721Y0185082D01*
X0229632Y0184951D01*
X0229541Y0184822D01*
X0229446Y0184695D01*
X0229349Y0184570D01*
X0229248Y0184448D01*
X0229144Y0184329D01*
X0229037Y0184212D01*
X0228927Y0184098D01*
X0228814Y0183987D01*
X0228699Y0183878D01*
X0228581Y0183773D01*
X0228460Y0183671D01*
X0228337Y0183571D01*
X0228211Y0183475D01*
X0228083Y0183382D01*
X0227953Y0183292D01*
X0227820Y0183206D01*
X0227685Y0183122D01*
X0227549Y0183043D01*
X0227410Y0182966D01*
X0227269Y0182894D01*
X0227127Y0182824D01*
X0226983Y0182759D01*
X0226837Y0182697D01*
X0226690Y0182639D01*
X0226541Y0182584D01*
X0226391Y0182533D01*
X0226240Y0182486D01*
X0226088Y0182443D01*
X0225935Y0182404D01*
X0225780Y0182368D01*
X0225625Y0182337D01*
X0225469Y0182309D01*
X0225313Y0182285D01*
X0225156Y0182265D01*
X0224998Y0182249D01*
X0224841Y0182237D01*
X0224682Y0182229D01*
X0224524Y0182225D01*
X0224366Y0182225D01*
X0224208Y0182229D01*
X0224049Y0182237D01*
X0223892Y0182249D01*
X0223734Y0182265D01*
X0223577Y0182285D01*
X0223421Y0182309D01*
X0223265Y0182337D01*
X0223110Y0182368D01*
X0222955Y0182404D01*
X0222802Y0182443D01*
X0222650Y0182486D01*
X0222499Y0182533D01*
X0222349Y0182584D01*
X0222200Y0182639D01*
X0222053Y0182697D01*
X0221907Y0182759D01*
X0221763Y0182824D01*
X0221621Y0182894D01*
X0221480Y0182966D01*
X0221341Y0183043D01*
X0221205Y0183122D01*
X0221070Y0183206D01*
X0220937Y0183292D01*
X0220807Y0183382D01*
X0220679Y0183475D01*
X0220553Y0183571D01*
X0220430Y0183671D01*
X0220309Y0183773D01*
X0220191Y0183878D01*
X0220076Y0183987D01*
X0219963Y0184098D01*
X0219853Y0184212D01*
X0219746Y0184329D01*
X0219642Y0184448D01*
X0219541Y0184570D01*
X0219444Y0184695D01*
X0219349Y0184822D01*
X0219258Y0184951D01*
X0219169Y0185082D01*
X0219085Y0185216D01*
X0219003Y0185352D01*
X0218925Y0185489D01*
X0218851Y0185629D01*
X0218780Y0185771D01*
X0218712Y0185914D01*
X0218648Y0186059D01*
X0218588Y0186205D01*
X0218532Y0186353D01*
X0218479Y0186502D01*
X0218430Y0186653D01*
X0218385Y0186805D01*
X0218344Y0186958D01*
X0218306Y0187111D01*
X0218273Y0187266D01*
X0218243Y0187422D01*
X0218217Y0187578D01*
X0218196Y0187735D01*
X0218178Y0187892D01*
X0218164Y0188050D01*
X0218154Y0188208D01*
X0218148Y0188366D01*
X0218146Y0188524D01*
X0096099Y0188524D02*
X0096101Y0188682D01*
X0096107Y0188840D01*
X0096117Y0188998D01*
X0096131Y0189156D01*
X0096149Y0189313D01*
X0096170Y0189470D01*
X0096196Y0189626D01*
X0096226Y0189782D01*
X0096259Y0189937D01*
X0096297Y0190090D01*
X0096338Y0190243D01*
X0096383Y0190395D01*
X0096432Y0190546D01*
X0096485Y0190695D01*
X0096541Y0190843D01*
X0096601Y0190989D01*
X0096665Y0191134D01*
X0096733Y0191277D01*
X0096804Y0191419D01*
X0096878Y0191559D01*
X0096956Y0191696D01*
X0097038Y0191832D01*
X0097122Y0191966D01*
X0097211Y0192097D01*
X0097302Y0192226D01*
X0097397Y0192353D01*
X0097494Y0192478D01*
X0097595Y0192600D01*
X0097699Y0192719D01*
X0097806Y0192836D01*
X0097916Y0192950D01*
X0098029Y0193061D01*
X0098144Y0193170D01*
X0098262Y0193275D01*
X0098383Y0193377D01*
X0098506Y0193477D01*
X0098632Y0193573D01*
X0098760Y0193666D01*
X0098890Y0193756D01*
X0099023Y0193842D01*
X0099158Y0193926D01*
X0099294Y0194005D01*
X0099433Y0194082D01*
X0099574Y0194154D01*
X0099716Y0194224D01*
X0099860Y0194289D01*
X0100006Y0194351D01*
X0100153Y0194409D01*
X0100302Y0194464D01*
X0100452Y0194515D01*
X0100603Y0194562D01*
X0100755Y0194605D01*
X0100908Y0194644D01*
X0101063Y0194680D01*
X0101218Y0194711D01*
X0101374Y0194739D01*
X0101530Y0194763D01*
X0101687Y0194783D01*
X0101845Y0194799D01*
X0102002Y0194811D01*
X0102161Y0194819D01*
X0102319Y0194823D01*
X0102477Y0194823D01*
X0102635Y0194819D01*
X0102794Y0194811D01*
X0102951Y0194799D01*
X0103109Y0194783D01*
X0103266Y0194763D01*
X0103422Y0194739D01*
X0103578Y0194711D01*
X0103733Y0194680D01*
X0103888Y0194644D01*
X0104041Y0194605D01*
X0104193Y0194562D01*
X0104344Y0194515D01*
X0104494Y0194464D01*
X0104643Y0194409D01*
X0104790Y0194351D01*
X0104936Y0194289D01*
X0105080Y0194224D01*
X0105222Y0194154D01*
X0105363Y0194082D01*
X0105502Y0194005D01*
X0105638Y0193926D01*
X0105773Y0193842D01*
X0105906Y0193756D01*
X0106036Y0193666D01*
X0106164Y0193573D01*
X0106290Y0193477D01*
X0106413Y0193377D01*
X0106534Y0193275D01*
X0106652Y0193170D01*
X0106767Y0193061D01*
X0106880Y0192950D01*
X0106990Y0192836D01*
X0107097Y0192719D01*
X0107201Y0192600D01*
X0107302Y0192478D01*
X0107399Y0192353D01*
X0107494Y0192226D01*
X0107585Y0192097D01*
X0107674Y0191966D01*
X0107758Y0191832D01*
X0107840Y0191696D01*
X0107918Y0191559D01*
X0107992Y0191419D01*
X0108063Y0191277D01*
X0108131Y0191134D01*
X0108195Y0190989D01*
X0108255Y0190843D01*
X0108311Y0190695D01*
X0108364Y0190546D01*
X0108413Y0190395D01*
X0108458Y0190243D01*
X0108499Y0190090D01*
X0108537Y0189937D01*
X0108570Y0189782D01*
X0108600Y0189626D01*
X0108626Y0189470D01*
X0108647Y0189313D01*
X0108665Y0189156D01*
X0108679Y0188998D01*
X0108689Y0188840D01*
X0108695Y0188682D01*
X0108697Y0188524D01*
X0108695Y0188366D01*
X0108689Y0188208D01*
X0108679Y0188050D01*
X0108665Y0187892D01*
X0108647Y0187735D01*
X0108626Y0187578D01*
X0108600Y0187422D01*
X0108570Y0187266D01*
X0108537Y0187111D01*
X0108499Y0186958D01*
X0108458Y0186805D01*
X0108413Y0186653D01*
X0108364Y0186502D01*
X0108311Y0186353D01*
X0108255Y0186205D01*
X0108195Y0186059D01*
X0108131Y0185914D01*
X0108063Y0185771D01*
X0107992Y0185629D01*
X0107918Y0185489D01*
X0107840Y0185352D01*
X0107758Y0185216D01*
X0107674Y0185082D01*
X0107585Y0184951D01*
X0107494Y0184822D01*
X0107399Y0184695D01*
X0107302Y0184570D01*
X0107201Y0184448D01*
X0107097Y0184329D01*
X0106990Y0184212D01*
X0106880Y0184098D01*
X0106767Y0183987D01*
X0106652Y0183878D01*
X0106534Y0183773D01*
X0106413Y0183671D01*
X0106290Y0183571D01*
X0106164Y0183475D01*
X0106036Y0183382D01*
X0105906Y0183292D01*
X0105773Y0183206D01*
X0105638Y0183122D01*
X0105502Y0183043D01*
X0105363Y0182966D01*
X0105222Y0182894D01*
X0105080Y0182824D01*
X0104936Y0182759D01*
X0104790Y0182697D01*
X0104643Y0182639D01*
X0104494Y0182584D01*
X0104344Y0182533D01*
X0104193Y0182486D01*
X0104041Y0182443D01*
X0103888Y0182404D01*
X0103733Y0182368D01*
X0103578Y0182337D01*
X0103422Y0182309D01*
X0103266Y0182285D01*
X0103109Y0182265D01*
X0102951Y0182249D01*
X0102794Y0182237D01*
X0102635Y0182229D01*
X0102477Y0182225D01*
X0102319Y0182225D01*
X0102161Y0182229D01*
X0102002Y0182237D01*
X0101845Y0182249D01*
X0101687Y0182265D01*
X0101530Y0182285D01*
X0101374Y0182309D01*
X0101218Y0182337D01*
X0101063Y0182368D01*
X0100908Y0182404D01*
X0100755Y0182443D01*
X0100603Y0182486D01*
X0100452Y0182533D01*
X0100302Y0182584D01*
X0100153Y0182639D01*
X0100006Y0182697D01*
X0099860Y0182759D01*
X0099716Y0182824D01*
X0099574Y0182894D01*
X0099433Y0182966D01*
X0099294Y0183043D01*
X0099158Y0183122D01*
X0099023Y0183206D01*
X0098890Y0183292D01*
X0098760Y0183382D01*
X0098632Y0183475D01*
X0098506Y0183571D01*
X0098383Y0183671D01*
X0098262Y0183773D01*
X0098144Y0183878D01*
X0098029Y0183987D01*
X0097916Y0184098D01*
X0097806Y0184212D01*
X0097699Y0184329D01*
X0097595Y0184448D01*
X0097494Y0184570D01*
X0097397Y0184695D01*
X0097302Y0184822D01*
X0097211Y0184951D01*
X0097122Y0185082D01*
X0097038Y0185216D01*
X0096956Y0185352D01*
X0096878Y0185489D01*
X0096804Y0185629D01*
X0096733Y0185771D01*
X0096665Y0185914D01*
X0096601Y0186059D01*
X0096541Y0186205D01*
X0096485Y0186353D01*
X0096432Y0186502D01*
X0096383Y0186653D01*
X0096338Y0186805D01*
X0096297Y0186958D01*
X0096259Y0187111D01*
X0096226Y0187266D01*
X0096196Y0187422D01*
X0096170Y0187578D01*
X0096149Y0187735D01*
X0096131Y0187892D01*
X0096117Y0188050D01*
X0096107Y0188208D01*
X0096101Y0188366D01*
X0096099Y0188524D01*
D11*
X0148450Y0180982D02*
X0150102Y0179330D01*
X0148450Y0180982D02*
X0148628Y0181160D01*
X0150280Y0179508D01*
X0150102Y0179330D01*
X0149451Y0180337D02*
X0149095Y0180337D01*
X0149842Y0182374D02*
X0151494Y0180722D01*
X0149842Y0182374D02*
X0150020Y0182552D01*
X0151672Y0180900D01*
X0151494Y0180722D01*
X0150843Y0181729D02*
X0150487Y0181729D01*
X0151234Y0183766D02*
X0152886Y0182114D01*
X0151234Y0183766D02*
X0151412Y0183944D01*
X0153064Y0182292D01*
X0152886Y0182114D01*
X0152235Y0183121D02*
X0151879Y0183121D01*
X0152626Y0185158D02*
X0154278Y0183506D01*
X0152626Y0185158D02*
X0152804Y0185336D01*
X0154456Y0183684D01*
X0154278Y0183506D01*
X0153627Y0184513D02*
X0153271Y0184513D01*
X0154018Y0186550D02*
X0155670Y0184898D01*
X0154018Y0186550D02*
X0154196Y0186728D01*
X0155848Y0185076D01*
X0155670Y0184898D01*
X0155019Y0185905D02*
X0154663Y0185905D01*
X0155410Y0187942D02*
X0157062Y0186290D01*
X0155410Y0187942D02*
X0155588Y0188120D01*
X0157240Y0186468D01*
X0157062Y0186290D01*
X0156411Y0187297D02*
X0156055Y0187297D01*
X0156802Y0189334D02*
X0158454Y0187682D01*
X0156802Y0189334D02*
X0156980Y0189512D01*
X0158632Y0187860D01*
X0158454Y0187682D01*
X0157803Y0188689D02*
X0157447Y0188689D01*
X0158194Y0190726D02*
X0159846Y0189074D01*
X0158194Y0190726D02*
X0158372Y0190904D01*
X0160024Y0189252D01*
X0159846Y0189074D01*
X0159195Y0190081D02*
X0158839Y0190081D01*
X0159585Y0192118D02*
X0161237Y0190466D01*
X0159585Y0192118D02*
X0159763Y0192296D01*
X0161415Y0190644D01*
X0161237Y0190466D01*
X0160586Y0191473D02*
X0160230Y0191473D01*
X0160977Y0193510D02*
X0162629Y0191858D01*
X0160977Y0193510D02*
X0161155Y0193688D01*
X0162807Y0192036D01*
X0162629Y0191858D01*
X0161978Y0192865D02*
X0161622Y0192865D01*
X0162369Y0194902D02*
X0164021Y0193250D01*
X0162369Y0194902D02*
X0162547Y0195080D01*
X0164199Y0193428D01*
X0164021Y0193250D01*
X0163370Y0194257D02*
X0163014Y0194257D01*
X0163761Y0196294D02*
X0165413Y0194642D01*
X0163761Y0196294D02*
X0163939Y0196472D01*
X0165591Y0194820D01*
X0165413Y0194642D01*
X0164762Y0195649D02*
X0164406Y0195649D01*
X0172430Y0194642D02*
X0174082Y0196294D01*
X0172430Y0194642D02*
X0172252Y0194820D01*
X0173904Y0196472D01*
X0174082Y0196294D01*
X0173437Y0195649D02*
X0173081Y0195649D01*
X0175474Y0194902D02*
X0173822Y0193250D01*
X0173644Y0193428D01*
X0175296Y0195080D01*
X0175474Y0194902D01*
X0174829Y0194257D02*
X0174473Y0194257D01*
X0176866Y0193510D02*
X0175214Y0191858D01*
X0175036Y0192036D01*
X0176688Y0193688D01*
X0176866Y0193510D01*
X0176221Y0192865D02*
X0175865Y0192865D01*
X0178258Y0192118D02*
X0176606Y0190466D01*
X0176428Y0190644D01*
X0178080Y0192296D01*
X0178258Y0192118D01*
X0177613Y0191473D02*
X0177257Y0191473D01*
X0179650Y0190726D02*
X0177998Y0189074D01*
X0177820Y0189252D01*
X0179472Y0190904D01*
X0179650Y0190726D01*
X0179005Y0190081D02*
X0178649Y0190081D01*
X0181042Y0189334D02*
X0179390Y0187682D01*
X0179212Y0187860D01*
X0180864Y0189512D01*
X0181042Y0189334D01*
X0180397Y0188689D02*
X0180041Y0188689D01*
X0182434Y0187942D02*
X0180782Y0186290D01*
X0180604Y0186468D01*
X0182256Y0188120D01*
X0182434Y0187942D01*
X0181789Y0187297D02*
X0181433Y0187297D01*
X0183826Y0186550D02*
X0182174Y0184898D01*
X0181996Y0185076D01*
X0183648Y0186728D01*
X0183826Y0186550D01*
X0183181Y0185905D02*
X0182825Y0185905D01*
X0185218Y0185158D02*
X0183566Y0183506D01*
X0183388Y0183684D01*
X0185040Y0185336D01*
X0185218Y0185158D01*
X0184573Y0184513D02*
X0184217Y0184513D01*
X0186610Y0183766D02*
X0184958Y0182114D01*
X0184780Y0182292D01*
X0186432Y0183944D01*
X0186610Y0183766D01*
X0185965Y0183121D02*
X0185609Y0183121D01*
X0188002Y0182374D02*
X0186350Y0180722D01*
X0186172Y0180900D01*
X0187824Y0182552D01*
X0188002Y0182374D01*
X0187357Y0181729D02*
X0187001Y0181729D01*
X0189394Y0180982D02*
X0187742Y0179330D01*
X0187564Y0179508D01*
X0189216Y0181160D01*
X0189394Y0180982D01*
X0188749Y0180337D02*
X0188393Y0180337D01*
X0187564Y0172492D02*
X0189216Y0170840D01*
X0187564Y0172492D02*
X0187742Y0172670D01*
X0189394Y0171018D01*
X0189216Y0170840D01*
X0188565Y0171847D02*
X0188209Y0171847D01*
X0186172Y0171100D02*
X0187824Y0169448D01*
X0186172Y0171100D02*
X0186350Y0171278D01*
X0188002Y0169626D01*
X0187824Y0169448D01*
X0187173Y0170455D02*
X0186817Y0170455D01*
X0184780Y0169708D02*
X0186432Y0168056D01*
X0184780Y0169708D02*
X0184958Y0169886D01*
X0186610Y0168234D01*
X0186432Y0168056D01*
X0185781Y0169063D02*
X0185425Y0169063D01*
X0183388Y0168316D02*
X0185040Y0166664D01*
X0183388Y0168316D02*
X0183566Y0168494D01*
X0185218Y0166842D01*
X0185040Y0166664D01*
X0184389Y0167671D02*
X0184033Y0167671D01*
X0181996Y0166924D02*
X0183648Y0165272D01*
X0181996Y0166924D02*
X0182174Y0167102D01*
X0183826Y0165450D01*
X0183648Y0165272D01*
X0182997Y0166279D02*
X0182641Y0166279D01*
X0180604Y0165532D02*
X0182256Y0163880D01*
X0180604Y0165532D02*
X0180782Y0165710D01*
X0182434Y0164058D01*
X0182256Y0163880D01*
X0181605Y0164887D02*
X0181249Y0164887D01*
X0179212Y0164140D02*
X0180864Y0162488D01*
X0179212Y0164140D02*
X0179390Y0164318D01*
X0181042Y0162666D01*
X0180864Y0162488D01*
X0180213Y0163495D02*
X0179857Y0163495D01*
X0177820Y0162748D02*
X0179472Y0161096D01*
X0177820Y0162748D02*
X0177998Y0162926D01*
X0179650Y0161274D01*
X0179472Y0161096D01*
X0178821Y0162103D02*
X0178465Y0162103D01*
X0176428Y0161356D02*
X0178080Y0159704D01*
X0176428Y0161356D02*
X0176606Y0161534D01*
X0178258Y0159882D01*
X0178080Y0159704D01*
X0177429Y0160711D02*
X0177073Y0160711D01*
X0175036Y0159964D02*
X0176688Y0158312D01*
X0175036Y0159964D02*
X0175214Y0160142D01*
X0176866Y0158490D01*
X0176688Y0158312D01*
X0176037Y0159319D02*
X0175681Y0159319D01*
X0173644Y0158572D02*
X0175296Y0156920D01*
X0173644Y0158572D02*
X0173822Y0158750D01*
X0175474Y0157098D01*
X0175296Y0156920D01*
X0174645Y0157927D02*
X0174289Y0157927D01*
X0172252Y0157180D02*
X0173904Y0155528D01*
X0172252Y0157180D02*
X0172430Y0157358D01*
X0174082Y0155706D01*
X0173904Y0155528D01*
X0173253Y0156535D02*
X0172897Y0156535D01*
X0165591Y0157180D02*
X0163939Y0155528D01*
X0163761Y0155706D01*
X0165413Y0157358D01*
X0165591Y0157180D01*
X0164946Y0156535D02*
X0164590Y0156535D01*
X0164199Y0158572D02*
X0162547Y0156920D01*
X0162369Y0157098D01*
X0164021Y0158750D01*
X0164199Y0158572D01*
X0163554Y0157927D02*
X0163198Y0157927D01*
X0162807Y0159964D02*
X0161155Y0158312D01*
X0160977Y0158490D01*
X0162629Y0160142D01*
X0162807Y0159964D01*
X0162162Y0159319D02*
X0161806Y0159319D01*
X0161415Y0161356D02*
X0159763Y0159704D01*
X0159585Y0159882D01*
X0161237Y0161534D01*
X0161415Y0161356D01*
X0160770Y0160711D02*
X0160414Y0160711D01*
X0160024Y0162748D02*
X0158372Y0161096D01*
X0158194Y0161274D01*
X0159846Y0162926D01*
X0160024Y0162748D01*
X0159379Y0162103D02*
X0159023Y0162103D01*
X0158632Y0164140D02*
X0156980Y0162488D01*
X0156802Y0162666D01*
X0158454Y0164318D01*
X0158632Y0164140D01*
X0157987Y0163495D02*
X0157631Y0163495D01*
X0157240Y0165532D02*
X0155588Y0163880D01*
X0155410Y0164058D01*
X0157062Y0165710D01*
X0157240Y0165532D01*
X0156595Y0164887D02*
X0156239Y0164887D01*
X0155848Y0166924D02*
X0154196Y0165272D01*
X0154018Y0165450D01*
X0155670Y0167102D01*
X0155848Y0166924D01*
X0155203Y0166279D02*
X0154847Y0166279D01*
X0154456Y0168316D02*
X0152804Y0166664D01*
X0152626Y0166842D01*
X0154278Y0168494D01*
X0154456Y0168316D01*
X0153811Y0167671D02*
X0153455Y0167671D01*
X0153064Y0169708D02*
X0151412Y0168056D01*
X0151234Y0168234D01*
X0152886Y0169886D01*
X0153064Y0169708D01*
X0152419Y0169063D02*
X0152063Y0169063D01*
X0151672Y0171100D02*
X0150020Y0169448D01*
X0149842Y0169626D01*
X0151494Y0171278D01*
X0151672Y0171100D01*
X0151027Y0170455D02*
X0150671Y0170455D01*
X0150280Y0172492D02*
X0148628Y0170840D01*
X0148450Y0171018D01*
X0150102Y0172670D01*
X0150280Y0172492D01*
X0149635Y0171847D02*
X0149279Y0171847D01*
D12*
X0123922Y0190031D03*
X0123922Y0193969D03*
X0183453Y0195500D03*
X0187390Y0195500D03*
X0188390Y0191000D03*
X0184453Y0191000D03*
X0196953Y0175000D03*
X0200890Y0175000D03*
X0200890Y0170500D03*
X0196953Y0170500D03*
X0151890Y0118500D03*
X0147953Y0118500D03*
X0159922Y0111969D03*
X0165922Y0111969D03*
X0165922Y0108031D03*
X0159922Y0108031D03*
X0181453Y0116000D03*
X0185390Y0116000D03*
X0210953Y0116000D03*
X0214890Y0116000D03*
X0101422Y0091969D03*
X0101422Y0088031D03*
D13*
X0100556Y0159000D03*
X0092288Y0159000D03*
D14*
X0094650Y0169000D03*
X0098193Y0169000D03*
X0119650Y0160500D03*
X0123193Y0160500D03*
X0131650Y0160500D03*
X0135193Y0160500D03*
X0196650Y0161600D03*
X0200193Y0161600D03*
X0200193Y0165000D03*
X0196650Y0165000D03*
X0218650Y0169000D03*
X0222193Y0169000D03*
X0199193Y0185000D03*
X0195650Y0185000D03*
X0185193Y0120000D03*
X0181650Y0120000D03*
X0211150Y0120000D03*
X0214693Y0120000D03*
X0152693Y0098750D03*
X0149150Y0098750D03*
D15*
G36*
X0145314Y0157499D02*
X0146705Y0156108D01*
X0145314Y0154717D01*
X0143923Y0156108D01*
X0145314Y0157499D01*
G37*
G36*
X0142530Y0160283D02*
X0143921Y0158892D01*
X0142530Y0157501D01*
X0141139Y0158892D01*
X0142530Y0160283D01*
G37*
D16*
X0099821Y0164500D03*
X0093522Y0164500D03*
D17*
X0133422Y0189244D03*
X0133422Y0194756D03*
X0226422Y0154756D03*
X0226422Y0149244D03*
D18*
X0137871Y0092500D03*
X0118973Y0092500D03*
D19*
X0107922Y0092953D03*
X0107922Y0087047D03*
D20*
X0179472Y0072198D03*
X0179472Y0061002D03*
X0204972Y0060882D03*
X0204972Y0072078D03*
D21*
X0204673Y0085592D03*
X0207232Y0085592D03*
X0202113Y0085592D03*
X0199554Y0085592D03*
X0196995Y0085592D03*
X0194436Y0085592D03*
X0191877Y0085592D03*
X0189318Y0085592D03*
X0189318Y0108820D03*
X0191877Y0108820D03*
X0194436Y0108820D03*
X0196995Y0108820D03*
X0199554Y0108820D03*
X0202113Y0108820D03*
X0204673Y0108820D03*
X0207232Y0108820D03*
D22*
X0228422Y0119276D03*
X0228422Y0121835D03*
X0228422Y0124394D03*
X0228422Y0126953D03*
X0228422Y0129512D03*
D23*
X0228422Y0136992D03*
X0228422Y0111795D03*
D24*
X0238953Y0119669D03*
X0238953Y0129118D03*
D25*
X0237556Y0137386D02*
X0237556Y0137386D01*
X0240312Y0137386D01*
X0240312Y0137386D01*
X0237556Y0137386D01*
X0237556Y0111402D02*
X0237556Y0111402D01*
X0240312Y0111402D01*
X0240312Y0111402D01*
X0237556Y0111402D01*
D26*
X0236572Y0111402D02*
X0236574Y0111340D01*
X0236580Y0111279D01*
X0236589Y0111218D01*
X0236603Y0111157D01*
X0236620Y0111098D01*
X0236641Y0111040D01*
X0236666Y0110983D01*
X0236694Y0110928D01*
X0236725Y0110875D01*
X0236760Y0110824D01*
X0236798Y0110775D01*
X0236839Y0110728D01*
X0236882Y0110685D01*
X0236929Y0110644D01*
X0236978Y0110606D01*
X0237029Y0110571D01*
X0237082Y0110540D01*
X0237137Y0110512D01*
X0237194Y0110487D01*
X0237252Y0110466D01*
X0237311Y0110449D01*
X0237372Y0110435D01*
X0237433Y0110426D01*
X0237494Y0110420D01*
X0237556Y0110418D01*
X0237556Y0110417D02*
X0240312Y0110417D01*
X0241296Y0111402D02*
X0241294Y0111464D01*
X0241288Y0111525D01*
X0241279Y0111586D01*
X0241265Y0111647D01*
X0241248Y0111706D01*
X0241227Y0111764D01*
X0241202Y0111821D01*
X0241174Y0111876D01*
X0241143Y0111929D01*
X0241108Y0111980D01*
X0241070Y0112029D01*
X0241029Y0112076D01*
X0240986Y0112119D01*
X0240939Y0112160D01*
X0240890Y0112198D01*
X0240839Y0112233D01*
X0240786Y0112264D01*
X0240731Y0112292D01*
X0240674Y0112317D01*
X0240616Y0112338D01*
X0240557Y0112355D01*
X0240496Y0112369D01*
X0240435Y0112378D01*
X0240374Y0112384D01*
X0240312Y0112386D01*
X0237556Y0112386D01*
X0237494Y0112384D01*
X0237433Y0112378D01*
X0237372Y0112369D01*
X0237311Y0112355D01*
X0237252Y0112338D01*
X0237194Y0112317D01*
X0237137Y0112292D01*
X0237082Y0112264D01*
X0237029Y0112233D01*
X0236978Y0112198D01*
X0236929Y0112160D01*
X0236882Y0112119D01*
X0236839Y0112076D01*
X0236798Y0112029D01*
X0236760Y0111980D01*
X0236725Y0111929D01*
X0236694Y0111876D01*
X0236666Y0111821D01*
X0236641Y0111764D01*
X0236620Y0111706D01*
X0236603Y0111647D01*
X0236589Y0111586D01*
X0236580Y0111525D01*
X0236574Y0111464D01*
X0236572Y0111402D01*
X0240312Y0110418D02*
X0240374Y0110420D01*
X0240435Y0110426D01*
X0240496Y0110435D01*
X0240557Y0110449D01*
X0240616Y0110466D01*
X0240674Y0110487D01*
X0240731Y0110512D01*
X0240786Y0110540D01*
X0240839Y0110571D01*
X0240890Y0110606D01*
X0240939Y0110644D01*
X0240986Y0110685D01*
X0241029Y0110728D01*
X0241070Y0110775D01*
X0241108Y0110824D01*
X0241143Y0110875D01*
X0241174Y0110928D01*
X0241202Y0110983D01*
X0241227Y0111040D01*
X0241248Y0111098D01*
X0241265Y0111157D01*
X0241279Y0111218D01*
X0241288Y0111279D01*
X0241294Y0111340D01*
X0241296Y0111402D01*
X0240312Y0136402D02*
X0237556Y0136402D01*
X0237494Y0136404D01*
X0237433Y0136410D01*
X0237372Y0136419D01*
X0237311Y0136433D01*
X0237252Y0136450D01*
X0237194Y0136471D01*
X0237137Y0136496D01*
X0237082Y0136524D01*
X0237029Y0136555D01*
X0236978Y0136590D01*
X0236929Y0136628D01*
X0236882Y0136669D01*
X0236839Y0136712D01*
X0236798Y0136759D01*
X0236760Y0136808D01*
X0236725Y0136859D01*
X0236694Y0136912D01*
X0236666Y0136967D01*
X0236641Y0137024D01*
X0236620Y0137082D01*
X0236603Y0137141D01*
X0236589Y0137202D01*
X0236580Y0137263D01*
X0236574Y0137324D01*
X0236572Y0137386D01*
X0236574Y0137448D01*
X0236580Y0137509D01*
X0236589Y0137570D01*
X0236603Y0137631D01*
X0236620Y0137690D01*
X0236641Y0137748D01*
X0236666Y0137805D01*
X0236694Y0137860D01*
X0236725Y0137913D01*
X0236760Y0137964D01*
X0236798Y0138013D01*
X0236839Y0138060D01*
X0236882Y0138103D01*
X0236929Y0138144D01*
X0236978Y0138182D01*
X0237029Y0138217D01*
X0237082Y0138248D01*
X0237137Y0138276D01*
X0237194Y0138301D01*
X0237252Y0138322D01*
X0237311Y0138339D01*
X0237372Y0138353D01*
X0237433Y0138362D01*
X0237494Y0138368D01*
X0237556Y0138370D01*
X0240312Y0138370D01*
X0240374Y0138368D01*
X0240435Y0138362D01*
X0240496Y0138353D01*
X0240557Y0138339D01*
X0240616Y0138322D01*
X0240674Y0138301D01*
X0240731Y0138276D01*
X0240786Y0138248D01*
X0240839Y0138217D01*
X0240890Y0138182D01*
X0240939Y0138144D01*
X0240986Y0138103D01*
X0241029Y0138060D01*
X0241070Y0138013D01*
X0241108Y0137964D01*
X0241143Y0137913D01*
X0241174Y0137860D01*
X0241202Y0137805D01*
X0241227Y0137748D01*
X0241248Y0137690D01*
X0241265Y0137631D01*
X0241279Y0137570D01*
X0241288Y0137509D01*
X0241294Y0137448D01*
X0241296Y0137386D01*
X0241294Y0137324D01*
X0241288Y0137263D01*
X0241279Y0137202D01*
X0241265Y0137141D01*
X0241248Y0137082D01*
X0241227Y0137024D01*
X0241202Y0136967D01*
X0241174Y0136912D01*
X0241143Y0136859D01*
X0241108Y0136808D01*
X0241070Y0136759D01*
X0241029Y0136712D01*
X0240986Y0136669D01*
X0240939Y0136628D01*
X0240890Y0136590D01*
X0240839Y0136555D01*
X0240786Y0136524D01*
X0240731Y0136496D01*
X0240674Y0136471D01*
X0240616Y0136450D01*
X0240557Y0136433D01*
X0240496Y0136419D01*
X0240435Y0136410D01*
X0240374Y0136404D01*
X0240312Y0136402D01*
D27*
X0119252Y0113500D03*
X0110985Y0109760D03*
X0110985Y0117240D03*
D28*
X0103922Y0116846D03*
X0103922Y0110154D03*
D29*
X0140303Y0113240D03*
X0140303Y0105760D03*
X0150540Y0105760D03*
X0150540Y0109500D03*
X0150540Y0113240D03*
D30*
X0137162Y0165063D03*
X0129682Y0165063D03*
X0125162Y0165063D03*
X0117682Y0165063D03*
X0121422Y0173331D03*
X0133422Y0173331D03*
D31*
X0129422Y0178228D03*
X0129422Y0181772D03*
X0123922Y0181772D03*
X0123922Y0178228D03*
D32*
X0104391Y0151532D03*
X0104391Y0143068D03*
X0088052Y0143068D03*
X0088052Y0151532D03*
M02*
