G75*
%MOIN*%
%OFA0B0*%
%FSLAX25Y25*%
%IPPOS*%
%LPD*%
%AMOC8*
5,1,8,0,0,1.08239X$1,22.5*
%
%ADD10C,0.02200*%
%ADD11C,0.00492*%
%ADD12C,0.00500*%
%ADD13C,0.00800*%
%ADD14C,0.00600*%
D10*
X0154422Y0189380D02*
X0154422Y0189620D01*
X0154922Y0195380D02*
X0154922Y0195620D01*
D11*
X0147587Y0193287D02*
X0147587Y0191713D01*
X0143256Y0191713D02*
X0143256Y0193287D01*
D12*
X0143256Y0197028D02*
X0147587Y0197028D01*
X0147587Y0187972D02*
X0143256Y0187972D01*
D13*
X0159422Y0103500D02*
X0164422Y0103500D01*
X0164422Y0109500D02*
X0159422Y0109500D01*
X0097752Y0162106D02*
X0097752Y0165256D01*
X0096571Y0165256D01*
X0090272Y0165256D02*
X0089091Y0165256D01*
X0089091Y0162106D01*
D14*
X0153522Y0136487D02*
X0153522Y0118513D01*
X0173322Y0118513D02*
X0173322Y0136487D01*
X0155222Y0132300D02*
X0155224Y0132384D01*
X0155230Y0132469D01*
X0155240Y0132552D01*
X0155254Y0132636D01*
X0155271Y0132718D01*
X0155293Y0132800D01*
X0155318Y0132880D01*
X0155347Y0132959D01*
X0155380Y0133037D01*
X0155416Y0133113D01*
X0155456Y0133188D01*
X0155500Y0133260D01*
X0155546Y0133331D01*
X0155596Y0133399D01*
X0155649Y0133464D01*
X0155705Y0133527D01*
X0155764Y0133588D01*
X0155826Y0133645D01*
X0155890Y0133700D01*
X0155957Y0133751D01*
X0156026Y0133800D01*
X0156098Y0133845D01*
X0156171Y0133886D01*
X0156246Y0133924D01*
X0156323Y0133959D01*
X0156402Y0133990D01*
X0156482Y0134017D01*
X0156563Y0134040D01*
X0156645Y0134060D01*
X0156728Y0134076D01*
X0156811Y0134088D01*
X0156896Y0134096D01*
X0156980Y0134100D01*
X0157064Y0134100D01*
X0157148Y0134096D01*
X0157233Y0134088D01*
X0157316Y0134076D01*
X0157399Y0134060D01*
X0157481Y0134040D01*
X0157562Y0134017D01*
X0157642Y0133990D01*
X0157721Y0133959D01*
X0157798Y0133924D01*
X0157873Y0133886D01*
X0157946Y0133845D01*
X0158018Y0133800D01*
X0158087Y0133751D01*
X0158154Y0133700D01*
X0158218Y0133645D01*
X0158280Y0133588D01*
X0158339Y0133527D01*
X0158395Y0133464D01*
X0158448Y0133399D01*
X0158498Y0133331D01*
X0158544Y0133260D01*
X0158588Y0133188D01*
X0158628Y0133113D01*
X0158664Y0133037D01*
X0158697Y0132959D01*
X0158726Y0132880D01*
X0158751Y0132800D01*
X0158773Y0132718D01*
X0158790Y0132636D01*
X0158804Y0132552D01*
X0158814Y0132469D01*
X0158820Y0132384D01*
X0158822Y0132300D01*
X0158820Y0132216D01*
X0158814Y0132131D01*
X0158804Y0132048D01*
X0158790Y0131964D01*
X0158773Y0131882D01*
X0158751Y0131800D01*
X0158726Y0131720D01*
X0158697Y0131641D01*
X0158664Y0131563D01*
X0158628Y0131487D01*
X0158588Y0131412D01*
X0158544Y0131340D01*
X0158498Y0131269D01*
X0158448Y0131201D01*
X0158395Y0131136D01*
X0158339Y0131073D01*
X0158280Y0131012D01*
X0158218Y0130955D01*
X0158154Y0130900D01*
X0158087Y0130849D01*
X0158018Y0130800D01*
X0157946Y0130755D01*
X0157873Y0130714D01*
X0157798Y0130676D01*
X0157721Y0130641D01*
X0157642Y0130610D01*
X0157562Y0130583D01*
X0157481Y0130560D01*
X0157399Y0130540D01*
X0157316Y0130524D01*
X0157233Y0130512D01*
X0157148Y0130504D01*
X0157064Y0130500D01*
X0156980Y0130500D01*
X0156896Y0130504D01*
X0156811Y0130512D01*
X0156728Y0130524D01*
X0156645Y0130540D01*
X0156563Y0130560D01*
X0156482Y0130583D01*
X0156402Y0130610D01*
X0156323Y0130641D01*
X0156246Y0130676D01*
X0156171Y0130714D01*
X0156098Y0130755D01*
X0156026Y0130800D01*
X0155957Y0130849D01*
X0155890Y0130900D01*
X0155826Y0130955D01*
X0155764Y0131012D01*
X0155705Y0131073D01*
X0155649Y0131136D01*
X0155596Y0131201D01*
X0155546Y0131269D01*
X0155500Y0131340D01*
X0155456Y0131412D01*
X0155416Y0131487D01*
X0155380Y0131563D01*
X0155347Y0131641D01*
X0155318Y0131720D01*
X0155293Y0131800D01*
X0155271Y0131882D01*
X0155254Y0131964D01*
X0155240Y0132048D01*
X0155230Y0132131D01*
X0155224Y0132216D01*
X0155222Y0132300D01*
M02*
