G75*
%MOIN*%
%OFA0B0*%
%FSLAX25Y25*%
%IPPOS*%
%LPD*%
%AMOC8*
5,1,8,0,0,1.08239X$1,22.5*
%
%ADD10C,0.01008*%
%ADD11R,0.01969X0.01969*%
%ADD12R,0.04724X0.04724*%
%ADD13R,0.01575X0.02362*%
%ADD14R,0.01969X0.01969*%
%ADD15R,0.02362X0.03150*%
%ADD16R,0.03150X0.02362*%
%ADD17R,0.11811X0.05512*%
%ADD18R,0.03150X0.03150*%
%ADD19R,0.07098X0.06299*%
%ADD20R,0.01575X0.06299*%
%ADD21R,0.05315X0.01575*%
%ADD22R,0.05512X0.06299*%
%ADD23R,0.07480X0.07480*%
%ADD24C,0.03543*%
%ADD25R,0.03543X0.03150*%
%ADD26R,0.03937X0.04331*%
%ADD27R,0.04724X0.02165*%
%ADD28R,0.03150X0.03543*%
%ADD29R,0.02362X0.01575*%
%ADD30R,0.04134X0.02559*%
D10*
X0162547Y0156920D02*
X0164199Y0158572D01*
X0162547Y0156920D02*
X0162369Y0157098D01*
X0164021Y0158750D01*
X0164199Y0158572D01*
X0163554Y0157927D02*
X0163198Y0157927D01*
X0162807Y0159964D02*
X0161155Y0158312D01*
X0160977Y0158490D01*
X0162629Y0160142D01*
X0162807Y0159964D01*
X0162162Y0159319D02*
X0161806Y0159319D01*
X0161415Y0161356D02*
X0159763Y0159704D01*
X0159585Y0159882D01*
X0161237Y0161534D01*
X0161415Y0161356D01*
X0160770Y0160711D02*
X0160414Y0160711D01*
X0160024Y0162748D02*
X0158372Y0161096D01*
X0158194Y0161274D01*
X0159846Y0162926D01*
X0160024Y0162748D01*
X0159379Y0162103D02*
X0159023Y0162103D01*
X0158632Y0164140D02*
X0156980Y0162488D01*
X0156802Y0162666D01*
X0158454Y0164318D01*
X0158632Y0164140D01*
X0157987Y0163495D02*
X0157631Y0163495D01*
X0157240Y0165532D02*
X0155588Y0163880D01*
X0155410Y0164058D01*
X0157062Y0165710D01*
X0157240Y0165532D01*
X0156595Y0164887D02*
X0156239Y0164887D01*
X0155848Y0166924D02*
X0154196Y0165272D01*
X0154018Y0165450D01*
X0155670Y0167102D01*
X0155848Y0166924D01*
X0155203Y0166279D02*
X0154847Y0166279D01*
X0154456Y0168316D02*
X0152804Y0166664D01*
X0152626Y0166842D01*
X0154278Y0168494D01*
X0154456Y0168316D01*
X0153811Y0167671D02*
X0153455Y0167671D01*
X0153064Y0169708D02*
X0151412Y0168056D01*
X0151234Y0168234D01*
X0152886Y0169886D01*
X0153064Y0169708D01*
X0152419Y0169063D02*
X0152063Y0169063D01*
X0151672Y0171100D02*
X0150020Y0169448D01*
X0149842Y0169626D01*
X0151494Y0171278D01*
X0151672Y0171100D01*
X0151027Y0170455D02*
X0150671Y0170455D01*
X0150280Y0172492D02*
X0148628Y0170840D01*
X0148450Y0171018D01*
X0150102Y0172670D01*
X0150280Y0172492D01*
X0149635Y0171847D02*
X0149279Y0171847D01*
X0150102Y0179330D02*
X0148450Y0180982D01*
X0148628Y0181160D01*
X0150280Y0179508D01*
X0150102Y0179330D01*
X0149451Y0180337D02*
X0149095Y0180337D01*
X0149842Y0182374D02*
X0151494Y0180722D01*
X0149842Y0182374D02*
X0150020Y0182552D01*
X0151672Y0180900D01*
X0151494Y0180722D01*
X0150843Y0181729D02*
X0150487Y0181729D01*
X0151234Y0183766D02*
X0152886Y0182114D01*
X0151234Y0183766D02*
X0151412Y0183944D01*
X0153064Y0182292D01*
X0152886Y0182114D01*
X0152235Y0183121D02*
X0151879Y0183121D01*
X0152626Y0185158D02*
X0154278Y0183506D01*
X0152626Y0185158D02*
X0152804Y0185336D01*
X0154456Y0183684D01*
X0154278Y0183506D01*
X0153627Y0184513D02*
X0153271Y0184513D01*
X0154018Y0186550D02*
X0155670Y0184898D01*
X0154018Y0186550D02*
X0154196Y0186728D01*
X0155848Y0185076D01*
X0155670Y0184898D01*
X0155019Y0185905D02*
X0154663Y0185905D01*
X0155410Y0187942D02*
X0157062Y0186290D01*
X0155410Y0187942D02*
X0155588Y0188120D01*
X0157240Y0186468D01*
X0157062Y0186290D01*
X0156411Y0187297D02*
X0156055Y0187297D01*
X0156802Y0189334D02*
X0158454Y0187682D01*
X0156802Y0189334D02*
X0156980Y0189512D01*
X0158632Y0187860D01*
X0158454Y0187682D01*
X0157803Y0188689D02*
X0157447Y0188689D01*
X0158194Y0190726D02*
X0159846Y0189074D01*
X0158194Y0190726D02*
X0158372Y0190904D01*
X0160024Y0189252D01*
X0159846Y0189074D01*
X0159195Y0190081D02*
X0158839Y0190081D01*
X0159585Y0192118D02*
X0161237Y0190466D01*
X0159585Y0192118D02*
X0159763Y0192296D01*
X0161415Y0190644D01*
X0161237Y0190466D01*
X0160586Y0191473D02*
X0160230Y0191473D01*
X0160977Y0193510D02*
X0162629Y0191858D01*
X0160977Y0193510D02*
X0161155Y0193688D01*
X0162807Y0192036D01*
X0162629Y0191858D01*
X0161978Y0192865D02*
X0161622Y0192865D01*
X0162369Y0194902D02*
X0164021Y0193250D01*
X0162369Y0194902D02*
X0162547Y0195080D01*
X0164199Y0193428D01*
X0164021Y0193250D01*
X0163370Y0194257D02*
X0163014Y0194257D01*
X0163761Y0196294D02*
X0165413Y0194642D01*
X0163761Y0196294D02*
X0163939Y0196472D01*
X0165591Y0194820D01*
X0165413Y0194642D01*
X0164762Y0195649D02*
X0164406Y0195649D01*
X0172430Y0194642D02*
X0174082Y0196294D01*
X0172430Y0194642D02*
X0172252Y0194820D01*
X0173904Y0196472D01*
X0174082Y0196294D01*
X0173437Y0195649D02*
X0173081Y0195649D01*
X0175474Y0194902D02*
X0173822Y0193250D01*
X0173644Y0193428D01*
X0175296Y0195080D01*
X0175474Y0194902D01*
X0174829Y0194257D02*
X0174473Y0194257D01*
X0176866Y0193510D02*
X0175214Y0191858D01*
X0175036Y0192036D01*
X0176688Y0193688D01*
X0176866Y0193510D01*
X0176221Y0192865D02*
X0175865Y0192865D01*
X0178258Y0192118D02*
X0176606Y0190466D01*
X0176428Y0190644D01*
X0178080Y0192296D01*
X0178258Y0192118D01*
X0177613Y0191473D02*
X0177257Y0191473D01*
X0179650Y0190726D02*
X0177998Y0189074D01*
X0177820Y0189252D01*
X0179472Y0190904D01*
X0179650Y0190726D01*
X0179005Y0190081D02*
X0178649Y0190081D01*
X0181042Y0189334D02*
X0179390Y0187682D01*
X0179212Y0187860D01*
X0180864Y0189512D01*
X0181042Y0189334D01*
X0180397Y0188689D02*
X0180041Y0188689D01*
X0182434Y0187942D02*
X0180782Y0186290D01*
X0180604Y0186468D01*
X0182256Y0188120D01*
X0182434Y0187942D01*
X0181789Y0187297D02*
X0181433Y0187297D01*
X0183826Y0186550D02*
X0182174Y0184898D01*
X0181996Y0185076D01*
X0183648Y0186728D01*
X0183826Y0186550D01*
X0183181Y0185905D02*
X0182825Y0185905D01*
X0185218Y0185158D02*
X0183566Y0183506D01*
X0183388Y0183684D01*
X0185040Y0185336D01*
X0185218Y0185158D01*
X0184573Y0184513D02*
X0184217Y0184513D01*
X0186610Y0183766D02*
X0184958Y0182114D01*
X0184780Y0182292D01*
X0186432Y0183944D01*
X0186610Y0183766D01*
X0185965Y0183121D02*
X0185609Y0183121D01*
X0188002Y0182374D02*
X0186350Y0180722D01*
X0186172Y0180900D01*
X0187824Y0182552D01*
X0188002Y0182374D01*
X0187357Y0181729D02*
X0187001Y0181729D01*
X0189394Y0180982D02*
X0187742Y0179330D01*
X0187564Y0179508D01*
X0189216Y0181160D01*
X0189394Y0180982D01*
X0188749Y0180337D02*
X0188393Y0180337D01*
X0187564Y0172492D02*
X0189216Y0170840D01*
X0187564Y0172492D02*
X0187742Y0172670D01*
X0189394Y0171018D01*
X0189216Y0170840D01*
X0188565Y0171847D02*
X0188209Y0171847D01*
X0186172Y0171100D02*
X0187824Y0169448D01*
X0186172Y0171100D02*
X0186350Y0171278D01*
X0188002Y0169626D01*
X0187824Y0169448D01*
X0187173Y0170455D02*
X0186817Y0170455D01*
X0184780Y0169708D02*
X0186432Y0168056D01*
X0184780Y0169708D02*
X0184958Y0169886D01*
X0186610Y0168234D01*
X0186432Y0168056D01*
X0185781Y0169063D02*
X0185425Y0169063D01*
X0183388Y0168316D02*
X0185040Y0166664D01*
X0183388Y0168316D02*
X0183566Y0168494D01*
X0185218Y0166842D01*
X0185040Y0166664D01*
X0184389Y0167671D02*
X0184033Y0167671D01*
X0181996Y0166924D02*
X0183648Y0165272D01*
X0181996Y0166924D02*
X0182174Y0167102D01*
X0183826Y0165450D01*
X0183648Y0165272D01*
X0182997Y0166279D02*
X0182641Y0166279D01*
X0180604Y0165532D02*
X0182256Y0163880D01*
X0180604Y0165532D02*
X0180782Y0165710D01*
X0182434Y0164058D01*
X0182256Y0163880D01*
X0181605Y0164887D02*
X0181249Y0164887D01*
X0179212Y0164140D02*
X0180864Y0162488D01*
X0179212Y0164140D02*
X0179390Y0164318D01*
X0181042Y0162666D01*
X0180864Y0162488D01*
X0180213Y0163495D02*
X0179857Y0163495D01*
X0177820Y0162748D02*
X0179472Y0161096D01*
X0177820Y0162748D02*
X0177998Y0162926D01*
X0179650Y0161274D01*
X0179472Y0161096D01*
X0178821Y0162103D02*
X0178465Y0162103D01*
X0176428Y0161356D02*
X0178080Y0159704D01*
X0176428Y0161356D02*
X0176606Y0161534D01*
X0178258Y0159882D01*
X0178080Y0159704D01*
X0177429Y0160711D02*
X0177073Y0160711D01*
X0175036Y0159964D02*
X0176688Y0158312D01*
X0175036Y0159964D02*
X0175214Y0160142D01*
X0176866Y0158490D01*
X0176688Y0158312D01*
X0176037Y0159319D02*
X0175681Y0159319D01*
X0173644Y0158572D02*
X0175296Y0156920D01*
X0173644Y0158572D02*
X0173822Y0158750D01*
X0175474Y0157098D01*
X0175296Y0156920D01*
X0174645Y0157927D02*
X0174289Y0157927D01*
X0172252Y0157180D02*
X0173904Y0155528D01*
X0172252Y0157180D02*
X0172430Y0157358D01*
X0174082Y0155706D01*
X0173904Y0155528D01*
X0173253Y0156535D02*
X0172897Y0156535D01*
X0165591Y0157180D02*
X0163939Y0155528D01*
X0163761Y0155706D01*
X0165413Y0157358D01*
X0165591Y0157180D01*
X0164946Y0156535D02*
X0164590Y0156535D01*
D11*
X0196953Y0170500D03*
X0200890Y0170500D03*
X0200890Y0175000D03*
X0196953Y0175000D03*
X0188390Y0191000D03*
X0184453Y0191000D03*
X0183453Y0195500D03*
X0187390Y0195500D03*
X0123922Y0193969D03*
X0123922Y0190031D03*
X0147953Y0118500D03*
X0151890Y0118500D03*
X0159922Y0111969D03*
X0165922Y0111969D03*
X0165922Y0108031D03*
X0159922Y0108031D03*
X0181453Y0116000D03*
X0185390Y0116000D03*
X0210953Y0116000D03*
X0214890Y0116000D03*
X0101422Y0091969D03*
X0101422Y0088031D03*
D12*
X0100556Y0159000D03*
X0092288Y0159000D03*
D13*
X0094650Y0169000D03*
X0098193Y0169000D03*
X0119650Y0160500D03*
X0123193Y0160500D03*
X0131650Y0160500D03*
X0135193Y0160500D03*
X0196650Y0161600D03*
X0200193Y0161600D03*
X0200193Y0165000D03*
X0196650Y0165000D03*
X0218650Y0169000D03*
X0222193Y0169000D03*
X0199193Y0185000D03*
X0195650Y0185000D03*
X0185193Y0120000D03*
X0181650Y0120000D03*
X0211150Y0120000D03*
X0214693Y0120000D03*
X0152693Y0098750D03*
X0149150Y0098750D03*
D14*
G36*
X0145314Y0157499D02*
X0146705Y0156108D01*
X0145314Y0154717D01*
X0143923Y0156108D01*
X0145314Y0157499D01*
G37*
G36*
X0142530Y0160283D02*
X0143921Y0158892D01*
X0142530Y0157501D01*
X0141139Y0158892D01*
X0142530Y0160283D01*
G37*
D15*
X0099821Y0164500D03*
X0093522Y0164500D03*
D16*
X0133422Y0189244D03*
X0133422Y0194756D03*
X0226422Y0154756D03*
X0226422Y0149244D03*
D17*
X0137871Y0092500D03*
X0118973Y0092500D03*
D18*
X0107922Y0087047D03*
X0107922Y0092953D03*
D19*
X0179472Y0072198D03*
X0179472Y0061002D03*
X0204972Y0060882D03*
X0204972Y0072078D03*
D20*
X0204673Y0085592D03*
X0207232Y0085592D03*
X0202113Y0085592D03*
X0199554Y0085592D03*
X0196995Y0085592D03*
X0194436Y0085592D03*
X0191877Y0085592D03*
X0189318Y0085592D03*
X0189318Y0108820D03*
X0191877Y0108820D03*
X0194436Y0108820D03*
X0196995Y0108820D03*
X0199554Y0108820D03*
X0202113Y0108820D03*
X0204673Y0108820D03*
X0207232Y0108820D03*
D21*
X0228422Y0119276D03*
X0228422Y0121835D03*
X0228422Y0124394D03*
X0228422Y0126953D03*
X0228422Y0129512D03*
D22*
X0228422Y0136992D03*
X0228422Y0111795D03*
D23*
X0238953Y0119669D03*
X0238953Y0129118D03*
D24*
X0237556Y0137386D02*
X0237556Y0137386D01*
X0240312Y0137386D01*
X0240312Y0137386D01*
X0237556Y0137386D01*
X0237556Y0111402D02*
X0237556Y0111402D01*
X0240312Y0111402D01*
X0240312Y0111402D01*
X0237556Y0111402D01*
D25*
X0119252Y0113500D03*
X0110985Y0109760D03*
X0110985Y0117240D03*
D26*
X0103922Y0116846D03*
X0103922Y0110154D03*
D27*
X0140303Y0113240D03*
X0140303Y0105760D03*
X0150540Y0105760D03*
X0150540Y0109500D03*
X0150540Y0113240D03*
D28*
X0137162Y0165063D03*
X0129682Y0165063D03*
X0125162Y0165063D03*
X0117682Y0165063D03*
X0121422Y0173331D03*
X0133422Y0173331D03*
D29*
X0129422Y0178228D03*
X0129422Y0181772D03*
X0123922Y0181772D03*
X0123922Y0178228D03*
D30*
X0104391Y0151532D03*
X0104391Y0143068D03*
X0088052Y0143068D03*
X0088052Y0151532D03*
M02*
