G75*
%MOIN*%
%OFA0B0*%
%FSLAX25Y25*%
%IPPOS*%
%LPD*%
%AMOC8*
5,1,8,0,0,1.08239X$1,22.5*
%
%ADD10C,0.00000*%
%ADD11C,0.00600*%
%ADD12R,0.01969X0.01969*%
%ADD13R,0.02165X0.04724*%
%ADD14R,0.02362X0.01575*%
%ADD15R,0.04331X0.02362*%
%ADD16R,0.02756X0.02756*%
%ADD17C,0.04000*%
%ADD18R,0.08000X0.08000*%
%ADD19C,0.08000*%
%ADD20R,0.01200X0.03900*%
%ADD21R,0.07400X0.07400*%
%ADD22C,0.07400*%
%ADD23C,0.06000*%
%ADD24R,0.02000X0.01000*%
%ADD25C,0.00039*%
%ADD26C,0.03543*%
%ADD27R,0.01575X0.02362*%
%ADD28R,0.03937X0.07087*%
%ADD29C,0.05906*%
%ADD30C,0.00800*%
%ADD31C,0.01000*%
%ADD32C,0.02400*%
%ADD33C,0.01600*%
%ADD34R,0.03562X0.03562*%
%ADD35C,0.03200*%
%ADD36C,0.02400*%
D10*
X0080922Y0061000D02*
X0095922Y0046000D01*
X0230922Y0046000D01*
X0245922Y0061000D01*
X0245922Y0196000D01*
X0230922Y0211000D01*
X0095922Y0211000D01*
X0080922Y0196000D01*
X0080922Y0061000D01*
X0096099Y0067476D02*
X0096101Y0067634D01*
X0096107Y0067792D01*
X0096117Y0067950D01*
X0096131Y0068108D01*
X0096149Y0068265D01*
X0096170Y0068422D01*
X0096196Y0068578D01*
X0096226Y0068734D01*
X0096259Y0068889D01*
X0096297Y0069042D01*
X0096338Y0069195D01*
X0096383Y0069347D01*
X0096432Y0069498D01*
X0096485Y0069647D01*
X0096541Y0069795D01*
X0096601Y0069941D01*
X0096665Y0070086D01*
X0096733Y0070229D01*
X0096804Y0070371D01*
X0096878Y0070511D01*
X0096956Y0070648D01*
X0097038Y0070784D01*
X0097122Y0070918D01*
X0097211Y0071049D01*
X0097302Y0071178D01*
X0097397Y0071305D01*
X0097494Y0071430D01*
X0097595Y0071552D01*
X0097699Y0071671D01*
X0097806Y0071788D01*
X0097916Y0071902D01*
X0098029Y0072013D01*
X0098144Y0072122D01*
X0098262Y0072227D01*
X0098383Y0072329D01*
X0098506Y0072429D01*
X0098632Y0072525D01*
X0098760Y0072618D01*
X0098890Y0072708D01*
X0099023Y0072794D01*
X0099158Y0072878D01*
X0099294Y0072957D01*
X0099433Y0073034D01*
X0099574Y0073106D01*
X0099716Y0073176D01*
X0099860Y0073241D01*
X0100006Y0073303D01*
X0100153Y0073361D01*
X0100302Y0073416D01*
X0100452Y0073467D01*
X0100603Y0073514D01*
X0100755Y0073557D01*
X0100908Y0073596D01*
X0101063Y0073632D01*
X0101218Y0073663D01*
X0101374Y0073691D01*
X0101530Y0073715D01*
X0101687Y0073735D01*
X0101845Y0073751D01*
X0102002Y0073763D01*
X0102161Y0073771D01*
X0102319Y0073775D01*
X0102477Y0073775D01*
X0102635Y0073771D01*
X0102794Y0073763D01*
X0102951Y0073751D01*
X0103109Y0073735D01*
X0103266Y0073715D01*
X0103422Y0073691D01*
X0103578Y0073663D01*
X0103733Y0073632D01*
X0103888Y0073596D01*
X0104041Y0073557D01*
X0104193Y0073514D01*
X0104344Y0073467D01*
X0104494Y0073416D01*
X0104643Y0073361D01*
X0104790Y0073303D01*
X0104936Y0073241D01*
X0105080Y0073176D01*
X0105222Y0073106D01*
X0105363Y0073034D01*
X0105502Y0072957D01*
X0105638Y0072878D01*
X0105773Y0072794D01*
X0105906Y0072708D01*
X0106036Y0072618D01*
X0106164Y0072525D01*
X0106290Y0072429D01*
X0106413Y0072329D01*
X0106534Y0072227D01*
X0106652Y0072122D01*
X0106767Y0072013D01*
X0106880Y0071902D01*
X0106990Y0071788D01*
X0107097Y0071671D01*
X0107201Y0071552D01*
X0107302Y0071430D01*
X0107399Y0071305D01*
X0107494Y0071178D01*
X0107585Y0071049D01*
X0107674Y0070918D01*
X0107758Y0070784D01*
X0107840Y0070648D01*
X0107918Y0070511D01*
X0107992Y0070371D01*
X0108063Y0070229D01*
X0108131Y0070086D01*
X0108195Y0069941D01*
X0108255Y0069795D01*
X0108311Y0069647D01*
X0108364Y0069498D01*
X0108413Y0069347D01*
X0108458Y0069195D01*
X0108499Y0069042D01*
X0108537Y0068889D01*
X0108570Y0068734D01*
X0108600Y0068578D01*
X0108626Y0068422D01*
X0108647Y0068265D01*
X0108665Y0068108D01*
X0108679Y0067950D01*
X0108689Y0067792D01*
X0108695Y0067634D01*
X0108697Y0067476D01*
X0108695Y0067318D01*
X0108689Y0067160D01*
X0108679Y0067002D01*
X0108665Y0066844D01*
X0108647Y0066687D01*
X0108626Y0066530D01*
X0108600Y0066374D01*
X0108570Y0066218D01*
X0108537Y0066063D01*
X0108499Y0065910D01*
X0108458Y0065757D01*
X0108413Y0065605D01*
X0108364Y0065454D01*
X0108311Y0065305D01*
X0108255Y0065157D01*
X0108195Y0065011D01*
X0108131Y0064866D01*
X0108063Y0064723D01*
X0107992Y0064581D01*
X0107918Y0064441D01*
X0107840Y0064304D01*
X0107758Y0064168D01*
X0107674Y0064034D01*
X0107585Y0063903D01*
X0107494Y0063774D01*
X0107399Y0063647D01*
X0107302Y0063522D01*
X0107201Y0063400D01*
X0107097Y0063281D01*
X0106990Y0063164D01*
X0106880Y0063050D01*
X0106767Y0062939D01*
X0106652Y0062830D01*
X0106534Y0062725D01*
X0106413Y0062623D01*
X0106290Y0062523D01*
X0106164Y0062427D01*
X0106036Y0062334D01*
X0105906Y0062244D01*
X0105773Y0062158D01*
X0105638Y0062074D01*
X0105502Y0061995D01*
X0105363Y0061918D01*
X0105222Y0061846D01*
X0105080Y0061776D01*
X0104936Y0061711D01*
X0104790Y0061649D01*
X0104643Y0061591D01*
X0104494Y0061536D01*
X0104344Y0061485D01*
X0104193Y0061438D01*
X0104041Y0061395D01*
X0103888Y0061356D01*
X0103733Y0061320D01*
X0103578Y0061289D01*
X0103422Y0061261D01*
X0103266Y0061237D01*
X0103109Y0061217D01*
X0102951Y0061201D01*
X0102794Y0061189D01*
X0102635Y0061181D01*
X0102477Y0061177D01*
X0102319Y0061177D01*
X0102161Y0061181D01*
X0102002Y0061189D01*
X0101845Y0061201D01*
X0101687Y0061217D01*
X0101530Y0061237D01*
X0101374Y0061261D01*
X0101218Y0061289D01*
X0101063Y0061320D01*
X0100908Y0061356D01*
X0100755Y0061395D01*
X0100603Y0061438D01*
X0100452Y0061485D01*
X0100302Y0061536D01*
X0100153Y0061591D01*
X0100006Y0061649D01*
X0099860Y0061711D01*
X0099716Y0061776D01*
X0099574Y0061846D01*
X0099433Y0061918D01*
X0099294Y0061995D01*
X0099158Y0062074D01*
X0099023Y0062158D01*
X0098890Y0062244D01*
X0098760Y0062334D01*
X0098632Y0062427D01*
X0098506Y0062523D01*
X0098383Y0062623D01*
X0098262Y0062725D01*
X0098144Y0062830D01*
X0098029Y0062939D01*
X0097916Y0063050D01*
X0097806Y0063164D01*
X0097699Y0063281D01*
X0097595Y0063400D01*
X0097494Y0063522D01*
X0097397Y0063647D01*
X0097302Y0063774D01*
X0097211Y0063903D01*
X0097122Y0064034D01*
X0097038Y0064168D01*
X0096956Y0064304D01*
X0096878Y0064441D01*
X0096804Y0064581D01*
X0096733Y0064723D01*
X0096665Y0064866D01*
X0096601Y0065011D01*
X0096541Y0065157D01*
X0096485Y0065305D01*
X0096432Y0065454D01*
X0096383Y0065605D01*
X0096338Y0065757D01*
X0096297Y0065910D01*
X0096259Y0066063D01*
X0096226Y0066218D01*
X0096196Y0066374D01*
X0096170Y0066530D01*
X0096149Y0066687D01*
X0096131Y0066844D01*
X0096117Y0067002D01*
X0096107Y0067160D01*
X0096101Y0067318D01*
X0096099Y0067476D01*
X0218146Y0067476D02*
X0218148Y0067634D01*
X0218154Y0067792D01*
X0218164Y0067950D01*
X0218178Y0068108D01*
X0218196Y0068265D01*
X0218217Y0068422D01*
X0218243Y0068578D01*
X0218273Y0068734D01*
X0218306Y0068889D01*
X0218344Y0069042D01*
X0218385Y0069195D01*
X0218430Y0069347D01*
X0218479Y0069498D01*
X0218532Y0069647D01*
X0218588Y0069795D01*
X0218648Y0069941D01*
X0218712Y0070086D01*
X0218780Y0070229D01*
X0218851Y0070371D01*
X0218925Y0070511D01*
X0219003Y0070648D01*
X0219085Y0070784D01*
X0219169Y0070918D01*
X0219258Y0071049D01*
X0219349Y0071178D01*
X0219444Y0071305D01*
X0219541Y0071430D01*
X0219642Y0071552D01*
X0219746Y0071671D01*
X0219853Y0071788D01*
X0219963Y0071902D01*
X0220076Y0072013D01*
X0220191Y0072122D01*
X0220309Y0072227D01*
X0220430Y0072329D01*
X0220553Y0072429D01*
X0220679Y0072525D01*
X0220807Y0072618D01*
X0220937Y0072708D01*
X0221070Y0072794D01*
X0221205Y0072878D01*
X0221341Y0072957D01*
X0221480Y0073034D01*
X0221621Y0073106D01*
X0221763Y0073176D01*
X0221907Y0073241D01*
X0222053Y0073303D01*
X0222200Y0073361D01*
X0222349Y0073416D01*
X0222499Y0073467D01*
X0222650Y0073514D01*
X0222802Y0073557D01*
X0222955Y0073596D01*
X0223110Y0073632D01*
X0223265Y0073663D01*
X0223421Y0073691D01*
X0223577Y0073715D01*
X0223734Y0073735D01*
X0223892Y0073751D01*
X0224049Y0073763D01*
X0224208Y0073771D01*
X0224366Y0073775D01*
X0224524Y0073775D01*
X0224682Y0073771D01*
X0224841Y0073763D01*
X0224998Y0073751D01*
X0225156Y0073735D01*
X0225313Y0073715D01*
X0225469Y0073691D01*
X0225625Y0073663D01*
X0225780Y0073632D01*
X0225935Y0073596D01*
X0226088Y0073557D01*
X0226240Y0073514D01*
X0226391Y0073467D01*
X0226541Y0073416D01*
X0226690Y0073361D01*
X0226837Y0073303D01*
X0226983Y0073241D01*
X0227127Y0073176D01*
X0227269Y0073106D01*
X0227410Y0073034D01*
X0227549Y0072957D01*
X0227685Y0072878D01*
X0227820Y0072794D01*
X0227953Y0072708D01*
X0228083Y0072618D01*
X0228211Y0072525D01*
X0228337Y0072429D01*
X0228460Y0072329D01*
X0228581Y0072227D01*
X0228699Y0072122D01*
X0228814Y0072013D01*
X0228927Y0071902D01*
X0229037Y0071788D01*
X0229144Y0071671D01*
X0229248Y0071552D01*
X0229349Y0071430D01*
X0229446Y0071305D01*
X0229541Y0071178D01*
X0229632Y0071049D01*
X0229721Y0070918D01*
X0229805Y0070784D01*
X0229887Y0070648D01*
X0229965Y0070511D01*
X0230039Y0070371D01*
X0230110Y0070229D01*
X0230178Y0070086D01*
X0230242Y0069941D01*
X0230302Y0069795D01*
X0230358Y0069647D01*
X0230411Y0069498D01*
X0230460Y0069347D01*
X0230505Y0069195D01*
X0230546Y0069042D01*
X0230584Y0068889D01*
X0230617Y0068734D01*
X0230647Y0068578D01*
X0230673Y0068422D01*
X0230694Y0068265D01*
X0230712Y0068108D01*
X0230726Y0067950D01*
X0230736Y0067792D01*
X0230742Y0067634D01*
X0230744Y0067476D01*
X0230742Y0067318D01*
X0230736Y0067160D01*
X0230726Y0067002D01*
X0230712Y0066844D01*
X0230694Y0066687D01*
X0230673Y0066530D01*
X0230647Y0066374D01*
X0230617Y0066218D01*
X0230584Y0066063D01*
X0230546Y0065910D01*
X0230505Y0065757D01*
X0230460Y0065605D01*
X0230411Y0065454D01*
X0230358Y0065305D01*
X0230302Y0065157D01*
X0230242Y0065011D01*
X0230178Y0064866D01*
X0230110Y0064723D01*
X0230039Y0064581D01*
X0229965Y0064441D01*
X0229887Y0064304D01*
X0229805Y0064168D01*
X0229721Y0064034D01*
X0229632Y0063903D01*
X0229541Y0063774D01*
X0229446Y0063647D01*
X0229349Y0063522D01*
X0229248Y0063400D01*
X0229144Y0063281D01*
X0229037Y0063164D01*
X0228927Y0063050D01*
X0228814Y0062939D01*
X0228699Y0062830D01*
X0228581Y0062725D01*
X0228460Y0062623D01*
X0228337Y0062523D01*
X0228211Y0062427D01*
X0228083Y0062334D01*
X0227953Y0062244D01*
X0227820Y0062158D01*
X0227685Y0062074D01*
X0227549Y0061995D01*
X0227410Y0061918D01*
X0227269Y0061846D01*
X0227127Y0061776D01*
X0226983Y0061711D01*
X0226837Y0061649D01*
X0226690Y0061591D01*
X0226541Y0061536D01*
X0226391Y0061485D01*
X0226240Y0061438D01*
X0226088Y0061395D01*
X0225935Y0061356D01*
X0225780Y0061320D01*
X0225625Y0061289D01*
X0225469Y0061261D01*
X0225313Y0061237D01*
X0225156Y0061217D01*
X0224998Y0061201D01*
X0224841Y0061189D01*
X0224682Y0061181D01*
X0224524Y0061177D01*
X0224366Y0061177D01*
X0224208Y0061181D01*
X0224049Y0061189D01*
X0223892Y0061201D01*
X0223734Y0061217D01*
X0223577Y0061237D01*
X0223421Y0061261D01*
X0223265Y0061289D01*
X0223110Y0061320D01*
X0222955Y0061356D01*
X0222802Y0061395D01*
X0222650Y0061438D01*
X0222499Y0061485D01*
X0222349Y0061536D01*
X0222200Y0061591D01*
X0222053Y0061649D01*
X0221907Y0061711D01*
X0221763Y0061776D01*
X0221621Y0061846D01*
X0221480Y0061918D01*
X0221341Y0061995D01*
X0221205Y0062074D01*
X0221070Y0062158D01*
X0220937Y0062244D01*
X0220807Y0062334D01*
X0220679Y0062427D01*
X0220553Y0062523D01*
X0220430Y0062623D01*
X0220309Y0062725D01*
X0220191Y0062830D01*
X0220076Y0062939D01*
X0219963Y0063050D01*
X0219853Y0063164D01*
X0219746Y0063281D01*
X0219642Y0063400D01*
X0219541Y0063522D01*
X0219444Y0063647D01*
X0219349Y0063774D01*
X0219258Y0063903D01*
X0219169Y0064034D01*
X0219085Y0064168D01*
X0219003Y0064304D01*
X0218925Y0064441D01*
X0218851Y0064581D01*
X0218780Y0064723D01*
X0218712Y0064866D01*
X0218648Y0065011D01*
X0218588Y0065157D01*
X0218532Y0065305D01*
X0218479Y0065454D01*
X0218430Y0065605D01*
X0218385Y0065757D01*
X0218344Y0065910D01*
X0218306Y0066063D01*
X0218273Y0066218D01*
X0218243Y0066374D01*
X0218217Y0066530D01*
X0218196Y0066687D01*
X0218178Y0066844D01*
X0218164Y0067002D01*
X0218154Y0067160D01*
X0218148Y0067318D01*
X0218146Y0067476D01*
X0218146Y0189524D02*
X0218148Y0189682D01*
X0218154Y0189840D01*
X0218164Y0189998D01*
X0218178Y0190156D01*
X0218196Y0190313D01*
X0218217Y0190470D01*
X0218243Y0190626D01*
X0218273Y0190782D01*
X0218306Y0190937D01*
X0218344Y0191090D01*
X0218385Y0191243D01*
X0218430Y0191395D01*
X0218479Y0191546D01*
X0218532Y0191695D01*
X0218588Y0191843D01*
X0218648Y0191989D01*
X0218712Y0192134D01*
X0218780Y0192277D01*
X0218851Y0192419D01*
X0218925Y0192559D01*
X0219003Y0192696D01*
X0219085Y0192832D01*
X0219169Y0192966D01*
X0219258Y0193097D01*
X0219349Y0193226D01*
X0219444Y0193353D01*
X0219541Y0193478D01*
X0219642Y0193600D01*
X0219746Y0193719D01*
X0219853Y0193836D01*
X0219963Y0193950D01*
X0220076Y0194061D01*
X0220191Y0194170D01*
X0220309Y0194275D01*
X0220430Y0194377D01*
X0220553Y0194477D01*
X0220679Y0194573D01*
X0220807Y0194666D01*
X0220937Y0194756D01*
X0221070Y0194842D01*
X0221205Y0194926D01*
X0221341Y0195005D01*
X0221480Y0195082D01*
X0221621Y0195154D01*
X0221763Y0195224D01*
X0221907Y0195289D01*
X0222053Y0195351D01*
X0222200Y0195409D01*
X0222349Y0195464D01*
X0222499Y0195515D01*
X0222650Y0195562D01*
X0222802Y0195605D01*
X0222955Y0195644D01*
X0223110Y0195680D01*
X0223265Y0195711D01*
X0223421Y0195739D01*
X0223577Y0195763D01*
X0223734Y0195783D01*
X0223892Y0195799D01*
X0224049Y0195811D01*
X0224208Y0195819D01*
X0224366Y0195823D01*
X0224524Y0195823D01*
X0224682Y0195819D01*
X0224841Y0195811D01*
X0224998Y0195799D01*
X0225156Y0195783D01*
X0225313Y0195763D01*
X0225469Y0195739D01*
X0225625Y0195711D01*
X0225780Y0195680D01*
X0225935Y0195644D01*
X0226088Y0195605D01*
X0226240Y0195562D01*
X0226391Y0195515D01*
X0226541Y0195464D01*
X0226690Y0195409D01*
X0226837Y0195351D01*
X0226983Y0195289D01*
X0227127Y0195224D01*
X0227269Y0195154D01*
X0227410Y0195082D01*
X0227549Y0195005D01*
X0227685Y0194926D01*
X0227820Y0194842D01*
X0227953Y0194756D01*
X0228083Y0194666D01*
X0228211Y0194573D01*
X0228337Y0194477D01*
X0228460Y0194377D01*
X0228581Y0194275D01*
X0228699Y0194170D01*
X0228814Y0194061D01*
X0228927Y0193950D01*
X0229037Y0193836D01*
X0229144Y0193719D01*
X0229248Y0193600D01*
X0229349Y0193478D01*
X0229446Y0193353D01*
X0229541Y0193226D01*
X0229632Y0193097D01*
X0229721Y0192966D01*
X0229805Y0192832D01*
X0229887Y0192696D01*
X0229965Y0192559D01*
X0230039Y0192419D01*
X0230110Y0192277D01*
X0230178Y0192134D01*
X0230242Y0191989D01*
X0230302Y0191843D01*
X0230358Y0191695D01*
X0230411Y0191546D01*
X0230460Y0191395D01*
X0230505Y0191243D01*
X0230546Y0191090D01*
X0230584Y0190937D01*
X0230617Y0190782D01*
X0230647Y0190626D01*
X0230673Y0190470D01*
X0230694Y0190313D01*
X0230712Y0190156D01*
X0230726Y0189998D01*
X0230736Y0189840D01*
X0230742Y0189682D01*
X0230744Y0189524D01*
X0230742Y0189366D01*
X0230736Y0189208D01*
X0230726Y0189050D01*
X0230712Y0188892D01*
X0230694Y0188735D01*
X0230673Y0188578D01*
X0230647Y0188422D01*
X0230617Y0188266D01*
X0230584Y0188111D01*
X0230546Y0187958D01*
X0230505Y0187805D01*
X0230460Y0187653D01*
X0230411Y0187502D01*
X0230358Y0187353D01*
X0230302Y0187205D01*
X0230242Y0187059D01*
X0230178Y0186914D01*
X0230110Y0186771D01*
X0230039Y0186629D01*
X0229965Y0186489D01*
X0229887Y0186352D01*
X0229805Y0186216D01*
X0229721Y0186082D01*
X0229632Y0185951D01*
X0229541Y0185822D01*
X0229446Y0185695D01*
X0229349Y0185570D01*
X0229248Y0185448D01*
X0229144Y0185329D01*
X0229037Y0185212D01*
X0228927Y0185098D01*
X0228814Y0184987D01*
X0228699Y0184878D01*
X0228581Y0184773D01*
X0228460Y0184671D01*
X0228337Y0184571D01*
X0228211Y0184475D01*
X0228083Y0184382D01*
X0227953Y0184292D01*
X0227820Y0184206D01*
X0227685Y0184122D01*
X0227549Y0184043D01*
X0227410Y0183966D01*
X0227269Y0183894D01*
X0227127Y0183824D01*
X0226983Y0183759D01*
X0226837Y0183697D01*
X0226690Y0183639D01*
X0226541Y0183584D01*
X0226391Y0183533D01*
X0226240Y0183486D01*
X0226088Y0183443D01*
X0225935Y0183404D01*
X0225780Y0183368D01*
X0225625Y0183337D01*
X0225469Y0183309D01*
X0225313Y0183285D01*
X0225156Y0183265D01*
X0224998Y0183249D01*
X0224841Y0183237D01*
X0224682Y0183229D01*
X0224524Y0183225D01*
X0224366Y0183225D01*
X0224208Y0183229D01*
X0224049Y0183237D01*
X0223892Y0183249D01*
X0223734Y0183265D01*
X0223577Y0183285D01*
X0223421Y0183309D01*
X0223265Y0183337D01*
X0223110Y0183368D01*
X0222955Y0183404D01*
X0222802Y0183443D01*
X0222650Y0183486D01*
X0222499Y0183533D01*
X0222349Y0183584D01*
X0222200Y0183639D01*
X0222053Y0183697D01*
X0221907Y0183759D01*
X0221763Y0183824D01*
X0221621Y0183894D01*
X0221480Y0183966D01*
X0221341Y0184043D01*
X0221205Y0184122D01*
X0221070Y0184206D01*
X0220937Y0184292D01*
X0220807Y0184382D01*
X0220679Y0184475D01*
X0220553Y0184571D01*
X0220430Y0184671D01*
X0220309Y0184773D01*
X0220191Y0184878D01*
X0220076Y0184987D01*
X0219963Y0185098D01*
X0219853Y0185212D01*
X0219746Y0185329D01*
X0219642Y0185448D01*
X0219541Y0185570D01*
X0219444Y0185695D01*
X0219349Y0185822D01*
X0219258Y0185951D01*
X0219169Y0186082D01*
X0219085Y0186216D01*
X0219003Y0186352D01*
X0218925Y0186489D01*
X0218851Y0186629D01*
X0218780Y0186771D01*
X0218712Y0186914D01*
X0218648Y0187059D01*
X0218588Y0187205D01*
X0218532Y0187353D01*
X0218479Y0187502D01*
X0218430Y0187653D01*
X0218385Y0187805D01*
X0218344Y0187958D01*
X0218306Y0188111D01*
X0218273Y0188266D01*
X0218243Y0188422D01*
X0218217Y0188578D01*
X0218196Y0188735D01*
X0218178Y0188892D01*
X0218164Y0189050D01*
X0218154Y0189208D01*
X0218148Y0189366D01*
X0218146Y0189524D01*
X0096099Y0189524D02*
X0096101Y0189682D01*
X0096107Y0189840D01*
X0096117Y0189998D01*
X0096131Y0190156D01*
X0096149Y0190313D01*
X0096170Y0190470D01*
X0096196Y0190626D01*
X0096226Y0190782D01*
X0096259Y0190937D01*
X0096297Y0191090D01*
X0096338Y0191243D01*
X0096383Y0191395D01*
X0096432Y0191546D01*
X0096485Y0191695D01*
X0096541Y0191843D01*
X0096601Y0191989D01*
X0096665Y0192134D01*
X0096733Y0192277D01*
X0096804Y0192419D01*
X0096878Y0192559D01*
X0096956Y0192696D01*
X0097038Y0192832D01*
X0097122Y0192966D01*
X0097211Y0193097D01*
X0097302Y0193226D01*
X0097397Y0193353D01*
X0097494Y0193478D01*
X0097595Y0193600D01*
X0097699Y0193719D01*
X0097806Y0193836D01*
X0097916Y0193950D01*
X0098029Y0194061D01*
X0098144Y0194170D01*
X0098262Y0194275D01*
X0098383Y0194377D01*
X0098506Y0194477D01*
X0098632Y0194573D01*
X0098760Y0194666D01*
X0098890Y0194756D01*
X0099023Y0194842D01*
X0099158Y0194926D01*
X0099294Y0195005D01*
X0099433Y0195082D01*
X0099574Y0195154D01*
X0099716Y0195224D01*
X0099860Y0195289D01*
X0100006Y0195351D01*
X0100153Y0195409D01*
X0100302Y0195464D01*
X0100452Y0195515D01*
X0100603Y0195562D01*
X0100755Y0195605D01*
X0100908Y0195644D01*
X0101063Y0195680D01*
X0101218Y0195711D01*
X0101374Y0195739D01*
X0101530Y0195763D01*
X0101687Y0195783D01*
X0101845Y0195799D01*
X0102002Y0195811D01*
X0102161Y0195819D01*
X0102319Y0195823D01*
X0102477Y0195823D01*
X0102635Y0195819D01*
X0102794Y0195811D01*
X0102951Y0195799D01*
X0103109Y0195783D01*
X0103266Y0195763D01*
X0103422Y0195739D01*
X0103578Y0195711D01*
X0103733Y0195680D01*
X0103888Y0195644D01*
X0104041Y0195605D01*
X0104193Y0195562D01*
X0104344Y0195515D01*
X0104494Y0195464D01*
X0104643Y0195409D01*
X0104790Y0195351D01*
X0104936Y0195289D01*
X0105080Y0195224D01*
X0105222Y0195154D01*
X0105363Y0195082D01*
X0105502Y0195005D01*
X0105638Y0194926D01*
X0105773Y0194842D01*
X0105906Y0194756D01*
X0106036Y0194666D01*
X0106164Y0194573D01*
X0106290Y0194477D01*
X0106413Y0194377D01*
X0106534Y0194275D01*
X0106652Y0194170D01*
X0106767Y0194061D01*
X0106880Y0193950D01*
X0106990Y0193836D01*
X0107097Y0193719D01*
X0107201Y0193600D01*
X0107302Y0193478D01*
X0107399Y0193353D01*
X0107494Y0193226D01*
X0107585Y0193097D01*
X0107674Y0192966D01*
X0107758Y0192832D01*
X0107840Y0192696D01*
X0107918Y0192559D01*
X0107992Y0192419D01*
X0108063Y0192277D01*
X0108131Y0192134D01*
X0108195Y0191989D01*
X0108255Y0191843D01*
X0108311Y0191695D01*
X0108364Y0191546D01*
X0108413Y0191395D01*
X0108458Y0191243D01*
X0108499Y0191090D01*
X0108537Y0190937D01*
X0108570Y0190782D01*
X0108600Y0190626D01*
X0108626Y0190470D01*
X0108647Y0190313D01*
X0108665Y0190156D01*
X0108679Y0189998D01*
X0108689Y0189840D01*
X0108695Y0189682D01*
X0108697Y0189524D01*
X0108695Y0189366D01*
X0108689Y0189208D01*
X0108679Y0189050D01*
X0108665Y0188892D01*
X0108647Y0188735D01*
X0108626Y0188578D01*
X0108600Y0188422D01*
X0108570Y0188266D01*
X0108537Y0188111D01*
X0108499Y0187958D01*
X0108458Y0187805D01*
X0108413Y0187653D01*
X0108364Y0187502D01*
X0108311Y0187353D01*
X0108255Y0187205D01*
X0108195Y0187059D01*
X0108131Y0186914D01*
X0108063Y0186771D01*
X0107992Y0186629D01*
X0107918Y0186489D01*
X0107840Y0186352D01*
X0107758Y0186216D01*
X0107674Y0186082D01*
X0107585Y0185951D01*
X0107494Y0185822D01*
X0107399Y0185695D01*
X0107302Y0185570D01*
X0107201Y0185448D01*
X0107097Y0185329D01*
X0106990Y0185212D01*
X0106880Y0185098D01*
X0106767Y0184987D01*
X0106652Y0184878D01*
X0106534Y0184773D01*
X0106413Y0184671D01*
X0106290Y0184571D01*
X0106164Y0184475D01*
X0106036Y0184382D01*
X0105906Y0184292D01*
X0105773Y0184206D01*
X0105638Y0184122D01*
X0105502Y0184043D01*
X0105363Y0183966D01*
X0105222Y0183894D01*
X0105080Y0183824D01*
X0104936Y0183759D01*
X0104790Y0183697D01*
X0104643Y0183639D01*
X0104494Y0183584D01*
X0104344Y0183533D01*
X0104193Y0183486D01*
X0104041Y0183443D01*
X0103888Y0183404D01*
X0103733Y0183368D01*
X0103578Y0183337D01*
X0103422Y0183309D01*
X0103266Y0183285D01*
X0103109Y0183265D01*
X0102951Y0183249D01*
X0102794Y0183237D01*
X0102635Y0183229D01*
X0102477Y0183225D01*
X0102319Y0183225D01*
X0102161Y0183229D01*
X0102002Y0183237D01*
X0101845Y0183249D01*
X0101687Y0183265D01*
X0101530Y0183285D01*
X0101374Y0183309D01*
X0101218Y0183337D01*
X0101063Y0183368D01*
X0100908Y0183404D01*
X0100755Y0183443D01*
X0100603Y0183486D01*
X0100452Y0183533D01*
X0100302Y0183584D01*
X0100153Y0183639D01*
X0100006Y0183697D01*
X0099860Y0183759D01*
X0099716Y0183824D01*
X0099574Y0183894D01*
X0099433Y0183966D01*
X0099294Y0184043D01*
X0099158Y0184122D01*
X0099023Y0184206D01*
X0098890Y0184292D01*
X0098760Y0184382D01*
X0098632Y0184475D01*
X0098506Y0184571D01*
X0098383Y0184671D01*
X0098262Y0184773D01*
X0098144Y0184878D01*
X0098029Y0184987D01*
X0097916Y0185098D01*
X0097806Y0185212D01*
X0097699Y0185329D01*
X0097595Y0185448D01*
X0097494Y0185570D01*
X0097397Y0185695D01*
X0097302Y0185822D01*
X0097211Y0185951D01*
X0097122Y0186082D01*
X0097038Y0186216D01*
X0096956Y0186352D01*
X0096878Y0186489D01*
X0096804Y0186629D01*
X0096733Y0186771D01*
X0096665Y0186914D01*
X0096601Y0187059D01*
X0096541Y0187205D01*
X0096485Y0187353D01*
X0096432Y0187502D01*
X0096383Y0187653D01*
X0096338Y0187805D01*
X0096297Y0187958D01*
X0096259Y0188111D01*
X0096226Y0188266D01*
X0096196Y0188422D01*
X0096170Y0188578D01*
X0096149Y0188735D01*
X0096131Y0188892D01*
X0096117Y0189050D01*
X0096107Y0189208D01*
X0096101Y0189366D01*
X0096099Y0189524D01*
D11*
X0365122Y0121500D02*
X0365126Y0121790D01*
X0365136Y0122079D01*
X0365154Y0122368D01*
X0365179Y0122657D01*
X0365211Y0122944D01*
X0365250Y0123231D01*
X0365296Y0123517D01*
X0365349Y0123802D01*
X0365409Y0124085D01*
X0365476Y0124367D01*
X0365549Y0124647D01*
X0365630Y0124925D01*
X0365718Y0125201D01*
X0365812Y0125475D01*
X0365913Y0125747D01*
X0366020Y0126016D01*
X0366134Y0126282D01*
X0366255Y0126545D01*
X0366382Y0126805D01*
X0366515Y0127062D01*
X0366655Y0127316D01*
X0366801Y0127566D01*
X0366953Y0127813D01*
X0367111Y0128056D01*
X0367274Y0128295D01*
X0367444Y0128529D01*
X0367620Y0128760D01*
X0367800Y0128986D01*
X0367987Y0129207D01*
X0368179Y0129424D01*
X0368376Y0129637D01*
X0368578Y0129844D01*
X0368785Y0130046D01*
X0368998Y0130243D01*
X0369215Y0130435D01*
X0369436Y0130622D01*
X0369662Y0130802D01*
X0369893Y0130978D01*
X0370127Y0131148D01*
X0370366Y0131311D01*
X0370609Y0131469D01*
X0370856Y0131621D01*
X0371106Y0131767D01*
X0371360Y0131907D01*
X0371617Y0132040D01*
X0371877Y0132167D01*
X0372140Y0132288D01*
X0372406Y0132402D01*
X0372675Y0132509D01*
X0372947Y0132610D01*
X0373221Y0132704D01*
X0373497Y0132792D01*
X0373775Y0132873D01*
X0374055Y0132946D01*
X0374337Y0133013D01*
X0374620Y0133073D01*
X0374905Y0133126D01*
X0375191Y0133172D01*
X0375478Y0133211D01*
X0375765Y0133243D01*
X0376054Y0133268D01*
X0376343Y0133286D01*
X0376632Y0133296D01*
X0376922Y0133300D01*
X0377212Y0133296D01*
X0377501Y0133286D01*
X0377790Y0133268D01*
X0378079Y0133243D01*
X0378366Y0133211D01*
X0378653Y0133172D01*
X0378939Y0133126D01*
X0379224Y0133073D01*
X0379507Y0133013D01*
X0379789Y0132946D01*
X0380069Y0132873D01*
X0380347Y0132792D01*
X0380623Y0132704D01*
X0380897Y0132610D01*
X0381169Y0132509D01*
X0381438Y0132402D01*
X0381704Y0132288D01*
X0381967Y0132167D01*
X0382227Y0132040D01*
X0382484Y0131907D01*
X0382738Y0131767D01*
X0382988Y0131621D01*
X0383235Y0131469D01*
X0383478Y0131311D01*
X0383717Y0131148D01*
X0383951Y0130978D01*
X0384182Y0130802D01*
X0384408Y0130622D01*
X0384629Y0130435D01*
X0384846Y0130243D01*
X0385059Y0130046D01*
X0385266Y0129844D01*
X0385468Y0129637D01*
X0385665Y0129424D01*
X0385857Y0129207D01*
X0386044Y0128986D01*
X0386224Y0128760D01*
X0386400Y0128529D01*
X0386570Y0128295D01*
X0386733Y0128056D01*
X0386891Y0127813D01*
X0387043Y0127566D01*
X0387189Y0127316D01*
X0387329Y0127062D01*
X0387462Y0126805D01*
X0387589Y0126545D01*
X0387710Y0126282D01*
X0387824Y0126016D01*
X0387931Y0125747D01*
X0388032Y0125475D01*
X0388126Y0125201D01*
X0388214Y0124925D01*
X0388295Y0124647D01*
X0388368Y0124367D01*
X0388435Y0124085D01*
X0388495Y0123802D01*
X0388548Y0123517D01*
X0388594Y0123231D01*
X0388633Y0122944D01*
X0388665Y0122657D01*
X0388690Y0122368D01*
X0388708Y0122079D01*
X0388718Y0121790D01*
X0388722Y0121500D01*
X0388718Y0121210D01*
X0388708Y0120921D01*
X0388690Y0120632D01*
X0388665Y0120343D01*
X0388633Y0120056D01*
X0388594Y0119769D01*
X0388548Y0119483D01*
X0388495Y0119198D01*
X0388435Y0118915D01*
X0388368Y0118633D01*
X0388295Y0118353D01*
X0388214Y0118075D01*
X0388126Y0117799D01*
X0388032Y0117525D01*
X0387931Y0117253D01*
X0387824Y0116984D01*
X0387710Y0116718D01*
X0387589Y0116455D01*
X0387462Y0116195D01*
X0387329Y0115938D01*
X0387189Y0115684D01*
X0387043Y0115434D01*
X0386891Y0115187D01*
X0386733Y0114944D01*
X0386570Y0114705D01*
X0386400Y0114471D01*
X0386224Y0114240D01*
X0386044Y0114014D01*
X0385857Y0113793D01*
X0385665Y0113576D01*
X0385468Y0113363D01*
X0385266Y0113156D01*
X0385059Y0112954D01*
X0384846Y0112757D01*
X0384629Y0112565D01*
X0384408Y0112378D01*
X0384182Y0112198D01*
X0383951Y0112022D01*
X0383717Y0111852D01*
X0383478Y0111689D01*
X0383235Y0111531D01*
X0382988Y0111379D01*
X0382738Y0111233D01*
X0382484Y0111093D01*
X0382227Y0110960D01*
X0381967Y0110833D01*
X0381704Y0110712D01*
X0381438Y0110598D01*
X0381169Y0110491D01*
X0380897Y0110390D01*
X0380623Y0110296D01*
X0380347Y0110208D01*
X0380069Y0110127D01*
X0379789Y0110054D01*
X0379507Y0109987D01*
X0379224Y0109927D01*
X0378939Y0109874D01*
X0378653Y0109828D01*
X0378366Y0109789D01*
X0378079Y0109757D01*
X0377790Y0109732D01*
X0377501Y0109714D01*
X0377212Y0109704D01*
X0376922Y0109700D01*
X0376632Y0109704D01*
X0376343Y0109714D01*
X0376054Y0109732D01*
X0375765Y0109757D01*
X0375478Y0109789D01*
X0375191Y0109828D01*
X0374905Y0109874D01*
X0374620Y0109927D01*
X0374337Y0109987D01*
X0374055Y0110054D01*
X0373775Y0110127D01*
X0373497Y0110208D01*
X0373221Y0110296D01*
X0372947Y0110390D01*
X0372675Y0110491D01*
X0372406Y0110598D01*
X0372140Y0110712D01*
X0371877Y0110833D01*
X0371617Y0110960D01*
X0371360Y0111093D01*
X0371106Y0111233D01*
X0370856Y0111379D01*
X0370609Y0111531D01*
X0370366Y0111689D01*
X0370127Y0111852D01*
X0369893Y0112022D01*
X0369662Y0112198D01*
X0369436Y0112378D01*
X0369215Y0112565D01*
X0368998Y0112757D01*
X0368785Y0112954D01*
X0368578Y0113156D01*
X0368376Y0113363D01*
X0368179Y0113576D01*
X0367987Y0113793D01*
X0367800Y0114014D01*
X0367620Y0114240D01*
X0367444Y0114471D01*
X0367274Y0114705D01*
X0367111Y0114944D01*
X0366953Y0115187D01*
X0366801Y0115434D01*
X0366655Y0115684D01*
X0366515Y0115938D01*
X0366382Y0116195D01*
X0366255Y0116455D01*
X0366134Y0116718D01*
X0366020Y0116984D01*
X0365913Y0117253D01*
X0365812Y0117525D01*
X0365718Y0117799D01*
X0365630Y0118075D01*
X0365549Y0118353D01*
X0365476Y0118633D01*
X0365409Y0118915D01*
X0365349Y0119198D01*
X0365296Y0119483D01*
X0365250Y0119769D01*
X0365211Y0120056D01*
X0365179Y0120343D01*
X0365154Y0120632D01*
X0365136Y0120921D01*
X0365126Y0121210D01*
X0365122Y0121500D01*
X0377812Y0150000D02*
X0377817Y0150444D01*
X0377834Y0150889D01*
X0377861Y0151332D01*
X0377899Y0151775D01*
X0377948Y0152217D01*
X0378008Y0152657D01*
X0378079Y0153096D01*
X0378160Y0153533D01*
X0378252Y0153968D01*
X0378355Y0154400D01*
X0378468Y0154830D01*
X0378592Y0155257D01*
X0378726Y0155681D01*
X0378871Y0156101D01*
X0379026Y0156518D01*
X0379191Y0156930D01*
X0379366Y0157339D01*
X0379551Y0157743D01*
X0379746Y0158142D01*
X0379950Y0158537D01*
X0380165Y0158926D01*
X0380389Y0159310D01*
X0380622Y0159689D01*
X0380864Y0160061D01*
X0381116Y0160428D01*
X0381376Y0160788D01*
X0381645Y0161142D01*
X0381923Y0161489D01*
X0382209Y0161829D01*
X0382503Y0162162D01*
X0382806Y0162488D01*
X0383116Y0162806D01*
X0383434Y0163116D01*
X0383760Y0163419D01*
X0384093Y0163713D01*
X0384433Y0163999D01*
X0384780Y0164277D01*
X0385134Y0164546D01*
X0385494Y0164806D01*
X0385861Y0165058D01*
X0386233Y0165300D01*
X0386612Y0165533D01*
X0386996Y0165757D01*
X0387385Y0165972D01*
X0387780Y0166176D01*
X0388179Y0166371D01*
X0388583Y0166556D01*
X0388992Y0166731D01*
X0389404Y0166896D01*
X0389821Y0167051D01*
X0390241Y0167196D01*
X0390665Y0167330D01*
X0391092Y0167454D01*
X0391522Y0167567D01*
X0391954Y0167670D01*
X0392389Y0167762D01*
X0392826Y0167843D01*
X0393265Y0167914D01*
X0393705Y0167974D01*
X0394147Y0168023D01*
X0394590Y0168061D01*
X0395033Y0168088D01*
X0395478Y0168105D01*
X0395922Y0168110D01*
X0396366Y0168105D01*
X0396811Y0168088D01*
X0397254Y0168061D01*
X0397697Y0168023D01*
X0398139Y0167974D01*
X0398579Y0167914D01*
X0399018Y0167843D01*
X0399455Y0167762D01*
X0399890Y0167670D01*
X0400322Y0167567D01*
X0400752Y0167454D01*
X0401179Y0167330D01*
X0401603Y0167196D01*
X0402023Y0167051D01*
X0402440Y0166896D01*
X0402852Y0166731D01*
X0403261Y0166556D01*
X0403665Y0166371D01*
X0404064Y0166176D01*
X0404459Y0165972D01*
X0404848Y0165757D01*
X0405232Y0165533D01*
X0405611Y0165300D01*
X0405983Y0165058D01*
X0406350Y0164806D01*
X0406710Y0164546D01*
X0407064Y0164277D01*
X0407411Y0163999D01*
X0407751Y0163713D01*
X0408084Y0163419D01*
X0408410Y0163116D01*
X0408728Y0162806D01*
X0409038Y0162488D01*
X0409341Y0162162D01*
X0409635Y0161829D01*
X0409921Y0161489D01*
X0410199Y0161142D01*
X0410468Y0160788D01*
X0410728Y0160428D01*
X0410980Y0160061D01*
X0411222Y0159689D01*
X0411455Y0159310D01*
X0411679Y0158926D01*
X0411894Y0158537D01*
X0412098Y0158142D01*
X0412293Y0157743D01*
X0412478Y0157339D01*
X0412653Y0156930D01*
X0412818Y0156518D01*
X0412973Y0156101D01*
X0413118Y0155681D01*
X0413252Y0155257D01*
X0413376Y0154830D01*
X0413489Y0154400D01*
X0413592Y0153968D01*
X0413684Y0153533D01*
X0413765Y0153096D01*
X0413836Y0152657D01*
X0413896Y0152217D01*
X0413945Y0151775D01*
X0413983Y0151332D01*
X0414010Y0150889D01*
X0414027Y0150444D01*
X0414032Y0150000D01*
X0414027Y0149556D01*
X0414010Y0149111D01*
X0413983Y0148668D01*
X0413945Y0148225D01*
X0413896Y0147783D01*
X0413836Y0147343D01*
X0413765Y0146904D01*
X0413684Y0146467D01*
X0413592Y0146032D01*
X0413489Y0145600D01*
X0413376Y0145170D01*
X0413252Y0144743D01*
X0413118Y0144319D01*
X0412973Y0143899D01*
X0412818Y0143482D01*
X0412653Y0143070D01*
X0412478Y0142661D01*
X0412293Y0142257D01*
X0412098Y0141858D01*
X0411894Y0141463D01*
X0411679Y0141074D01*
X0411455Y0140690D01*
X0411222Y0140311D01*
X0410980Y0139939D01*
X0410728Y0139572D01*
X0410468Y0139212D01*
X0410199Y0138858D01*
X0409921Y0138511D01*
X0409635Y0138171D01*
X0409341Y0137838D01*
X0409038Y0137512D01*
X0408728Y0137194D01*
X0408410Y0136884D01*
X0408084Y0136581D01*
X0407751Y0136287D01*
X0407411Y0136001D01*
X0407064Y0135723D01*
X0406710Y0135454D01*
X0406350Y0135194D01*
X0405983Y0134942D01*
X0405611Y0134700D01*
X0405232Y0134467D01*
X0404848Y0134243D01*
X0404459Y0134028D01*
X0404064Y0133824D01*
X0403665Y0133629D01*
X0403261Y0133444D01*
X0402852Y0133269D01*
X0402440Y0133104D01*
X0402023Y0132949D01*
X0401603Y0132804D01*
X0401179Y0132670D01*
X0400752Y0132546D01*
X0400322Y0132433D01*
X0399890Y0132330D01*
X0399455Y0132238D01*
X0399018Y0132157D01*
X0398579Y0132086D01*
X0398139Y0132026D01*
X0397697Y0131977D01*
X0397254Y0131939D01*
X0396811Y0131912D01*
X0396366Y0131895D01*
X0395922Y0131890D01*
X0395478Y0131895D01*
X0395033Y0131912D01*
X0394590Y0131939D01*
X0394147Y0131977D01*
X0393705Y0132026D01*
X0393265Y0132086D01*
X0392826Y0132157D01*
X0392389Y0132238D01*
X0391954Y0132330D01*
X0391522Y0132433D01*
X0391092Y0132546D01*
X0390665Y0132670D01*
X0390241Y0132804D01*
X0389821Y0132949D01*
X0389404Y0133104D01*
X0388992Y0133269D01*
X0388583Y0133444D01*
X0388179Y0133629D01*
X0387780Y0133824D01*
X0387385Y0134028D01*
X0386996Y0134243D01*
X0386612Y0134467D01*
X0386233Y0134700D01*
X0385861Y0134942D01*
X0385494Y0135194D01*
X0385134Y0135454D01*
X0384780Y0135723D01*
X0384433Y0136001D01*
X0384093Y0136287D01*
X0383760Y0136581D01*
X0383434Y0136884D01*
X0383116Y0137194D01*
X0382806Y0137512D01*
X0382503Y0137838D01*
X0382209Y0138171D01*
X0381923Y0138511D01*
X0381645Y0138858D01*
X0381376Y0139212D01*
X0381116Y0139572D01*
X0380864Y0139939D01*
X0380622Y0140311D01*
X0380389Y0140690D01*
X0380165Y0141074D01*
X0379950Y0141463D01*
X0379746Y0141858D01*
X0379551Y0142257D01*
X0379366Y0142661D01*
X0379191Y0143070D01*
X0379026Y0143482D01*
X0378871Y0143899D01*
X0378726Y0144319D01*
X0378592Y0144743D01*
X0378468Y0145170D01*
X0378355Y0145600D01*
X0378252Y0146032D01*
X0378160Y0146467D01*
X0378079Y0146904D01*
X0378008Y0147343D01*
X0377948Y0147783D01*
X0377899Y0148225D01*
X0377861Y0148668D01*
X0377834Y0149111D01*
X0377817Y0149556D01*
X0377812Y0150000D01*
D12*
X0153390Y0194000D03*
X0149453Y0194000D03*
X0149453Y0199000D03*
X0153390Y0199000D03*
X0147390Y0119500D03*
X0143453Y0119500D03*
X0139390Y0104000D03*
X0135453Y0104000D03*
X0126890Y0104000D03*
X0122953Y0104000D03*
D13*
X0127432Y0109381D03*
X0131172Y0109381D03*
X0134912Y0109381D03*
X0134912Y0119619D03*
X0127432Y0119619D03*
D14*
X0107422Y0163978D03*
X0107422Y0167522D03*
D15*
X0140422Y0193744D03*
X0140422Y0199256D03*
D16*
X0093422Y0167142D03*
X0095981Y0159858D03*
X0090863Y0159858D03*
D17*
X0236422Y0160000D03*
X0241422Y0160000D03*
X0241422Y0155000D03*
X0241422Y0150000D03*
X0236422Y0150000D03*
X0236422Y0155000D03*
X0236422Y0165000D03*
X0241422Y0165000D03*
X0241422Y0170000D03*
X0236422Y0170000D03*
D18*
X0133022Y0058950D03*
D19*
X0152707Y0058950D03*
D20*
X0155745Y0117013D03*
X0158304Y0117013D03*
X0160863Y0117013D03*
X0163422Y0117013D03*
X0165981Y0117013D03*
X0168540Y0117013D03*
X0171099Y0117013D03*
X0171099Y0139987D03*
X0168540Y0139987D03*
X0165981Y0139987D03*
X0163422Y0139987D03*
X0160863Y0139987D03*
X0158304Y0139987D03*
X0155745Y0139987D03*
D21*
X0174422Y0051000D03*
D22*
X0184422Y0051000D03*
X0194422Y0051000D03*
X0204422Y0051000D03*
D23*
X0145922Y0051000D03*
X0140922Y0051000D03*
D24*
X0143422Y0053000D03*
X0143422Y0049000D03*
D25*
X0237556Y0111417D02*
X0240312Y0111417D01*
X0241296Y0112402D02*
X0241294Y0112464D01*
X0241288Y0112525D01*
X0241279Y0112586D01*
X0241265Y0112647D01*
X0241248Y0112706D01*
X0241227Y0112764D01*
X0241202Y0112821D01*
X0241174Y0112876D01*
X0241143Y0112929D01*
X0241108Y0112980D01*
X0241070Y0113029D01*
X0241029Y0113076D01*
X0240986Y0113119D01*
X0240939Y0113160D01*
X0240890Y0113198D01*
X0240839Y0113233D01*
X0240786Y0113264D01*
X0240731Y0113292D01*
X0240674Y0113317D01*
X0240616Y0113338D01*
X0240557Y0113355D01*
X0240496Y0113369D01*
X0240435Y0113378D01*
X0240374Y0113384D01*
X0240312Y0113386D01*
X0237556Y0113386D01*
X0236572Y0112402D02*
X0236574Y0112340D01*
X0236580Y0112279D01*
X0236589Y0112218D01*
X0236603Y0112157D01*
X0236620Y0112098D01*
X0236641Y0112040D01*
X0236666Y0111983D01*
X0236694Y0111928D01*
X0236725Y0111875D01*
X0236760Y0111824D01*
X0236798Y0111775D01*
X0236839Y0111728D01*
X0236882Y0111685D01*
X0236929Y0111644D01*
X0236978Y0111606D01*
X0237029Y0111571D01*
X0237082Y0111540D01*
X0237137Y0111512D01*
X0237194Y0111487D01*
X0237252Y0111466D01*
X0237311Y0111449D01*
X0237372Y0111435D01*
X0237433Y0111426D01*
X0237494Y0111420D01*
X0237556Y0111418D01*
X0236572Y0112402D02*
X0236574Y0112464D01*
X0236580Y0112525D01*
X0236589Y0112586D01*
X0236603Y0112647D01*
X0236620Y0112706D01*
X0236641Y0112764D01*
X0236666Y0112821D01*
X0236694Y0112876D01*
X0236725Y0112929D01*
X0236760Y0112980D01*
X0236798Y0113029D01*
X0236839Y0113076D01*
X0236882Y0113119D01*
X0236929Y0113160D01*
X0236978Y0113198D01*
X0237029Y0113233D01*
X0237082Y0113264D01*
X0237137Y0113292D01*
X0237194Y0113317D01*
X0237252Y0113338D01*
X0237311Y0113355D01*
X0237372Y0113369D01*
X0237433Y0113378D01*
X0237494Y0113384D01*
X0237556Y0113386D01*
X0240312Y0111418D02*
X0240374Y0111420D01*
X0240435Y0111426D01*
X0240496Y0111435D01*
X0240557Y0111449D01*
X0240616Y0111466D01*
X0240674Y0111487D01*
X0240731Y0111512D01*
X0240786Y0111540D01*
X0240839Y0111571D01*
X0240890Y0111606D01*
X0240939Y0111644D01*
X0240986Y0111685D01*
X0241029Y0111728D01*
X0241070Y0111775D01*
X0241108Y0111824D01*
X0241143Y0111875D01*
X0241174Y0111928D01*
X0241202Y0111983D01*
X0241227Y0112040D01*
X0241248Y0112098D01*
X0241265Y0112157D01*
X0241279Y0112218D01*
X0241288Y0112279D01*
X0241294Y0112340D01*
X0241296Y0112402D01*
X0240312Y0137402D02*
X0237556Y0137402D01*
X0237494Y0137404D01*
X0237433Y0137410D01*
X0237372Y0137419D01*
X0237311Y0137433D01*
X0237252Y0137450D01*
X0237194Y0137471D01*
X0237137Y0137496D01*
X0237082Y0137524D01*
X0237029Y0137555D01*
X0236978Y0137590D01*
X0236929Y0137628D01*
X0236882Y0137669D01*
X0236839Y0137712D01*
X0236798Y0137759D01*
X0236760Y0137808D01*
X0236725Y0137859D01*
X0236694Y0137912D01*
X0236666Y0137967D01*
X0236641Y0138024D01*
X0236620Y0138082D01*
X0236603Y0138141D01*
X0236589Y0138202D01*
X0236580Y0138263D01*
X0236574Y0138324D01*
X0236572Y0138386D01*
X0236574Y0138448D01*
X0236580Y0138509D01*
X0236589Y0138570D01*
X0236603Y0138631D01*
X0236620Y0138690D01*
X0236641Y0138748D01*
X0236666Y0138805D01*
X0236694Y0138860D01*
X0236725Y0138913D01*
X0236760Y0138964D01*
X0236798Y0139013D01*
X0236839Y0139060D01*
X0236882Y0139103D01*
X0236929Y0139144D01*
X0236978Y0139182D01*
X0237029Y0139217D01*
X0237082Y0139248D01*
X0237137Y0139276D01*
X0237194Y0139301D01*
X0237252Y0139322D01*
X0237311Y0139339D01*
X0237372Y0139353D01*
X0237433Y0139362D01*
X0237494Y0139368D01*
X0237556Y0139370D01*
X0240312Y0139370D01*
X0240374Y0139368D01*
X0240435Y0139362D01*
X0240496Y0139353D01*
X0240557Y0139339D01*
X0240616Y0139322D01*
X0240674Y0139301D01*
X0240731Y0139276D01*
X0240786Y0139248D01*
X0240839Y0139217D01*
X0240890Y0139182D01*
X0240939Y0139144D01*
X0240986Y0139103D01*
X0241029Y0139060D01*
X0241070Y0139013D01*
X0241108Y0138964D01*
X0241143Y0138913D01*
X0241174Y0138860D01*
X0241202Y0138805D01*
X0241227Y0138748D01*
X0241248Y0138690D01*
X0241265Y0138631D01*
X0241279Y0138570D01*
X0241288Y0138509D01*
X0241294Y0138448D01*
X0241296Y0138386D01*
X0241294Y0138324D01*
X0241288Y0138263D01*
X0241279Y0138202D01*
X0241265Y0138141D01*
X0241248Y0138082D01*
X0241227Y0138024D01*
X0241202Y0137967D01*
X0241174Y0137912D01*
X0241143Y0137859D01*
X0241108Y0137808D01*
X0241070Y0137759D01*
X0241029Y0137712D01*
X0240986Y0137669D01*
X0240939Y0137628D01*
X0240890Y0137590D01*
X0240839Y0137555D01*
X0240786Y0137524D01*
X0240731Y0137496D01*
X0240674Y0137471D01*
X0240616Y0137450D01*
X0240557Y0137433D01*
X0240496Y0137419D01*
X0240435Y0137410D01*
X0240374Y0137404D01*
X0240312Y0137402D01*
D26*
X0237556Y0138386D02*
X0237556Y0138386D01*
X0240312Y0138386D01*
X0240312Y0138386D01*
X0237556Y0138386D01*
X0237556Y0112402D02*
X0237556Y0112402D01*
X0240312Y0112402D01*
X0240312Y0112402D01*
X0237556Y0112402D01*
D27*
X0095193Y0155500D03*
X0091650Y0155500D03*
D28*
X0156410Y0107500D03*
X0167434Y0107500D03*
D29*
X0148422Y0127000D03*
X0138422Y0127000D03*
X0128422Y0127000D03*
X0118422Y0127000D03*
X0118422Y0137000D03*
X0128422Y0137000D03*
X0138422Y0137000D03*
X0148422Y0137000D03*
X0148422Y0147000D03*
X0158422Y0147000D03*
X0168422Y0147000D03*
X0178422Y0147000D03*
X0188422Y0147000D03*
X0198422Y0147000D03*
X0208422Y0147000D03*
X0138422Y0147000D03*
X0128422Y0147000D03*
X0118422Y0147000D03*
X0118422Y0207000D03*
X0128422Y0207000D03*
X0138422Y0207000D03*
X0148422Y0207000D03*
X0158422Y0207000D03*
X0168422Y0207000D03*
X0178422Y0207000D03*
X0188422Y0207000D03*
X0198422Y0207000D03*
X0208422Y0207000D03*
D30*
X0140597Y0050791D02*
X0093111Y0050791D01*
X0093909Y0049993D02*
X0136626Y0049993D01*
X0136630Y0049970D02*
X0136844Y0049311D01*
X0137159Y0048694D01*
X0137566Y0048134D01*
X0138055Y0047644D01*
X0138391Y0047400D01*
X0096502Y0047400D01*
X0082322Y0061580D01*
X0082322Y0195420D01*
X0096502Y0209600D01*
X0114866Y0209600D01*
X0114732Y0209466D01*
X0114069Y0207866D01*
X0114069Y0206134D01*
X0114732Y0204534D01*
X0115956Y0203310D01*
X0117556Y0202647D01*
X0119288Y0202647D01*
X0120887Y0203310D01*
X0122112Y0204534D01*
X0122774Y0206134D01*
X0122774Y0207866D01*
X0122112Y0209466D01*
X0121977Y0209600D01*
X0124866Y0209600D01*
X0124732Y0209466D01*
X0124069Y0207866D01*
X0124069Y0206134D01*
X0124732Y0204534D01*
X0125956Y0203310D01*
X0126522Y0203076D01*
X0126522Y0200213D01*
X0126635Y0200100D01*
X0125905Y0200100D01*
X0124949Y0199704D01*
X0124218Y0198973D01*
X0123822Y0198017D01*
X0123822Y0196983D01*
X0124218Y0196027D01*
X0124522Y0195723D01*
X0124522Y0188287D01*
X0119335Y0183100D01*
X0118905Y0183100D01*
X0117949Y0182704D01*
X0117218Y0181973D01*
X0116822Y0181017D01*
X0116822Y0179983D01*
X0117218Y0179027D01*
X0117949Y0178296D01*
X0118905Y0177900D01*
X0119939Y0177900D01*
X0120895Y0178296D01*
X0121626Y0179027D01*
X0122022Y0179983D01*
X0122022Y0180413D01*
X0127522Y0185913D01*
X0127522Y0169213D01*
X0128635Y0168100D01*
X0130740Y0165995D01*
X0130718Y0165973D01*
X0130322Y0165017D01*
X0130322Y0163983D01*
X0130718Y0163027D01*
X0131449Y0162296D01*
X0132405Y0161900D01*
X0133439Y0161900D01*
X0133773Y0162038D01*
X0133022Y0161287D01*
X0133022Y0149713D01*
X0134135Y0148600D01*
X0134303Y0148431D01*
X0134069Y0147866D01*
X0134069Y0146134D01*
X0134732Y0144534D01*
X0135366Y0143900D01*
X0134699Y0143900D01*
X0134395Y0144204D01*
X0133439Y0144600D01*
X0132405Y0144600D01*
X0131909Y0144395D01*
X0132145Y0144719D01*
X0132456Y0145329D01*
X0132667Y0145981D01*
X0132765Y0146600D01*
X0128822Y0146600D01*
X0128822Y0147400D01*
X0132765Y0147400D01*
X0132667Y0148019D01*
X0132456Y0148671D01*
X0132145Y0149281D01*
X0131742Y0149836D01*
X0131257Y0150320D01*
X0130703Y0150723D01*
X0130093Y0151034D01*
X0129441Y0151246D01*
X0128822Y0151344D01*
X0128822Y0147400D01*
X0128022Y0147400D01*
X0128022Y0151344D01*
X0127402Y0151246D01*
X0126751Y0151034D01*
X0126140Y0150723D01*
X0125586Y0150320D01*
X0125102Y0149836D01*
X0124699Y0149281D01*
X0124388Y0148671D01*
X0124176Y0148019D01*
X0124078Y0147400D01*
X0128022Y0147400D01*
X0128022Y0146600D01*
X0128822Y0146600D01*
X0128822Y0142656D01*
X0129441Y0142754D01*
X0130093Y0142966D01*
X0130619Y0143234D01*
X0130322Y0142517D01*
X0130322Y0141483D01*
X0130619Y0140766D01*
X0130093Y0141034D01*
X0129441Y0141246D01*
X0128822Y0141344D01*
X0128822Y0137400D01*
X0132765Y0137400D01*
X0132667Y0138019D01*
X0132456Y0138671D01*
X0132145Y0139281D01*
X0131909Y0139605D01*
X0132405Y0139400D01*
X0133439Y0139400D01*
X0134395Y0139796D01*
X0134699Y0140100D01*
X0135366Y0140100D01*
X0134732Y0139466D01*
X0134069Y0137866D01*
X0134069Y0136134D01*
X0134732Y0134534D01*
X0135866Y0133400D01*
X0130872Y0133400D01*
X0131257Y0133680D01*
X0131742Y0134164D01*
X0132145Y0134719D01*
X0132456Y0135329D01*
X0132667Y0135981D01*
X0132765Y0136600D01*
X0128822Y0136600D01*
X0128822Y0137400D01*
X0128022Y0137400D01*
X0128022Y0141344D01*
X0127402Y0141246D01*
X0126751Y0141034D01*
X0126140Y0140723D01*
X0125586Y0140320D01*
X0125102Y0139836D01*
X0124699Y0139281D01*
X0124388Y0138671D01*
X0124176Y0138019D01*
X0124078Y0137400D01*
X0128022Y0137400D01*
X0128022Y0136600D01*
X0124078Y0136600D01*
X0124176Y0135981D01*
X0124388Y0135329D01*
X0124699Y0134719D01*
X0125102Y0134164D01*
X0125586Y0133680D01*
X0125971Y0133400D01*
X0120977Y0133400D01*
X0122112Y0134534D01*
X0122774Y0136134D01*
X0122774Y0137866D01*
X0122112Y0139466D01*
X0120887Y0140690D01*
X0119288Y0141353D01*
X0117556Y0141353D01*
X0115956Y0140690D01*
X0114732Y0139466D01*
X0114069Y0137866D01*
X0114069Y0136134D01*
X0114732Y0134534D01*
X0115866Y0133400D01*
X0114209Y0133400D01*
X0107022Y0140587D01*
X0107022Y0141017D01*
X0106626Y0141973D01*
X0106322Y0142277D01*
X0106322Y0158423D01*
X0106949Y0157796D01*
X0107905Y0157400D01*
X0108939Y0157400D01*
X0109895Y0157796D01*
X0110626Y0158527D01*
X0111022Y0159483D01*
X0111022Y0160517D01*
X0110626Y0161473D01*
X0109895Y0162204D01*
X0109683Y0162292D01*
X0110003Y0162611D01*
X0110003Y0165346D01*
X0109598Y0165750D01*
X0110003Y0166154D01*
X0110003Y0168889D01*
X0109183Y0169709D01*
X0106900Y0169709D01*
X0105709Y0170900D01*
X0094493Y0170900D01*
X0093513Y0169920D01*
X0091464Y0169920D01*
X0090644Y0169100D01*
X0090644Y0165184D01*
X0091464Y0164364D01*
X0095380Y0164364D01*
X0096200Y0165184D01*
X0096200Y0167100D01*
X0101345Y0167100D01*
X0101218Y0166973D01*
X0100822Y0166017D01*
X0100822Y0164983D01*
X0101218Y0164027D01*
X0101949Y0163296D01*
X0102522Y0163059D01*
X0102522Y0142277D01*
X0102218Y0141973D01*
X0101822Y0141017D01*
X0101822Y0139983D01*
X0102218Y0139027D01*
X0102949Y0138296D01*
X0103905Y0137900D01*
X0104335Y0137900D01*
X0111522Y0130713D01*
X0112635Y0129600D01*
X0114866Y0129600D01*
X0114732Y0129466D01*
X0114069Y0127866D01*
X0114069Y0126134D01*
X0114732Y0124534D01*
X0115956Y0123310D01*
X0117556Y0122647D01*
X0119288Y0122647D01*
X0120887Y0123310D01*
X0122112Y0124534D01*
X0122774Y0126134D01*
X0122774Y0127866D01*
X0122112Y0129466D01*
X0121977Y0129600D01*
X0124930Y0129600D01*
X0124699Y0129281D01*
X0124388Y0128671D01*
X0124176Y0128019D01*
X0124078Y0127400D01*
X0128022Y0127400D01*
X0128022Y0126600D01*
X0124078Y0126600D01*
X0124176Y0125981D01*
X0124388Y0125329D01*
X0124699Y0124719D01*
X0125102Y0124164D01*
X0125586Y0123680D01*
X0125998Y0123381D01*
X0125769Y0123381D01*
X0124949Y0122561D01*
X0124949Y0116700D01*
X0123899Y0116700D01*
X0123895Y0116704D01*
X0122939Y0117100D01*
X0121905Y0117100D01*
X0120949Y0116704D01*
X0120218Y0115973D01*
X0119822Y0115017D01*
X0119822Y0113983D01*
X0120218Y0113027D01*
X0120949Y0112296D01*
X0121905Y0111900D01*
X0122939Y0111900D01*
X0123895Y0112296D01*
X0123899Y0112300D01*
X0124949Y0112300D01*
X0124949Y0111281D01*
X0118516Y0111281D01*
X0112384Y0105149D01*
X0111522Y0106011D01*
X0111522Y0106017D01*
X0111126Y0106973D01*
X0110395Y0107704D01*
X0109439Y0108100D01*
X0108405Y0108100D01*
X0107449Y0107704D01*
X0106718Y0106973D01*
X0106322Y0106017D01*
X0106322Y0104983D01*
X0106718Y0104027D01*
X0107449Y0103296D01*
X0108405Y0102900D01*
X0108410Y0102900D01*
X0109972Y0101339D01*
X0113222Y0098089D01*
X0114510Y0096800D01*
X0144833Y0096800D01*
X0146833Y0098800D01*
X0148122Y0100089D01*
X0148122Y0104911D01*
X0142522Y0110511D01*
X0142522Y0110517D01*
X0142126Y0111473D01*
X0141395Y0112204D01*
X0141163Y0112300D01*
X0150010Y0112300D01*
X0153041Y0109269D01*
X0153041Y0103377D01*
X0153862Y0102557D01*
X0158958Y0102557D01*
X0159778Y0103377D01*
X0159778Y0111623D01*
X0158958Y0112443D01*
X0156090Y0112443D01*
X0154870Y0113663D01*
X0156924Y0113663D01*
X0157072Y0113810D01*
X0157163Y0113758D01*
X0157519Y0113663D01*
X0158304Y0113663D01*
X0159088Y0113663D01*
X0159444Y0113758D01*
X0159535Y0113810D01*
X0159683Y0113663D01*
X0162043Y0113663D01*
X0162142Y0113762D01*
X0162242Y0113663D01*
X0164602Y0113663D01*
X0164701Y0113762D01*
X0164801Y0113663D01*
X0167161Y0113663D01*
X0167260Y0113762D01*
X0167360Y0113663D01*
X0169720Y0113663D01*
X0169819Y0113762D01*
X0169919Y0113663D01*
X0172279Y0113663D01*
X0173099Y0114483D01*
X0173099Y0119542D01*
X0172279Y0120363D01*
X0169919Y0120363D01*
X0169819Y0120263D01*
X0169720Y0120363D01*
X0168265Y0120363D01*
X0168522Y0120983D01*
X0168522Y0122017D01*
X0168126Y0122973D01*
X0167395Y0123704D01*
X0166439Y0124100D01*
X0165405Y0124100D01*
X0164449Y0123704D01*
X0164145Y0123400D01*
X0164135Y0123400D01*
X0163296Y0122562D01*
X0163126Y0122973D01*
X0162395Y0123704D01*
X0161439Y0124100D01*
X0160405Y0124100D01*
X0159449Y0123704D01*
X0158718Y0122973D01*
X0158322Y0122017D01*
X0158322Y0120983D01*
X0158579Y0120363D01*
X0158304Y0120363D01*
X0158304Y0117013D01*
X0158304Y0117013D01*
X0158304Y0120363D01*
X0157519Y0120363D01*
X0157163Y0120267D01*
X0157072Y0120215D01*
X0156924Y0120363D01*
X0154565Y0120363D01*
X0153745Y0119542D01*
X0153745Y0114788D01*
X0153122Y0115411D01*
X0151833Y0116700D01*
X0137395Y0116700D01*
X0137395Y0117419D01*
X0141586Y0117419D01*
X0141889Y0117116D01*
X0145017Y0117116D01*
X0145422Y0117520D01*
X0145546Y0117395D01*
X0145866Y0117211D01*
X0146222Y0117116D01*
X0147298Y0117116D01*
X0147298Y0119408D01*
X0147482Y0119408D01*
X0147482Y0117116D01*
X0148559Y0117116D01*
X0148915Y0117211D01*
X0149234Y0117395D01*
X0149495Y0117656D01*
X0149679Y0117975D01*
X0149774Y0118331D01*
X0149774Y0119408D01*
X0147482Y0119408D01*
X0147482Y0119592D01*
X0147298Y0119592D01*
X0147298Y0121884D01*
X0146417Y0121884D01*
X0147290Y0122757D01*
X0147556Y0122647D01*
X0149288Y0122647D01*
X0150887Y0123310D01*
X0152112Y0124534D01*
X0152774Y0126134D01*
X0152774Y0127100D01*
X0173709Y0127100D01*
X0175047Y0128438D01*
X0175218Y0128027D01*
X0175949Y0127296D01*
X0176905Y0126900D01*
X0177939Y0126900D01*
X0178895Y0127296D01*
X0179199Y0127600D01*
X0179910Y0127600D01*
X0176510Y0124200D01*
X0175222Y0122911D01*
X0175222Y0114911D01*
X0170802Y0110492D01*
X0170802Y0111623D01*
X0169982Y0112443D01*
X0164885Y0112443D01*
X0164065Y0111623D01*
X0164065Y0103377D01*
X0164885Y0102557D01*
X0167241Y0102557D01*
X0141640Y0076264D01*
X0141122Y0075746D01*
X0141122Y0075732D01*
X0141112Y0075722D01*
X0141122Y0074988D01*
X0141122Y0072000D01*
X0136164Y0072000D01*
X0123422Y0084743D01*
X0123422Y0088597D01*
X0122965Y0089699D01*
X0122121Y0090543D01*
X0121018Y0091000D01*
X0119825Y0091000D01*
X0118722Y0090543D01*
X0117878Y0089699D01*
X0117422Y0088597D01*
X0117422Y0082903D01*
X0117878Y0081801D01*
X0132378Y0067301D01*
X0133222Y0066457D01*
X0134325Y0066000D01*
X0141122Y0066000D01*
X0141122Y0054180D01*
X0141022Y0054080D01*
X0141022Y0051920D01*
X0141122Y0051820D01*
X0141122Y0051325D01*
X0140597Y0051325D01*
X0140597Y0055400D01*
X0140575Y0055400D01*
X0139891Y0055292D01*
X0139233Y0055078D01*
X0138616Y0054763D01*
X0138422Y0054622D01*
X0138422Y0063530D01*
X0137602Y0064350D01*
X0128442Y0064350D01*
X0127622Y0063530D01*
X0127622Y0054370D01*
X0128442Y0053550D01*
X0137336Y0053550D01*
X0137159Y0053306D01*
X0136844Y0052689D01*
X0136630Y0052030D01*
X0136522Y0051346D01*
X0136522Y0051325D01*
X0140597Y0051325D01*
X0140597Y0050675D01*
X0136522Y0050675D01*
X0136522Y0050654D01*
X0136630Y0049970D01*
X0136904Y0049194D02*
X0094708Y0049194D01*
X0095506Y0048396D02*
X0137375Y0048396D01*
X0138120Y0047597D02*
X0096305Y0047597D01*
X0092312Y0051590D02*
X0136560Y0051590D01*
X0136746Y0052388D02*
X0091514Y0052388D01*
X0090715Y0053187D02*
X0137098Y0053187D01*
X0138422Y0054784D02*
X0138656Y0054784D01*
X0138422Y0055582D02*
X0141122Y0055582D01*
X0141122Y0054784D02*
X0140597Y0054784D01*
X0140597Y0053985D02*
X0141022Y0053985D01*
X0141022Y0053187D02*
X0140597Y0053187D01*
X0140597Y0052388D02*
X0141022Y0052388D01*
X0141122Y0051590D02*
X0140597Y0051590D01*
X0142922Y0054934D02*
X0142922Y0075000D01*
X0169753Y0102557D01*
X0169982Y0102557D01*
X0170802Y0103377D01*
X0170802Y0103634D01*
X0179922Y0113000D01*
X0179922Y0121389D01*
X0182033Y0123500D01*
X0215310Y0123500D01*
X0217422Y0121389D01*
X0217422Y0070639D01*
X0216746Y0069008D01*
X0216746Y0065945D01*
X0217422Y0064314D01*
X0217422Y0047400D01*
X0208034Y0047400D01*
X0208745Y0048111D01*
X0209522Y0049986D01*
X0209522Y0052014D01*
X0208745Y0053889D01*
X0207311Y0055324D01*
X0205436Y0056100D01*
X0203407Y0056100D01*
X0201533Y0055324D01*
X0200098Y0053889D01*
X0199422Y0052256D01*
X0198745Y0053889D01*
X0197311Y0055324D01*
X0195436Y0056100D01*
X0193407Y0056100D01*
X0191533Y0055324D01*
X0190098Y0053889D01*
X0189422Y0052256D01*
X0188745Y0053889D01*
X0187311Y0055324D01*
X0185436Y0056100D01*
X0183407Y0056100D01*
X0181533Y0055324D01*
X0180098Y0053889D01*
X0179522Y0052497D01*
X0179522Y0055280D01*
X0178702Y0056100D01*
X0170142Y0056100D01*
X0169322Y0055280D01*
X0169322Y0047400D01*
X0148452Y0047400D01*
X0148788Y0047644D01*
X0149278Y0048134D01*
X0149685Y0048694D01*
X0149999Y0049311D01*
X0150213Y0049970D01*
X0150322Y0050654D01*
X0150322Y0050675D01*
X0146247Y0050675D01*
X0146247Y0051325D01*
X0150322Y0051325D01*
X0150322Y0051346D01*
X0150213Y0052030D01*
X0149999Y0052689D01*
X0149685Y0053306D01*
X0149278Y0053866D01*
X0148788Y0054356D01*
X0148228Y0054763D01*
X0147611Y0055078D01*
X0146952Y0055292D01*
X0146268Y0055400D01*
X0146247Y0055400D01*
X0146247Y0051325D01*
X0145597Y0051325D01*
X0145597Y0051695D01*
X0145822Y0051920D01*
X0145822Y0054080D01*
X0145597Y0054305D01*
X0145597Y0055400D01*
X0145575Y0055400D01*
X0144891Y0055292D01*
X0144233Y0055078D01*
X0143884Y0054900D01*
X0143004Y0054900D01*
X0142922Y0054934D01*
X0142922Y0055582D02*
X0148479Y0055582D01*
X0148588Y0055432D02*
X0149189Y0054831D01*
X0149877Y0054332D01*
X0150634Y0053946D01*
X0151442Y0053683D01*
X0152282Y0053550D01*
X0152307Y0053550D01*
X0152307Y0058550D01*
X0153107Y0058550D01*
X0153107Y0059350D01*
X0158107Y0059350D01*
X0158107Y0059375D01*
X0157974Y0060215D01*
X0157711Y0061023D01*
X0157325Y0061780D01*
X0156826Y0062468D01*
X0156225Y0063069D01*
X0155537Y0063568D01*
X0154780Y0063954D01*
X0153971Y0064217D01*
X0153132Y0064350D01*
X0153107Y0064350D01*
X0153107Y0059350D01*
X0152307Y0059350D01*
X0152307Y0064350D01*
X0152282Y0064350D01*
X0151442Y0064217D01*
X0150634Y0063954D01*
X0149877Y0063568D01*
X0149189Y0063069D01*
X0148588Y0062468D01*
X0148088Y0061780D01*
X0147702Y0061023D01*
X0147440Y0060215D01*
X0147307Y0059375D01*
X0147307Y0059350D01*
X0152307Y0059350D01*
X0152307Y0058550D01*
X0147307Y0058550D01*
X0147307Y0058525D01*
X0147440Y0057685D01*
X0147702Y0056877D01*
X0148088Y0056120D01*
X0148588Y0055432D01*
X0148188Y0054784D02*
X0149254Y0054784D01*
X0149159Y0053985D02*
X0150556Y0053985D01*
X0149746Y0053187D02*
X0169322Y0053187D01*
X0169322Y0053985D02*
X0154857Y0053985D01*
X0154780Y0053946D02*
X0155537Y0054332D01*
X0156225Y0054831D01*
X0156826Y0055432D01*
X0157325Y0056120D01*
X0157711Y0056877D01*
X0157974Y0057685D01*
X0158107Y0058525D01*
X0158107Y0058550D01*
X0153107Y0058550D01*
X0153107Y0053550D01*
X0153132Y0053550D01*
X0153971Y0053683D01*
X0154780Y0053946D01*
X0156159Y0054784D02*
X0169322Y0054784D01*
X0169624Y0055582D02*
X0156935Y0055582D01*
X0157458Y0056381D02*
X0217422Y0056381D01*
X0217422Y0057179D02*
X0157809Y0057179D01*
X0158020Y0057978D02*
X0217422Y0057978D01*
X0217422Y0058776D02*
X0153107Y0058776D01*
X0153107Y0057978D02*
X0152307Y0057978D01*
X0152307Y0058776D02*
X0142922Y0058776D01*
X0142922Y0057978D02*
X0147393Y0057978D01*
X0147604Y0057179D02*
X0142922Y0057179D01*
X0142922Y0056381D02*
X0147955Y0056381D01*
X0146247Y0054784D02*
X0145597Y0054784D01*
X0145822Y0053985D02*
X0146247Y0053985D01*
X0146247Y0053187D02*
X0145822Y0053187D01*
X0145822Y0052388D02*
X0146247Y0052388D01*
X0146247Y0051590D02*
X0145597Y0051590D01*
X0146247Y0050791D02*
X0169322Y0050791D01*
X0169322Y0049993D02*
X0150217Y0049993D01*
X0149940Y0049194D02*
X0169322Y0049194D01*
X0169322Y0048396D02*
X0149468Y0048396D01*
X0148724Y0047597D02*
X0169322Y0047597D01*
X0169322Y0051590D02*
X0150283Y0051590D01*
X0150097Y0052388D02*
X0169322Y0052388D01*
X0179522Y0053187D02*
X0179807Y0053187D01*
X0179522Y0053985D02*
X0180194Y0053985D01*
X0179522Y0054784D02*
X0180993Y0054784D01*
X0182157Y0055582D02*
X0179219Y0055582D01*
X0186686Y0055582D02*
X0192157Y0055582D01*
X0190993Y0054784D02*
X0187851Y0054784D01*
X0188649Y0053985D02*
X0190194Y0053985D01*
X0189807Y0053187D02*
X0189036Y0053187D01*
X0189367Y0052388D02*
X0189477Y0052388D01*
X0196686Y0055582D02*
X0202157Y0055582D01*
X0200993Y0054784D02*
X0197851Y0054784D01*
X0198649Y0053985D02*
X0200194Y0053985D01*
X0199807Y0053187D02*
X0199036Y0053187D01*
X0199367Y0052388D02*
X0199477Y0052388D01*
X0206686Y0055582D02*
X0217422Y0055582D01*
X0217422Y0054784D02*
X0207851Y0054784D01*
X0208649Y0053985D02*
X0217422Y0053985D01*
X0217422Y0053187D02*
X0209036Y0053187D01*
X0209367Y0052388D02*
X0217422Y0052388D01*
X0217422Y0051590D02*
X0209522Y0051590D01*
X0209522Y0050791D02*
X0217422Y0050791D01*
X0217422Y0049993D02*
X0209522Y0049993D01*
X0209194Y0049194D02*
X0217422Y0049194D01*
X0217422Y0048396D02*
X0208863Y0048396D01*
X0208231Y0047597D02*
X0217422Y0047597D01*
X0217422Y0059575D02*
X0158075Y0059575D01*
X0157922Y0060373D02*
X0217422Y0060373D01*
X0217422Y0061172D02*
X0157635Y0061172D01*
X0157187Y0061970D02*
X0217422Y0061970D01*
X0217422Y0062769D02*
X0156525Y0062769D01*
X0155539Y0063567D02*
X0217422Y0063567D01*
X0217400Y0064366D02*
X0142922Y0064366D01*
X0142922Y0065164D02*
X0217069Y0065164D01*
X0216746Y0065963D02*
X0142922Y0065963D01*
X0142922Y0066761D02*
X0216746Y0066761D01*
X0216746Y0067560D02*
X0142922Y0067560D01*
X0142922Y0068358D02*
X0216746Y0068358D01*
X0216808Y0069157D02*
X0142922Y0069157D01*
X0142922Y0069955D02*
X0217139Y0069955D01*
X0217422Y0070754D02*
X0142922Y0070754D01*
X0142922Y0071552D02*
X0217422Y0071552D01*
X0217422Y0072351D02*
X0142922Y0072351D01*
X0142922Y0073149D02*
X0217422Y0073149D01*
X0217422Y0073948D02*
X0142922Y0073948D01*
X0142922Y0074746D02*
X0217422Y0074746D01*
X0217422Y0075545D02*
X0143452Y0075545D01*
X0144230Y0076343D02*
X0217422Y0076343D01*
X0217422Y0077142D02*
X0145007Y0077142D01*
X0145785Y0077940D02*
X0217422Y0077940D01*
X0217422Y0078739D02*
X0146562Y0078739D01*
X0147340Y0079537D02*
X0217422Y0079537D01*
X0217422Y0080336D02*
X0148117Y0080336D01*
X0148895Y0081134D02*
X0217422Y0081134D01*
X0217422Y0081933D02*
X0149672Y0081933D01*
X0150450Y0082732D02*
X0182104Y0082732D01*
X0181949Y0082796D02*
X0182905Y0082400D01*
X0183939Y0082400D01*
X0184895Y0082796D01*
X0184899Y0082800D01*
X0212945Y0082800D01*
X0212949Y0082796D01*
X0213905Y0082400D01*
X0214939Y0082400D01*
X0215895Y0082796D01*
X0216626Y0083527D01*
X0217022Y0084483D01*
X0217022Y0085517D01*
X0216626Y0086473D01*
X0215895Y0087204D01*
X0214939Y0087600D01*
X0213905Y0087600D01*
X0212949Y0087204D01*
X0212945Y0087200D01*
X0184899Y0087200D01*
X0184895Y0087204D01*
X0183939Y0087600D01*
X0182905Y0087600D01*
X0181949Y0087204D01*
X0181218Y0086473D01*
X0180822Y0085517D01*
X0180822Y0084483D01*
X0181218Y0083527D01*
X0181949Y0082796D01*
X0181216Y0083530D02*
X0151227Y0083530D01*
X0152005Y0084329D02*
X0180886Y0084329D01*
X0180822Y0085127D02*
X0152782Y0085127D01*
X0153560Y0085926D02*
X0180991Y0085926D01*
X0181469Y0086724D02*
X0154337Y0086724D01*
X0155115Y0087523D02*
X0182718Y0087523D01*
X0184126Y0087523D02*
X0213718Y0087523D01*
X0215126Y0087523D02*
X0217422Y0087523D01*
X0217422Y0088321D02*
X0155892Y0088321D01*
X0156670Y0089120D02*
X0217422Y0089120D01*
X0217422Y0089918D02*
X0157447Y0089918D01*
X0158225Y0090717D02*
X0217422Y0090717D01*
X0217422Y0091515D02*
X0159002Y0091515D01*
X0159780Y0092314D02*
X0217422Y0092314D01*
X0217422Y0093112D02*
X0160557Y0093112D01*
X0161335Y0093911D02*
X0217422Y0093911D01*
X0217422Y0094709D02*
X0162112Y0094709D01*
X0162890Y0095508D02*
X0217422Y0095508D01*
X0217422Y0096306D02*
X0163667Y0096306D01*
X0164445Y0097105D02*
X0217422Y0097105D01*
X0217422Y0097903D02*
X0165222Y0097903D01*
X0166000Y0098702D02*
X0217422Y0098702D01*
X0217422Y0099500D02*
X0166777Y0099500D01*
X0167555Y0100299D02*
X0217422Y0100299D01*
X0217422Y0101097D02*
X0168332Y0101097D01*
X0169110Y0101896D02*
X0217422Y0101896D01*
X0217422Y0102694D02*
X0170120Y0102694D01*
X0170802Y0103493D02*
X0217422Y0103493D01*
X0217422Y0104291D02*
X0171442Y0104291D01*
X0172220Y0105090D02*
X0217422Y0105090D01*
X0217422Y0105888D02*
X0172997Y0105888D01*
X0173775Y0106687D02*
X0217422Y0106687D01*
X0217422Y0107485D02*
X0174552Y0107485D01*
X0175330Y0108284D02*
X0217422Y0108284D01*
X0217422Y0109082D02*
X0176107Y0109082D01*
X0176885Y0109881D02*
X0217422Y0109881D01*
X0217422Y0110679D02*
X0177662Y0110679D01*
X0178440Y0111478D02*
X0217422Y0111478D01*
X0217422Y0112276D02*
X0179217Y0112276D01*
X0179922Y0113075D02*
X0217422Y0113075D01*
X0217422Y0113873D02*
X0179922Y0113873D01*
X0179922Y0114672D02*
X0217422Y0114672D01*
X0217422Y0115470D02*
X0179922Y0115470D01*
X0179922Y0116269D02*
X0217422Y0116269D01*
X0217422Y0117068D02*
X0179922Y0117068D01*
X0179922Y0117866D02*
X0217422Y0117866D01*
X0217422Y0118665D02*
X0179922Y0118665D01*
X0179922Y0119463D02*
X0217422Y0119463D01*
X0217422Y0120262D02*
X0179922Y0120262D01*
X0179922Y0121060D02*
X0217422Y0121060D01*
X0216952Y0121859D02*
X0180392Y0121859D01*
X0181190Y0122657D02*
X0216153Y0122657D01*
X0215355Y0123456D02*
X0181989Y0123456D01*
X0178960Y0126650D02*
X0152774Y0126650D01*
X0152657Y0125851D02*
X0178162Y0125851D01*
X0177363Y0125053D02*
X0152326Y0125053D01*
X0151832Y0124254D02*
X0176565Y0124254D01*
X0175766Y0123456D02*
X0167643Y0123456D01*
X0168257Y0122657D02*
X0175222Y0122657D01*
X0175222Y0121859D02*
X0168522Y0121859D01*
X0168522Y0121060D02*
X0175222Y0121060D01*
X0175222Y0120262D02*
X0172380Y0120262D01*
X0173099Y0119463D02*
X0175222Y0119463D01*
X0175222Y0118665D02*
X0173099Y0118665D01*
X0173099Y0117866D02*
X0175222Y0117866D01*
X0175222Y0117068D02*
X0173099Y0117068D01*
X0173099Y0116269D02*
X0175222Y0116269D01*
X0175222Y0115470D02*
X0173099Y0115470D01*
X0173099Y0114672D02*
X0174982Y0114672D01*
X0174184Y0113873D02*
X0172490Y0113873D01*
X0173385Y0113075D02*
X0155458Y0113075D01*
X0158304Y0113663D02*
X0158304Y0117012D01*
X0158304Y0113663D01*
X0158304Y0113873D02*
X0158304Y0113873D01*
X0158304Y0114672D02*
X0158304Y0114672D01*
X0158304Y0115470D02*
X0158304Y0115470D01*
X0158304Y0116269D02*
X0158304Y0116269D01*
X0158304Y0117012D02*
X0158304Y0117012D01*
X0158304Y0117068D02*
X0158304Y0117068D01*
X0158304Y0117866D02*
X0158304Y0117866D01*
X0158304Y0118665D02*
X0158304Y0118665D01*
X0158304Y0119463D02*
X0158304Y0119463D01*
X0158304Y0120262D02*
X0158304Y0120262D01*
X0158322Y0121060D02*
X0149659Y0121060D01*
X0149679Y0121025D02*
X0149495Y0121344D01*
X0149234Y0121605D01*
X0148915Y0121789D01*
X0148559Y0121884D01*
X0147482Y0121884D01*
X0147482Y0119592D01*
X0149774Y0119592D01*
X0149774Y0120669D01*
X0149679Y0121025D01*
X0149774Y0120262D02*
X0154464Y0120262D01*
X0153745Y0119463D02*
X0147482Y0119463D01*
X0147482Y0118665D02*
X0147298Y0118665D01*
X0147298Y0117866D02*
X0147482Y0117866D01*
X0149616Y0117866D02*
X0153745Y0117866D01*
X0153745Y0117068D02*
X0137395Y0117068D01*
X0132429Y0117068D02*
X0129914Y0117068D01*
X0129914Y0116700D02*
X0129914Y0122561D01*
X0129652Y0122823D01*
X0130093Y0122966D01*
X0130703Y0123277D01*
X0131257Y0123680D01*
X0131742Y0124164D01*
X0132145Y0124719D01*
X0132456Y0125329D01*
X0132667Y0125981D01*
X0132765Y0126600D01*
X0128822Y0126600D01*
X0128822Y0127400D01*
X0132765Y0127400D01*
X0132667Y0128019D01*
X0132456Y0128671D01*
X0132145Y0129281D01*
X0131913Y0129600D01*
X0134866Y0129600D01*
X0134732Y0129466D01*
X0134069Y0127866D01*
X0134069Y0126134D01*
X0134732Y0124534D01*
X0135885Y0123381D01*
X0133249Y0123381D01*
X0132429Y0122561D01*
X0132429Y0116700D01*
X0129914Y0116700D01*
X0129914Y0117866D02*
X0132429Y0117866D01*
X0132429Y0118665D02*
X0129914Y0118665D01*
X0129914Y0119463D02*
X0132429Y0119463D01*
X0132429Y0120262D02*
X0129914Y0120262D01*
X0129914Y0121060D02*
X0132429Y0121060D01*
X0132429Y0121859D02*
X0129914Y0121859D01*
X0129818Y0122657D02*
X0132526Y0122657D01*
X0131807Y0124254D02*
X0135012Y0124254D01*
X0134517Y0125053D02*
X0132315Y0125053D01*
X0132625Y0125851D02*
X0134186Y0125851D01*
X0134069Y0126650D02*
X0128822Y0126650D01*
X0128022Y0126650D02*
X0122774Y0126650D01*
X0122774Y0127448D02*
X0124086Y0127448D01*
X0124250Y0128247D02*
X0122617Y0128247D01*
X0122286Y0129045D02*
X0124579Y0129045D01*
X0124218Y0125851D02*
X0122657Y0125851D01*
X0122326Y0125053D02*
X0124529Y0125053D01*
X0125036Y0124254D02*
X0121832Y0124254D01*
X0121033Y0123456D02*
X0125895Y0123456D01*
X0125045Y0122657D02*
X0119311Y0122657D01*
X0117532Y0122657D02*
X0082322Y0122657D01*
X0082322Y0121859D02*
X0124949Y0121859D01*
X0124949Y0121060D02*
X0082322Y0121060D01*
X0082322Y0120262D02*
X0124949Y0120262D01*
X0124949Y0119463D02*
X0082322Y0119463D01*
X0082322Y0118665D02*
X0124949Y0118665D01*
X0124949Y0117866D02*
X0082322Y0117866D01*
X0082322Y0117068D02*
X0121826Y0117068D01*
X0123017Y0117068D02*
X0124949Y0117068D01*
X0120514Y0116269D02*
X0082322Y0116269D01*
X0082322Y0115470D02*
X0120010Y0115470D01*
X0119822Y0114672D02*
X0082322Y0114672D01*
X0082322Y0113873D02*
X0119867Y0113873D01*
X0120198Y0113075D02*
X0082322Y0113075D01*
X0082322Y0112276D02*
X0120996Y0112276D01*
X0123848Y0112276D02*
X0124949Y0112276D01*
X0124949Y0111478D02*
X0082322Y0111478D01*
X0082322Y0110679D02*
X0117914Y0110679D01*
X0117116Y0109881D02*
X0082322Y0109881D01*
X0082322Y0109082D02*
X0116317Y0109082D01*
X0115519Y0108284D02*
X0082322Y0108284D01*
X0082322Y0107485D02*
X0107230Y0107485D01*
X0106599Y0106687D02*
X0082322Y0106687D01*
X0082322Y0105888D02*
X0106322Y0105888D01*
X0106322Y0105090D02*
X0082322Y0105090D01*
X0082322Y0104291D02*
X0106608Y0104291D01*
X0107252Y0103493D02*
X0082322Y0103493D01*
X0082322Y0102694D02*
X0108616Y0102694D01*
X0109415Y0101896D02*
X0082322Y0101896D01*
X0082322Y0101097D02*
X0110213Y0101097D01*
X0111012Y0100299D02*
X0082322Y0100299D01*
X0082322Y0099500D02*
X0111810Y0099500D01*
X0112609Y0098702D02*
X0082322Y0098702D01*
X0082322Y0097903D02*
X0113407Y0097903D01*
X0114206Y0097105D02*
X0082322Y0097105D01*
X0082322Y0096306D02*
X0161155Y0096306D01*
X0160377Y0095508D02*
X0082322Y0095508D01*
X0082322Y0094709D02*
X0159600Y0094709D01*
X0158822Y0093911D02*
X0082322Y0093911D01*
X0082322Y0093112D02*
X0158045Y0093112D01*
X0157267Y0092314D02*
X0082322Y0092314D01*
X0082322Y0091515D02*
X0156490Y0091515D01*
X0155712Y0090717D02*
X0121703Y0090717D01*
X0122746Y0089918D02*
X0154935Y0089918D01*
X0154157Y0089120D02*
X0123205Y0089120D01*
X0123422Y0088321D02*
X0153380Y0088321D01*
X0152602Y0087523D02*
X0123422Y0087523D01*
X0123422Y0086724D02*
X0151825Y0086724D01*
X0151048Y0085926D02*
X0123422Y0085926D01*
X0123422Y0085127D02*
X0150270Y0085127D01*
X0149493Y0084329D02*
X0123836Y0084329D01*
X0124634Y0083530D02*
X0148715Y0083530D01*
X0147938Y0082732D02*
X0125433Y0082732D01*
X0126231Y0081933D02*
X0147160Y0081933D01*
X0146383Y0081134D02*
X0127030Y0081134D01*
X0127828Y0080336D02*
X0145605Y0080336D01*
X0144828Y0079537D02*
X0128627Y0079537D01*
X0129425Y0078739D02*
X0144050Y0078739D01*
X0143273Y0077940D02*
X0130224Y0077940D01*
X0131022Y0077142D02*
X0142495Y0077142D01*
X0141718Y0076343D02*
X0131821Y0076343D01*
X0132619Y0075545D02*
X0141114Y0075545D01*
X0141122Y0074746D02*
X0133418Y0074746D01*
X0134216Y0073948D02*
X0141122Y0073948D01*
X0141122Y0073149D02*
X0135015Y0073149D01*
X0135813Y0072351D02*
X0141122Y0072351D01*
X0132119Y0067560D02*
X0110097Y0067560D01*
X0110097Y0068358D02*
X0131321Y0068358D01*
X0130522Y0069157D02*
X0110036Y0069157D01*
X0110097Y0069008D02*
X0108925Y0071838D01*
X0106759Y0074003D01*
X0103930Y0075176D01*
X0100867Y0075176D01*
X0098037Y0074003D01*
X0095871Y0071838D01*
X0094699Y0069008D01*
X0094699Y0065945D01*
X0095871Y0063115D01*
X0098037Y0060949D01*
X0100867Y0059777D01*
X0103930Y0059777D01*
X0106759Y0060949D01*
X0108925Y0063115D01*
X0110097Y0065945D01*
X0110097Y0069008D01*
X0109705Y0069955D02*
X0129724Y0069955D01*
X0128925Y0070754D02*
X0109374Y0070754D01*
X0109043Y0071552D02*
X0128127Y0071552D01*
X0127328Y0072351D02*
X0108412Y0072351D01*
X0107613Y0073149D02*
X0126530Y0073149D01*
X0125731Y0073948D02*
X0106815Y0073948D01*
X0104966Y0074746D02*
X0124933Y0074746D01*
X0124134Y0075545D02*
X0082322Y0075545D01*
X0082322Y0076343D02*
X0123336Y0076343D01*
X0122537Y0077142D02*
X0082322Y0077142D01*
X0082322Y0077940D02*
X0121739Y0077940D01*
X0120940Y0078739D02*
X0082322Y0078739D01*
X0082322Y0079537D02*
X0120142Y0079537D01*
X0119343Y0080336D02*
X0082322Y0080336D01*
X0082322Y0081134D02*
X0118545Y0081134D01*
X0117824Y0081933D02*
X0082322Y0081933D01*
X0082322Y0082732D02*
X0117493Y0082732D01*
X0117422Y0083530D02*
X0082322Y0083530D01*
X0082322Y0084329D02*
X0117422Y0084329D01*
X0117422Y0085127D02*
X0082322Y0085127D01*
X0082322Y0085926D02*
X0117422Y0085926D01*
X0117422Y0086724D02*
X0082322Y0086724D01*
X0082322Y0087523D02*
X0117422Y0087523D01*
X0117422Y0088321D02*
X0082322Y0088321D01*
X0082322Y0089120D02*
X0117638Y0089120D01*
X0118097Y0089918D02*
X0082322Y0089918D01*
X0082322Y0090717D02*
X0119141Y0090717D01*
X0116333Y0101200D02*
X0115071Y0102462D01*
X0120090Y0107481D01*
X0124949Y0107481D01*
X0124949Y0106439D01*
X0124990Y0106398D01*
X0124990Y0106048D01*
X0124922Y0105980D01*
X0124797Y0106105D01*
X0124478Y0106289D01*
X0124122Y0106384D01*
X0123045Y0106384D01*
X0123045Y0104092D01*
X0122861Y0104092D01*
X0122861Y0103908D01*
X0120569Y0103908D01*
X0120569Y0102831D01*
X0120664Y0102475D01*
X0120849Y0102156D01*
X0121109Y0101895D01*
X0121429Y0101711D01*
X0121785Y0101616D01*
X0122861Y0101616D01*
X0122861Y0103908D01*
X0123045Y0103908D01*
X0123045Y0101616D01*
X0124122Y0101616D01*
X0124478Y0101711D01*
X0124797Y0101895D01*
X0124922Y0102020D01*
X0125326Y0101616D01*
X0128454Y0101616D01*
X0129274Y0102436D01*
X0129274Y0105564D01*
X0129157Y0105682D01*
X0129321Y0105846D01*
X0129549Y0105715D01*
X0129905Y0105619D01*
X0131030Y0105619D01*
X0131030Y0109240D01*
X0131313Y0109240D01*
X0131313Y0105619D01*
X0132439Y0105619D01*
X0132795Y0105715D01*
X0133022Y0105846D01*
X0133187Y0105682D01*
X0133069Y0105564D01*
X0133069Y0102436D01*
X0133889Y0101616D01*
X0137017Y0101616D01*
X0137422Y0102020D01*
X0137546Y0101895D01*
X0137866Y0101711D01*
X0138222Y0101616D01*
X0139298Y0101616D01*
X0139298Y0103908D01*
X0139482Y0103908D01*
X0139482Y0101616D01*
X0140559Y0101616D01*
X0140915Y0101711D01*
X0141234Y0101895D01*
X0141495Y0102156D01*
X0141679Y0102475D01*
X0141774Y0102831D01*
X0141774Y0103908D01*
X0139482Y0103908D01*
X0139482Y0104092D01*
X0139298Y0104092D01*
X0139298Y0106384D01*
X0138222Y0106384D01*
X0137866Y0106289D01*
X0137546Y0106105D01*
X0137422Y0105980D01*
X0137353Y0106048D01*
X0137353Y0106398D01*
X0137395Y0106439D01*
X0137395Y0108100D01*
X0138145Y0108100D01*
X0138449Y0107796D01*
X0139405Y0107400D01*
X0139410Y0107400D01*
X0140426Y0106384D01*
X0139482Y0106384D01*
X0139482Y0104092D01*
X0141774Y0104092D01*
X0141774Y0105036D01*
X0143722Y0103089D01*
X0143722Y0101911D01*
X0143010Y0101200D01*
X0116333Y0101200D01*
X0115637Y0101896D02*
X0121109Y0101896D01*
X0120606Y0102694D02*
X0115303Y0102694D01*
X0116102Y0103493D02*
X0120569Y0103493D01*
X0120569Y0104092D02*
X0122861Y0104092D01*
X0122861Y0106384D01*
X0121785Y0106384D01*
X0121429Y0106289D01*
X0121109Y0106105D01*
X0120849Y0105844D01*
X0120664Y0105525D01*
X0120569Y0105169D01*
X0120569Y0104092D01*
X0120569Y0104291D02*
X0116900Y0104291D01*
X0117699Y0105090D02*
X0120569Y0105090D01*
X0120893Y0105888D02*
X0118497Y0105888D01*
X0119296Y0106687D02*
X0124949Y0106687D01*
X0123045Y0105888D02*
X0122861Y0105888D01*
X0122861Y0105090D02*
X0123045Y0105090D01*
X0123045Y0104291D02*
X0122861Y0104291D01*
X0122861Y0103493D02*
X0123045Y0103493D01*
X0123045Y0102694D02*
X0122861Y0102694D01*
X0122861Y0101896D02*
X0123045Y0101896D01*
X0124797Y0101896D02*
X0125046Y0101896D01*
X0128734Y0101896D02*
X0133609Y0101896D01*
X0133069Y0102694D02*
X0129274Y0102694D01*
X0129274Y0103493D02*
X0133069Y0103493D01*
X0133069Y0104291D02*
X0129274Y0104291D01*
X0129274Y0105090D02*
X0133069Y0105090D01*
X0131313Y0105888D02*
X0131030Y0105888D01*
X0131030Y0106687D02*
X0131313Y0106687D01*
X0131313Y0107485D02*
X0131030Y0107485D01*
X0131030Y0108284D02*
X0131313Y0108284D01*
X0131313Y0109082D02*
X0131030Y0109082D01*
X0137395Y0107485D02*
X0139198Y0107485D01*
X0140124Y0106687D02*
X0137395Y0106687D01*
X0139298Y0105888D02*
X0139482Y0105888D01*
X0139482Y0105090D02*
X0139298Y0105090D01*
X0139298Y0104291D02*
X0139482Y0104291D01*
X0139482Y0103493D02*
X0139298Y0103493D01*
X0139298Y0102694D02*
X0139482Y0102694D01*
X0139482Y0101896D02*
X0139298Y0101896D01*
X0137546Y0101896D02*
X0137297Y0101896D01*
X0141234Y0101896D02*
X0143706Y0101896D01*
X0143722Y0102694D02*
X0141738Y0102694D01*
X0141774Y0103493D02*
X0143318Y0103493D01*
X0142519Y0104291D02*
X0141774Y0104291D01*
X0145548Y0107485D02*
X0153041Y0107485D01*
X0153041Y0106687D02*
X0146346Y0106687D01*
X0147145Y0105888D02*
X0153041Y0105888D01*
X0153041Y0105090D02*
X0147943Y0105090D01*
X0148122Y0104291D02*
X0153041Y0104291D01*
X0153041Y0103493D02*
X0148122Y0103493D01*
X0148122Y0102694D02*
X0153724Y0102694D01*
X0148122Y0101896D02*
X0166597Y0101896D01*
X0165820Y0101097D02*
X0148122Y0101097D01*
X0148122Y0100299D02*
X0165042Y0100299D01*
X0164265Y0099500D02*
X0147533Y0099500D01*
X0146735Y0098702D02*
X0163487Y0098702D01*
X0162710Y0097903D02*
X0145936Y0097903D01*
X0145138Y0097105D02*
X0161932Y0097105D01*
X0164748Y0102694D02*
X0159096Y0102694D01*
X0159778Y0103493D02*
X0164065Y0103493D01*
X0164065Y0104291D02*
X0159778Y0104291D01*
X0159778Y0105090D02*
X0164065Y0105090D01*
X0164065Y0105888D02*
X0159778Y0105888D01*
X0159778Y0106687D02*
X0164065Y0106687D01*
X0164065Y0107485D02*
X0159778Y0107485D01*
X0159778Y0108284D02*
X0164065Y0108284D01*
X0164065Y0109082D02*
X0159778Y0109082D01*
X0159778Y0109881D02*
X0164065Y0109881D01*
X0164065Y0110679D02*
X0159778Y0110679D01*
X0159778Y0111478D02*
X0164065Y0111478D01*
X0164718Y0112276D02*
X0159125Y0112276D01*
X0153745Y0115470D02*
X0153063Y0115470D01*
X0153745Y0116269D02*
X0152264Y0116269D01*
X0153745Y0118665D02*
X0149774Y0118665D01*
X0147482Y0120262D02*
X0147298Y0120262D01*
X0147298Y0121060D02*
X0147482Y0121060D01*
X0147482Y0121859D02*
X0147298Y0121859D01*
X0147190Y0122657D02*
X0147532Y0122657D01*
X0148655Y0121859D02*
X0158322Y0121859D01*
X0158587Y0122657D02*
X0149311Y0122657D01*
X0151033Y0123456D02*
X0159200Y0123456D01*
X0162643Y0123456D02*
X0164200Y0123456D01*
X0163392Y0122657D02*
X0163257Y0122657D01*
X0157154Y0120262D02*
X0157026Y0120262D01*
X0150034Y0112276D02*
X0141220Y0112276D01*
X0142121Y0111478D02*
X0150833Y0111478D01*
X0151631Y0110679D02*
X0142455Y0110679D01*
X0143152Y0109881D02*
X0152430Y0109881D01*
X0153041Y0109082D02*
X0143951Y0109082D01*
X0144749Y0108284D02*
X0153041Y0108284D01*
X0170149Y0112276D02*
X0172587Y0112276D01*
X0171788Y0111478D02*
X0170802Y0111478D01*
X0170802Y0110679D02*
X0170990Y0110679D01*
X0174057Y0127448D02*
X0175797Y0127448D01*
X0175127Y0128247D02*
X0174855Y0128247D01*
X0179047Y0127448D02*
X0179759Y0127448D01*
X0172370Y0134635D02*
X0165670Y0134635D01*
X0165626Y0134527D02*
X0166022Y0135483D01*
X0166022Y0136517D01*
X0165972Y0136637D01*
X0165981Y0136637D01*
X0166765Y0136637D01*
X0167121Y0136733D01*
X0167212Y0136785D01*
X0167360Y0136637D01*
X0169720Y0136637D01*
X0169819Y0136737D01*
X0169919Y0136637D01*
X0172279Y0136637D01*
X0172557Y0136915D01*
X0172718Y0136527D01*
X0173449Y0135796D01*
X0173507Y0135772D01*
X0173022Y0135287D01*
X0171635Y0133900D01*
X0164999Y0133900D01*
X0165626Y0134527D01*
X0166001Y0135433D02*
X0173168Y0135433D01*
X0173013Y0136232D02*
X0166022Y0136232D01*
X0165981Y0136637D02*
X0165981Y0139987D01*
X0165981Y0139987D01*
X0165981Y0136637D01*
X0165981Y0137030D02*
X0165981Y0137030D01*
X0165981Y0137829D02*
X0165981Y0137829D01*
X0165981Y0138627D02*
X0165981Y0138627D01*
X0165981Y0139426D02*
X0165981Y0139426D01*
X0145366Y0143900D02*
X0141477Y0143900D01*
X0142112Y0144534D01*
X0142774Y0146134D01*
X0142774Y0147866D01*
X0142112Y0149466D01*
X0140887Y0150690D01*
X0139288Y0151353D01*
X0137556Y0151353D01*
X0136990Y0151118D01*
X0136822Y0151287D01*
X0136822Y0159713D01*
X0137822Y0160713D01*
X0137822Y0162913D01*
X0138635Y0162100D01*
X0149449Y0151286D01*
X0149288Y0151353D01*
X0147556Y0151353D01*
X0145956Y0150690D01*
X0144732Y0149466D01*
X0144069Y0147866D01*
X0144069Y0146134D01*
X0144732Y0144534D01*
X0145366Y0143900D01*
X0145049Y0144217D02*
X0141794Y0144217D01*
X0142311Y0145015D02*
X0144532Y0145015D01*
X0144202Y0145814D02*
X0142642Y0145814D01*
X0142774Y0146612D02*
X0144069Y0146612D01*
X0144069Y0147411D02*
X0142774Y0147411D01*
X0142632Y0148209D02*
X0144211Y0148209D01*
X0144542Y0149008D02*
X0142301Y0149008D01*
X0141771Y0149806D02*
X0145072Y0149806D01*
X0145871Y0150605D02*
X0140972Y0150605D01*
X0136822Y0151403D02*
X0149331Y0151403D01*
X0148533Y0152202D02*
X0136822Y0152202D01*
X0136822Y0153001D02*
X0147734Y0153001D01*
X0146936Y0153799D02*
X0136822Y0153799D01*
X0136822Y0154598D02*
X0146137Y0154598D01*
X0145339Y0155396D02*
X0136822Y0155396D01*
X0136822Y0156195D02*
X0144540Y0156195D01*
X0143742Y0156993D02*
X0136822Y0156993D01*
X0136822Y0157792D02*
X0142943Y0157792D01*
X0142145Y0158590D02*
X0136822Y0158590D01*
X0136822Y0159389D02*
X0141346Y0159389D01*
X0140548Y0160187D02*
X0137296Y0160187D01*
X0137822Y0160986D02*
X0139749Y0160986D01*
X0138951Y0161784D02*
X0137822Y0161784D01*
X0137822Y0162583D02*
X0138152Y0162583D01*
X0133519Y0161784D02*
X0110315Y0161784D01*
X0109974Y0162583D02*
X0131162Y0162583D01*
X0130571Y0163381D02*
X0110003Y0163381D01*
X0110003Y0164180D02*
X0130322Y0164180D01*
X0130322Y0164978D02*
X0110003Y0164978D01*
X0109625Y0165777D02*
X0130636Y0165777D01*
X0130160Y0166575D02*
X0110003Y0166575D01*
X0110003Y0167374D02*
X0129361Y0167374D01*
X0128562Y0168172D02*
X0110003Y0168172D01*
X0109921Y0168971D02*
X0127764Y0168971D01*
X0127522Y0169769D02*
X0106839Y0169769D01*
X0106041Y0170568D02*
X0127522Y0170568D01*
X0127522Y0171366D02*
X0082322Y0171366D01*
X0082322Y0170568D02*
X0094161Y0170568D01*
X0091313Y0169769D02*
X0082322Y0169769D01*
X0082322Y0168971D02*
X0090644Y0168971D01*
X0090644Y0168172D02*
X0082322Y0168172D01*
X0082322Y0167374D02*
X0090644Y0167374D01*
X0090644Y0166575D02*
X0082322Y0166575D01*
X0082322Y0165777D02*
X0090644Y0165777D01*
X0090849Y0164978D02*
X0082322Y0164978D01*
X0082322Y0164180D02*
X0101154Y0164180D01*
X0100824Y0164978D02*
X0095994Y0164978D01*
X0096200Y0165777D02*
X0100822Y0165777D01*
X0101053Y0166575D02*
X0096200Y0166575D01*
X0101864Y0163381D02*
X0082322Y0163381D01*
X0082322Y0162583D02*
X0089101Y0162583D01*
X0088944Y0162541D02*
X0088625Y0162356D01*
X0088364Y0162096D01*
X0088180Y0161777D01*
X0088085Y0161421D01*
X0088085Y0160147D01*
X0090574Y0160147D01*
X0090574Y0159569D01*
X0088085Y0159569D01*
X0088085Y0158296D01*
X0088180Y0157940D01*
X0088364Y0157621D01*
X0088625Y0157360D01*
X0088944Y0157176D01*
X0089300Y0157080D01*
X0089520Y0157080D01*
X0089463Y0156865D01*
X0089463Y0155500D01*
X0089463Y0154135D01*
X0089558Y0153779D01*
X0089742Y0153459D01*
X0090003Y0153199D01*
X0090322Y0153014D01*
X0090678Y0152919D01*
X0091650Y0152919D01*
X0091650Y0155500D01*
X0091650Y0155500D01*
X0089463Y0155500D01*
X0091650Y0155500D01*
X0091650Y0155500D01*
X0091650Y0152919D01*
X0092622Y0152919D01*
X0092978Y0153014D01*
X0093297Y0153199D01*
X0093422Y0153323D01*
X0093826Y0152919D01*
X0096055Y0152919D01*
X0096218Y0152527D01*
X0096949Y0151796D01*
X0097905Y0151400D01*
X0098939Y0151400D01*
X0099895Y0151796D01*
X0100626Y0152527D01*
X0101022Y0153483D01*
X0101022Y0154517D01*
X0100626Y0155473D01*
X0099895Y0156204D01*
X0099713Y0156279D01*
X0098822Y0159201D01*
X0098822Y0159704D01*
X0098759Y0159767D01*
X0098759Y0161816D01*
X0097939Y0162636D01*
X0094023Y0162636D01*
X0093405Y0162019D01*
X0093361Y0162096D01*
X0093100Y0162356D01*
X0092781Y0162541D01*
X0092425Y0162636D01*
X0091152Y0162636D01*
X0091152Y0160147D01*
X0090574Y0160147D01*
X0090574Y0162636D01*
X0089300Y0162636D01*
X0088944Y0162541D01*
X0088184Y0161784D02*
X0082322Y0161784D01*
X0082322Y0160986D02*
X0088085Y0160986D01*
X0088085Y0160187D02*
X0082322Y0160187D01*
X0082322Y0159389D02*
X0088085Y0159389D01*
X0088085Y0158590D02*
X0082322Y0158590D01*
X0082322Y0157792D02*
X0088266Y0157792D01*
X0089497Y0156993D02*
X0082322Y0156993D01*
X0082322Y0156195D02*
X0089463Y0156195D01*
X0089463Y0155396D02*
X0082322Y0155396D01*
X0082322Y0154598D02*
X0089463Y0154598D01*
X0089553Y0153799D02*
X0082322Y0153799D01*
X0082322Y0153001D02*
X0090374Y0153001D01*
X0091650Y0153001D02*
X0091650Y0153001D01*
X0091650Y0153799D02*
X0091650Y0153799D01*
X0091650Y0154598D02*
X0091650Y0154598D01*
X0091650Y0155396D02*
X0091650Y0155396D01*
X0092926Y0153001D02*
X0093744Y0153001D01*
X0096543Y0152202D02*
X0082322Y0152202D01*
X0082322Y0151403D02*
X0097896Y0151403D01*
X0098947Y0151403D02*
X0102522Y0151403D01*
X0102522Y0150605D02*
X0082322Y0150605D01*
X0082322Y0149806D02*
X0102522Y0149806D01*
X0102522Y0149008D02*
X0082322Y0149008D01*
X0082322Y0148209D02*
X0102522Y0148209D01*
X0102522Y0147411D02*
X0082322Y0147411D01*
X0082322Y0146612D02*
X0102522Y0146612D01*
X0102522Y0145814D02*
X0082322Y0145814D01*
X0082322Y0145015D02*
X0102522Y0145015D01*
X0102522Y0144217D02*
X0082322Y0144217D01*
X0082322Y0143418D02*
X0102522Y0143418D01*
X0102522Y0142620D02*
X0082322Y0142620D01*
X0082322Y0141821D02*
X0102155Y0141821D01*
X0101824Y0141023D02*
X0082322Y0141023D01*
X0082322Y0140224D02*
X0101822Y0140224D01*
X0102052Y0139426D02*
X0082322Y0139426D01*
X0082322Y0138627D02*
X0102617Y0138627D01*
X0104406Y0137829D02*
X0082322Y0137829D01*
X0082322Y0137030D02*
X0105204Y0137030D01*
X0106003Y0136232D02*
X0082322Y0136232D01*
X0082322Y0135433D02*
X0106801Y0135433D01*
X0107600Y0134635D02*
X0082322Y0134635D01*
X0082322Y0133836D02*
X0108398Y0133836D01*
X0109197Y0133038D02*
X0082322Y0133038D01*
X0082322Y0132239D02*
X0109996Y0132239D01*
X0110794Y0131441D02*
X0082322Y0131441D01*
X0082322Y0130642D02*
X0111593Y0130642D01*
X0112391Y0129844D02*
X0082322Y0129844D01*
X0082322Y0129045D02*
X0114557Y0129045D01*
X0114227Y0128247D02*
X0082322Y0128247D01*
X0082322Y0127448D02*
X0114069Y0127448D01*
X0114069Y0126650D02*
X0082322Y0126650D01*
X0082322Y0125851D02*
X0114186Y0125851D01*
X0114517Y0125053D02*
X0082322Y0125053D01*
X0082322Y0124254D02*
X0115012Y0124254D01*
X0115810Y0123456D02*
X0082322Y0123456D01*
X0108183Y0139426D02*
X0114715Y0139426D01*
X0114384Y0138627D02*
X0108981Y0138627D01*
X0109780Y0137829D02*
X0114069Y0137829D01*
X0114069Y0137030D02*
X0110578Y0137030D01*
X0111377Y0136232D02*
X0114069Y0136232D01*
X0114359Y0135433D02*
X0112175Y0135433D01*
X0112974Y0134635D02*
X0114690Y0134635D01*
X0115430Y0133836D02*
X0113772Y0133836D01*
X0121414Y0133836D02*
X0125430Y0133836D01*
X0124760Y0134635D02*
X0122153Y0134635D01*
X0122484Y0135433D02*
X0124354Y0135433D01*
X0124136Y0136232D02*
X0122774Y0136232D01*
X0122774Y0137030D02*
X0128022Y0137030D01*
X0128022Y0137829D02*
X0128822Y0137829D01*
X0128822Y0138627D02*
X0128022Y0138627D01*
X0128022Y0139426D02*
X0128822Y0139426D01*
X0128822Y0140224D02*
X0128022Y0140224D01*
X0128022Y0141023D02*
X0128822Y0141023D01*
X0130114Y0141023D02*
X0130512Y0141023D01*
X0130322Y0141821D02*
X0106689Y0141821D01*
X0107019Y0141023D02*
X0116759Y0141023D01*
X0115490Y0140224D02*
X0107384Y0140224D01*
X0106322Y0142620D02*
X0130364Y0142620D01*
X0128822Y0143418D02*
X0128022Y0143418D01*
X0128022Y0142656D02*
X0128022Y0146600D01*
X0124078Y0146600D01*
X0124176Y0145981D01*
X0124388Y0145329D01*
X0124699Y0144719D01*
X0125102Y0144164D01*
X0125586Y0143680D01*
X0126140Y0143277D01*
X0126751Y0142966D01*
X0127402Y0142754D01*
X0128022Y0142656D01*
X0128022Y0144217D02*
X0128822Y0144217D01*
X0128822Y0145015D02*
X0128022Y0145015D01*
X0128022Y0145814D02*
X0128822Y0145814D01*
X0128822Y0146612D02*
X0134069Y0146612D01*
X0134069Y0147411D02*
X0132764Y0147411D01*
X0132606Y0148209D02*
X0134211Y0148209D01*
X0133727Y0149008D02*
X0132284Y0149008D01*
X0131763Y0149806D02*
X0133022Y0149806D01*
X0133022Y0150605D02*
X0130865Y0150605D01*
X0128822Y0150605D02*
X0128022Y0150605D01*
X0128022Y0149806D02*
X0128822Y0149806D01*
X0128822Y0149008D02*
X0128022Y0149008D01*
X0128022Y0148209D02*
X0128822Y0148209D01*
X0128822Y0147411D02*
X0128022Y0147411D01*
X0128022Y0146612D02*
X0122774Y0146612D01*
X0122774Y0146134D02*
X0122774Y0147866D01*
X0122112Y0149466D01*
X0120887Y0150690D01*
X0119288Y0151353D01*
X0117556Y0151353D01*
X0115956Y0150690D01*
X0114732Y0149466D01*
X0114069Y0147866D01*
X0114069Y0146134D01*
X0114732Y0144534D01*
X0115956Y0143310D01*
X0117556Y0142647D01*
X0119288Y0142647D01*
X0120887Y0143310D01*
X0122112Y0144534D01*
X0122774Y0146134D01*
X0122642Y0145814D02*
X0124230Y0145814D01*
X0124548Y0145015D02*
X0122311Y0145015D01*
X0121794Y0144217D02*
X0125063Y0144217D01*
X0125946Y0143418D02*
X0120996Y0143418D01*
X0120084Y0141023D02*
X0126729Y0141023D01*
X0125490Y0140224D02*
X0121353Y0140224D01*
X0122128Y0139426D02*
X0124804Y0139426D01*
X0124374Y0138627D02*
X0122459Y0138627D01*
X0122774Y0137829D02*
X0124146Y0137829D01*
X0128822Y0137030D02*
X0134069Y0137030D01*
X0134069Y0136232D02*
X0132707Y0136232D01*
X0132489Y0135433D02*
X0134359Y0135433D01*
X0134690Y0134635D02*
X0132084Y0134635D01*
X0131414Y0133836D02*
X0135430Y0133836D01*
X0134069Y0137829D02*
X0132697Y0137829D01*
X0132470Y0138627D02*
X0134384Y0138627D01*
X0134715Y0139426D02*
X0133501Y0139426D01*
X0132342Y0139426D02*
X0132040Y0139426D01*
X0134364Y0144217D02*
X0135049Y0144217D01*
X0134532Y0145015D02*
X0132296Y0145015D01*
X0132613Y0145814D02*
X0134202Y0145814D01*
X0125978Y0150605D02*
X0120972Y0150605D01*
X0121771Y0149806D02*
X0125080Y0149806D01*
X0124560Y0149008D02*
X0122301Y0149008D01*
X0122632Y0148209D02*
X0124238Y0148209D01*
X0124080Y0147411D02*
X0122774Y0147411D01*
X0115871Y0150605D02*
X0106322Y0150605D01*
X0106322Y0151403D02*
X0133022Y0151403D01*
X0133022Y0152202D02*
X0106322Y0152202D01*
X0106322Y0153001D02*
X0133022Y0153001D01*
X0133022Y0153799D02*
X0106322Y0153799D01*
X0106322Y0154598D02*
X0133022Y0154598D01*
X0133022Y0155396D02*
X0106322Y0155396D01*
X0106322Y0156195D02*
X0133022Y0156195D01*
X0133022Y0156993D02*
X0106322Y0156993D01*
X0106322Y0157792D02*
X0106959Y0157792D01*
X0109884Y0157792D02*
X0133022Y0157792D01*
X0133022Y0158590D02*
X0110652Y0158590D01*
X0110983Y0159389D02*
X0133022Y0159389D01*
X0133022Y0160187D02*
X0111022Y0160187D01*
X0110828Y0160986D02*
X0133022Y0160986D01*
X0127522Y0172165D02*
X0082322Y0172165D01*
X0082322Y0172963D02*
X0127522Y0172963D01*
X0127522Y0173762D02*
X0082322Y0173762D01*
X0082322Y0174560D02*
X0127522Y0174560D01*
X0127522Y0175359D02*
X0082322Y0175359D01*
X0082322Y0176157D02*
X0127522Y0176157D01*
X0127522Y0176956D02*
X0082322Y0176956D01*
X0082322Y0177754D02*
X0127522Y0177754D01*
X0127522Y0178553D02*
X0121152Y0178553D01*
X0121760Y0179351D02*
X0127522Y0179351D01*
X0127522Y0180150D02*
X0122022Y0180150D01*
X0122557Y0180948D02*
X0127522Y0180948D01*
X0127522Y0181747D02*
X0123356Y0181747D01*
X0124154Y0182545D02*
X0127522Y0182545D01*
X0127522Y0183344D02*
X0124953Y0183344D01*
X0125751Y0184142D02*
X0127522Y0184142D01*
X0127522Y0184941D02*
X0126550Y0184941D01*
X0127348Y0185739D02*
X0127522Y0185739D01*
X0124370Y0188135D02*
X0110097Y0188135D01*
X0110097Y0187992D02*
X0108925Y0185162D01*
X0106759Y0182997D01*
X0103930Y0181824D01*
X0100867Y0181824D01*
X0098037Y0182997D01*
X0095871Y0185162D01*
X0094699Y0187992D01*
X0094699Y0191055D01*
X0095871Y0193885D01*
X0098037Y0196051D01*
X0100867Y0197223D01*
X0103930Y0197223D01*
X0106759Y0196051D01*
X0108925Y0193885D01*
X0110097Y0191055D01*
X0110097Y0187992D01*
X0109826Y0187337D02*
X0123571Y0187337D01*
X0122773Y0186538D02*
X0109495Y0186538D01*
X0109164Y0185739D02*
X0121974Y0185739D01*
X0121176Y0184941D02*
X0108704Y0184941D01*
X0107905Y0184142D02*
X0120377Y0184142D01*
X0119579Y0183344D02*
X0107107Y0183344D01*
X0105670Y0182545D02*
X0117790Y0182545D01*
X0117124Y0181747D02*
X0082322Y0181747D01*
X0082322Y0182545D02*
X0099126Y0182545D01*
X0097689Y0183344D02*
X0082322Y0183344D01*
X0082322Y0184142D02*
X0096891Y0184142D01*
X0096092Y0184941D02*
X0082322Y0184941D01*
X0082322Y0185739D02*
X0095632Y0185739D01*
X0095301Y0186538D02*
X0082322Y0186538D01*
X0082322Y0187337D02*
X0094970Y0187337D01*
X0094699Y0188135D02*
X0082322Y0188135D01*
X0082322Y0188934D02*
X0094699Y0188934D01*
X0094699Y0189732D02*
X0082322Y0189732D01*
X0082322Y0190531D02*
X0094699Y0190531D01*
X0094812Y0191329D02*
X0082322Y0191329D01*
X0082322Y0192128D02*
X0095143Y0192128D01*
X0095474Y0192926D02*
X0082322Y0192926D01*
X0082322Y0193725D02*
X0095805Y0193725D01*
X0096509Y0194523D02*
X0082322Y0194523D01*
X0082322Y0195322D02*
X0097308Y0195322D01*
X0098205Y0196120D02*
X0083022Y0196120D01*
X0083820Y0196919D02*
X0100132Y0196919D01*
X0104664Y0196919D02*
X0123848Y0196919D01*
X0123822Y0197717D02*
X0084619Y0197717D01*
X0085417Y0198516D02*
X0124028Y0198516D01*
X0124559Y0199314D02*
X0086216Y0199314D01*
X0087014Y0200113D02*
X0126622Y0200113D01*
X0126522Y0200911D02*
X0087813Y0200911D01*
X0088611Y0201710D02*
X0126522Y0201710D01*
X0126522Y0202508D02*
X0089410Y0202508D01*
X0090208Y0203307D02*
X0115964Y0203307D01*
X0115161Y0204105D02*
X0091007Y0204105D01*
X0091805Y0204904D02*
X0114579Y0204904D01*
X0114248Y0205702D02*
X0092604Y0205702D01*
X0093402Y0206501D02*
X0114069Y0206501D01*
X0114069Y0207299D02*
X0094201Y0207299D01*
X0094999Y0208098D02*
X0114165Y0208098D01*
X0114496Y0208896D02*
X0095798Y0208896D01*
X0106592Y0196120D02*
X0124179Y0196120D01*
X0124522Y0195322D02*
X0107488Y0195322D01*
X0108287Y0194523D02*
X0124522Y0194523D01*
X0124522Y0193725D02*
X0108992Y0193725D01*
X0109322Y0192926D02*
X0124522Y0192926D01*
X0124522Y0192128D02*
X0109653Y0192128D01*
X0109984Y0191329D02*
X0124522Y0191329D01*
X0124522Y0190531D02*
X0110097Y0190531D01*
X0110097Y0189732D02*
X0124522Y0189732D01*
X0124522Y0188934D02*
X0110097Y0188934D01*
X0116822Y0180948D02*
X0082322Y0180948D01*
X0082322Y0180150D02*
X0116822Y0180150D01*
X0117083Y0179351D02*
X0082322Y0179351D01*
X0082322Y0178553D02*
X0117692Y0178553D01*
X0143341Y0191337D02*
X0143697Y0191693D01*
X0144405Y0191400D01*
X0145439Y0191400D01*
X0146395Y0191796D01*
X0146443Y0191844D01*
X0147661Y0191844D01*
X0147889Y0191616D01*
X0151017Y0191616D01*
X0151422Y0192020D01*
X0151546Y0191895D01*
X0151866Y0191711D01*
X0152222Y0191616D01*
X0153298Y0191616D01*
X0153298Y0193908D01*
X0153482Y0193908D01*
X0153482Y0191616D01*
X0154559Y0191616D01*
X0154915Y0191711D01*
X0155234Y0191895D01*
X0155495Y0192156D01*
X0155679Y0192475D01*
X0155774Y0192831D01*
X0155774Y0193908D01*
X0153482Y0193908D01*
X0153482Y0194092D01*
X0153298Y0194092D01*
X0153298Y0196384D01*
X0152222Y0196384D01*
X0151866Y0196289D01*
X0151546Y0196105D01*
X0151422Y0195980D01*
X0151017Y0196384D01*
X0147889Y0196384D01*
X0147405Y0195900D01*
X0146699Y0195900D01*
X0146395Y0196204D01*
X0145680Y0196500D01*
X0146395Y0196796D01*
X0146699Y0197100D01*
X0147405Y0197100D01*
X0147889Y0196616D01*
X0151017Y0196616D01*
X0151422Y0197020D01*
X0151546Y0196895D01*
X0151866Y0196711D01*
X0152222Y0196616D01*
X0153298Y0196616D01*
X0153298Y0198908D01*
X0153482Y0198908D01*
X0153482Y0196616D01*
X0154559Y0196616D01*
X0154915Y0196711D01*
X0155234Y0196895D01*
X0155495Y0197156D01*
X0155679Y0197475D01*
X0155774Y0197831D01*
X0155774Y0198908D01*
X0153482Y0198908D01*
X0153482Y0199092D01*
X0153298Y0199092D01*
X0153298Y0201384D01*
X0152222Y0201384D01*
X0151866Y0201289D01*
X0151546Y0201105D01*
X0151422Y0200980D01*
X0151017Y0201384D01*
X0147889Y0201384D01*
X0147661Y0201156D01*
X0146443Y0201156D01*
X0146395Y0201204D01*
X0145439Y0201600D01*
X0144405Y0201600D01*
X0143697Y0201307D01*
X0143306Y0201698D01*
X0144209Y0202600D01*
X0146709Y0202600D01*
X0146990Y0202882D01*
X0147556Y0202647D01*
X0149288Y0202647D01*
X0150887Y0203310D01*
X0152112Y0204534D01*
X0152774Y0206134D01*
X0152774Y0207866D01*
X0152112Y0209466D01*
X0151977Y0209600D01*
X0154866Y0209600D01*
X0154732Y0209466D01*
X0154069Y0207866D01*
X0154069Y0206134D01*
X0154732Y0204534D01*
X0155956Y0203310D01*
X0157556Y0202647D01*
X0159288Y0202647D01*
X0160887Y0203310D01*
X0162112Y0204534D01*
X0162774Y0206134D01*
X0162774Y0207866D01*
X0162112Y0209466D01*
X0161977Y0209600D01*
X0164866Y0209600D01*
X0164732Y0209466D01*
X0164069Y0207866D01*
X0164069Y0206134D01*
X0164732Y0204534D01*
X0165956Y0203310D01*
X0166522Y0203076D01*
X0166522Y0201787D01*
X0153635Y0188900D01*
X0152522Y0187787D01*
X0152522Y0180600D01*
X0151905Y0180600D01*
X0150949Y0180204D01*
X0150218Y0179473D01*
X0149822Y0178517D01*
X0149822Y0177787D01*
X0149822Y0177787D01*
X0149822Y0181287D01*
X0148709Y0182400D01*
X0147522Y0183587D01*
X0147522Y0183687D01*
X0147054Y0184155D01*
X0147395Y0184296D01*
X0148126Y0185027D01*
X0148522Y0185983D01*
X0148522Y0187017D01*
X0148126Y0187973D01*
X0147395Y0188704D01*
X0146439Y0189100D01*
X0145857Y0189100D01*
X0143341Y0191337D01*
X0143349Y0191329D02*
X0156064Y0191329D01*
X0155466Y0192128D02*
X0156862Y0192128D01*
X0157661Y0192926D02*
X0155774Y0192926D01*
X0155774Y0193725D02*
X0158459Y0193725D01*
X0159258Y0194523D02*
X0155774Y0194523D01*
X0155774Y0194092D02*
X0155774Y0195169D01*
X0155679Y0195525D01*
X0155495Y0195844D01*
X0155234Y0196105D01*
X0154915Y0196289D01*
X0154559Y0196384D01*
X0153482Y0196384D01*
X0153482Y0194092D01*
X0155774Y0194092D01*
X0155733Y0195322D02*
X0160056Y0195322D01*
X0160855Y0196120D02*
X0155207Y0196120D01*
X0155257Y0196919D02*
X0161653Y0196919D01*
X0162452Y0197717D02*
X0155744Y0197717D01*
X0155774Y0198516D02*
X0163250Y0198516D01*
X0164049Y0199314D02*
X0155774Y0199314D01*
X0155774Y0199092D02*
X0155774Y0200169D01*
X0155679Y0200525D01*
X0155495Y0200844D01*
X0155234Y0201105D01*
X0154915Y0201289D01*
X0154559Y0201384D01*
X0153482Y0201384D01*
X0153482Y0199092D01*
X0155774Y0199092D01*
X0155774Y0200113D02*
X0164847Y0200113D01*
X0165646Y0200911D02*
X0155427Y0200911D01*
X0153482Y0200911D02*
X0153298Y0200911D01*
X0153298Y0200113D02*
X0153482Y0200113D01*
X0153482Y0199314D02*
X0153298Y0199314D01*
X0153298Y0198516D02*
X0153482Y0198516D01*
X0153482Y0197717D02*
X0153298Y0197717D01*
X0153298Y0196919D02*
X0153482Y0196919D01*
X0153482Y0196120D02*
X0153298Y0196120D01*
X0153298Y0195322D02*
X0153482Y0195322D01*
X0153482Y0194523D02*
X0153298Y0194523D01*
X0153298Y0193725D02*
X0153482Y0193725D01*
X0153482Y0192926D02*
X0153298Y0192926D01*
X0153298Y0192128D02*
X0153482Y0192128D01*
X0155265Y0190531D02*
X0144247Y0190531D01*
X0145146Y0189732D02*
X0154467Y0189732D01*
X0153668Y0188934D02*
X0146841Y0188934D01*
X0147964Y0188135D02*
X0152870Y0188135D01*
X0152522Y0187337D02*
X0148389Y0187337D01*
X0148522Y0186538D02*
X0152522Y0186538D01*
X0152522Y0185739D02*
X0148421Y0185739D01*
X0148040Y0184941D02*
X0152522Y0184941D01*
X0152522Y0184142D02*
X0147066Y0184142D01*
X0147765Y0183344D02*
X0152522Y0183344D01*
X0152522Y0182545D02*
X0148563Y0182545D01*
X0149362Y0181747D02*
X0152522Y0181747D01*
X0152522Y0180948D02*
X0149822Y0180948D01*
X0149822Y0180150D02*
X0150895Y0180150D01*
X0150167Y0179351D02*
X0149822Y0179351D01*
X0149822Y0178553D02*
X0149837Y0178553D01*
X0159123Y0180524D02*
X0159626Y0181027D01*
X0159987Y0181900D01*
X0160939Y0181900D01*
X0161895Y0182296D01*
X0162626Y0183027D01*
X0163022Y0183983D01*
X0163022Y0185017D01*
X0162906Y0185297D01*
X0165901Y0188292D01*
X0166218Y0187527D01*
X0166514Y0187231D01*
X0166449Y0187204D01*
X0165718Y0186473D01*
X0165322Y0185517D01*
X0165322Y0184483D01*
X0165718Y0183527D01*
X0166449Y0182796D01*
X0167405Y0182400D01*
X0168439Y0182400D01*
X0169395Y0182796D01*
X0169699Y0183100D01*
X0179209Y0183100D01*
X0186209Y0190100D01*
X0186563Y0190100D01*
X0186322Y0189517D01*
X0186322Y0188483D01*
X0186718Y0187527D01*
X0187449Y0186796D01*
X0188405Y0186400D01*
X0188835Y0186400D01*
X0193507Y0181728D01*
X0193449Y0181704D01*
X0192718Y0180973D01*
X0192322Y0180017D01*
X0192322Y0179587D01*
X0192135Y0179400D01*
X0179699Y0179400D01*
X0179395Y0179704D01*
X0178439Y0180100D01*
X0177405Y0180100D01*
X0176449Y0179704D01*
X0175718Y0178973D01*
X0175322Y0178017D01*
X0175322Y0176983D01*
X0175549Y0176433D01*
X0162195Y0176404D01*
X0161895Y0176704D01*
X0160939Y0177100D01*
X0160863Y0177100D01*
X0161022Y0177483D01*
X0161022Y0178517D01*
X0160626Y0179473D01*
X0159895Y0180204D01*
X0159123Y0180524D01*
X0159547Y0180948D02*
X0192707Y0180948D01*
X0192377Y0180150D02*
X0159949Y0180150D01*
X0160676Y0179351D02*
X0176096Y0179351D01*
X0175544Y0178553D02*
X0161007Y0178553D01*
X0161022Y0177754D02*
X0175322Y0177754D01*
X0175333Y0176956D02*
X0161287Y0176956D01*
X0159924Y0181747D02*
X0193488Y0181747D01*
X0192689Y0182545D02*
X0168790Y0182545D01*
X0167053Y0182545D02*
X0162144Y0182545D01*
X0162757Y0183344D02*
X0165901Y0183344D01*
X0165463Y0184142D02*
X0163022Y0184142D01*
X0163022Y0184941D02*
X0165322Y0184941D01*
X0165414Y0185739D02*
X0163348Y0185739D01*
X0164147Y0186538D02*
X0165783Y0186538D01*
X0166408Y0187337D02*
X0164945Y0187337D01*
X0165744Y0188135D02*
X0165966Y0188135D01*
X0179453Y0183344D02*
X0191891Y0183344D01*
X0191092Y0184142D02*
X0180251Y0184142D01*
X0181050Y0184941D02*
X0190294Y0184941D01*
X0189495Y0185739D02*
X0181848Y0185739D01*
X0182647Y0186538D02*
X0188071Y0186538D01*
X0186908Y0187337D02*
X0183445Y0187337D01*
X0184244Y0188135D02*
X0186466Y0188135D01*
X0186322Y0188934D02*
X0185042Y0188934D01*
X0185841Y0189732D02*
X0186411Y0189732D01*
X0166444Y0201710D02*
X0143318Y0201710D01*
X0144117Y0202508D02*
X0166522Y0202508D01*
X0165964Y0203307D02*
X0160880Y0203307D01*
X0161683Y0204105D02*
X0165161Y0204105D01*
X0164579Y0204904D02*
X0162265Y0204904D01*
X0162596Y0205702D02*
X0164248Y0205702D01*
X0164069Y0206501D02*
X0162774Y0206501D01*
X0162774Y0207299D02*
X0164069Y0207299D01*
X0164165Y0208098D02*
X0162678Y0208098D01*
X0162348Y0208896D02*
X0164496Y0208896D01*
X0155964Y0203307D02*
X0150880Y0203307D01*
X0151683Y0204105D02*
X0155161Y0204105D01*
X0154579Y0204904D02*
X0152265Y0204904D01*
X0152596Y0205702D02*
X0154248Y0205702D01*
X0154069Y0206501D02*
X0152774Y0206501D01*
X0152774Y0207299D02*
X0154069Y0207299D01*
X0154165Y0208098D02*
X0152678Y0208098D01*
X0152348Y0208896D02*
X0154496Y0208896D01*
X0151523Y0196919D02*
X0151320Y0196919D01*
X0151281Y0196120D02*
X0151573Y0196120D01*
X0147625Y0196120D02*
X0146479Y0196120D01*
X0146517Y0196919D02*
X0147586Y0196919D01*
X0125964Y0203307D02*
X0120880Y0203307D01*
X0121683Y0204105D02*
X0125161Y0204105D01*
X0124579Y0204904D02*
X0122265Y0204904D01*
X0122596Y0205702D02*
X0124248Y0205702D01*
X0124069Y0206501D02*
X0122774Y0206501D01*
X0122774Y0207299D02*
X0124069Y0207299D01*
X0124165Y0208098D02*
X0122678Y0208098D01*
X0122348Y0208896D02*
X0124496Y0208896D01*
X0168990Y0172619D02*
X0205036Y0172698D01*
X0206822Y0170913D01*
X0206822Y0168686D01*
X0205042Y0167193D01*
X0204926Y0167473D01*
X0204195Y0168204D01*
X0203239Y0168600D01*
X0202205Y0168600D01*
X0201249Y0168204D01*
X0200945Y0167900D01*
X0192135Y0167900D01*
X0187835Y0163600D01*
X0187405Y0163600D01*
X0186449Y0163204D01*
X0185718Y0162473D01*
X0185401Y0161708D01*
X0177522Y0169587D01*
X0177522Y0170017D01*
X0177126Y0170973D01*
X0176395Y0171704D01*
X0175439Y0172100D01*
X0174405Y0172100D01*
X0173449Y0171704D01*
X0172718Y0170973D01*
X0172322Y0170017D01*
X0172322Y0168983D01*
X0172718Y0168027D01*
X0173449Y0167296D01*
X0174405Y0166900D01*
X0174835Y0166900D01*
X0191522Y0150213D01*
X0191522Y0150056D01*
X0190887Y0150690D01*
X0189288Y0151353D01*
X0187556Y0151353D01*
X0186990Y0151118D01*
X0182822Y0155287D01*
X0181709Y0156400D01*
X0179199Y0156400D01*
X0178895Y0156704D01*
X0177939Y0157100D01*
X0176905Y0157100D01*
X0175949Y0156704D01*
X0175218Y0155973D01*
X0175149Y0155806D01*
X0174439Y0156100D01*
X0174009Y0156100D01*
X0170322Y0159787D01*
X0170322Y0163213D01*
X0170709Y0163600D01*
X0171822Y0164713D01*
X0171822Y0169787D01*
X0168990Y0172619D01*
X0169444Y0172165D02*
X0205570Y0172165D01*
X0206368Y0171366D02*
X0176732Y0171366D01*
X0177294Y0170568D02*
X0206822Y0170568D01*
X0206822Y0169769D02*
X0177522Y0169769D01*
X0178138Y0168971D02*
X0206822Y0168971D01*
X0206209Y0168172D02*
X0204226Y0168172D01*
X0204967Y0167374D02*
X0205257Y0167374D01*
X0201217Y0168172D02*
X0178936Y0168172D01*
X0179735Y0167374D02*
X0191608Y0167374D01*
X0190810Y0166575D02*
X0180534Y0166575D01*
X0181332Y0165777D02*
X0190011Y0165777D01*
X0189213Y0164978D02*
X0182131Y0164978D01*
X0182929Y0164180D02*
X0188414Y0164180D01*
X0186876Y0163381D02*
X0183728Y0163381D01*
X0184526Y0162583D02*
X0185827Y0162583D01*
X0185432Y0161784D02*
X0185325Y0161784D01*
X0182346Y0159389D02*
X0170720Y0159389D01*
X0170322Y0160187D02*
X0181548Y0160187D01*
X0180749Y0160986D02*
X0170322Y0160986D01*
X0170322Y0161784D02*
X0179951Y0161784D01*
X0179152Y0162583D02*
X0170322Y0162583D01*
X0170490Y0163381D02*
X0178354Y0163381D01*
X0177555Y0164180D02*
X0171288Y0164180D01*
X0171822Y0164978D02*
X0176757Y0164978D01*
X0175958Y0165777D02*
X0171822Y0165777D01*
X0171822Y0166575D02*
X0175160Y0166575D01*
X0173371Y0167374D02*
X0171822Y0167374D01*
X0171822Y0168172D02*
X0172657Y0168172D01*
X0172327Y0168971D02*
X0171822Y0168971D01*
X0171822Y0169769D02*
X0172322Y0169769D01*
X0172550Y0170568D02*
X0171041Y0170568D01*
X0170242Y0171366D02*
X0173111Y0171366D01*
X0171519Y0158590D02*
X0183145Y0158590D01*
X0183943Y0157792D02*
X0172317Y0157792D01*
X0173116Y0156993D02*
X0176646Y0156993D01*
X0175439Y0156195D02*
X0173914Y0156195D01*
X0178197Y0156993D02*
X0184742Y0156993D01*
X0185540Y0156195D02*
X0181914Y0156195D01*
X0182713Y0155396D02*
X0186339Y0155396D01*
X0187137Y0154598D02*
X0183511Y0154598D01*
X0184310Y0153799D02*
X0187936Y0153799D01*
X0188734Y0153001D02*
X0185108Y0153001D01*
X0185907Y0152202D02*
X0189533Y0152202D01*
X0190331Y0151403D02*
X0186705Y0151403D01*
X0190972Y0150605D02*
X0191130Y0150605D01*
X0195322Y0143944D02*
X0195956Y0143310D01*
X0197556Y0142647D01*
X0199288Y0142647D01*
X0200887Y0143310D01*
X0201522Y0143944D01*
X0201522Y0142277D01*
X0201218Y0141973D01*
X0200822Y0141017D01*
X0200822Y0139983D01*
X0201218Y0139027D01*
X0201949Y0138296D01*
X0202905Y0137900D01*
X0203939Y0137900D01*
X0204895Y0138296D01*
X0205626Y0139027D01*
X0206022Y0139983D01*
X0206022Y0141017D01*
X0205626Y0141973D01*
X0205322Y0142277D01*
X0205322Y0143944D01*
X0205956Y0143310D01*
X0207556Y0142647D01*
X0209288Y0142647D01*
X0210887Y0143310D01*
X0212112Y0144534D01*
X0212774Y0146134D01*
X0212774Y0147866D01*
X0212112Y0149466D01*
X0210887Y0150690D01*
X0210322Y0150924D01*
X0210322Y0156100D01*
X0217609Y0156100D01*
X0218722Y0157213D01*
X0221822Y0160313D01*
X0221822Y0174084D01*
X0221834Y0174856D01*
X0221822Y0174869D01*
X0221822Y0174887D01*
X0221277Y0175432D01*
X0218822Y0177969D01*
X0218822Y0177987D01*
X0218310Y0178499D01*
X0218526Y0178500D01*
X0219309Y0178500D01*
X0219313Y0178504D01*
X0236639Y0178596D01*
X0241835Y0173400D01*
X0240745Y0173400D01*
X0239496Y0172882D01*
X0238922Y0172308D01*
X0238348Y0172882D01*
X0237098Y0173400D01*
X0235745Y0173400D01*
X0234496Y0172882D01*
X0233539Y0171926D01*
X0233022Y0170676D01*
X0233022Y0169324D01*
X0233539Y0168074D01*
X0234113Y0167500D01*
X0233781Y0167167D01*
X0233409Y0166610D01*
X0233152Y0165992D01*
X0233022Y0165335D01*
X0233022Y0165200D01*
X0236222Y0165200D01*
X0236222Y0164800D01*
X0236622Y0164800D01*
X0236622Y0160200D01*
X0236222Y0160200D01*
X0236222Y0163400D01*
X0236222Y0164800D01*
X0233022Y0164800D01*
X0233022Y0164665D01*
X0233152Y0164008D01*
X0233409Y0163389D01*
X0233781Y0162833D01*
X0234113Y0162500D01*
X0233781Y0162167D01*
X0233409Y0161610D01*
X0233152Y0160992D01*
X0233022Y0160335D01*
X0233022Y0160200D01*
X0236222Y0160200D01*
X0236222Y0159800D01*
X0233022Y0159800D01*
X0233022Y0159665D01*
X0233152Y0159008D01*
X0233409Y0158389D01*
X0233781Y0157833D01*
X0234113Y0157500D01*
X0233539Y0156926D01*
X0233022Y0155676D01*
X0233022Y0154324D01*
X0233539Y0153074D01*
X0234113Y0152500D01*
X0233781Y0152167D01*
X0233409Y0151610D01*
X0233152Y0150992D01*
X0233022Y0150335D01*
X0233022Y0150200D01*
X0236222Y0150200D01*
X0236222Y0149800D01*
X0233022Y0149800D01*
X0233022Y0149665D01*
X0233152Y0149008D01*
X0233409Y0148389D01*
X0233736Y0147900D01*
X0230822Y0147900D01*
X0230822Y0171223D01*
X0231126Y0171527D01*
X0231522Y0172483D01*
X0231522Y0173517D01*
X0231126Y0174473D01*
X0230395Y0175204D01*
X0229439Y0175600D01*
X0228405Y0175600D01*
X0227449Y0175204D01*
X0226718Y0174473D01*
X0226322Y0173517D01*
X0226322Y0172483D01*
X0226718Y0171527D01*
X0227022Y0171223D01*
X0227022Y0146787D01*
X0217635Y0137400D01*
X0197999Y0137400D01*
X0198626Y0138027D01*
X0199022Y0138983D01*
X0199022Y0140017D01*
X0198626Y0140973D01*
X0197895Y0141704D01*
X0196939Y0142100D01*
X0196509Y0142100D01*
X0195322Y0143287D01*
X0195322Y0143944D01*
X0195322Y0143418D02*
X0195848Y0143418D01*
X0195989Y0142620D02*
X0201522Y0142620D01*
X0201522Y0143418D02*
X0200996Y0143418D01*
X0201155Y0141821D02*
X0197612Y0141821D01*
X0198576Y0141023D02*
X0200824Y0141023D01*
X0200822Y0140224D02*
X0198936Y0140224D01*
X0199022Y0139426D02*
X0201052Y0139426D01*
X0201617Y0138627D02*
X0198874Y0138627D01*
X0198427Y0137829D02*
X0218064Y0137829D01*
X0218862Y0138627D02*
X0205226Y0138627D01*
X0205791Y0139426D02*
X0219661Y0139426D01*
X0220459Y0140224D02*
X0206022Y0140224D01*
X0206019Y0141023D02*
X0221258Y0141023D01*
X0222056Y0141821D02*
X0205689Y0141821D01*
X0205322Y0142620D02*
X0222855Y0142620D01*
X0223653Y0143418D02*
X0210996Y0143418D01*
X0211794Y0144217D02*
X0224452Y0144217D01*
X0225250Y0145015D02*
X0212311Y0145015D01*
X0212642Y0145814D02*
X0226049Y0145814D01*
X0226847Y0146612D02*
X0212774Y0146612D01*
X0212774Y0147411D02*
X0227022Y0147411D01*
X0227022Y0148209D02*
X0212632Y0148209D01*
X0212301Y0149008D02*
X0227022Y0149008D01*
X0227022Y0149806D02*
X0211771Y0149806D01*
X0210972Y0150605D02*
X0227022Y0150605D01*
X0227022Y0151403D02*
X0210322Y0151403D01*
X0210322Y0152202D02*
X0227022Y0152202D01*
X0227022Y0153001D02*
X0210322Y0153001D01*
X0210322Y0153799D02*
X0227022Y0153799D01*
X0227022Y0154598D02*
X0210322Y0154598D01*
X0210322Y0155396D02*
X0227022Y0155396D01*
X0227022Y0156195D02*
X0217703Y0156195D01*
X0218502Y0156993D02*
X0227022Y0156993D01*
X0227022Y0157792D02*
X0219300Y0157792D01*
X0220099Y0158590D02*
X0227022Y0158590D01*
X0227022Y0159389D02*
X0220897Y0159389D01*
X0221696Y0160187D02*
X0227022Y0160187D01*
X0227022Y0160986D02*
X0221822Y0160986D01*
X0221822Y0161784D02*
X0227022Y0161784D01*
X0227022Y0162583D02*
X0221822Y0162583D01*
X0221822Y0163381D02*
X0227022Y0163381D01*
X0227022Y0164180D02*
X0221822Y0164180D01*
X0221822Y0164978D02*
X0227022Y0164978D01*
X0227022Y0165777D02*
X0221822Y0165777D01*
X0221822Y0166575D02*
X0227022Y0166575D01*
X0227022Y0167374D02*
X0221822Y0167374D01*
X0221822Y0168172D02*
X0227022Y0168172D01*
X0227022Y0168971D02*
X0221822Y0168971D01*
X0221822Y0169769D02*
X0227022Y0169769D01*
X0227022Y0170568D02*
X0221822Y0170568D01*
X0221822Y0171366D02*
X0226879Y0171366D01*
X0226453Y0172165D02*
X0221822Y0172165D01*
X0221822Y0172963D02*
X0226322Y0172963D01*
X0226423Y0173762D02*
X0221822Y0173762D01*
X0221830Y0174560D02*
X0226805Y0174560D01*
X0227822Y0175359D02*
X0221350Y0175359D01*
X0220575Y0176157D02*
X0239077Y0176157D01*
X0238279Y0176956D02*
X0219802Y0176956D01*
X0219029Y0177754D02*
X0237480Y0177754D01*
X0236682Y0178553D02*
X0228519Y0178553D01*
X0230021Y0175359D02*
X0239876Y0175359D01*
X0240674Y0174560D02*
X0231038Y0174560D01*
X0231420Y0173762D02*
X0241473Y0173762D01*
X0239691Y0172963D02*
X0238152Y0172963D01*
X0234691Y0172963D02*
X0231522Y0172963D01*
X0231390Y0172165D02*
X0233778Y0172165D01*
X0233308Y0171366D02*
X0230965Y0171366D01*
X0230822Y0170568D02*
X0233022Y0170568D01*
X0233022Y0169769D02*
X0230822Y0169769D01*
X0230822Y0168971D02*
X0233168Y0168971D01*
X0233499Y0168172D02*
X0230822Y0168172D01*
X0230822Y0167374D02*
X0233987Y0167374D01*
X0233394Y0166575D02*
X0230822Y0166575D01*
X0230822Y0165777D02*
X0233110Y0165777D01*
X0233118Y0164180D02*
X0230822Y0164180D01*
X0230822Y0164978D02*
X0236222Y0164978D01*
X0236222Y0164180D02*
X0236622Y0164180D01*
X0236622Y0163381D02*
X0236222Y0163381D01*
X0236222Y0162583D02*
X0236622Y0162583D01*
X0236622Y0161784D02*
X0236222Y0161784D01*
X0236222Y0160986D02*
X0236622Y0160986D01*
X0236222Y0160187D02*
X0230822Y0160187D01*
X0230822Y0159389D02*
X0233077Y0159389D01*
X0233326Y0158590D02*
X0230822Y0158590D01*
X0230822Y0157792D02*
X0233822Y0157792D01*
X0233606Y0156993D02*
X0230822Y0156993D01*
X0230822Y0156195D02*
X0233236Y0156195D01*
X0233022Y0155396D02*
X0230822Y0155396D01*
X0230822Y0154598D02*
X0233022Y0154598D01*
X0233239Y0153799D02*
X0230822Y0153799D01*
X0230822Y0153001D02*
X0233613Y0153001D01*
X0233815Y0152202D02*
X0230822Y0152202D01*
X0230822Y0151403D02*
X0233323Y0151403D01*
X0233075Y0150605D02*
X0230822Y0150605D01*
X0230822Y0149806D02*
X0236222Y0149806D01*
X0233529Y0148209D02*
X0230822Y0148209D01*
X0230822Y0149008D02*
X0233153Y0149008D01*
X0233151Y0160986D02*
X0230822Y0160986D01*
X0230822Y0161784D02*
X0233525Y0161784D01*
X0234031Y0162583D02*
X0230822Y0162583D01*
X0230822Y0163381D02*
X0233414Y0163381D01*
X0205848Y0143418D02*
X0205322Y0143418D01*
X0134557Y0129045D02*
X0132265Y0129045D01*
X0132593Y0128247D02*
X0134227Y0128247D01*
X0134069Y0127448D02*
X0132758Y0127448D01*
X0130949Y0123456D02*
X0135810Y0123456D01*
X0114720Y0107485D02*
X0110613Y0107485D01*
X0111244Y0106687D02*
X0113922Y0106687D01*
X0113123Y0105888D02*
X0111645Y0105888D01*
X0099831Y0074746D02*
X0082322Y0074746D01*
X0082322Y0073948D02*
X0097981Y0073948D01*
X0097183Y0073149D02*
X0082322Y0073149D01*
X0082322Y0072351D02*
X0096384Y0072351D01*
X0095753Y0071552D02*
X0082322Y0071552D01*
X0082322Y0070754D02*
X0095422Y0070754D01*
X0095091Y0069955D02*
X0082322Y0069955D01*
X0082322Y0069157D02*
X0094761Y0069157D01*
X0094699Y0068358D02*
X0082322Y0068358D01*
X0082322Y0067560D02*
X0094699Y0067560D01*
X0094699Y0066761D02*
X0082322Y0066761D01*
X0082322Y0065963D02*
X0094699Y0065963D01*
X0095022Y0065164D02*
X0082322Y0065164D01*
X0082322Y0064366D02*
X0095353Y0064366D01*
X0095684Y0063567D02*
X0082322Y0063567D01*
X0082322Y0062769D02*
X0096217Y0062769D01*
X0097016Y0061970D02*
X0082322Y0061970D01*
X0082730Y0061172D02*
X0097814Y0061172D01*
X0099428Y0060373D02*
X0083528Y0060373D01*
X0084327Y0059575D02*
X0127622Y0059575D01*
X0127622Y0060373D02*
X0105369Y0060373D01*
X0106982Y0061172D02*
X0127622Y0061172D01*
X0127622Y0061970D02*
X0107780Y0061970D01*
X0108579Y0062769D02*
X0127622Y0062769D01*
X0127659Y0063567D02*
X0109112Y0063567D01*
X0109443Y0064366D02*
X0141122Y0064366D01*
X0141122Y0065164D02*
X0109774Y0065164D01*
X0110097Y0065963D02*
X0141122Y0065963D01*
X0141122Y0063567D02*
X0138384Y0063567D01*
X0138422Y0062769D02*
X0141122Y0062769D01*
X0141122Y0061970D02*
X0138422Y0061970D01*
X0138422Y0061172D02*
X0141122Y0061172D01*
X0141122Y0060373D02*
X0138422Y0060373D01*
X0138422Y0059575D02*
X0141122Y0059575D01*
X0141122Y0058776D02*
X0138422Y0058776D01*
X0138422Y0057978D02*
X0141122Y0057978D01*
X0141122Y0057179D02*
X0138422Y0057179D01*
X0138422Y0056381D02*
X0141122Y0056381D01*
X0142922Y0059575D02*
X0147338Y0059575D01*
X0147491Y0060373D02*
X0142922Y0060373D01*
X0142922Y0061172D02*
X0147778Y0061172D01*
X0148226Y0061970D02*
X0142922Y0061970D01*
X0142922Y0062769D02*
X0148889Y0062769D01*
X0149875Y0063567D02*
X0142922Y0063567D01*
X0152307Y0063567D02*
X0153107Y0063567D01*
X0153107Y0062769D02*
X0152307Y0062769D01*
X0152307Y0061970D02*
X0153107Y0061970D01*
X0153107Y0061172D02*
X0152307Y0061172D01*
X0152307Y0060373D02*
X0153107Y0060373D01*
X0153107Y0059575D02*
X0152307Y0059575D01*
X0152307Y0057179D02*
X0153107Y0057179D01*
X0153107Y0056381D02*
X0152307Y0056381D01*
X0152307Y0055582D02*
X0153107Y0055582D01*
X0153107Y0054784D02*
X0152307Y0054784D01*
X0152307Y0053985D02*
X0153107Y0053985D01*
X0132918Y0066761D02*
X0110097Y0066761D01*
X0127622Y0058776D02*
X0085125Y0058776D01*
X0085924Y0057978D02*
X0127622Y0057978D01*
X0127622Y0057179D02*
X0086722Y0057179D01*
X0087521Y0056381D02*
X0127622Y0056381D01*
X0127622Y0055582D02*
X0088319Y0055582D01*
X0089118Y0054784D02*
X0127622Y0054784D01*
X0128007Y0053985D02*
X0089917Y0053985D01*
X0184739Y0082732D02*
X0213104Y0082732D01*
X0215739Y0082732D02*
X0217422Y0082732D01*
X0217422Y0083530D02*
X0216627Y0083530D01*
X0216958Y0084329D02*
X0217422Y0084329D01*
X0217422Y0085127D02*
X0217022Y0085127D01*
X0216853Y0085926D02*
X0217422Y0085926D01*
X0217422Y0086724D02*
X0216375Y0086724D01*
X0115848Y0143418D02*
X0106322Y0143418D01*
X0106322Y0144217D02*
X0115049Y0144217D01*
X0114532Y0145015D02*
X0106322Y0145015D01*
X0106322Y0145814D02*
X0114202Y0145814D01*
X0114069Y0146612D02*
X0106322Y0146612D01*
X0106322Y0147411D02*
X0114069Y0147411D01*
X0114211Y0148209D02*
X0106322Y0148209D01*
X0106322Y0149008D02*
X0114542Y0149008D01*
X0115072Y0149806D02*
X0106322Y0149806D01*
X0102522Y0152202D02*
X0100301Y0152202D01*
X0100822Y0153001D02*
X0102522Y0153001D01*
X0102522Y0153799D02*
X0101022Y0153799D01*
X0100988Y0154598D02*
X0102522Y0154598D01*
X0102522Y0155396D02*
X0100658Y0155396D01*
X0099904Y0156195D02*
X0102522Y0156195D01*
X0102522Y0156993D02*
X0099495Y0156993D01*
X0099252Y0157792D02*
X0102522Y0157792D01*
X0102522Y0158590D02*
X0099008Y0158590D01*
X0098822Y0159389D02*
X0102522Y0159389D01*
X0102522Y0160187D02*
X0098759Y0160187D01*
X0098759Y0160986D02*
X0102522Y0160986D01*
X0102522Y0161784D02*
X0098759Y0161784D01*
X0097992Y0162583D02*
X0102522Y0162583D01*
X0093969Y0162583D02*
X0092625Y0162583D01*
X0091152Y0162583D02*
X0090574Y0162583D01*
X0090574Y0161784D02*
X0091152Y0161784D01*
X0091152Y0160986D02*
X0090574Y0160986D01*
X0090574Y0160187D02*
X0091152Y0160187D01*
D31*
X0095981Y0159858D02*
X0095981Y0156287D01*
X0095193Y0155500D01*
X0098422Y0154000D02*
X0096922Y0158917D01*
X0095981Y0159858D01*
X0103422Y0165500D02*
X0104422Y0164500D01*
X0104422Y0140500D01*
X0113422Y0131500D01*
X0150422Y0131500D01*
X0152922Y0129000D01*
X0172922Y0129000D01*
X0175922Y0132000D01*
X0184422Y0132000D01*
X0187922Y0135500D01*
X0218422Y0135500D01*
X0228922Y0146000D01*
X0239922Y0146000D01*
X0241422Y0147500D01*
X0241422Y0150000D01*
X0228922Y0146000D02*
X0228922Y0173000D01*
X0225922Y0173000D02*
X0225922Y0166000D01*
X0219922Y0161100D02*
X0216822Y0158000D01*
X0208422Y0158000D01*
X0208422Y0161000D01*
X0206922Y0162500D01*
X0205622Y0165200D02*
X0203422Y0163000D01*
X0203422Y0140500D01*
X0196422Y0139500D02*
X0193422Y0142500D01*
X0193422Y0151000D01*
X0174922Y0169500D01*
X0169922Y0169000D02*
X0169922Y0165500D01*
X0168422Y0164000D01*
X0168422Y0159000D01*
X0173922Y0153500D01*
X0177422Y0154500D02*
X0180922Y0154500D01*
X0188422Y0147000D01*
X0188422Y0142000D01*
X0180922Y0134500D01*
X0174922Y0134500D01*
X0172422Y0132000D01*
X0153922Y0132000D01*
X0152922Y0133000D01*
X0152922Y0139500D01*
X0150422Y0142000D01*
X0132922Y0142000D01*
X0138422Y0147000D02*
X0134922Y0150500D01*
X0134922Y0160500D01*
X0135922Y0161500D01*
X0135922Y0180500D01*
X0133422Y0183000D01*
X0137922Y0186000D02*
X0142422Y0181500D01*
X0142422Y0174500D01*
X0145422Y0176500D02*
X0162422Y0159000D01*
X0162922Y0159000D01*
X0173422Y0148500D01*
X0173422Y0142500D01*
X0174922Y0141000D01*
X0174922Y0138000D01*
X0169422Y0135000D02*
X0167922Y0135000D01*
X0165922Y0136500D01*
X0165922Y0139928D01*
X0165981Y0139987D01*
X0163422Y0139987D02*
X0163422Y0149500D01*
X0161922Y0151500D01*
X0156922Y0151500D01*
X0152922Y0155500D01*
X0152922Y0160500D01*
X0156922Y0155000D02*
X0162922Y0155000D01*
X0164422Y0153500D01*
X0152922Y0150500D02*
X0139422Y0164000D01*
X0139422Y0178000D01*
X0145522Y0182900D02*
X0147922Y0180500D01*
X0147922Y0177000D01*
X0156922Y0168000D01*
X0165422Y0168000D01*
X0166922Y0172000D02*
X0158422Y0172000D01*
X0152422Y0178000D01*
X0154422Y0179700D02*
X0156122Y0178000D01*
X0158422Y0178000D01*
X0160422Y0174500D02*
X0205822Y0174600D01*
X0208722Y0171700D01*
X0208722Y0167800D01*
X0205622Y0165200D01*
X0202722Y0166000D02*
X0198922Y0166000D01*
X0192922Y0166000D01*
X0187922Y0161000D01*
X0192422Y0169000D02*
X0201822Y0169000D01*
X0204722Y0171900D01*
X0198922Y0166000D02*
X0198422Y0165500D01*
X0198422Y0147000D01*
X0208422Y0147000D02*
X0208422Y0158000D01*
X0219922Y0161100D02*
X0219922Y0174100D01*
X0216922Y0177200D01*
X0214522Y0179600D01*
X0206822Y0179600D01*
X0204322Y0177100D02*
X0199022Y0182400D01*
X0195522Y0182400D01*
X0188922Y0189000D01*
X0185422Y0192000D02*
X0192922Y0192000D01*
X0193422Y0192000D01*
X0208422Y0207000D01*
X0198422Y0207000D02*
X0188922Y0197500D01*
X0176922Y0197500D01*
X0168422Y0189000D01*
X0167922Y0185000D02*
X0178422Y0185000D01*
X0185422Y0192000D01*
X0180422Y0195500D02*
X0191422Y0195500D01*
X0192922Y0197000D01*
X0193422Y0197000D01*
X0198422Y0192000D02*
X0204122Y0186300D01*
X0212722Y0186200D01*
X0218522Y0180400D01*
X0237422Y0180500D01*
X0244522Y0173400D01*
X0244522Y0168000D01*
X0241422Y0165000D01*
X0225922Y0173000D02*
X0223422Y0175500D01*
X0216322Y0171200D02*
X0210522Y0177100D01*
X0204322Y0177100D01*
X0194922Y0179500D02*
X0192922Y0177500D01*
X0177922Y0177500D01*
X0173922Y0178500D02*
X0173922Y0181500D01*
X0178422Y0181500D01*
X0179922Y0183000D01*
X0173922Y0181500D02*
X0168422Y0181500D01*
X0160422Y0184500D02*
X0160422Y0185500D01*
X0174922Y0200000D01*
X0181422Y0200000D01*
X0188422Y0207000D01*
X0178422Y0207000D02*
X0157422Y0186000D01*
X0157422Y0182500D01*
X0154422Y0179700D02*
X0154422Y0187000D01*
X0168422Y0201000D01*
X0168422Y0207000D01*
X0180422Y0195500D02*
X0179722Y0194700D01*
X0156922Y0194500D02*
X0156422Y0194000D01*
X0153390Y0194000D01*
X0149453Y0194000D02*
X0144922Y0194000D01*
X0148697Y0193744D02*
X0140422Y0193744D01*
X0141422Y0190500D02*
X0135922Y0190500D01*
X0135922Y0202500D01*
X0141422Y0202500D01*
X0143422Y0204500D01*
X0145922Y0204500D01*
X0148422Y0207000D01*
X0148697Y0199256D02*
X0140422Y0199256D01*
X0144922Y0199000D02*
X0149453Y0199000D01*
X0148697Y0199256D01*
X0149453Y0194000D02*
X0148697Y0193744D01*
X0145922Y0186500D02*
X0141422Y0190500D01*
X0139922Y0188500D02*
X0140222Y0188300D01*
X0145622Y0182900D01*
X0145522Y0182900D01*
X0139922Y0188500D02*
X0133922Y0188500D01*
X0132422Y0190000D01*
X0132422Y0197000D01*
X0128422Y0201000D01*
X0128422Y0207000D01*
X0126422Y0197500D02*
X0126422Y0187500D01*
X0119422Y0180500D01*
X0129422Y0170000D02*
X0129422Y0196000D01*
X0129422Y0170000D02*
X0132922Y0166500D01*
X0132922Y0164500D01*
X0143422Y0155000D02*
X0140922Y0152500D01*
X0137922Y0152500D01*
X0152922Y0150500D02*
X0152922Y0143000D01*
X0155745Y0140177D01*
X0155745Y0139987D01*
X0158304Y0139987D02*
X0158304Y0136882D01*
X0155922Y0134500D01*
X0160863Y0138059D02*
X0163422Y0136000D01*
X0160863Y0138059D02*
X0160863Y0139987D01*
X0177422Y0129500D02*
X0218422Y0129500D01*
X0222422Y0133500D01*
X0197922Y0132500D02*
X0190422Y0132500D01*
X0165922Y0121500D02*
X0164922Y0121500D01*
X0163422Y0120000D01*
X0163422Y0117013D01*
X0160922Y0117072D02*
X0160922Y0121500D01*
X0158304Y0124118D02*
X0158922Y0125000D01*
X0163922Y0125000D01*
X0158304Y0124118D02*
X0158304Y0117013D01*
X0160863Y0117013D02*
X0160876Y0117014D01*
X0160889Y0117019D01*
X0160900Y0117026D01*
X0160909Y0117035D01*
X0160916Y0117046D01*
X0160921Y0117059D01*
X0160922Y0117072D01*
X0162922Y0108500D02*
X0162922Y0105500D01*
X0160922Y0103500D01*
X0142422Y0102500D02*
X0140890Y0102500D01*
X0139390Y0104000D01*
X0135453Y0104000D02*
X0135453Y0108840D01*
X0134912Y0109381D01*
X0135530Y0110000D01*
X0139922Y0110000D01*
X0127432Y0109381D02*
X0126890Y0108840D01*
X0126890Y0104000D01*
X0127432Y0109381D02*
X0119303Y0109381D01*
X0112172Y0102250D01*
X0143335Y0119619D02*
X0143453Y0119500D01*
X0108422Y0160000D02*
X0107422Y0161000D01*
X0107422Y0163978D01*
X0107422Y0167522D02*
X0106400Y0167522D01*
X0104922Y0169000D01*
X0095280Y0169000D01*
X0093422Y0167142D01*
X0166922Y0172000D02*
X0169922Y0169000D01*
X0216322Y0170000D02*
X0216322Y0171200D01*
D32*
X0216322Y0170000D03*
X0223422Y0175500D03*
X0228922Y0173000D03*
X0225922Y0166000D03*
X0206922Y0162500D03*
X0202722Y0166000D03*
X0204722Y0171900D03*
X0192422Y0169000D03*
X0187922Y0161000D03*
X0177422Y0154500D03*
X0173922Y0153500D03*
X0164422Y0153500D03*
X0156922Y0155000D03*
X0152922Y0160500D03*
X0143422Y0155000D03*
X0137922Y0152500D03*
X0132922Y0142000D03*
X0155922Y0134500D03*
X0163422Y0136000D03*
X0169422Y0135000D03*
X0174922Y0138000D03*
X0177422Y0129500D03*
X0190422Y0132500D03*
X0197922Y0132500D03*
X0196422Y0139500D03*
X0203422Y0140500D03*
X0222422Y0133500D03*
X0221922Y0120000D03*
X0165922Y0121500D03*
X0163922Y0125000D03*
X0160922Y0121500D03*
X0139922Y0110000D03*
X0142422Y0102500D03*
X0160922Y0103500D03*
X0162922Y0108500D03*
X0122422Y0114500D03*
X0108922Y0105500D03*
X0120422Y0088000D03*
X0179422Y0062500D03*
X0204922Y0062500D03*
X0214422Y0085000D03*
X0183422Y0085000D03*
X0104422Y0140500D03*
X0098422Y0154000D03*
X0108422Y0160000D03*
X0103422Y0165500D03*
X0119422Y0180500D03*
X0133422Y0183000D03*
X0137922Y0186000D03*
X0145922Y0186500D03*
X0144922Y0194000D03*
X0144922Y0199000D03*
X0156922Y0194500D03*
X0168422Y0189000D03*
X0167922Y0185000D03*
X0168422Y0181500D03*
X0173922Y0178500D03*
X0177922Y0177500D03*
X0179922Y0183000D03*
X0188922Y0189000D03*
X0192922Y0192000D03*
X0193422Y0197000D03*
X0198422Y0192000D03*
X0194922Y0179500D03*
X0206822Y0179600D03*
X0179722Y0194700D03*
X0160422Y0184500D03*
X0157422Y0182500D03*
X0158422Y0178000D03*
X0160422Y0174500D03*
X0152422Y0178000D03*
X0145422Y0176500D03*
X0142422Y0174500D03*
X0139422Y0178000D03*
X0132922Y0164500D03*
X0165422Y0168000D03*
X0174922Y0169500D03*
X0129422Y0196000D03*
X0126422Y0197500D03*
D33*
X0148422Y0127000D02*
X0143453Y0122031D01*
X0143453Y0119500D01*
X0143335Y0119619D02*
X0134912Y0119619D01*
X0122422Y0114500D02*
X0150922Y0114500D01*
X0156410Y0109012D01*
X0156410Y0107500D01*
X0167434Y0107500D02*
X0170922Y0107500D01*
X0177422Y0114000D01*
X0177422Y0122000D01*
X0181422Y0126000D01*
X0215922Y0126000D01*
X0221922Y0120000D01*
X0214422Y0085000D02*
X0183422Y0085000D01*
X0145922Y0101000D02*
X0143922Y0099000D01*
X0115422Y0099000D01*
X0112172Y0102250D01*
X0108922Y0105500D01*
X0139922Y0110000D02*
X0145922Y0104000D01*
X0145922Y0101000D01*
X0179422Y0062500D02*
X0179422Y0062052D01*
X0179472Y0062002D01*
D34*
X0193472Y0093600D03*
X0198472Y0093600D03*
X0203472Y0093600D03*
X0203472Y0103600D03*
X0198472Y0103600D03*
X0193472Y0103600D03*
D35*
X0152707Y0058950D02*
X0142657Y0069000D01*
X0134922Y0069000D01*
X0120422Y0083500D01*
X0120422Y0088000D01*
D36*
X0152707Y0058950D02*
X0155758Y0062002D01*
X0179472Y0062002D01*
X0179422Y0062500D02*
X0204922Y0062500D01*
M02*
