%
M48
M72
T01C0.01200
T02C0.02362
T03C0.02400
T04C0.02900
T05C0.03937
T06C0.04000
T07C0.05118
T08C0.12598
%
T01
X120922Y55000
X160922Y70000
X176422Y61500
X195922Y61500
X183422Y84000
X180922Y95000
X175922Y103500
X160422Y103000
X160922Y112000
X181422Y123000
X192422Y125500
X199922Y129000
X203922Y134500
X211422Y130000
X202922Y122000
X221922Y119500
X189422Y133500
X181922Y130000
X163422Y127500
X161422Y135500
X157422Y135500
X164922Y152500
X170422Y152500
X159422Y157500
X173922Y164000
X173422Y167500
X180922Y168000
X184922Y165000
X176922Y159500
X186922Y154000
X202422Y157000
X205422Y164000
X208922Y168000
X191922Y172500
X187422Y178500
X177422Y175000
X174922Y177500
X165422Y179500
X169422Y184500
X173422Y184500
X180422Y187000
X180422Y190000
X183922Y185500
X191422Y193500
X190922Y196500
X193922Y199500
X183422Y200500
X161922Y192500
X160922Y186500
X157922Y184000
X150922Y184500
X148722Y192500
X140422Y188000
X140422Y181500
X129422Y179500
X126422Y181500
X118922Y177000
X135422Y174500
X140922Y167000
X129422Y162000
X145422Y160500
X155422Y167000
X156422Y172000
X157422Y177000
X125422Y187500
X123422Y196000
X133422Y196000
X141422Y198500
X154922Y198500
X205922Y185000
X221922Y158000
X213922Y151500
X222422Y143000
X215922Y100000
X234422Y99500
X240922Y90000
X214422Y84000
X165922Y95000
X155922Y85000
X129922Y85500
X105922Y85000
X85922Y90000
X85922Y115000
X105922Y130000
X85922Y140000
X100422Y153000
X111422Y155000
X105422Y159000
X93922Y173000
T02
X174422Y139000
X174422Y134500
X152422Y121000
X193472Y102600
X198472Y102600
X203472Y102600
X203472Y97600
X198472Y97600
X193472Y97600
X193472Y92600
X198472Y92600
X203472Y92600
X206922Y79000
X211922Y76000
X186922Y75500
X138922Y84000
T03
X236422Y149000
X241422Y149000
X241422Y154000
X241422Y159000
X241422Y164000
X241422Y169000
X236422Y169000
X236422Y164000
X236422Y159000
X236422Y154000
T04
X145922Y50000
X140922Y50000
T05
X138422Y125500
X148422Y125500
X148422Y135500
X138422Y135500
X128422Y135500
X118422Y135500
X118422Y145500
X128422Y145500
X138422Y145500
X148422Y145500
X158422Y145500
X168422Y145500
X178422Y145500
X188422Y145500
X198422Y145500
X208422Y145500
X128422Y125500
X118422Y125500
X118422Y205500
X128422Y205500
X138422Y205500
X148422Y205500
X158422Y205500
X168422Y205500
X178422Y205500
X188422Y205500
X198422Y205500
X208422Y205500
T06
X204422Y50000
X194422Y50000
X184422Y50000
X174422Y50000
T07
X152707Y57950
X133022Y57950
T08
X102398Y66476
X224445Y66476
X224445Y188524
X102398Y188524
M30
