%
M48
M72
T01C0.01200
T02C0.02362
T03C0.02400
T04C0.02900
T05C0.03937
T06C0.04000
T07C0.05118
T08C0.12598
%
T01
X120422Y88000
X142422Y102500
X139922Y110000
X122422Y114500
X108922Y105500
X160922Y103500
X162922Y108500
X160922Y121500
X163922Y125000
X165922Y121500
X177422Y129500
X169422Y135000
X163422Y136000
X155922Y134500
X174922Y138000
X190422Y132500
X197922Y132500
X196422Y139500
X203422Y140500
X222422Y133500
X221922Y120000
X214422Y85000
X204922Y62500
X179422Y62500
X183422Y85000
X104422Y140500
X98422Y154000
X108422Y160000
X103422Y165500
X119422Y180500
X133422Y183000
X137922Y186000
X145922Y186500
X144922Y194000
X144922Y199000
X156922Y194500
X168422Y189000
X167922Y185000
X168422Y181500
X173922Y178500
X177922Y177500
X179922Y183000
X188922Y189000
X192922Y192000
X193422Y197000
X198422Y192000
X194922Y179500
X206822Y179600
X223422Y175500
X228922Y173000
X225922Y166000
X216322Y170000
X204722Y171900
X202722Y166000
X206922Y162500
X192422Y169000
X187922Y161000
X177422Y154500
X173922Y153500
X164422Y153500
X156922Y155000
X152922Y160500
X143422Y155000
X137922Y152500
X132922Y142000
X132922Y164500
X142422Y174500
X145422Y176500
X139422Y178000
X152422Y178000
X158422Y178000
X160422Y174500
X165422Y168000
X174922Y169500
X157422Y182500
X160422Y184500
X179722Y194700
X129422Y196000
X126422Y197500
T02
X193472Y93600
X198472Y93600
X203472Y93600
X203472Y103600
X198472Y103600
X193472Y103600
T03
X241422Y150000
X241422Y155000
X241422Y160000
X241422Y165000
X236422Y165000
X236422Y160000
X236422Y155000
X236422Y150000
X236422Y170000
X241422Y170000
T04
X140922Y51000
X145922Y51000
T05
X118422Y127000
X128422Y127000
X138422Y127000
X148422Y127000
X148422Y137000
X138422Y137000
X128422Y137000
X118422Y137000
X118422Y147000
X128422Y147000
X138422Y147000
X148422Y147000
X158422Y147000
X168422Y147000
X178422Y147000
X188422Y147000
X198422Y147000
X208422Y147000
X208422Y207000
X198422Y207000
X188422Y207000
X178422Y207000
X168422Y207000
X158422Y207000
X148422Y207000
X138422Y207000
X128422Y207000
X118422Y207000
T06
X174422Y51000
X184422Y51000
X194422Y51000
X204422Y51000
T07
X133022Y58950
X152707Y58950
T08
X102398Y67476
X224445Y67476
X224445Y189524
X102398Y189524
M30
