G75*
%MOIN*%
%OFA0B0*%
%FSLAX25Y25*%
%IPPOS*%
%LPD*%
%AMOC8*
5,1,8,0,0,1.08239X$1,22.5*
%
%ADD10R,0.26000X0.21500*%
%ADD11R,0.02369X0.02369*%
%ADD12R,0.02565X0.05124*%
%ADD13R,0.02762X0.01975*%
%ADD14R,0.05518X0.06306*%
%ADD15R,0.04731X0.02762*%
%ADD16R,0.03156X0.03156*%
%ADD17C,0.04400*%
%ADD18R,0.08400X0.08400*%
%ADD19C,0.08400*%
%ADD20C,0.12998*%
%ADD21R,0.01600X0.04300*%
%ADD22R,0.07800X0.07800*%
%ADD23C,0.07800*%
%ADD24C,0.06400*%
%ADD25C,0.03943*%
%ADD26R,0.01975X0.02762*%
%ADD27R,0.04337X0.07487*%
%ADD28C,0.06306*%
D10*
X0198422Y0097250D03*
D11*
X0126890Y0103000D03*
X0122953Y0103000D03*
X0149453Y0193000D03*
X0153390Y0193000D03*
X0153390Y0198000D03*
X0149453Y0198000D03*
D12*
X0134912Y0118619D03*
X0127432Y0118619D03*
X0127432Y0108381D03*
X0131172Y0108381D03*
X0134912Y0108381D03*
D13*
X0107422Y0162978D03*
X0107422Y0166522D03*
D14*
X0141682Y0118894D03*
X0149162Y0118894D03*
X0140369Y0096000D03*
X0132889Y0096000D03*
D15*
X0140422Y0192744D03*
X0140422Y0198256D03*
D16*
X0093422Y0166142D03*
X0095981Y0158858D03*
X0090863Y0158858D03*
D17*
X0236422Y0159000D03*
X0241422Y0159000D03*
X0241422Y0164000D03*
X0236422Y0164000D03*
X0236422Y0169000D03*
X0241422Y0169000D03*
X0241422Y0154000D03*
X0241422Y0149000D03*
X0236422Y0149000D03*
X0236422Y0154000D03*
D18*
X0133022Y0057950D03*
D19*
X0152707Y0057950D03*
D20*
X0102398Y0066476D03*
X0224445Y0066476D03*
X0224445Y0188524D03*
X0102398Y0188524D03*
D21*
X0155745Y0138987D03*
X0158304Y0138987D03*
X0160863Y0138987D03*
X0163422Y0138987D03*
X0165981Y0138987D03*
X0168540Y0138987D03*
X0171099Y0138987D03*
X0171099Y0116013D03*
X0168540Y0116013D03*
X0165981Y0116013D03*
X0163422Y0116013D03*
X0160863Y0116013D03*
X0158304Y0116013D03*
X0155745Y0116013D03*
D22*
X0174422Y0050000D03*
D23*
X0184422Y0050000D03*
X0194422Y0050000D03*
X0204422Y0050000D03*
D24*
X0145922Y0050000D03*
X0140922Y0050000D03*
D25*
X0237556Y0111402D02*
X0237556Y0111402D01*
X0240312Y0111402D01*
X0240312Y0111402D01*
X0237556Y0111402D01*
X0237556Y0137386D02*
X0237556Y0137386D01*
X0240312Y0137386D01*
X0240312Y0137386D01*
X0237556Y0137386D01*
D26*
X0095193Y0154500D03*
X0091650Y0154500D03*
D27*
X0156410Y0106500D03*
X0167434Y0106500D03*
D28*
X0148422Y0126000D03*
X0138422Y0126000D03*
X0128422Y0126000D03*
X0118422Y0126000D03*
X0118422Y0136000D03*
X0128422Y0136000D03*
X0138422Y0136000D03*
X0148422Y0136000D03*
X0148422Y0146000D03*
X0158422Y0146000D03*
X0168422Y0146000D03*
X0178422Y0146000D03*
X0188422Y0146000D03*
X0198422Y0146000D03*
X0208422Y0146000D03*
X0138422Y0146000D03*
X0128422Y0146000D03*
X0118422Y0146000D03*
X0118422Y0206000D03*
X0128422Y0206000D03*
X0138422Y0206000D03*
X0148422Y0206000D03*
X0158422Y0206000D03*
X0168422Y0206000D03*
X0178422Y0206000D03*
X0188422Y0206000D03*
X0198422Y0206000D03*
X0208422Y0206000D03*
M02*
