G75*
%MOIN*%
%OFA0B0*%
%FSLAX25Y25*%
%IPPOS*%
%LPD*%
%AMOC8*
5,1,8,0,0,1.08239X$1,22.5*
%
%ADD10C,0.00300*%
%ADD11C,0.01328*%
%ADD12R,0.02369X0.02369*%
%ADD13R,0.05124X0.05124*%
%ADD14R,0.01975X0.02762*%
%ADD15R,0.02369X0.02369*%
%ADD16R,0.02762X0.03550*%
%ADD17R,0.03550X0.02762*%
%ADD18C,0.04400*%
%ADD19R,0.12211X0.05912*%
%ADD20R,0.03550X0.03550*%
%ADD21R,0.07498X0.06699*%
%ADD22R,0.01975X0.06699*%
%ADD23R,0.08400X0.08400*%
%ADD24C,0.08400*%
%ADD25C,0.12998*%
%ADD26R,0.07800X0.07800*%
%ADD27C,0.07800*%
%ADD28C,0.06400*%
%ADD29R,0.05715X0.01975*%
%ADD30R,0.05912X0.06699*%
%ADD31R,0.07880X0.07880*%
%ADD32C,0.03943*%
%ADD33R,0.03943X0.03550*%
%ADD34R,0.04337X0.04731*%
%ADD35R,0.05124X0.02565*%
%ADD36C,0.00591*%
%ADD37R,0.03550X0.03943*%
%ADD38R,0.02762X0.01975*%
%ADD39C,0.06306*%
%ADD40R,0.00025X0.00425*%
%ADD41R,0.00025X0.00350*%
%ADD42R,0.00025X0.00325*%
%ADD43R,0.00025X0.00750*%
%ADD44R,0.00025X0.00650*%
%ADD45R,0.00025X0.00575*%
%ADD46R,0.00025X0.00300*%
%ADD47R,0.00025X0.00675*%
%ADD48R,0.00025X0.01000*%
%ADD49R,0.00025X0.00850*%
%ADD50R,0.00025X0.00875*%
%ADD51R,0.00025X0.01450*%
%ADD52R,0.00025X0.01425*%
%ADD53R,0.00025X0.01150*%
%ADD54R,0.00025X0.01575*%
%ADD55R,0.00025X0.01175*%
%ADD56R,0.00025X0.01075*%
%ADD57R,0.00025X0.00775*%
%ADD58R,0.00025X0.01300*%
%ADD59R,0.00025X0.00600*%
%ADD60R,0.00025X0.01125*%
%ADD61R,0.00025X0.01550*%
%ADD62R,0.00025X0.01625*%
%ADD63R,0.00025X0.01200*%
%ADD64R,0.00025X0.01025*%
%ADD65R,0.00025X0.01275*%
%ADD66R,0.00025X0.00925*%
%ADD67R,0.00025X0.00800*%
%ADD68R,0.00025X0.00725*%
%ADD69R,0.00025X0.01400*%
%ADD70R,0.00025X0.01250*%
%ADD71R,0.00025X0.01100*%
%ADD72R,0.00025X0.01050*%
%ADD73R,0.00025X0.01500*%
%ADD74R,0.00025X0.01350*%
%ADD75R,0.00025X0.01375*%
%ADD76R,0.00025X0.02550*%
%ADD77R,0.00025X0.01675*%
%ADD78R,0.00025X0.01525*%
%ADD79R,0.00025X0.02425*%
%ADD80R,0.00025X0.02600*%
%ADD81R,0.00025X0.01775*%
%ADD82R,0.00025X0.01600*%
%ADD83R,0.00025X0.02450*%
%ADD84R,0.00025X0.02625*%
%ADD85R,0.00025X0.01850*%
%ADD86R,0.00025X0.02500*%
%ADD87R,0.00025X0.02675*%
%ADD88R,0.00025X0.01700*%
%ADD89R,0.00025X0.01925*%
%ADD90R,0.00025X0.01750*%
%ADD91R,0.00025X0.02525*%
%ADD92R,0.00025X0.02700*%
%ADD93R,0.00025X0.02575*%
%ADD94R,0.00025X0.02000*%
%ADD95R,0.00025X0.01825*%
%ADD96R,0.00025X0.02750*%
%ADD97R,0.00025X0.00900*%
%ADD98R,0.00025X0.02050*%
%ADD99R,0.00025X0.01875*%
%ADD100R,0.00025X0.02775*%
%ADD101R,0.00025X0.02075*%
%ADD102R,0.00025X0.02800*%
%ADD103R,0.00025X0.02650*%
%ADD104R,0.00025X0.00950*%
%ADD105R,0.00025X0.01975*%
%ADD106R,0.00025X0.02825*%
%ADD107R,0.00025X0.02100*%
%ADD108R,0.00025X0.02025*%
%ADD109R,0.00025X0.02850*%
%ADD110R,0.00025X0.02875*%
%ADD111R,0.00025X0.02125*%
%ADD112R,0.00025X0.02900*%
%ADD113R,0.00025X0.02725*%
%ADD114R,0.00025X0.02175*%
%ADD115R,0.00025X0.02925*%
%ADD116R,0.00025X0.02150*%
%ADD117R,0.00025X0.02225*%
%ADD118R,0.00025X0.02950*%
%ADD119R,0.00025X0.02275*%
%ADD120R,0.00025X0.02975*%
%ADD121R,0.00025X0.02250*%
%ADD122R,0.00025X0.03000*%
%ADD123R,0.00025X0.02300*%
%ADD124R,0.00025X0.02325*%
%ADD125R,0.00025X0.02375*%
%ADD126R,0.00025X0.03025*%
%ADD127R,0.00025X0.03050*%
%ADD128R,0.00025X0.02400*%
%ADD129R,0.00025X0.01325*%
%ADD130R,0.00025X0.01475*%
%ADD131R,0.00025X0.02475*%
%ADD132R,0.00025X0.03075*%
%ADD133R,0.00025X0.00500*%
%ADD134R,0.00025X0.01225*%
%ADD135R,0.00025X0.00975*%
%ADD136R,0.00025X0.00400*%
%ADD137R,0.00025X0.01725*%
%ADD138R,0.00025X0.00275*%
%ADD139R,0.00025X0.00825*%
%ADD140R,0.00025X0.00200*%
%ADD141R,0.00025X0.00125*%
%ADD142R,0.00025X0.00025*%
%ADD143R,0.00025X0.00700*%
%ADD144R,0.00025X0.00175*%
%ADD145R,0.00025X0.00075*%
%ADD146R,0.00025X0.02200*%
%ADD147R,0.00025X0.00050*%
%ADD148R,0.00025X0.00150*%
%ADD149R,0.00025X0.00475*%
%ADD150R,0.00025X0.02350*%
%ADD151R,0.00025X0.01950*%
%ADD152R,0.00025X0.01800*%
%ADD153R,0.00025X0.01650*%
%ADD154R,0.00025X0.00450*%
%ADD155R,0.00025X0.00375*%
%ADD156R,0.04534X0.02959*%
D10*
X0220080Y0079450D02*
X0220781Y0080151D01*
X0220080Y0080851D01*
X0222182Y0080851D01*
X0221831Y0081660D02*
X0221131Y0081660D01*
X0220781Y0082010D01*
X0220781Y0082711D01*
X0221131Y0083061D01*
X0221481Y0083061D01*
X0221481Y0081660D01*
X0221831Y0081660D02*
X0222182Y0082010D01*
X0222182Y0082711D01*
X0221831Y0083870D02*
X0222182Y0084220D01*
X0222182Y0085271D01*
X0222182Y0086080D02*
X0220080Y0086080D01*
X0220781Y0086430D02*
X0220781Y0087131D01*
X0221131Y0087481D01*
X0222182Y0087481D01*
X0221831Y0088290D02*
X0221481Y0088640D01*
X0221481Y0089691D01*
X0221131Y0089691D02*
X0222182Y0089691D01*
X0222182Y0088640D01*
X0221831Y0088290D01*
X0220781Y0088640D02*
X0220781Y0089340D01*
X0221131Y0089691D01*
X0221131Y0090499D02*
X0220781Y0090850D01*
X0220781Y0091901D01*
X0220080Y0091901D02*
X0222182Y0091901D01*
X0222182Y0090850D01*
X0221831Y0090499D01*
X0221131Y0090499D01*
X0220781Y0092709D02*
X0221831Y0092709D01*
X0222182Y0093060D01*
X0222182Y0094110D01*
X0220781Y0094110D01*
X0220781Y0094919D02*
X0220781Y0095269D01*
X0222182Y0095269D01*
X0222182Y0094919D02*
X0222182Y0095620D01*
X0222182Y0096392D02*
X0220781Y0096392D01*
X0220781Y0097443D01*
X0221131Y0097794D01*
X0222182Y0097794D01*
X0221831Y0098602D02*
X0222182Y0098953D01*
X0222182Y0099653D01*
X0221831Y0100003D01*
X0221131Y0100003D01*
X0220781Y0099653D01*
X0220781Y0098953D01*
X0221131Y0098602D01*
X0221831Y0098602D01*
X0223680Y0098971D02*
X0225782Y0098971D01*
X0225782Y0098162D02*
X0225782Y0097111D01*
X0225431Y0096761D01*
X0224731Y0096761D01*
X0224381Y0097111D01*
X0224381Y0098162D01*
X0224731Y0098971D02*
X0224381Y0099321D01*
X0224381Y0100022D01*
X0224731Y0100372D01*
X0225782Y0100372D01*
X0227280Y0098530D02*
X0227630Y0097830D01*
X0228331Y0097129D01*
X0228331Y0098180D01*
X0228681Y0098530D01*
X0229031Y0098530D01*
X0229382Y0098180D01*
X0229382Y0097479D01*
X0229031Y0097129D01*
X0228331Y0097129D01*
X0229382Y0096320D02*
X0229382Y0094919D01*
X0229382Y0095620D02*
X0227280Y0095620D01*
X0227981Y0094919D01*
X0227630Y0094110D02*
X0229031Y0092709D01*
X0229382Y0093060D01*
X0229382Y0093760D01*
X0229031Y0094110D01*
X0227630Y0094110D01*
X0227280Y0093760D01*
X0227280Y0093060D01*
X0227630Y0092709D01*
X0229031Y0092709D01*
X0229382Y0091901D02*
X0229382Y0090499D01*
X0227981Y0091901D01*
X0227630Y0091901D01*
X0227280Y0091550D01*
X0227280Y0090850D01*
X0227630Y0090499D01*
X0227280Y0089691D02*
X0229382Y0088290D01*
X0229031Y0087481D02*
X0227630Y0087481D01*
X0229031Y0086080D01*
X0229382Y0086430D01*
X0229382Y0087131D01*
X0229031Y0087481D01*
X0227630Y0087481D02*
X0227280Y0087131D01*
X0227280Y0086430D01*
X0227630Y0086080D01*
X0229031Y0086080D01*
X0229382Y0085271D02*
X0229382Y0083870D01*
X0227981Y0085271D01*
X0227630Y0085271D01*
X0227280Y0084921D01*
X0227280Y0084220D01*
X0227630Y0083870D01*
X0227280Y0083061D02*
X0229382Y0081660D01*
X0229031Y0080851D02*
X0229382Y0080501D01*
X0229382Y0079800D01*
X0229031Y0079450D01*
X0228331Y0080151D02*
X0228331Y0080501D01*
X0228681Y0080851D01*
X0229031Y0080851D01*
X0228331Y0080501D02*
X0227981Y0080851D01*
X0227630Y0080851D01*
X0227280Y0080501D01*
X0227280Y0079800D01*
X0227630Y0079450D01*
X0225782Y0079800D02*
X0225782Y0080151D01*
X0225431Y0080501D01*
X0223680Y0080501D01*
X0223680Y0080151D02*
X0223680Y0080851D01*
X0224731Y0081660D02*
X0225431Y0081660D01*
X0225782Y0082010D01*
X0225782Y0082711D01*
X0225431Y0083061D01*
X0224731Y0083061D01*
X0224381Y0082711D01*
X0224381Y0082010D01*
X0224731Y0081660D01*
X0225782Y0079800D02*
X0225431Y0079450D01*
X0222182Y0079450D02*
X0220080Y0079450D01*
X0221131Y0083870D02*
X0221831Y0083870D01*
X0221131Y0083870D02*
X0220781Y0084220D01*
X0220781Y0085271D01*
X0221131Y0086080D02*
X0220781Y0086430D01*
X0223680Y0088640D02*
X0224030Y0088290D01*
X0225431Y0088290D01*
X0225782Y0088640D01*
X0225782Y0089340D01*
X0225431Y0089691D01*
X0225782Y0090499D02*
X0223680Y0090499D01*
X0224381Y0090850D02*
X0224381Y0091550D01*
X0224731Y0091901D01*
X0225782Y0091901D01*
X0225431Y0092709D02*
X0225782Y0093060D01*
X0225782Y0094110D01*
X0224381Y0094110D01*
X0224381Y0094919D02*
X0225782Y0094919D01*
X0225081Y0094919D02*
X0224381Y0095620D01*
X0224381Y0095970D01*
X0224381Y0092709D02*
X0225431Y0092709D01*
X0224381Y0090850D02*
X0224731Y0090499D01*
X0224030Y0089691D02*
X0223680Y0089340D01*
X0223680Y0088640D01*
X0224731Y0085271D02*
X0225081Y0085271D01*
X0225081Y0083870D01*
X0224731Y0083870D02*
X0224381Y0084220D01*
X0224381Y0084921D01*
X0224731Y0085271D01*
X0225782Y0084921D02*
X0225782Y0084220D01*
X0225431Y0083870D01*
X0224731Y0083870D01*
X0220080Y0095269D02*
X0219730Y0095269D01*
X0220430Y0103022D02*
X0220080Y0103372D01*
X0220080Y0104073D01*
X0220430Y0104423D01*
X0221831Y0103022D01*
X0222182Y0103372D01*
X0222182Y0104073D01*
X0221831Y0104423D01*
X0220430Y0104423D01*
X0220430Y0103022D02*
X0221831Y0103022D01*
X0221831Y0105232D02*
X0221831Y0105582D01*
X0222182Y0105582D01*
X0222182Y0105232D01*
X0221831Y0105232D01*
X0222182Y0106337D02*
X0222182Y0107738D01*
X0222182Y0107037D02*
X0220080Y0107037D01*
X0220781Y0106337D01*
D11*
X0173904Y0155471D02*
X0172195Y0157180D01*
X0172430Y0157415D01*
X0174139Y0155706D01*
X0173904Y0155471D01*
X0173047Y0156798D02*
X0172577Y0156798D01*
X0173587Y0158572D02*
X0175296Y0156863D01*
X0173587Y0158572D02*
X0173822Y0158807D01*
X0175531Y0157098D01*
X0175296Y0156863D01*
X0174439Y0158190D02*
X0173969Y0158190D01*
X0174979Y0159964D02*
X0176688Y0158255D01*
X0174979Y0159964D02*
X0175214Y0160199D01*
X0176923Y0158490D01*
X0176688Y0158255D01*
X0175831Y0159582D02*
X0175361Y0159582D01*
X0176371Y0161356D02*
X0178080Y0159647D01*
X0176371Y0161356D02*
X0176606Y0161591D01*
X0178315Y0159882D01*
X0178080Y0159647D01*
X0177223Y0160974D02*
X0176753Y0160974D01*
X0177763Y0162748D02*
X0179472Y0161039D01*
X0177763Y0162748D02*
X0177998Y0162983D01*
X0179707Y0161274D01*
X0179472Y0161039D01*
X0178615Y0162366D02*
X0178145Y0162366D01*
X0179155Y0164140D02*
X0180864Y0162431D01*
X0179155Y0164140D02*
X0179390Y0164375D01*
X0181099Y0162666D01*
X0180864Y0162431D01*
X0180007Y0163758D02*
X0179537Y0163758D01*
X0180547Y0165532D02*
X0182256Y0163823D01*
X0180547Y0165532D02*
X0180782Y0165767D01*
X0182491Y0164058D01*
X0182256Y0163823D01*
X0181399Y0165150D02*
X0180929Y0165150D01*
X0181939Y0166924D02*
X0183648Y0165215D01*
X0181939Y0166924D02*
X0182174Y0167159D01*
X0183883Y0165450D01*
X0183648Y0165215D01*
X0182791Y0166542D02*
X0182321Y0166542D01*
X0183331Y0168316D02*
X0185040Y0166607D01*
X0183331Y0168316D02*
X0183566Y0168551D01*
X0185275Y0166842D01*
X0185040Y0166607D01*
X0184183Y0167934D02*
X0183713Y0167934D01*
X0184723Y0169708D02*
X0186432Y0167999D01*
X0184723Y0169708D02*
X0184958Y0169943D01*
X0186667Y0168234D01*
X0186432Y0167999D01*
X0185575Y0169326D02*
X0185105Y0169326D01*
X0186115Y0171100D02*
X0187824Y0169391D01*
X0186115Y0171100D02*
X0186350Y0171335D01*
X0188059Y0169626D01*
X0187824Y0169391D01*
X0186967Y0170718D02*
X0186497Y0170718D01*
X0187507Y0172492D02*
X0189216Y0170783D01*
X0187507Y0172492D02*
X0187742Y0172727D01*
X0189451Y0171018D01*
X0189216Y0170783D01*
X0188359Y0172110D02*
X0187889Y0172110D01*
X0187742Y0179273D02*
X0189451Y0180982D01*
X0187742Y0179273D02*
X0187507Y0179508D01*
X0189216Y0181217D01*
X0189451Y0180982D01*
X0189069Y0180600D02*
X0188599Y0180600D01*
X0188059Y0182374D02*
X0186350Y0180665D01*
X0186115Y0180900D01*
X0187824Y0182609D01*
X0188059Y0182374D01*
X0187677Y0181992D02*
X0187207Y0181992D01*
X0186667Y0183766D02*
X0184958Y0182057D01*
X0184723Y0182292D01*
X0186432Y0184001D01*
X0186667Y0183766D01*
X0186285Y0183384D02*
X0185815Y0183384D01*
X0185275Y0185158D02*
X0183566Y0183449D01*
X0183331Y0183684D01*
X0185040Y0185393D01*
X0185275Y0185158D01*
X0184893Y0184776D02*
X0184423Y0184776D01*
X0183883Y0186550D02*
X0182174Y0184841D01*
X0181939Y0185076D01*
X0183648Y0186785D01*
X0183883Y0186550D01*
X0183501Y0186168D02*
X0183031Y0186168D01*
X0182491Y0187942D02*
X0180782Y0186233D01*
X0180547Y0186468D01*
X0182256Y0188177D01*
X0182491Y0187942D01*
X0182109Y0187560D02*
X0181639Y0187560D01*
X0181099Y0189334D02*
X0179390Y0187625D01*
X0179155Y0187860D01*
X0180864Y0189569D01*
X0181099Y0189334D01*
X0180717Y0188952D02*
X0180247Y0188952D01*
X0179707Y0190726D02*
X0177998Y0189017D01*
X0177763Y0189252D01*
X0179472Y0190961D01*
X0179707Y0190726D01*
X0179325Y0190344D02*
X0178855Y0190344D01*
X0178315Y0192118D02*
X0176606Y0190409D01*
X0176371Y0190644D01*
X0178080Y0192353D01*
X0178315Y0192118D01*
X0177933Y0191736D02*
X0177463Y0191736D01*
X0176923Y0193510D02*
X0175214Y0191801D01*
X0174979Y0192036D01*
X0176688Y0193745D01*
X0176923Y0193510D01*
X0176541Y0193128D02*
X0176071Y0193128D01*
X0175531Y0194902D02*
X0173822Y0193193D01*
X0173587Y0193428D01*
X0175296Y0195137D01*
X0175531Y0194902D01*
X0175149Y0194520D02*
X0174679Y0194520D01*
X0174139Y0196294D02*
X0172430Y0194585D01*
X0172195Y0194820D01*
X0173904Y0196529D01*
X0174139Y0196294D01*
X0173757Y0195912D02*
X0173287Y0195912D01*
X0165413Y0194585D02*
X0163704Y0196294D01*
X0163939Y0196529D01*
X0165648Y0194820D01*
X0165413Y0194585D01*
X0164556Y0195912D02*
X0164086Y0195912D01*
X0162312Y0194902D02*
X0164021Y0193193D01*
X0162312Y0194902D02*
X0162547Y0195137D01*
X0164256Y0193428D01*
X0164021Y0193193D01*
X0163164Y0194520D02*
X0162694Y0194520D01*
X0160920Y0193510D02*
X0162629Y0191801D01*
X0160920Y0193510D02*
X0161155Y0193745D01*
X0162864Y0192036D01*
X0162629Y0191801D01*
X0161772Y0193128D02*
X0161302Y0193128D01*
X0159528Y0192118D02*
X0161237Y0190409D01*
X0159528Y0192118D02*
X0159763Y0192353D01*
X0161472Y0190644D01*
X0161237Y0190409D01*
X0160380Y0191736D02*
X0159910Y0191736D01*
X0158137Y0190726D02*
X0159846Y0189017D01*
X0158137Y0190726D02*
X0158372Y0190961D01*
X0160081Y0189252D01*
X0159846Y0189017D01*
X0158989Y0190344D02*
X0158519Y0190344D01*
X0156745Y0189334D02*
X0158454Y0187625D01*
X0156745Y0189334D02*
X0156980Y0189569D01*
X0158689Y0187860D01*
X0158454Y0187625D01*
X0157597Y0188952D02*
X0157127Y0188952D01*
X0155353Y0187942D02*
X0157062Y0186233D01*
X0155353Y0187942D02*
X0155588Y0188177D01*
X0157297Y0186468D01*
X0157062Y0186233D01*
X0156205Y0187560D02*
X0155735Y0187560D01*
X0153961Y0186550D02*
X0155670Y0184841D01*
X0153961Y0186550D02*
X0154196Y0186785D01*
X0155905Y0185076D01*
X0155670Y0184841D01*
X0154813Y0186168D02*
X0154343Y0186168D01*
X0152569Y0185158D02*
X0154278Y0183449D01*
X0152569Y0185158D02*
X0152804Y0185393D01*
X0154513Y0183684D01*
X0154278Y0183449D01*
X0153421Y0184776D02*
X0152951Y0184776D01*
X0151177Y0183766D02*
X0152886Y0182057D01*
X0151177Y0183766D02*
X0151412Y0184001D01*
X0153121Y0182292D01*
X0152886Y0182057D01*
X0152029Y0183384D02*
X0151559Y0183384D01*
X0149785Y0182374D02*
X0151494Y0180665D01*
X0149785Y0182374D02*
X0150020Y0182609D01*
X0151729Y0180900D01*
X0151494Y0180665D01*
X0150637Y0181992D02*
X0150167Y0181992D01*
X0148393Y0180982D02*
X0150102Y0179273D01*
X0148393Y0180982D02*
X0148628Y0181217D01*
X0150337Y0179508D01*
X0150102Y0179273D01*
X0149245Y0180600D02*
X0148775Y0180600D01*
X0150337Y0172492D02*
X0148628Y0170783D01*
X0148393Y0171018D01*
X0150102Y0172727D01*
X0150337Y0172492D01*
X0149955Y0172110D02*
X0149485Y0172110D01*
X0151729Y0171100D02*
X0150020Y0169391D01*
X0149785Y0169626D01*
X0151494Y0171335D01*
X0151729Y0171100D01*
X0151347Y0170718D02*
X0150877Y0170718D01*
X0153121Y0169708D02*
X0151412Y0167999D01*
X0151177Y0168234D01*
X0152886Y0169943D01*
X0153121Y0169708D01*
X0152739Y0169326D02*
X0152269Y0169326D01*
X0154513Y0168316D02*
X0152804Y0166607D01*
X0152569Y0166842D01*
X0154278Y0168551D01*
X0154513Y0168316D01*
X0154131Y0167934D02*
X0153661Y0167934D01*
X0155905Y0166924D02*
X0154196Y0165215D01*
X0153961Y0165450D01*
X0155670Y0167159D01*
X0155905Y0166924D01*
X0155523Y0166542D02*
X0155053Y0166542D01*
X0157297Y0165532D02*
X0155588Y0163823D01*
X0155353Y0164058D01*
X0157062Y0165767D01*
X0157297Y0165532D01*
X0156915Y0165150D02*
X0156445Y0165150D01*
X0158689Y0164140D02*
X0156980Y0162431D01*
X0156745Y0162666D01*
X0158454Y0164375D01*
X0158689Y0164140D01*
X0158307Y0163758D02*
X0157837Y0163758D01*
X0160081Y0162748D02*
X0158372Y0161039D01*
X0158137Y0161274D01*
X0159846Y0162983D01*
X0160081Y0162748D01*
X0159699Y0162366D02*
X0159229Y0162366D01*
X0161472Y0161356D02*
X0159763Y0159647D01*
X0159528Y0159882D01*
X0161237Y0161591D01*
X0161472Y0161356D01*
X0161090Y0160974D02*
X0160620Y0160974D01*
X0162864Y0159964D02*
X0161155Y0158255D01*
X0160920Y0158490D01*
X0162629Y0160199D01*
X0162864Y0159964D01*
X0162482Y0159582D02*
X0162012Y0159582D01*
X0164256Y0158572D02*
X0162547Y0156863D01*
X0162312Y0157098D01*
X0164021Y0158807D01*
X0164256Y0158572D01*
X0163874Y0158190D02*
X0163404Y0158190D01*
X0165648Y0157180D02*
X0163939Y0155471D01*
X0163704Y0155706D01*
X0165413Y0157415D01*
X0165648Y0157180D01*
X0165266Y0156798D02*
X0164796Y0156798D01*
D12*
X0196953Y0170500D03*
X0200890Y0170500D03*
X0200890Y0175000D03*
X0196953Y0175000D03*
X0188390Y0191000D03*
X0184453Y0191000D03*
X0183453Y0195500D03*
X0187390Y0195500D03*
X0123922Y0193969D03*
X0123922Y0190031D03*
X0147953Y0118500D03*
X0151890Y0118500D03*
X0159922Y0111969D03*
X0165922Y0111969D03*
X0165922Y0108031D03*
X0159922Y0108031D03*
X0181453Y0116000D03*
X0185390Y0116000D03*
X0210953Y0116000D03*
X0214890Y0116000D03*
X0101422Y0091969D03*
X0101422Y0088031D03*
D13*
X0100556Y0159000D03*
X0092288Y0159000D03*
D14*
X0094650Y0169000D03*
X0098193Y0169000D03*
X0119650Y0160500D03*
X0123193Y0160500D03*
X0131650Y0160500D03*
X0135193Y0160500D03*
X0196650Y0161600D03*
X0200193Y0161600D03*
X0200193Y0165000D03*
X0196650Y0165000D03*
X0218650Y0169000D03*
X0222193Y0169000D03*
X0199193Y0185000D03*
X0195650Y0185000D03*
X0185193Y0120000D03*
X0181650Y0120000D03*
X0211150Y0120000D03*
X0214693Y0120000D03*
X0152693Y0098750D03*
X0149150Y0098750D03*
D15*
G36*
X0145314Y0157782D02*
X0146988Y0156108D01*
X0145314Y0154434D01*
X0143640Y0156108D01*
X0145314Y0157782D01*
G37*
G36*
X0142530Y0160566D02*
X0144204Y0158892D01*
X0142530Y0157218D01*
X0140856Y0158892D01*
X0142530Y0160566D01*
G37*
D16*
X0099821Y0164500D03*
X0093522Y0164500D03*
D17*
X0133422Y0189244D03*
X0133422Y0194756D03*
X0226422Y0154756D03*
X0226422Y0149244D03*
D18*
X0236422Y0149000D03*
X0241422Y0149000D03*
X0241422Y0154000D03*
X0236422Y0154000D03*
X0236422Y0159000D03*
X0241422Y0159000D03*
X0241422Y0164000D03*
X0236422Y0164000D03*
X0236422Y0169000D03*
X0241422Y0169000D03*
D19*
X0137871Y0092500D03*
X0118973Y0092500D03*
D20*
X0107922Y0092953D03*
X0107922Y0087047D03*
D21*
X0179472Y0072198D03*
X0179472Y0061002D03*
X0204972Y0060882D03*
X0204972Y0072078D03*
D22*
X0204673Y0085592D03*
X0207232Y0085592D03*
X0202113Y0085592D03*
X0199554Y0085592D03*
X0196995Y0085592D03*
X0194436Y0085592D03*
X0191877Y0085592D03*
X0189318Y0085592D03*
X0189318Y0108820D03*
X0191877Y0108820D03*
X0194436Y0108820D03*
X0196995Y0108820D03*
X0199554Y0108820D03*
X0202113Y0108820D03*
X0204673Y0108820D03*
X0207232Y0108820D03*
D23*
X0133022Y0057950D03*
D24*
X0152707Y0057950D03*
D25*
X0102398Y0066476D03*
X0224445Y0066476D03*
X0224445Y0188524D03*
X0102398Y0188524D03*
D26*
X0174422Y0050000D03*
D27*
X0184422Y0050000D03*
X0194422Y0050000D03*
X0204422Y0050000D03*
D28*
X0145922Y0050000D03*
X0140922Y0050000D03*
D29*
X0228422Y0119276D03*
X0228422Y0121835D03*
X0228422Y0124394D03*
X0228422Y0126953D03*
X0228422Y0129512D03*
D30*
X0228422Y0136992D03*
X0228422Y0111795D03*
D31*
X0238953Y0119669D03*
X0238953Y0129118D03*
D32*
X0237556Y0137386D02*
X0237556Y0137386D01*
X0240312Y0137386D01*
X0240312Y0137386D01*
X0237556Y0137386D01*
X0237556Y0111402D02*
X0237556Y0111402D01*
X0240312Y0111402D01*
X0240312Y0111402D01*
X0237556Y0111402D01*
D33*
X0119252Y0113500D03*
X0110985Y0109760D03*
X0110985Y0117240D03*
D34*
X0103922Y0116846D03*
X0103922Y0110154D03*
D35*
X0140303Y0113240D03*
X0140303Y0105760D03*
X0150540Y0105760D03*
X0150540Y0109500D03*
X0150540Y0113240D03*
D36*
X0104101Y0052823D02*
X0100743Y0052823D01*
X0100291Y0057269D01*
X0099285Y0057561D01*
X0098319Y0057961D01*
X0097402Y0058466D01*
X0093938Y0055642D01*
X0091563Y0058017D01*
X0094387Y0061480D01*
X0093883Y0062397D01*
X0093482Y0063364D01*
X0093191Y0064369D01*
X0088745Y0064821D01*
X0088745Y0068179D01*
X0093191Y0068631D01*
X0093482Y0069636D01*
X0093883Y0070603D01*
X0094387Y0071520D01*
X0091563Y0074983D01*
X0093938Y0077358D01*
X0097402Y0074534D01*
X0098319Y0075039D01*
X0099285Y0075439D01*
X0100291Y0075731D01*
X0100743Y0080177D01*
X0104101Y0080177D01*
X0104553Y0075731D01*
X0105558Y0075439D01*
X0106525Y0075039D01*
X0107442Y0074534D01*
X0110905Y0077358D01*
X0113280Y0074983D01*
X0110456Y0071520D01*
X0110844Y0070838D01*
X0111174Y0070126D01*
X0106400Y0068148D01*
X0106022Y0068862D01*
X0105518Y0069493D01*
X0104905Y0070018D01*
X0104204Y0070420D01*
X0103441Y0070684D01*
X0102642Y0070800D01*
X0101835Y0070766D01*
X0101049Y0070581D01*
X0100311Y0070253D01*
X0099647Y0069793D01*
X0099081Y0069217D01*
X0098633Y0068546D01*
X0098317Y0067803D01*
X0098146Y0067013D01*
X0098126Y0066206D01*
X0098256Y0065409D01*
X0098533Y0064650D01*
X0098947Y0063957D01*
X0099483Y0063353D01*
X0100122Y0062859D01*
X0100842Y0062494D01*
X0101618Y0062269D01*
X0102422Y0062194D01*
X0103143Y0062255D01*
X0103844Y0062435D01*
X0104505Y0062731D01*
X0105107Y0063133D01*
X0105633Y0063630D01*
X0106068Y0064209D01*
X0106400Y0064852D01*
X0111174Y0062874D01*
X0110844Y0062162D01*
X0110456Y0061480D01*
X0113280Y0058017D01*
X0110905Y0055642D01*
X0107442Y0058466D01*
X0106525Y0057961D01*
X0105558Y0057561D01*
X0104553Y0057269D01*
X0104101Y0052823D01*
X0104144Y0053247D02*
X0100700Y0053247D01*
X0100640Y0053836D02*
X0104204Y0053836D01*
X0104264Y0054425D02*
X0100580Y0054425D01*
X0100520Y0055014D02*
X0104324Y0055014D01*
X0104383Y0055603D02*
X0100460Y0055603D01*
X0100400Y0056192D02*
X0104443Y0056192D01*
X0104503Y0056781D02*
X0100340Y0056781D01*
X0099942Y0057370D02*
X0104901Y0057370D01*
X0106521Y0057959D02*
X0098323Y0057959D01*
X0096781Y0057959D02*
X0091621Y0057959D01*
X0091997Y0058548D02*
X0112846Y0058548D01*
X0113223Y0057959D02*
X0108063Y0057959D01*
X0108785Y0057370D02*
X0112634Y0057370D01*
X0112045Y0056781D02*
X0109508Y0056781D01*
X0110230Y0056192D02*
X0111456Y0056192D01*
X0112366Y0059137D02*
X0092477Y0059137D01*
X0092958Y0059727D02*
X0111886Y0059727D01*
X0111405Y0060316D02*
X0093438Y0060316D01*
X0093918Y0060905D02*
X0110925Y0060905D01*
X0110464Y0061494D02*
X0094380Y0061494D01*
X0094056Y0062083D02*
X0110799Y0062083D01*
X0111080Y0062672D02*
X0104373Y0062672D01*
X0105242Y0063261D02*
X0110241Y0063261D01*
X0108819Y0063850D02*
X0105798Y0063850D01*
X0106187Y0064439D02*
X0107397Y0064439D01*
X0100491Y0062672D02*
X0093769Y0062672D01*
X0093525Y0063261D02*
X0099602Y0063261D01*
X0099041Y0063850D02*
X0093341Y0063850D01*
X0092501Y0064439D02*
X0098659Y0064439D01*
X0098395Y0065028D02*
X0088745Y0065028D01*
X0088745Y0065617D02*
X0098222Y0065617D01*
X0098126Y0066206D02*
X0088745Y0066206D01*
X0088745Y0066795D02*
X0098141Y0066795D01*
X0098227Y0067384D02*
X0088745Y0067384D01*
X0088745Y0067973D02*
X0098390Y0067973D01*
X0098644Y0068563D02*
X0092516Y0068563D01*
X0093342Y0069152D02*
X0099037Y0069152D01*
X0099596Y0069741D02*
X0093526Y0069741D01*
X0093770Y0070330D02*
X0100483Y0070330D01*
X0104362Y0070330D02*
X0111079Y0070330D01*
X0110798Y0070919D02*
X0094057Y0070919D01*
X0094381Y0071508D02*
X0110463Y0071508D01*
X0110926Y0072097D02*
X0093917Y0072097D01*
X0093437Y0072686D02*
X0111407Y0072686D01*
X0111887Y0073275D02*
X0092957Y0073275D01*
X0092476Y0073864D02*
X0112367Y0073864D01*
X0112848Y0074453D02*
X0091996Y0074453D01*
X0091622Y0075042D02*
X0096779Y0075042D01*
X0096056Y0075631D02*
X0092211Y0075631D01*
X0092800Y0076220D02*
X0095334Y0076220D01*
X0094611Y0076809D02*
X0093389Y0076809D01*
X0098326Y0075042D02*
X0106517Y0075042D01*
X0108065Y0075042D02*
X0113221Y0075042D01*
X0112632Y0075631D02*
X0108787Y0075631D01*
X0109510Y0076220D02*
X0112043Y0076220D01*
X0111454Y0076809D02*
X0110232Y0076809D01*
X0104896Y0075631D02*
X0099948Y0075631D01*
X0100340Y0076220D02*
X0104503Y0076220D01*
X0104443Y0076809D02*
X0100400Y0076809D01*
X0100460Y0077398D02*
X0104383Y0077398D01*
X0104323Y0077988D02*
X0100520Y0077988D01*
X0100580Y0078577D02*
X0104264Y0078577D01*
X0104204Y0079166D02*
X0100640Y0079166D01*
X0100700Y0079755D02*
X0104144Y0079755D01*
X0105229Y0069741D02*
X0110245Y0069741D01*
X0108823Y0069152D02*
X0105791Y0069152D01*
X0106181Y0068563D02*
X0107401Y0068563D01*
X0096058Y0057370D02*
X0092210Y0057370D01*
X0092799Y0056781D02*
X0095336Y0056781D01*
X0094613Y0056192D02*
X0093388Y0056192D01*
D37*
X0117682Y0165063D03*
X0125162Y0165063D03*
X0129682Y0165063D03*
X0137162Y0165063D03*
X0133422Y0173331D03*
X0121422Y0173331D03*
D38*
X0123922Y0178228D03*
X0123922Y0181772D03*
X0129422Y0181772D03*
X0129422Y0178228D03*
D39*
X0128422Y0206000D03*
X0118422Y0206000D03*
X0138422Y0206000D03*
X0148422Y0206000D03*
X0158422Y0206000D03*
X0168422Y0206000D03*
X0178422Y0206000D03*
X0188422Y0206000D03*
X0198422Y0206000D03*
X0208422Y0206000D03*
X0208422Y0146000D03*
X0198422Y0146000D03*
X0188422Y0146000D03*
X0178422Y0146000D03*
X0168422Y0146000D03*
X0158422Y0146000D03*
X0148422Y0146000D03*
X0138422Y0146000D03*
X0128422Y0146000D03*
X0118422Y0146000D03*
X0118422Y0136000D03*
X0128422Y0136000D03*
X0138422Y0136000D03*
X0148422Y0136000D03*
X0148422Y0126000D03*
X0138422Y0126000D03*
X0128422Y0126000D03*
X0118422Y0126000D03*
D40*
X0086447Y0164675D03*
D41*
X0083622Y0164613D03*
X0086447Y0167713D03*
X0084397Y0173337D03*
X0083672Y0177512D03*
X0086397Y0181112D03*
X0083297Y0184162D03*
X0082447Y0184162D03*
X0086447Y0190487D03*
D42*
X0083672Y0190500D03*
X0083697Y0187400D03*
X0086447Y0173875D03*
X0083697Y0171225D03*
D43*
X0083747Y0171238D03*
X0085422Y0173262D03*
X0085722Y0173262D03*
X0085747Y0173262D03*
X0086397Y0173837D03*
X0085672Y0174887D03*
X0084822Y0174887D03*
X0084697Y0174887D03*
X0084672Y0174887D03*
X0084647Y0174887D03*
X0084622Y0174887D03*
X0084597Y0174887D03*
X0084972Y0176537D03*
X0085122Y0176537D03*
X0083122Y0184162D03*
X0082622Y0184162D03*
X0084847Y0189487D03*
X0084872Y0189487D03*
X0084972Y0189462D03*
X0084997Y0189462D03*
X0085022Y0189462D03*
X0085047Y0189462D03*
X0085072Y0189462D03*
X0085097Y0189462D03*
X0085122Y0189462D03*
X0085247Y0189487D03*
X0085222Y0191512D03*
X0085197Y0191512D03*
X0085172Y0191512D03*
X0084947Y0191512D03*
X0084922Y0191512D03*
X0084897Y0191512D03*
X0084597Y0168638D03*
X0086422Y0164688D03*
X0085472Y0163663D03*
X0085422Y0163638D03*
X0085397Y0163638D03*
X0085322Y0163613D03*
X0085297Y0163613D03*
X0085272Y0163613D03*
X0084672Y0163638D03*
X0084647Y0163638D03*
X0084622Y0163638D03*
X0084597Y0163663D03*
X0084572Y0163663D03*
X0084547Y0163663D03*
X0084522Y0163688D03*
X0083772Y0161088D03*
X0083897Y0161038D03*
X0083972Y0161013D03*
X0084022Y0160988D03*
X0084097Y0160963D03*
X0084147Y0160938D03*
X0084172Y0160938D03*
X0084222Y0160913D03*
X0084272Y0160888D03*
X0084297Y0160888D03*
X0084347Y0160863D03*
X0084372Y0160863D03*
X0084397Y0160838D03*
X0084422Y0160838D03*
X0084472Y0160813D03*
X0084497Y0160813D03*
X0084522Y0160788D03*
X0084547Y0160788D03*
X0084597Y0160763D03*
X0084622Y0160763D03*
X0084647Y0160738D03*
X0084672Y0160738D03*
X0084697Y0160738D03*
X0084722Y0160713D03*
X0084747Y0160713D03*
X0084772Y0160688D03*
X0084797Y0160688D03*
X0084822Y0160688D03*
X0084847Y0160663D03*
X0084872Y0160663D03*
X0084922Y0160638D03*
X0084947Y0160638D03*
X0084972Y0160613D03*
X0084997Y0160613D03*
X0085022Y0160613D03*
X0085047Y0160588D03*
X0085072Y0160588D03*
X0085122Y0160563D03*
X0085147Y0160563D03*
X0085172Y0160538D03*
X0085197Y0160538D03*
X0085247Y0160513D03*
X0085272Y0160513D03*
X0086297Y0160088D03*
D44*
X0083647Y0164613D03*
X0085772Y0165238D03*
X0086422Y0167713D03*
X0083697Y0177512D03*
X0083197Y0184162D03*
X0082547Y0184162D03*
D45*
X0086397Y0177500D03*
X0086422Y0173850D03*
X0083722Y0171225D03*
D46*
X0086422Y0177512D03*
D47*
X0086422Y0190500D03*
X0083697Y0190500D03*
D48*
X0084397Y0191237D03*
X0085722Y0191237D03*
X0084447Y0187862D03*
X0084497Y0186262D03*
X0085647Y0178387D03*
X0085672Y0176787D03*
X0084422Y0176787D03*
X0083747Y0177512D03*
X0084822Y0173987D03*
X0086347Y0173837D03*
X0083797Y0171238D03*
X0086372Y0167713D03*
X0085697Y0166963D03*
X0084272Y0165263D03*
X0083697Y0164613D03*
X0084272Y0163913D03*
X0086397Y0164688D03*
X0086022Y0160088D03*
X0085997Y0160088D03*
X0085972Y0160088D03*
D49*
X0086172Y0160088D03*
X0086197Y0160088D03*
X0084422Y0159338D03*
X0084122Y0159213D03*
X0083997Y0159163D03*
X0083947Y0159138D03*
X0083872Y0159113D03*
X0083822Y0159088D03*
X0083697Y0159038D03*
X0083647Y0159013D03*
X0084347Y0163813D03*
X0083672Y0164613D03*
X0084347Y0165363D03*
X0084372Y0165388D03*
X0084622Y0166788D03*
X0084597Y0166813D03*
X0085522Y0166813D03*
X0086397Y0167713D03*
X0085572Y0168613D03*
X0085547Y0168638D03*
X0084497Y0168588D03*
X0084622Y0171763D03*
X0085822Y0173312D03*
X0085497Y0176637D03*
X0085522Y0176662D03*
X0084647Y0176612D03*
X0084597Y0176637D03*
X0083722Y0177512D03*
X0084547Y0178462D03*
X0085522Y0178462D03*
X0085547Y0180487D03*
X0085572Y0180487D03*
X0085622Y0180512D03*
X0085547Y0182212D03*
X0085522Y0182212D03*
X0083047Y0184162D03*
X0083022Y0184162D03*
X0082997Y0184162D03*
X0082747Y0184162D03*
X0082722Y0184162D03*
X0082697Y0184162D03*
X0084647Y0186187D03*
X0084647Y0187962D03*
X0084672Y0187962D03*
X0084697Y0187962D03*
X0084572Y0189587D03*
X0084547Y0189612D03*
X0085522Y0189587D03*
X0085547Y0189587D03*
X0085572Y0189612D03*
X0085572Y0191387D03*
X0085547Y0191387D03*
X0085522Y0191412D03*
X0084547Y0191387D03*
X0083722Y0190487D03*
X0085622Y0163763D03*
D50*
X0085647Y0163775D03*
X0085672Y0163800D03*
X0084322Y0163825D03*
X0084572Y0166825D03*
X0085547Y0166825D03*
X0085572Y0166850D03*
X0085597Y0168600D03*
X0084622Y0170125D03*
X0084597Y0171750D03*
X0084572Y0171750D03*
X0085322Y0173350D03*
X0086372Y0173850D03*
X0084422Y0174800D03*
X0084572Y0176650D03*
X0084547Y0176675D03*
X0085547Y0176675D03*
X0085547Y0178450D03*
X0084522Y0178450D03*
X0085597Y0180500D03*
X0085647Y0180525D03*
X0085597Y0182200D03*
X0085572Y0182200D03*
X0082972Y0184175D03*
X0082772Y0184175D03*
X0084597Y0186200D03*
X0084622Y0186200D03*
X0084622Y0187950D03*
X0084597Y0187950D03*
X0084522Y0189625D03*
X0084497Y0189650D03*
X0085597Y0189625D03*
X0086397Y0190500D03*
X0085597Y0191375D03*
X0084522Y0191375D03*
X0084497Y0191350D03*
X0086147Y0160100D03*
D51*
X0085447Y0160088D03*
X0085697Y0158113D03*
X0085722Y0158113D03*
X0085747Y0158113D03*
X0085772Y0158113D03*
X0085797Y0158113D03*
X0085822Y0158113D03*
X0085847Y0158113D03*
X0085872Y0158113D03*
X0085897Y0158113D03*
X0085922Y0158113D03*
X0085947Y0158113D03*
X0085972Y0158113D03*
X0085997Y0158113D03*
X0086022Y0158113D03*
X0086047Y0158113D03*
X0086072Y0158113D03*
X0086097Y0158113D03*
X0086122Y0158113D03*
X0086147Y0158113D03*
X0086172Y0158113D03*
X0086197Y0158113D03*
X0086222Y0158113D03*
X0086247Y0158113D03*
X0086272Y0158113D03*
X0086297Y0158113D03*
X0086322Y0158113D03*
X0086347Y0158113D03*
X0086372Y0158113D03*
X0086272Y0167713D03*
X0086272Y0190487D03*
D52*
X0083847Y0190500D03*
X0083922Y0187375D03*
X0085772Y0182250D03*
X0083947Y0171225D03*
X0083797Y0164600D03*
X0085697Y0162075D03*
X0085722Y0162075D03*
X0085747Y0162075D03*
X0085772Y0162075D03*
X0085797Y0162075D03*
X0085822Y0162075D03*
X0085847Y0162075D03*
X0085872Y0162075D03*
X0085897Y0162075D03*
X0085922Y0162075D03*
X0085947Y0162075D03*
X0085972Y0162075D03*
X0085997Y0162075D03*
X0086022Y0162075D03*
X0086047Y0162075D03*
X0086072Y0162075D03*
X0086097Y0162075D03*
X0086122Y0162075D03*
X0086147Y0162075D03*
X0086172Y0162075D03*
X0086197Y0162075D03*
X0086222Y0162075D03*
X0086247Y0162075D03*
X0086272Y0162075D03*
X0086297Y0162075D03*
X0086322Y0162075D03*
X0086347Y0162075D03*
X0086372Y0162075D03*
X0085472Y0160075D03*
D53*
X0085797Y0160088D03*
X0085822Y0160088D03*
X0086372Y0164688D03*
X0085747Y0167063D03*
X0086347Y0167713D03*
X0083847Y0171238D03*
X0086297Y0173837D03*
X0086297Y0177487D03*
X0083072Y0178312D03*
X0083047Y0178312D03*
X0083022Y0178312D03*
X0082997Y0178312D03*
X0082972Y0178312D03*
X0082947Y0178312D03*
X0082922Y0178312D03*
X0082897Y0178312D03*
X0082872Y0178312D03*
X0082847Y0178312D03*
X0082822Y0178312D03*
X0082797Y0178312D03*
X0082772Y0178312D03*
X0082747Y0178312D03*
X0082722Y0178312D03*
X0082697Y0178312D03*
X0082672Y0178312D03*
X0082647Y0178312D03*
X0082622Y0178312D03*
X0082597Y0178312D03*
X0082572Y0178312D03*
X0082547Y0178312D03*
X0082522Y0178312D03*
X0082497Y0178312D03*
X0082472Y0178312D03*
X0082447Y0178312D03*
X0082422Y0178312D03*
X0082397Y0178312D03*
X0086272Y0181112D03*
X0086347Y0190487D03*
D54*
X0086347Y0170075D03*
X0086372Y0170075D03*
X0086322Y0170075D03*
X0086297Y0170075D03*
X0086272Y0170075D03*
X0086247Y0170075D03*
X0086222Y0170075D03*
X0086197Y0170075D03*
X0086172Y0170075D03*
X0086147Y0170075D03*
X0086122Y0170075D03*
X0086097Y0170075D03*
X0086072Y0170075D03*
X0086047Y0170075D03*
X0086022Y0170075D03*
X0085997Y0170075D03*
X0085972Y0170075D03*
X0085947Y0170075D03*
X0085922Y0170075D03*
X0085897Y0170075D03*
X0085872Y0170075D03*
X0085847Y0170075D03*
X0085822Y0170075D03*
X0085797Y0170075D03*
X0085772Y0170075D03*
X0085747Y0170075D03*
X0085722Y0170075D03*
X0085697Y0170075D03*
X0086272Y0164700D03*
X0083847Y0164600D03*
X0083372Y0161650D03*
X0083347Y0161650D03*
X0083322Y0161650D03*
X0085297Y0160075D03*
X0083372Y0158525D03*
X0083347Y0158525D03*
X0083322Y0158525D03*
X0082522Y0158175D03*
D55*
X0083772Y0167700D03*
X0085697Y0172000D03*
X0085722Y0172000D03*
X0085747Y0172000D03*
X0085772Y0172000D03*
X0085797Y0172000D03*
X0085822Y0172000D03*
X0085847Y0172000D03*
X0085872Y0172000D03*
X0085897Y0172000D03*
X0085922Y0172000D03*
X0085947Y0172000D03*
X0085972Y0172000D03*
X0085997Y0172000D03*
X0086022Y0172000D03*
X0086047Y0172000D03*
X0086072Y0172000D03*
X0086097Y0172000D03*
X0086122Y0172000D03*
X0086147Y0172000D03*
X0086172Y0172000D03*
X0086197Y0172000D03*
X0086222Y0172000D03*
X0086247Y0172000D03*
X0086272Y0172000D03*
X0086297Y0172000D03*
X0086322Y0172000D03*
X0086347Y0172000D03*
X0086372Y0172000D03*
X0085722Y0175025D03*
X0084372Y0178300D03*
X0084372Y0180275D03*
X0084397Y0180275D03*
X0084422Y0180275D03*
X0084347Y0180275D03*
X0084322Y0180275D03*
X0084297Y0180275D03*
X0084272Y0180275D03*
X0084247Y0180275D03*
X0084222Y0180275D03*
X0084197Y0180275D03*
X0084172Y0180275D03*
X0084147Y0180275D03*
X0084122Y0180275D03*
X0084097Y0180275D03*
X0084072Y0180275D03*
X0084047Y0180275D03*
X0084022Y0180275D03*
X0083997Y0180275D03*
X0083972Y0180275D03*
X0083947Y0180275D03*
X0083922Y0180275D03*
X0083897Y0180275D03*
X0083872Y0180275D03*
X0083847Y0180275D03*
X0083822Y0180275D03*
X0083797Y0180275D03*
X0083772Y0180275D03*
X0083747Y0180275D03*
X0083747Y0183950D03*
X0083772Y0183950D03*
X0083797Y0183950D03*
X0083822Y0183950D03*
X0083847Y0183950D03*
X0083872Y0183950D03*
X0083897Y0183950D03*
X0083922Y0183950D03*
X0083947Y0183950D03*
X0083972Y0183950D03*
X0083997Y0183950D03*
X0084022Y0183950D03*
X0084047Y0183950D03*
X0084072Y0183950D03*
X0084097Y0183950D03*
X0084122Y0183950D03*
X0084147Y0183950D03*
X0084172Y0183950D03*
X0084197Y0183950D03*
X0084222Y0183950D03*
X0084247Y0183950D03*
X0084272Y0183950D03*
X0084297Y0183950D03*
X0084322Y0183950D03*
X0084347Y0183950D03*
X0084372Y0183950D03*
X0084397Y0183950D03*
X0084422Y0183950D03*
D56*
X0085797Y0180675D03*
X0084397Y0178350D03*
X0086272Y0175075D03*
X0086297Y0175075D03*
X0086322Y0175075D03*
X0086347Y0175075D03*
X0086372Y0175075D03*
X0083822Y0171250D03*
X0084497Y0170225D03*
X0084397Y0168475D03*
X0085722Y0167000D03*
X0084447Y0186300D03*
X0084372Y0189800D03*
X0084372Y0191200D03*
D57*
X0084747Y0191475D03*
X0084797Y0191500D03*
X0084822Y0191500D03*
X0084847Y0191500D03*
X0084872Y0191500D03*
X0084972Y0191525D03*
X0084997Y0191525D03*
X0085022Y0191525D03*
X0085047Y0191525D03*
X0085072Y0191525D03*
X0085097Y0191525D03*
X0085122Y0191525D03*
X0085147Y0191525D03*
X0085247Y0191500D03*
X0085272Y0191500D03*
X0085297Y0191500D03*
X0085372Y0191475D03*
X0085397Y0189525D03*
X0085322Y0189500D03*
X0085297Y0189500D03*
X0085272Y0189500D03*
X0085222Y0189475D03*
X0085197Y0189475D03*
X0085172Y0189475D03*
X0085147Y0189475D03*
X0084947Y0189475D03*
X0084922Y0189475D03*
X0084897Y0189475D03*
X0084822Y0189500D03*
X0084797Y0189500D03*
X0084772Y0189500D03*
X0084722Y0189525D03*
X0083747Y0187400D03*
X0084447Y0184150D03*
X0084472Y0184150D03*
X0084497Y0184150D03*
X0084522Y0184150D03*
X0084547Y0184150D03*
X0084572Y0184150D03*
X0084597Y0184150D03*
X0084622Y0184150D03*
X0084647Y0184150D03*
X0084672Y0184150D03*
X0084697Y0184150D03*
X0084722Y0184150D03*
X0084747Y0184150D03*
X0084772Y0184150D03*
X0084797Y0184150D03*
X0084822Y0184150D03*
X0084847Y0184150D03*
X0084872Y0184150D03*
X0084897Y0184150D03*
X0084922Y0184150D03*
X0084947Y0184150D03*
X0084972Y0184150D03*
X0084997Y0184150D03*
X0085022Y0184150D03*
X0085047Y0184150D03*
X0085072Y0184150D03*
X0085097Y0184150D03*
X0085122Y0184150D03*
X0085147Y0184150D03*
X0085172Y0184150D03*
X0085197Y0184150D03*
X0085222Y0184150D03*
X0085247Y0184150D03*
X0085272Y0184150D03*
X0085297Y0184150D03*
X0085322Y0184150D03*
X0085347Y0184150D03*
X0085372Y0184150D03*
X0085397Y0184150D03*
X0085422Y0184150D03*
X0085447Y0184150D03*
X0085472Y0184150D03*
X0085497Y0184150D03*
X0085522Y0184150D03*
X0085547Y0184150D03*
X0085572Y0184150D03*
X0085597Y0184150D03*
X0085622Y0184150D03*
X0085647Y0184150D03*
X0085672Y0184150D03*
X0085422Y0178500D03*
X0085397Y0178500D03*
X0085372Y0178500D03*
X0085347Y0178500D03*
X0085322Y0178500D03*
X0085297Y0178500D03*
X0085272Y0178500D03*
X0085247Y0178500D03*
X0085222Y0178500D03*
X0085197Y0178500D03*
X0085172Y0178500D03*
X0085147Y0178500D03*
X0085122Y0178500D03*
X0085097Y0178500D03*
X0085072Y0178500D03*
X0085047Y0178500D03*
X0085022Y0178500D03*
X0084997Y0178500D03*
X0084972Y0178500D03*
X0084947Y0178500D03*
X0084922Y0178500D03*
X0084897Y0178500D03*
X0084872Y0178500D03*
X0084847Y0178500D03*
X0084822Y0178500D03*
X0084797Y0178500D03*
X0084772Y0178500D03*
X0084747Y0178500D03*
X0084722Y0178500D03*
X0084697Y0178500D03*
X0084672Y0178500D03*
X0084647Y0178500D03*
X0083772Y0178500D03*
X0083747Y0178500D03*
X0083722Y0178500D03*
X0083697Y0178500D03*
X0083672Y0178500D03*
X0083647Y0178500D03*
X0083622Y0178500D03*
X0083597Y0178500D03*
X0083572Y0178500D03*
X0083547Y0178500D03*
X0083522Y0178500D03*
X0083497Y0178500D03*
X0083472Y0178500D03*
X0083447Y0178500D03*
X0083422Y0178500D03*
X0083397Y0178500D03*
X0083372Y0178500D03*
X0083347Y0178500D03*
X0083322Y0178500D03*
X0083297Y0178500D03*
X0083272Y0178500D03*
X0083247Y0178500D03*
X0083222Y0178500D03*
X0083197Y0178500D03*
X0083172Y0178500D03*
X0083147Y0178500D03*
X0083122Y0178500D03*
X0083097Y0178500D03*
X0084847Y0176550D03*
X0084872Y0176550D03*
X0084897Y0176550D03*
X0084922Y0176550D03*
X0084947Y0176550D03*
X0084997Y0176525D03*
X0085022Y0176525D03*
X0085047Y0176525D03*
X0085072Y0176525D03*
X0085097Y0176525D03*
X0085147Y0176550D03*
X0085172Y0176550D03*
X0085197Y0176550D03*
X0085222Y0176550D03*
X0085247Y0176550D03*
X0086372Y0177500D03*
X0084572Y0174875D03*
X0084547Y0174875D03*
X0085372Y0173300D03*
X0085397Y0173275D03*
X0085772Y0173275D03*
X0085672Y0171800D03*
X0085647Y0171800D03*
X0085622Y0171800D03*
X0085597Y0171800D03*
X0085572Y0171800D03*
X0085547Y0171800D03*
X0085522Y0171800D03*
X0085497Y0171800D03*
X0085472Y0171800D03*
X0085447Y0171800D03*
X0085422Y0171800D03*
X0085397Y0171800D03*
X0085372Y0171800D03*
X0085347Y0171800D03*
X0085322Y0171800D03*
X0085297Y0171800D03*
X0085272Y0171800D03*
X0085247Y0171800D03*
X0085222Y0171800D03*
X0085197Y0171800D03*
X0085172Y0171800D03*
X0085147Y0171800D03*
X0085122Y0171800D03*
X0085097Y0171800D03*
X0085072Y0171800D03*
X0085047Y0171800D03*
X0085022Y0171800D03*
X0084997Y0171800D03*
X0084972Y0171800D03*
X0084947Y0171800D03*
X0084922Y0171800D03*
X0084897Y0171800D03*
X0084872Y0171800D03*
X0084847Y0171800D03*
X0084822Y0171800D03*
X0084572Y0168625D03*
X0084797Y0166725D03*
X0084822Y0166725D03*
X0084872Y0166700D03*
X0084897Y0166700D03*
X0084922Y0166700D03*
X0084947Y0166700D03*
X0084972Y0166700D03*
X0084997Y0166700D03*
X0085022Y0166700D03*
X0085047Y0166700D03*
X0085072Y0166700D03*
X0085097Y0166700D03*
X0085122Y0166700D03*
X0085147Y0166700D03*
X0085172Y0166700D03*
X0085197Y0166700D03*
X0085222Y0166700D03*
X0085247Y0166700D03*
X0085272Y0166725D03*
X0085297Y0166725D03*
X0085322Y0166725D03*
X0084672Y0165500D03*
X0084647Y0165500D03*
X0084597Y0165475D03*
X0084572Y0165475D03*
X0084497Y0165450D03*
X0084447Y0163725D03*
X0084472Y0163700D03*
X0084497Y0163700D03*
X0085447Y0163650D03*
X0085497Y0163675D03*
X0085547Y0163700D03*
X0084447Y0160825D03*
X0084572Y0160775D03*
X0084322Y0160875D03*
X0084247Y0160900D03*
X0084197Y0160925D03*
X0084122Y0160950D03*
X0084072Y0160975D03*
X0084047Y0160975D03*
X0083997Y0161000D03*
X0083947Y0161025D03*
X0083922Y0161025D03*
X0083872Y0161050D03*
X0083847Y0161050D03*
X0083822Y0161075D03*
X0083797Y0161075D03*
X0083747Y0161100D03*
X0083722Y0161100D03*
X0083697Y0161125D03*
X0083672Y0161125D03*
X0083647Y0161125D03*
X0083622Y0161150D03*
X0083597Y0161150D03*
X0083572Y0161175D03*
X0083547Y0161175D03*
X0083522Y0161175D03*
X0083497Y0161200D03*
X0086272Y0160100D03*
D58*
X0085647Y0160088D03*
X0085622Y0160088D03*
X0083897Y0171238D03*
X0086297Y0178762D03*
X0086322Y0178762D03*
X0086347Y0178762D03*
X0086372Y0178762D03*
X0086222Y0181112D03*
X0085697Y0182312D03*
X0083872Y0187387D03*
D59*
X0083722Y0187412D03*
X0083222Y0184162D03*
X0082522Y0184162D03*
X0086372Y0181112D03*
X0084347Y0173437D03*
X0085472Y0168588D03*
D60*
X0084472Y0170250D03*
X0083747Y0174125D03*
X0085697Y0175050D03*
X0085722Y0176875D03*
X0086197Y0182400D03*
X0086222Y0182400D03*
X0086247Y0182400D03*
X0086272Y0182400D03*
X0086297Y0182400D03*
X0086322Y0182400D03*
X0086347Y0182400D03*
X0086372Y0182400D03*
X0083822Y0187400D03*
X0083772Y0190500D03*
X0083722Y0164600D03*
D61*
X0083297Y0161663D03*
X0083272Y0161663D03*
X0083247Y0161663D03*
X0085322Y0160088D03*
X0083297Y0158513D03*
X0083272Y0158513D03*
X0083872Y0167713D03*
X0085697Y0184137D03*
X0085722Y0184137D03*
X0085747Y0184137D03*
X0085772Y0184137D03*
X0085797Y0184137D03*
X0085822Y0184137D03*
X0085847Y0184137D03*
X0085872Y0184137D03*
X0085897Y0184137D03*
X0085922Y0184137D03*
X0085947Y0184137D03*
X0085972Y0184137D03*
X0085997Y0184137D03*
X0086022Y0184137D03*
X0086047Y0184137D03*
X0086072Y0184137D03*
X0086097Y0184137D03*
X0086122Y0184137D03*
X0086147Y0184137D03*
X0086172Y0184137D03*
X0086197Y0184137D03*
X0086222Y0184137D03*
X0086247Y0184137D03*
X0086272Y0184137D03*
X0086297Y0184137D03*
X0086322Y0184137D03*
X0086347Y0184137D03*
X0086372Y0184137D03*
X0086247Y0190487D03*
D62*
X0086222Y0190500D03*
X0086222Y0186200D03*
X0086247Y0186200D03*
X0086272Y0186200D03*
X0086297Y0186200D03*
X0086322Y0186200D03*
X0086347Y0186200D03*
X0086372Y0186200D03*
X0086197Y0186200D03*
X0086172Y0186200D03*
X0086147Y0186200D03*
X0086122Y0186200D03*
X0086097Y0186200D03*
X0086072Y0186200D03*
X0086047Y0186200D03*
X0086022Y0186200D03*
X0085997Y0186200D03*
X0085972Y0186200D03*
X0085947Y0186200D03*
X0085922Y0186200D03*
X0085897Y0186200D03*
X0085872Y0186200D03*
X0085847Y0186200D03*
X0085822Y0186200D03*
X0085797Y0186200D03*
X0085772Y0186200D03*
X0085747Y0186200D03*
X0085722Y0186200D03*
X0085697Y0186200D03*
X0085697Y0178600D03*
X0082572Y0161975D03*
X0082547Y0161975D03*
X0082522Y0161975D03*
X0083447Y0161625D03*
X0083472Y0161625D03*
X0083472Y0158550D03*
X0083497Y0158550D03*
X0083447Y0158550D03*
X0082647Y0158200D03*
X0082622Y0158200D03*
X0082597Y0158200D03*
D63*
X0085747Y0160088D03*
X0085772Y0160088D03*
X0083072Y0169888D03*
X0083047Y0169888D03*
X0083022Y0169888D03*
X0082997Y0169888D03*
X0082972Y0169888D03*
X0082947Y0169888D03*
X0082922Y0169888D03*
X0082897Y0169888D03*
X0082872Y0169888D03*
X0082847Y0169888D03*
X0082822Y0169888D03*
X0082797Y0169888D03*
X0082772Y0169888D03*
X0082747Y0169888D03*
X0082722Y0169888D03*
X0082697Y0169888D03*
X0082672Y0169888D03*
X0082647Y0169888D03*
X0082622Y0169888D03*
X0082597Y0169888D03*
X0082572Y0169888D03*
X0082547Y0169888D03*
X0082522Y0169888D03*
X0082497Y0169888D03*
X0082472Y0169888D03*
X0082447Y0169888D03*
X0082422Y0169888D03*
X0082397Y0169888D03*
X0084447Y0170288D03*
X0086247Y0181112D03*
X0083947Y0185987D03*
X0083922Y0185987D03*
X0083897Y0185987D03*
X0083872Y0185987D03*
X0083847Y0185987D03*
X0083822Y0185987D03*
X0083797Y0185987D03*
X0083772Y0185987D03*
X0083747Y0185987D03*
X0085697Y0188162D03*
X0085722Y0188162D03*
X0085747Y0188162D03*
X0085772Y0188162D03*
X0085797Y0188162D03*
X0085822Y0188162D03*
X0085847Y0188162D03*
X0085872Y0188162D03*
X0085897Y0188162D03*
X0085922Y0188162D03*
X0085947Y0188162D03*
X0085972Y0188162D03*
X0085997Y0188162D03*
X0086022Y0188162D03*
X0086047Y0188162D03*
X0086072Y0188162D03*
X0086097Y0188162D03*
X0086122Y0188162D03*
X0086147Y0188162D03*
X0086172Y0188162D03*
X0086197Y0188162D03*
X0086222Y0188162D03*
X0086247Y0188162D03*
X0086272Y0188162D03*
X0086297Y0188162D03*
X0086322Y0188162D03*
X0086347Y0188162D03*
X0086372Y0188162D03*
D64*
X0085722Y0189750D03*
X0086372Y0190500D03*
X0084397Y0189750D03*
X0083747Y0190500D03*
X0084422Y0187850D03*
X0083797Y0187400D03*
X0084472Y0186275D03*
X0085772Y0180625D03*
X0084422Y0178375D03*
X0084522Y0170200D03*
X0085747Y0163900D03*
D65*
X0086347Y0164700D03*
X0083797Y0167700D03*
X0085772Y0174975D03*
X0086322Y0190500D03*
D66*
X0085672Y0191300D03*
X0085647Y0191325D03*
X0084447Y0191300D03*
X0085647Y0189675D03*
X0085622Y0189650D03*
X0084522Y0187925D03*
X0084497Y0187900D03*
X0083772Y0187400D03*
X0084547Y0186225D03*
X0085647Y0182175D03*
X0086322Y0181125D03*
X0085722Y0180575D03*
X0085697Y0180550D03*
X0085597Y0178425D03*
X0086347Y0177500D03*
X0084497Y0176700D03*
X0084472Y0176725D03*
X0084522Y0171725D03*
X0084572Y0170150D03*
X0084447Y0168550D03*
X0083722Y0167700D03*
X0084497Y0166875D03*
X0084297Y0165300D03*
X0084297Y0163875D03*
X0085697Y0163825D03*
X0085647Y0168550D03*
D67*
X0084547Y0168613D03*
X0084672Y0170088D03*
X0084697Y0170088D03*
X0084722Y0170088D03*
X0084747Y0170088D03*
X0084772Y0170088D03*
X0084797Y0170088D03*
X0084822Y0170088D03*
X0084847Y0170088D03*
X0084872Y0170088D03*
X0084897Y0170088D03*
X0084922Y0170088D03*
X0084947Y0170088D03*
X0084972Y0170088D03*
X0084997Y0170088D03*
X0085022Y0170088D03*
X0085047Y0170088D03*
X0085072Y0170088D03*
X0085097Y0170088D03*
X0085122Y0170088D03*
X0085147Y0170088D03*
X0085172Y0170088D03*
X0085197Y0170088D03*
X0085222Y0170088D03*
X0085247Y0170088D03*
X0085272Y0170088D03*
X0085297Y0170088D03*
X0085322Y0170088D03*
X0085347Y0170088D03*
X0085372Y0170088D03*
X0085397Y0170088D03*
X0085422Y0170088D03*
X0085447Y0170088D03*
X0085472Y0170088D03*
X0085497Y0170088D03*
X0085522Y0170088D03*
X0085547Y0170088D03*
X0085572Y0170088D03*
X0085597Y0170088D03*
X0085622Y0170088D03*
X0085647Y0170088D03*
X0085672Y0170088D03*
X0083947Y0170088D03*
X0083922Y0170088D03*
X0083897Y0170088D03*
X0083872Y0170088D03*
X0083847Y0170088D03*
X0083822Y0170088D03*
X0083797Y0170088D03*
X0083772Y0170088D03*
X0083747Y0170088D03*
X0083722Y0170088D03*
X0083697Y0170088D03*
X0083672Y0170088D03*
X0083647Y0170088D03*
X0083622Y0170088D03*
X0083597Y0170088D03*
X0083572Y0170088D03*
X0083547Y0170088D03*
X0083522Y0170088D03*
X0083497Y0170088D03*
X0083472Y0170088D03*
X0083447Y0170088D03*
X0083422Y0170088D03*
X0083397Y0170088D03*
X0083372Y0170088D03*
X0083347Y0170088D03*
X0083322Y0170088D03*
X0083297Y0170088D03*
X0083272Y0170088D03*
X0083247Y0170088D03*
X0083222Y0170088D03*
X0083197Y0170088D03*
X0083172Y0170088D03*
X0083147Y0170088D03*
X0083122Y0170088D03*
X0083097Y0170088D03*
X0084722Y0171788D03*
X0084747Y0171788D03*
X0084772Y0171788D03*
X0084797Y0171788D03*
X0085797Y0173287D03*
X0084797Y0173962D03*
X0084472Y0174837D03*
X0084522Y0174862D03*
X0084772Y0176562D03*
X0084797Y0176562D03*
X0084822Y0176562D03*
X0084747Y0176587D03*
X0084722Y0176587D03*
X0085272Y0176562D03*
X0085297Y0176562D03*
X0085322Y0176562D03*
X0085347Y0176587D03*
X0085372Y0176587D03*
X0085447Y0178487D03*
X0085472Y0178487D03*
X0084622Y0178487D03*
X0084597Y0178487D03*
X0086347Y0181112D03*
X0083097Y0184162D03*
X0083072Y0184162D03*
X0082672Y0184162D03*
X0082647Y0184162D03*
X0084672Y0189537D03*
X0084697Y0189537D03*
X0084747Y0189512D03*
X0084622Y0189562D03*
X0085347Y0189512D03*
X0085372Y0189512D03*
X0085422Y0189537D03*
X0085472Y0191437D03*
X0085422Y0191462D03*
X0085397Y0191462D03*
X0085347Y0191487D03*
X0085322Y0191487D03*
X0084772Y0191487D03*
X0084722Y0191462D03*
X0084697Y0191462D03*
X0084647Y0191437D03*
X0085397Y0166763D03*
X0085422Y0166763D03*
X0085372Y0166738D03*
X0085347Y0166738D03*
X0084847Y0166713D03*
X0084772Y0166738D03*
X0084747Y0166738D03*
X0084622Y0165488D03*
X0084547Y0165463D03*
X0084522Y0165463D03*
X0084472Y0165438D03*
X0084422Y0165413D03*
X0084397Y0163763D03*
X0084422Y0163738D03*
X0085522Y0163688D03*
X0085572Y0163713D03*
X0086222Y0160088D03*
X0086247Y0160088D03*
X0085272Y0159688D03*
X0085197Y0159663D03*
X0085147Y0159638D03*
X0085022Y0159588D03*
X0084897Y0159538D03*
X0084722Y0159463D03*
X0084722Y0158138D03*
X0084747Y0158138D03*
X0084772Y0158138D03*
X0084797Y0158138D03*
X0084822Y0158138D03*
X0084847Y0158138D03*
X0084872Y0158138D03*
X0084897Y0158138D03*
X0084922Y0158138D03*
X0084947Y0158138D03*
X0084972Y0158138D03*
X0084997Y0158138D03*
X0085022Y0158138D03*
X0085047Y0158138D03*
X0085072Y0158138D03*
X0085097Y0158138D03*
X0085122Y0158138D03*
X0085147Y0158138D03*
X0085172Y0158138D03*
X0085197Y0158138D03*
X0085222Y0158138D03*
X0085247Y0158138D03*
X0085272Y0158138D03*
X0085297Y0158138D03*
X0085322Y0158138D03*
X0085347Y0158138D03*
X0085372Y0158138D03*
X0085397Y0158138D03*
X0085422Y0158138D03*
X0085447Y0158138D03*
X0085472Y0158138D03*
X0085497Y0158138D03*
X0085522Y0158138D03*
X0085547Y0158138D03*
X0085572Y0158138D03*
X0085597Y0158138D03*
X0085622Y0158138D03*
X0085647Y0158138D03*
X0085672Y0158138D03*
X0084697Y0158138D03*
X0084672Y0158138D03*
X0084647Y0158138D03*
X0084622Y0158138D03*
X0084597Y0158138D03*
X0084572Y0158138D03*
X0084547Y0158138D03*
X0084522Y0158138D03*
X0084497Y0158138D03*
X0084472Y0158138D03*
X0084447Y0158138D03*
X0084422Y0158138D03*
X0084397Y0158138D03*
X0084372Y0158138D03*
X0084347Y0158138D03*
X0084322Y0158138D03*
X0084297Y0158138D03*
X0084272Y0158138D03*
X0084247Y0158138D03*
X0084222Y0158138D03*
X0084197Y0158138D03*
X0084172Y0158138D03*
X0084147Y0158138D03*
X0084122Y0158138D03*
X0084097Y0158138D03*
X0084072Y0158138D03*
X0084047Y0158138D03*
X0084022Y0158138D03*
X0083997Y0158138D03*
X0083972Y0158138D03*
X0083947Y0158138D03*
X0083922Y0158138D03*
X0083897Y0158138D03*
X0083872Y0158138D03*
X0083847Y0158138D03*
X0083822Y0158138D03*
X0083797Y0158138D03*
X0083772Y0158138D03*
X0083747Y0158138D03*
X0083722Y0158138D03*
X0083697Y0158138D03*
X0083672Y0158138D03*
X0083647Y0158138D03*
X0083622Y0158138D03*
X0083597Y0158138D03*
D68*
X0086322Y0160100D03*
X0085222Y0160525D03*
X0085097Y0160575D03*
X0084897Y0160650D03*
X0085247Y0163600D03*
X0085347Y0163625D03*
X0085372Y0163625D03*
X0083697Y0167700D03*
X0084622Y0168650D03*
X0085497Y0168625D03*
X0085572Y0173225D03*
X0085597Y0173225D03*
X0085622Y0173225D03*
X0085647Y0173225D03*
X0085672Y0173250D03*
X0085697Y0173250D03*
X0085472Y0173250D03*
X0085447Y0173250D03*
X0085447Y0174900D03*
X0085472Y0174900D03*
X0085497Y0174900D03*
X0085522Y0174900D03*
X0085547Y0174900D03*
X0085572Y0174900D03*
X0085597Y0174900D03*
X0085622Y0174900D03*
X0085647Y0174900D03*
X0085422Y0174900D03*
X0085397Y0174900D03*
X0085372Y0174900D03*
X0085347Y0174900D03*
X0085322Y0174900D03*
X0084797Y0174900D03*
X0084772Y0174900D03*
X0084747Y0174900D03*
X0084722Y0174900D03*
X0083697Y0174125D03*
D69*
X0085822Y0174912D03*
X0086322Y0164688D03*
X0085522Y0160088D03*
X0085497Y0160088D03*
D70*
X0085672Y0160088D03*
X0085697Y0160088D03*
X0083747Y0164613D03*
X0086322Y0167713D03*
X0086272Y0173837D03*
X0083772Y0174112D03*
X0083772Y0182012D03*
X0083797Y0182012D03*
X0083822Y0182012D03*
X0083847Y0182012D03*
X0083872Y0182012D03*
X0083897Y0182012D03*
X0083922Y0182012D03*
X0083947Y0182012D03*
X0083972Y0182012D03*
X0083997Y0182012D03*
X0084022Y0182012D03*
X0084047Y0182012D03*
X0084072Y0182012D03*
X0084097Y0182012D03*
X0084122Y0182012D03*
X0084147Y0182012D03*
X0084172Y0182012D03*
X0084197Y0182012D03*
X0084222Y0182012D03*
X0084247Y0182012D03*
X0084272Y0182012D03*
X0084297Y0182012D03*
X0084322Y0182012D03*
X0084347Y0182012D03*
X0084372Y0182012D03*
X0084397Y0182012D03*
X0084422Y0182012D03*
X0083747Y0182012D03*
D71*
X0084397Y0187812D03*
X0085747Y0189812D03*
X0085747Y0191187D03*
X0083772Y0177512D03*
X0084372Y0176862D03*
X0086322Y0173837D03*
X0085747Y0168413D03*
X0084397Y0167013D03*
X0085772Y0163963D03*
X0085847Y0160088D03*
X0085872Y0160088D03*
X0085897Y0160088D03*
D72*
X0085922Y0160088D03*
X0085947Y0160088D03*
X0084422Y0166963D03*
X0083747Y0167713D03*
X0085722Y0168463D03*
X0084447Y0171638D03*
X0084347Y0174687D03*
X0084397Y0176812D03*
X0085697Y0176837D03*
X0086322Y0177487D03*
X0085672Y0178362D03*
X0086297Y0181112D03*
D73*
X0085847Y0174862D03*
X0086297Y0164688D03*
X0083822Y0164613D03*
X0085372Y0160088D03*
X0085397Y0160088D03*
D74*
X0085572Y0160088D03*
X0083772Y0164613D03*
X0086297Y0167713D03*
X0083922Y0171238D03*
X0086197Y0181112D03*
D75*
X0085747Y0182275D03*
X0083897Y0187375D03*
X0086297Y0190500D03*
X0083797Y0174100D03*
X0083822Y0167700D03*
X0085547Y0160075D03*
D76*
X0084372Y0167738D03*
X0086122Y0174337D03*
X0086147Y0174337D03*
X0084322Y0177612D03*
X0084297Y0177612D03*
X0086272Y0178137D03*
D77*
X0083872Y0174075D03*
X0086197Y0167725D03*
X0086247Y0164700D03*
X0082697Y0161950D03*
X0082672Y0161950D03*
X0082647Y0161950D03*
X0083572Y0158575D03*
X0082747Y0158225D03*
X0082722Y0158225D03*
X0083922Y0190500D03*
D78*
X0083872Y0190500D03*
X0084422Y0186150D03*
X0086247Y0167725D03*
X0083222Y0161675D03*
X0085347Y0160075D03*
X0083247Y0158500D03*
X0083222Y0158500D03*
D79*
X0084197Y0167800D03*
X0085797Y0167725D03*
X0084247Y0170900D03*
X0084222Y0170900D03*
X0086247Y0174400D03*
X0084147Y0177675D03*
X0084322Y0190500D03*
X0084347Y0190500D03*
X0085797Y0190500D03*
D80*
X0086147Y0181662D03*
X0086247Y0178112D03*
X0086072Y0174312D03*
D81*
X0086222Y0164700D03*
X0083922Y0164600D03*
X0082972Y0161900D03*
X0082947Y0161900D03*
X0082922Y0161900D03*
X0082972Y0158275D03*
X0082997Y0158275D03*
X0086172Y0190500D03*
D82*
X0083897Y0190487D03*
X0084397Y0186187D03*
X0083847Y0174087D03*
X0086222Y0167713D03*
X0083422Y0161638D03*
X0083397Y0161638D03*
X0083397Y0158538D03*
X0083422Y0158538D03*
X0082572Y0158188D03*
X0082547Y0158188D03*
D83*
X0084222Y0167788D03*
X0084272Y0170913D03*
X0084297Y0170913D03*
X0084322Y0170913D03*
X0084347Y0170913D03*
X0086222Y0174387D03*
X0084172Y0177662D03*
X0085772Y0190487D03*
D84*
X0086122Y0181650D03*
X0086222Y0178100D03*
X0086047Y0174300D03*
X0086022Y0174300D03*
X0084697Y0164575D03*
D85*
X0086197Y0164713D03*
X0083172Y0161863D03*
X0083147Y0161863D03*
X0083122Y0161863D03*
X0083147Y0158313D03*
X0083172Y0158313D03*
X0083197Y0158313D03*
X0084847Y0174337D03*
D86*
X0086197Y0174362D03*
X0084247Y0177637D03*
X0084222Y0177637D03*
X0084297Y0167763D03*
D87*
X0084747Y0164575D03*
X0084772Y0164575D03*
X0084797Y0164575D03*
X0084822Y0164575D03*
X0084847Y0164575D03*
X0084872Y0164575D03*
X0084897Y0164575D03*
X0085922Y0174275D03*
X0085947Y0174275D03*
X0086197Y0178075D03*
X0086072Y0181625D03*
X0086047Y0181625D03*
D88*
X0086197Y0190487D03*
X0082772Y0161938D03*
X0082747Y0161938D03*
X0082722Y0161938D03*
X0082772Y0158238D03*
X0082797Y0158238D03*
X0082822Y0158238D03*
D89*
X0083997Y0164600D03*
X0086172Y0164700D03*
X0086097Y0167725D03*
X0084872Y0174300D03*
X0084022Y0190500D03*
X0086097Y0190500D03*
D90*
X0083897Y0174062D03*
X0086172Y0167713D03*
X0082897Y0161913D03*
X0082872Y0161913D03*
X0082847Y0161913D03*
X0082897Y0158263D03*
X0082922Y0158263D03*
X0082947Y0158263D03*
D91*
X0084322Y0167750D03*
X0084347Y0167750D03*
X0086172Y0174350D03*
X0084272Y0177625D03*
D92*
X0086172Y0178062D03*
X0086022Y0181612D03*
X0085897Y0174262D03*
X0085872Y0174262D03*
X0085222Y0164588D03*
X0085197Y0164588D03*
X0085172Y0164588D03*
X0084997Y0164563D03*
X0084972Y0164563D03*
X0084947Y0164563D03*
X0084922Y0164563D03*
D93*
X0086097Y0174325D03*
X0084347Y0177600D03*
X0086172Y0181675D03*
D94*
X0084922Y0174262D03*
X0083997Y0174037D03*
X0086147Y0164713D03*
D95*
X0083947Y0164600D03*
X0083097Y0161875D03*
X0083072Y0161875D03*
X0083047Y0161875D03*
X0083097Y0158300D03*
X0083122Y0158300D03*
X0086147Y0167725D03*
X0086147Y0190500D03*
X0083972Y0190500D03*
D96*
X0083972Y0186762D03*
X0085947Y0181587D03*
X0085972Y0181587D03*
X0086147Y0178037D03*
D97*
X0085572Y0178437D03*
X0084497Y0178437D03*
X0084522Y0176687D03*
X0085572Y0176687D03*
X0085597Y0176712D03*
X0084397Y0174787D03*
X0085847Y0173362D03*
X0084547Y0171738D03*
X0083772Y0171238D03*
X0084597Y0170138D03*
X0084472Y0168563D03*
X0085622Y0168588D03*
X0085622Y0166888D03*
X0085597Y0166863D03*
X0084547Y0166838D03*
X0084522Y0166863D03*
X0084322Y0165338D03*
X0086097Y0160088D03*
X0086122Y0160088D03*
X0085672Y0180537D03*
X0085622Y0182187D03*
X0082947Y0184162D03*
X0082922Y0184162D03*
X0082897Y0184162D03*
X0082872Y0184162D03*
X0082847Y0184162D03*
X0082822Y0184162D03*
X0082797Y0184162D03*
X0084572Y0186212D03*
X0084572Y0187937D03*
X0084547Y0187937D03*
X0084472Y0189662D03*
X0084472Y0191337D03*
X0085622Y0191337D03*
D98*
X0084947Y0174237D03*
X0086122Y0164713D03*
D99*
X0083972Y0164600D03*
X0083197Y0161850D03*
X0086122Y0167725D03*
X0083947Y0174050D03*
X0083997Y0190500D03*
X0086122Y0190500D03*
D100*
X0083997Y0186775D03*
X0085897Y0181575D03*
X0085922Y0181575D03*
X0086122Y0178025D03*
D101*
X0083847Y0177850D03*
X0084972Y0174225D03*
X0084022Y0174025D03*
X0086022Y0167725D03*
X0086097Y0164700D03*
X0086072Y0164675D03*
X0084072Y0164600D03*
X0084097Y0190500D03*
X0086022Y0190500D03*
D102*
X0084022Y0186787D03*
X0085847Y0181562D03*
X0085872Y0181562D03*
X0086097Y0178012D03*
D103*
X0086097Y0181637D03*
X0085997Y0174287D03*
X0085972Y0174287D03*
X0084722Y0164563D03*
D104*
X0085722Y0163863D03*
X0085647Y0166913D03*
X0085672Y0168538D03*
X0084497Y0171713D03*
X0085622Y0176737D03*
X0085647Y0176762D03*
X0084472Y0178412D03*
X0085672Y0182162D03*
X0084472Y0187887D03*
X0084447Y0189687D03*
X0085672Y0189687D03*
X0086047Y0160088D03*
X0086072Y0160088D03*
D105*
X0084022Y0164600D03*
X0086072Y0167725D03*
X0084897Y0174275D03*
X0083797Y0177900D03*
X0084047Y0190500D03*
X0086072Y0190500D03*
D106*
X0084047Y0186800D03*
X0085822Y0181550D03*
X0086072Y0178000D03*
D107*
X0084322Y0174162D03*
X0084297Y0174162D03*
X0084247Y0174137D03*
X0084197Y0174112D03*
X0084147Y0174087D03*
X0084097Y0174062D03*
X0084047Y0174037D03*
X0084097Y0164588D03*
X0086022Y0164638D03*
X0086047Y0164663D03*
D108*
X0084047Y0164600D03*
X0086047Y0167725D03*
X0083822Y0177875D03*
X0084072Y0190500D03*
X0086047Y0190500D03*
D109*
X0084097Y0186812D03*
X0084072Y0186812D03*
X0086047Y0177987D03*
D110*
X0086022Y0177975D03*
X0084147Y0186825D03*
X0084122Y0186825D03*
D111*
X0084122Y0190500D03*
X0085997Y0190500D03*
X0083872Y0177825D03*
X0084272Y0174150D03*
X0084222Y0174125D03*
X0084172Y0174100D03*
X0084122Y0174075D03*
X0084072Y0174050D03*
X0084997Y0174200D03*
X0083897Y0167950D03*
X0085997Y0167725D03*
X0085997Y0164625D03*
X0085972Y0164600D03*
X0085922Y0164575D03*
X0085897Y0164550D03*
D112*
X0085997Y0177962D03*
X0084197Y0186837D03*
X0084172Y0186837D03*
D113*
X0085997Y0181600D03*
X0085147Y0164575D03*
X0085122Y0164575D03*
X0085097Y0164575D03*
X0085072Y0164575D03*
X0085047Y0164575D03*
X0085022Y0164575D03*
D114*
X0084147Y0164600D03*
X0085972Y0167725D03*
X0085047Y0174175D03*
X0084147Y0190500D03*
X0085972Y0190500D03*
D115*
X0084272Y0186850D03*
X0084247Y0186850D03*
X0084222Y0186850D03*
X0085972Y0177950D03*
D116*
X0083897Y0177812D03*
X0085022Y0174187D03*
X0083922Y0167938D03*
X0084122Y0164588D03*
X0085797Y0164488D03*
X0085822Y0164513D03*
X0085847Y0164513D03*
X0085872Y0164538D03*
X0085947Y0164588D03*
D117*
X0085947Y0167725D03*
X0083972Y0167900D03*
X0085097Y0174150D03*
X0085122Y0174150D03*
X0083947Y0177775D03*
X0084197Y0190500D03*
X0085947Y0190500D03*
D118*
X0084347Y0186862D03*
X0084322Y0186862D03*
X0084297Y0186862D03*
X0085947Y0177937D03*
D119*
X0085197Y0174125D03*
X0085172Y0174125D03*
X0083972Y0170825D03*
X0084022Y0167875D03*
X0085897Y0167725D03*
X0085922Y0167725D03*
X0084222Y0190500D03*
D120*
X0084372Y0186875D03*
X0085922Y0177925D03*
D121*
X0083972Y0177762D03*
X0085147Y0174137D03*
X0083997Y0167888D03*
X0084197Y0164588D03*
X0085922Y0190487D03*
D122*
X0085897Y0177912D03*
X0085872Y0177912D03*
D123*
X0083997Y0177737D03*
X0085222Y0174112D03*
X0085247Y0174112D03*
X0084022Y0170838D03*
X0083997Y0170838D03*
X0084047Y0167863D03*
X0084222Y0164588D03*
X0084247Y0164588D03*
X0085897Y0190487D03*
D124*
X0085872Y0190500D03*
X0084247Y0190500D03*
X0084022Y0177725D03*
X0085272Y0174100D03*
X0085297Y0174100D03*
X0084047Y0170850D03*
X0084072Y0167850D03*
X0085872Y0167725D03*
D125*
X0085847Y0167725D03*
X0085822Y0167725D03*
X0084122Y0167825D03*
X0084122Y0170875D03*
X0084072Y0177700D03*
X0084297Y0190500D03*
X0085847Y0190500D03*
D126*
X0085847Y0177900D03*
D127*
X0085822Y0177887D03*
X0085797Y0177887D03*
D128*
X0084122Y0177687D03*
X0084097Y0177687D03*
X0084147Y0170888D03*
X0084172Y0170888D03*
X0084197Y0170888D03*
X0084172Y0167813D03*
X0084147Y0167813D03*
X0085822Y0190487D03*
D129*
X0083822Y0190500D03*
X0085722Y0182300D03*
X0085797Y0174950D03*
X0085597Y0160075D03*
D130*
X0085422Y0160075D03*
X0083847Y0167700D03*
X0083822Y0174100D03*
X0085797Y0182225D03*
X0083947Y0187375D03*
D131*
X0084197Y0177650D03*
X0084372Y0170925D03*
X0084397Y0170925D03*
X0084422Y0170925D03*
X0084272Y0167775D03*
X0084247Y0167775D03*
X0085772Y0167725D03*
D132*
X0085772Y0177875D03*
X0085747Y0177875D03*
D133*
X0083247Y0184162D03*
X0082497Y0184162D03*
X0085447Y0168538D03*
X0085747Y0165288D03*
D134*
X0085722Y0160075D03*
X0083872Y0171225D03*
X0085747Y0175000D03*
X0083847Y0187400D03*
X0083797Y0190500D03*
D135*
X0084422Y0191275D03*
X0085697Y0191275D03*
X0085697Y0189725D03*
X0084422Y0189725D03*
X0084522Y0186250D03*
X0085747Y0180600D03*
X0085622Y0178400D03*
X0084447Y0178400D03*
X0084447Y0176750D03*
X0084372Y0174750D03*
X0083722Y0174125D03*
X0084472Y0171675D03*
X0084547Y0170175D03*
X0084422Y0168525D03*
X0085697Y0168500D03*
X0085672Y0166925D03*
X0084472Y0166900D03*
X0084447Y0166925D03*
D136*
X0085422Y0168513D03*
X0085722Y0165338D03*
X0084772Y0173937D03*
D137*
X0085722Y0178550D03*
X0083947Y0190500D03*
X0083897Y0164600D03*
X0082822Y0161925D03*
X0082797Y0161925D03*
X0082847Y0158250D03*
X0082872Y0158250D03*
D138*
X0085697Y0165375D03*
X0085397Y0168475D03*
X0084422Y0173300D03*
D139*
X0085347Y0173325D03*
X0084697Y0171775D03*
X0084672Y0171775D03*
X0084647Y0171775D03*
X0084647Y0170100D03*
X0084522Y0168600D03*
X0085522Y0168650D03*
X0085497Y0166800D03*
X0085472Y0166775D03*
X0085447Y0166775D03*
X0084722Y0166750D03*
X0084697Y0166750D03*
X0084672Y0166775D03*
X0084647Y0166775D03*
X0084447Y0165425D03*
X0084397Y0165400D03*
X0084372Y0163775D03*
X0085597Y0163725D03*
X0085597Y0162025D03*
X0085622Y0162025D03*
X0085647Y0162025D03*
X0085672Y0162025D03*
X0085572Y0162025D03*
X0085547Y0162025D03*
X0085522Y0162025D03*
X0085497Y0162025D03*
X0085472Y0162025D03*
X0085447Y0162025D03*
X0085422Y0162025D03*
X0085397Y0162025D03*
X0085372Y0162025D03*
X0085347Y0162025D03*
X0085322Y0162025D03*
X0085297Y0162025D03*
X0085272Y0162025D03*
X0085247Y0162025D03*
X0085222Y0162025D03*
X0085197Y0162025D03*
X0085172Y0162025D03*
X0085147Y0162025D03*
X0085122Y0162025D03*
X0085097Y0162025D03*
X0085072Y0162025D03*
X0085047Y0162025D03*
X0085022Y0162025D03*
X0084997Y0162025D03*
X0084972Y0162025D03*
X0084947Y0162025D03*
X0084922Y0162025D03*
X0084897Y0162025D03*
X0084872Y0162025D03*
X0084847Y0162025D03*
X0084822Y0162025D03*
X0084797Y0162025D03*
X0084772Y0162025D03*
X0084747Y0162025D03*
X0084722Y0162025D03*
X0084697Y0162025D03*
X0084672Y0162025D03*
X0084647Y0162025D03*
X0084622Y0162025D03*
X0084597Y0162025D03*
X0084572Y0162025D03*
X0084547Y0162025D03*
X0084522Y0162025D03*
X0084497Y0162025D03*
X0084472Y0162025D03*
X0084447Y0162025D03*
X0084422Y0162025D03*
X0084397Y0162025D03*
X0084372Y0162025D03*
X0084347Y0162025D03*
X0084322Y0162025D03*
X0084297Y0162025D03*
X0084272Y0162025D03*
X0084247Y0162025D03*
X0084222Y0162025D03*
X0084197Y0162025D03*
X0084172Y0162025D03*
X0084147Y0162025D03*
X0084122Y0162025D03*
X0084097Y0162025D03*
X0084072Y0162025D03*
X0084047Y0162025D03*
X0084022Y0162025D03*
X0083997Y0162025D03*
X0083972Y0162025D03*
X0083947Y0162025D03*
X0083922Y0162025D03*
X0083897Y0162025D03*
X0083872Y0162025D03*
X0083847Y0162025D03*
X0083822Y0162025D03*
X0083797Y0162025D03*
X0083772Y0162025D03*
X0083747Y0162025D03*
X0083722Y0162025D03*
X0083697Y0162025D03*
X0083672Y0162025D03*
X0083647Y0162025D03*
X0083622Y0162025D03*
X0083597Y0162025D03*
X0083572Y0162025D03*
X0083547Y0162025D03*
X0083522Y0162025D03*
X0083497Y0162025D03*
X0084547Y0159400D03*
X0084572Y0159400D03*
X0084597Y0159400D03*
X0084622Y0159425D03*
X0084647Y0159425D03*
X0084672Y0159450D03*
X0084697Y0159450D03*
X0084747Y0159475D03*
X0084772Y0159475D03*
X0084797Y0159500D03*
X0084822Y0159500D03*
X0084847Y0159525D03*
X0084872Y0159525D03*
X0084922Y0159550D03*
X0084947Y0159550D03*
X0084972Y0159575D03*
X0084997Y0159575D03*
X0085047Y0159600D03*
X0085072Y0159600D03*
X0085097Y0159625D03*
X0085122Y0159625D03*
X0085172Y0159650D03*
X0085222Y0159675D03*
X0085247Y0159675D03*
X0084522Y0159375D03*
X0084497Y0159375D03*
X0084472Y0159350D03*
X0084447Y0159350D03*
X0084397Y0159325D03*
X0084372Y0159325D03*
X0084347Y0159300D03*
X0084322Y0159300D03*
X0084297Y0159275D03*
X0084272Y0159275D03*
X0084247Y0159275D03*
X0084222Y0159250D03*
X0084197Y0159250D03*
X0084172Y0159225D03*
X0084147Y0159225D03*
X0084097Y0159200D03*
X0084072Y0159200D03*
X0084047Y0159175D03*
X0084022Y0159175D03*
X0083972Y0159150D03*
X0083922Y0159125D03*
X0083897Y0159125D03*
X0083847Y0159100D03*
X0083797Y0159075D03*
X0083772Y0159075D03*
X0083747Y0159050D03*
X0083722Y0159050D03*
X0083672Y0159025D03*
X0083622Y0159000D03*
X0083597Y0159000D03*
X0084447Y0174825D03*
X0084497Y0174850D03*
X0084672Y0176600D03*
X0084697Y0176600D03*
X0084622Y0176625D03*
X0085397Y0176600D03*
X0085422Y0176600D03*
X0085447Y0176625D03*
X0085472Y0176625D03*
X0085497Y0178475D03*
X0084572Y0178475D03*
X0084572Y0180450D03*
X0084597Y0180450D03*
X0084622Y0180450D03*
X0084647Y0180450D03*
X0084672Y0180450D03*
X0084697Y0180450D03*
X0084722Y0180450D03*
X0084747Y0180450D03*
X0084772Y0180450D03*
X0084797Y0180450D03*
X0084822Y0180450D03*
X0084847Y0180450D03*
X0084872Y0180450D03*
X0084897Y0180450D03*
X0084922Y0180450D03*
X0084947Y0180450D03*
X0084972Y0180450D03*
X0084997Y0180450D03*
X0085022Y0180450D03*
X0085047Y0180450D03*
X0085072Y0180450D03*
X0085097Y0180450D03*
X0085122Y0180450D03*
X0085147Y0180450D03*
X0085172Y0180450D03*
X0085197Y0180450D03*
X0085222Y0180450D03*
X0085247Y0180450D03*
X0085272Y0180450D03*
X0085297Y0180450D03*
X0085322Y0180450D03*
X0085347Y0180450D03*
X0085372Y0180450D03*
X0085397Y0180450D03*
X0085422Y0180450D03*
X0085447Y0180475D03*
X0085472Y0180475D03*
X0085497Y0180475D03*
X0085522Y0180475D03*
X0084547Y0180450D03*
X0084522Y0180450D03*
X0084497Y0180450D03*
X0084472Y0180450D03*
X0084447Y0180450D03*
X0084447Y0182225D03*
X0084472Y0182225D03*
X0084497Y0182225D03*
X0084522Y0182225D03*
X0084547Y0182225D03*
X0084572Y0182225D03*
X0084597Y0182225D03*
X0084622Y0182225D03*
X0084647Y0182225D03*
X0084672Y0182225D03*
X0084697Y0182225D03*
X0084722Y0182225D03*
X0084747Y0182225D03*
X0084772Y0182225D03*
X0084797Y0182225D03*
X0084822Y0182225D03*
X0084847Y0182225D03*
X0084872Y0182225D03*
X0084897Y0182225D03*
X0084922Y0182225D03*
X0084947Y0182225D03*
X0084972Y0182225D03*
X0084997Y0182225D03*
X0085022Y0182225D03*
X0085047Y0182225D03*
X0085072Y0182225D03*
X0085097Y0182225D03*
X0085122Y0182225D03*
X0085147Y0182225D03*
X0085172Y0182225D03*
X0085197Y0182225D03*
X0085222Y0182225D03*
X0085247Y0182225D03*
X0085272Y0182225D03*
X0085297Y0182225D03*
X0085322Y0182225D03*
X0085347Y0182225D03*
X0085372Y0182225D03*
X0085397Y0182225D03*
X0085422Y0182225D03*
X0085447Y0182225D03*
X0085472Y0182225D03*
X0085497Y0182225D03*
X0085497Y0186175D03*
X0085522Y0186175D03*
X0085547Y0186175D03*
X0085572Y0186175D03*
X0085597Y0186175D03*
X0085622Y0186175D03*
X0085647Y0186175D03*
X0085672Y0186175D03*
X0085472Y0186175D03*
X0085447Y0186175D03*
X0085422Y0186175D03*
X0085397Y0186175D03*
X0085372Y0186175D03*
X0085347Y0186175D03*
X0085322Y0186175D03*
X0085297Y0186175D03*
X0085272Y0186175D03*
X0085247Y0186175D03*
X0085222Y0186175D03*
X0085197Y0186175D03*
X0085172Y0186175D03*
X0085147Y0186175D03*
X0085122Y0186175D03*
X0085097Y0186175D03*
X0085072Y0186175D03*
X0085047Y0186175D03*
X0085022Y0186175D03*
X0084997Y0186175D03*
X0084972Y0186175D03*
X0084947Y0186175D03*
X0084922Y0186175D03*
X0084897Y0186175D03*
X0084872Y0186175D03*
X0084847Y0186175D03*
X0084822Y0186175D03*
X0084797Y0186175D03*
X0084772Y0186175D03*
X0084747Y0186175D03*
X0084722Y0186175D03*
X0084697Y0186175D03*
X0084672Y0186175D03*
X0084722Y0187975D03*
X0084747Y0187975D03*
X0084772Y0187975D03*
X0084797Y0187975D03*
X0084822Y0187975D03*
X0084847Y0187975D03*
X0084872Y0187975D03*
X0084897Y0187975D03*
X0084922Y0187975D03*
X0084947Y0187975D03*
X0084972Y0187975D03*
X0084997Y0187975D03*
X0085022Y0187975D03*
X0085047Y0187975D03*
X0085072Y0187975D03*
X0085097Y0187975D03*
X0085122Y0187975D03*
X0085147Y0187975D03*
X0085172Y0187975D03*
X0085197Y0187975D03*
X0085222Y0187975D03*
X0085247Y0187975D03*
X0085272Y0187975D03*
X0085297Y0187975D03*
X0085322Y0187975D03*
X0085347Y0187975D03*
X0085372Y0187975D03*
X0085397Y0187975D03*
X0085422Y0187975D03*
X0085447Y0187975D03*
X0085472Y0187975D03*
X0085497Y0187975D03*
X0085522Y0187975D03*
X0085547Y0187975D03*
X0085572Y0187975D03*
X0085597Y0187975D03*
X0085622Y0187975D03*
X0085647Y0187975D03*
X0085672Y0187975D03*
X0085472Y0189550D03*
X0085447Y0189550D03*
X0085497Y0189575D03*
X0084647Y0189550D03*
X0084597Y0189575D03*
X0084572Y0191400D03*
X0084597Y0191425D03*
X0084622Y0191425D03*
X0084672Y0191450D03*
X0085447Y0191450D03*
X0085497Y0191425D03*
D140*
X0083322Y0184162D03*
X0082422Y0184162D03*
X0084447Y0173287D03*
X0085672Y0165413D03*
D141*
X0085647Y0165425D03*
D142*
X0085622Y0165450D03*
D143*
X0084647Y0168663D03*
X0085497Y0173237D03*
X0085522Y0173237D03*
X0085547Y0173237D03*
X0083172Y0184162D03*
X0083147Y0184162D03*
X0082597Y0184162D03*
X0082572Y0184162D03*
D144*
X0085372Y0168425D03*
D145*
X0085347Y0168400D03*
D146*
X0083947Y0167913D03*
X0084172Y0164588D03*
X0085072Y0174162D03*
X0083922Y0177787D03*
X0084172Y0190487D03*
D147*
X0084497Y0173237D03*
D148*
X0084472Y0173262D03*
D149*
X0084372Y0173375D03*
D150*
X0084097Y0170863D03*
X0084072Y0170863D03*
X0084097Y0167838D03*
X0084047Y0177712D03*
X0084272Y0190487D03*
D151*
X0083972Y0174037D03*
D152*
X0083922Y0174062D03*
X0083022Y0161888D03*
X0082997Y0161888D03*
X0083022Y0158288D03*
X0083047Y0158288D03*
X0083072Y0158288D03*
D153*
X0082697Y0158213D03*
X0082672Y0158213D03*
X0083522Y0158563D03*
X0083547Y0158563D03*
X0082622Y0161963D03*
X0082597Y0161963D03*
X0083872Y0164613D03*
D154*
X0083672Y0167713D03*
X0083272Y0184162D03*
X0082472Y0184162D03*
D155*
X0083672Y0174125D03*
D156*
X0088052Y0151532D03*
X0088052Y0143068D03*
X0104391Y0143068D03*
X0104391Y0151532D03*
M02*
