G75*
%MOIN*%
%OFA0B0*%
%FSLAX25Y25*%
%IPPOS*%
%LPD*%
%AMOC8*
5,1,8,0,0,1.08239X$1,22.5*
%
%ADD10C,0.00500*%
%ADD11C,0.00300*%
%ADD12C,0.00000*%
%ADD13C,0.00800*%
%ADD14C,0.01600*%
%ADD15R,0.00787X0.00787*%
%ADD16C,0.00787*%
%ADD17C,0.00400*%
%ADD18C,0.02200*%
%ADD19R,0.00050X0.00650*%
%ADD20R,0.00050X0.01300*%
%ADD21R,0.00050X0.01750*%
%ADD22R,0.00050X0.02000*%
%ADD23R,0.00050X0.02300*%
%ADD24R,0.00050X0.02550*%
%ADD25R,0.00050X0.02800*%
%ADD26R,0.00050X0.02950*%
%ADD27R,0.00050X0.03200*%
%ADD28R,0.00050X0.03350*%
%ADD29R,0.00050X0.03500*%
%ADD30R,0.00050X0.03650*%
%ADD31R,0.00050X0.03750*%
%ADD32R,0.00050X0.03950*%
%ADD33R,0.00050X0.04100*%
%ADD34R,0.00050X0.04250*%
%ADD35R,0.00050X0.04400*%
%ADD36R,0.00050X0.04500*%
%ADD37R,0.00050X0.04600*%
%ADD38R,0.00050X0.04750*%
%ADD39R,0.00050X0.04900*%
%ADD40R,0.00050X0.04950*%
%ADD41R,0.00050X0.05100*%
%ADD42R,0.00050X0.05200*%
%ADD43R,0.00050X0.05350*%
%ADD44R,0.00050X0.05400*%
%ADD45R,0.00050X0.05550*%
%ADD46R,0.00050X0.05650*%
%ADD47R,0.00050X0.05750*%
%ADD48R,0.00050X0.05850*%
%ADD49R,0.00050X0.05950*%
%ADD50R,0.00050X0.06050*%
%ADD51R,0.00050X0.06150*%
%ADD52R,0.00050X0.06250*%
%ADD53R,0.00050X0.06300*%
%ADD54R,0.00050X0.06450*%
%ADD55R,0.00050X0.06500*%
%ADD56R,0.00050X0.06600*%
%ADD57R,0.00050X0.06700*%
%ADD58R,0.00050X0.06800*%
%ADD59R,0.00050X0.06850*%
%ADD60R,0.00050X0.07000*%
%ADD61R,0.00050X0.07050*%
%ADD62R,0.00050X0.07100*%
%ADD63R,0.00050X0.07200*%
%ADD64R,0.00050X0.07300*%
%ADD65R,0.00050X0.07350*%
%ADD66R,0.00050X0.07450*%
%ADD67R,0.00050X0.07550*%
%ADD68R,0.00050X0.07650*%
%ADD69R,0.00050X0.07700*%
%ADD70R,0.00050X0.07750*%
%ADD71R,0.00050X0.07900*%
%ADD72R,0.00050X0.07950*%
%ADD73R,0.00050X0.08000*%
%ADD74R,0.00050X0.08100*%
%ADD75R,0.00050X0.08200*%
%ADD76R,0.00050X0.08250*%
%ADD77R,0.00050X0.08300*%
%ADD78R,0.00050X0.08450*%
%ADD79R,0.00050X0.08500*%
%ADD80R,0.00050X0.08550*%
%ADD81R,0.00050X0.08650*%
%ADD82R,0.00050X0.08700*%
%ADD83R,0.00050X0.08800*%
%ADD84R,0.00050X0.08850*%
%ADD85R,0.00050X0.08950*%
%ADD86R,0.00050X0.09000*%
%ADD87R,0.00050X0.09050*%
%ADD88R,0.00050X0.09200*%
%ADD89R,0.00050X0.09250*%
%ADD90R,0.00050X0.09300*%
%ADD91R,0.00050X0.09350*%
%ADD92R,0.00050X0.09450*%
%ADD93R,0.00050X0.09550*%
%ADD94R,0.00050X0.09600*%
%ADD95R,0.00050X0.09650*%
%ADD96R,0.00050X0.09750*%
%ADD97R,0.00050X0.09800*%
%ADD98R,0.00050X0.09900*%
%ADD99R,0.00050X0.09950*%
%ADD100R,0.00050X0.10100*%
%ADD101R,0.00050X0.10150*%
%ADD102R,0.00050X0.10200*%
%ADD103R,0.00050X0.10300*%
%ADD104R,0.00050X0.07250*%
%ADD105R,0.00050X0.02050*%
%ADD106R,0.00050X0.01400*%
%ADD107R,0.00050X0.06750*%
%ADD108R,0.00050X0.01150*%
%ADD109R,0.00050X0.06550*%
%ADD110R,0.00050X0.00900*%
%ADD111R,0.00050X0.00700*%
%ADD112R,0.00050X0.06350*%
%ADD113R,0.00050X0.00500*%
%ADD114R,0.00050X0.00300*%
%ADD115R,0.00050X0.00100*%
%ADD116R,0.00050X0.06100*%
%ADD117R,0.00050X0.06000*%
%ADD118R,0.00050X0.05900*%
%ADD119R,0.00050X0.06200*%
%ADD120R,0.00050X0.06650*%
%ADD121R,0.00050X0.08050*%
%ADD122R,0.00050X0.07800*%
%ADD123R,0.00050X0.07600*%
%ADD124R,0.00050X0.07500*%
%ADD125R,0.00050X0.07400*%
%ADD126R,0.00050X0.05500*%
%ADD127R,0.00050X0.05250*%
%ADD128R,0.00050X0.05000*%
%ADD129R,0.00050X0.04850*%
%ADD130R,0.00050X0.04650*%
%ADD131R,0.00050X0.04450*%
%ADD132R,0.00050X0.04300*%
%ADD133R,0.00050X0.00050*%
%ADD134R,0.00050X0.01100*%
%ADD135R,0.00050X0.01500*%
%ADD136R,0.00050X0.01950*%
%ADD137R,0.00050X0.01900*%
%ADD138R,0.00050X0.01800*%
%ADD139R,0.00050X0.02200*%
%ADD140R,0.00050X0.02100*%
%ADD141R,0.00050X0.02650*%
%ADD142R,0.00050X0.02900*%
%ADD143R,0.00050X0.02500*%
%ADD144R,0.00050X0.03050*%
%ADD145R,0.00050X0.02750*%
%ADD146R,0.00050X0.02700*%
%ADD147R,0.00050X0.03400*%
%ADD148R,0.00050X0.03250*%
%ADD149R,0.00050X0.02850*%
%ADD150R,0.00050X0.03600*%
%ADD151R,0.00050X0.03450*%
%ADD152R,0.00050X0.03150*%
%ADD153R,0.00050X0.03100*%
%ADD154R,0.00050X0.03800*%
%ADD155R,0.00050X0.03300*%
%ADD156R,0.00050X0.04000*%
%ADD157R,0.00050X0.04150*%
%ADD158R,0.00050X0.03550*%
%ADD159R,0.00050X0.03700*%
%ADD160R,0.00050X0.04550*%
%ADD161R,0.00050X0.03850*%
%ADD162R,0.00050X0.04050*%
%ADD163R,0.00050X0.03900*%
%ADD164R,0.00050X0.05050*%
%ADD165R,0.00050X0.04200*%
%ADD166R,0.00050X0.05150*%
%ADD167R,0.00050X0.05300*%
%ADD168R,0.00050X0.05450*%
%ADD169R,0.00050X0.04350*%
%ADD170R,0.00050X0.05600*%
%ADD171R,0.00050X0.05700*%
%ADD172R,0.00050X0.05800*%
%ADD173R,0.00050X0.15100*%
%ADD174R,0.00050X0.15150*%
%ADD175R,0.00050X0.15200*%
%ADD176R,0.00050X0.15250*%
%ADD177R,0.00050X0.15350*%
%ADD178R,0.00050X0.15400*%
%ADD179R,0.00050X0.06400*%
%ADD180R,0.00050X0.15450*%
%ADD181R,0.00050X0.15550*%
%ADD182R,0.00050X0.01700*%
%ADD183R,0.00050X0.15600*%
%ADD184R,0.00050X0.01650*%
%ADD185R,0.00050X0.15650*%
%ADD186R,0.00050X0.01550*%
%ADD187R,0.00050X0.08150*%
%ADD188R,0.00050X0.07850*%
%ADD189R,0.00050X0.01450*%
%ADD190R,0.00050X0.01350*%
%ADD191R,0.00050X0.02450*%
%ADD192R,0.00050X0.02400*%
%ADD193R,0.00050X0.00150*%
%ADD194R,0.00050X0.02350*%
%ADD195R,0.00050X0.02150*%
%ADD196R,0.00050X0.02250*%
%ADD197R,0.00050X0.03000*%
%ADD198R,0.00050X0.01250*%
%ADD199R,0.00050X0.01200*%
%ADD200R,0.00050X0.01050*%
%ADD201R,0.00050X0.01850*%
%ADD202R,0.00050X0.00450*%
%ADD203R,0.00050X0.01600*%
%ADD204R,0.00050X0.02600*%
%ADD205R,0.00050X0.06950*%
%ADD206R,0.00050X0.06900*%
%ADD207R,0.00050X0.00600*%
%ADD208R,0.00050X0.00250*%
%ADD209R,0.00050X0.00800*%
%ADD210R,0.00050X0.10700*%
%ADD211R,0.00050X0.10750*%
%ADD212R,0.00050X0.04800*%
%ADD213R,0.00050X0.04700*%
%ADD214R,0.00050X0.14000*%
%ADD215R,0.00050X0.11000*%
%ADD216R,0.00050X0.14050*%
%ADD217R,0.00050X0.07150*%
%ADD218R,0.00050X0.11050*%
%ADD219R,0.00050X0.14150*%
%ADD220R,0.00050X0.11150*%
%ADD221R,0.00050X0.11200*%
%ADD222R,0.00050X0.14250*%
%ADD223R,0.00050X0.11250*%
%ADD224R,0.00050X0.14300*%
%ADD225R,0.00050X0.11300*%
%ADD226R,0.00050X0.14350*%
%ADD227R,0.00050X0.11350*%
%ADD228R,0.00050X0.14400*%
%ADD229R,0.00050X0.11450*%
%ADD230R,0.00050X0.14450*%
%ADD231R,0.00050X0.08400*%
%ADD232R,0.00050X0.14500*%
%ADD233R,0.00050X0.16650*%
%ADD234R,0.00050X0.10050*%
%ADD235R,0.00050X0.09500*%
%ADD236R,0.00050X0.00350*%
%ADD237R,0.00050X0.00750*%
%ADD238R,0.00050X0.00950*%
%ADD239R,0.00050X0.00200*%
%ADD240R,0.00050X0.10450*%
%ADD241R,0.00050X0.10500*%
%ADD242R,0.00050X0.10600*%
%ADD243R,0.00050X0.10650*%
%ADD244R,0.00050X0.10800*%
%ADD245R,0.00050X0.10850*%
%ADD246R,0.00050X0.17100*%
%ADD247R,0.00050X0.17050*%
%ADD248R,0.00050X0.17000*%
%ADD249R,0.00050X0.16950*%
%ADD250R,0.00050X0.16900*%
%ADD251R,0.00050X0.16800*%
%ADD252R,0.00050X0.16750*%
%ADD253R,0.00050X0.16600*%
%ADD254R,0.00050X0.16500*%
%ADD255R,0.00050X0.16450*%
%ADD256R,0.00050X0.16350*%
%ADD257R,0.00050X0.16300*%
%ADD258R,0.00050X0.16200*%
%ADD259R,0.00050X0.16150*%
%ADD260R,0.00050X0.16100*%
%ADD261R,0.00050X0.16000*%
%ADD262R,0.00050X0.15900*%
%ADD263R,0.00050X0.15800*%
%ADD264R,0.00050X0.15700*%
%ADD265R,0.00050X0.15000*%
%ADD266R,0.00050X0.14850*%
%ADD267R,0.00050X0.14700*%
%ADD268R,0.00050X0.14650*%
%ADD269R,0.00050X0.10400*%
%ADD270R,0.00050X0.01000*%
%ADD271R,0.00050X0.00550*%
%ADD272C,0.00039*%
%ADD273R,0.03000X0.01800*%
%ADD274C,0.00591*%
D10*
X0080154Y0045232D02*
X0080154Y0211768D01*
X0246689Y0211768D01*
X0246689Y0045232D01*
X0080154Y0045232D01*
X0163422Y0119839D02*
X0163422Y0128500D01*
X0155538Y0128500D02*
X0155540Y0128693D01*
X0155547Y0128887D01*
X0155559Y0129080D01*
X0155576Y0129273D01*
X0155597Y0129465D01*
X0155623Y0129657D01*
X0155654Y0129848D01*
X0155689Y0130038D01*
X0155730Y0130227D01*
X0155774Y0130416D01*
X0155824Y0130603D01*
X0155877Y0130789D01*
X0155936Y0130973D01*
X0155999Y0131156D01*
X0156066Y0131337D01*
X0156138Y0131517D01*
X0156214Y0131695D01*
X0156295Y0131871D01*
X0156380Y0132045D01*
X0156469Y0132216D01*
X0156562Y0132386D01*
X0156660Y0132553D01*
X0156761Y0132718D01*
X0156867Y0132880D01*
X0156976Y0133040D01*
X0157090Y0133196D01*
X0157207Y0133350D01*
X0157328Y0133502D01*
X0157452Y0133650D01*
X0157580Y0133795D01*
X0157712Y0133936D01*
X0157847Y0134075D01*
X0157986Y0134210D01*
X0158127Y0134342D01*
X0158272Y0134470D01*
X0158420Y0134594D01*
X0158572Y0134715D01*
X0158726Y0134832D01*
X0158882Y0134946D01*
X0159042Y0135055D01*
X0159204Y0135161D01*
X0159369Y0135262D01*
X0159536Y0135360D01*
X0159706Y0135453D01*
X0159877Y0135542D01*
X0160051Y0135627D01*
X0160227Y0135708D01*
X0160405Y0135784D01*
X0160585Y0135856D01*
X0160766Y0135923D01*
X0160949Y0135986D01*
X0161133Y0136045D01*
X0161319Y0136098D01*
X0161506Y0136148D01*
X0161695Y0136192D01*
X0161884Y0136233D01*
X0162074Y0136268D01*
X0162265Y0136299D01*
X0162457Y0136325D01*
X0162649Y0136346D01*
X0162842Y0136363D01*
X0163035Y0136375D01*
X0163229Y0136382D01*
X0163422Y0136384D01*
X0163615Y0136382D01*
X0163809Y0136375D01*
X0164002Y0136363D01*
X0164195Y0136346D01*
X0164387Y0136325D01*
X0164579Y0136299D01*
X0164770Y0136268D01*
X0164960Y0136233D01*
X0165149Y0136192D01*
X0165338Y0136148D01*
X0165525Y0136098D01*
X0165711Y0136045D01*
X0165895Y0135986D01*
X0166078Y0135923D01*
X0166259Y0135856D01*
X0166439Y0135784D01*
X0166617Y0135708D01*
X0166793Y0135627D01*
X0166967Y0135542D01*
X0167138Y0135453D01*
X0167308Y0135360D01*
X0167475Y0135262D01*
X0167640Y0135161D01*
X0167802Y0135055D01*
X0167962Y0134946D01*
X0168118Y0134832D01*
X0168272Y0134715D01*
X0168424Y0134594D01*
X0168572Y0134470D01*
X0168717Y0134342D01*
X0168858Y0134210D01*
X0168997Y0134075D01*
X0169132Y0133936D01*
X0169264Y0133795D01*
X0169392Y0133650D01*
X0169516Y0133502D01*
X0169637Y0133350D01*
X0169754Y0133196D01*
X0169868Y0133040D01*
X0169977Y0132880D01*
X0170083Y0132718D01*
X0170184Y0132553D01*
X0170282Y0132386D01*
X0170375Y0132216D01*
X0170464Y0132045D01*
X0170549Y0131871D01*
X0170630Y0131695D01*
X0170706Y0131517D01*
X0170778Y0131337D01*
X0170845Y0131156D01*
X0170908Y0130973D01*
X0170967Y0130789D01*
X0171020Y0130603D01*
X0171070Y0130416D01*
X0171114Y0130227D01*
X0171155Y0130038D01*
X0171190Y0129848D01*
X0171221Y0129657D01*
X0171247Y0129465D01*
X0171268Y0129273D01*
X0171285Y0129080D01*
X0171297Y0128887D01*
X0171304Y0128693D01*
X0171306Y0128500D01*
X0171304Y0128307D01*
X0171297Y0128113D01*
X0171285Y0127920D01*
X0171268Y0127727D01*
X0171247Y0127535D01*
X0171221Y0127343D01*
X0171190Y0127152D01*
X0171155Y0126962D01*
X0171114Y0126773D01*
X0171070Y0126584D01*
X0171020Y0126397D01*
X0170967Y0126211D01*
X0170908Y0126027D01*
X0170845Y0125844D01*
X0170778Y0125663D01*
X0170706Y0125483D01*
X0170630Y0125305D01*
X0170549Y0125129D01*
X0170464Y0124955D01*
X0170375Y0124784D01*
X0170282Y0124614D01*
X0170184Y0124447D01*
X0170083Y0124282D01*
X0169977Y0124120D01*
X0169868Y0123960D01*
X0169754Y0123804D01*
X0169637Y0123650D01*
X0169516Y0123498D01*
X0169392Y0123350D01*
X0169264Y0123205D01*
X0169132Y0123064D01*
X0168997Y0122925D01*
X0168858Y0122790D01*
X0168717Y0122658D01*
X0168572Y0122530D01*
X0168424Y0122406D01*
X0168272Y0122285D01*
X0168118Y0122168D01*
X0167962Y0122054D01*
X0167802Y0121945D01*
X0167640Y0121839D01*
X0167475Y0121738D01*
X0167308Y0121640D01*
X0167138Y0121547D01*
X0166967Y0121458D01*
X0166793Y0121373D01*
X0166617Y0121292D01*
X0166439Y0121216D01*
X0166259Y0121144D01*
X0166078Y0121077D01*
X0165895Y0121014D01*
X0165711Y0120955D01*
X0165525Y0120902D01*
X0165338Y0120852D01*
X0165149Y0120808D01*
X0164960Y0120767D01*
X0164770Y0120732D01*
X0164579Y0120701D01*
X0164387Y0120675D01*
X0164195Y0120654D01*
X0164002Y0120637D01*
X0163809Y0120625D01*
X0163615Y0120618D01*
X0163422Y0120616D01*
X0163229Y0120618D01*
X0163035Y0120625D01*
X0162842Y0120637D01*
X0162649Y0120654D01*
X0162457Y0120675D01*
X0162265Y0120701D01*
X0162074Y0120732D01*
X0161884Y0120767D01*
X0161695Y0120808D01*
X0161506Y0120852D01*
X0161319Y0120902D01*
X0161133Y0120955D01*
X0160949Y0121014D01*
X0160766Y0121077D01*
X0160585Y0121144D01*
X0160405Y0121216D01*
X0160227Y0121292D01*
X0160051Y0121373D01*
X0159877Y0121458D01*
X0159706Y0121547D01*
X0159536Y0121640D01*
X0159369Y0121738D01*
X0159204Y0121839D01*
X0159042Y0121945D01*
X0158882Y0122054D01*
X0158726Y0122168D01*
X0158572Y0122285D01*
X0158420Y0122406D01*
X0158272Y0122530D01*
X0158127Y0122658D01*
X0157986Y0122790D01*
X0157847Y0122925D01*
X0157712Y0123064D01*
X0157580Y0123205D01*
X0157452Y0123350D01*
X0157328Y0123498D01*
X0157207Y0123650D01*
X0157090Y0123804D01*
X0156976Y0123960D01*
X0156867Y0124120D01*
X0156761Y0124282D01*
X0156660Y0124447D01*
X0156562Y0124614D01*
X0156469Y0124784D01*
X0156380Y0124955D01*
X0156295Y0125129D01*
X0156214Y0125305D01*
X0156138Y0125483D01*
X0156066Y0125663D01*
X0155999Y0125844D01*
X0155936Y0126027D01*
X0155877Y0126211D01*
X0155824Y0126397D01*
X0155774Y0126584D01*
X0155730Y0126773D01*
X0155689Y0126962D01*
X0155654Y0127152D01*
X0155623Y0127343D01*
X0155597Y0127535D01*
X0155576Y0127727D01*
X0155559Y0127920D01*
X0155547Y0128113D01*
X0155540Y0128307D01*
X0155538Y0128500D01*
X0154760Y0128500D02*
X0163422Y0128500D01*
X0172083Y0128500D01*
X0169772Y0127355D02*
X0169772Y0125553D01*
X0169772Y0126454D02*
X0167069Y0126454D01*
X0167970Y0125553D01*
X0169772Y0124408D02*
X0169772Y0122607D01*
X0169772Y0123507D02*
X0167069Y0123507D01*
X0167970Y0122607D01*
X0167520Y0121462D02*
X0169321Y0121462D01*
X0169772Y0121011D01*
X0169772Y0119660D01*
X0167069Y0119660D01*
X0167069Y0121011D01*
X0167520Y0121462D01*
X0159772Y0124571D02*
X0159772Y0125922D01*
X0159321Y0126372D01*
X0157520Y0126372D01*
X0157069Y0125922D01*
X0157069Y0124571D01*
X0159772Y0124571D01*
X0159772Y0127517D02*
X0159772Y0129319D01*
X0159772Y0128418D02*
X0157069Y0128418D01*
X0157970Y0127517D01*
X0157520Y0130464D02*
X0157069Y0130914D01*
X0157069Y0131815D01*
X0157520Y0132265D01*
X0159321Y0130464D01*
X0159772Y0130914D01*
X0159772Y0131815D01*
X0159321Y0132265D01*
X0157520Y0132265D01*
X0157520Y0130464D02*
X0159321Y0130464D01*
X0163422Y0128500D02*
X0163422Y0137161D01*
X0159772Y0136807D02*
X0159772Y0137708D01*
X0159321Y0138159D01*
X0158871Y0138159D01*
X0158421Y0137708D01*
X0158421Y0136807D01*
X0157970Y0136357D01*
X0157520Y0136357D01*
X0157069Y0136807D01*
X0157069Y0137708D01*
X0157520Y0138159D01*
X0157520Y0139303D02*
X0157970Y0139303D01*
X0158421Y0139754D01*
X0158421Y0140655D01*
X0158871Y0141105D01*
X0159321Y0141105D01*
X0159772Y0140655D01*
X0159772Y0139754D01*
X0159321Y0139303D01*
X0157520Y0139303D02*
X0157069Y0139754D01*
X0157069Y0140655D01*
X0157520Y0141105D01*
X0155922Y0142000D02*
X0153422Y0144500D01*
X0150922Y0142000D01*
X0150922Y0139500D01*
X0153422Y0139500D01*
X0155922Y0142000D01*
X0155709Y0142213D02*
X0151134Y0142213D01*
X0150922Y0141714D02*
X0155636Y0141714D01*
X0155137Y0141216D02*
X0150922Y0141216D01*
X0150922Y0140717D02*
X0154639Y0140717D01*
X0154140Y0140219D02*
X0150922Y0140219D01*
X0150922Y0139720D02*
X0153642Y0139720D01*
X0153500Y0142079D02*
X0153500Y0151921D01*
X0213343Y0151921D01*
X0213343Y0142079D01*
X0153500Y0142079D01*
X0154712Y0143210D02*
X0152131Y0143210D01*
X0151633Y0142711D02*
X0155211Y0142711D01*
X0154214Y0143708D02*
X0152630Y0143708D01*
X0153128Y0144207D02*
X0153715Y0144207D01*
X0145922Y0152000D02*
X0143422Y0149500D01*
X0140922Y0152000D01*
X0140922Y0154500D01*
X0143422Y0154500D01*
X0145922Y0152000D01*
X0145739Y0152183D02*
X0140922Y0152183D01*
X0140922Y0152681D02*
X0145240Y0152681D01*
X0144742Y0153180D02*
X0140922Y0153180D01*
X0140922Y0153678D02*
X0144243Y0153678D01*
X0143745Y0154177D02*
X0140922Y0154177D01*
X0141237Y0151684D02*
X0145606Y0151684D01*
X0145108Y0151186D02*
X0141736Y0151186D01*
X0142234Y0150687D02*
X0144609Y0150687D01*
X0144111Y0150189D02*
X0142733Y0150189D01*
X0143231Y0149690D02*
X0143612Y0149690D01*
X0143500Y0151921D02*
X0153343Y0151921D01*
X0153343Y0122079D01*
X0143500Y0122079D01*
X0143500Y0151921D01*
X0143343Y0151921D02*
X0133500Y0151921D01*
X0133500Y0122079D01*
X0143343Y0122079D01*
X0143343Y0151921D01*
X0146620Y0156250D02*
X0146169Y0156700D01*
X0146169Y0157601D01*
X0146620Y0158052D01*
X0147070Y0158052D01*
X0147521Y0157601D01*
X0147971Y0158052D01*
X0148421Y0158052D01*
X0148872Y0157601D01*
X0148872Y0156700D01*
X0148421Y0156250D01*
X0147521Y0157151D02*
X0147521Y0157601D01*
X0147971Y0159197D02*
X0146169Y0159197D01*
X0146169Y0160998D02*
X0147971Y0160998D01*
X0148872Y0160097D01*
X0147971Y0159197D01*
X0148421Y0162143D02*
X0148872Y0162593D01*
X0148872Y0163494D01*
X0148421Y0163945D01*
X0147971Y0163945D01*
X0147521Y0163494D01*
X0147521Y0163044D01*
X0147521Y0163494D02*
X0147070Y0163945D01*
X0146620Y0163945D01*
X0146169Y0163494D01*
X0146169Y0162593D01*
X0146620Y0162143D01*
X0138872Y0162962D02*
X0136169Y0162962D01*
X0136169Y0161161D02*
X0138872Y0162962D01*
X0138872Y0161161D02*
X0136169Y0161161D01*
X0136169Y0160097D02*
X0136169Y0159197D01*
X0136169Y0159647D02*
X0138872Y0159647D01*
X0138872Y0159197D02*
X0138872Y0160097D01*
X0137971Y0158052D02*
X0136169Y0158052D01*
X0137971Y0158052D02*
X0138872Y0157151D01*
X0137971Y0156250D01*
X0136169Y0156250D01*
X0133745Y0154177D02*
X0130922Y0154177D01*
X0130922Y0154500D02*
X0133422Y0154500D01*
X0135922Y0152000D01*
X0133422Y0149500D01*
X0130922Y0152000D01*
X0130922Y0154500D01*
X0130922Y0153678D02*
X0134243Y0153678D01*
X0134742Y0153180D02*
X0130922Y0153180D01*
X0130922Y0152681D02*
X0135240Y0152681D01*
X0135739Y0152183D02*
X0130922Y0152183D01*
X0131237Y0151684D02*
X0135606Y0151684D01*
X0135108Y0151186D02*
X0131736Y0151186D01*
X0132234Y0150687D02*
X0134609Y0150687D01*
X0134111Y0150189D02*
X0132733Y0150189D01*
X0133231Y0149690D02*
X0133612Y0149690D01*
X0133343Y0151921D02*
X0123500Y0151921D01*
X0123500Y0122079D01*
X0133343Y0122079D01*
X0133343Y0151921D01*
X0128872Y0156700D02*
X0128872Y0157601D01*
X0128421Y0158052D01*
X0127521Y0158052D01*
X0127521Y0157151D01*
X0128421Y0156250D02*
X0128872Y0156700D01*
X0128421Y0156250D02*
X0126620Y0156250D01*
X0126169Y0156700D01*
X0126169Y0157601D01*
X0126620Y0158052D01*
X0126169Y0159197D02*
X0128872Y0160998D01*
X0126169Y0160998D01*
X0126169Y0162143D02*
X0126169Y0163494D01*
X0126620Y0163945D01*
X0128421Y0163945D01*
X0128872Y0163494D01*
X0128872Y0162143D01*
X0126169Y0162143D01*
X0126169Y0159197D02*
X0128872Y0159197D01*
X0123745Y0154177D02*
X0120922Y0154177D01*
X0120922Y0154500D02*
X0123422Y0154500D01*
X0125922Y0152000D01*
X0123422Y0149500D01*
X0120922Y0152000D01*
X0120922Y0154500D01*
X0120922Y0153678D02*
X0124243Y0153678D01*
X0124742Y0153180D02*
X0120922Y0153180D01*
X0120922Y0152681D02*
X0125240Y0152681D01*
X0125739Y0152183D02*
X0120922Y0152183D01*
X0121237Y0151684D02*
X0125606Y0151684D01*
X0125108Y0151186D02*
X0121736Y0151186D01*
X0122234Y0150687D02*
X0124609Y0150687D01*
X0124111Y0150189D02*
X0122733Y0150189D01*
X0123231Y0149690D02*
X0123612Y0149690D01*
X0123343Y0151921D02*
X0113500Y0151921D01*
X0113500Y0122079D01*
X0123343Y0122079D01*
X0123343Y0151921D01*
X0118872Y0157151D02*
X0117971Y0158052D01*
X0116169Y0158052D01*
X0117521Y0159197D02*
X0117521Y0160998D01*
X0118421Y0160097D02*
X0116620Y0160097D01*
X0118872Y0157151D02*
X0117971Y0156250D01*
X0116169Y0156250D01*
X0113745Y0154177D02*
X0110922Y0154177D01*
X0110922Y0154500D02*
X0113422Y0154500D01*
X0115922Y0152000D01*
X0113422Y0149500D01*
X0110922Y0152000D01*
X0110922Y0154500D01*
X0110922Y0153678D02*
X0114243Y0153678D01*
X0114742Y0153180D02*
X0110922Y0153180D01*
X0110922Y0152681D02*
X0115240Y0152681D01*
X0115739Y0152183D02*
X0110922Y0152183D01*
X0111237Y0151684D02*
X0115606Y0151684D01*
X0115108Y0151186D02*
X0111736Y0151186D01*
X0112234Y0150687D02*
X0114609Y0150687D01*
X0114111Y0150189D02*
X0112733Y0150189D01*
X0113231Y0149690D02*
X0113612Y0149690D01*
X0097672Y0164250D02*
X0096172Y0165500D01*
X0097672Y0166750D01*
X0097672Y0164250D01*
X0095672Y0164250D02*
X0095672Y0166750D01*
X0137520Y0193410D02*
X0139321Y0195212D01*
X0138421Y0195212D02*
X0138421Y0193410D01*
X0139321Y0193410D02*
X0137520Y0195212D01*
X0137520Y0194311D02*
X0139321Y0194311D01*
X0139772Y0196357D02*
X0137069Y0196357D01*
X0137069Y0197708D01*
X0137520Y0198159D01*
X0139321Y0198159D01*
X0139772Y0197708D01*
X0139772Y0196357D01*
X0139772Y0199303D02*
X0139772Y0201105D01*
X0139772Y0200204D02*
X0137069Y0200204D01*
X0137970Y0199303D01*
X0129772Y0199303D02*
X0127970Y0201105D01*
X0127520Y0201105D01*
X0127069Y0200655D01*
X0127069Y0199754D01*
X0127520Y0199303D01*
X0127520Y0198159D02*
X0127069Y0197708D01*
X0127069Y0196357D01*
X0129772Y0196357D01*
X0129772Y0197708D01*
X0129321Y0198159D01*
X0127520Y0198159D01*
X0129772Y0199303D02*
X0129772Y0201105D01*
X0119772Y0200655D02*
X0119772Y0199754D01*
X0119321Y0199303D01*
X0119321Y0198159D02*
X0117520Y0198159D01*
X0117069Y0197708D01*
X0117069Y0196357D01*
X0119772Y0196357D01*
X0119772Y0197708D01*
X0119321Y0198159D01*
X0117520Y0199303D02*
X0117069Y0199754D01*
X0117069Y0200655D01*
X0117520Y0201105D01*
X0117970Y0201105D01*
X0118421Y0200655D01*
X0118871Y0201105D01*
X0119321Y0201105D01*
X0119772Y0200655D01*
X0118421Y0200655D02*
X0118421Y0200204D01*
X0115922Y0202000D02*
X0113422Y0199500D01*
X0110922Y0199500D01*
X0110922Y0202000D01*
X0113422Y0204500D01*
X0115922Y0202000D01*
X0115888Y0202034D02*
X0110956Y0202034D01*
X0110922Y0201536D02*
X0115457Y0201536D01*
X0114959Y0201037D02*
X0110922Y0201037D01*
X0110922Y0200539D02*
X0114460Y0200539D01*
X0113962Y0200040D02*
X0110922Y0200040D01*
X0110922Y0199541D02*
X0113463Y0199541D01*
X0113500Y0202079D02*
X0113500Y0211921D01*
X0213343Y0211921D01*
X0213343Y0202079D01*
X0113500Y0202079D01*
X0114891Y0203031D02*
X0111953Y0203031D01*
X0112451Y0203530D02*
X0114392Y0203530D01*
X0113894Y0204028D02*
X0112950Y0204028D01*
X0111454Y0202533D02*
X0115389Y0202533D01*
X0147069Y0200655D02*
X0147069Y0199754D01*
X0147520Y0199303D01*
X0149321Y0199303D01*
X0147520Y0201105D01*
X0149321Y0201105D01*
X0149772Y0200655D01*
X0149772Y0199754D01*
X0149321Y0199303D01*
X0149321Y0198159D02*
X0147520Y0198159D01*
X0147069Y0197708D01*
X0147069Y0196357D01*
X0149772Y0196357D01*
X0149772Y0197708D01*
X0149321Y0198159D01*
X0147069Y0200655D02*
X0147520Y0201105D01*
X0157069Y0201105D02*
X0157069Y0199303D01*
X0158421Y0199303D01*
X0157970Y0200204D01*
X0157970Y0200655D01*
X0158421Y0201105D01*
X0159321Y0201105D01*
X0159772Y0200655D01*
X0159772Y0199754D01*
X0159321Y0199303D01*
X0159772Y0198159D02*
X0157970Y0198159D01*
X0157069Y0197258D01*
X0157970Y0196357D01*
X0159772Y0196357D01*
X0158421Y0196357D02*
X0158421Y0198159D01*
X0167069Y0197258D02*
X0167970Y0198159D01*
X0169772Y0198159D01*
X0168421Y0198159D02*
X0168421Y0196357D01*
X0167970Y0196357D02*
X0167069Y0197258D01*
X0167970Y0196357D02*
X0169772Y0196357D01*
X0168363Y0193263D02*
X0168365Y0193310D01*
X0168371Y0193356D01*
X0168381Y0193402D01*
X0168394Y0193447D01*
X0168411Y0193490D01*
X0168432Y0193532D01*
X0168456Y0193572D01*
X0168484Y0193610D01*
X0168515Y0193646D01*
X0168548Y0193678D01*
X0168584Y0193708D01*
X0168622Y0193735D01*
X0168663Y0193758D01*
X0168705Y0193778D01*
X0168749Y0193795D01*
X0168794Y0193807D01*
X0168840Y0193816D01*
X0168887Y0193821D01*
X0168934Y0193822D01*
X0168980Y0193819D01*
X0169027Y0193812D01*
X0169072Y0193801D01*
X0169117Y0193787D01*
X0169160Y0193769D01*
X0169201Y0193747D01*
X0169241Y0193722D01*
X0169278Y0193694D01*
X0169313Y0193662D01*
X0169345Y0193628D01*
X0169374Y0193592D01*
X0169400Y0193553D01*
X0169423Y0193512D01*
X0169442Y0193469D01*
X0169457Y0193425D01*
X0169469Y0193379D01*
X0169477Y0193333D01*
X0169481Y0193286D01*
X0169481Y0193240D01*
X0169477Y0193193D01*
X0169469Y0193147D01*
X0169457Y0193101D01*
X0169442Y0193057D01*
X0169423Y0193014D01*
X0169400Y0192973D01*
X0169374Y0192934D01*
X0169345Y0192898D01*
X0169313Y0192864D01*
X0169278Y0192832D01*
X0169241Y0192804D01*
X0169202Y0192779D01*
X0169160Y0192757D01*
X0169117Y0192739D01*
X0169072Y0192725D01*
X0169027Y0192714D01*
X0168980Y0192707D01*
X0168934Y0192704D01*
X0168887Y0192705D01*
X0168840Y0192710D01*
X0168794Y0192719D01*
X0168749Y0192731D01*
X0168705Y0192748D01*
X0168663Y0192768D01*
X0168622Y0192791D01*
X0168584Y0192818D01*
X0168548Y0192848D01*
X0168515Y0192880D01*
X0168484Y0192916D01*
X0168456Y0192954D01*
X0168432Y0192994D01*
X0168411Y0193036D01*
X0168394Y0193079D01*
X0168381Y0193124D01*
X0168371Y0193170D01*
X0168365Y0193216D01*
X0168363Y0193263D01*
X0168421Y0199303D02*
X0168421Y0201105D01*
X0169772Y0200655D02*
X0167069Y0200655D01*
X0168421Y0199303D01*
X0177069Y0199754D02*
X0177069Y0200655D01*
X0177520Y0201105D01*
X0177970Y0201105D01*
X0178421Y0200655D01*
X0178871Y0201105D01*
X0179321Y0201105D01*
X0179772Y0200655D01*
X0179772Y0199754D01*
X0179321Y0199303D01*
X0179772Y0198159D02*
X0177970Y0198159D01*
X0177069Y0197258D01*
X0177970Y0196357D01*
X0179772Y0196357D01*
X0178421Y0196357D02*
X0178421Y0198159D01*
X0177520Y0199303D02*
X0177069Y0199754D01*
X0178421Y0200204D02*
X0178421Y0200655D01*
X0187069Y0200204D02*
X0187970Y0199303D01*
X0187970Y0198159D02*
X0189772Y0198159D01*
X0189772Y0199303D02*
X0189772Y0201105D01*
X0189772Y0200204D02*
X0187069Y0200204D01*
X0187970Y0198159D02*
X0187069Y0197258D01*
X0187970Y0196357D01*
X0189772Y0196357D01*
X0188421Y0196357D02*
X0188421Y0198159D01*
X0197069Y0197258D02*
X0197970Y0198159D01*
X0199772Y0198159D01*
X0199321Y0199303D02*
X0197520Y0201105D01*
X0199321Y0201105D01*
X0199772Y0200655D01*
X0199772Y0199754D01*
X0199321Y0199303D01*
X0197520Y0199303D01*
X0197069Y0199754D01*
X0197069Y0200655D01*
X0197520Y0201105D01*
X0198421Y0198159D02*
X0198421Y0196357D01*
X0197970Y0196357D02*
X0197069Y0197258D01*
X0197970Y0196357D02*
X0199772Y0196357D01*
X0207069Y0196357D02*
X0209772Y0196357D01*
X0209772Y0198159D01*
X0209772Y0199303D02*
X0207069Y0199303D01*
X0207069Y0201105D01*
X0208421Y0200204D02*
X0208421Y0199303D01*
X0207069Y0198159D02*
X0207069Y0196357D01*
X0207520Y0195212D02*
X0208421Y0195212D01*
X0208871Y0194762D01*
X0208871Y0193410D01*
X0209772Y0193410D02*
X0207069Y0193410D01*
X0207069Y0194762D01*
X0207520Y0195212D01*
X0208421Y0196357D02*
X0208421Y0197258D01*
X0209772Y0195212D02*
X0208871Y0194311D01*
X0208421Y0192265D02*
X0208421Y0190464D01*
X0207970Y0190464D02*
X0207069Y0191365D01*
X0207970Y0192265D01*
X0209772Y0192265D01*
X0209772Y0190464D02*
X0207970Y0190464D01*
X0235554Y0178768D02*
X0235554Y0178385D01*
X0235938Y0178001D01*
X0236705Y0178001D01*
X0237089Y0177617D01*
X0237089Y0177234D01*
X0236705Y0176850D01*
X0235938Y0176850D01*
X0235554Y0177234D01*
X0235554Y0178768D02*
X0235938Y0179152D01*
X0236705Y0179152D01*
X0237089Y0178768D01*
X0238133Y0179152D02*
X0238133Y0176850D01*
X0238900Y0177617D01*
X0239667Y0176850D01*
X0239667Y0179152D01*
X0240711Y0179152D02*
X0241862Y0179152D01*
X0242245Y0178768D01*
X0242245Y0177234D01*
X0241862Y0176850D01*
X0240711Y0176850D01*
X0240711Y0179152D01*
X0244662Y0145394D02*
X0228304Y0145394D01*
X0224367Y0141457D01*
X0224367Y0109331D01*
X0228304Y0105394D01*
X0244662Y0105394D01*
X0244662Y0145394D01*
X0209772Y0141105D02*
X0209772Y0139303D01*
X0207069Y0139303D01*
X0207520Y0138159D02*
X0207069Y0137708D01*
X0207069Y0136807D01*
X0207520Y0136357D01*
X0209321Y0136357D01*
X0209772Y0136807D01*
X0209772Y0137708D01*
X0209321Y0138159D01*
X0209321Y0135212D02*
X0209772Y0134762D01*
X0209772Y0133861D01*
X0209321Y0133410D01*
X0208421Y0133861D02*
X0208421Y0134762D01*
X0208871Y0135212D01*
X0209321Y0135212D01*
X0208421Y0133861D02*
X0207970Y0133410D01*
X0207520Y0133410D01*
X0207069Y0133861D01*
X0207069Y0134762D01*
X0207520Y0135212D01*
X0199772Y0134762D02*
X0199772Y0133861D01*
X0199321Y0133410D01*
X0198421Y0133861D02*
X0198421Y0134762D01*
X0198871Y0135212D01*
X0199321Y0135212D01*
X0199772Y0134762D01*
X0199772Y0136357D02*
X0197069Y0136357D01*
X0197069Y0137708D01*
X0197520Y0138159D01*
X0199321Y0138159D01*
X0199772Y0137708D01*
X0199772Y0136357D01*
X0197520Y0135212D02*
X0197069Y0134762D01*
X0197069Y0133861D01*
X0197520Y0133410D01*
X0197970Y0133410D01*
X0198421Y0133861D01*
X0197520Y0129319D02*
X0199321Y0129319D01*
X0199772Y0128869D01*
X0199772Y0127968D01*
X0199321Y0127517D01*
X0197520Y0129319D01*
X0197069Y0128869D01*
X0197069Y0127968D01*
X0197520Y0127517D01*
X0199321Y0127517D01*
X0199772Y0126372D02*
X0199772Y0124571D01*
X0197970Y0126372D01*
X0197520Y0126372D01*
X0197069Y0125922D01*
X0197069Y0125021D01*
X0197520Y0124571D01*
X0197520Y0123426D02*
X0197069Y0122976D01*
X0197069Y0121624D01*
X0199772Y0121624D01*
X0199772Y0122976D01*
X0199321Y0123426D01*
X0197520Y0123426D01*
X0189772Y0122976D02*
X0189321Y0123426D01*
X0187520Y0123426D01*
X0187069Y0122976D01*
X0187069Y0121624D01*
X0189772Y0121624D01*
X0189772Y0122976D01*
X0189772Y0124571D02*
X0189772Y0126372D01*
X0189772Y0125472D02*
X0187069Y0125472D01*
X0187970Y0124571D01*
X0187520Y0127517D02*
X0187069Y0127968D01*
X0187069Y0128869D01*
X0187520Y0129319D01*
X0187970Y0129319D01*
X0188421Y0128869D01*
X0188871Y0129319D01*
X0189321Y0129319D01*
X0189772Y0128869D01*
X0189772Y0127968D01*
X0189321Y0127517D01*
X0188421Y0128418D02*
X0188421Y0128869D01*
X0187970Y0133410D02*
X0188421Y0133861D01*
X0188421Y0134762D01*
X0188871Y0135212D01*
X0189321Y0135212D01*
X0189772Y0134762D01*
X0189772Y0133861D01*
X0189321Y0133410D01*
X0187970Y0133410D02*
X0187520Y0133410D01*
X0187069Y0133861D01*
X0187069Y0134762D01*
X0187520Y0135212D01*
X0187520Y0136357D02*
X0189321Y0136357D01*
X0189772Y0136807D01*
X0189772Y0137708D01*
X0189321Y0138159D01*
X0188871Y0139303D02*
X0187069Y0141105D01*
X0187069Y0139303D02*
X0189772Y0139303D01*
X0188421Y0139754D02*
X0189772Y0141105D01*
X0187520Y0138159D02*
X0187069Y0137708D01*
X0187069Y0136807D01*
X0187520Y0136357D01*
X0179772Y0136807D02*
X0179321Y0136357D01*
X0179772Y0136807D02*
X0179772Y0137708D01*
X0179321Y0138159D01*
X0178871Y0138159D01*
X0178421Y0137708D01*
X0178421Y0136807D01*
X0177970Y0136357D01*
X0177520Y0136357D01*
X0177069Y0136807D01*
X0177069Y0137708D01*
X0177520Y0138159D01*
X0177520Y0139303D02*
X0179321Y0139303D01*
X0179772Y0139754D01*
X0179772Y0140655D01*
X0179321Y0141105D01*
X0177520Y0141105D01*
X0177069Y0140655D01*
X0177069Y0139754D01*
X0177520Y0139303D01*
X0177069Y0135293D02*
X0177069Y0134393D01*
X0177069Y0134843D02*
X0179772Y0134843D01*
X0179772Y0134393D02*
X0179772Y0135293D01*
X0179772Y0133248D02*
X0177069Y0133248D01*
X0177970Y0132347D01*
X0177069Y0131446D01*
X0179772Y0131446D01*
X0179772Y0127355D02*
X0179772Y0125553D01*
X0177970Y0127355D01*
X0177520Y0127355D01*
X0177069Y0126904D01*
X0177069Y0126003D01*
X0177520Y0125553D01*
X0177069Y0123507D02*
X0179772Y0123507D01*
X0179772Y0122607D02*
X0179772Y0124408D01*
X0177970Y0122607D02*
X0177069Y0123507D01*
X0177520Y0121462D02*
X0177069Y0121011D01*
X0177069Y0119660D01*
X0179772Y0119660D01*
X0179772Y0121011D01*
X0179321Y0121462D01*
X0177520Y0121462D01*
X0169772Y0131446D02*
X0167069Y0131446D01*
X0167970Y0132347D01*
X0167069Y0133248D01*
X0169772Y0133248D01*
X0169321Y0134393D02*
X0169772Y0134843D01*
X0169772Y0135744D01*
X0169321Y0136194D01*
X0167520Y0136194D01*
X0167069Y0135744D01*
X0167069Y0134843D01*
X0167520Y0134393D01*
X0169321Y0134393D01*
X0169321Y0137339D02*
X0169772Y0137790D01*
X0169772Y0138690D01*
X0169321Y0139141D01*
X0168871Y0139141D01*
X0168421Y0138690D01*
X0168421Y0137790D01*
X0167970Y0137339D01*
X0167520Y0137339D01*
X0167069Y0137790D01*
X0167069Y0138690D01*
X0167520Y0139141D01*
X0167069Y0140286D02*
X0167069Y0141186D01*
X0167069Y0140736D02*
X0169772Y0140736D01*
X0169772Y0140286D02*
X0169772Y0141186D01*
X0159772Y0136807D02*
X0159321Y0136357D01*
X0197069Y0140204D02*
X0197970Y0141105D01*
X0199772Y0141105D01*
X0198421Y0141105D02*
X0198421Y0139303D01*
X0197970Y0139303D02*
X0197069Y0140204D01*
X0197970Y0139303D02*
X0199772Y0139303D01*
X0207069Y0128418D02*
X0209772Y0128418D01*
X0209772Y0127517D02*
X0209772Y0129319D01*
X0207970Y0127517D02*
X0207069Y0128418D01*
X0207520Y0126372D02*
X0207069Y0125922D01*
X0207069Y0125021D01*
X0207520Y0124571D01*
X0207520Y0123426D02*
X0207069Y0122976D01*
X0207069Y0121624D01*
X0209772Y0121624D01*
X0209772Y0122976D01*
X0209321Y0123426D01*
X0207520Y0123426D01*
X0209772Y0124571D02*
X0207970Y0126372D01*
X0207520Y0126372D01*
X0209772Y0126372D02*
X0209772Y0124571D01*
X0149321Y0193410D02*
X0147520Y0195212D01*
X0148421Y0195212D02*
X0148421Y0193410D01*
X0147520Y0193410D02*
X0149321Y0195212D01*
X0149321Y0194311D02*
X0147520Y0194311D01*
D11*
X0173583Y0059482D02*
X0173583Y0056580D01*
X0174550Y0056580D02*
X0172615Y0056580D01*
X0172615Y0058515D02*
X0173583Y0059482D01*
X0182615Y0058999D02*
X0183099Y0059482D01*
X0184066Y0059482D01*
X0184550Y0058999D01*
X0184550Y0058515D01*
X0182615Y0056580D01*
X0184550Y0056580D01*
X0193492Y0057114D02*
X0193975Y0056630D01*
X0194943Y0056630D01*
X0195427Y0057114D01*
X0195427Y0057597D01*
X0194943Y0058081D01*
X0194459Y0058081D01*
X0194943Y0058081D02*
X0195427Y0058565D01*
X0195427Y0059049D01*
X0194943Y0059532D01*
X0193975Y0059532D01*
X0193492Y0059049D01*
X0202922Y0058171D02*
X0204857Y0058171D01*
X0204373Y0056720D02*
X0204373Y0059622D01*
X0202922Y0058171D01*
D12*
X0218146Y0067476D02*
X0218148Y0067634D01*
X0218154Y0067792D01*
X0218164Y0067950D01*
X0218178Y0068108D01*
X0218196Y0068265D01*
X0218217Y0068422D01*
X0218243Y0068578D01*
X0218273Y0068734D01*
X0218306Y0068889D01*
X0218344Y0069042D01*
X0218385Y0069195D01*
X0218430Y0069347D01*
X0218479Y0069498D01*
X0218532Y0069647D01*
X0218588Y0069795D01*
X0218648Y0069941D01*
X0218712Y0070086D01*
X0218780Y0070229D01*
X0218851Y0070371D01*
X0218925Y0070511D01*
X0219003Y0070648D01*
X0219085Y0070784D01*
X0219169Y0070918D01*
X0219258Y0071049D01*
X0219349Y0071178D01*
X0219444Y0071305D01*
X0219541Y0071430D01*
X0219642Y0071552D01*
X0219746Y0071671D01*
X0219853Y0071788D01*
X0219963Y0071902D01*
X0220076Y0072013D01*
X0220191Y0072122D01*
X0220309Y0072227D01*
X0220430Y0072329D01*
X0220553Y0072429D01*
X0220679Y0072525D01*
X0220807Y0072618D01*
X0220937Y0072708D01*
X0221070Y0072794D01*
X0221205Y0072878D01*
X0221341Y0072957D01*
X0221480Y0073034D01*
X0221621Y0073106D01*
X0221763Y0073176D01*
X0221907Y0073241D01*
X0222053Y0073303D01*
X0222200Y0073361D01*
X0222349Y0073416D01*
X0222499Y0073467D01*
X0222650Y0073514D01*
X0222802Y0073557D01*
X0222955Y0073596D01*
X0223110Y0073632D01*
X0223265Y0073663D01*
X0223421Y0073691D01*
X0223577Y0073715D01*
X0223734Y0073735D01*
X0223892Y0073751D01*
X0224049Y0073763D01*
X0224208Y0073771D01*
X0224366Y0073775D01*
X0224524Y0073775D01*
X0224682Y0073771D01*
X0224841Y0073763D01*
X0224998Y0073751D01*
X0225156Y0073735D01*
X0225313Y0073715D01*
X0225469Y0073691D01*
X0225625Y0073663D01*
X0225780Y0073632D01*
X0225935Y0073596D01*
X0226088Y0073557D01*
X0226240Y0073514D01*
X0226391Y0073467D01*
X0226541Y0073416D01*
X0226690Y0073361D01*
X0226837Y0073303D01*
X0226983Y0073241D01*
X0227127Y0073176D01*
X0227269Y0073106D01*
X0227410Y0073034D01*
X0227549Y0072957D01*
X0227685Y0072878D01*
X0227820Y0072794D01*
X0227953Y0072708D01*
X0228083Y0072618D01*
X0228211Y0072525D01*
X0228337Y0072429D01*
X0228460Y0072329D01*
X0228581Y0072227D01*
X0228699Y0072122D01*
X0228814Y0072013D01*
X0228927Y0071902D01*
X0229037Y0071788D01*
X0229144Y0071671D01*
X0229248Y0071552D01*
X0229349Y0071430D01*
X0229446Y0071305D01*
X0229541Y0071178D01*
X0229632Y0071049D01*
X0229721Y0070918D01*
X0229805Y0070784D01*
X0229887Y0070648D01*
X0229965Y0070511D01*
X0230039Y0070371D01*
X0230110Y0070229D01*
X0230178Y0070086D01*
X0230242Y0069941D01*
X0230302Y0069795D01*
X0230358Y0069647D01*
X0230411Y0069498D01*
X0230460Y0069347D01*
X0230505Y0069195D01*
X0230546Y0069042D01*
X0230584Y0068889D01*
X0230617Y0068734D01*
X0230647Y0068578D01*
X0230673Y0068422D01*
X0230694Y0068265D01*
X0230712Y0068108D01*
X0230726Y0067950D01*
X0230736Y0067792D01*
X0230742Y0067634D01*
X0230744Y0067476D01*
X0230742Y0067318D01*
X0230736Y0067160D01*
X0230726Y0067002D01*
X0230712Y0066844D01*
X0230694Y0066687D01*
X0230673Y0066530D01*
X0230647Y0066374D01*
X0230617Y0066218D01*
X0230584Y0066063D01*
X0230546Y0065910D01*
X0230505Y0065757D01*
X0230460Y0065605D01*
X0230411Y0065454D01*
X0230358Y0065305D01*
X0230302Y0065157D01*
X0230242Y0065011D01*
X0230178Y0064866D01*
X0230110Y0064723D01*
X0230039Y0064581D01*
X0229965Y0064441D01*
X0229887Y0064304D01*
X0229805Y0064168D01*
X0229721Y0064034D01*
X0229632Y0063903D01*
X0229541Y0063774D01*
X0229446Y0063647D01*
X0229349Y0063522D01*
X0229248Y0063400D01*
X0229144Y0063281D01*
X0229037Y0063164D01*
X0228927Y0063050D01*
X0228814Y0062939D01*
X0228699Y0062830D01*
X0228581Y0062725D01*
X0228460Y0062623D01*
X0228337Y0062523D01*
X0228211Y0062427D01*
X0228083Y0062334D01*
X0227953Y0062244D01*
X0227820Y0062158D01*
X0227685Y0062074D01*
X0227549Y0061995D01*
X0227410Y0061918D01*
X0227269Y0061846D01*
X0227127Y0061776D01*
X0226983Y0061711D01*
X0226837Y0061649D01*
X0226690Y0061591D01*
X0226541Y0061536D01*
X0226391Y0061485D01*
X0226240Y0061438D01*
X0226088Y0061395D01*
X0225935Y0061356D01*
X0225780Y0061320D01*
X0225625Y0061289D01*
X0225469Y0061261D01*
X0225313Y0061237D01*
X0225156Y0061217D01*
X0224998Y0061201D01*
X0224841Y0061189D01*
X0224682Y0061181D01*
X0224524Y0061177D01*
X0224366Y0061177D01*
X0224208Y0061181D01*
X0224049Y0061189D01*
X0223892Y0061201D01*
X0223734Y0061217D01*
X0223577Y0061237D01*
X0223421Y0061261D01*
X0223265Y0061289D01*
X0223110Y0061320D01*
X0222955Y0061356D01*
X0222802Y0061395D01*
X0222650Y0061438D01*
X0222499Y0061485D01*
X0222349Y0061536D01*
X0222200Y0061591D01*
X0222053Y0061649D01*
X0221907Y0061711D01*
X0221763Y0061776D01*
X0221621Y0061846D01*
X0221480Y0061918D01*
X0221341Y0061995D01*
X0221205Y0062074D01*
X0221070Y0062158D01*
X0220937Y0062244D01*
X0220807Y0062334D01*
X0220679Y0062427D01*
X0220553Y0062523D01*
X0220430Y0062623D01*
X0220309Y0062725D01*
X0220191Y0062830D01*
X0220076Y0062939D01*
X0219963Y0063050D01*
X0219853Y0063164D01*
X0219746Y0063281D01*
X0219642Y0063400D01*
X0219541Y0063522D01*
X0219444Y0063647D01*
X0219349Y0063774D01*
X0219258Y0063903D01*
X0219169Y0064034D01*
X0219085Y0064168D01*
X0219003Y0064304D01*
X0218925Y0064441D01*
X0218851Y0064581D01*
X0218780Y0064723D01*
X0218712Y0064866D01*
X0218648Y0065011D01*
X0218588Y0065157D01*
X0218532Y0065305D01*
X0218479Y0065454D01*
X0218430Y0065605D01*
X0218385Y0065757D01*
X0218344Y0065910D01*
X0218306Y0066063D01*
X0218273Y0066218D01*
X0218243Y0066374D01*
X0218217Y0066530D01*
X0218196Y0066687D01*
X0218178Y0066844D01*
X0218164Y0067002D01*
X0218154Y0067160D01*
X0218148Y0067318D01*
X0218146Y0067476D01*
X0230922Y0046000D02*
X0245922Y0061000D01*
X0245922Y0196000D01*
X0230922Y0211000D01*
X0095922Y0211000D01*
X0080922Y0196000D01*
X0080922Y0061000D01*
X0095922Y0046000D01*
X0230922Y0046000D01*
X0096099Y0067476D02*
X0096101Y0067634D01*
X0096107Y0067792D01*
X0096117Y0067950D01*
X0096131Y0068108D01*
X0096149Y0068265D01*
X0096170Y0068422D01*
X0096196Y0068578D01*
X0096226Y0068734D01*
X0096259Y0068889D01*
X0096297Y0069042D01*
X0096338Y0069195D01*
X0096383Y0069347D01*
X0096432Y0069498D01*
X0096485Y0069647D01*
X0096541Y0069795D01*
X0096601Y0069941D01*
X0096665Y0070086D01*
X0096733Y0070229D01*
X0096804Y0070371D01*
X0096878Y0070511D01*
X0096956Y0070648D01*
X0097038Y0070784D01*
X0097122Y0070918D01*
X0097211Y0071049D01*
X0097302Y0071178D01*
X0097397Y0071305D01*
X0097494Y0071430D01*
X0097595Y0071552D01*
X0097699Y0071671D01*
X0097806Y0071788D01*
X0097916Y0071902D01*
X0098029Y0072013D01*
X0098144Y0072122D01*
X0098262Y0072227D01*
X0098383Y0072329D01*
X0098506Y0072429D01*
X0098632Y0072525D01*
X0098760Y0072618D01*
X0098890Y0072708D01*
X0099023Y0072794D01*
X0099158Y0072878D01*
X0099294Y0072957D01*
X0099433Y0073034D01*
X0099574Y0073106D01*
X0099716Y0073176D01*
X0099860Y0073241D01*
X0100006Y0073303D01*
X0100153Y0073361D01*
X0100302Y0073416D01*
X0100452Y0073467D01*
X0100603Y0073514D01*
X0100755Y0073557D01*
X0100908Y0073596D01*
X0101063Y0073632D01*
X0101218Y0073663D01*
X0101374Y0073691D01*
X0101530Y0073715D01*
X0101687Y0073735D01*
X0101845Y0073751D01*
X0102002Y0073763D01*
X0102161Y0073771D01*
X0102319Y0073775D01*
X0102477Y0073775D01*
X0102635Y0073771D01*
X0102794Y0073763D01*
X0102951Y0073751D01*
X0103109Y0073735D01*
X0103266Y0073715D01*
X0103422Y0073691D01*
X0103578Y0073663D01*
X0103733Y0073632D01*
X0103888Y0073596D01*
X0104041Y0073557D01*
X0104193Y0073514D01*
X0104344Y0073467D01*
X0104494Y0073416D01*
X0104643Y0073361D01*
X0104790Y0073303D01*
X0104936Y0073241D01*
X0105080Y0073176D01*
X0105222Y0073106D01*
X0105363Y0073034D01*
X0105502Y0072957D01*
X0105638Y0072878D01*
X0105773Y0072794D01*
X0105906Y0072708D01*
X0106036Y0072618D01*
X0106164Y0072525D01*
X0106290Y0072429D01*
X0106413Y0072329D01*
X0106534Y0072227D01*
X0106652Y0072122D01*
X0106767Y0072013D01*
X0106880Y0071902D01*
X0106990Y0071788D01*
X0107097Y0071671D01*
X0107201Y0071552D01*
X0107302Y0071430D01*
X0107399Y0071305D01*
X0107494Y0071178D01*
X0107585Y0071049D01*
X0107674Y0070918D01*
X0107758Y0070784D01*
X0107840Y0070648D01*
X0107918Y0070511D01*
X0107992Y0070371D01*
X0108063Y0070229D01*
X0108131Y0070086D01*
X0108195Y0069941D01*
X0108255Y0069795D01*
X0108311Y0069647D01*
X0108364Y0069498D01*
X0108413Y0069347D01*
X0108458Y0069195D01*
X0108499Y0069042D01*
X0108537Y0068889D01*
X0108570Y0068734D01*
X0108600Y0068578D01*
X0108626Y0068422D01*
X0108647Y0068265D01*
X0108665Y0068108D01*
X0108679Y0067950D01*
X0108689Y0067792D01*
X0108695Y0067634D01*
X0108697Y0067476D01*
X0108695Y0067318D01*
X0108689Y0067160D01*
X0108679Y0067002D01*
X0108665Y0066844D01*
X0108647Y0066687D01*
X0108626Y0066530D01*
X0108600Y0066374D01*
X0108570Y0066218D01*
X0108537Y0066063D01*
X0108499Y0065910D01*
X0108458Y0065757D01*
X0108413Y0065605D01*
X0108364Y0065454D01*
X0108311Y0065305D01*
X0108255Y0065157D01*
X0108195Y0065011D01*
X0108131Y0064866D01*
X0108063Y0064723D01*
X0107992Y0064581D01*
X0107918Y0064441D01*
X0107840Y0064304D01*
X0107758Y0064168D01*
X0107674Y0064034D01*
X0107585Y0063903D01*
X0107494Y0063774D01*
X0107399Y0063647D01*
X0107302Y0063522D01*
X0107201Y0063400D01*
X0107097Y0063281D01*
X0106990Y0063164D01*
X0106880Y0063050D01*
X0106767Y0062939D01*
X0106652Y0062830D01*
X0106534Y0062725D01*
X0106413Y0062623D01*
X0106290Y0062523D01*
X0106164Y0062427D01*
X0106036Y0062334D01*
X0105906Y0062244D01*
X0105773Y0062158D01*
X0105638Y0062074D01*
X0105502Y0061995D01*
X0105363Y0061918D01*
X0105222Y0061846D01*
X0105080Y0061776D01*
X0104936Y0061711D01*
X0104790Y0061649D01*
X0104643Y0061591D01*
X0104494Y0061536D01*
X0104344Y0061485D01*
X0104193Y0061438D01*
X0104041Y0061395D01*
X0103888Y0061356D01*
X0103733Y0061320D01*
X0103578Y0061289D01*
X0103422Y0061261D01*
X0103266Y0061237D01*
X0103109Y0061217D01*
X0102951Y0061201D01*
X0102794Y0061189D01*
X0102635Y0061181D01*
X0102477Y0061177D01*
X0102319Y0061177D01*
X0102161Y0061181D01*
X0102002Y0061189D01*
X0101845Y0061201D01*
X0101687Y0061217D01*
X0101530Y0061237D01*
X0101374Y0061261D01*
X0101218Y0061289D01*
X0101063Y0061320D01*
X0100908Y0061356D01*
X0100755Y0061395D01*
X0100603Y0061438D01*
X0100452Y0061485D01*
X0100302Y0061536D01*
X0100153Y0061591D01*
X0100006Y0061649D01*
X0099860Y0061711D01*
X0099716Y0061776D01*
X0099574Y0061846D01*
X0099433Y0061918D01*
X0099294Y0061995D01*
X0099158Y0062074D01*
X0099023Y0062158D01*
X0098890Y0062244D01*
X0098760Y0062334D01*
X0098632Y0062427D01*
X0098506Y0062523D01*
X0098383Y0062623D01*
X0098262Y0062725D01*
X0098144Y0062830D01*
X0098029Y0062939D01*
X0097916Y0063050D01*
X0097806Y0063164D01*
X0097699Y0063281D01*
X0097595Y0063400D01*
X0097494Y0063522D01*
X0097397Y0063647D01*
X0097302Y0063774D01*
X0097211Y0063903D01*
X0097122Y0064034D01*
X0097038Y0064168D01*
X0096956Y0064304D01*
X0096878Y0064441D01*
X0096804Y0064581D01*
X0096733Y0064723D01*
X0096665Y0064866D01*
X0096601Y0065011D01*
X0096541Y0065157D01*
X0096485Y0065305D01*
X0096432Y0065454D01*
X0096383Y0065605D01*
X0096338Y0065757D01*
X0096297Y0065910D01*
X0096259Y0066063D01*
X0096226Y0066218D01*
X0096196Y0066374D01*
X0096170Y0066530D01*
X0096149Y0066687D01*
X0096131Y0066844D01*
X0096117Y0067002D01*
X0096107Y0067160D01*
X0096101Y0067318D01*
X0096099Y0067476D01*
X0096099Y0189524D02*
X0096101Y0189682D01*
X0096107Y0189840D01*
X0096117Y0189998D01*
X0096131Y0190156D01*
X0096149Y0190313D01*
X0096170Y0190470D01*
X0096196Y0190626D01*
X0096226Y0190782D01*
X0096259Y0190937D01*
X0096297Y0191090D01*
X0096338Y0191243D01*
X0096383Y0191395D01*
X0096432Y0191546D01*
X0096485Y0191695D01*
X0096541Y0191843D01*
X0096601Y0191989D01*
X0096665Y0192134D01*
X0096733Y0192277D01*
X0096804Y0192419D01*
X0096878Y0192559D01*
X0096956Y0192696D01*
X0097038Y0192832D01*
X0097122Y0192966D01*
X0097211Y0193097D01*
X0097302Y0193226D01*
X0097397Y0193353D01*
X0097494Y0193478D01*
X0097595Y0193600D01*
X0097699Y0193719D01*
X0097806Y0193836D01*
X0097916Y0193950D01*
X0098029Y0194061D01*
X0098144Y0194170D01*
X0098262Y0194275D01*
X0098383Y0194377D01*
X0098506Y0194477D01*
X0098632Y0194573D01*
X0098760Y0194666D01*
X0098890Y0194756D01*
X0099023Y0194842D01*
X0099158Y0194926D01*
X0099294Y0195005D01*
X0099433Y0195082D01*
X0099574Y0195154D01*
X0099716Y0195224D01*
X0099860Y0195289D01*
X0100006Y0195351D01*
X0100153Y0195409D01*
X0100302Y0195464D01*
X0100452Y0195515D01*
X0100603Y0195562D01*
X0100755Y0195605D01*
X0100908Y0195644D01*
X0101063Y0195680D01*
X0101218Y0195711D01*
X0101374Y0195739D01*
X0101530Y0195763D01*
X0101687Y0195783D01*
X0101845Y0195799D01*
X0102002Y0195811D01*
X0102161Y0195819D01*
X0102319Y0195823D01*
X0102477Y0195823D01*
X0102635Y0195819D01*
X0102794Y0195811D01*
X0102951Y0195799D01*
X0103109Y0195783D01*
X0103266Y0195763D01*
X0103422Y0195739D01*
X0103578Y0195711D01*
X0103733Y0195680D01*
X0103888Y0195644D01*
X0104041Y0195605D01*
X0104193Y0195562D01*
X0104344Y0195515D01*
X0104494Y0195464D01*
X0104643Y0195409D01*
X0104790Y0195351D01*
X0104936Y0195289D01*
X0105080Y0195224D01*
X0105222Y0195154D01*
X0105363Y0195082D01*
X0105502Y0195005D01*
X0105638Y0194926D01*
X0105773Y0194842D01*
X0105906Y0194756D01*
X0106036Y0194666D01*
X0106164Y0194573D01*
X0106290Y0194477D01*
X0106413Y0194377D01*
X0106534Y0194275D01*
X0106652Y0194170D01*
X0106767Y0194061D01*
X0106880Y0193950D01*
X0106990Y0193836D01*
X0107097Y0193719D01*
X0107201Y0193600D01*
X0107302Y0193478D01*
X0107399Y0193353D01*
X0107494Y0193226D01*
X0107585Y0193097D01*
X0107674Y0192966D01*
X0107758Y0192832D01*
X0107840Y0192696D01*
X0107918Y0192559D01*
X0107992Y0192419D01*
X0108063Y0192277D01*
X0108131Y0192134D01*
X0108195Y0191989D01*
X0108255Y0191843D01*
X0108311Y0191695D01*
X0108364Y0191546D01*
X0108413Y0191395D01*
X0108458Y0191243D01*
X0108499Y0191090D01*
X0108537Y0190937D01*
X0108570Y0190782D01*
X0108600Y0190626D01*
X0108626Y0190470D01*
X0108647Y0190313D01*
X0108665Y0190156D01*
X0108679Y0189998D01*
X0108689Y0189840D01*
X0108695Y0189682D01*
X0108697Y0189524D01*
X0108695Y0189366D01*
X0108689Y0189208D01*
X0108679Y0189050D01*
X0108665Y0188892D01*
X0108647Y0188735D01*
X0108626Y0188578D01*
X0108600Y0188422D01*
X0108570Y0188266D01*
X0108537Y0188111D01*
X0108499Y0187958D01*
X0108458Y0187805D01*
X0108413Y0187653D01*
X0108364Y0187502D01*
X0108311Y0187353D01*
X0108255Y0187205D01*
X0108195Y0187059D01*
X0108131Y0186914D01*
X0108063Y0186771D01*
X0107992Y0186629D01*
X0107918Y0186489D01*
X0107840Y0186352D01*
X0107758Y0186216D01*
X0107674Y0186082D01*
X0107585Y0185951D01*
X0107494Y0185822D01*
X0107399Y0185695D01*
X0107302Y0185570D01*
X0107201Y0185448D01*
X0107097Y0185329D01*
X0106990Y0185212D01*
X0106880Y0185098D01*
X0106767Y0184987D01*
X0106652Y0184878D01*
X0106534Y0184773D01*
X0106413Y0184671D01*
X0106290Y0184571D01*
X0106164Y0184475D01*
X0106036Y0184382D01*
X0105906Y0184292D01*
X0105773Y0184206D01*
X0105638Y0184122D01*
X0105502Y0184043D01*
X0105363Y0183966D01*
X0105222Y0183894D01*
X0105080Y0183824D01*
X0104936Y0183759D01*
X0104790Y0183697D01*
X0104643Y0183639D01*
X0104494Y0183584D01*
X0104344Y0183533D01*
X0104193Y0183486D01*
X0104041Y0183443D01*
X0103888Y0183404D01*
X0103733Y0183368D01*
X0103578Y0183337D01*
X0103422Y0183309D01*
X0103266Y0183285D01*
X0103109Y0183265D01*
X0102951Y0183249D01*
X0102794Y0183237D01*
X0102635Y0183229D01*
X0102477Y0183225D01*
X0102319Y0183225D01*
X0102161Y0183229D01*
X0102002Y0183237D01*
X0101845Y0183249D01*
X0101687Y0183265D01*
X0101530Y0183285D01*
X0101374Y0183309D01*
X0101218Y0183337D01*
X0101063Y0183368D01*
X0100908Y0183404D01*
X0100755Y0183443D01*
X0100603Y0183486D01*
X0100452Y0183533D01*
X0100302Y0183584D01*
X0100153Y0183639D01*
X0100006Y0183697D01*
X0099860Y0183759D01*
X0099716Y0183824D01*
X0099574Y0183894D01*
X0099433Y0183966D01*
X0099294Y0184043D01*
X0099158Y0184122D01*
X0099023Y0184206D01*
X0098890Y0184292D01*
X0098760Y0184382D01*
X0098632Y0184475D01*
X0098506Y0184571D01*
X0098383Y0184671D01*
X0098262Y0184773D01*
X0098144Y0184878D01*
X0098029Y0184987D01*
X0097916Y0185098D01*
X0097806Y0185212D01*
X0097699Y0185329D01*
X0097595Y0185448D01*
X0097494Y0185570D01*
X0097397Y0185695D01*
X0097302Y0185822D01*
X0097211Y0185951D01*
X0097122Y0186082D01*
X0097038Y0186216D01*
X0096956Y0186352D01*
X0096878Y0186489D01*
X0096804Y0186629D01*
X0096733Y0186771D01*
X0096665Y0186914D01*
X0096601Y0187059D01*
X0096541Y0187205D01*
X0096485Y0187353D01*
X0096432Y0187502D01*
X0096383Y0187653D01*
X0096338Y0187805D01*
X0096297Y0187958D01*
X0096259Y0188111D01*
X0096226Y0188266D01*
X0096196Y0188422D01*
X0096170Y0188578D01*
X0096149Y0188735D01*
X0096131Y0188892D01*
X0096117Y0189050D01*
X0096107Y0189208D01*
X0096101Y0189366D01*
X0096099Y0189524D01*
X0218146Y0189524D02*
X0218148Y0189682D01*
X0218154Y0189840D01*
X0218164Y0189998D01*
X0218178Y0190156D01*
X0218196Y0190313D01*
X0218217Y0190470D01*
X0218243Y0190626D01*
X0218273Y0190782D01*
X0218306Y0190937D01*
X0218344Y0191090D01*
X0218385Y0191243D01*
X0218430Y0191395D01*
X0218479Y0191546D01*
X0218532Y0191695D01*
X0218588Y0191843D01*
X0218648Y0191989D01*
X0218712Y0192134D01*
X0218780Y0192277D01*
X0218851Y0192419D01*
X0218925Y0192559D01*
X0219003Y0192696D01*
X0219085Y0192832D01*
X0219169Y0192966D01*
X0219258Y0193097D01*
X0219349Y0193226D01*
X0219444Y0193353D01*
X0219541Y0193478D01*
X0219642Y0193600D01*
X0219746Y0193719D01*
X0219853Y0193836D01*
X0219963Y0193950D01*
X0220076Y0194061D01*
X0220191Y0194170D01*
X0220309Y0194275D01*
X0220430Y0194377D01*
X0220553Y0194477D01*
X0220679Y0194573D01*
X0220807Y0194666D01*
X0220937Y0194756D01*
X0221070Y0194842D01*
X0221205Y0194926D01*
X0221341Y0195005D01*
X0221480Y0195082D01*
X0221621Y0195154D01*
X0221763Y0195224D01*
X0221907Y0195289D01*
X0222053Y0195351D01*
X0222200Y0195409D01*
X0222349Y0195464D01*
X0222499Y0195515D01*
X0222650Y0195562D01*
X0222802Y0195605D01*
X0222955Y0195644D01*
X0223110Y0195680D01*
X0223265Y0195711D01*
X0223421Y0195739D01*
X0223577Y0195763D01*
X0223734Y0195783D01*
X0223892Y0195799D01*
X0224049Y0195811D01*
X0224208Y0195819D01*
X0224366Y0195823D01*
X0224524Y0195823D01*
X0224682Y0195819D01*
X0224841Y0195811D01*
X0224998Y0195799D01*
X0225156Y0195783D01*
X0225313Y0195763D01*
X0225469Y0195739D01*
X0225625Y0195711D01*
X0225780Y0195680D01*
X0225935Y0195644D01*
X0226088Y0195605D01*
X0226240Y0195562D01*
X0226391Y0195515D01*
X0226541Y0195464D01*
X0226690Y0195409D01*
X0226837Y0195351D01*
X0226983Y0195289D01*
X0227127Y0195224D01*
X0227269Y0195154D01*
X0227410Y0195082D01*
X0227549Y0195005D01*
X0227685Y0194926D01*
X0227820Y0194842D01*
X0227953Y0194756D01*
X0228083Y0194666D01*
X0228211Y0194573D01*
X0228337Y0194477D01*
X0228460Y0194377D01*
X0228581Y0194275D01*
X0228699Y0194170D01*
X0228814Y0194061D01*
X0228927Y0193950D01*
X0229037Y0193836D01*
X0229144Y0193719D01*
X0229248Y0193600D01*
X0229349Y0193478D01*
X0229446Y0193353D01*
X0229541Y0193226D01*
X0229632Y0193097D01*
X0229721Y0192966D01*
X0229805Y0192832D01*
X0229887Y0192696D01*
X0229965Y0192559D01*
X0230039Y0192419D01*
X0230110Y0192277D01*
X0230178Y0192134D01*
X0230242Y0191989D01*
X0230302Y0191843D01*
X0230358Y0191695D01*
X0230411Y0191546D01*
X0230460Y0191395D01*
X0230505Y0191243D01*
X0230546Y0191090D01*
X0230584Y0190937D01*
X0230617Y0190782D01*
X0230647Y0190626D01*
X0230673Y0190470D01*
X0230694Y0190313D01*
X0230712Y0190156D01*
X0230726Y0189998D01*
X0230736Y0189840D01*
X0230742Y0189682D01*
X0230744Y0189524D01*
X0230742Y0189366D01*
X0230736Y0189208D01*
X0230726Y0189050D01*
X0230712Y0188892D01*
X0230694Y0188735D01*
X0230673Y0188578D01*
X0230647Y0188422D01*
X0230617Y0188266D01*
X0230584Y0188111D01*
X0230546Y0187958D01*
X0230505Y0187805D01*
X0230460Y0187653D01*
X0230411Y0187502D01*
X0230358Y0187353D01*
X0230302Y0187205D01*
X0230242Y0187059D01*
X0230178Y0186914D01*
X0230110Y0186771D01*
X0230039Y0186629D01*
X0229965Y0186489D01*
X0229887Y0186352D01*
X0229805Y0186216D01*
X0229721Y0186082D01*
X0229632Y0185951D01*
X0229541Y0185822D01*
X0229446Y0185695D01*
X0229349Y0185570D01*
X0229248Y0185448D01*
X0229144Y0185329D01*
X0229037Y0185212D01*
X0228927Y0185098D01*
X0228814Y0184987D01*
X0228699Y0184878D01*
X0228581Y0184773D01*
X0228460Y0184671D01*
X0228337Y0184571D01*
X0228211Y0184475D01*
X0228083Y0184382D01*
X0227953Y0184292D01*
X0227820Y0184206D01*
X0227685Y0184122D01*
X0227549Y0184043D01*
X0227410Y0183966D01*
X0227269Y0183894D01*
X0227127Y0183824D01*
X0226983Y0183759D01*
X0226837Y0183697D01*
X0226690Y0183639D01*
X0226541Y0183584D01*
X0226391Y0183533D01*
X0226240Y0183486D01*
X0226088Y0183443D01*
X0225935Y0183404D01*
X0225780Y0183368D01*
X0225625Y0183337D01*
X0225469Y0183309D01*
X0225313Y0183285D01*
X0225156Y0183265D01*
X0224998Y0183249D01*
X0224841Y0183237D01*
X0224682Y0183229D01*
X0224524Y0183225D01*
X0224366Y0183225D01*
X0224208Y0183229D01*
X0224049Y0183237D01*
X0223892Y0183249D01*
X0223734Y0183265D01*
X0223577Y0183285D01*
X0223421Y0183309D01*
X0223265Y0183337D01*
X0223110Y0183368D01*
X0222955Y0183404D01*
X0222802Y0183443D01*
X0222650Y0183486D01*
X0222499Y0183533D01*
X0222349Y0183584D01*
X0222200Y0183639D01*
X0222053Y0183697D01*
X0221907Y0183759D01*
X0221763Y0183824D01*
X0221621Y0183894D01*
X0221480Y0183966D01*
X0221341Y0184043D01*
X0221205Y0184122D01*
X0221070Y0184206D01*
X0220937Y0184292D01*
X0220807Y0184382D01*
X0220679Y0184475D01*
X0220553Y0184571D01*
X0220430Y0184671D01*
X0220309Y0184773D01*
X0220191Y0184878D01*
X0220076Y0184987D01*
X0219963Y0185098D01*
X0219853Y0185212D01*
X0219746Y0185329D01*
X0219642Y0185448D01*
X0219541Y0185570D01*
X0219444Y0185695D01*
X0219349Y0185822D01*
X0219258Y0185951D01*
X0219169Y0186082D01*
X0219085Y0186216D01*
X0219003Y0186352D01*
X0218925Y0186489D01*
X0218851Y0186629D01*
X0218780Y0186771D01*
X0218712Y0186914D01*
X0218648Y0187059D01*
X0218588Y0187205D01*
X0218532Y0187353D01*
X0218479Y0187502D01*
X0218430Y0187653D01*
X0218385Y0187805D01*
X0218344Y0187958D01*
X0218306Y0188111D01*
X0218273Y0188266D01*
X0218243Y0188422D01*
X0218217Y0188578D01*
X0218196Y0188735D01*
X0218178Y0188892D01*
X0218164Y0189050D01*
X0218154Y0189208D01*
X0218148Y0189366D01*
X0218146Y0189524D01*
D13*
X0187017Y0178392D02*
X0187017Y0175608D01*
X0170314Y0158905D01*
X0167530Y0158905D01*
X0150826Y0175608D01*
X0150826Y0178392D01*
X0167530Y0195095D01*
X0170314Y0195095D01*
X0187017Y0178392D01*
X0138934Y0172756D02*
X0138934Y0169606D01*
X0138934Y0172756D02*
X0136571Y0172756D01*
X0130272Y0172756D02*
X0127910Y0172756D01*
X0127910Y0169606D01*
X0126934Y0169606D02*
X0126934Y0172756D01*
X0124571Y0172756D01*
X0118272Y0172756D02*
X0115910Y0172756D01*
X0115910Y0169606D01*
X0115678Y0119012D02*
X0112528Y0119012D01*
X0115678Y0119012D02*
X0115678Y0116650D01*
X0115678Y0110350D02*
X0115678Y0107988D01*
X0112528Y0107988D01*
X0142231Y0109443D02*
X0142231Y0111557D01*
X0143731Y0116100D02*
X0147112Y0116100D01*
X0147112Y0104900D02*
X0143731Y0104900D01*
X0186267Y0108049D02*
X0186267Y0088364D01*
X0187054Y0088364D01*
X0209495Y0088364D02*
X0210283Y0088364D01*
X0210283Y0096631D01*
X0210196Y0096633D01*
X0210109Y0096639D01*
X0210022Y0096648D01*
X0209936Y0096662D01*
X0209851Y0096679D01*
X0209766Y0096700D01*
X0209683Y0096725D01*
X0209600Y0096753D01*
X0209519Y0096785D01*
X0209440Y0096821D01*
X0209362Y0096860D01*
X0209286Y0096902D01*
X0209212Y0096948D01*
X0209140Y0096997D01*
X0209070Y0097049D01*
X0209003Y0097104D01*
X0208938Y0097162D01*
X0208875Y0097223D01*
X0208816Y0097287D01*
X0208759Y0097353D01*
X0208706Y0097422D01*
X0208655Y0097493D01*
X0208608Y0097566D01*
X0208563Y0097641D01*
X0208523Y0097718D01*
X0208485Y0097796D01*
X0208452Y0097877D01*
X0208421Y0097958D01*
X0208395Y0098041D01*
X0208372Y0098126D01*
X0208353Y0098211D01*
X0208338Y0098296D01*
X0208326Y0098383D01*
X0208318Y0098469D01*
X0208314Y0098556D01*
X0208314Y0098644D01*
X0208318Y0098731D01*
X0208326Y0098817D01*
X0208338Y0098904D01*
X0208353Y0098989D01*
X0208372Y0099074D01*
X0208395Y0099159D01*
X0208421Y0099242D01*
X0208452Y0099323D01*
X0208485Y0099404D01*
X0208523Y0099482D01*
X0208563Y0099559D01*
X0208608Y0099634D01*
X0208655Y0099707D01*
X0208706Y0099778D01*
X0208759Y0099847D01*
X0208816Y0099913D01*
X0208875Y0099977D01*
X0208938Y0100038D01*
X0209003Y0100096D01*
X0209070Y0100151D01*
X0209140Y0100203D01*
X0209212Y0100252D01*
X0209286Y0100298D01*
X0209362Y0100340D01*
X0209440Y0100379D01*
X0209519Y0100415D01*
X0209600Y0100447D01*
X0209683Y0100475D01*
X0209766Y0100500D01*
X0209851Y0100521D01*
X0209936Y0100538D01*
X0210022Y0100552D01*
X0210109Y0100561D01*
X0210196Y0100567D01*
X0210283Y0100569D01*
X0210283Y0108049D01*
X0209495Y0108049D01*
X0187054Y0108049D02*
X0186267Y0108049D01*
X0164912Y0075485D02*
X0164912Y0049895D01*
X0120817Y0049895D01*
X0120817Y0075485D01*
X0164912Y0075485D01*
X0171922Y0056000D02*
X0169422Y0053500D01*
X0169422Y0048500D01*
X0171922Y0046000D01*
X0176922Y0046000D01*
X0179422Y0048500D01*
X0181922Y0046000D01*
X0186922Y0046000D01*
X0189422Y0048500D01*
X0191922Y0046000D01*
X0196922Y0046000D01*
X0199422Y0048500D01*
X0201922Y0046000D01*
X0206922Y0046000D01*
X0209422Y0048500D01*
X0209422Y0053500D01*
X0206922Y0056000D01*
X0201922Y0056000D01*
X0199422Y0053500D01*
X0196922Y0056000D01*
X0191922Y0056000D01*
X0189422Y0053500D01*
X0186922Y0056000D01*
X0181922Y0056000D01*
X0179422Y0053500D01*
X0176922Y0056000D01*
X0171922Y0056000D01*
X0164912Y0049895D02*
X0164912Y0045958D01*
X0120817Y0045958D01*
X0120817Y0049895D01*
D14*
X0098542Y0091000D02*
X0098302Y0091000D01*
X0149922Y0119380D02*
X0149922Y0119620D01*
X0159802Y0111000D02*
X0160042Y0111000D01*
X0165802Y0111000D02*
X0166042Y0111000D01*
X0183422Y0116880D02*
X0183422Y0117120D01*
X0212922Y0117120D02*
X0212922Y0116880D01*
X0145007Y0159585D02*
X0144837Y0159415D01*
X0198922Y0171380D02*
X0198922Y0171620D01*
X0198922Y0175880D02*
X0198922Y0176120D01*
X0186422Y0191880D02*
X0186422Y0192120D01*
X0186422Y0196380D02*
X0186422Y0196620D01*
X0124042Y0193000D02*
X0123802Y0193000D01*
D15*
X0096815Y0160000D03*
D16*
X0233172Y0169000D02*
X0233172Y0171000D01*
D17*
X0141217Y0099602D02*
X0134524Y0106295D01*
X0115626Y0106295D01*
X0115626Y0097240D01*
X0115626Y0089760D02*
X0115626Y0080705D01*
X0134524Y0080705D01*
X0141217Y0087398D01*
X0141217Y0089760D01*
X0141217Y0097240D02*
X0141217Y0099602D01*
X0140037Y0089760D02*
X0139942Y0089477D01*
X0139840Y0089196D01*
X0139731Y0088919D01*
X0139616Y0088643D01*
X0139494Y0088371D01*
X0139365Y0088102D01*
X0139230Y0087836D01*
X0139088Y0087574D01*
X0138940Y0087315D01*
X0138786Y0087059D01*
X0138625Y0086808D01*
X0138458Y0086560D01*
X0138286Y0086317D01*
X0138107Y0086078D01*
X0137923Y0085843D01*
X0137733Y0085613D01*
X0137537Y0085388D01*
X0137336Y0085168D01*
X0137130Y0084952D01*
X0136918Y0084742D01*
X0136702Y0084537D01*
X0136480Y0084337D01*
X0136253Y0084143D01*
X0136022Y0083954D01*
X0135787Y0083771D01*
X0135547Y0083594D01*
X0135302Y0083423D01*
X0135054Y0083258D01*
X0134801Y0083099D01*
X0134545Y0082946D01*
X0134285Y0082799D01*
X0134022Y0082659D01*
X0133755Y0082525D01*
X0133485Y0082398D01*
X0133212Y0082278D01*
X0132937Y0082164D01*
X0132658Y0082057D01*
X0132377Y0081957D01*
X0132094Y0081864D01*
X0131808Y0081777D01*
X0131520Y0081698D01*
X0131231Y0081626D01*
X0130940Y0081561D01*
X0130647Y0081503D01*
X0130353Y0081452D01*
X0130058Y0081408D01*
X0129762Y0081372D01*
X0129465Y0081343D01*
X0129167Y0081321D01*
X0128869Y0081306D01*
X0128571Y0081299D01*
X0128273Y0081299D01*
X0127975Y0081306D01*
X0127677Y0081321D01*
X0127379Y0081343D01*
X0127082Y0081372D01*
X0126786Y0081408D01*
X0126491Y0081452D01*
X0126197Y0081503D01*
X0125904Y0081561D01*
X0125613Y0081626D01*
X0125324Y0081698D01*
X0125036Y0081777D01*
X0124750Y0081864D01*
X0124467Y0081957D01*
X0124186Y0082057D01*
X0123907Y0082164D01*
X0123632Y0082278D01*
X0123359Y0082398D01*
X0123089Y0082525D01*
X0122822Y0082659D01*
X0122559Y0082799D01*
X0122299Y0082946D01*
X0122043Y0083099D01*
X0121790Y0083258D01*
X0121542Y0083423D01*
X0121297Y0083594D01*
X0121057Y0083771D01*
X0120822Y0083954D01*
X0120591Y0084143D01*
X0120364Y0084337D01*
X0120142Y0084537D01*
X0119926Y0084742D01*
X0119714Y0084952D01*
X0119508Y0085168D01*
X0119307Y0085388D01*
X0119111Y0085613D01*
X0118921Y0085843D01*
X0118737Y0086078D01*
X0118558Y0086317D01*
X0118386Y0086560D01*
X0118219Y0086808D01*
X0118058Y0087059D01*
X0117904Y0087315D01*
X0117756Y0087574D01*
X0117614Y0087836D01*
X0117479Y0088102D01*
X0117350Y0088371D01*
X0117228Y0088643D01*
X0117113Y0088919D01*
X0117004Y0089196D01*
X0116902Y0089477D01*
X0116807Y0089760D01*
X0116807Y0097240D02*
X0116902Y0097523D01*
X0117004Y0097804D01*
X0117113Y0098081D01*
X0117228Y0098357D01*
X0117350Y0098629D01*
X0117479Y0098898D01*
X0117614Y0099164D01*
X0117756Y0099426D01*
X0117904Y0099685D01*
X0118058Y0099941D01*
X0118219Y0100192D01*
X0118386Y0100440D01*
X0118558Y0100683D01*
X0118737Y0100922D01*
X0118921Y0101157D01*
X0119111Y0101387D01*
X0119307Y0101612D01*
X0119508Y0101832D01*
X0119714Y0102048D01*
X0119926Y0102258D01*
X0120142Y0102463D01*
X0120364Y0102663D01*
X0120591Y0102857D01*
X0120822Y0103046D01*
X0121057Y0103229D01*
X0121297Y0103406D01*
X0121542Y0103577D01*
X0121790Y0103742D01*
X0122043Y0103901D01*
X0122299Y0104054D01*
X0122559Y0104201D01*
X0122822Y0104341D01*
X0123089Y0104475D01*
X0123359Y0104602D01*
X0123632Y0104722D01*
X0123907Y0104836D01*
X0124186Y0104943D01*
X0124467Y0105043D01*
X0124750Y0105136D01*
X0125036Y0105223D01*
X0125324Y0105302D01*
X0125613Y0105374D01*
X0125904Y0105439D01*
X0126197Y0105497D01*
X0126491Y0105548D01*
X0126786Y0105592D01*
X0127082Y0105628D01*
X0127379Y0105657D01*
X0127677Y0105679D01*
X0127975Y0105694D01*
X0128273Y0105701D01*
X0128571Y0105701D01*
X0128869Y0105694D01*
X0129167Y0105679D01*
X0129465Y0105657D01*
X0129762Y0105628D01*
X0130058Y0105592D01*
X0130353Y0105548D01*
X0130647Y0105497D01*
X0130940Y0105439D01*
X0131231Y0105374D01*
X0131520Y0105302D01*
X0131808Y0105223D01*
X0132094Y0105136D01*
X0132377Y0105043D01*
X0132658Y0104943D01*
X0132937Y0104836D01*
X0133212Y0104722D01*
X0133485Y0104602D01*
X0133755Y0104475D01*
X0134022Y0104341D01*
X0134285Y0104201D01*
X0134545Y0104054D01*
X0134801Y0103901D01*
X0135054Y0103742D01*
X0135302Y0103577D01*
X0135547Y0103406D01*
X0135787Y0103229D01*
X0136022Y0103046D01*
X0136253Y0102857D01*
X0136480Y0102663D01*
X0136702Y0102463D01*
X0136918Y0102258D01*
X0137130Y0102048D01*
X0137336Y0101832D01*
X0137537Y0101612D01*
X0137733Y0101387D01*
X0137923Y0101157D01*
X0138107Y0100922D01*
X0138286Y0100683D01*
X0138458Y0100440D01*
X0138625Y0100192D01*
X0138786Y0099941D01*
X0138940Y0099685D01*
X0139088Y0099426D01*
X0139230Y0099164D01*
X0139365Y0098898D01*
X0139494Y0098629D01*
X0139616Y0098357D01*
X0139731Y0098081D01*
X0139840Y0097804D01*
X0139942Y0097523D01*
X0140037Y0097240D01*
D18*
X0106042Y0091000D02*
X0105802Y0091000D01*
D19*
X0280522Y0104850D03*
X0315922Y0100200D03*
X0280522Y0125550D03*
D20*
X0283522Y0126525D03*
X0303322Y0119075D03*
X0303372Y0119025D03*
X0306372Y0106875D03*
X0315872Y0100225D03*
X0283422Y0099275D03*
X0280772Y0099175D03*
X0287472Y0141625D03*
X0287422Y0141675D03*
X0287322Y0141725D03*
D21*
X0277322Y0140800D03*
X0281922Y0126750D03*
X0281972Y0126750D03*
X0282022Y0126750D03*
X0282072Y0126800D03*
X0282122Y0126800D03*
X0282172Y0126800D03*
X0282222Y0126800D03*
X0282272Y0126800D03*
X0282322Y0126800D03*
X0282372Y0126800D03*
X0282422Y0126800D03*
X0282472Y0126800D03*
X0282672Y0126750D03*
X0282722Y0126750D03*
X0282772Y0126750D03*
X0282822Y0126750D03*
X0282972Y0126700D03*
X0279772Y0119150D03*
X0277172Y0119200D03*
X0282322Y0106300D03*
X0282372Y0106300D03*
X0282422Y0106300D03*
X0302472Y0113150D03*
X0306322Y0114450D03*
X0315822Y0100150D03*
X0298972Y0087900D03*
X0281272Y0083550D03*
D22*
X0298872Y0087775D03*
X0297222Y0099525D03*
X0287122Y0105525D03*
X0287022Y0105575D03*
X0286922Y0105625D03*
X0286822Y0105675D03*
X0286722Y0105725D03*
X0286622Y0105775D03*
X0286572Y0105775D03*
X0286472Y0105825D03*
X0286322Y0105875D03*
X0282772Y0106275D03*
X0283022Y0099375D03*
X0272022Y0099475D03*
X0297322Y0109675D03*
X0302622Y0113125D03*
X0315772Y0100125D03*
X0280722Y0132025D03*
D23*
X0289672Y0129875D03*
X0289672Y0134325D03*
X0289772Y0123525D03*
X0296872Y0116625D03*
X0302872Y0113075D03*
X0302922Y0113075D03*
X0303672Y0112825D03*
X0302922Y0110325D03*
X0302772Y0110375D03*
X0302622Y0110425D03*
X0303172Y0110225D03*
X0303272Y0110175D03*
X0303372Y0110125D03*
X0303422Y0110125D03*
X0303472Y0110075D03*
X0303572Y0110025D03*
X0299272Y0110725D03*
X0299222Y0110725D03*
X0299122Y0110675D03*
X0299072Y0110675D03*
X0306272Y0106925D03*
X0306172Y0101825D03*
X0306172Y0097375D03*
X0315722Y0100125D03*
X0298672Y0087575D03*
X0282672Y0099425D03*
X0282622Y0099425D03*
X0272072Y0099325D03*
X0283222Y0106125D03*
X0283272Y0106125D03*
X0287822Y0105025D03*
X0287872Y0104975D03*
X0277372Y0119175D03*
D24*
X0277522Y0119200D03*
X0277572Y0119200D03*
X0279422Y0119200D03*
X0289672Y0111600D03*
X0304222Y0109550D03*
X0304272Y0109500D03*
X0306222Y0114500D03*
X0315672Y0100100D03*
X0306122Y0097400D03*
X0298322Y0087300D03*
X0280722Y0083000D03*
X0280672Y0082950D03*
X0280622Y0082950D03*
X0289622Y0129900D03*
D25*
X0280772Y0125425D03*
X0279222Y0119225D03*
X0282872Y0114575D03*
X0282922Y0114575D03*
X0282972Y0114575D03*
X0283022Y0114575D03*
X0283072Y0114575D03*
X0283122Y0114575D03*
X0283172Y0114575D03*
X0283222Y0114575D03*
X0283422Y0114625D03*
X0283472Y0114625D03*
X0283522Y0114625D03*
X0283972Y0114575D03*
X0284022Y0114575D03*
X0284072Y0114575D03*
X0284122Y0114575D03*
X0284172Y0114575D03*
X0284222Y0114575D03*
X0284272Y0114575D03*
X0284622Y0114525D03*
X0280922Y0113575D03*
X0289622Y0111625D03*
X0289672Y0108575D03*
X0297372Y0102475D03*
X0297422Y0102475D03*
X0297472Y0102475D03*
X0281272Y0099025D03*
X0297622Y0087025D03*
X0297672Y0087025D03*
X0297772Y0087075D03*
X0297822Y0087075D03*
X0280122Y0082725D03*
X0280072Y0082725D03*
X0279972Y0082675D03*
X0315622Y0100075D03*
X0306172Y0114525D03*
X0280972Y0134975D03*
X0280922Y0134975D03*
X0280872Y0134975D03*
X0277472Y0140275D03*
D26*
X0277772Y0140150D03*
X0278722Y0139950D03*
X0278972Y0139900D03*
X0279422Y0139800D03*
X0279672Y0139750D03*
X0279922Y0139700D03*
X0280122Y0139650D03*
X0280172Y0139650D03*
X0280372Y0139600D03*
X0280622Y0139550D03*
X0280822Y0139500D03*
X0280872Y0139500D03*
X0281072Y0139450D03*
X0281122Y0139450D03*
X0281322Y0139400D03*
X0281372Y0139400D03*
X0281522Y0139350D03*
X0281572Y0139350D03*
X0281622Y0139350D03*
X0281772Y0139300D03*
X0281822Y0139300D03*
X0282022Y0139250D03*
X0282072Y0139250D03*
X0282272Y0139200D03*
X0282322Y0139200D03*
X0282472Y0139150D03*
X0282522Y0139150D03*
X0282572Y0139150D03*
X0282722Y0139100D03*
X0282772Y0139100D03*
X0282822Y0139100D03*
X0282972Y0139050D03*
X0283022Y0139050D03*
X0283172Y0139000D03*
X0283222Y0139000D03*
X0283272Y0139000D03*
X0283422Y0138950D03*
X0283472Y0138950D03*
X0283522Y0138950D03*
X0283672Y0138900D03*
X0283722Y0138900D03*
X0283772Y0138900D03*
X0283872Y0138850D03*
X0283922Y0138850D03*
X0283972Y0138850D03*
X0284022Y0138850D03*
X0284122Y0138800D03*
X0284172Y0138800D03*
X0284222Y0138800D03*
X0284272Y0138800D03*
X0284372Y0138750D03*
X0284422Y0138750D03*
X0284472Y0138750D03*
X0284572Y0138700D03*
X0284622Y0138700D03*
X0284672Y0138700D03*
X0284722Y0138700D03*
X0284822Y0138650D03*
X0284872Y0138650D03*
X0284922Y0138650D03*
X0284972Y0138650D03*
X0285072Y0138600D03*
X0285122Y0138600D03*
X0285172Y0138600D03*
X0285222Y0138600D03*
X0285272Y0138550D03*
X0285322Y0138550D03*
X0285372Y0138550D03*
X0285422Y0138550D03*
X0285472Y0138550D03*
X0285522Y0138500D03*
X0285572Y0138500D03*
X0285622Y0138500D03*
X0285672Y0138500D03*
X0285772Y0138450D03*
X0285822Y0138450D03*
X0285872Y0138450D03*
X0285922Y0138450D03*
X0286022Y0138400D03*
X0286072Y0138400D03*
X0286122Y0138400D03*
X0286172Y0138400D03*
X0286222Y0138350D03*
X0286272Y0138350D03*
X0286322Y0138350D03*
X0286472Y0138300D03*
X0286522Y0138300D03*
X0285372Y0134000D03*
X0285322Y0134000D03*
X0285272Y0134000D03*
X0285222Y0134000D03*
X0285122Y0134050D03*
X0285072Y0134050D03*
X0285022Y0134050D03*
X0284972Y0134050D03*
X0284872Y0134100D03*
X0284822Y0134100D03*
X0284772Y0134100D03*
X0284722Y0134100D03*
X0284622Y0134150D03*
X0284572Y0134150D03*
X0284522Y0134150D03*
X0284472Y0134150D03*
X0284372Y0134200D03*
X0284322Y0134200D03*
X0284272Y0134200D03*
X0284122Y0134250D03*
X0284072Y0134250D03*
X0284022Y0134250D03*
X0283872Y0134300D03*
X0283822Y0134300D03*
X0283772Y0134300D03*
X0283622Y0134350D03*
X0283572Y0134350D03*
X0283422Y0134400D03*
X0283372Y0134400D03*
X0283322Y0134400D03*
X0283172Y0134450D03*
X0283122Y0134450D03*
X0283072Y0134450D03*
X0282922Y0134500D03*
X0282872Y0134500D03*
X0282822Y0134500D03*
X0282672Y0134550D03*
X0282622Y0134550D03*
X0282422Y0134600D03*
X0282372Y0134600D03*
X0285422Y0133950D03*
X0285472Y0133950D03*
X0285522Y0133950D03*
X0285572Y0133950D03*
X0285672Y0133900D03*
X0285722Y0133900D03*
X0285772Y0133900D03*
X0285822Y0133900D03*
X0285922Y0133850D03*
X0285972Y0133850D03*
X0286022Y0133850D03*
X0286072Y0133850D03*
X0286122Y0133800D03*
X0286172Y0133800D03*
X0286222Y0133800D03*
X0286272Y0133800D03*
X0286322Y0133800D03*
X0286372Y0133750D03*
X0286422Y0133750D03*
X0286472Y0133750D03*
X0286522Y0133750D03*
X0286622Y0133700D03*
X0286672Y0133700D03*
X0286722Y0133700D03*
X0289472Y0134400D03*
X0286222Y0128850D03*
X0285822Y0128900D03*
X0285772Y0128900D03*
X0285522Y0128950D03*
X0285072Y0129050D03*
X0284672Y0129150D03*
X0284522Y0129200D03*
X0284372Y0129250D03*
X0284222Y0129300D03*
X0284072Y0129350D03*
X0283972Y0129400D03*
X0283922Y0129400D03*
X0283822Y0129450D03*
X0283772Y0129450D03*
X0283722Y0129500D03*
X0283672Y0129500D03*
X0283572Y0129550D03*
X0283472Y0129600D03*
X0283372Y0129650D03*
X0283272Y0129700D03*
X0283172Y0129750D03*
X0283072Y0129800D03*
X0283022Y0129850D03*
X0282922Y0129900D03*
X0282822Y0129950D03*
X0281872Y0123900D03*
X0281922Y0123850D03*
X0282922Y0123100D03*
X0283122Y0123000D03*
X0283222Y0122950D03*
X0283322Y0122900D03*
X0283422Y0122850D03*
X0283522Y0122800D03*
X0283572Y0122800D03*
X0283622Y0122750D03*
X0283672Y0122750D03*
X0283772Y0122700D03*
X0283822Y0122700D03*
X0283922Y0122650D03*
X0283972Y0122650D03*
X0284072Y0122600D03*
X0284222Y0122550D03*
X0284372Y0122500D03*
X0284522Y0122450D03*
X0284672Y0122400D03*
X0284722Y0122400D03*
X0285572Y0122200D03*
X0289672Y0123600D03*
X0281322Y0118600D03*
X0281272Y0118600D03*
X0281072Y0118650D03*
X0281022Y0118650D03*
X0280822Y0118700D03*
X0280772Y0118700D03*
X0281522Y0118550D03*
X0281572Y0118550D03*
X0281722Y0118500D03*
X0281772Y0118500D03*
X0281972Y0118450D03*
X0282022Y0118450D03*
X0282222Y0118400D03*
X0282272Y0118400D03*
X0282422Y0118350D03*
X0282472Y0118350D03*
X0282522Y0118350D03*
X0282672Y0118300D03*
X0282722Y0118300D03*
X0282772Y0118300D03*
X0282922Y0118250D03*
X0282972Y0118250D03*
X0283022Y0118250D03*
X0283172Y0118200D03*
X0283222Y0118200D03*
X0283272Y0118200D03*
X0283372Y0118150D03*
X0283422Y0118150D03*
X0283472Y0118150D03*
X0283622Y0118100D03*
X0283672Y0118100D03*
X0283722Y0118100D03*
X0283872Y0118050D03*
X0283922Y0118050D03*
X0283972Y0118050D03*
X0284072Y0118000D03*
X0284122Y0118000D03*
X0284172Y0118000D03*
X0284222Y0118000D03*
X0284322Y0117950D03*
X0284372Y0117950D03*
X0284422Y0117950D03*
X0284472Y0117950D03*
X0284572Y0117900D03*
X0284622Y0117900D03*
X0284672Y0117900D03*
X0284722Y0117900D03*
X0284822Y0117850D03*
X0284872Y0117850D03*
X0284922Y0117850D03*
X0284972Y0117850D03*
X0285022Y0117800D03*
X0285072Y0117800D03*
X0285122Y0117800D03*
X0285172Y0117800D03*
X0285272Y0117750D03*
X0285322Y0117750D03*
X0285372Y0117750D03*
X0285422Y0117750D03*
X0285522Y0117700D03*
X0285572Y0117700D03*
X0285622Y0117700D03*
X0285672Y0117700D03*
X0285772Y0117650D03*
X0285822Y0117650D03*
X0285872Y0117650D03*
X0285922Y0117650D03*
X0285972Y0117600D03*
X0286022Y0117600D03*
X0286072Y0117600D03*
X0286122Y0117600D03*
X0286172Y0117600D03*
X0286222Y0117550D03*
X0286272Y0117550D03*
X0286322Y0117550D03*
X0286372Y0117550D03*
X0286422Y0117550D03*
X0286472Y0117500D03*
X0286522Y0117500D03*
X0286572Y0117500D03*
X0286622Y0117500D03*
X0286672Y0117500D03*
X0286772Y0117450D03*
X0286822Y0117450D03*
X0286872Y0117450D03*
X0286922Y0117450D03*
X0287072Y0117400D03*
X0287122Y0117400D03*
X0287172Y0117400D03*
X0287222Y0117400D03*
X0287272Y0117400D03*
X0287322Y0117400D03*
X0287372Y0117400D03*
X0287422Y0117400D03*
X0287472Y0117400D03*
X0287522Y0117400D03*
X0287572Y0117400D03*
X0287622Y0117400D03*
X0286472Y0114100D03*
X0286572Y0114050D03*
X0286622Y0114050D03*
X0286672Y0114000D03*
X0286722Y0114000D03*
X0286772Y0114000D03*
X0286822Y0113950D03*
X0286872Y0113950D03*
X0286322Y0114150D03*
X0286172Y0114200D03*
X0285972Y0114250D03*
X0282422Y0114450D03*
X0280972Y0113550D03*
X0280372Y0110550D03*
X0280122Y0110600D03*
X0282872Y0110050D03*
X0282972Y0110000D03*
X0283022Y0110000D03*
X0284422Y0109700D03*
X0284472Y0109700D03*
X0284672Y0109650D03*
X0284722Y0109650D03*
X0284922Y0109600D03*
X0284972Y0109600D03*
X0285172Y0109550D03*
X0285222Y0109550D03*
X0285372Y0109500D03*
X0285422Y0109500D03*
X0285622Y0109450D03*
X0285672Y0109450D03*
X0285872Y0109400D03*
X0285922Y0109400D03*
X0286122Y0109350D03*
X0286322Y0109300D03*
X0286372Y0109300D03*
X0286572Y0109250D03*
X0286622Y0109250D03*
X0286822Y0109200D03*
X0287072Y0109150D03*
X0287322Y0109100D03*
X0287522Y0109050D03*
X0287572Y0109050D03*
X0287772Y0109000D03*
X0287822Y0109000D03*
X0284372Y0106550D03*
X0282372Y0102750D03*
X0282422Y0102700D03*
X0282522Y0102650D03*
X0282572Y0102600D03*
X0282622Y0102600D03*
X0282672Y0102550D03*
X0282722Y0102500D03*
X0282822Y0102450D03*
X0282872Y0102400D03*
X0282922Y0102400D03*
X0282972Y0102350D03*
X0283072Y0102300D03*
X0283122Y0102250D03*
X0283172Y0102250D03*
X0283222Y0102200D03*
X0283272Y0102200D03*
X0283372Y0102150D03*
X0283472Y0102100D03*
X0283572Y0102050D03*
X0283672Y0102000D03*
X0283722Y0102000D03*
X0283822Y0101950D03*
X0283972Y0101900D03*
X0284522Y0101700D03*
X0284672Y0101650D03*
X0281322Y0099000D03*
X0280822Y0096050D03*
X0280772Y0096050D03*
X0281022Y0096000D03*
X0281272Y0095950D03*
X0283022Y0095600D03*
X0283072Y0095600D03*
X0283222Y0095550D03*
X0283272Y0095550D03*
X0283472Y0095500D03*
X0283522Y0095500D03*
X0283672Y0095450D03*
X0283722Y0095450D03*
X0283772Y0095450D03*
X0283922Y0095400D03*
X0283972Y0095400D03*
X0284022Y0095400D03*
X0284172Y0095350D03*
X0284222Y0095350D03*
X0284422Y0095300D03*
X0284472Y0095300D03*
X0284672Y0095250D03*
X0284722Y0095250D03*
X0284922Y0095200D03*
X0284972Y0095200D03*
X0285122Y0095150D03*
X0285172Y0095150D03*
X0285372Y0095100D03*
X0285422Y0095100D03*
X0285622Y0095050D03*
X0285672Y0095050D03*
X0285872Y0095000D03*
X0285922Y0095000D03*
X0286122Y0094950D03*
X0286372Y0094900D03*
X0286622Y0094850D03*
X0286822Y0094800D03*
X0286872Y0094800D03*
X0287072Y0094750D03*
X0287322Y0094700D03*
X0287572Y0094650D03*
X0287822Y0094600D03*
X0288272Y0094500D03*
X0288522Y0094450D03*
X0288772Y0094400D03*
X0299322Y0097450D03*
X0299422Y0097400D03*
X0299522Y0097350D03*
X0299572Y0097300D03*
X0299672Y0097250D03*
X0299772Y0097200D03*
X0299872Y0097150D03*
X0299972Y0097100D03*
X0300072Y0097050D03*
X0300172Y0097000D03*
X0300222Y0097000D03*
X0300272Y0096950D03*
X0300322Y0096950D03*
X0300422Y0096900D03*
X0300472Y0096900D03*
X0300572Y0096850D03*
X0300722Y0096800D03*
X0300872Y0096750D03*
X0301022Y0096700D03*
X0301172Y0096650D03*
X0301572Y0096550D03*
X0302022Y0096450D03*
X0302272Y0096400D03*
X0302322Y0096400D03*
X0302722Y0096350D03*
X0303122Y0101200D03*
X0303172Y0101200D03*
X0303222Y0101200D03*
X0303022Y0101250D03*
X0302972Y0101250D03*
X0302922Y0101250D03*
X0302872Y0101250D03*
X0302822Y0101300D03*
X0302772Y0101300D03*
X0302722Y0101300D03*
X0302672Y0101300D03*
X0302622Y0101300D03*
X0302572Y0101350D03*
X0302522Y0101350D03*
X0302472Y0101350D03*
X0302422Y0101350D03*
X0302322Y0101400D03*
X0302272Y0101400D03*
X0302222Y0101400D03*
X0302172Y0101400D03*
X0302072Y0101450D03*
X0302022Y0101450D03*
X0301972Y0101450D03*
X0301922Y0101450D03*
X0301872Y0101500D03*
X0301822Y0101500D03*
X0301772Y0101500D03*
X0301722Y0101500D03*
X0301622Y0101550D03*
X0301572Y0101550D03*
X0301522Y0101550D03*
X0301472Y0101550D03*
X0301372Y0101600D03*
X0301322Y0101600D03*
X0301272Y0101600D03*
X0301222Y0101600D03*
X0301122Y0101650D03*
X0301072Y0101650D03*
X0301022Y0101650D03*
X0300972Y0101650D03*
X0300872Y0101700D03*
X0300822Y0101700D03*
X0300772Y0101700D03*
X0300622Y0101750D03*
X0300572Y0101750D03*
X0300522Y0101750D03*
X0300372Y0101800D03*
X0300322Y0101800D03*
X0300272Y0101800D03*
X0300122Y0101850D03*
X0300072Y0101850D03*
X0299922Y0101900D03*
X0299872Y0101900D03*
X0299822Y0101900D03*
X0299672Y0101950D03*
X0299622Y0101950D03*
X0299572Y0101950D03*
X0299422Y0102000D03*
X0299372Y0102000D03*
X0299322Y0102000D03*
X0299172Y0102050D03*
X0299122Y0102050D03*
X0298922Y0102100D03*
X0298872Y0102100D03*
X0299672Y0106500D03*
X0299722Y0106500D03*
X0299772Y0106500D03*
X0299822Y0106500D03*
X0299922Y0106450D03*
X0299972Y0106450D03*
X0300022Y0106450D03*
X0300072Y0106450D03*
X0300172Y0106400D03*
X0300222Y0106400D03*
X0300272Y0106400D03*
X0300372Y0106350D03*
X0300422Y0106350D03*
X0300472Y0106350D03*
X0300522Y0106350D03*
X0300622Y0106300D03*
X0300672Y0106300D03*
X0300722Y0106300D03*
X0300772Y0106300D03*
X0300872Y0106250D03*
X0300922Y0106250D03*
X0300972Y0106250D03*
X0301072Y0106200D03*
X0301122Y0106200D03*
X0301172Y0106200D03*
X0301222Y0106200D03*
X0301322Y0106150D03*
X0301372Y0106150D03*
X0301422Y0106150D03*
X0301472Y0106150D03*
X0301572Y0106100D03*
X0301622Y0106100D03*
X0301672Y0106100D03*
X0301772Y0106050D03*
X0301822Y0106050D03*
X0301872Y0106050D03*
X0301922Y0106050D03*
X0302022Y0106000D03*
X0302072Y0106000D03*
X0302122Y0106000D03*
X0302172Y0106000D03*
X0302272Y0105950D03*
X0302322Y0105950D03*
X0302372Y0105950D03*
X0302522Y0105900D03*
X0302572Y0105900D03*
X0302622Y0105900D03*
X0302722Y0105850D03*
X0302772Y0105850D03*
X0302822Y0105850D03*
X0302922Y0105800D03*
X0302972Y0105800D03*
X0303022Y0105800D03*
X0303122Y0105750D03*
X0303172Y0105750D03*
X0299572Y0106550D03*
X0299522Y0106550D03*
X0299472Y0106550D03*
X0299372Y0106600D03*
X0299322Y0106600D03*
X0299272Y0106600D03*
X0299222Y0106600D03*
X0299122Y0106650D03*
X0299072Y0106650D03*
X0299022Y0106650D03*
X0298972Y0106650D03*
X0294222Y0107650D03*
X0293772Y0107750D03*
X0289572Y0111650D03*
X0300922Y0116500D03*
X0300972Y0116500D03*
X0301422Y0116550D03*
X0301472Y0116550D03*
X0301522Y0116550D03*
X0301572Y0116550D03*
X0301622Y0116550D03*
X0301922Y0116600D03*
X0301972Y0116600D03*
X0302022Y0116600D03*
X0302072Y0116600D03*
X0302122Y0116600D03*
X0302172Y0116600D03*
X0302222Y0116600D03*
X0302522Y0116650D03*
X0302572Y0116650D03*
X0302622Y0116650D03*
X0302672Y0116650D03*
X0302722Y0116650D03*
X0302772Y0116650D03*
X0302822Y0116650D03*
X0302872Y0116650D03*
X0302922Y0116650D03*
X0302972Y0116650D03*
X0303022Y0116650D03*
X0303072Y0116650D03*
X0303122Y0116650D03*
X0303172Y0116650D03*
X0303222Y0116650D03*
X0303272Y0116650D03*
X0303322Y0116650D03*
X0303372Y0116650D03*
X0303422Y0116650D03*
X0303472Y0116650D03*
X0303522Y0116650D03*
X0279122Y0119200D03*
X0279072Y0119200D03*
X0277872Y0119200D03*
X0277822Y0119200D03*
X0305972Y0101900D03*
X0315572Y0100050D03*
X0297222Y0086950D03*
X0297172Y0086950D03*
X0297122Y0086950D03*
X0297072Y0086950D03*
X0297022Y0086950D03*
X0279522Y0082600D03*
X0279472Y0082600D03*
X0279422Y0082600D03*
X0279372Y0082600D03*
X0279322Y0082600D03*
D27*
X0276722Y0082925D03*
X0276672Y0082925D03*
X0276622Y0082975D03*
X0276572Y0082975D03*
X0276522Y0082975D03*
X0276472Y0083025D03*
X0276422Y0083025D03*
X0276322Y0083075D03*
X0291872Y0089525D03*
X0291922Y0089425D03*
X0291972Y0089375D03*
X0282772Y0095775D03*
X0275272Y0096575D03*
X0287872Y0101525D03*
X0280872Y0104675D03*
X0282522Y0110225D03*
X0282472Y0110275D03*
X0278522Y0119225D03*
X0278472Y0119225D03*
X0278422Y0119225D03*
X0278372Y0119225D03*
X0280872Y0125375D03*
X0286872Y0128725D03*
X0282122Y0130575D03*
X0282122Y0134525D03*
X0287322Y0133475D03*
X0289372Y0134425D03*
X0287322Y0138075D03*
X0287272Y0138075D03*
X0297522Y0116175D03*
X0297572Y0116175D03*
X0297622Y0116175D03*
X0306122Y0107025D03*
X0303822Y0105575D03*
X0303772Y0105575D03*
X0305872Y0101925D03*
X0303822Y0100975D03*
X0298622Y0102025D03*
X0298622Y0098075D03*
X0304222Y0096475D03*
X0315522Y0100025D03*
D28*
X0315472Y0100000D03*
X0305822Y0101950D03*
X0304022Y0100900D03*
X0287922Y0101600D03*
X0280922Y0104650D03*
X0281122Y0113550D03*
X0287872Y0113250D03*
X0289372Y0118200D03*
X0287372Y0121950D03*
X0287322Y0121950D03*
X0280922Y0125350D03*
X0287022Y0128650D03*
X0287522Y0133400D03*
X0289322Y0134450D03*
X0287522Y0138000D03*
X0289372Y0139000D03*
X0297822Y0116150D03*
X0297872Y0116150D03*
X0297922Y0116150D03*
X0282622Y0095900D03*
X0275872Y0083300D03*
X0275772Y0083350D03*
D29*
X0275422Y0083575D03*
X0275372Y0083625D03*
X0289322Y0094575D03*
X0289372Y0094575D03*
X0304072Y0105525D03*
X0304122Y0105525D03*
X0315422Y0099975D03*
X0298372Y0116075D03*
X0298322Y0116075D03*
X0298272Y0116075D03*
X0289322Y0118225D03*
X0287472Y0121925D03*
X0287122Y0128625D03*
X0287672Y0137975D03*
X0289322Y0139025D03*
X0287972Y0113125D03*
X0282272Y0110425D03*
D30*
X0281022Y0104650D03*
X0297722Y0099250D03*
X0305722Y0097400D03*
X0315372Y0099950D03*
X0305972Y0114550D03*
X0298722Y0116000D03*
X0289522Y0123600D03*
X0287272Y0128550D03*
X0289222Y0129900D03*
X0281222Y0131750D03*
X0281022Y0125350D03*
X0287772Y0137950D03*
D31*
X0289222Y0139050D03*
X0289122Y0134500D03*
X0289172Y0129900D03*
X0287322Y0128500D03*
X0287672Y0121850D03*
X0289222Y0118250D03*
X0298822Y0116000D03*
X0298872Y0116000D03*
X0298922Y0116000D03*
X0305972Y0107050D03*
X0305622Y0102000D03*
X0305672Y0097400D03*
X0315322Y0099950D03*
X0289372Y0102750D03*
X0282472Y0096100D03*
X0289522Y0094400D03*
X0275072Y0083950D03*
D32*
X0281122Y0104600D03*
X0283322Y0109450D03*
X0299372Y0115900D03*
X0299422Y0115900D03*
X0299472Y0115900D03*
X0304322Y0116800D03*
X0304372Y0116750D03*
X0304422Y0116650D03*
X0304472Y0116600D03*
X0304522Y0116550D03*
X0305922Y0107050D03*
X0315272Y0099950D03*
X0305572Y0097450D03*
X0281122Y0125300D03*
X0287472Y0128450D03*
X0289072Y0129950D03*
D33*
X0287522Y0128425D03*
X0281172Y0125275D03*
X0299622Y0115875D03*
X0299672Y0115875D03*
X0299722Y0115875D03*
X0303922Y0117125D03*
X0303972Y0117075D03*
X0304622Y0116325D03*
X0305872Y0107075D03*
X0315222Y0099925D03*
X0289272Y0102775D03*
X0281172Y0104575D03*
X0289622Y0094225D03*
X0274772Y0084275D03*
D34*
X0274672Y0084450D03*
X0291622Y0093700D03*
X0291672Y0093700D03*
X0291772Y0093650D03*
X0291822Y0093650D03*
X0291872Y0093650D03*
X0291922Y0093650D03*
X0291972Y0093600D03*
X0292022Y0093600D03*
X0292072Y0093600D03*
X0292122Y0093600D03*
X0292172Y0093600D03*
X0292222Y0093550D03*
X0292272Y0093550D03*
X0292322Y0093550D03*
X0292372Y0093550D03*
X0292472Y0093500D03*
X0292522Y0093500D03*
X0292572Y0093500D03*
X0292622Y0093500D03*
X0292672Y0093450D03*
X0292722Y0093450D03*
X0292772Y0093450D03*
X0292822Y0093450D03*
X0292872Y0093450D03*
X0292922Y0093400D03*
X0292972Y0093400D03*
X0293022Y0093400D03*
X0293072Y0093400D03*
X0293172Y0093350D03*
X0293222Y0093350D03*
X0293272Y0093350D03*
X0293322Y0093350D03*
X0293372Y0093300D03*
X0293422Y0093300D03*
X0293472Y0093300D03*
X0293522Y0093300D03*
X0293572Y0093300D03*
X0293622Y0093250D03*
X0293672Y0093250D03*
X0293722Y0093250D03*
X0293772Y0093250D03*
X0293872Y0093200D03*
X0293922Y0093200D03*
X0293972Y0093200D03*
X0294022Y0093200D03*
X0294072Y0093150D03*
X0294122Y0093150D03*
X0294172Y0093150D03*
X0294222Y0093150D03*
X0294272Y0093150D03*
X0294322Y0093100D03*
X0294372Y0093100D03*
X0294422Y0093100D03*
X0294472Y0093100D03*
X0294572Y0093050D03*
X0294622Y0093050D03*
X0294672Y0093050D03*
X0294722Y0093050D03*
X0294772Y0093000D03*
X0294822Y0093000D03*
X0294872Y0093000D03*
X0294922Y0093000D03*
X0294972Y0093000D03*
X0295022Y0092950D03*
X0295072Y0092950D03*
X0295122Y0092950D03*
X0295172Y0092950D03*
X0295272Y0092900D03*
X0295322Y0092900D03*
X0295372Y0092900D03*
X0295422Y0092900D03*
X0295522Y0092850D03*
X0295572Y0092850D03*
X0295622Y0092850D03*
X0295722Y0092800D03*
X0295772Y0092800D03*
X0295822Y0092800D03*
X0295872Y0092800D03*
X0295972Y0092750D03*
X0296022Y0092750D03*
X0296072Y0092750D03*
X0296122Y0092750D03*
X0296222Y0092700D03*
X0296272Y0092700D03*
X0296322Y0092700D03*
X0296422Y0092650D03*
X0296472Y0092650D03*
X0296522Y0092650D03*
X0296572Y0092650D03*
X0296672Y0092600D03*
X0296722Y0092600D03*
X0296772Y0092600D03*
X0296822Y0092600D03*
X0296922Y0092550D03*
X0296972Y0092550D03*
X0297022Y0092550D03*
X0297122Y0092500D03*
X0297172Y0092500D03*
X0297222Y0092500D03*
X0297272Y0092500D03*
X0297372Y0092450D03*
X0297422Y0092450D03*
X0297472Y0092450D03*
X0297522Y0092450D03*
X0297622Y0092400D03*
X0297672Y0092400D03*
X0297722Y0092400D03*
X0297822Y0092350D03*
X0297872Y0092350D03*
X0297922Y0092350D03*
X0297972Y0092350D03*
X0298072Y0092300D03*
X0298122Y0092300D03*
X0298172Y0092300D03*
X0298222Y0092300D03*
X0298322Y0092250D03*
X0298372Y0092250D03*
X0298422Y0092250D03*
X0298522Y0092200D03*
X0298572Y0092200D03*
X0298622Y0092200D03*
X0298672Y0092200D03*
X0298772Y0092150D03*
X0298822Y0092150D03*
X0298872Y0092150D03*
X0298922Y0092150D03*
X0299022Y0092100D03*
X0299072Y0092100D03*
X0299122Y0092100D03*
X0299222Y0092050D03*
X0299272Y0092050D03*
X0299322Y0092050D03*
X0299372Y0092050D03*
X0299472Y0092000D03*
X0299522Y0092000D03*
X0299572Y0092000D03*
X0299622Y0092000D03*
X0299722Y0091950D03*
X0299772Y0091950D03*
X0299822Y0091950D03*
X0299922Y0091900D03*
X0299972Y0091900D03*
X0300022Y0091900D03*
X0300072Y0091900D03*
X0300172Y0091850D03*
X0300222Y0091850D03*
X0300272Y0091850D03*
X0300322Y0091850D03*
X0300422Y0091800D03*
X0300472Y0091800D03*
X0300522Y0091800D03*
X0300622Y0091750D03*
X0300672Y0091750D03*
X0300722Y0091750D03*
X0300772Y0091750D03*
X0300872Y0091700D03*
X0300922Y0091700D03*
X0300972Y0091700D03*
X0301022Y0091700D03*
X0301122Y0091650D03*
X0301172Y0091650D03*
X0301222Y0091650D03*
X0301322Y0091600D03*
X0301372Y0091600D03*
X0301422Y0091600D03*
X0301472Y0091600D03*
X0301572Y0091550D03*
X0301622Y0091550D03*
X0301672Y0091550D03*
X0301722Y0091550D03*
X0301822Y0091500D03*
X0301872Y0091500D03*
X0301922Y0091500D03*
X0302022Y0091450D03*
X0302072Y0091450D03*
X0302122Y0091450D03*
X0302172Y0091450D03*
X0302272Y0091400D03*
X0302322Y0091400D03*
X0302372Y0091400D03*
X0302522Y0091350D03*
X0302572Y0091350D03*
X0302622Y0091350D03*
X0302722Y0091300D03*
X0302772Y0091300D03*
X0302822Y0091300D03*
X0302872Y0091300D03*
X0302972Y0091250D03*
X0303022Y0091250D03*
X0303072Y0091250D03*
X0303222Y0091200D03*
X0303272Y0091200D03*
X0303322Y0091200D03*
X0303472Y0091150D03*
X0303522Y0091150D03*
X0303572Y0091150D03*
X0303672Y0091100D03*
X0303722Y0091100D03*
X0303772Y0091100D03*
X0303922Y0091050D03*
X0303972Y0091050D03*
X0304022Y0091050D03*
X0304172Y0091000D03*
X0304222Y0091000D03*
X0304272Y0091000D03*
X0304372Y0090950D03*
X0304422Y0090950D03*
X0304472Y0090950D03*
X0304622Y0090900D03*
X0304672Y0090900D03*
X0304722Y0090900D03*
X0304872Y0090850D03*
X0304922Y0090850D03*
X0304972Y0090850D03*
X0305072Y0090800D03*
X0305122Y0090800D03*
X0305172Y0090800D03*
X0305322Y0090750D03*
X0305372Y0090750D03*
X0305422Y0090750D03*
X0305572Y0090700D03*
X0305622Y0090700D03*
X0305672Y0090700D03*
X0305772Y0090650D03*
X0305822Y0090650D03*
X0305872Y0090650D03*
X0306022Y0090600D03*
X0306072Y0090600D03*
X0306122Y0090600D03*
X0306272Y0090550D03*
X0306322Y0090550D03*
X0306372Y0090550D03*
X0306472Y0090500D03*
X0306522Y0090500D03*
X0306572Y0090500D03*
X0306722Y0090450D03*
X0306772Y0090450D03*
X0306822Y0090450D03*
X0306972Y0090400D03*
X0307022Y0090400D03*
X0307072Y0090400D03*
X0307172Y0090350D03*
X0307222Y0090350D03*
X0307272Y0090350D03*
X0307422Y0090300D03*
X0307472Y0090300D03*
X0307522Y0090300D03*
X0307672Y0090250D03*
X0307722Y0090250D03*
X0307772Y0090250D03*
X0307872Y0090200D03*
X0307922Y0090200D03*
X0307972Y0090200D03*
X0308122Y0090150D03*
X0308172Y0090150D03*
X0308222Y0090150D03*
X0315172Y0099900D03*
X0305272Y0102100D03*
X0305822Y0107100D03*
X0303722Y0117250D03*
X0287622Y0128400D03*
X0288772Y0134600D03*
X0281222Y0104550D03*
D35*
X0281322Y0104525D03*
X0289722Y0094025D03*
X0305122Y0102125D03*
X0305172Y0102125D03*
X0305322Y0097475D03*
X0315122Y0099875D03*
X0305772Y0107125D03*
X0305722Y0114625D03*
X0304672Y0116125D03*
X0288822Y0118375D03*
X0281322Y0125225D03*
X0288822Y0129975D03*
X0288672Y0134625D03*
X0288622Y0134625D03*
X0288822Y0139175D03*
D36*
X0288772Y0139175D03*
X0288722Y0129975D03*
X0287722Y0128325D03*
X0281372Y0125225D03*
X0288772Y0118375D03*
X0305722Y0107125D03*
X0305072Y0102125D03*
X0305222Y0097475D03*
X0315072Y0099825D03*
X0281372Y0104525D03*
D37*
X0289072Y0102825D03*
X0315022Y0099825D03*
D38*
X0314972Y0099800D03*
X0305622Y0107150D03*
X0305572Y0114650D03*
X0288572Y0118400D03*
X0281522Y0125150D03*
X0288972Y0102850D03*
X0271672Y0090450D03*
D39*
X0289922Y0093725D03*
X0314922Y0099775D03*
X0289122Y0123725D03*
X0281622Y0125125D03*
D40*
X0281672Y0125100D03*
X0305472Y0114650D03*
X0305522Y0107150D03*
X0314872Y0099750D03*
X0288872Y0102850D03*
X0281622Y0104450D03*
D41*
X0281672Y0104425D03*
X0275022Y0096325D03*
X0274422Y0085075D03*
X0308622Y0090475D03*
X0314822Y0099725D03*
X0289022Y0123775D03*
D42*
X0281772Y0104375D03*
X0288722Y0102875D03*
X0314772Y0099725D03*
D43*
X0314722Y0099700D03*
X0305322Y0107250D03*
X0305272Y0114700D03*
X0288922Y0123800D03*
X0281872Y0104350D03*
X0288622Y0102900D03*
X0290122Y0093450D03*
D44*
X0274972Y0096275D03*
X0297472Y0108225D03*
X0314672Y0099675D03*
X0308722Y0090575D03*
D45*
X0314622Y0099650D03*
D46*
X0314572Y0099650D03*
X0308822Y0090700D03*
X0288422Y0102950D03*
X0297622Y0108300D03*
X0305122Y0107300D03*
X0288772Y0123850D03*
D47*
X0288722Y0123850D03*
X0297722Y0108350D03*
X0305072Y0107300D03*
X0288372Y0102950D03*
X0274922Y0096200D03*
X0308872Y0090750D03*
X0314522Y0099600D03*
D48*
X0314472Y0099600D03*
X0310972Y0094800D03*
X0310922Y0094700D03*
X0310872Y0094600D03*
X0310822Y0094500D03*
X0310772Y0094400D03*
X0310722Y0094300D03*
X0310672Y0094200D03*
X0310622Y0094100D03*
X0310572Y0094000D03*
X0310522Y0093900D03*
X0310472Y0093800D03*
X0310422Y0093700D03*
X0310372Y0093600D03*
X0308922Y0090800D03*
X0290372Y0093150D03*
X0288272Y0102950D03*
X0288672Y0123900D03*
D49*
X0288622Y0123900D03*
X0297922Y0108400D03*
X0288172Y0102950D03*
X0290422Y0093100D03*
X0310222Y0093250D03*
X0310272Y0093350D03*
X0311022Y0094900D03*
X0311072Y0095000D03*
X0314422Y0099550D03*
D50*
X0314372Y0099550D03*
X0311172Y0095200D03*
X0290472Y0093050D03*
X0281472Y0097500D03*
X0274872Y0096100D03*
X0271772Y0090550D03*
X0288022Y0103000D03*
X0288072Y0103000D03*
X0298022Y0108400D03*
D51*
X0298172Y0108450D03*
X0289472Y0110250D03*
X0287972Y0103000D03*
X0281672Y0097500D03*
X0281622Y0097500D03*
X0281572Y0097500D03*
X0281522Y0097500D03*
X0290522Y0093000D03*
X0291822Y0088150D03*
X0311272Y0095450D03*
X0314322Y0099500D03*
X0304922Y0114900D03*
X0287922Y0138950D03*
D52*
X0289372Y0110350D03*
X0284172Y0108100D03*
X0284122Y0108100D03*
X0284072Y0108100D03*
X0298272Y0108450D03*
X0314272Y0099500D03*
X0311322Y0095550D03*
X0281972Y0097500D03*
X0281922Y0097500D03*
X0281872Y0097500D03*
X0281822Y0097500D03*
X0281772Y0097500D03*
D53*
X0290622Y0092875D03*
X0291722Y0088225D03*
X0309122Y0090975D03*
X0311372Y0095675D03*
X0314222Y0099475D03*
X0298422Y0108475D03*
X0298372Y0108475D03*
X0298322Y0108475D03*
X0304822Y0114925D03*
D54*
X0304722Y0115000D03*
X0298672Y0108500D03*
X0298622Y0108500D03*
X0289272Y0110450D03*
X0283572Y0108150D03*
X0283522Y0108150D03*
X0283472Y0108150D03*
X0283422Y0108150D03*
X0283372Y0108150D03*
X0281272Y0112150D03*
X0297822Y0100550D03*
X0311472Y0095900D03*
X0314172Y0099450D03*
X0309172Y0091000D03*
X0281322Y0133050D03*
D55*
X0289222Y0110475D03*
X0314122Y0099425D03*
D56*
X0314072Y0099425D03*
X0297922Y0100475D03*
X0289122Y0110575D03*
X0281422Y0112175D03*
X0281422Y0132975D03*
D57*
X0289022Y0110625D03*
X0314022Y0099375D03*
D58*
X0313972Y0099375D03*
X0298122Y0100325D03*
X0288922Y0110725D03*
X0281672Y0112225D03*
X0281622Y0112225D03*
X0281622Y0132825D03*
D59*
X0281672Y0132800D03*
X0281722Y0112250D03*
X0281772Y0112250D03*
X0288872Y0110750D03*
X0298172Y0100300D03*
X0309372Y0091200D03*
X0313922Y0099350D03*
D60*
X0313872Y0099325D03*
X0311622Y0096375D03*
X0309422Y0091225D03*
X0298372Y0100175D03*
X0288722Y0110825D03*
X0288672Y0110875D03*
X0281972Y0112275D03*
X0281922Y0112275D03*
X0281872Y0132675D03*
D61*
X0281922Y0132650D03*
X0281972Y0132600D03*
X0282022Y0112250D03*
X0288572Y0110900D03*
X0288622Y0110900D03*
X0298422Y0100150D03*
X0298472Y0100100D03*
X0313822Y0099300D03*
D62*
X0313772Y0099275D03*
X0309472Y0091275D03*
X0288522Y0110925D03*
X0288472Y0110975D03*
X0282172Y0112275D03*
X0282122Y0112275D03*
X0282072Y0112275D03*
D63*
X0288372Y0111025D03*
X0313722Y0099275D03*
X0309522Y0091325D03*
D64*
X0309572Y0091375D03*
X0313672Y0099225D03*
X0304422Y0107025D03*
X0288172Y0111125D03*
X0288122Y0111125D03*
D65*
X0288072Y0111150D03*
X0313622Y0099200D03*
D66*
X0313572Y0099200D03*
D67*
X0313522Y0099150D03*
X0304472Y0106900D03*
D68*
X0313472Y0099150D03*
D69*
X0313422Y0099125D03*
X0309772Y0091525D03*
D70*
X0313372Y0099100D03*
X0271922Y0090700D03*
D71*
X0304422Y0098875D03*
X0313322Y0099075D03*
D72*
X0313272Y0099050D03*
X0309872Y0091600D03*
X0287872Y0119900D03*
D73*
X0313222Y0099025D03*
D74*
X0313172Y0098975D03*
X0287972Y0119975D03*
D75*
X0288022Y0120025D03*
X0313122Y0098975D03*
D76*
X0313072Y0098950D03*
X0271972Y0090750D03*
D77*
X0313022Y0098925D03*
D78*
X0312972Y0098900D03*
D79*
X0312922Y0098875D03*
D80*
X0312872Y0098850D03*
D81*
X0312822Y0098800D03*
D82*
X0312772Y0098775D03*
D83*
X0312722Y0098775D03*
D84*
X0312672Y0098750D03*
X0272022Y0090900D03*
D85*
X0312622Y0098700D03*
D86*
X0312572Y0098675D03*
D87*
X0312522Y0098650D03*
D88*
X0312472Y0098625D03*
X0288572Y0136975D03*
D89*
X0312422Y0098600D03*
D90*
X0312372Y0098575D03*
D91*
X0312322Y0098550D03*
D92*
X0312272Y0098500D03*
D93*
X0312222Y0098500D03*
D94*
X0312172Y0098475D03*
D95*
X0312122Y0098450D03*
X0287922Y0130500D03*
D96*
X0312072Y0098400D03*
D97*
X0312022Y0098375D03*
D98*
X0311972Y0098325D03*
D99*
X0311922Y0098300D03*
D100*
X0311872Y0098275D03*
D101*
X0311822Y0098250D03*
D102*
X0311772Y0098225D03*
D103*
X0311722Y0098175D03*
D104*
X0311672Y0096600D03*
X0304372Y0107100D03*
X0288322Y0111050D03*
X0288272Y0111050D03*
X0288222Y0111100D03*
X0271872Y0090600D03*
D105*
X0281172Y0083400D03*
X0282972Y0099350D03*
X0281922Y0106050D03*
X0282822Y0106250D03*
X0286672Y0105750D03*
X0286772Y0105700D03*
X0286872Y0105650D03*
X0286972Y0105600D03*
X0287072Y0105550D03*
X0287172Y0105500D03*
X0287222Y0105450D03*
X0287272Y0105450D03*
X0289772Y0111550D03*
X0302672Y0113150D03*
X0303922Y0112650D03*
X0304672Y0112750D03*
X0311672Y0102300D03*
X0279672Y0119200D03*
X0277272Y0119200D03*
D106*
X0279872Y0119175D03*
X0283472Y0126525D03*
X0287672Y0141475D03*
X0287622Y0141525D03*
X0306372Y0114425D03*
X0304272Y0112375D03*
X0304222Y0112375D03*
X0304122Y0112325D03*
X0304072Y0112325D03*
X0304022Y0112325D03*
X0311622Y0102625D03*
X0299072Y0088075D03*
X0281372Y0083725D03*
D107*
X0309322Y0091150D03*
X0311572Y0096200D03*
X0298072Y0100350D03*
X0288972Y0110650D03*
X0281572Y0112200D03*
X0281572Y0132850D03*
D108*
X0289872Y0138850D03*
X0287022Y0141900D03*
X0286972Y0141900D03*
X0286922Y0141950D03*
X0286872Y0141950D03*
X0286772Y0142000D03*
X0286622Y0142050D03*
X0286472Y0142100D03*
X0283572Y0126550D03*
X0289872Y0118050D03*
X0280622Y0113600D03*
X0289872Y0111450D03*
X0297172Y0109650D03*
X0299872Y0114300D03*
X0299922Y0114300D03*
X0300072Y0114250D03*
X0303072Y0119300D03*
X0303022Y0119350D03*
X0302972Y0119400D03*
X0311572Y0102750D03*
X0283472Y0099250D03*
D109*
X0297872Y0100500D03*
X0311522Y0096050D03*
X0309222Y0091050D03*
X0289172Y0110550D03*
X0281372Y0112150D03*
X0281322Y0112150D03*
X0281372Y0133000D03*
D110*
X0311522Y0102875D03*
X0283522Y0099225D03*
D111*
X0283572Y0099225D03*
X0311472Y0102975D03*
D112*
X0311422Y0095800D03*
X0310022Y0092650D03*
X0291672Y0088300D03*
X0282422Y0097450D03*
X0282372Y0097450D03*
X0282172Y0097500D03*
X0282122Y0097500D03*
X0282072Y0097500D03*
X0282022Y0097500D03*
X0283822Y0108100D03*
X0283872Y0108100D03*
X0283922Y0108100D03*
X0283972Y0108100D03*
X0284022Y0108100D03*
X0289322Y0110400D03*
X0298472Y0108500D03*
D113*
X0311422Y0103075D03*
X0280672Y0099225D03*
X0281472Y0084175D03*
D114*
X0311372Y0103175D03*
D115*
X0311322Y0103275D03*
X0306422Y0101725D03*
X0306422Y0097375D03*
X0306422Y0106875D03*
X0289922Y0111475D03*
X0296572Y0117675D03*
X0289922Y0123525D03*
X0289922Y0129875D03*
X0289922Y0134225D03*
D116*
X0287872Y0139025D03*
X0288522Y0123925D03*
X0298072Y0108425D03*
X0298122Y0108425D03*
X0311222Y0095325D03*
X0310122Y0092975D03*
X0309022Y0090875D03*
D117*
X0308972Y0090825D03*
X0310172Y0093125D03*
X0311122Y0095125D03*
X0288122Y0102975D03*
X0297972Y0108425D03*
X0304972Y0114875D03*
X0288572Y0123925D03*
D118*
X0305022Y0114825D03*
X0297872Y0108375D03*
X0297822Y0108375D03*
X0288222Y0102975D03*
X0310322Y0093475D03*
D119*
X0310072Y0092825D03*
X0309072Y0090925D03*
X0291772Y0088175D03*
X0290572Y0092925D03*
X0281722Y0097525D03*
X0284222Y0108125D03*
X0284272Y0108125D03*
X0289422Y0110325D03*
X0298222Y0108475D03*
X0304872Y0114925D03*
D120*
X0289072Y0110600D03*
X0281522Y0112200D03*
X0281472Y0112200D03*
X0297972Y0100450D03*
X0298022Y0100400D03*
X0309972Y0092450D03*
X0309272Y0091100D03*
X0271822Y0090600D03*
X0281522Y0132900D03*
X0281472Y0132950D03*
D121*
X0287922Y0119950D03*
X0309922Y0091650D03*
D122*
X0309822Y0091575D03*
D123*
X0309722Y0091475D03*
D124*
X0309672Y0091425D03*
D125*
X0309622Y0091425D03*
D126*
X0308772Y0090625D03*
X0290172Y0093375D03*
X0288522Y0102925D03*
X0297522Y0108275D03*
X0305222Y0107275D03*
X0305222Y0114725D03*
X0288872Y0123825D03*
D127*
X0288972Y0123800D03*
X0305372Y0107200D03*
X0308672Y0090550D03*
D128*
X0308572Y0090425D03*
X0289072Y0123775D03*
D129*
X0281572Y0125150D03*
X0305522Y0114650D03*
X0305572Y0107150D03*
X0288922Y0102850D03*
X0281572Y0104450D03*
X0308522Y0090350D03*
X0274472Y0084900D03*
D130*
X0274522Y0084750D03*
X0305072Y0097500D03*
X0305122Y0097500D03*
X0308472Y0090300D03*
X0281422Y0104500D03*
X0288622Y0118400D03*
X0288672Y0118400D03*
X0289222Y0123700D03*
X0287772Y0128350D03*
X0288572Y0130000D03*
X0288622Y0130000D03*
X0288622Y0139200D03*
X0288672Y0139200D03*
X0305622Y0114600D03*
X0305672Y0107150D03*
D131*
X0289122Y0102800D03*
X0305272Y0097500D03*
X0308422Y0090200D03*
X0274572Y0084650D03*
X0288772Y0130000D03*
D132*
X0288872Y0129975D03*
X0281272Y0125225D03*
X0288922Y0118325D03*
X0303672Y0117275D03*
X0305772Y0114625D03*
X0305372Y0097475D03*
X0304122Y0091025D03*
X0304072Y0091025D03*
X0303872Y0091075D03*
X0303822Y0091075D03*
X0303622Y0091125D03*
X0303422Y0091175D03*
X0303372Y0091175D03*
X0303172Y0091225D03*
X0303122Y0091225D03*
X0302922Y0091275D03*
X0302672Y0091325D03*
X0302472Y0091375D03*
X0302422Y0091375D03*
X0302222Y0091425D03*
X0301972Y0091475D03*
X0301772Y0091525D03*
X0301522Y0091575D03*
X0301272Y0091625D03*
X0301072Y0091675D03*
X0300822Y0091725D03*
X0300572Y0091775D03*
X0300372Y0091825D03*
X0300122Y0091875D03*
X0299872Y0091925D03*
X0299672Y0091975D03*
X0299422Y0092025D03*
X0299172Y0092075D03*
X0298972Y0092125D03*
X0298722Y0092175D03*
X0298472Y0092225D03*
X0298272Y0092275D03*
X0298022Y0092325D03*
X0297772Y0092375D03*
X0297572Y0092425D03*
X0297322Y0092475D03*
X0297072Y0092525D03*
X0296872Y0092575D03*
X0296622Y0092625D03*
X0296372Y0092675D03*
X0296172Y0092725D03*
X0295922Y0092775D03*
X0295672Y0092825D03*
X0295472Y0092875D03*
X0295222Y0092925D03*
X0294522Y0093075D03*
X0293822Y0093225D03*
X0293122Y0093375D03*
X0292422Y0093525D03*
X0291722Y0093675D03*
X0286522Y0088375D03*
X0286472Y0088375D03*
X0286422Y0088375D03*
X0286372Y0088375D03*
X0286322Y0088425D03*
X0286272Y0088425D03*
X0286222Y0088425D03*
X0286172Y0088425D03*
X0286072Y0088475D03*
X0286022Y0088475D03*
X0285972Y0088475D03*
X0285922Y0088475D03*
X0285822Y0088525D03*
X0285772Y0088525D03*
X0285722Y0088525D03*
X0285672Y0088525D03*
X0285622Y0088575D03*
X0285572Y0088575D03*
X0285522Y0088575D03*
X0285472Y0088575D03*
X0285372Y0088625D03*
X0285322Y0088625D03*
X0285272Y0088625D03*
X0285222Y0088625D03*
X0285122Y0088675D03*
X0285072Y0088675D03*
X0285022Y0088675D03*
X0284972Y0088675D03*
X0284922Y0088725D03*
X0284872Y0088725D03*
X0284822Y0088725D03*
X0284772Y0088725D03*
X0284672Y0088775D03*
X0284622Y0088775D03*
X0284572Y0088775D03*
X0284522Y0088775D03*
X0284422Y0088825D03*
X0284372Y0088825D03*
X0284322Y0088825D03*
X0284272Y0088825D03*
X0284222Y0088875D03*
X0284172Y0088875D03*
X0284122Y0088875D03*
X0284072Y0088875D03*
X0283972Y0088925D03*
X0283922Y0088925D03*
X0283872Y0088925D03*
X0283822Y0088925D03*
X0283722Y0088975D03*
X0283672Y0088975D03*
X0283622Y0088975D03*
X0283572Y0088975D03*
X0283522Y0089025D03*
X0283472Y0089025D03*
X0283422Y0089025D03*
X0283372Y0089025D03*
X0283272Y0089075D03*
X0283222Y0089075D03*
X0283172Y0089075D03*
X0283122Y0089075D03*
X0283022Y0089125D03*
X0282972Y0089125D03*
X0282922Y0089125D03*
X0282872Y0089125D03*
X0282822Y0089175D03*
X0282772Y0089175D03*
X0282722Y0089175D03*
X0282672Y0089175D03*
X0282572Y0089225D03*
X0282522Y0089225D03*
X0282472Y0089225D03*
X0282422Y0089225D03*
X0282322Y0089275D03*
X0282272Y0089275D03*
X0282222Y0089275D03*
X0282172Y0089275D03*
X0282122Y0089325D03*
X0282072Y0089325D03*
X0282022Y0089325D03*
X0281972Y0089325D03*
X0281872Y0089375D03*
X0281822Y0089375D03*
X0281772Y0089375D03*
X0281722Y0089375D03*
X0281622Y0089425D03*
X0281572Y0089425D03*
X0281522Y0089425D03*
X0281472Y0089425D03*
X0281422Y0089475D03*
X0281372Y0089475D03*
X0281322Y0089475D03*
X0281272Y0089475D03*
X0281172Y0089525D03*
X0281122Y0089525D03*
X0281072Y0089525D03*
X0281022Y0089525D03*
X0280922Y0089575D03*
X0280872Y0089575D03*
X0280822Y0089575D03*
X0280772Y0089575D03*
X0280722Y0089625D03*
X0280672Y0089625D03*
X0280622Y0089625D03*
X0280572Y0089625D03*
X0280472Y0089675D03*
X0280422Y0089675D03*
X0280372Y0089675D03*
X0280322Y0089675D03*
X0280222Y0089725D03*
X0280172Y0089725D03*
X0280122Y0089725D03*
X0280072Y0089725D03*
X0280022Y0089775D03*
X0279972Y0089775D03*
X0279922Y0089775D03*
X0279872Y0089775D03*
X0279772Y0089825D03*
X0279722Y0089825D03*
X0279672Y0089825D03*
X0279622Y0089825D03*
X0279522Y0089875D03*
X0279472Y0089875D03*
X0279422Y0089875D03*
X0279322Y0089925D03*
X0279272Y0089925D03*
X0279222Y0089925D03*
X0279172Y0089925D03*
X0279072Y0089975D03*
X0279022Y0089975D03*
X0278972Y0089975D03*
X0278922Y0089975D03*
X0278822Y0090025D03*
X0278772Y0090025D03*
X0278722Y0090025D03*
X0278622Y0090075D03*
X0278572Y0090075D03*
X0278522Y0090075D03*
X0278472Y0090075D03*
X0278372Y0090125D03*
X0278322Y0090125D03*
X0278272Y0090125D03*
X0278222Y0090125D03*
X0278122Y0090175D03*
X0278072Y0090175D03*
X0278022Y0090175D03*
X0277872Y0090225D03*
X0277822Y0090225D03*
X0277772Y0090225D03*
X0277672Y0090275D03*
X0277622Y0090275D03*
X0277572Y0090275D03*
X0277522Y0090275D03*
X0277422Y0090325D03*
X0277372Y0090325D03*
X0277322Y0090325D03*
X0277172Y0090375D03*
X0277122Y0090375D03*
X0277072Y0090375D03*
X0276972Y0090425D03*
X0276922Y0090425D03*
X0276872Y0090425D03*
X0276822Y0090425D03*
X0276722Y0090475D03*
X0276672Y0090475D03*
X0276622Y0090475D03*
X0276472Y0090525D03*
X0276422Y0090525D03*
X0276372Y0090525D03*
X0276272Y0090575D03*
X0276222Y0090575D03*
X0276172Y0090575D03*
X0276122Y0090575D03*
X0276022Y0090625D03*
X0275972Y0090625D03*
X0275922Y0090625D03*
X0275772Y0090675D03*
X0275722Y0090675D03*
X0275672Y0090675D03*
X0275572Y0090725D03*
X0275522Y0090725D03*
X0275472Y0090725D03*
X0275422Y0090725D03*
X0275322Y0090775D03*
X0275272Y0090775D03*
X0275222Y0090775D03*
X0275072Y0090825D03*
X0275022Y0090825D03*
X0274972Y0090825D03*
X0274872Y0090875D03*
X0286622Y0088325D03*
X0286672Y0088325D03*
X0286722Y0088325D03*
X0286772Y0088325D03*
X0286872Y0088275D03*
X0286922Y0088275D03*
X0286972Y0088275D03*
X0287022Y0088275D03*
X0287072Y0088225D03*
X0287122Y0088225D03*
X0287172Y0088225D03*
X0287222Y0088225D03*
X0287322Y0088175D03*
X0287372Y0088175D03*
X0287422Y0088175D03*
X0287472Y0088175D03*
X0287572Y0088125D03*
X0287622Y0088125D03*
X0287672Y0088125D03*
X0287722Y0088125D03*
X0287772Y0088075D03*
X0287822Y0088075D03*
X0287872Y0088075D03*
X0287922Y0088075D03*
X0288022Y0088025D03*
X0288072Y0088025D03*
X0288122Y0088025D03*
X0288172Y0088025D03*
X0288272Y0087975D03*
X0288322Y0087975D03*
X0288372Y0087975D03*
X0288422Y0087975D03*
X0288472Y0087925D03*
X0288522Y0087925D03*
X0288572Y0087925D03*
X0288622Y0087925D03*
X0288672Y0087925D03*
X0288722Y0087875D03*
X0288772Y0087875D03*
X0288822Y0087875D03*
X0288872Y0087875D03*
X0288972Y0087825D03*
X0289022Y0087825D03*
X0289072Y0087825D03*
X0289122Y0087825D03*
X0289172Y0087775D03*
X0289222Y0087775D03*
X0289272Y0087775D03*
X0289322Y0087775D03*
X0289372Y0087775D03*
X0289422Y0087725D03*
X0289472Y0087725D03*
X0289522Y0087725D03*
X0289572Y0087725D03*
X0289672Y0087675D03*
X0289722Y0087675D03*
X0289772Y0087675D03*
X0289822Y0087675D03*
X0289872Y0087625D03*
X0289922Y0087625D03*
X0289972Y0087625D03*
X0290022Y0087625D03*
X0290072Y0087625D03*
X0290122Y0087575D03*
X0290172Y0087575D03*
X0290222Y0087575D03*
X0290272Y0087575D03*
X0290372Y0087525D03*
X0290422Y0087525D03*
X0290472Y0087525D03*
X0290522Y0087525D03*
X0290572Y0087475D03*
X0290622Y0087475D03*
X0304322Y0090975D03*
X0304522Y0090925D03*
X0304572Y0090925D03*
X0304772Y0090875D03*
X0304822Y0090875D03*
X0305022Y0090825D03*
X0305222Y0090775D03*
X0305272Y0090775D03*
X0305472Y0090725D03*
X0305522Y0090725D03*
X0305722Y0090675D03*
X0305922Y0090625D03*
X0305972Y0090625D03*
X0306172Y0090575D03*
X0306222Y0090575D03*
X0306422Y0090525D03*
X0306622Y0090475D03*
X0306672Y0090475D03*
X0306872Y0090425D03*
X0306922Y0090425D03*
X0307122Y0090375D03*
X0307322Y0090325D03*
X0307372Y0090325D03*
X0307572Y0090275D03*
X0307622Y0090275D03*
X0307822Y0090225D03*
X0308022Y0090175D03*
X0308072Y0090175D03*
X0308272Y0090125D03*
X0308322Y0090125D03*
X0308372Y0090125D03*
X0288922Y0139125D03*
D133*
X0289922Y0138800D03*
X0289922Y0118000D03*
X0306422Y0114400D03*
D134*
X0299822Y0114325D03*
X0299772Y0114325D03*
X0306372Y0101775D03*
X0306372Y0097375D03*
X0299122Y0088225D03*
X0281422Y0083875D03*
X0289872Y0129875D03*
X0289872Y0134275D03*
X0277222Y0141175D03*
X0286322Y0142125D03*
X0286372Y0142125D03*
X0286422Y0142125D03*
X0286522Y0142075D03*
X0286572Y0142075D03*
X0286672Y0142025D03*
X0286722Y0142025D03*
X0286822Y0141975D03*
D135*
X0287722Y0141425D03*
X0289822Y0134275D03*
X0289822Y0129875D03*
X0280572Y0125475D03*
X0302372Y0113175D03*
X0304422Y0112425D03*
X0297222Y0109675D03*
X0306322Y0101775D03*
X0306322Y0097375D03*
X0283372Y0099275D03*
X0280822Y0099175D03*
X0280572Y0104775D03*
D136*
X0285572Y0106100D03*
X0285622Y0106100D03*
X0285772Y0106050D03*
X0285822Y0106050D03*
X0285922Y0106000D03*
X0285972Y0106000D03*
X0286072Y0105950D03*
X0286122Y0105950D03*
X0286172Y0105900D03*
X0286222Y0105900D03*
X0286272Y0105900D03*
X0286372Y0105850D03*
X0286422Y0105850D03*
X0286522Y0105800D03*
X0283072Y0099350D03*
X0302572Y0113150D03*
X0303972Y0112600D03*
X0306322Y0106950D03*
X0296822Y0116800D03*
X0280622Y0125450D03*
D137*
X0279722Y0119175D03*
X0289822Y0123575D03*
X0289772Y0129875D03*
X0280722Y0113625D03*
X0282722Y0106325D03*
X0284572Y0106275D03*
X0284972Y0106225D03*
X0285022Y0106225D03*
X0285222Y0106175D03*
X0285272Y0106175D03*
X0285322Y0106175D03*
X0285372Y0106125D03*
X0285422Y0106125D03*
X0285472Y0106125D03*
X0285522Y0106125D03*
X0285672Y0106075D03*
X0285722Y0106075D03*
X0285872Y0106025D03*
X0286022Y0105975D03*
X0289772Y0102775D03*
X0283122Y0099375D03*
X0280922Y0099125D03*
X0280622Y0104775D03*
X0306272Y0097375D03*
X0298922Y0087825D03*
X0281222Y0083475D03*
D138*
X0283222Y0099325D03*
X0282022Y0106175D03*
X0282072Y0106225D03*
X0282122Y0106225D03*
X0282172Y0106225D03*
X0282222Y0106275D03*
X0282272Y0106275D03*
X0282472Y0106325D03*
X0282522Y0106325D03*
X0282572Y0106325D03*
X0282622Y0106325D03*
X0282672Y0106325D03*
X0297272Y0109675D03*
X0306272Y0101775D03*
X0281872Y0126725D03*
X0289772Y0134275D03*
D139*
X0306272Y0114475D03*
X0303772Y0112775D03*
X0302822Y0113075D03*
X0302172Y0110575D03*
X0302122Y0110575D03*
X0301972Y0110625D03*
X0301922Y0110625D03*
X0301872Y0110625D03*
X0301722Y0110675D03*
X0301672Y0110675D03*
X0301522Y0110725D03*
X0301472Y0110725D03*
X0301422Y0110725D03*
X0301372Y0110725D03*
X0301272Y0110775D03*
X0301222Y0110775D03*
X0301172Y0110775D03*
X0301122Y0110775D03*
X0301072Y0110775D03*
X0301022Y0110775D03*
X0300972Y0110775D03*
X0300872Y0110825D03*
X0300822Y0110825D03*
X0300772Y0110825D03*
X0300722Y0110825D03*
X0300672Y0110825D03*
X0300622Y0110825D03*
X0300572Y0110825D03*
X0300522Y0110825D03*
X0300472Y0110825D03*
X0300422Y0110825D03*
X0300372Y0110825D03*
X0300322Y0110825D03*
X0300272Y0110825D03*
X0300122Y0110825D03*
X0300072Y0110825D03*
X0300022Y0110825D03*
X0299972Y0110825D03*
X0299922Y0110825D03*
X0299872Y0110825D03*
X0299822Y0110825D03*
X0299772Y0110825D03*
X0299722Y0110825D03*
X0299672Y0110825D03*
X0299622Y0110825D03*
X0299472Y0110775D03*
X0302322Y0110525D03*
X0287722Y0105125D03*
X0287672Y0105175D03*
X0287622Y0105225D03*
X0283072Y0106175D03*
X0283022Y0106175D03*
X0280772Y0113575D03*
X0281072Y0083275D03*
D140*
X0275372Y0096725D03*
X0280972Y0099125D03*
X0282922Y0099375D03*
X0282922Y0106225D03*
X0282872Y0106225D03*
X0287322Y0105425D03*
X0287372Y0105375D03*
X0287422Y0105375D03*
X0287472Y0105325D03*
X0302722Y0113125D03*
X0303872Y0112675D03*
X0306222Y0101825D03*
X0306222Y0097375D03*
X0289722Y0129875D03*
X0289722Y0134325D03*
X0277372Y0140625D03*
D141*
X0289722Y0123550D03*
X0296922Y0116450D03*
X0304322Y0109450D03*
X0306222Y0106950D03*
X0284422Y0106450D03*
X0275322Y0096650D03*
X0271572Y0090400D03*
X0280472Y0082850D03*
X0298122Y0087200D03*
X0298172Y0087200D03*
X0279372Y0119200D03*
X0279322Y0119200D03*
X0277622Y0119200D03*
D142*
X0280672Y0118725D03*
X0280722Y0118725D03*
X0280872Y0118675D03*
X0280922Y0118675D03*
X0280972Y0118675D03*
X0281122Y0118625D03*
X0281172Y0118625D03*
X0281222Y0118625D03*
X0281372Y0118575D03*
X0281422Y0118575D03*
X0281472Y0118575D03*
X0281622Y0118525D03*
X0281672Y0118525D03*
X0281822Y0118475D03*
X0281872Y0118475D03*
X0281922Y0118475D03*
X0282072Y0118425D03*
X0282122Y0118425D03*
X0282172Y0118425D03*
X0282322Y0118375D03*
X0282372Y0118375D03*
X0282572Y0118325D03*
X0282622Y0118325D03*
X0282822Y0118275D03*
X0282872Y0118275D03*
X0283072Y0118225D03*
X0283122Y0118225D03*
X0283322Y0118175D03*
X0283522Y0118125D03*
X0283572Y0118125D03*
X0283772Y0118075D03*
X0283822Y0118075D03*
X0284022Y0118025D03*
X0284272Y0117975D03*
X0284522Y0117925D03*
X0284772Y0117875D03*
X0285222Y0117775D03*
X0285472Y0117725D03*
X0285722Y0117675D03*
X0286722Y0117475D03*
X0286972Y0117425D03*
X0287022Y0117425D03*
X0289522Y0118175D03*
X0286522Y0114075D03*
X0286422Y0114125D03*
X0286372Y0114125D03*
X0286272Y0114175D03*
X0286222Y0114175D03*
X0286122Y0114225D03*
X0286072Y0114225D03*
X0286022Y0114225D03*
X0285922Y0114275D03*
X0285872Y0114275D03*
X0285822Y0114275D03*
X0285772Y0114325D03*
X0285722Y0114325D03*
X0285672Y0114325D03*
X0285572Y0114375D03*
X0285522Y0114375D03*
X0285472Y0114375D03*
X0285322Y0114425D03*
X0285272Y0114425D03*
X0284972Y0114475D03*
X0282522Y0114475D03*
X0282472Y0114475D03*
X0282372Y0114425D03*
X0281022Y0110425D03*
X0280972Y0110425D03*
X0280922Y0110425D03*
X0280872Y0110425D03*
X0280822Y0110425D03*
X0280772Y0110475D03*
X0280722Y0110475D03*
X0280672Y0110475D03*
X0280622Y0110475D03*
X0280572Y0110525D03*
X0280522Y0110525D03*
X0280472Y0110525D03*
X0280422Y0110525D03*
X0280322Y0110575D03*
X0280272Y0110575D03*
X0280222Y0110575D03*
X0280172Y0110575D03*
X0280072Y0110625D03*
X0280022Y0110625D03*
X0281072Y0110375D03*
X0281122Y0110375D03*
X0281172Y0110375D03*
X0282922Y0110025D03*
X0284322Y0109725D03*
X0284372Y0109725D03*
X0284522Y0109675D03*
X0284572Y0109675D03*
X0284622Y0109675D03*
X0284772Y0109625D03*
X0284822Y0109625D03*
X0284872Y0109625D03*
X0285022Y0109575D03*
X0285072Y0109575D03*
X0285122Y0109575D03*
X0285272Y0109525D03*
X0285322Y0109525D03*
X0285472Y0109475D03*
X0285522Y0109475D03*
X0285572Y0109475D03*
X0285722Y0109425D03*
X0285772Y0109425D03*
X0285822Y0109425D03*
X0285972Y0109375D03*
X0286022Y0109375D03*
X0286072Y0109375D03*
X0286172Y0109325D03*
X0286222Y0109325D03*
X0286272Y0109325D03*
X0286422Y0109275D03*
X0286472Y0109275D03*
X0286522Y0109275D03*
X0286672Y0109225D03*
X0286722Y0109225D03*
X0286772Y0109225D03*
X0286872Y0109175D03*
X0286922Y0109175D03*
X0286972Y0109175D03*
X0287022Y0109175D03*
X0287122Y0109125D03*
X0287172Y0109125D03*
X0287222Y0109125D03*
X0287272Y0109125D03*
X0287372Y0109075D03*
X0287422Y0109075D03*
X0287472Y0109075D03*
X0287622Y0109025D03*
X0287672Y0109025D03*
X0287722Y0109025D03*
X0290872Y0108325D03*
X0291122Y0108275D03*
X0291372Y0108225D03*
X0291622Y0108175D03*
X0291872Y0108125D03*
X0292072Y0108075D03*
X0292122Y0108075D03*
X0292322Y0108025D03*
X0292372Y0108025D03*
X0292422Y0108025D03*
X0292572Y0107975D03*
X0292622Y0107975D03*
X0292672Y0107975D03*
X0292822Y0107925D03*
X0292872Y0107925D03*
X0292922Y0107925D03*
X0293072Y0107875D03*
X0293122Y0107875D03*
X0293172Y0107875D03*
X0293272Y0107825D03*
X0293322Y0107825D03*
X0293372Y0107825D03*
X0293422Y0107825D03*
X0293522Y0107775D03*
X0293622Y0107775D03*
X0293672Y0107775D03*
X0293722Y0107775D03*
X0293822Y0107725D03*
X0293872Y0107725D03*
X0293922Y0107725D03*
X0293972Y0107725D03*
X0294022Y0107675D03*
X0294072Y0107675D03*
X0294122Y0107675D03*
X0294172Y0107675D03*
X0294272Y0107625D03*
X0294322Y0107625D03*
X0294372Y0107625D03*
X0294422Y0107625D03*
X0294472Y0107625D03*
X0294522Y0107575D03*
X0294572Y0107575D03*
X0294622Y0107575D03*
X0294672Y0107575D03*
X0294722Y0107575D03*
X0294772Y0107525D03*
X0294822Y0107525D03*
X0294872Y0107525D03*
X0294922Y0107525D03*
X0295022Y0107475D03*
X0295072Y0107475D03*
X0295122Y0107475D03*
X0295172Y0107475D03*
X0295222Y0107425D03*
X0295272Y0107425D03*
X0295322Y0107425D03*
X0295372Y0107425D03*
X0295422Y0107425D03*
X0295472Y0107375D03*
X0295522Y0107375D03*
X0295572Y0107375D03*
X0295622Y0107375D03*
X0295722Y0107325D03*
X0295772Y0107325D03*
X0295822Y0107325D03*
X0295872Y0107325D03*
X0295922Y0107275D03*
X0295972Y0107275D03*
X0296022Y0107275D03*
X0296072Y0107275D03*
X0296122Y0107275D03*
X0296172Y0107225D03*
X0296222Y0107225D03*
X0296272Y0107225D03*
X0296322Y0107225D03*
X0296372Y0107225D03*
X0296422Y0107175D03*
X0296472Y0107175D03*
X0296522Y0107175D03*
X0296572Y0107175D03*
X0296622Y0107125D03*
X0296672Y0107125D03*
X0296722Y0107125D03*
X0296772Y0107125D03*
X0296822Y0107125D03*
X0296872Y0107075D03*
X0296922Y0107075D03*
X0296972Y0107075D03*
X0297022Y0107075D03*
X0297072Y0107075D03*
X0297122Y0107025D03*
X0297172Y0107025D03*
X0297222Y0107025D03*
X0297272Y0107025D03*
X0297322Y0106975D03*
X0297372Y0106975D03*
X0297422Y0106975D03*
X0298922Y0106675D03*
X0299172Y0106625D03*
X0299422Y0106575D03*
X0299622Y0106525D03*
X0299872Y0106475D03*
X0300122Y0106425D03*
X0300322Y0106375D03*
X0300572Y0106325D03*
X0300822Y0106275D03*
X0301022Y0106225D03*
X0301272Y0106175D03*
X0301522Y0106125D03*
X0301722Y0106075D03*
X0301972Y0106025D03*
X0302222Y0105975D03*
X0302422Y0105925D03*
X0302472Y0105925D03*
X0302672Y0105875D03*
X0306172Y0106975D03*
X0297222Y0102475D03*
X0297172Y0102475D03*
X0298972Y0102075D03*
X0299022Y0102075D03*
X0299072Y0102075D03*
X0299222Y0102025D03*
X0299272Y0102025D03*
X0299472Y0101975D03*
X0299522Y0101975D03*
X0299722Y0101925D03*
X0299772Y0101925D03*
X0299972Y0101875D03*
X0300022Y0101875D03*
X0300172Y0101825D03*
X0300222Y0101825D03*
X0300422Y0101775D03*
X0300472Y0101775D03*
X0300672Y0101725D03*
X0300722Y0101725D03*
X0300922Y0101675D03*
X0301172Y0101625D03*
X0301422Y0101575D03*
X0301672Y0101525D03*
X0302122Y0101425D03*
X0302372Y0101375D03*
X0306022Y0097375D03*
X0297372Y0086975D03*
X0297322Y0086975D03*
X0297272Y0086975D03*
X0289222Y0094325D03*
X0289172Y0094325D03*
X0289122Y0094325D03*
X0289072Y0094325D03*
X0289022Y0094325D03*
X0288972Y0094375D03*
X0288922Y0094375D03*
X0288872Y0094375D03*
X0288822Y0094375D03*
X0288722Y0094425D03*
X0288672Y0094425D03*
X0288622Y0094425D03*
X0288572Y0094425D03*
X0288472Y0094475D03*
X0288422Y0094475D03*
X0288372Y0094475D03*
X0288322Y0094475D03*
X0288222Y0094525D03*
X0288172Y0094525D03*
X0288122Y0094525D03*
X0288072Y0094525D03*
X0288022Y0094575D03*
X0287972Y0094575D03*
X0287922Y0094575D03*
X0287872Y0094575D03*
X0287772Y0094625D03*
X0287722Y0094625D03*
X0287672Y0094625D03*
X0287622Y0094625D03*
X0287522Y0094675D03*
X0287472Y0094675D03*
X0287422Y0094675D03*
X0287372Y0094675D03*
X0287272Y0094725D03*
X0287222Y0094725D03*
X0287172Y0094725D03*
X0287122Y0094725D03*
X0287022Y0094775D03*
X0286972Y0094775D03*
X0286922Y0094775D03*
X0286772Y0094825D03*
X0286722Y0094825D03*
X0286672Y0094825D03*
X0286572Y0094875D03*
X0286522Y0094875D03*
X0286472Y0094875D03*
X0286422Y0094875D03*
X0286322Y0094925D03*
X0286272Y0094925D03*
X0286222Y0094925D03*
X0286172Y0094925D03*
X0286072Y0094975D03*
X0286022Y0094975D03*
X0285972Y0094975D03*
X0285822Y0095025D03*
X0285772Y0095025D03*
X0285722Y0095025D03*
X0285572Y0095075D03*
X0285522Y0095075D03*
X0285472Y0095075D03*
X0285322Y0095125D03*
X0285272Y0095125D03*
X0285222Y0095125D03*
X0285072Y0095175D03*
X0285022Y0095175D03*
X0284872Y0095225D03*
X0284822Y0095225D03*
X0284772Y0095225D03*
X0284622Y0095275D03*
X0284572Y0095275D03*
X0284522Y0095275D03*
X0284372Y0095325D03*
X0284322Y0095325D03*
X0284272Y0095325D03*
X0284122Y0095375D03*
X0284072Y0095375D03*
X0283872Y0095425D03*
X0283822Y0095425D03*
X0283622Y0095475D03*
X0283572Y0095475D03*
X0283422Y0095525D03*
X0283372Y0095525D03*
X0283322Y0095525D03*
X0283172Y0095575D03*
X0283122Y0095575D03*
X0281422Y0095925D03*
X0281372Y0095925D03*
X0281322Y0095925D03*
X0281222Y0095975D03*
X0281172Y0095975D03*
X0281122Y0095975D03*
X0281072Y0095975D03*
X0280972Y0096025D03*
X0280922Y0096025D03*
X0280872Y0096025D03*
X0280722Y0096075D03*
X0280672Y0096075D03*
X0282772Y0102475D03*
X0283472Y0122825D03*
X0283372Y0122875D03*
X0283272Y0122925D03*
X0283172Y0122975D03*
X0283072Y0123025D03*
X0283022Y0123025D03*
X0282972Y0123075D03*
X0282872Y0123125D03*
X0282822Y0123175D03*
X0282772Y0123175D03*
X0282722Y0123225D03*
X0282672Y0123225D03*
X0282622Y0123275D03*
X0282522Y0123325D03*
X0282472Y0123375D03*
X0282422Y0123425D03*
X0282372Y0123425D03*
X0282322Y0123475D03*
X0282272Y0123525D03*
X0282122Y0123625D03*
X0282072Y0123675D03*
X0282022Y0123725D03*
X0281972Y0123775D03*
X0289522Y0129875D03*
X0285872Y0133875D03*
X0285622Y0133925D03*
X0285172Y0134025D03*
X0284922Y0134075D03*
X0284672Y0134125D03*
X0284422Y0134175D03*
X0284222Y0134225D03*
X0284172Y0134225D03*
X0283972Y0134275D03*
X0283922Y0134275D03*
X0283722Y0134325D03*
X0283672Y0134325D03*
X0283522Y0134375D03*
X0283472Y0134375D03*
X0283272Y0134425D03*
X0283222Y0134425D03*
X0283022Y0134475D03*
X0282972Y0134475D03*
X0282772Y0134525D03*
X0282722Y0134525D03*
X0282572Y0134575D03*
X0282522Y0134575D03*
X0282472Y0134575D03*
X0280722Y0134975D03*
X0280672Y0134975D03*
X0281672Y0139325D03*
X0281722Y0139325D03*
X0281872Y0139275D03*
X0281922Y0139275D03*
X0281972Y0139275D03*
X0282122Y0139225D03*
X0282172Y0139225D03*
X0282222Y0139225D03*
X0282372Y0139175D03*
X0282422Y0139175D03*
X0282622Y0139125D03*
X0282672Y0139125D03*
X0282872Y0139075D03*
X0282922Y0139075D03*
X0283072Y0139025D03*
X0283122Y0139025D03*
X0283322Y0138975D03*
X0283372Y0138975D03*
X0283572Y0138925D03*
X0283622Y0138925D03*
X0283822Y0138875D03*
X0284072Y0138825D03*
X0284322Y0138775D03*
X0284522Y0138725D03*
X0284772Y0138675D03*
X0285022Y0138625D03*
X0285722Y0138475D03*
X0285972Y0138425D03*
X0289522Y0138975D03*
X0281472Y0139375D03*
X0281422Y0139375D03*
X0281272Y0139425D03*
X0281222Y0139425D03*
X0281172Y0139425D03*
X0281022Y0139475D03*
X0280972Y0139475D03*
X0280922Y0139475D03*
X0280772Y0139525D03*
X0280722Y0139525D03*
X0280672Y0139525D03*
X0280572Y0139575D03*
X0280522Y0139575D03*
X0280472Y0139575D03*
X0280422Y0139575D03*
X0280322Y0139625D03*
X0280272Y0139625D03*
X0280222Y0139625D03*
X0280072Y0139675D03*
X0280022Y0139675D03*
X0279972Y0139675D03*
X0279872Y0139725D03*
X0279822Y0139725D03*
X0279772Y0139725D03*
X0279722Y0139725D03*
X0279622Y0139775D03*
X0279572Y0139775D03*
X0279522Y0139775D03*
X0279472Y0139775D03*
X0279372Y0139825D03*
X0279322Y0139825D03*
X0279272Y0139825D03*
X0279222Y0139825D03*
X0279172Y0139875D03*
X0279122Y0139875D03*
X0279072Y0139875D03*
X0279022Y0139875D03*
X0278922Y0139925D03*
X0278872Y0139925D03*
X0278822Y0139925D03*
X0278772Y0139925D03*
X0278672Y0139975D03*
X0278622Y0139975D03*
X0278572Y0139975D03*
X0278522Y0139975D03*
X0278472Y0140025D03*
X0278422Y0140025D03*
X0278372Y0140025D03*
X0278322Y0140025D03*
X0278272Y0140025D03*
X0278222Y0140075D03*
X0278172Y0140075D03*
X0278122Y0140075D03*
X0278072Y0140075D03*
X0278022Y0140075D03*
X0277972Y0140125D03*
X0277922Y0140125D03*
X0277872Y0140125D03*
X0277822Y0140125D03*
X0277722Y0140175D03*
X0277672Y0140175D03*
X0277622Y0140175D03*
X0277572Y0140175D03*
X0277522Y0140225D03*
X0279572Y0082625D03*
X0279622Y0082625D03*
X0279672Y0082625D03*
X0279722Y0082625D03*
D143*
X0280772Y0083025D03*
X0298372Y0087325D03*
X0298422Y0087375D03*
X0298522Y0087425D03*
X0297322Y0099475D03*
X0306122Y0101875D03*
X0304172Y0109625D03*
X0298772Y0110525D03*
X0280722Y0104725D03*
X0281122Y0099075D03*
X0280722Y0125425D03*
X0280822Y0131975D03*
X0289622Y0134375D03*
D144*
X0287122Y0133550D03*
X0287072Y0133550D03*
X0287022Y0133600D03*
X0286972Y0133600D03*
X0282222Y0134550D03*
X0282322Y0130350D03*
X0282372Y0130300D03*
X0282422Y0130250D03*
X0282472Y0130200D03*
X0282622Y0130100D03*
X0286722Y0128800D03*
X0289472Y0129900D03*
X0280822Y0125400D03*
X0286322Y0122100D03*
X0286372Y0122100D03*
X0286422Y0122100D03*
X0286472Y0122100D03*
X0286972Y0122050D03*
X0287022Y0122050D03*
X0287772Y0117450D03*
X0282272Y0114350D03*
X0287172Y0113800D03*
X0287222Y0113750D03*
X0287272Y0113750D03*
X0287322Y0113700D03*
X0282672Y0110150D03*
X0287922Y0109050D03*
X0289572Y0102750D03*
X0287622Y0101400D03*
X0287572Y0101400D03*
X0287472Y0101350D03*
X0287422Y0101350D03*
X0287372Y0101350D03*
X0287322Y0101350D03*
X0287272Y0101350D03*
X0287222Y0101350D03*
X0287172Y0101350D03*
X0286222Y0101350D03*
X0285822Y0101400D03*
X0285322Y0101500D03*
X0285072Y0101550D03*
X0282072Y0103050D03*
X0298722Y0102050D03*
X0298822Y0097850D03*
X0298872Y0097800D03*
X0298922Y0097750D03*
X0298972Y0097700D03*
X0299122Y0097600D03*
X0303622Y0096350D03*
X0303672Y0096350D03*
X0303722Y0096350D03*
X0303772Y0096350D03*
X0303822Y0096350D03*
X0303872Y0096400D03*
X0303922Y0096400D03*
X0303972Y0096400D03*
X0305972Y0097400D03*
X0303622Y0101050D03*
X0303572Y0101050D03*
X0303522Y0101100D03*
X0303472Y0101100D03*
X0303472Y0105650D03*
X0303522Y0105650D03*
X0306122Y0114550D03*
X0297172Y0116250D03*
X0297122Y0116250D03*
X0297072Y0116250D03*
X0278972Y0119200D03*
X0278922Y0119200D03*
X0278872Y0119200D03*
X0278022Y0119200D03*
X0277972Y0119200D03*
X0286972Y0138150D03*
X0287022Y0138150D03*
X0286922Y0138200D03*
X0286872Y0138200D03*
X0292422Y0088850D03*
X0292472Y0088800D03*
X0292522Y0088750D03*
X0292572Y0088700D03*
X0293022Y0088300D03*
X0293072Y0088250D03*
X0293122Y0088200D03*
X0293222Y0088150D03*
X0293272Y0088100D03*
X0293322Y0088050D03*
X0293422Y0088000D03*
X0293472Y0087950D03*
X0293522Y0087900D03*
X0293622Y0087850D03*
X0293672Y0087800D03*
X0293772Y0087750D03*
X0293872Y0087700D03*
X0293922Y0087650D03*
X0293972Y0087650D03*
X0294022Y0087600D03*
X0294072Y0087600D03*
X0294122Y0087550D03*
X0294222Y0087500D03*
X0294322Y0087450D03*
X0294422Y0087400D03*
X0294522Y0087350D03*
X0294672Y0087300D03*
X0294822Y0087250D03*
X0294972Y0087200D03*
X0295122Y0087150D03*
X0295272Y0087100D03*
X0296072Y0086950D03*
X0296122Y0086950D03*
X0296172Y0086950D03*
X0296222Y0086950D03*
X0296272Y0086950D03*
X0296322Y0086950D03*
X0296372Y0086950D03*
X0296422Y0086950D03*
X0296472Y0086950D03*
X0296522Y0086950D03*
X0296572Y0086950D03*
X0296622Y0086950D03*
X0296672Y0086950D03*
X0278622Y0082600D03*
X0278572Y0082600D03*
X0278522Y0082600D03*
X0278472Y0082600D03*
X0278422Y0082600D03*
X0278372Y0082600D03*
X0278322Y0082600D03*
X0278272Y0082600D03*
X0278222Y0082600D03*
X0277872Y0082650D03*
D145*
X0280172Y0082750D03*
X0280222Y0082750D03*
X0297872Y0087100D03*
X0297922Y0087100D03*
X0306072Y0097400D03*
X0297572Y0102450D03*
X0297522Y0102450D03*
X0280772Y0104700D03*
X0289572Y0118150D03*
X0279272Y0119200D03*
X0277722Y0119200D03*
X0277672Y0119200D03*
X0289572Y0129900D03*
X0281072Y0134950D03*
X0281022Y0134950D03*
X0289572Y0138950D03*
D146*
X0289572Y0134375D03*
X0281222Y0134975D03*
X0281172Y0134975D03*
X0281122Y0134975D03*
X0280872Y0131925D03*
X0297622Y0102475D03*
X0297672Y0102475D03*
X0297722Y0102475D03*
X0297372Y0099425D03*
X0306072Y0101875D03*
X0298072Y0087175D03*
X0298022Y0087175D03*
X0297972Y0087125D03*
X0280422Y0082825D03*
X0280372Y0082825D03*
X0280322Y0082775D03*
X0280272Y0082775D03*
X0281222Y0099025D03*
D147*
X0297622Y0099325D03*
X0304022Y0105525D03*
X0306072Y0107025D03*
X0298072Y0116125D03*
X0298022Y0116125D03*
X0297972Y0116125D03*
X0287422Y0121925D03*
X0287072Y0128625D03*
X0281122Y0131825D03*
X0287572Y0137975D03*
X0287622Y0137975D03*
X0281172Y0113575D03*
X0282322Y0110375D03*
X0283222Y0109725D03*
X0275572Y0083475D03*
X0275622Y0083425D03*
X0275672Y0083425D03*
X0275722Y0083375D03*
D148*
X0276172Y0083150D03*
X0276222Y0083100D03*
X0276272Y0083100D03*
X0276372Y0083050D03*
X0282722Y0095800D03*
X0281922Y0103300D03*
X0288022Y0109100D03*
X0283172Y0109800D03*
X0282422Y0110300D03*
X0281072Y0113550D03*
X0287672Y0113450D03*
X0287722Y0113400D03*
X0289422Y0118200D03*
X0287222Y0122000D03*
X0289622Y0123600D03*
X0286922Y0128700D03*
X0282072Y0130650D03*
X0281072Y0131850D03*
X0282072Y0134500D03*
X0287372Y0133450D03*
X0287422Y0133450D03*
X0287422Y0138050D03*
X0287372Y0138050D03*
X0289422Y0139000D03*
X0297672Y0116150D03*
X0297722Y0116150D03*
X0297772Y0116150D03*
X0306072Y0114550D03*
X0303922Y0105550D03*
X0303872Y0105550D03*
X0298772Y0106850D03*
X0298572Y0102000D03*
X0297572Y0099350D03*
X0298572Y0098150D03*
X0303872Y0100950D03*
X0303922Y0100950D03*
D149*
X0306022Y0101900D03*
X0297322Y0102450D03*
X0297272Y0102450D03*
X0297422Y0099400D03*
X0289622Y0102750D03*
X0290672Y0108350D03*
X0290722Y0108350D03*
X0290772Y0108350D03*
X0290822Y0108350D03*
X0290922Y0108300D03*
X0290972Y0108300D03*
X0291022Y0108300D03*
X0291072Y0108300D03*
X0291172Y0108250D03*
X0291222Y0108250D03*
X0291272Y0108250D03*
X0291322Y0108250D03*
X0291422Y0108200D03*
X0291472Y0108200D03*
X0291522Y0108200D03*
X0291572Y0108200D03*
X0291672Y0108150D03*
X0291722Y0108150D03*
X0291772Y0108150D03*
X0291822Y0108150D03*
X0291922Y0108100D03*
X0291972Y0108100D03*
X0292022Y0108100D03*
X0292172Y0108050D03*
X0292222Y0108050D03*
X0292272Y0108050D03*
X0292472Y0108000D03*
X0292522Y0108000D03*
X0292722Y0107950D03*
X0292772Y0107950D03*
X0292972Y0107900D03*
X0293022Y0107900D03*
X0293222Y0107850D03*
X0293472Y0107800D03*
X0293572Y0107750D03*
X0294972Y0107500D03*
X0295672Y0107350D03*
X0290622Y0108400D03*
X0290572Y0108400D03*
X0290522Y0108400D03*
X0290472Y0108400D03*
X0290422Y0108400D03*
X0290372Y0108450D03*
X0290322Y0108450D03*
X0290272Y0108450D03*
X0290222Y0108450D03*
X0290172Y0108450D03*
X0290122Y0108500D03*
X0290072Y0108500D03*
X0290022Y0108500D03*
X0289972Y0108500D03*
X0289922Y0108500D03*
X0289872Y0108550D03*
X0289822Y0108550D03*
X0289772Y0108550D03*
X0289722Y0108550D03*
X0289622Y0108600D03*
X0289572Y0108600D03*
X0289522Y0108600D03*
X0285622Y0114350D03*
X0285422Y0114400D03*
X0285372Y0114400D03*
X0285222Y0114450D03*
X0285172Y0114450D03*
X0285122Y0114450D03*
X0285072Y0114450D03*
X0285022Y0114450D03*
X0284922Y0114500D03*
X0284872Y0114500D03*
X0284822Y0114500D03*
X0284772Y0114500D03*
X0284722Y0114500D03*
X0284672Y0114500D03*
X0284572Y0114550D03*
X0284522Y0114550D03*
X0284472Y0114550D03*
X0284422Y0114550D03*
X0284372Y0114550D03*
X0284322Y0114550D03*
X0283922Y0114600D03*
X0283872Y0114600D03*
X0283822Y0114600D03*
X0283772Y0114600D03*
X0283722Y0114600D03*
X0283672Y0114600D03*
X0283622Y0114600D03*
X0283572Y0114600D03*
X0283372Y0114600D03*
X0283322Y0114600D03*
X0283272Y0114600D03*
X0282822Y0114550D03*
X0282772Y0114550D03*
X0282722Y0114550D03*
X0282672Y0114550D03*
X0282622Y0114500D03*
X0282572Y0114500D03*
X0279172Y0119200D03*
X0277772Y0119200D03*
X0282172Y0123600D03*
X0282222Y0123550D03*
X0282572Y0123300D03*
X0280922Y0131900D03*
X0280822Y0134950D03*
X0280772Y0134950D03*
X0289522Y0134400D03*
X0297422Y0087000D03*
X0297472Y0087000D03*
X0297522Y0087000D03*
X0297572Y0087000D03*
X0297722Y0087050D03*
X0280022Y0082700D03*
X0279922Y0082650D03*
X0279872Y0082650D03*
X0279822Y0082650D03*
X0279772Y0082650D03*
D150*
X0275272Y0083725D03*
X0275222Y0083775D03*
X0304172Y0100825D03*
X0304172Y0105525D03*
X0306022Y0107025D03*
X0298672Y0116025D03*
X0298622Y0116025D03*
X0298572Y0116025D03*
X0289272Y0118225D03*
X0287572Y0121875D03*
X0287222Y0128575D03*
X0287672Y0133325D03*
X0289272Y0139025D03*
X0283272Y0109625D03*
X0289422Y0102775D03*
D151*
X0289472Y0102750D03*
X0298522Y0101900D03*
X0298522Y0098300D03*
X0304072Y0100900D03*
X0305772Y0101950D03*
X0305822Y0097400D03*
X0289422Y0094550D03*
X0282572Y0095950D03*
X0298722Y0107000D03*
X0298222Y0116100D03*
X0298172Y0116100D03*
X0298122Y0116100D03*
X0306022Y0114550D03*
X0289572Y0123600D03*
X0289322Y0129900D03*
X0287572Y0133400D03*
X0289272Y0134450D03*
X0282022Y0134400D03*
X0282022Y0130800D03*
X0287922Y0113200D03*
X0275472Y0083550D03*
X0275522Y0083500D03*
D152*
X0276772Y0082900D03*
X0276822Y0082900D03*
X0276872Y0082850D03*
X0276922Y0082850D03*
X0276972Y0082850D03*
X0277022Y0082850D03*
X0277072Y0082800D03*
X0277122Y0082800D03*
X0277172Y0082800D03*
X0277272Y0082750D03*
X0277322Y0082750D03*
X0277572Y0082700D03*
X0292022Y0089300D03*
X0292072Y0089250D03*
X0292122Y0089200D03*
X0292172Y0089150D03*
X0295472Y0087050D03*
X0304122Y0096450D03*
X0304172Y0096450D03*
X0305922Y0097400D03*
X0303772Y0101000D03*
X0298672Y0098000D03*
X0297522Y0099350D03*
X0303672Y0105600D03*
X0303722Y0105600D03*
X0289522Y0111650D03*
X0287622Y0113500D03*
X0287572Y0113550D03*
X0287472Y0113600D03*
X0282222Y0114300D03*
X0281022Y0113550D03*
X0282572Y0110200D03*
X0287822Y0117500D03*
X0287172Y0122000D03*
X0287122Y0122000D03*
X0278822Y0119200D03*
X0278772Y0119200D03*
X0278722Y0119200D03*
X0278672Y0119200D03*
X0278622Y0119200D03*
X0278572Y0119200D03*
X0278322Y0119200D03*
X0278272Y0119200D03*
X0278222Y0119200D03*
X0278172Y0119200D03*
X0278122Y0119200D03*
X0286822Y0128750D03*
X0289422Y0129900D03*
X0287272Y0133500D03*
X0282172Y0130500D03*
X0281022Y0131850D03*
X0287172Y0138100D03*
X0287222Y0138100D03*
X0297372Y0116200D03*
X0297422Y0116200D03*
X0297472Y0116200D03*
X0287822Y0101500D03*
X0287772Y0101450D03*
X0282822Y0095750D03*
X0272122Y0098900D03*
D153*
X0281422Y0098975D03*
X0282872Y0095725D03*
X0289272Y0094375D03*
X0292222Y0089075D03*
X0292272Y0089025D03*
X0292322Y0088975D03*
X0292372Y0088925D03*
X0292622Y0088675D03*
X0292672Y0088625D03*
X0292722Y0088575D03*
X0292772Y0088525D03*
X0292822Y0088475D03*
X0292872Y0088425D03*
X0292922Y0088375D03*
X0292972Y0088325D03*
X0293172Y0088175D03*
X0293372Y0088025D03*
X0293572Y0087875D03*
X0293722Y0087775D03*
X0293822Y0087725D03*
X0294172Y0087525D03*
X0294272Y0087475D03*
X0294372Y0087425D03*
X0294472Y0087375D03*
X0294572Y0087325D03*
X0294622Y0087325D03*
X0294722Y0087275D03*
X0294772Y0087275D03*
X0294872Y0087225D03*
X0294922Y0087225D03*
X0295022Y0087175D03*
X0295072Y0087175D03*
X0295172Y0087125D03*
X0295222Y0087125D03*
X0295322Y0087075D03*
X0295372Y0087075D03*
X0295422Y0087075D03*
X0295522Y0087025D03*
X0295572Y0087025D03*
X0295622Y0087025D03*
X0295672Y0087025D03*
X0295722Y0087025D03*
X0295772Y0086975D03*
X0295822Y0086975D03*
X0295872Y0086975D03*
X0295922Y0086975D03*
X0295972Y0086975D03*
X0296022Y0086975D03*
X0304022Y0096425D03*
X0304072Y0096425D03*
X0298772Y0097875D03*
X0298722Y0097925D03*
X0298672Y0102075D03*
X0303672Y0101025D03*
X0303722Y0101025D03*
X0305922Y0101925D03*
X0303622Y0105625D03*
X0303572Y0105625D03*
X0298822Y0106775D03*
X0287972Y0109075D03*
X0284322Y0106625D03*
X0281972Y0103175D03*
X0282022Y0103125D03*
X0287522Y0101375D03*
X0287672Y0101425D03*
X0287722Y0101425D03*
X0283122Y0109875D03*
X0282622Y0110175D03*
X0287372Y0113675D03*
X0287422Y0113625D03*
X0287522Y0113575D03*
X0289472Y0118175D03*
X0287072Y0122025D03*
X0278072Y0119225D03*
X0286772Y0128775D03*
X0282272Y0130375D03*
X0282222Y0130425D03*
X0282172Y0134575D03*
X0287172Y0133525D03*
X0287222Y0133525D03*
X0289422Y0134425D03*
X0287122Y0138125D03*
X0287072Y0138125D03*
X0289472Y0138975D03*
X0297222Y0116225D03*
X0297272Y0116225D03*
X0297322Y0116225D03*
X0278172Y0082625D03*
X0278122Y0082625D03*
X0278072Y0082625D03*
X0278022Y0082625D03*
X0277972Y0082625D03*
X0277922Y0082625D03*
X0277822Y0082675D03*
X0277772Y0082675D03*
X0277722Y0082675D03*
X0277672Y0082675D03*
X0277622Y0082675D03*
X0277522Y0082725D03*
X0277472Y0082725D03*
X0277422Y0082725D03*
X0277372Y0082725D03*
X0277222Y0082775D03*
D154*
X0275022Y0083975D03*
X0274972Y0084025D03*
X0271622Y0090475D03*
X0281072Y0104625D03*
X0288022Y0112975D03*
X0289172Y0118275D03*
X0298972Y0115975D03*
X0299022Y0115975D03*
X0299072Y0115975D03*
X0305922Y0114575D03*
X0289472Y0123625D03*
X0281072Y0125325D03*
X0287772Y0133275D03*
X0289172Y0139075D03*
X0304272Y0100775D03*
D155*
X0303972Y0100925D03*
X0305872Y0097425D03*
X0304322Y0096575D03*
X0304272Y0096525D03*
X0289522Y0102775D03*
X0282672Y0095875D03*
X0303972Y0105525D03*
X0287822Y0113325D03*
X0287772Y0113375D03*
X0282372Y0110325D03*
X0287272Y0121975D03*
X0286972Y0128675D03*
X0289372Y0129925D03*
X0287472Y0133425D03*
X0287472Y0138025D03*
X0275822Y0083325D03*
X0275922Y0083275D03*
X0275972Y0083225D03*
X0276022Y0083225D03*
X0276072Y0083175D03*
X0276122Y0083175D03*
D156*
X0274822Y0084225D03*
X0304322Y0100725D03*
X0305472Y0102025D03*
X0305872Y0114575D03*
X0304572Y0116425D03*
X0304272Y0116825D03*
X0304222Y0116875D03*
X0304172Y0116925D03*
X0304122Y0116975D03*
X0299522Y0115875D03*
X0287772Y0121775D03*
X0287822Y0133225D03*
X0288972Y0134525D03*
D157*
X0288872Y0134550D03*
X0289022Y0139100D03*
X0288972Y0129950D03*
X0287572Y0128400D03*
X0289022Y0118300D03*
X0303872Y0117150D03*
X0305822Y0114600D03*
X0305372Y0102050D03*
X0305472Y0097450D03*
D158*
X0305772Y0097400D03*
X0304122Y0100850D03*
X0305722Y0101950D03*
X0297672Y0099300D03*
X0289472Y0094500D03*
X0282522Y0096000D03*
X0280972Y0104650D03*
X0282222Y0110500D03*
X0298422Y0116050D03*
X0298472Y0116050D03*
X0298522Y0116050D03*
X0287522Y0121900D03*
X0280972Y0125350D03*
X0287172Y0128600D03*
X0289272Y0129900D03*
X0287622Y0133350D03*
X0289222Y0134450D03*
X0287722Y0137950D03*
X0281172Y0131800D03*
X0275322Y0083650D03*
D159*
X0275172Y0083825D03*
X0275122Y0083875D03*
X0275222Y0096575D03*
X0304222Y0100825D03*
X0305672Y0101975D03*
X0304222Y0105525D03*
X0298772Y0116025D03*
X0287622Y0121875D03*
X0287722Y0133325D03*
X0289172Y0134475D03*
D160*
X0288672Y0130000D03*
X0289272Y0123700D03*
X0281422Y0125200D03*
X0288722Y0118400D03*
X0305672Y0114600D03*
X0305172Y0097500D03*
X0289772Y0093950D03*
X0288722Y0139200D03*
D161*
X0287822Y0137950D03*
X0289072Y0134500D03*
X0289122Y0129950D03*
X0287372Y0128500D03*
X0299122Y0115950D03*
X0299172Y0115950D03*
X0304272Y0105550D03*
X0305572Y0102000D03*
X0305622Y0097450D03*
D162*
X0305522Y0097450D03*
X0305422Y0102050D03*
X0304322Y0105550D03*
X0299572Y0115900D03*
X0304022Y0117050D03*
X0304072Y0117000D03*
X0289072Y0118300D03*
X0289422Y0123650D03*
X0289022Y0129950D03*
X0288922Y0134550D03*
X0289072Y0139100D03*
X0275172Y0096500D03*
D163*
X0289572Y0094325D03*
X0289322Y0102775D03*
X0305522Y0102025D03*
X0299322Y0115925D03*
X0299272Y0115925D03*
X0299222Y0115925D03*
X0289122Y0118275D03*
X0287722Y0121825D03*
X0287422Y0128475D03*
X0289022Y0134525D03*
X0289122Y0139075D03*
X0274872Y0084125D03*
X0274922Y0084075D03*
D164*
X0289972Y0093650D03*
X0288822Y0102850D03*
X0305472Y0107200D03*
X0305422Y0114650D03*
X0281722Y0125050D03*
D165*
X0281222Y0125275D03*
X0287822Y0121725D03*
X0289372Y0123675D03*
X0288922Y0129975D03*
X0288822Y0134575D03*
X0288972Y0139125D03*
X0288972Y0118325D03*
X0303772Y0117225D03*
X0303822Y0117175D03*
X0289222Y0102775D03*
X0289672Y0094125D03*
X0305422Y0097475D03*
X0305322Y0102075D03*
X0274722Y0084375D03*
D166*
X0290022Y0093600D03*
X0288772Y0102850D03*
X0281722Y0104400D03*
X0305422Y0107200D03*
X0305372Y0114650D03*
X0281772Y0125050D03*
D167*
X0305322Y0114675D03*
X0288672Y0102875D03*
X0281822Y0104375D03*
X0290072Y0093525D03*
D168*
X0288572Y0102900D03*
X0305272Y0107250D03*
X0271722Y0090500D03*
X0274372Y0085300D03*
D169*
X0274622Y0084550D03*
X0275822Y0090650D03*
X0275872Y0090650D03*
X0276072Y0090600D03*
X0276322Y0090550D03*
X0276522Y0090500D03*
X0276572Y0090500D03*
X0276772Y0090450D03*
X0277022Y0090400D03*
X0277222Y0090350D03*
X0277272Y0090350D03*
X0277472Y0090300D03*
X0277722Y0090250D03*
X0277922Y0090200D03*
X0277972Y0090200D03*
X0278172Y0090150D03*
X0278422Y0090100D03*
X0278672Y0090050D03*
X0278872Y0090000D03*
X0279122Y0089950D03*
X0279372Y0089900D03*
X0279572Y0089850D03*
X0279822Y0089800D03*
X0280272Y0089700D03*
X0280522Y0089650D03*
X0280972Y0089550D03*
X0281222Y0089500D03*
X0281672Y0089400D03*
X0281922Y0089350D03*
X0282372Y0089250D03*
X0282622Y0089200D03*
X0283072Y0089100D03*
X0283322Y0089050D03*
X0283772Y0088950D03*
X0284022Y0088900D03*
X0284472Y0088800D03*
X0284722Y0088750D03*
X0285172Y0088650D03*
X0285422Y0088600D03*
X0285872Y0088500D03*
X0286122Y0088450D03*
X0286572Y0088350D03*
X0286822Y0088300D03*
X0287272Y0088200D03*
X0287522Y0088150D03*
X0287972Y0088050D03*
X0288222Y0088000D03*
X0288922Y0087850D03*
X0289622Y0087700D03*
X0290322Y0087550D03*
X0275622Y0090700D03*
X0275372Y0090750D03*
X0275172Y0090800D03*
X0275122Y0090800D03*
X0274922Y0090850D03*
X0275122Y0096450D03*
X0281272Y0104550D03*
X0289172Y0102800D03*
X0305222Y0102100D03*
X0303622Y0117300D03*
X0303572Y0117350D03*
X0288872Y0118350D03*
X0289322Y0123700D03*
X0287672Y0128350D03*
X0288722Y0134600D03*
X0288872Y0139150D03*
D170*
X0288822Y0123825D03*
X0305172Y0114775D03*
X0305172Y0107275D03*
X0297572Y0108275D03*
X0288472Y0102925D03*
X0290222Y0093325D03*
D171*
X0290272Y0093275D03*
X0297672Y0108325D03*
X0305122Y0114775D03*
D172*
X0305072Y0114825D03*
X0297772Y0108375D03*
X0288322Y0102925D03*
X0290322Y0093225D03*
D173*
X0305022Y0102675D03*
X0272422Y0092875D03*
D174*
X0304972Y0102700D03*
D175*
X0304922Y0102675D03*
D176*
X0304872Y0102700D03*
X0272472Y0092800D03*
D177*
X0272522Y0092750D03*
X0304822Y0102700D03*
D178*
X0304772Y0102725D03*
D179*
X0297772Y0100575D03*
X0298522Y0108475D03*
X0298572Y0108475D03*
X0304772Y0114975D03*
X0283772Y0108125D03*
X0283722Y0108125D03*
X0283672Y0108125D03*
X0283622Y0108125D03*
X0281222Y0112125D03*
X0282222Y0097475D03*
X0282272Y0097475D03*
X0282322Y0097475D03*
X0291622Y0088325D03*
X0281272Y0133075D03*
X0287972Y0138825D03*
D180*
X0304722Y0102750D03*
X0272572Y0092700D03*
D181*
X0272622Y0092650D03*
X0304622Y0102750D03*
X0304672Y0102750D03*
D182*
X0297172Y0099525D03*
X0280872Y0099175D03*
X0289822Y0111525D03*
X0304622Y0112575D03*
X0283172Y0126625D03*
X0283122Y0126625D03*
X0283072Y0126675D03*
X0283022Y0126675D03*
X0282922Y0126725D03*
X0282872Y0126725D03*
X0282622Y0126775D03*
X0282572Y0126775D03*
X0282522Y0126775D03*
X0280672Y0132025D03*
X0287822Y0141275D03*
D183*
X0304572Y0102775D03*
X0272672Y0092575D03*
D184*
X0271972Y0099650D03*
X0283272Y0099300D03*
X0302422Y0113150D03*
X0304572Y0112550D03*
X0283322Y0126550D03*
X0283272Y0126600D03*
X0283222Y0126600D03*
X0281322Y0083600D03*
D185*
X0304522Y0102800D03*
D186*
X0304472Y0112450D03*
X0304522Y0112500D03*
X0289822Y0118050D03*
X0280672Y0113600D03*
X0277122Y0119200D03*
X0283422Y0126500D03*
X0289822Y0138850D03*
X0287772Y0141350D03*
X0283322Y0099300D03*
D187*
X0304472Y0099000D03*
D188*
X0304372Y0098850D03*
D189*
X0304372Y0112400D03*
X0304322Y0112400D03*
X0277072Y0119200D03*
X0271922Y0099750D03*
X0277272Y0141000D03*
D190*
X0287522Y0141600D03*
X0287572Y0141550D03*
X0289872Y0123500D03*
X0303422Y0118950D03*
X0303472Y0118900D03*
X0303522Y0118850D03*
X0302322Y0113150D03*
X0304172Y0112350D03*
X0289822Y0102750D03*
D191*
X0287922Y0104900D03*
X0282472Y0099400D03*
X0298822Y0110550D03*
X0303322Y0112950D03*
X0304072Y0109700D03*
X0304122Y0109650D03*
X0279472Y0119200D03*
X0277472Y0119200D03*
X0277422Y0140450D03*
X0298472Y0087400D03*
X0280872Y0083100D03*
X0280822Y0083050D03*
D192*
X0298572Y0087475D03*
X0282522Y0099425D03*
X0284472Y0106375D03*
X0280822Y0113575D03*
X0289672Y0118125D03*
X0298872Y0110575D03*
X0303222Y0112975D03*
X0303272Y0112975D03*
X0303372Y0112925D03*
X0303422Y0112925D03*
X0303522Y0112875D03*
X0303972Y0109775D03*
X0304022Y0109725D03*
X0288072Y0126225D03*
X0289672Y0138925D03*
D193*
X0304022Y0113250D03*
X0271622Y0100400D03*
D194*
X0281072Y0099100D03*
X0282572Y0099400D03*
X0289722Y0102750D03*
X0283322Y0106100D03*
X0289722Y0111550D03*
X0297422Y0109650D03*
X0298922Y0110600D03*
X0298972Y0110650D03*
X0299022Y0110650D03*
X0303522Y0110050D03*
X0303622Y0110000D03*
X0303672Y0109950D03*
X0303722Y0109950D03*
X0303772Y0109900D03*
X0303822Y0109850D03*
X0303872Y0109850D03*
X0303922Y0109800D03*
X0303622Y0112850D03*
X0303572Y0112850D03*
X0303472Y0112900D03*
X0303172Y0113000D03*
X0303122Y0113000D03*
X0303072Y0113050D03*
X0303022Y0113050D03*
X0302972Y0113050D03*
X0279522Y0119200D03*
X0277422Y0119200D03*
X0298622Y0087500D03*
X0280972Y0083200D03*
X0280922Y0083150D03*
D195*
X0281122Y0083350D03*
X0298772Y0087650D03*
X0298822Y0087700D03*
X0282872Y0099400D03*
X0282822Y0099400D03*
X0282972Y0106200D03*
X0284522Y0106300D03*
X0287522Y0105300D03*
X0287572Y0105250D03*
X0300172Y0110850D03*
X0300222Y0110850D03*
X0302772Y0113100D03*
X0303822Y0112750D03*
X0289722Y0118100D03*
X0279622Y0119200D03*
X0277322Y0119200D03*
X0289722Y0138900D03*
D196*
X0280772Y0132000D03*
X0280672Y0125450D03*
X0279572Y0119200D03*
X0297372Y0109650D03*
X0299172Y0110700D03*
X0299322Y0110750D03*
X0299372Y0110750D03*
X0299422Y0110750D03*
X0299522Y0110800D03*
X0299572Y0110800D03*
X0300922Y0110800D03*
X0301322Y0110750D03*
X0301572Y0110700D03*
X0301622Y0110700D03*
X0301772Y0110650D03*
X0301822Y0110650D03*
X0302022Y0110600D03*
X0302072Y0110600D03*
X0302222Y0110550D03*
X0302272Y0110550D03*
X0302372Y0110500D03*
X0302422Y0110500D03*
X0302472Y0110450D03*
X0302522Y0110450D03*
X0302572Y0110450D03*
X0302672Y0110400D03*
X0302722Y0110400D03*
X0302822Y0110350D03*
X0302872Y0110350D03*
X0302972Y0110300D03*
X0303022Y0110300D03*
X0303072Y0110250D03*
X0303122Y0110250D03*
X0303222Y0110200D03*
X0303322Y0110150D03*
X0303722Y0112800D03*
X0287772Y0105100D03*
X0283172Y0106150D03*
X0283122Y0106150D03*
X0280672Y0104750D03*
X0281022Y0099100D03*
X0282722Y0099400D03*
X0282772Y0099400D03*
X0297272Y0099500D03*
X0298722Y0087600D03*
X0281022Y0083250D03*
D197*
X0279272Y0082575D03*
X0279222Y0082575D03*
X0279172Y0082575D03*
X0279122Y0082575D03*
X0279072Y0082575D03*
X0279022Y0082575D03*
X0278972Y0082575D03*
X0278922Y0082575D03*
X0278872Y0082575D03*
X0278822Y0082575D03*
X0278772Y0082575D03*
X0278722Y0082575D03*
X0278672Y0082575D03*
X0296722Y0086925D03*
X0296772Y0086925D03*
X0296822Y0086925D03*
X0296872Y0086925D03*
X0296922Y0086925D03*
X0296972Y0086925D03*
X0300622Y0096825D03*
X0300672Y0096825D03*
X0300772Y0096775D03*
X0300822Y0096775D03*
X0300922Y0096725D03*
X0300972Y0096725D03*
X0301072Y0096675D03*
X0301122Y0096675D03*
X0301222Y0096625D03*
X0301272Y0096625D03*
X0301322Y0096625D03*
X0301372Y0096575D03*
X0301422Y0096575D03*
X0301472Y0096575D03*
X0301522Y0096575D03*
X0301622Y0096525D03*
X0301672Y0096525D03*
X0301722Y0096525D03*
X0301772Y0096525D03*
X0301822Y0096475D03*
X0301872Y0096475D03*
X0301922Y0096475D03*
X0301972Y0096475D03*
X0302072Y0096425D03*
X0302122Y0096425D03*
X0302172Y0096425D03*
X0302222Y0096425D03*
X0302372Y0096375D03*
X0302422Y0096375D03*
X0302472Y0096375D03*
X0302522Y0096375D03*
X0302572Y0096375D03*
X0302622Y0096375D03*
X0302672Y0096375D03*
X0302772Y0096325D03*
X0302822Y0096325D03*
X0302872Y0096325D03*
X0302922Y0096325D03*
X0302972Y0096325D03*
X0303022Y0096325D03*
X0303072Y0096325D03*
X0303122Y0096325D03*
X0303172Y0096325D03*
X0303222Y0096325D03*
X0303272Y0096325D03*
X0303322Y0096325D03*
X0303372Y0096325D03*
X0303422Y0096325D03*
X0303472Y0096325D03*
X0303522Y0096325D03*
X0303572Y0096325D03*
X0300522Y0096875D03*
X0300372Y0096925D03*
X0300122Y0097025D03*
X0300022Y0097075D03*
X0299922Y0097125D03*
X0299822Y0097175D03*
X0299722Y0097225D03*
X0299622Y0097275D03*
X0299472Y0097375D03*
X0299372Y0097425D03*
X0299272Y0097475D03*
X0299222Y0097525D03*
X0299172Y0097575D03*
X0299072Y0097625D03*
X0299022Y0097675D03*
X0297472Y0099375D03*
X0298772Y0102075D03*
X0298822Y0102075D03*
X0303072Y0101225D03*
X0303272Y0101175D03*
X0303322Y0101175D03*
X0303372Y0101125D03*
X0303422Y0101125D03*
X0303422Y0105675D03*
X0303372Y0105675D03*
X0303322Y0105725D03*
X0303272Y0105725D03*
X0303222Y0105725D03*
X0303072Y0105775D03*
X0302872Y0105825D03*
X0298872Y0106725D03*
X0287872Y0109025D03*
X0283072Y0109975D03*
X0282822Y0110075D03*
X0282772Y0110075D03*
X0282722Y0110125D03*
X0286972Y0113875D03*
X0287022Y0113875D03*
X0287072Y0113825D03*
X0287122Y0113825D03*
X0286922Y0113925D03*
X0287672Y0117425D03*
X0287722Y0117425D03*
X0282322Y0114375D03*
X0279022Y0119225D03*
X0277922Y0119225D03*
X0283722Y0122725D03*
X0283872Y0122675D03*
X0284022Y0122625D03*
X0284122Y0122575D03*
X0284172Y0122575D03*
X0284272Y0122525D03*
X0284322Y0122525D03*
X0284422Y0122475D03*
X0284472Y0122475D03*
X0284572Y0122425D03*
X0284622Y0122425D03*
X0284772Y0122375D03*
X0284822Y0122375D03*
X0284872Y0122375D03*
X0284922Y0122325D03*
X0284972Y0122325D03*
X0285022Y0122325D03*
X0285072Y0122325D03*
X0285122Y0122275D03*
X0285172Y0122275D03*
X0285222Y0122275D03*
X0285272Y0122275D03*
X0285322Y0122275D03*
X0285372Y0122225D03*
X0285422Y0122225D03*
X0285472Y0122225D03*
X0285522Y0122225D03*
X0285622Y0122175D03*
X0285672Y0122175D03*
X0285722Y0122175D03*
X0285772Y0122175D03*
X0285822Y0122175D03*
X0285872Y0122175D03*
X0285922Y0122125D03*
X0285972Y0122125D03*
X0286022Y0122125D03*
X0286072Y0122125D03*
X0286122Y0122125D03*
X0286172Y0122125D03*
X0286222Y0122125D03*
X0286272Y0122125D03*
X0286522Y0122075D03*
X0286572Y0122075D03*
X0286622Y0122075D03*
X0286672Y0122075D03*
X0286722Y0122075D03*
X0286772Y0122075D03*
X0286822Y0122075D03*
X0286872Y0122075D03*
X0286922Y0122075D03*
X0281822Y0123975D03*
X0283872Y0129425D03*
X0284022Y0129375D03*
X0284122Y0129325D03*
X0284172Y0129325D03*
X0284272Y0129275D03*
X0284322Y0129275D03*
X0284422Y0129225D03*
X0284472Y0129225D03*
X0284572Y0129175D03*
X0284622Y0129175D03*
X0284722Y0129125D03*
X0284772Y0129125D03*
X0284822Y0129125D03*
X0284872Y0129075D03*
X0284922Y0129075D03*
X0284972Y0129075D03*
X0285022Y0129075D03*
X0285122Y0129025D03*
X0285172Y0129025D03*
X0285222Y0129025D03*
X0285272Y0129025D03*
X0285322Y0128975D03*
X0285372Y0128975D03*
X0285422Y0128975D03*
X0285472Y0128975D03*
X0285572Y0128925D03*
X0285622Y0128925D03*
X0285672Y0128925D03*
X0285722Y0128925D03*
X0285872Y0128875D03*
X0285922Y0128875D03*
X0285972Y0128875D03*
X0286022Y0128875D03*
X0286072Y0128875D03*
X0286122Y0128875D03*
X0286172Y0128875D03*
X0286272Y0128825D03*
X0286322Y0128825D03*
X0286372Y0128825D03*
X0286422Y0128825D03*
X0286472Y0128825D03*
X0286522Y0128825D03*
X0286572Y0128825D03*
X0286622Y0128825D03*
X0286672Y0128825D03*
X0283622Y0129525D03*
X0283522Y0129575D03*
X0283422Y0129625D03*
X0283322Y0129675D03*
X0283222Y0129725D03*
X0283122Y0129775D03*
X0282972Y0129875D03*
X0282872Y0129925D03*
X0282772Y0129975D03*
X0282722Y0130025D03*
X0282672Y0130075D03*
X0282572Y0130125D03*
X0282522Y0130175D03*
X0280972Y0131875D03*
X0282272Y0134575D03*
X0282322Y0134575D03*
X0286572Y0133725D03*
X0286772Y0133675D03*
X0286822Y0133675D03*
X0286872Y0133625D03*
X0286922Y0133625D03*
X0286822Y0138225D03*
X0286772Y0138225D03*
X0286722Y0138225D03*
X0286672Y0138275D03*
X0286622Y0138275D03*
X0286572Y0138275D03*
X0286422Y0138325D03*
X0286372Y0138325D03*
X0296972Y0116275D03*
X0297022Y0116275D03*
X0299772Y0116425D03*
X0299822Y0116425D03*
X0299872Y0116425D03*
X0299922Y0116425D03*
X0299972Y0116425D03*
X0300022Y0116425D03*
X0300072Y0116425D03*
X0300122Y0116425D03*
X0300172Y0116425D03*
X0300222Y0116425D03*
X0300272Y0116425D03*
X0300322Y0116425D03*
X0300372Y0116475D03*
X0300422Y0116475D03*
X0300472Y0116475D03*
X0300522Y0116475D03*
X0300572Y0116475D03*
X0300622Y0116475D03*
X0300672Y0116475D03*
X0300722Y0116475D03*
X0300772Y0116475D03*
X0300822Y0116475D03*
X0300872Y0116475D03*
X0301022Y0116525D03*
X0301072Y0116525D03*
X0301122Y0116525D03*
X0301172Y0116525D03*
X0301222Y0116525D03*
X0301272Y0116525D03*
X0301322Y0116525D03*
X0301372Y0116525D03*
X0301672Y0116575D03*
X0301722Y0116575D03*
X0301772Y0116575D03*
X0301822Y0116575D03*
X0301872Y0116575D03*
X0302272Y0116625D03*
X0302322Y0116625D03*
X0302372Y0116625D03*
X0302422Y0116625D03*
X0302472Y0116625D03*
X0280822Y0104675D03*
X0282122Y0102975D03*
X0282172Y0102925D03*
X0282222Y0102875D03*
X0282272Y0102825D03*
X0282322Y0102775D03*
X0282472Y0102675D03*
X0283022Y0102325D03*
X0283322Y0102175D03*
X0283422Y0102125D03*
X0283522Y0102075D03*
X0283622Y0102025D03*
X0283772Y0101975D03*
X0283872Y0101925D03*
X0283922Y0101925D03*
X0284022Y0101875D03*
X0284072Y0101875D03*
X0284122Y0101825D03*
X0284172Y0101825D03*
X0284222Y0101825D03*
X0284272Y0101775D03*
X0284322Y0101775D03*
X0284372Y0101725D03*
X0284422Y0101725D03*
X0284472Y0101725D03*
X0284572Y0101675D03*
X0284622Y0101675D03*
X0284722Y0101625D03*
X0284772Y0101625D03*
X0284822Y0101625D03*
X0284872Y0101625D03*
X0284922Y0101575D03*
X0284972Y0101575D03*
X0285022Y0101575D03*
X0285122Y0101525D03*
X0285172Y0101525D03*
X0285222Y0101525D03*
X0285272Y0101525D03*
X0285372Y0101475D03*
X0285422Y0101475D03*
X0285472Y0101475D03*
X0285522Y0101475D03*
X0285572Y0101425D03*
X0285622Y0101425D03*
X0285672Y0101425D03*
X0285722Y0101425D03*
X0285772Y0101425D03*
X0285872Y0101375D03*
X0285922Y0101375D03*
X0285972Y0101375D03*
X0286022Y0101375D03*
X0286072Y0101375D03*
X0286122Y0101375D03*
X0286172Y0101375D03*
X0286272Y0101325D03*
X0286322Y0101325D03*
X0286372Y0101325D03*
X0286422Y0101325D03*
X0286472Y0101325D03*
X0286522Y0101325D03*
X0286572Y0101325D03*
X0286622Y0101325D03*
X0286672Y0101325D03*
X0286722Y0101325D03*
X0286772Y0101325D03*
X0286822Y0101325D03*
X0286872Y0101325D03*
X0286922Y0101325D03*
X0286972Y0101325D03*
X0287022Y0101325D03*
X0287072Y0101325D03*
X0287122Y0101325D03*
X0281372Y0098975D03*
X0282922Y0095675D03*
X0282972Y0095625D03*
D198*
X0300922Y0113900D03*
X0301022Y0113850D03*
X0301122Y0113800D03*
X0301222Y0113750D03*
X0301322Y0113700D03*
X0301422Y0113650D03*
X0301522Y0113600D03*
X0301622Y0113550D03*
X0301722Y0113500D03*
X0301772Y0113450D03*
X0301822Y0113450D03*
X0301872Y0113400D03*
X0301922Y0113400D03*
X0301972Y0113350D03*
X0302022Y0113350D03*
X0302072Y0113300D03*
X0302122Y0113300D03*
X0302172Y0113250D03*
X0302222Y0113250D03*
X0302272Y0113200D03*
X0300822Y0113950D03*
X0300722Y0114000D03*
X0300672Y0114000D03*
X0300622Y0114050D03*
X0300572Y0114050D03*
X0300472Y0114100D03*
X0300372Y0114150D03*
X0300322Y0114150D03*
X0303272Y0119100D03*
X0303222Y0119150D03*
X0303172Y0119200D03*
X0279922Y0119200D03*
X0277022Y0119200D03*
X0287372Y0141700D03*
X0287272Y0141750D03*
X0287222Y0141800D03*
D199*
X0287172Y0141825D03*
X0287122Y0141825D03*
X0287072Y0141875D03*
X0280622Y0132075D03*
X0303122Y0119275D03*
X0296722Y0117125D03*
X0299972Y0114275D03*
X0300022Y0114275D03*
X0300122Y0114225D03*
X0300172Y0114225D03*
X0300222Y0114175D03*
X0300272Y0114175D03*
X0300422Y0114125D03*
X0300522Y0114075D03*
X0300772Y0113975D03*
X0300872Y0113925D03*
X0300972Y0113875D03*
X0301072Y0113825D03*
X0301172Y0113775D03*
X0301272Y0113725D03*
X0301372Y0113675D03*
X0301472Y0113625D03*
X0301572Y0113575D03*
X0301672Y0113525D03*
X0297122Y0099575D03*
X0271872Y0099875D03*
D200*
X0302822Y0119550D03*
X0302872Y0119500D03*
X0302922Y0119450D03*
D201*
X0302522Y0113150D03*
X0289772Y0118050D03*
X0277222Y0119200D03*
X0281822Y0126700D03*
X0289772Y0138850D03*
X0284672Y0106300D03*
X0284622Y0106300D03*
X0284722Y0106250D03*
X0284772Y0106250D03*
X0284822Y0106250D03*
X0284872Y0106250D03*
X0284922Y0106250D03*
X0285072Y0106200D03*
X0285122Y0106200D03*
X0285172Y0106200D03*
X0281972Y0106150D03*
X0283172Y0099350D03*
D202*
X0289872Y0102750D03*
X0296622Y0117500D03*
X0280022Y0119200D03*
X0299172Y0088550D03*
D203*
X0299022Y0087975D03*
X0296772Y0116975D03*
X0283372Y0126525D03*
X0279822Y0119175D03*
D204*
X0289622Y0118125D03*
X0280872Y0113575D03*
X0289672Y0102775D03*
X0281172Y0099075D03*
X0298222Y0087225D03*
X0298272Y0087275D03*
X0280572Y0082925D03*
X0280522Y0082875D03*
X0298722Y0110425D03*
X0289622Y0138925D03*
D205*
X0281822Y0132700D03*
X0281822Y0112250D03*
X0281872Y0112250D03*
X0288772Y0110800D03*
X0298322Y0100200D03*
D206*
X0298272Y0100225D03*
X0298222Y0100275D03*
X0288822Y0110775D03*
X0281772Y0132725D03*
X0281722Y0132775D03*
D207*
X0276922Y0119175D03*
X0297122Y0109625D03*
D208*
X0297072Y0099600D03*
X0280572Y0132100D03*
D209*
X0296672Y0117325D03*
D210*
X0290772Y0090675D03*
X0290722Y0090675D03*
X0290672Y0090675D03*
X0290822Y0090625D03*
X0290872Y0090625D03*
X0290922Y0090625D03*
X0290972Y0090625D03*
X0291072Y0090575D03*
X0291122Y0090575D03*
X0291172Y0090575D03*
X0291222Y0090575D03*
X0291272Y0090525D03*
X0291322Y0090525D03*
X0291372Y0090525D03*
X0291422Y0090525D03*
X0291472Y0090525D03*
X0291522Y0090475D03*
X0291572Y0090475D03*
D211*
X0291022Y0090600D03*
X0274572Y0094150D03*
D212*
X0281522Y0104475D03*
X0289872Y0093775D03*
X0288522Y0118425D03*
X0289172Y0123725D03*
X0287822Y0128325D03*
D213*
X0281472Y0125175D03*
X0281472Y0104475D03*
X0289022Y0102825D03*
X0289822Y0093875D03*
X0275072Y0096375D03*
D214*
X0288522Y0134625D03*
D215*
X0288472Y0121525D03*
D216*
X0288472Y0134650D03*
D217*
X0288422Y0111000D03*
D218*
X0288422Y0121550D03*
D219*
X0288422Y0134650D03*
X0288372Y0134650D03*
D220*
X0288372Y0121600D03*
D221*
X0288322Y0121575D03*
D222*
X0288322Y0134650D03*
D223*
X0288272Y0121600D03*
D224*
X0288272Y0134675D03*
D225*
X0288222Y0121625D03*
D226*
X0288222Y0134700D03*
D227*
X0288172Y0121650D03*
D228*
X0288172Y0134675D03*
D229*
X0288122Y0121650D03*
D230*
X0288122Y0134700D03*
D231*
X0288072Y0120125D03*
D232*
X0288072Y0134725D03*
X0272172Y0093225D03*
D233*
X0273422Y0091900D03*
X0273472Y0091850D03*
X0288022Y0133650D03*
D234*
X0287972Y0130550D03*
D235*
X0287872Y0130525D03*
X0272072Y0091025D03*
D236*
X0271672Y0100300D03*
X0283722Y0126600D03*
X0277122Y0141550D03*
D237*
X0277172Y0141350D03*
X0283672Y0126550D03*
X0271772Y0100100D03*
X0275422Y0096800D03*
D238*
X0280722Y0099200D03*
X0279972Y0119200D03*
X0276972Y0119200D03*
X0283622Y0126550D03*
D239*
X0280572Y0113675D03*
D240*
X0274822Y0093950D03*
D241*
X0274772Y0093975D03*
D242*
X0274722Y0094025D03*
D243*
X0274672Y0094050D03*
X0274622Y0094100D03*
D244*
X0274522Y0094175D03*
X0274472Y0094175D03*
D245*
X0274422Y0094200D03*
X0274372Y0094250D03*
D246*
X0274072Y0091375D03*
X0274122Y0091325D03*
X0274172Y0091275D03*
X0274222Y0091225D03*
X0274272Y0091175D03*
X0274322Y0091175D03*
D247*
X0274022Y0091400D03*
X0273972Y0091450D03*
D248*
X0273922Y0091475D03*
X0273872Y0091525D03*
D249*
X0273822Y0091550D03*
D250*
X0273772Y0091575D03*
X0273722Y0091625D03*
D251*
X0273672Y0091675D03*
X0273622Y0091725D03*
D252*
X0273572Y0091750D03*
X0273522Y0091800D03*
D253*
X0273372Y0091925D03*
D254*
X0273322Y0091975D03*
X0273272Y0092025D03*
D255*
X0273222Y0092050D03*
D256*
X0273172Y0092100D03*
D257*
X0273122Y0092125D03*
D258*
X0273072Y0092175D03*
D259*
X0273022Y0092250D03*
D260*
X0272972Y0092275D03*
D261*
X0272922Y0092325D03*
D262*
X0272872Y0092375D03*
X0272822Y0092425D03*
D263*
X0272772Y0092475D03*
D264*
X0272722Y0092525D03*
D265*
X0272372Y0092925D03*
D266*
X0272322Y0093000D03*
D267*
X0272272Y0093075D03*
D268*
X0272222Y0093150D03*
D269*
X0272122Y0091275D03*
D270*
X0271822Y0099975D03*
D271*
X0271722Y0100200D03*
D272*
X0240312Y0111417D02*
X0237556Y0111417D01*
X0237556Y0111418D02*
X0237494Y0111420D01*
X0237433Y0111426D01*
X0237372Y0111435D01*
X0237311Y0111449D01*
X0237252Y0111466D01*
X0237194Y0111487D01*
X0237137Y0111512D01*
X0237082Y0111540D01*
X0237029Y0111571D01*
X0236978Y0111606D01*
X0236929Y0111644D01*
X0236882Y0111685D01*
X0236839Y0111728D01*
X0236798Y0111775D01*
X0236760Y0111824D01*
X0236725Y0111875D01*
X0236694Y0111928D01*
X0236666Y0111983D01*
X0236641Y0112040D01*
X0236620Y0112098D01*
X0236603Y0112157D01*
X0236589Y0112218D01*
X0236580Y0112279D01*
X0236574Y0112340D01*
X0236572Y0112402D01*
X0236574Y0112464D01*
X0236580Y0112525D01*
X0236589Y0112586D01*
X0236603Y0112647D01*
X0236620Y0112706D01*
X0236641Y0112764D01*
X0236666Y0112821D01*
X0236694Y0112876D01*
X0236725Y0112929D01*
X0236760Y0112980D01*
X0236798Y0113029D01*
X0236839Y0113076D01*
X0236882Y0113119D01*
X0236929Y0113160D01*
X0236978Y0113198D01*
X0237029Y0113233D01*
X0237082Y0113264D01*
X0237137Y0113292D01*
X0237194Y0113317D01*
X0237252Y0113338D01*
X0237311Y0113355D01*
X0237372Y0113369D01*
X0237433Y0113378D01*
X0237494Y0113384D01*
X0237556Y0113386D01*
X0240312Y0113386D01*
X0240374Y0113384D01*
X0240435Y0113378D01*
X0240496Y0113369D01*
X0240557Y0113355D01*
X0240616Y0113338D01*
X0240674Y0113317D01*
X0240731Y0113292D01*
X0240786Y0113264D01*
X0240839Y0113233D01*
X0240890Y0113198D01*
X0240939Y0113160D01*
X0240986Y0113119D01*
X0241029Y0113076D01*
X0241070Y0113029D01*
X0241108Y0112980D01*
X0241143Y0112929D01*
X0241174Y0112876D01*
X0241202Y0112821D01*
X0241227Y0112764D01*
X0241248Y0112706D01*
X0241265Y0112647D01*
X0241279Y0112586D01*
X0241288Y0112525D01*
X0241294Y0112464D01*
X0241296Y0112402D01*
X0241294Y0112340D01*
X0241288Y0112279D01*
X0241279Y0112218D01*
X0241265Y0112157D01*
X0241248Y0112098D01*
X0241227Y0112040D01*
X0241202Y0111983D01*
X0241174Y0111928D01*
X0241143Y0111875D01*
X0241108Y0111824D01*
X0241070Y0111775D01*
X0241029Y0111728D01*
X0240986Y0111685D01*
X0240939Y0111644D01*
X0240890Y0111606D01*
X0240839Y0111571D01*
X0240786Y0111540D01*
X0240731Y0111512D01*
X0240674Y0111487D01*
X0240616Y0111466D01*
X0240557Y0111449D01*
X0240496Y0111435D01*
X0240435Y0111426D01*
X0240374Y0111420D01*
X0240312Y0111418D01*
X0240312Y0137402D02*
X0237556Y0137402D01*
X0237494Y0137404D01*
X0237433Y0137410D01*
X0237372Y0137419D01*
X0237311Y0137433D01*
X0237252Y0137450D01*
X0237194Y0137471D01*
X0237137Y0137496D01*
X0237082Y0137524D01*
X0237029Y0137555D01*
X0236978Y0137590D01*
X0236929Y0137628D01*
X0236882Y0137669D01*
X0236839Y0137712D01*
X0236798Y0137759D01*
X0236760Y0137808D01*
X0236725Y0137859D01*
X0236694Y0137912D01*
X0236666Y0137967D01*
X0236641Y0138024D01*
X0236620Y0138082D01*
X0236603Y0138141D01*
X0236589Y0138202D01*
X0236580Y0138263D01*
X0236574Y0138324D01*
X0236572Y0138386D01*
X0236574Y0138448D01*
X0236580Y0138509D01*
X0236589Y0138570D01*
X0236603Y0138631D01*
X0236620Y0138690D01*
X0236641Y0138748D01*
X0236666Y0138805D01*
X0236694Y0138860D01*
X0236725Y0138913D01*
X0236760Y0138964D01*
X0236798Y0139013D01*
X0236839Y0139060D01*
X0236882Y0139103D01*
X0236929Y0139144D01*
X0236978Y0139182D01*
X0237029Y0139217D01*
X0237082Y0139248D01*
X0237137Y0139276D01*
X0237194Y0139301D01*
X0237252Y0139322D01*
X0237311Y0139339D01*
X0237372Y0139353D01*
X0237433Y0139362D01*
X0237494Y0139368D01*
X0237556Y0139370D01*
X0240312Y0139370D01*
X0240374Y0139368D01*
X0240435Y0139362D01*
X0240496Y0139353D01*
X0240557Y0139339D01*
X0240616Y0139322D01*
X0240674Y0139301D01*
X0240731Y0139276D01*
X0240786Y0139248D01*
X0240839Y0139217D01*
X0240890Y0139182D01*
X0240939Y0139144D01*
X0240986Y0139103D01*
X0241029Y0139060D01*
X0241070Y0139013D01*
X0241108Y0138964D01*
X0241143Y0138913D01*
X0241174Y0138860D01*
X0241202Y0138805D01*
X0241227Y0138748D01*
X0241248Y0138690D01*
X0241265Y0138631D01*
X0241279Y0138570D01*
X0241288Y0138509D01*
X0241294Y0138448D01*
X0241296Y0138386D01*
X0241294Y0138324D01*
X0241288Y0138263D01*
X0241279Y0138202D01*
X0241265Y0138141D01*
X0241248Y0138082D01*
X0241227Y0138024D01*
X0241202Y0137967D01*
X0241174Y0137912D01*
X0241143Y0137859D01*
X0241108Y0137808D01*
X0241070Y0137759D01*
X0241029Y0137712D01*
X0240986Y0137669D01*
X0240939Y0137628D01*
X0240890Y0137590D01*
X0240839Y0137555D01*
X0240786Y0137524D01*
X0240731Y0137496D01*
X0240674Y0137471D01*
X0240616Y0137450D01*
X0240557Y0137433D01*
X0240496Y0137419D01*
X0240435Y0137410D01*
X0240374Y0137404D01*
X0240312Y0137402D01*
D273*
X0100922Y0113500D03*
D274*
X0210745Y0069179D02*
X0210745Y0065821D01*
X0215191Y0065369D01*
X0215482Y0064364D01*
X0215883Y0063397D01*
X0216387Y0062480D01*
X0213563Y0059017D01*
X0215938Y0056642D01*
X0219402Y0059466D01*
X0220319Y0058961D01*
X0221285Y0058561D01*
X0222291Y0058269D01*
X0222743Y0053823D01*
X0226101Y0053823D01*
X0226553Y0058269D01*
X0227558Y0058561D01*
X0228525Y0058961D01*
X0229442Y0059466D01*
X0232905Y0056642D01*
X0235280Y0059017D01*
X0232456Y0062480D01*
X0232844Y0063162D01*
X0233174Y0063874D01*
X0228400Y0065852D01*
X0228068Y0065209D01*
X0227633Y0064630D01*
X0227107Y0064133D01*
X0226505Y0063731D01*
X0225844Y0063435D01*
X0225143Y0063255D01*
X0224422Y0063194D01*
X0223618Y0063269D01*
X0222842Y0063494D01*
X0222122Y0063859D01*
X0221483Y0064353D01*
X0220947Y0064957D01*
X0220533Y0065650D01*
X0220256Y0066409D01*
X0220126Y0067206D01*
X0220146Y0068013D01*
X0220317Y0068803D01*
X0220633Y0069546D01*
X0221081Y0070217D01*
X0221647Y0070793D01*
X0222311Y0071253D01*
X0223049Y0071581D01*
X0223835Y0071766D01*
X0224642Y0071800D01*
X0225441Y0071684D01*
X0226204Y0071420D01*
X0226905Y0071018D01*
X0227518Y0070493D01*
X0228022Y0069862D01*
X0228400Y0069148D01*
X0233174Y0071126D01*
X0232844Y0071838D01*
X0232456Y0072520D01*
X0235280Y0075983D01*
X0232905Y0078358D01*
X0229442Y0075534D01*
X0228525Y0076039D01*
X0227558Y0076439D01*
X0226553Y0076731D01*
X0226101Y0081177D01*
X0222743Y0081177D01*
X0222291Y0076731D01*
X0221285Y0076439D01*
X0220319Y0076039D01*
X0219402Y0075534D01*
X0215938Y0078358D01*
X0213563Y0075983D01*
X0216387Y0072520D01*
X0215883Y0071603D01*
X0215482Y0070636D01*
X0215191Y0069631D01*
X0210745Y0069179D01*
X0210745Y0068973D02*
X0220390Y0068973D01*
X0220227Y0068384D02*
X0210745Y0068384D01*
X0210745Y0067795D02*
X0220141Y0067795D01*
X0220126Y0067206D02*
X0210745Y0067206D01*
X0210745Y0066617D02*
X0220222Y0066617D01*
X0220395Y0066028D02*
X0210745Y0066028D01*
X0214501Y0065439D02*
X0220659Y0065439D01*
X0221041Y0064850D02*
X0215341Y0064850D01*
X0215525Y0064261D02*
X0221602Y0064261D01*
X0222491Y0063672D02*
X0215769Y0063672D01*
X0216056Y0063083D02*
X0232799Y0063083D01*
X0233080Y0063672D02*
X0226373Y0063672D01*
X0227242Y0064261D02*
X0232241Y0064261D01*
X0230819Y0064850D02*
X0227798Y0064850D01*
X0228187Y0065439D02*
X0229397Y0065439D01*
X0229401Y0069563D02*
X0228181Y0069563D01*
X0227791Y0070152D02*
X0230823Y0070152D01*
X0232245Y0070741D02*
X0227229Y0070741D01*
X0226362Y0071330D02*
X0233079Y0071330D01*
X0232798Y0071919D02*
X0216057Y0071919D01*
X0215770Y0071330D02*
X0222483Y0071330D01*
X0221596Y0070741D02*
X0215526Y0070741D01*
X0215342Y0070152D02*
X0221037Y0070152D01*
X0220644Y0069563D02*
X0214516Y0069563D01*
X0216381Y0072508D02*
X0232463Y0072508D01*
X0232926Y0073097D02*
X0215917Y0073097D01*
X0215437Y0073686D02*
X0233407Y0073686D01*
X0233887Y0074275D02*
X0214957Y0074275D01*
X0214476Y0074864D02*
X0234367Y0074864D01*
X0234848Y0075453D02*
X0213996Y0075453D01*
X0213622Y0076042D02*
X0218779Y0076042D01*
X0218056Y0076631D02*
X0214211Y0076631D01*
X0214800Y0077220D02*
X0217334Y0077220D01*
X0216611Y0077809D02*
X0215389Y0077809D01*
X0220326Y0076042D02*
X0228517Y0076042D01*
X0230065Y0076042D02*
X0235221Y0076042D01*
X0234632Y0076631D02*
X0230787Y0076631D01*
X0231510Y0077220D02*
X0234043Y0077220D01*
X0233454Y0077809D02*
X0232232Y0077809D01*
X0226896Y0076631D02*
X0221948Y0076631D01*
X0222340Y0077220D02*
X0226503Y0077220D01*
X0226443Y0077809D02*
X0222400Y0077809D01*
X0222460Y0078398D02*
X0226383Y0078398D01*
X0226323Y0078988D02*
X0222520Y0078988D01*
X0222580Y0079577D02*
X0226264Y0079577D01*
X0226204Y0080166D02*
X0222640Y0080166D01*
X0222700Y0080755D02*
X0226144Y0080755D01*
X0232464Y0062494D02*
X0216380Y0062494D01*
X0215918Y0061905D02*
X0232925Y0061905D01*
X0233405Y0061316D02*
X0215438Y0061316D01*
X0214958Y0060727D02*
X0233886Y0060727D01*
X0234366Y0060137D02*
X0214477Y0060137D01*
X0213997Y0059548D02*
X0234846Y0059548D01*
X0235223Y0058959D02*
X0230063Y0058959D01*
X0230785Y0058370D02*
X0234634Y0058370D01*
X0234045Y0057781D02*
X0231508Y0057781D01*
X0232230Y0057192D02*
X0233456Y0057192D01*
X0228521Y0058959D02*
X0220323Y0058959D01*
X0218781Y0058959D02*
X0213621Y0058959D01*
X0214210Y0058370D02*
X0218058Y0058370D01*
X0217336Y0057781D02*
X0214799Y0057781D01*
X0215388Y0057192D02*
X0216613Y0057192D01*
X0221942Y0058370D02*
X0226901Y0058370D01*
X0226503Y0057781D02*
X0222340Y0057781D01*
X0222400Y0057192D02*
X0226443Y0057192D01*
X0226383Y0056603D02*
X0222460Y0056603D01*
X0222520Y0056014D02*
X0226324Y0056014D01*
X0226264Y0055425D02*
X0222580Y0055425D01*
X0222640Y0054836D02*
X0226204Y0054836D01*
X0226144Y0054247D02*
X0222700Y0054247D01*
M02*
