%
M48
M72
T01C0.01200
T02C0.02362
T03C0.02400
T04C0.02900
T05C0.03937
T06C0.04000
T07C0.05118
T08C0.12598
%
T01
X120422Y87000
X110922Y102500
X123422Y113500
X139922Y109000
X142422Y101500
X160922Y102500
X162922Y107500
X160922Y120500
X165922Y120500
X165222Y124000
X177422Y128500
X169422Y134000
X163422Y135000
X155922Y133500
X174922Y137000
X190422Y131500
X197922Y131500
X196422Y138500
X203422Y139500
X222422Y132500
X221922Y119000
X214422Y84000
X183422Y84000
X179422Y61500
X204922Y61500
X132922Y141000
X137922Y151500
X143422Y154000
X152922Y159500
X156922Y154000
X164422Y152500
X173922Y152500
X177422Y153500
X187922Y160000
X192422Y168000
X202722Y165000
X206922Y161500
X204722Y170900
X216322Y169000
X223422Y174500
X228922Y172000
X225922Y165000
X206822Y178600
X194922Y178500
X188922Y188000
X192922Y191000
X193422Y196000
X198422Y191000
X179722Y193700
X168422Y188000
X167922Y184000
X168422Y180500
X173922Y177500
X177922Y176500
X179922Y182000
X160422Y183500
X157422Y181500
X158422Y177000
X160422Y173500
X152422Y177000
X145422Y175500
X142422Y173500
X139422Y177000
X133422Y182000
X137922Y185000
X145922Y185500
X144922Y193000
X144922Y198000
X156922Y193500
X129422Y195000
X126422Y196500
X119422Y179500
X132922Y163500
X108422Y159000
X103422Y164500
X98422Y153000
X104422Y139500
X165422Y167000
X174922Y168500
T02
X193472Y102600
X198472Y102600
X203472Y102600
X203472Y92600
X198472Y92600
X193472Y92600
T03
X236422Y149000
X241422Y149000
X241422Y154000
X236422Y154000
X236422Y159000
X241422Y159000
X241422Y164000
X236422Y164000
X236422Y169000
X241422Y169000
T04
X145922Y50000
X140922Y50000
T05
X138422Y126000
X148422Y126000
X148422Y136000
X138422Y136000
X128422Y136000
X118422Y136000
X118422Y126000
X128422Y126000
X128422Y146000
X118422Y146000
X138422Y146000
X148422Y146000
X158422Y146000
X168422Y146000
X178422Y146000
X188422Y146000
X198422Y146000
X208422Y146000
X208422Y206000
X198422Y206000
X188422Y206000
X178422Y206000
X168422Y206000
X158422Y206000
X148422Y206000
X138422Y206000
X128422Y206000
X118422Y206000
T06
X174422Y50000
X184422Y50000
X194422Y50000
X204422Y50000
T07
X133022Y57950
X152707Y57950
T08
X102398Y66476
X224445Y66476
X224445Y188524
X102398Y188524
M30
